# Exported using wow.export v0.1.64
o silvermoonflower05
mtllib silvermoonflower05.mtl
v -0.1508299708366394 0.21554799377918243 0.19477276504039764
v 0.054997723549604416 0.333125501871109 0.2665524184703827
v 0.12361134588718414 0.3071717321872711 -0.0011462997645139694
v -0.0812733918428421 0.5783572793006897 -0.20940640568733215
v -0.07207087427377701 0.43052440881729126 -0.3269038498401642
v -0.2608289122581482 0.48508909344673157 -0.1465122252702713
v -0.0819452777504921 0.5949490070343018 -0.003869060892611742
v 0.10681275278329849 0.5403842329978943 -0.18426069617271423
v -0.022273700684309006 0.3652314841747284 -0.37459850311279297
v -0.09088732302188873 0.5571866631507874 -0.18621215224266052
v 0.17032532393932343 0.5043900609016418 -0.1420385092496872
v -0.10411599278450012 0.5601364970207214 0.06693877279758453
v -0.29671499133110046 0.42097795009613037 -0.16562123596668243
v 0.15949217975139618 0.5814395546913147 0.15997304022312164
v 0.21691663563251495 0.664929211139679 -0.004898278508335352
v 0.014618554152548313 0.6903643012046814 -0.03571818396449089
v 0.1861574351787567 0.6234320998191833 -0.21038955450057983
v 0.33103108406066895 0.5145072937011719 -0.014698348008096218
v 0.21120770275592804 0.5697935819625854 -0.2579142451286316
v -0.05126364901661873 0.6655715107917786 -0.07769490033388138
v 0.19574423134326935 0.6479728817939758 -0.02341327629983425
v 0.10688260942697525 0.5323808193206787 0.20399150252342224
v 0.3693539500236511 0.43660297989845276 0.02377212978899479
v 0.06461165100336075 0.36425209045410156 0.2623928189277649
v 0.07381415367126465 0.3265314996242523 0.0773593857884407
v -0.11494386196136475 0.252376914024353 0.25062093138694763
v 0.06393977254629135 0.2448452264070511 0.43050849437713623
v 0.25269779562950134 0.3189997375011444 0.2572469413280487
v 0.08718834072351456 -0.017215702682733536 0.0008480369579046965
v 0.009395715780556202 -0.017215702682733536 -0.12829044461250305
v 0.002196220215409994 0.17629605531692505 -0.023061411455273628
v 0.03574096038937569 0.14951270818710327 0.03930402547121048
v -0.007707113400101662 0.35406365990638733 -0.003944328520447016
v 0.012123172171413898 0.33585596084594727 0.019876224920153618
v 0.19574402272701263 0.6479727625846863 -0.023413309827446938
v -0.01759571209549904 0.3140665888786316 0.05794807896018028
v -0.005051962565630674 0.1864539235830307 0.060122039169073105
v 0.05499740689992905 0.333125501871109 0.2665523588657379
v -0.054382242262363434 0.3308993875980377 0.03751659765839577
v -0.033929020166397095 0.37191271781921387 0.0073320516385138035
v 0.005705819930881262 0.15267319977283478 0.05876210704445839
v -0.05325963348150253 0.17482641339302063 0.027536500245332718
v -0.040884830057621 0.3213268220424652 0.007054612971842289
v -0.0908876359462738 0.5571866631507874 -0.1862121820449829
v -0.07527360320091248 -0.017215702682733536 -0.039539385586977005
v 0.001885144505649805 -0.017215702682733536 0.039015159010887146
v 0.31621038913726807 0.26428666710853577 0.2664543688297272
v 0.04176906868815422 0.17266295850276947 0.46237340569496155
vn -0.6909335851669312 0.6860653162002563 0.22787097096443176
vn -0.259706974029541 0.8880652189254761 0.3793315589427948
vn -0.19428731501102448 0.9610960483551025 -0.19633333384990692
vn -0.20240701735019684 0.7588392496109009 -0.6190269589424133
vn -0.22155508399009705 0.4293976128101349 -0.8755176067352295
vn -0.6240551471710205 0.5867026448249817 -0.5160767436027527
vn -0.27342742681503296 0.9526250958442688 -0.13320235908031464
vn 0.25139543414115906 0.7515352964401245 -0.6099140048027039
vn -0.12999467551708221 0.4914189577102661 -0.8611671328544617
vn -0.23060652613639832 0.8125937581062317 -0.5352681875228882
vn 0.2661671042442322 0.8029548525810242 -0.5333090424537659
vn -0.29342886805534363 0.9553056359291077 -0.03592590615153313
vn -0.6072840690612793 0.5719208717346191 -0.5514640212059021
vn 0.4276047646999359 0.5885975956916809 0.6860809326171875
vn 0.5846020579338074 0.7856708765029907 0.20238995552062988
vn 0.06898543983697891 0.9902908802032471 0.12068546563386917
vn 0.5490396618843079 0.7346360683441162 -0.39857912063598633
vn 0.893114447593689 0.4253508746623993 0.1463666409254074
vn 0.586829423904419 0.703216016292572 -0.40139561891555786
vn -0.0134823527187109 0.995462954044342 0.09418989717960358
vn 0.5039681792259216 0.8441063761711121 0.1830313503742218
vn 0.3315261900424957 0.6272298693656921 0.7047503590583801
vn 0.8237410187721252 0.48846471309661865 0.2878419756889343
vn -0.24270395934581757 0.9314321875572205 0.2711620330810547
vn -0.32028454542160034 0.8938589096069336 -0.3137419819831848
vn -0.6853672862052917 0.6788517832756042 0.26349931955337524
vn -0.28666046261787415 0.6230550408363342 0.727755606174469
vn 0.24033914506435394 0.9078548550605774 0.3435647189617157
vn 0.9118025898933411 0.37939271330833435 0.15708987414836884
vn 0.07111550867557526 0.7097770571708679 -0.700827419757843
vn 0.1942622810602188 0.5217859745025635 -0.8306633234024048
vn 0.9319713115692139 0.17342236638069153 0.3183615803718567
vn 0.3492891192436218 -0.11403293162584305 -0.9300503134727478
vn 0.9049791097640991 -0.40471941232681274 -0.13120590150356293
vn 0.5671408772468567 0.8143426775932312 -0.12327690422534943
vn 0.05875745415687561 0.23084516823291779 0.9712147116661072
vn -0.3423420786857605 0.13370977342128754 0.9300127029418945
vn 0.15763433277606964 0.6143813133239746 0.7731021642684937
vn -0.8479664921760559 0.39609530568122864 0.35222339630126953
vn -0.5567681193351746 0.8208478689193726 0.1273500770330429
vn -0.19137172400951385 -0.6243525147438049 0.7573379874229431
vn -0.9777147173881531 -0.07498743385076523 0.1960887610912323
vn -0.7537923455238342 -0.04765889421105385 -0.6553820967674255
vn -0.2206154614686966 0.7197542786598206 -0.6582420468330383
vn -0.9182873964309692 0.3733001947402954 -0.13189107179641724
vn -0.19197537004947662 -0.17216914892196655 0.9661797285079956
vn 0.2448597401380539 0.860223114490509 0.44728055596351624
vn -0.2934175133705139 0.5765810012817383 0.762535572052002
vt 0.9835343360900879 0.5521776080131531
vt 0.8767930269241333 0.7687917947769165
vt 0.7731167674064636 0.5521776080131531
vt 0.8767930269241333 0.7687917947769165
vt 0.9835343360900879 0.5521776080131531
vt 0.7731167674064636 0.5521776080131531
vt 0.7731167674064636 0.9559471607208252
vt 0.9835343360900879 0.9559471607208252
vt 0.7731167674064636 0.5521776080131531
vt 0.8767930269241333 0.7687917947769165
vt 0.7731167674064636 0.9559471607208252
vt 0.9835343360900879 0.9559471607208252
vt 0.9835343360900879 0.5521776080131531
vt 0.9835343360900879 0.9559471607208252
vt 0.8767930269241333 0.7687917947769165
vt 0.7731167674064636 0.9559471607208252
vt 0.7731167674064636 0.5521776080131531
vt 0.9835343360900879 0.5521776080131531
vt 0.9835343360900879 0.5521776080131531
vt 0.9835343360900879 0.9559471607208252
vt 0.8767930269241333 0.7687917947769165
vt 0.7731167674064636 0.9559471607208252
vt 0.7731167674064636 0.5521776080131531
vt 0.8767930269241333 0.7687917947769165
vt 0.9835343360900879 0.5521776080131531
vt 0.7731167674064636 0.5521776080131531
vt 0.7731167674064636 0.9559471607208252
vt 0.9835343360900879 0.9559471607208252
vt 0.9541455507278442 0.009071946144104004
vt 0.8078099489212036 0.008778870105743408
vt 0.8962262868881226 0.13525241613388062
vt 0.9597617983818054 0.16283082962036133
vt 0.900909423828125 0.2771413326263428
vt 0.9514009952545166 0.26145410537719727
vt 0.9634593725204468 0.4647296667098999
vt 0.9629089832305908 0.23044133186340332
vt 0.990330696105957 0.1356600522994995
vt 0.9867905378341675 0.3763773441314697
vt 0.960228443145752 0.25616443157196045
vt 0.9164367318153381 0.29982614517211914
vt 0.9871455430984497 0.10811787843704224
vt 0.9488707184791565 0.12959206104278564
vt 0.9137147068977356 0.24857842922210693
vt 0.9103128910064697 0.5006541013717651
vt 0.8978767395019531 0.00895923376083374
vt 0.9891610145568848 0.009142041206359863
vt 0.7731167674064636 0.9559471607208252
vt 0.9835343360900879 0.9559471607208252
g Geoset0
s 1
usemtl mat_eversongflowers01
f 1/1/1 2/2/2 3/3/3
f 4/4/4 5/5/5 6/6/6
f 4/4/4 6/6/6 7/7/7
f 8/8/8 4/4/4 7/7/7
f 8/8/8 5/5/5 4/4/4
f 9/9/9 10/10/10 11/11/11
f 10/10/10 12/12/12 11/11/11
f 13/13/13 12/12/12 10/10/10
f 13/13/13 10/10/10 9/9/9
f 14/14/14 15/15/15 16/16/16
f 15/15/15 17/17/17 16/16/16
f 15/15/15 18/18/18 17/17/17
f 14/14/14 18/18/18 15/15/15
f 19/19/19 20/20/20 21/21/21
f 21/21/21 20/20/20 22/22/22
f 23/23/23 21/21/21 22/22/22
f 19/19/19 21/21/21 23/23/23
f 24/24/24 25/25/25 26/26/26
f 24/24/24 26/26/26 27/27/27
f 28/28/28 24/24/24 27/27/27
f 28/28/28 25/25/25 24/24/24
f 29/29/29 30/30/30 31/31/31
f 31/31/31 32/32/32 29/29/29
f 32/32/32 31/31/31 33/33/33
f 33/33/33 34/34/34 32/32/32
f 34/34/34 33/33/33 35/35/35
f 36/36/36 34/34/34 35/35/35
f 32/32/32 34/34/34 36/36/36
f 32/32/32 37/37/37 38/38/38
f 32/32/32 36/36/36 37/37/37
f 37/37/37 36/36/36 39/39/39
f 39/39/39 36/36/36 35/35/35
f 39/39/39 35/35/35 40/40/40
f 40/40/40 35/35/35 33/33/33
f 41/41/41 32/32/32 38/38/38
f 37/37/37 41/41/41 38/38/38
f 42/42/42 41/41/41 37/37/37
f 39/39/39 42/42/42 37/37/37
f 42/42/42 39/39/39 43/43/43
f 40/40/40 43/43/43 39/39/39
f 43/43/43 40/40/40 44/44/44
f 30/30/30 45/45/45 31/31/31
f 40/40/40 33/33/33 44/44/44
f 44/44/44 33/33/33 43/43/43
f 33/33/33 31/31/31 43/43/43
f 43/43/43 31/31/31 42/42/42
f 45/45/45 42/42/42 31/31/31
f 41/41/41 42/42/42 45/45/45
f 45/45/45 46/46/46 41/41/41
f 32/32/32 41/41/41 46/46/46
f 46/46/46 29/29/29 32/32/32
f 3/3/3 2/2/2 47/47/47
f 2/2/2 48/48/48 47/47/47
f 1/1/1 48/48/48 2/2/2
