# Exported using wow.export v0.1.64
o taurenwallhanging02
mtllib taurenwallhanging02.mtl
v -0.03058195486664772 2.3015758991241455 -1.0694546699523926
v 0.003501386381685734 2.332209825515747 -1.0545135736465454
v 0.037584710866212845 2.3015758991241455 -1.0694546699523926
v -0.030581874772906303 2.283005714416504 1.0585516691207886
v 0.03758479282259941 2.283005714416504 1.0585516691207886
v 0.003501464147120714 2.3138957023620605 1.0441473722457886
v 0.0035014571622014046 2.2521157264709473 1.0729559659957886
v -0.022480374202132225 2.83127498626709 0.018254438415169716
v -0.016754264011979103 2.105464220046997 0.4140285849571228
v 0.003696009051054716 2.1117794513702393 0.4360043406486511
v 0.003695970168337226 2.8185842037200928 -0.0046399119310081005
v 0.003696007886901498 2.0955498218536377 0.3961423933506012
v 0.029872311279177666 2.83127498626709 0.018254438415169716
v 0.02414627932012081 2.105464220046997 0.4140285849571228
v 0.0036959710996598005 2.843965530395508 0.04114878550171852
v -0.016754472628235817 2.105464220046997 -0.4338490068912506
v 0.0036957454867661 2.817591905593872 0.0005047931335866451
v -0.022480599582195282 2.830282688140869 -0.022389553487300873
v 0.00369579647667706 2.1117794513702393 -0.4558247923851013
v 0.0036957983393222094 2.0955498218536377 -0.4159627854824066
v 0.02987208403646946 2.830282688140869 -0.02238955907523632
v 0.0241460669785738 2.105464220046997 -0.4338490068912506
v 0.0036957422271370888 2.842972993850708 -0.04528390243649483
v 0.0036959233693778515 2.819364070892334 0.01337501686066389
v 0.003696008352562785 2.218369483947754 0.8929963707923889
v -0.016754262149333954 2.235323429107666 0.9044319987297058
v 0.029872262850403786 2.8410654067993164 0.02801264263689518
v 0.024146277457475662 2.235323429107666 0.9044319987297058
v 0.003695923136547208 2.8627665042877197 0.042650267481803894
v 0.0036960088182240725 2.2509267330169678 0.9211456775665283
v -0.022480417042970657 2.8410654067993164 0.02801264263689518
v -0.016439853236079216 2.2509682178497314 -0.9155243635177612
v 0.003695870516821742 2.816274642944336 -0.014134317636489868
v -0.022480474784970284 2.8379757404327393 -0.02877194434404373
v 0.0036957967095077038 2.266331672668457 -0.9319809079170227
v 0.003695801366120577 2.2342751026153564 -0.9042646884918213
v 0.029872208833694458 2.8379757404327393 -0.02877194620668888
v 0.023831447586417198 2.2509682178497314 -0.9155243635177612
v 0.003695865161716938 2.8596768379211426 -0.043409571051597595
v 0.05527199059724808 0.17377854883670807 -0.8122079968452454
v 0.02701488509774208 1.1718343496322632 -0.7573551535606384
v -0.08538947999477386 0.07709866762161255 -0.5424321889877319
v 0.00350151676684618 2.1701557636260986 -0.8257997035980225
v 0.0035014981403946877 2.074103593826294 -0.5626272559165955
v 0.01491067185997963 1.0483582019805908 -0.014883582480251789
v 0.027109874412417412 0.02382570505142212 -0.022302189841866493
v -0.08538951724767685 0.07702324539422989 0.5009130835533142
v 0.027263347059488297 1.1579324007034302 0.7764154672622681
v 0.05527191981673241 0.1736314296722412 0.8376212120056152
v 0.0035014774184674025 2.0065433979034424 -0.007945419289171696
v 0.0035014620516449213 2.06441330909729 0.547831654548645
v 0.003501450875774026 2.162299394607544 0.8395902514457703
v 0.00032656770781613886 2.802093744277954 -0.001877261558547616
v -0.049022648483514786 2.859077215194702 -0.08735257387161255
v 0.04967576265335083 2.859077215194702 -0.08735258877277374
v 0.04967576265335083 2.9730446338653564 -0.08735258877277374
v -0.04902264103293419 2.9730446338653564 -0.08735257387161255
v 0.0003265744890086353 3.0300278663635254 -0.0018772482872009277
v -0.09837184101343155 2.9730446338653564 -0.0018772472394630313
v -0.0490226224064827 2.9730446338653564 0.0835980698466301
v -0.09837184101343155 2.859077215194702 -0.0018772538751363754
v -0.04902262985706329 2.859077215194702 0.0835980698466301
v 0.04967578127980232 2.859077215194702 0.0835980623960495
v 0.04967578873038292 2.9730446338653564 0.0835980623960495
v 0.09902497380971909 2.859077215194702 -0.0018772711046040058
v 0.09902497380971909 2.9730446338653564 -0.0018772647017613053
v 0.04967576265335083 2.9730446338653564 -0.08735258877277374
v 0.04967576265335083 2.859077215194702 -0.08735258877277374
v -0.03058193437755108 2.11723256111145 -0.5524718761444092
v 0.003501386381685734 2.332209825515747 -1.0545135736465454
v -0.03058195486664772 2.3015758991241455 -1.0694546699523926
v 0.003501405706629157 2.1504087448120117 -0.5446599125862122
v -0.030581912025809288 2.0515315532684326 -0.007552470546215773
v 0.0035014264285564423 2.085613489151001 -0.00725506991147995
v -0.030581895262002945 2.107712984085083 0.5384305119514465
v 0.003501445520669222 2.1410200595855713 0.5311987400054932
v -0.030581874772906303 2.283005714416504 1.0585516691207886
v 0.003501464147120714 2.3138957023620605 1.0441473722457886
v 0.037584710866212845 2.3015758991241455 -1.0694546699523926
v 0.037584733217954636 2.11723256111145 -0.5524718761444092
v 0.037584755569696426 2.0515315532684326 -0.007552472408860922
v 0.03758477419614792 2.107712984085083 0.5384305119514465
v 0.03758479282259941 2.283005714416504 1.0585516691207886
v 0.0035014571622014046 2.2521157264709473 1.0729559659957886
v 0.003501376835629344 2.270941972732544 -1.0843955278396606
v 0.003501397091895342 2.0840566158294678 -0.5602837204933167
v 0.0035014182794839144 2.0174496173858643 -0.00784997083246708
v 0.003501438070088625 2.0744054317474365 0.5456621646881104
v 0.003501428058370948 2.096520185470581 -0.007159975823014975
v 0.04849142208695412 2.0515315532684326 -0.0075524840503931046
v 0.04780973121523857 2.11723256111145 -0.5524718165397644
v 0.0035014082677662373 2.1603615283966064 -0.5423163771629333
v -0.04148857295513153 2.0515315532684326 -0.007552482187747955
v -0.040806934237480164 2.11723256111145 -0.5524718165397644
v 0.0035014168825000525 2.0065433979034424 -0.007945187389850616
v 0.0035013959277421236 2.074103593826294 -0.562627375125885
v 0.04780973121523857 2.209979772567749 -0.8063763976097107
v 0.003501405008137226 2.2498037815093994 -0.7869532108306885
v -0.040806934237480164 2.209979772567749 -0.8063763976097107
v 0.003501392202451825 2.1701557636260986 -0.8257997035980225
v 0.003501441329717636 2.162299394607544 0.839590311050415
v -0.040806885808706284 2.202456474304199 0.8208646178245544
v -0.04080690070986748 2.107712984085083 0.5384305119514465
v 0.0035014371387660503 2.06441330909729 0.5478317141532898
v 0.047809768468141556 2.107712984085083 0.5384305119514465
v 0.003501448081806302 2.1510121822357178 0.5290291905403137
v 0.047809772193431854 2.202456474304199 0.8208646774291992
v 0.0035014499444514513 2.2426135540008545 0.8021391034126282
v 0.003501376835629344 2.270941972732544 -1.0843955278396606
vn -0.817116379737854 0.21532577276229858 -0.5347481966018677
vn -1.0833468877535779e-7 0.9773744940757751 -0.21151630580425262
vn 0.8171163201332092 0.21532554924488068 -0.534748375415802
vn -0.8171166181564331 0.2059609591960907 0.5384240746498108
vn 0.8171165585517883 0.20596081018447876 0.5384242534637451
vn 1.4892536981392368e-8 0.9735345840454102 0.22853983938694
vn 3.60213481265248e-9 -0.5385749340057373 0.8425775766372681
vn -0.9999796748161316 -0.003836137242615223 0.005092785693705082
vn -0.9997063279151917 0.005038060247898102 0.023703157901763916
vn 0.0005421744426712394 0.4734109342098236 0.8808414936065674
vn 3.12236380750619e-7 -0.48480749130249023 -0.8746208548545837
vn -1.0977927900057693e-7 -0.48480749130249023 -0.8746208548545837
vn 0.9999710321426392 -0.004571454133838415 0.006083958316594362
vn 0.9996960759162903 0.006647194270044565 0.023738786578178406
vn 0.0005106739699840546 0.4736764430999756 0.8806988000869751
vn -0.9994852542877197 0.009499097242951393 -0.030642841011285782
vn 1.6348197107163287e-7 -0.49963676929473877 0.8662350177764893
vn -0.9999700784683228 -0.007578745484352112 0.0015649108681827784
vn 0.0005076916422694921 0.4884054362773895 -0.872616708278656
vn 4.636291350834654e-8 -0.49963676929473877 0.8662350177764893
vn 0.9999657273292542 -0.008257294073700905 0.0006299406522884965
vn 0.9994688034057617 0.011043483391404152 -0.030661186203360558
vn 0.00048807726125232875 0.4886539578437805 -0.8724775314331055
vn -9.640814369049622e-8 -0.8256794810295105 -0.5641395449638367
vn 3.8959345971534276e-8 -0.8256794214248657 -0.5641395449638367
vn -0.9997593760490417 0.014440473169088364 0.016512595117092133
vn 0.9999722838401794 0.0011844218242913485 0.007351862732321024
vn 0.9997512102127075 0.015576320700347424 0.01596449874341488
vn 0.000398145813960582 0.8200899958610535 0.5722344517707825
vn 0.00042559579014778137 0.8199530243873596 0.5724306702613831
vn -0.9999786615371704 0.0013495584717020392 0.006391939241439104
vn -0.9995110034942627 0.022506434470415115 -0.021707460284233093
vn 3.8979877103884064e-7 -0.8369733691215515 0.547243595123291
vn -0.9999788999557495 -0.0062742275185883045 -0.0016769756330177188
vn 0.00039947938057594 0.8310432434082031 -0.5562076568603516
vn 3.1248086429513933e-7 -0.8369733691215515 0.547243595123291
vn 0.9999760985374451 -0.006416021846234798 -0.002564801136031747
vn 0.9994974732398987 0.023596255108714104 -0.02116638608276844
vn 0.00037785747554153204 0.8311764597892761 -0.5560085773468018
vn 0.8867515921592712 -0.00029906240524724126 0.46224620938301086
vn 0.9984452724456787 -0.025811688974499702 0.049404796212911606
vn 0.9960893392562866 -0.020049957558512688 0.08604668080806732
vn 0.9996694922447205 0.02414940483868122 0.00881405733525753
vn 0.9997559189796448 0.02016266994178295 0.009033666923642159
vn 0.9995419979095459 -0.030261699110269547 -0.00012138417514506727
vn 0.9999279975891113 0.011916600167751312 -0.001431532553397119
vn 0.9982228875160217 -0.021663403138518333 -0.05551367625594139
vn 0.9984585046768188 -0.02533939853310585 -0.049381718039512634
vn 0.9224883317947388 0.0022462927736341953 -0.3860184848308563
vn 0.9999291300773621 0.011905484832823277 0.00010533652675803751
vn 0.9997625946998596 0.02006741799414158 -0.008489493280649185
vn 0.9996752142906189 0.024160761386156082 -0.00810600072145462
vn -2.703497337108729e-8 -1 -5.203141384413357e-8
vn -0.44867199659347534 -0.44133201241493225 -0.7771225571632385
vn 0.4486718475818634 -0.44133204221725464 -0.7771226167678833
vn 0.44867178797721863 0.441332072019577 -0.7771226763725281
vn -0.44867202639579773 0.4413321316242218 -0.7771224975585938
vn 4.322582114468787e-8 1 7.470836038692141e-8
vn -0.8973438739776611 0.4413321018218994 1.5927462015952187e-7
vn -0.4486718773841858 0.44133201241493225 0.7771226167678833
vn -0.8973438739776611 -0.441332072019577 9.122599919919594e-8
vn -0.4486718475818634 -0.4413321018218994 0.7771226167678833
vn 0.44867196679115295 -0.4413321316242218 0.7771225571632385
vn 0.44867202639579773 0.44133201241493225 0.7771225571632385
vn 0.8973438143730164 -0.4413321018218994 -1.6804497704470123e-7
vn 0.8973438739776611 0.44133204221725464 -1.1568909030756913e-7
vn 0.44867178797721863 0.441332072019577 -0.7771226763725281
vn 0.4486718475818634 -0.44133204221725464 -0.7771226167678833
vn -0.9987505674362183 -0.048642318695783615 -0.01145381573587656
vn -1.0833468877535779e-7 0.9773744940757751 -0.21151630580425262
vn -0.817116379737854 0.21532577276229858 -0.5347481966018677
vn 1.4166658957037725e-7 0.9733793139457703 0.22920012474060059
vn -0.998750627040863 -0.049970123916864395 -0.00043597191688604653
vn 5.744622555425849e-8 0.9999619126319885 0.008726220577955246
vn -0.998750627040863 -0.048834484070539474 0.010603023692965508
vn 1.6430216476237547e-7 0.9772310256958008 -0.21217793226242065
vn -0.8171166181564331 0.2059609591960907 0.5384240746498108
vn 1.4892536981392368e-8 0.9735345840454102 0.22853983938694
vn 0.8171163201332092 0.21532554924488068 -0.534748375415802
vn 0.9987505674362183 -0.048642538487911224 -0.011453826911747456
vn 0.998750627040863 -0.04997019097208977 -0.000436085945693776
vn 0.998750627040863 -0.04883452504873276 0.010603044182062149
vn 0.8171165585517883 0.20596081018447876 0.5384242534637451
vn 3.60213481265248e-9 -0.5385749340057373 0.8425775766372681
vn -2.7164986704519833e-8 -0.5237911939620972 -0.8518466949462891
vn 3.3095222562451454e-8 -0.9733793139457703 -0.22920025885105133
vn 8.009954655108231e-8 -0.9999619126319885 -0.008726353757083416
vn -1.4853868357533884e-8 -0.9772310256958008 0.21217791736125946
vn 9.825293290077752e-8 0.9999619126319885 0.008726328611373901
vn 0.9987528920173645 -0.04992426559329033 -0.0004254097293596715
vn 0.9986628293991089 -0.05009237304329872 -0.01278102770447731
vn 0.00003250779627705924 0.972571611404419 0.2326037585735321
vn -0.9987528920173645 -0.04992399364709854 -0.00044587618322111666
vn -0.998659610748291 -0.05015181377530098 -0.012795481830835342
vn -1.4328082897918648e-7 -0.9999619126319885 -0.008726328611373901
vn -0.00003007499617524445 -0.9724137187004089 -0.23326294124126434
vn 0.9989080429077148 -0.04392408952116966 -0.015919577330350876
vn 0.0000690809465595521 0.9392384886741638 0.34326523542404175
vn -0.9989022016525269 -0.04404272139072418 -0.015957405790686607
vn -0.00005591365697910078 -0.9393486380577087 -0.3429637551307678
vn 9.541411571944991e-8 -0.9480764269828796 0.3180426061153412
vn -0.9987019896507263 -0.04828319326043129 0.01621757633984089
vn -0.9987647533416748 -0.048433780670166016 0.011095007881522179
vn 0.0000022216490833670832 -0.9772454500198364 0.2121116667985916
vn 0.9987650513648987 -0.0484284870326519 0.011092716827988625
vn 0.0000087505859482917 0.9775300621986389 -0.2107960730791092
vn 0.9987024664878845 -0.048281170427799225 0.016196152195334435
vn 0.000011731875019904692 0.9480869770050049 -0.318011075258255
vn -2.7164986704519833e-8 -0.5237911939620972 -0.8518466949462891
vt 0.8420873880386353 0.062476515769958496
vt 0.8738844990730286 0.037589192390441895
vt 0.8420867919921875 0.0003415346145629883
vt 0.8420860767364502 0.00043720006942749023
vt 0.8420854806900024 0.0628620982170105
vt 0.8738765120506287 0.03788590431213379
vt 0.8135613799095154 0.03420436382293701
vt 0.8420031666755676 1.0144144296646118
vt 0.8420031666755676 -0.012612581253051758
vt 0.8161708116531372 -0.012612581253051758
vt 0.8709419369697571 1.0144144296646118
vt 0.8709419369697571 -0.012612581253051758
vt 0.842364490032196 1.0144144296646118
vt 0.842364490032196 -0.012612581253051758
vt 0.8161708116531372 1.0144144296646118
vt 0.8420031666755676 -0.012612581253051758
vt 0.8709419369697571 1.0144144296646118
vt 0.8420031666755676 1.0144144296646118
vt 0.8161708116531372 -0.012612581253051758
vt 0.8709419369697571 -0.012612581253051758
vt 0.842364490032196 1.0144144296646118
vt 0.842364490032196 -0.012612581253051758
vt 0.8161708116531372 1.0144144296646118
vt 0.8152956962585449 1.0144144296646118
vt 0.8152956962585449 -0.012612581253051758
vt 0.8442344665527344 -0.012612581253051758
vt 0.843873143196106 1.0144144296646118
vt 0.843873143196106 -0.012612581253051758
vt 0.8700668215751648 1.0144144296646118
vt 0.8700668215751648 -0.012612581253051758
vt 0.8442344665527344 1.0144144296646118
vt 0.8442344665527344 -0.012612581253051758
vt 0.8152956962585449 1.0144144296646118
vt 0.8442344665527344 1.0144144296646118
vt 0.8700668215751648 -0.012612581253051758
vt 0.8152956962585449 -0.012612581253051758
vt 0.843873143196106 1.0144144296646118
vt 0.843873143196106 -0.012612581253051758
vt 0.8700668215751648 1.0144144296646118
vt 0.25063663721084595 0.4969249367713928
vt 0.250794380903244 0.0665442943572998
vt 0.3472743630409241 0.49692434072494507
vt 0.25092563033103943 0.49692171812057495
vt 0.3473719358444214 0.49692004919052124
vt 0.4934024214744568 0.06637382507324219
vt 0.49366775155067444 0.4969240427017212
vt 0.3476174473762512 0.49692434072494507
vt 0.2506832182407379 0.06651687622070312
vt 0.25047245621681213 0.4969249367713928
vt 0.49315422773361206 0.4969189167022705
vt 0.34751981496810913 0.4969198703765869
vt 0.2508620023727417 0.4969216585159302
vt 0.6885854005813599 0.9391459226608276
vt 0.6886014938354492 0.9538725018501282
vt 0.628892183303833 0.9538725018501282
vt 0.628892183303833 0.9833254814147949
vt 0.6886014938354492 0.9833254814147949
vt 0.6885854005813599 1.0002001523971558
vt 0.7455111742019653 0.9833254814147949
vt 0.6885380744934082 0.9833254814147949
vt 0.7455111742019653 0.9538725018501282
vt 0.6885380744934082 0.9538725018501282
vt 0.6288893818855286 0.9538725018501282
vt 0.6288893818855286 0.9833254814147949
vt 0.6885380744934082 0.9538725018501282
vt 0.6885380744934082 0.9833254814147949
vt 0.7454706430435181 0.9833254814147949
vt 0.7454706430435181 0.9538725018501282
vt 0.5907637476921082 0.749746561050415
vt 0.6214355826377869 0.9991598129272461
vt 0.5908529758453369 0.9992396831512451
vt 0.6213415265083313 0.7496956586837769
vt 0.590794026851654 0.5021229386329651
vt 0.6213633418083191 0.5019851922988892
vt 0.5907359719276428 0.7495450973510742
vt 0.6213167905807495 0.7494979500770569
vt 0.5907987952232361 0.9990910291671753
vt 0.6213873028755188 0.9990140199661255
vt 0.5908529758453369 0.9992396831512451
vt 0.5907637476921082 0.749746561050415
vt 0.590794026851654 0.5021229386329651
vt 0.5907359719276428 0.7495450973510742
vt 0.5907987952232361 0.9990910291671753
vt 0.5610074996948242 0.9991681575775146
vt 0.5611847043037415 0.9993196725845337
vt 0.5611592531204224 0.7497974634170532
vt 0.5612056851387024 0.502260684967041
vt 0.5610684156417847 0.7495921850204468
vt 0.4913426637649536 0.0603947639465332
vt 0.4913332760334015 0.027074158191680908
vt 0.37454044818878174 0.02708745002746582
vt 0.3746328353881836 0.060469985008239746
vt 0.4913332760334015 0.027074158191680908
vt 0.37454044818878174 0.02708745002746582
vt 0.49132388830184937 0.0008624792098999023
vt 0.3744480013847351 0.0010647773742675781
vt 0.25010958313941956 0.027097761631011963
vt 0.25013595819473267 0.06049853563308716
vt 0.25010958313941956 0.027097761631011963
vt 0.25008320808410645 0.001019299030303955
vt 0.2500839829444885 0.0008897185325622559
vt 0.2501094341278076 0.027088165283203125
vt 0.3747990131378174 0.02707529067993164
vt 0.3747134804725647 0.0009050369262695312
vt 0.3747990131378174 0.02707529067993164
vt 0.37488454580307007 0.06042492389678955
vt 0.2501094341278076 0.027088165283203125
vt 0.2501348853111267 0.06046384572982788
vt 0.8135690689086914 0.034336626529693604
g Geoset0
s 1
usemtl mat_taurentapestries01
f 1/1/1 2/2/2 3/3/3
f 4/4/4 5/5/5 6/6/6
f 4/4/4 7/7/7 5/5/5
f 8/8/8 9/9/9 10/10/10
f 8/8/8 11/11/11 9/9/9
f 11/11/11 12/12/12 9/9/9
f 11/11/11 13/13/13 12/12/12
f 13/13/13 14/14/14 12/12/12
f 13/13/13 15/15/15 14/14/14
f 15/15/15 10/10/10 14/14/14
f 15/15/15 8/8/8 10/10/10
f 16/16/16 17/17/17 18/18/18
f 19/19/19 16/16/16 18/18/18
f 16/16/16 20/20/20 17/17/17
f 20/20/20 21/21/21 17/17/17
f 20/20/20 22/22/22 21/21/21
f 22/22/22 23/23/23 21/21/21
f 22/22/22 19/19/19 23/23/23
f 19/19/19 18/18/18 23/23/23
f 24/24/24 25/25/25 26/26/26
f 24/24/24 27/27/27 25/25/25
f 27/27/27 28/28/28 25/25/25
f 27/27/27 29/29/29 28/28/28
f 29/29/29 30/30/30 28/28/28
f 29/29/29 31/31/31 30/30/30
f 31/31/31 26/26/26 30/30/30
f 31/31/31 24/24/24 26/26/26
f 32/32/32 33/33/33 34/34/34
f 35/35/35 32/32/32 34/34/34
f 32/32/32 36/36/36 33/33/33
f 36/36/36 37/37/37 33/33/33
f 36/36/36 38/38/38 37/37/37
f 38/38/38 39/39/39 37/37/37
f 38/38/38 35/35/35 39/39/39
f 35/35/35 34/34/34 39/39/39
f 40/40/40 41/41/41 42/42/42
f 41/41/41 43/43/43 44/44/44
f 45/45/45 41/41/41 44/44/44
f 45/45/45 42/42/42 41/41/41
f 42/42/42 45/45/45 46/46/46
f 47/47/47 46/46/46 45/45/45
f 48/48/48 47/47/47 45/45/45
f 47/47/47 48/48/48 49/49/49
f 44/44/44 50/50/50 45/45/45
f 50/50/50 51/51/51 45/45/45
f 45/45/45 51/51/51 48/48/48
f 51/51/51 52/52/52 48/48/48
f 53/53/53 54/54/54 55/55/55
f 56/56/56 55/55/55 54/54/54
f 56/56/56 54/54/54 57/57/57
f 58/58/58 56/56/56 57/57/57
f 58/58/58 57/57/57 59/59/59
f 58/58/58 59/59/59 60/60/60
f 57/57/57 54/54/54 61/61/61
f 57/57/57 61/61/61 59/59/59
f 59/59/59 61/61/61 62/62/62
f 53/53/53 61/61/61 54/54/54
f 53/53/53 62/62/62 61/61/61
f 60/60/60 63/63/63 64/64/64
f 58/58/58 60/60/60 64/64/64
f 64/64/64 63/63/63 65/65/65
f 64/64/64 65/65/65 66/66/66
f 58/58/58 64/64/64 66/66/66
f 58/58/58 66/66/66 67/67/67
f 66/66/66 68/68/68 67/67/67
f 66/66/66 65/65/65 68/68/68
f 53/53/53 68/68/68 65/65/65
f 53/53/53 65/65/65 63/63/63
f 53/53/53 63/63/63 62/62/62
f 60/60/60 62/62/62 63/63/63
f 59/59/59 62/62/62 60/60/60
f 69/69/69 70/70/70 71/71/71
f 69/69/69 72/72/72 70/70/70
f 73/73/73 72/72/72 69/69/69
f 73/73/73 74/74/74 72/72/72
f 75/75/75 74/74/74 73/73/73
f 75/75/75 76/76/76 74/74/74
f 77/77/77 76/76/76 75/75/75
f 77/77/77 78/78/78 76/76/76
f 72/72/72 79/79/79 70/70/70
f 72/72/72 80/80/80 79/79/79
f 74/74/74 80/80/80 72/72/72
f 74/74/74 81/81/81 80/80/80
f 76/76/76 81/81/81 74/74/74
f 76/76/76 82/82/82 81/81/81
f 78/78/78 82/82/82 76/76/76
f 78/78/78 83/83/83 82/82/82
f 83/83/83 84/84/84 82/82/82
f 80/80/80 85/85/85 79/79/79
f 80/80/80 86/86/86 85/85/85
f 81/81/81 86/86/86 80/80/80
f 81/81/81 87/87/87 86/86/86
f 82/82/82 87/87/87 81/81/81
f 82/82/82 88/88/88 87/87/87
f 82/82/82 84/84/84 88/88/88
f 86/86/86 71/71/71 85/85/85
f 86/86/86 69/69/69 71/71/71
f 87/87/87 69/69/69 86/86/86
f 87/87/87 73/73/73 69/69/69
f 88/88/88 73/73/73 87/87/87
f 88/88/88 75/75/75 73/73/73
f 84/84/84 75/75/75 88/88/88
f 84/84/84 77/77/77 75/75/75
f 89/89/89 90/90/90 91/91/91
f 89/89/89 91/91/91 92/92/92
f 93/93/93 89/89/89 92/92/92
f 93/93/93 92/92/92 94/94/94
f 95/95/95 93/93/93 94/94/94
f 95/95/95 94/94/94 96/96/96
f 92/92/92 91/91/91 97/97/97
f 92/92/92 97/97/97 98/98/98
f 94/94/94 92/92/92 98/98/98
f 94/94/94 98/98/98 99/99/99
f 96/96/96 94/94/94 99/99/99
f 96/96/96 99/99/99 100/100/100
f 101/101/101 102/102/102 103/103/103
f 101/101/101 103/103/103 104/104/104
f 105/105/105 101/101/101 104/104/104
f 105/105/105 104/104/104 95/95/95
f 105/105/105 95/95/95 90/90/90
f 90/90/90 95/95/95 96/96/96
f 90/90/90 96/96/96 91/91/91
f 91/91/91 96/96/96 100/100/100
f 91/91/91 100/100/100 97/97/97
f 106/106/106 105/105/105 90/90/90
f 106/106/106 90/90/90 89/89/89
f 103/103/103 106/106/106 89/89/89
f 103/103/103 89/89/89 93/93/93
f 104/104/104 103/103/103 93/93/93
f 104/104/104 93/93/93 95/95/95
f 107/107/107 101/101/101 105/105/105
f 108/108/108 107/107/107 105/105/105
f 108/108/108 105/105/105 106/106/106
f 102/102/102 108/108/108 106/106/106
f 102/102/102 106/106/106 103/103/103
f 1/1/1 3/3/3 109/109/109
