# Exported using wow.export v0.1.64
o swamphangingvines01
mtllib swamphangingvines01.mtl
v 0.7765962481498718 29.47304344177246 25.545551300048828
v 1.078418493270874 29.47304344177246 25.545551300048828
v 1.0900301933288574 22.633562088012695 20.751319885253906
v 0.9251484274864197 15.749234199523926 4.72558069229126
v 0.9251483082771301 16.543054580688477 10.002301216125488
v 0.7627366185188293 17.16680335998535 9.693800926208496
v 0.927507221698761 22.194612503051758 21.380083084106445
v 0.7649840116500854 22.633562088012695 20.751319885253906
v 0.9275074005126953 29.2917423248291 25.937307357788086
v 0.7765962481498718 29.47304344177246 25.545551300048828
v 1.242895483970642 16.00823211669922 -1.4976279735565186
v 1.0875601768493652 17.16680335998535 9.69379997253418
v 1.0900301933288574 22.633562088012695 20.751319885253906
v 1.078418493270874 29.47304344177246 25.545551300048828
v 0.8058264851570129 29.47304344177246 -23.89218521118164
v 0.9275074005126953 29.2917423248291 -24.289995193481445
v 0.8096075057983398 20.54140281677246 -19.104013442993164
v 0.9275067448616028 20.073497772216797 -19.732772827148438
v 0.7762387990951538 17.20856285095215 -12.595940589904785
v 0.9251478910446167 16.543054580688477 -12.847583770751953
v 0.9251477122306824 15.749234199523926 -7.570863723754883
v 0.9251480102539062 15.249409675598145 -1.4976279735565186
v 0.791633129119873 16.00823211669922 -1.4976279735565186
v 1.049188256263733 29.47304344177246 -23.89218521118164
v 1.0454059839248657 20.54140281677246 -19.104013442993164
v 1.07405686378479 17.20856475830078 -12.595939636230469
v 0.791633129119873 16.00823211669922 -1.4976279735565186
v 0.7627366185188293 17.16680335998535 9.693800926208496
v 1.242895483970642 16.00823211669922 -1.4976279735565186
v 0.7762387990951538 17.20856285095215 -12.595940589904785
v 1.07405686378479 17.20856475830078 -12.595939636230469
v 0.8096075057983398 20.54140281677246 -19.104013442993164
v 1.0454059839248657 20.54140281677246 -19.104013442993164
v 0.8058264851570129 29.47304344177246 -23.89218521118164
v 1.049188256263733 29.47304344177246 -23.89218521118164
v 1.0875601768493652 17.16680335998535 9.69379997253418
v 0.7649840116500854 22.633562088012695 20.751319885253906
v 0.854385256767273 4.8506760597229 -7.537406921386719
v 0.8520261645317078 15.888532638549805 -7.570863723754883
v 0.8520265817642212 15.388710975646973 -1.4976279735565186
v 0.9298622608184814 16.8510684967041 -24.25653648376465
v 0.9275028705596924 29.43103790283203 -24.289995193481445
v 0.9275035858154297 20.212799072265625 -19.73277473449707
v 0.9286726117134094 11.325543403625488 -16.26807975769043
v 0.9251453876495361 16.682355880737305 -12.847579956054688
v 0.9251465201377869 8.401092529296875 -7.570862770080566
v 0.9251454472541809 15.888534545898438 -7.570862770080566
v 0.8520278930664062 4.959227085113525 10.002298355102539
v 0.8520477414131165 15.888532638549805 4.7255859375
v 0.8520267009735107 16.682353973388672 10.002298355102539
v 0.8543853163719177 4.444494724273682 1.5769199132919312
v 1.0358539819717407 5.480724334716797 4.725587844848633
v 1.0358344316482544 16.68235206604004 10.002300262451172
v 1.0381696224212646 6.901926517486572 10.001022338867188
v 0.850599467754364 20.21279525756836 -19.73277473449707
v 0.8505985736846924 10.548596382141113 -24.289995193481445
v 0.8506003022193909 29.43103790283203 -24.289995193481445
v 0.8529347777366638 9.046849250793457 -19.734052658081055
v 0.9275053143501282 22.333913803100586 21.380081176757812
v 0.9274828433990479 4.123562812805176 10.001023292541504
v 0.9251466393470764 16.682353973388672 10.002300262451172
v 0.9298627972602844 10.15296745300293 21.305503845214844
v 1.0358552932739258 15.888534545898438 4.725587844848633
vn -0.5432994365692139 0.16472816467285156 -0.8232194781303406
vn 0.5435035228729248 0.1724770963191986 -0.8214959502220154
vn 0.7266340255737305 0.24613521993160248 -0.6414206624031067
vn -0.04440544545650482 -0.9126566052436829 0.4063078761100769
vn -0.0000871350202942267 -0.7137596011161804 0.7003907561302185
vn -0.8141061663627625 0.43839362263679504 -0.3808440566062927
vn -0.0003851244109682739 -0.35659676790237427 0.9342583417892456
vn -0.7296161651611328 0.24952834844589233 -0.6367070078849792
vn -0.003044988727197051 -0.18620692193508148 0.9825058579444885
vn -0.5432994365692139 0.16472816467285156 -0.8232194781303406
vn 0.8780716061592102 0.4785085618495941 0.004449666012078524
vn 0.8146530985832214 0.43921512365341187 -0.37872210144996643
vn 0.7266340255737305 0.24613521993160248 -0.6414206624031067
vn 0.5435035228729248 0.1724770963191986 -0.8214959502220154
vn -0.4813351333141327 0.13167347013950348 0.8665902018547058
vn -0.0023766066879034042 -0.14479351043701172 -0.9894590377807617
vn -0.696725606918335 0.23903417587280273 0.6763402223587036
vn 0.0007538644131273031 -0.33235520124435425 -0.943153977394104
vn -0.8039380311965942 0.4425531029701233 0.397278755903244
vn 0.0003177161270286888 -0.7112078070640564 -0.7029817700386047
vn -0.04472320154309273 -0.9007912278175354 -0.43194329738616943
vn -0.10199630260467529 -0.9947798848152161 -0.003125086659565568
vn -0.8134140372276306 0.581665575504303 0.004775875713676214
vn 0.4812643229961395 0.13655202090740204 0.8658742308616638
vn 0.6940001845359802 0.23429183661937714 0.6807870864868164
vn 0.8067885637283325 0.44482529163360596 0.3888735771179199
vn -0.8134140372276306 0.581665575504303 0.004775875713676214
vn -0.8141061663627625 0.43839362263679504 -0.3808440566062927
vn 0.8780716061592102 0.4785085618495941 0.004449666012078524
vn -0.8039380311965942 0.4425531029701233 0.397278755903244
vn 0.8067885637283325 0.44482529163360596 0.3888735771179199
vn -0.696725606918335 0.23903417587280273 0.6763402223587036
vn 0.6940001845359802 0.23429183661937714 0.6807870864868164
vn -0.4813351333141327 0.13167347013950348 0.8665902018547058
vn 0.4812643229961395 0.13655202090740204 0.8658742308616638
vn 0.8146530985832214 0.43921512365341187 -0.37872210144996643
vn -0.7296161651611328 0.24952834844589233 -0.6367070078849792
vn 1 0.00021745459525845945 0.000039196933357743546
vn 1 0.00021378548990469426 0.0000617485711700283
vn 1 0.00021256225591059774 -0.000002543217760830885
vn 0.9999992251396179 0.0002417866635369137 0.0012037977576255798
vn 0.9999991059303284 0.00018856613314710557 0.001343121170066297
vn 0.9999990463256836 0.00022769207134842873 0.0013765300391241908
vn 0.9999985098838806 0.0003181632491759956 0.00170844083186239
vn 0.9999991059303284 0.00024258776102215052 0.0013261341955512762
vn 0.9999992251396179 0.0002221648901468143 0.001227506436407566
vn 1 1.4086565158777375e-7 2.4338453030736673e-8
vn 0.9999996423721313 0.00011012891627615318 0.0008167876512743533
vn 1 0.00009772339399205521 0.0000954552015173249
vn 1 1.0442719400316491e-7 0.000013999429938849062
vn 0.9999998807907104 0.0001778710720827803 0.00043500197352841496
vn 0.9999990463256836 0.0001855383306974545 -0.0013745047617703676
vn 0.9999999403953552 0.000045212640543468297 -0.00032511341851204634
vn 0.9999983906745911 0.00023882857931312174 -0.0017730226973071694
vn 1 0.000017765005395631306 -0.00013342240708880126
vn 0.9999990463256836 0.0001849546970333904 -0.0013824095949530602
vn 1 -9.376213228051711e-8 -8.854162736326998e-9
vn 0.9999987483024597 0.00020919993403367698 -0.0015635329764336348
vn 0.9999994039535522 0.00018971897952724248 -0.0010765116894617677
vn 0.9999994039535522 0.00019161390082444996 -0.0010871946578845382
vn 0.9999994039535522 0.00018605364311952144 -0.0010558480862528086
vn 0.9999993443489075 0.0001954688341356814 -0.0011089271865785122
vn 1 -1.308927579657393e-7 0.00001397711912431987
vt 0.004056379199028015 0.4943782091140747
vt 0.004056379199028015 0.9931691884994507
vt 0.29642167687416077 0.9931694865226746
vt 0.7372474670410156 0.06772029399871826
vt 0.5115371942520142 0.0624842643737793
vt 0.5152768492698669 0.9656944870948792
vt 0.2265687733888626 0.0637214183807373
vt 0.22598496079444885 0.9755710363388062
vt 0.002588279079645872 0.06547939777374268
vt 0.002736564725637436 0.9745745658874512
vt 0.9865984916687012 0.9736877083778381
vt 0.5152768492698669 0.9656944870948792
vt 0.22598496079444885 0.9755710959434509
vt 0.002736564725637436 0.9745745658874512
vt 0.002736564725637436 0.9745745658874512
vt 0.002588279079645872 0.06547939777374268
vt 0.22598496079444885 0.9755710363388062
vt 0.2265687733888626 0.0637214183807373
vt 0.5152768492698669 0.9656944870948792
vt 0.5115371942520142 0.0624842643737793
vt 0.7372474670410156 0.06772029399871826
vt 0.9865984916687012 0.06600981950759888
vt 0.9865984916687012 0.9736875891685486
vt 0.002736564725637436 0.9745745658874512
vt 0.22598496079444885 0.9755710959434509
vt 0.5152768492698669 0.9656944870948792
vt 0.9795061349868774 0.49325335025787354
vt 0.6642308235168457 0.49325358867645264
vt 0.9795061349868774 0.9946697354316711
vt 0.6648759841918945 0.49325305223464966
vt 0.6648759841918945 0.9937211275100708
vt 0.29642167687416077 0.49437856674194336
vt 0.29642167687416077 0.9931694865226746
vt 0.004056379199028015 0.4943782091140747
vt 0.004056379199028015 0.9931691884994507
vt 0.6642308235168457 0.9937218427658081
vt 0.29642167687416077 0.49437856674194336
vt 0.9896878004074097 0.010691821575164795
vt 0.9935798048973083 0.9922191500663757
vt 0.6749593615531921 0.9912117719650269
vt 0.9975012540817261 0.005537986755371094
vt 0.9995005130767822 0.9922541379928589
vt 0.7271976470947266 0.9942879676818848
vt 0.5201751589775085 0.012386202812194824
vt 0.3157937526702881 0.9912089109420776
vt 0.0004995167255401611 0.012576818466186523
vt 0.0004996657371520996 0.9901881814002991
vt 0.004446655511856079 0.005360424518585205
vt 0.3010792136192322 0.997050404548645
vt 0.00444677472114563 0.9922540783882141
vt 0.47498995065689087 0.005330443382263184
vt 0 0
vt 1 0.987922728061676
vt 1 0
vt 1 0.987922728061676
vt 0 0
vt 0 0.987922728061676
vt 1 0
vt 1 0.9927536249160767
vt 0 0
vt 0 0.9927536249160767
vt 1 0
vt 0 0.987922728061676
g Geoset0
s 1
usemtl mat_stranglethornlongvine02
f 1/1/1 2/2/2 3/3/3
f 4/4/4 5/5/5 6/6/6
f 5/5/5 7/7/7 6/6/6
f 7/7/7 8/8/8 6/6/6
f 7/7/7 9/9/9 8/8/8
f 9/9/9 10/10/10 8/8/8
f 11/11/11 12/12/12 4/4/4
f 12/12/12 5/5/5 4/4/4
f 12/12/12 13/13/13 5/5/5
f 13/13/13 7/7/7 5/5/5
f 13/13/13 14/14/14 7/7/7
f 14/14/14 9/9/9 7/7/7
f 15/15/15 16/16/16 17/17/17
f 16/16/16 18/18/18 17/17/17
f 17/17/17 18/18/18 19/19/19
f 18/18/18 20/20/20 19/19/19
f 20/20/20 21/21/21 19/19/19
f 21/21/21 22/22/22 23/23/23
f 19/19/19 21/21/21 23/23/23
f 16/16/16 24/24/24 18/18/18
f 24/24/24 25/25/25 18/18/18
f 18/18/18 25/25/25 20/20/20
f 25/25/25 26/26/26 20/20/20
f 20/20/20 26/26/26 21/21/21
f 26/26/26 11/11/11 21/21/21
f 21/21/21 11/11/11 22/22/22
f 11/11/11 4/4/4 22/22/22
f 22/22/22 4/4/4 23/23/23
f 4/4/4 6/6/6 23/23/23
f 27/27/27 28/28/28 29/29/29
f 30/30/30 27/27/27 29/29/29
f 31/31/31 30/30/30 29/29/29
f 32/32/32 30/30/30 31/31/31
f 33/33/33 32/32/32 31/31/31
f 34/34/34 32/32/32 33/33/33
f 35/35/35 34/34/34 33/33/33
f 28/28/28 36/36/36 29/29/29
f 28/28/28 37/37/37 36/36/36
f 37/37/37 3/3/3 36/36/36
f 37/37/37 1/1/1 3/3/3
g Geoset1
s 1
usemtl mat_stranglebrownvine01_256
f 38/38/38 39/39/39 40/40/40
f 41/41/41 42/42/42 43/43/43
f 43/43/43 44/44/44 41/41/41
f 44/44/44 43/43/43 45/45/45
f 45/45/45 46/46/46 44/44/44
f 46/46/46 45/45/45 47/47/47
f 48/48/48 49/49/49 50/50/50
f 49/49/49 48/48/48 51/51/51
f 51/51/51 40/40/40 49/49/49
f 40/40/40 51/51/51 38/38/38
g Geoset2
s 1
usemtl mat_swampcanopytree01_vines
f 52/52/52 53/53/53 54/54/54
f 55/55/55 56/56/56 57/57/57
f 56/56/56 55/55/55 58/58/58
f 59/59/59 60/60/60 61/61/61
f 60/60/60 59/59/59 62/62/62
f 53/53/53 52/52/52 63/63/63
