# Exported using wow.export v0.1.64
o orcmug01
mtllib orcmug01.mtl
v -0.18866558372974396 0.5617175102233887 -0.0019109828863292933
v -0.0010198801755905151 0.008356915786862373 -0.001910993829369545
v -0.09484273195266724 0.5617175102233887 -0.16441693902015686
v 0.13017338514328003 0.5617174506187439 -0.2291443645954132
v 0.18662582337856293 0.5617175102233887 -0.0019109828863292933
v 0.2613666355609894 0.5617174506187439 -0.001910979743115604
v 0.0928029790520668 0.5617175102233887 -0.16441693902015686
v -0.13221313059329987 0.5617174506187439 -0.2291443645954132
v 0.0928029790520668 0.5617175102233887 -0.16441693902015686
v 0.13017338514328003 0.5617174506187439 -0.2291443645954132
v -0.09484273195266724 0.5617175102233887 -0.16441693902015686
v 0.04286421462893486 0.5293217897415161 -0.23239165544509888
v 0.05870911106467247 0.5292341113090515 -0.32126131653785706
v -0.07520578056573868 0.5292341113090515 -0.32126131653785706
v -0.05936088785529137 0.5293217897415161 -0.23239165544509888
v 0.05870911106467247 0.4369751214981079 -0.3446268141269684
v 0.04286421462893486 0.4368649423122406 -0.2464720457792282
v -0.05936088785529137 0.4368649125099182 -0.2464720457792282
v -0.07520578056573868 0.4369750916957855 -0.3446268141269684
v 0.05870911106467247 0.5292341113090515 -0.32126131653785706
v 0.04286421462893486 0.5293217897415161 -0.23239165544509888
v 0.04286421462893486 0.4368649423122406 -0.2464720457792282
v 0.05870911106467247 0.4369751214981079 -0.3446268141269684
v -0.07520578056573868 0.5292341113090515 -0.32126131653785706
v -0.07520578056573868 0.4369750916957855 -0.3446268141269684
v -0.05936088785529137 0.4368649125099182 -0.2464720457792282
v -0.05936088785529137 0.5293217897415161 -0.23239165544509888
v 0.04286419227719307 0.1413535475730896 -0.2912983000278473
v 0.05870909243822098 0.1412658393383026 -0.3762113153934479
v -0.07520580291748047 0.14126582443714142 -0.3762113153934479
v -0.05936091020703316 0.1413535475730896 -0.2912983000278473
v 0.05870909243822098 0.04900681972503662 -0.37627869844436646
v 0.04286419227719307 0.0488966666162014 -0.30537867546081543
v -0.059360913932323456 0.048896659165620804 -0.30537867546081543
v -0.07520580291748047 0.04900681972503662 -0.37627869844436646
v 0.05870909243822098 0.1412658393383026 -0.3762113153934479
v 0.04286419227719307 0.1413535475730896 -0.2912983000278473
v 0.04286419227719307 0.0488966666162014 -0.30537867546081543
v 0.05870909243822098 0.04900681972503662 -0.37627869844436646
v -0.07520580291748047 0.14126582443714142 -0.3762113153934479
v -0.07520580291748047 0.04900681972503662 -0.37627869844436646
v -0.059360913932323456 0.048896659165620804 -0.30537867546081543
v -0.05936091020703316 0.1413535475730896 -0.2912983000278473
v 0.05135441571474075 0.5970277786254883 -0.4029785096645355
v -0.06314197927713394 0.5970277786254883 -0.4029785096645355
v 0.06795638054609299 0.5850276350975037 -0.3052455484867096
v -0.07974395155906677 0.5850276350975037 -0.305245578289032
v -0.06314203143119812 0.03917638212442398 -0.47134774923324585
v 0.051354359835386276 0.039176393300294876 -0.47134774923324585
v -0.07974401861429214 0.027176283299922943 -0.3736148178577423
v 0.06795631349086761 0.027176275849342346 -0.3736148178577423
v -0.13221314549446106 0.5617174506187439 0.22532238066196442
v -0.18866558372974396 0.5617175102233887 -0.0019109828863292933
v -0.2634063959121704 0.5617174506187439 -0.001910979743115604
v -0.09484274685382843 0.5617175102233887 0.16059494018554688
v 0.13017337024211884 0.5617174506187439 0.22532238066196442
v -0.09484274685382843 0.5617175102233887 0.16059494018554688
v -0.13221314549446106 0.5617174506187439 0.22532238066196442
v 0.09280296415090561 0.5617175102233887 0.16059496998786926
v 0.2613666355609894 0.5617174506187439 -0.001910979743115604
v 0.09280296415090561 0.5617175102233887 0.16059496998786926
v 0.13017337024211884 0.5617174506187439 0.22532238066196442
v 0.18662582337856293 0.5617175102233887 -0.0019109828863292933
v -0.2634063959121704 0.5617174506187439 -0.001910979743115604
v -0.09484273195266724 0.5617175102233887 -0.16441693902015686
v -0.13221313059329987 0.5617174506187439 -0.2291443645954132
v -0.18866558372974396 0.5617175102233887 -0.0019109828863292933
v 0.3584496080875397 0.008356915786862373 -0.0019109764834865928
v 0.13017337024211884 0.5617174506187439 0.22532238066196442
v 0.17871487140655518 0.008356915786862373 0.30939874053001404
v 0.2613666355609894 0.5617174506187439 -0.001910979743115604
v 0.17871487140655518 0.008356915786862373 -0.31322070956230164
v 0.13017338514328003 0.5617174506187439 -0.2291443645954132
v -0.1807546317577362 0.008356915786862373 -0.31322070956230164
v -0.13221313059329987 0.5617174506187439 -0.2291443645954132
v -0.0010198801755905151 0.008356915786862373 -0.001910993829369545
v -0.1807546466588974 0.008356915786862373 0.30939871072769165
v -0.3604893982410431 0.008356915786862373 -0.0019109764834865928
v -0.1807546317577362 0.008356915786862373 -0.31322070956230164
v 0.17871487140655518 0.008356915786862373 -0.31322070956230164
v -0.3604893982410431 0.008356915786862373 -0.0019109764834865928
v -0.1807546317577362 0.008356915786862373 -0.31322070956230164
v 0.17871487140655518 0.008356915786862373 0.30939874053001404
v -0.1807546466588974 0.008356915786862373 0.30939871072769165
v 0.3584496080875397 0.008356915786862373 -0.0019109764834865928
v 0.17871487140655518 0.008356915786862373 -0.31322070956230164
v -0.06314197927713394 0.5970277786254883 -0.4029785096645355
v -0.0820339098572731 0.32893750071525574 -0.4977502226829529
v -0.07974395155906677 0.5850276350975037 -0.305245578289032
v -0.10411453247070312 0.3129773437976837 -0.3751756250858307
v -0.06314203143119812 0.03917638212442398 -0.47134774923324585
v -0.07974401861429214 0.027176283299922943 -0.3736148178577423
v 0.06795638054609299 0.5850276350975037 -0.3052455484867096
v 0.09232690930366516 0.3129773437976837 -0.3751756250858307
v 0.05135441571474075 0.5970277786254883 -0.4029785096645355
v 0.07024629414081573 0.32893750071525574 -0.4977501928806305
v 0.06795631349086761 0.027176275849342346 -0.3736148178577423
v 0.051354359835386276 0.039176393300294876 -0.47134774923324585
v -0.06314197927713394 0.5970277786254883 -0.4029785096645355
v 0.05135441571474075 0.5970277786254883 -0.4029785096645355
v -0.0820339098572731 0.32893750071525574 -0.4977502226829529
v 0.07024629414081573 0.32893750071525574 -0.4977501928806305
v -0.06314203143119812 0.03917638212442398 -0.47134774923324585
v 0.051354359835386276 0.039176393300294876 -0.47134774923324585
v 0.06795631349086761 0.027176275849342346 -0.3736148178577423
v 0.09232690930366516 0.3129773437976837 -0.3751756250858307
v -0.07974401861429214 0.027176283299922943 -0.3736148178577423
v -0.10411453247070312 0.3129773437976837 -0.3751756250858307
v 0.06795638054609299 0.5850276350975037 -0.3052455484867096
v -0.07974395155906677 0.5850276350975037 -0.305245578289032
v -0.3604893982410431 0.008356915786862373 -0.0019109764834865928
v -0.13221313059329987 0.5617174506187439 -0.2291443645954132
v -0.1807546317577362 0.008356915786862373 -0.31322070956230164
v -0.2634063959121704 0.5617174506187439 -0.001910979743115604
v -0.1807546466588974 0.008356915786862373 0.30939871072769165
v -0.13221314549446106 0.5617174506187439 0.22532238066196442
v 0.17871487140655518 0.008356915786862373 0.30939874053001404
v 0.13017337024211884 0.5617174506187439 0.22532238066196442
v -0.09484274685382843 0.5617175102233887 0.16059494018554688
v -0.18866558372974396 0.5617175102233887 -0.0019109828863292933
v 0.09280296415090561 0.5617175102233887 0.16059496998786926
v -0.09484274685382843 0.5617175102233887 0.16059494018554688
v 0.18662582337856293 0.5617175102233887 -0.0019109828863292933
v 0.09280296415090561 0.5617175102233887 0.16059496998786926
v 0.0928029790520668 0.5617175102233887 -0.16441693902015686
v 0.18662582337856293 0.5617175102233887 -0.0019109828863292933
v -0.09484273195266724 0.5617175102233887 -0.16441693902015686
v 0.0928029790520668 0.5617175102233887 -0.16441693902015686
vn 0.9470316171646118 0.3211403787136078 0
vn 7.05117031429836e-8 1 -1.76279257857459e-8
vn 0.4735158085823059 0.3211403787136078 0.8201534152030945
vn 0 1 0
vn 0 1 0
vn 0 1 0
vn 0 1 0
vn 0 1 0
vn 0 1 0
vn 0 1 0
vn 0 1 0
vn 0 0.9999995231628418 -0.0009868949418887496
vn 0 0.9999995231628418 -0.0009868949418887496
vn 0 0.9999995231628418 -0.0009868949418887496
vn 0 0.9999995231628418 -0.0009868949418887496
vn 0 -0.9999993443489075 -0.0011224719928577542
vn 0 -0.9999993443489075 -0.0011224719928577542
vn 0 -0.9999993443489075 -0.0011224719928577542
vn 0 -0.9999993443489075 -0.0011224719928577542
vn 0.9853276014328003 -0.03352293744683266 0.1673492193222046
vn 0.9841187000274658 -0.026725413277745247 0.1754884421825409
vn 0.9853276014328003 -0.03352293744683266 0.1673492193222046
vn 0.9864242672920227 -0.040316637605428696 0.15919092297554016
vn -0.9853276014328003 -0.03352292627096176 0.1673491895198822
vn -0.9864242672920227 -0.0403166264295578 0.15919089317321777
vn -0.9853276014328003 -0.03352292627096176 0.1673491895198822
vn -0.9841187000274658 -0.0267254039645195 0.1754884123802185
vn 0 0.999999463558197 -0.0010328810894861817
vn 0 0.999999463558197 -0.0010328810894861817
vn 0 0.999999463558197 -0.0010328810894861817
vn 0 0.999999463558197 -0.0010328810894861817
vn 2.6119071350194645e-8 -0.9999988079071045 -0.001553692389279604
vn 5.223814270038929e-8 -0.9999988079071045 -0.0015536488499492407
vn 2.6119071350194645e-8 -0.9999988079071045 -0.001553692389279604
vn 0 -0.9999988079071045 -0.0015537358121946454
vn 0.9795320630073547 -0.014047731645405293 0.20079748332500458
vn 0.9826431274414062 -0.027928996831178665 0.18339157104492188
vn 0.9795320630073547 -0.014047731645405293 0.20079748332500458
vn 0.9759259819984436 -0.00015936522686388344 0.21810191869735718
vn -0.9795320630073547 -0.014047672040760517 0.2007974237203598
vn -0.9759260416030884 -0.0001593651104485616 0.21810176968574524
vn -0.9795320630073547 -0.014047672040760517 0.2007974237203598
vn -0.9826431274414062 -0.027928881347179413 0.18339157104492188
vn 0 0.9925460815429688 0.12186969071626663
vn -8.812318874618086e-9 0.9925460815429688 0.12186971306800842
vn -8.812318874618086e-9 0.9925460815429688 0.12186971306800842
vn -1.7624637749236172e-8 0.9925460815429688 0.12186972051858902
vn 1.6202159258682514e-7 -0.9925461411476135 -0.12186930328607559
vn 6.306819955170795e-8 -0.9925461411476135 -0.12186942994594574
vn 6.306819955170795e-8 -0.9925461411476135 -0.12186942994594574
vn -3.5885179272554524e-8 -0.9925461411476135 -0.12186955660581589
vn 0 1 0
vn 0 1 0
vn 0 1 0
vn 0 1 0
vn 0 1 0
vn 0 1 0
vn 0 1 0
vn 0 1 0
vn 0 1 0
vn 0 1 0
vn 0 1 0
vn 0 1 0
vn 0 1 0
vn 0 1 0
vn 0 1 0
vn 0 1 0
vn 0.967724084854126 0.16978001594543457 0.1862386018037796
vn 0.6451493501663208 0.16978001594543457 0.7449544072151184
vn 0.3225746750831604 0.16978000104427338 0.931192934513092
vn 0.967724084854126 0.16978001594543457 -0.18623855710029602
vn 0.6451494097709656 0.16978000104427338 -0.7449543476104736
vn 0.3225747048854828 0.16978000104427338 -0.931192934513092
vn -0.3225747048854828 0.16978000104427338 -0.931192934513092
vn -0.6451494097709656 0.16978000104427338 -0.7449543476104736
vn 0 -1 0
vn 0 -1 0
vn 0 -1 0
vn 0 -1 0
vn 0 -1 0
vn 0 -1 0
vn 0 -1 0
vn 0 -1 0
vn 0 -1 0
vn 0 -1 0
vn 0 -1 0
vn -0.9808064699172974 0.12268854677677155 -0.15154606103897095
vn -0.9843329191207886 0.05711820721626282 -0.1668119579553604
vn -0.9797981381416321 0.12569239735603333 -0.15555408596992493
vn -0.9844284057617188 -0.012311961501836777 -0.17535436153411865
vn -0.979826033115387 -0.08272247016429901 -0.18192832171916962
vn -0.9805775284767151 -0.08458112180233002 -0.1769569218158722
vn 0.9803903102874756 0.12663616240024567 -0.15099062025547028
vn 0.9843630194664001 0.05619308352470398 -0.16694846749305725
vn 0.9797526001930237 0.12610188126564026 -0.155509352684021
vn 0.9844009280204773 -0.013047801330685616 -0.17545540630817413
vn 0.979871928691864 -0.08226020634174347 -0.18189065158367157
vn 0.981044590473175 -0.08004278689622879 -0.17647866904735565
vn 0 0.33329421281814575 -0.9428228735923767
vn 1.322490561506129e-7 0.3332941234111786 -0.9428229331970215
vn 1.8508761456814682e-7 0.19596633315086365 -0.9806106090545654
vn 1.9012846053101384e-7 0.051662545651197433 -0.9986646175384521
vn 1.4709681295244081e-7 -0.09074194729328156 -0.9958744645118713
vn 1.4812553850163113e-8 -0.09074188768863678 -0.9958744645118713
vn 1.9744178514358168e-10 0.0054610311053693295 0.9999850988388062
vn -8.824368791238157e-9 -0.0799301415681839 0.9968004822731018
vn 3.9562583764585213e-10 0.0054610311053693295 0.9999850988388062
vn -5.592382379404626e-8 -0.16536159813404083 0.9862329959869385
vn -8.356785485830187e-8 -0.24895504117012024 0.9685150384902954
vn -1.4006536730448715e-7 -0.24895501136779785 0.9685150384902954
vn -0.967724084854126 0.16978001594543457 -0.18623855710029602
vn -0.6451494097709656 0.16978000104427338 -0.7449543476104736
vn -0.3225747048854828 0.16978000104427338 -0.931192934513092
vn -0.967724084854126 0.16978001594543457 0.1862386018037796
vn -0.6451494097709656 0.16978000104427338 0.7449543476104736
vn -0.32257476449012756 0.16978000104427338 0.931192934513092
vn 0.3225746750831604 0.16978000104427338 0.931192934513092
vn 0.6451493501663208 0.16978001594543457 0.7449544072151184
vn 0.4735158383846283 0.3211403489112854 -0.8201534152030945
vn 0.9470316171646118 0.3211403787136078 0
vn -0.47351574897766113 0.3211403787136078 -0.8201534748077393
vn 0.4735158383846283 0.3211403489112854 -0.8201534152030945
vn -0.9470316171646118 0.3211403787136078 -1.6983115358470968e-8
vn -0.47351574897766113 0.3211403787136078 -0.8201534748077393
vn -0.4735158085823059 0.3211403787136078 0.8201534152030945
vn -0.9470316171646118 0.3211403787136078 -1.6983115358470968e-8
vn 0.4735158085823059 0.3211403787136078 0.8201534152030945
vn -0.4735158085823059 0.3211403787136078 0.8201534152030945
vt 0.5011785626411438 0.5
vt 0.5634495615959167 0.25250303745269775
vt 0.6282212138175964 0.5
vt 0.9920310974121094 0.22244763374328613
vt 0.7750638127326965 0.2466999888420105
vt 0.7528578042984009 0.22244763374328613
vt 0.9697510004043579 0.2466999888420105
vt 0.9915524125099182 0.22244763374328613
vt 0.7750638127326965 0.2466999888420105
vt 0.7528578042984009 0.22244763374328613
vt 0.9693613052368164 0.2466999888420105
vt 0.8190867304801941 0.49819815158843994
vt 0.8188822865486145 0.43789243698120117
vt 0.7599272131919861 0.43789243698120117
vt 0.759722888469696 0.49819815158843994
vt 0.7598347663879395 0.37739086151123047
vt 0.759922444820404 0.4223287105560303
vt 0.8189806938171387 0.42255938053131104
vt 0.8190683722496033 0.37739086151123047
vt 0.8178597092628479 0.43620043992996216
vt 0.7623164057731628 0.43626701831817627
vt 0.7623148560523987 0.3769930601119995
vt 0.8179661631584167 0.3768177628517151
vt 0.8178597092628479 0.43620043992996216
vt 0.8179661631584167 0.3768177628517151
vt 0.7623148560523987 0.3769930601119995
vt 0.7623164057731628 0.43626701831817627
vt 0.8190867304801941 0.49819815158843994
vt 0.8188822865486145 0.43789243698120117
vt 0.7599272131919861 0.43789243698120117
vt 0.759722888469696 0.49819815158843994
vt 0.7598347663879395 0.37739086151123047
vt 0.759922444820404 0.4223287105560303
vt 0.8189806938171387 0.42255938053131104
vt 0.8190683722496033 0.37739086151123047
vt 0.8178597092628479 0.43620043992996216
vt 0.7623164057731628 0.43626701831817627
vt 0.7623148560523987 0.3769930601119995
vt 0.8179661631584167 0.3768177628517151
vt 0.8178597092628479 0.43620043992996216
vt 0.8179661631584167 0.3768177628517151
vt 0.7623148560523987 0.3769930601119995
vt 0.7623164057731628 0.43626701831817627
vt 0.7649115324020386 0.49537092447280884
vt 0.8153030276298523 0.4953709840774536
vt 0.764734148979187 0.4413607716560364
vt 0.815014123916626 0.4413607716560364
vt 0.7641790509223938 0.4346266984939575
vt 0.8159161806106567 0.4346266984939575
vt 0.76436847448349 0.3786301612854004
vt 0.8160359263420105 0.3786301612854004
vt 0.9915524125099182 0.22244763374328613
vt 0.7750638127326965 0.2466999888420105
vt 0.7528578042984009 0.22244763374328613
vt 0.9693613052368164 0.2466999888420105
vt 0.9915524125099182 0.22244763374328613
vt 0.7750638127326965 0.2466999888420105
vt 0.7528578042984009 0.22244763374328613
vt 0.9693613052368164 0.2466999888420105
vt 0.9915524125099182 0.22244763374328613
vt 0.7750638127326965 0.2466999888420105
vt 0.7528578042984009 0.22244763374328613
vt 0.9693613052368164 0.2466999888420105
vt 0.9915524125099182 0.22244763374328613
vt 0.7750638127326965 0.2466999888420105
vt 0.7528578042984009 0.22244763374328613
vt 0.9693613052368164 0.2466999888420105
vt 0.8332104086875916 0.004176318645477295
vt 0.7530721426010132 0.22244763374328613
vt 0.7530721426010132 0.004176318645477295
vt 0.8332104086875916 0.22244763374328613
vt 0.9145203232765198 0.004176318645477295
vt 0.9145203232765198 0.22244763374328613
vt 0.9944242238998413 0.004176318645477295
vt 0.9944242238998413 0.22244763374328613
vt 0.5641814470291138 0.3315441608428955
vt 0.5022805333137512 0.5
vt 0.6273665428161621 0.5
vt 0.5022805333137512 0.5
vt 0.6273665428161621 0.5
vt 0.5022805333137512 0.5
vt 0.6273665428161621 0.5
vt 0.5022805333137512 0.5
vt 0.6273665428161621 0.5
vt 0.6273665428161621 0.5
vt 0.5022805333137512 0.5
vt 0.6960312128067017 0.5
vt 0.6960311532020569 0.3813169002532959
vt 0.7541708946228027 0.5
vt 0.7541708946228027 0.3813169002532959
vt 0.6960311532020569 0.25211089849472046
vt 0.7541708946228027 0.25211089849472046
vt 0.7541708946228027 0.5
vt 0.7541708946228027 0.3813169002532959
vt 0.6960312128067017 0.5
vt 0.6960311532020569 0.3813169002532959
vt 0.7541708946228027 0.25211089849472046
vt 0.6960311532020569 0.25211089849472046
vt 0.6906555891036987 0.49708402156829834
vt 0.632966935634613 0.49708497524261475
vt 0.6906555891036987 0.3715285658836365
vt 0.632966935634613 0.37152981758117676
vt 0.6906555891036987 0.25895363092422485
vt 0.632966935634613 0.25895464420318604
vt 0.738271951675415 0.26236283779144287
vt 0.738271951675415 0.36944764852523804
vt 0.7095919847488403 0.26236283779144287
vt 0.7095919847488403 0.3694477081298828
vt 0.738271951675415 0.49138396978378296
vt 0.7095919847488403 0.49138402938842773
vt 0.8336790204048157 0.004176318645477295
vt 0.7530721426010132 0.22244763374328613
vt 0.7530721426010132 0.004176318645477295
vt 0.8336790204048157 0.22244763374328613
vt 0.9154576063156128 0.004176318645477295
vt 0.9154576063156128 0.22244763374328613
vt 0.9944242238998413 0.004176318645477295
vt 0.9944242238998413 0.22244763374328613
vt 0.5011785626411438 0.5
vt 0.6282212138175964 0.5
vt 0.5011785626411438 0.5
vt 0.6282212138175964 0.5
vt 0.5011785626411438 0.5
vt 0.6282212138175964 0.5
vt 0.5011785626411438 0.5
vt 0.6282212138175964 0.5
vt 0.5011785626411438 0.5
vt 0.6282212138175964 0.5
g Geoset0
s 1
usemtl mat_beermug
f 1/1/1 2/2/2 3/3/3
f 4/4/4 5/5/5 6/6/6
f 4/4/4 7/7/7 5/5/5
f 8/8/8 9/9/9 10/10/10
f 8/8/8 11/11/11 9/9/9
f 12/12/12 13/13/13 14/14/14
f 14/14/14 15/15/15 12/12/12
f 16/16/16 17/17/17 18/18/18
f 18/18/18 19/19/19 16/16/16
f 20/20/20 21/21/21 22/22/22
f 22/22/22 23/23/23 20/20/20
f 24/24/24 25/25/25 26/26/26
f 26/26/26 27/27/27 24/24/24
f 28/28/28 29/29/29 30/30/30
f 30/30/30 31/31/31 28/28/28
f 32/32/32 33/33/33 34/34/34
f 34/34/34 35/35/35 32/32/32
f 36/36/36 37/37/37 38/38/38
f 38/38/38 39/39/39 36/36/36
f 40/40/40 41/41/41 42/42/42
f 42/42/42 43/43/43 40/40/40
f 44/44/44 45/45/45 46/46/46
f 47/47/47 46/46/46 45/45/45
f 48/48/48 49/49/49 50/50/50
f 51/51/51 50/50/50 49/49/49
f 52/52/52 53/53/53 54/54/54
f 52/52/52 55/55/55 53/53/53
f 56/56/56 57/57/57 58/58/58
f 56/56/56 59/59/59 57/57/57
f 60/60/60 61/61/61 62/62/62
f 60/60/60 63/63/63 61/61/61
f 64/64/64 65/65/65 66/66/66
f 64/64/64 67/67/67 65/65/65
f 68/68/68 69/69/69 70/70/70
f 68/68/68 71/71/71 69/69/69
f 72/72/72 71/71/71 68/68/68
f 72/72/72 73/73/73 71/71/71
f 74/74/74 73/73/73 72/72/72
f 74/74/74 75/75/75 73/73/73
f 76/76/76 77/77/77 78/78/78
f 76/76/76 79/79/79 80/80/80
f 76/76/76 81/81/81 82/82/82
f 76/76/76 83/83/83 84/84/84
f 76/76/76 85/85/85 83/83/83
f 76/76/76 86/86/86 85/85/85
f 87/87/87 88/88/88 89/89/89
f 90/90/90 89/89/89 88/88/88
f 88/88/88 91/91/91 90/90/90
f 92/92/92 90/90/90 91/91/91
f 93/93/93 94/94/94 95/95/95
f 96/96/96 95/95/95 94/94/94
f 94/94/94 97/97/97 96/96/96
f 98/98/98 96/96/96 97/97/97
f 99/99/99 100/100/100 101/101/101
f 102/102/102 101/101/101 100/100/100
f 101/101/101 102/102/102 103/103/103
f 104/104/104 103/103/103 102/102/102
f 105/105/105 106/106/106 107/107/107
f 108/108/108 107/107/107 106/106/106
f 106/106/106 109/109/109 108/108/108
f 110/110/110 108/108/108 109/109/109
f 111/111/111 112/112/112 113/113/113
f 111/111/111 114/114/114 112/112/112
f 115/115/115 114/114/114 111/111/111
f 115/115/115 116/116/116 114/114/114
f 117/117/117 116/116/116 115/115/115
f 117/117/117 118/118/118 116/116/116
f 119/119/119 2/2/2 120/120/120
f 121/121/121 2/2/2 122/122/122
f 123/123/123 2/2/2 124/124/124
f 125/125/125 2/2/2 126/126/126
f 127/127/127 2/2/2 128/128/128
