# Exported using wow.export v0.1.64
o lavasteam
mtllib lavasteam.mtl
v -1.146054983139038 0 -0.5659341216087341
v -9.116604804992676 0 -0.5659337639808655
v -8.048754692077637 0 -4.551208972930908
v -8.048754692077637 0 -4.551208972930908
v -5.131330490112305 0 -7.468634128570557
v -5.131330490112305 0 -7.468634128570557
v -1.146054983139038 0 -8.536484718322754
v -1.146053433418274 50.83444595336914 -0.5659340620040894
v 3.9152450561523438 50.83444595336914 -9.332364082336426
v -1.146053433418274 50.83444595336914 -10.6885347366333
v 7.6203742027282715 50.83444595336914 -5.627234935760498
v 3.9152450561523438 50.83444595336914 -9.332364082336426
v 8.976546287536621 50.83444595336914 -0.5659354329109192
v 7.6203742027282715 50.83444595336914 -5.627234935760498
v 7.620375633239746 50.83444595336914 4.495364189147949
v 8.976546287536621 50.83444595336914 -0.5659354329109192
v 3.915247678756714 50.83444595336914 8.200493812561035
v 7.620375633239746 50.83444595336914 4.495364189147949
v -1.146052598953247 50.83444595336914 9.556665420532227
v 3.915247678756714 50.83444595336914 8.200493812561035
v -6.207353115081787 50.83444595336914 8.200494766235352
v -1.146052598953247 50.83444595336914 9.556665420532227
v -9.912481307983398 50.83444595336914 4.495366096496582
v -6.207353115081787 50.83444595336914 8.200494766235352
v -11.268653869628906 50.83444595336914 -0.5659335851669312
v -9.912481307983398 50.83444595336914 4.495366096496582
v -9.912481307983398 50.83444595336914 -5.627233505249023
v -11.268653869628906 50.83444595336914 -0.5659335851669312
v -6.207353591918945 50.83444595336914 -9.33236312866211
v -9.912481307983398 50.83444595336914 -5.627233505249023
v -1.146053433418274 50.83444595336914 -10.6885347366333
v -6.207353591918945 50.83444595336914 -9.33236312866211
v -1.146054983139038 0 -8.536484718322754
v -6.207353591918945 50.83444595336914 -9.33236312866211
v -1.146053433418274 50.83444595336914 -10.6885347366333
v -5.131330490112305 0 -7.468634128570557
v -1.146054983139038 0 -8.536484718322754
v 2.839219331741333 0 -7.468634605407715
v 2.839219331741333 0 -7.468634605407715
v 5.756643772125244 0 -4.551210880279541
v 5.756643772125244 0 -4.551210880279541
v 6.824495792388916 0 -0.5659351944923401
v 6.824495792388916 0 -0.5659351944923401
v 5.756644248962402 0 3.4193403720855713
v 5.756644248962402 0 3.4193403720855713
v 2.8392210006713867 0 6.336764335632324
v 2.839219331741333 0 -7.468634605407715
v -1.146053433418274 50.83444595336914 -10.6885347366333
v 3.9152450561523438 50.83444595336914 -9.332364082336426
v -1.146054983139038 0 -8.536484718322754
v 5.756643772125244 0 -4.551210880279541
v 3.9152450561523438 50.83444595336914 -9.332364082336426
v 7.6203742027282715 50.83444595336914 -5.627234935760498
v 2.839219331741333 0 -7.468634605407715
v 6.824495792388916 0 -0.5659351944923401
v 7.6203742027282715 50.83444595336914 -5.627234935760498
v 8.976546287536621 50.83444595336914 -0.5659354329109192
v 5.756643772125244 0 -4.551210880279541
v 5.756644248962402 0 3.4193403720855713
v 8.976546287536621 50.83444595336914 -0.5659354329109192
v 7.620375633239746 50.83444595336914 4.495364189147949
v 6.824495792388916 0 -0.5659351944923401
v 2.8392210006713867 0 6.336764335632324
v 7.620375633239746 50.83444595336914 4.495364189147949
v 3.915247678756714 50.83444595336914 8.200493812561035
v 5.756644248962402 0 3.4193403720855713
v -1.1460542678833008 0 7.404616355895996
v 3.915247678756714 50.83444595336914 8.200493812561035
v -1.146052598953247 50.83444595336914 9.556665420532227
v 2.8392210006713867 0 6.336764335632324
v -5.1313300132751465 0 6.336765289306641
v -1.146052598953247 50.83444595336914 9.556665420532227
v -6.207353115081787 50.83444595336914 8.200494766235352
v -1.1460542678833008 0 7.404616355895996
v -8.04875373840332 0 3.4193413257598877
v -6.207353115081787 50.83444595336914 8.200494766235352
v -9.912481307983398 50.83444595336914 4.495366096496582
v -5.1313300132751465 0 6.336765289306641
v -9.116604804992676 0 -0.5659337639808655
v -9.912481307983398 50.83444595336914 4.495366096496582
v -11.268653869628906 50.83444595336914 -0.5659335851669312
v -8.04875373840332 0 3.4193413257598877
v -8.048754692077637 0 -4.551208972930908
v -11.268653869628906 50.83444595336914 -0.5659335851669312
v -9.912481307983398 50.83444595336914 -5.627233505249023
v -9.116604804992676 0 -0.5659337639808655
v -5.131330490112305 0 -7.468634128570557
v -9.912481307983398 50.83444595336914 -5.627233505249023
v -6.207353591918945 50.83444595336914 -9.33236312866211
v -8.048754692077637 0 -4.551208972930908
v 2.8392210006713867 0 6.336764335632324
v -1.1460542678833008 0 7.404616355895996
v -1.1460542678833008 0 7.404616355895996
v -5.1313300132751465 0 6.336765289306641
v -5.1313300132751465 0 6.336765289306641
v -8.04875373840332 0 3.4193413257598877
v -8.04875373840332 0 3.4193413257598877
v -9.116604804992676 0 -0.5659337639808655
vn 0 -1 0
vn 0 -1 0
vn 0 -1 0
vn 0 -1 0
vn 0 -1 0
vn 0 -1 0
vn 0 -1 0
vn 0 1 0
vn 0 1 0
vn 0 1 0
vn 0 1 0
vn 0 1 0
vn 0 1 0
vn 0 1 0
vn 0 1 0
vn 0 1 0
vn 0 1 0
vn 0 1 0
vn 0 1 0
vn 0 1 0
vn 0 1 0
vn 0 1 0
vn 0 1 0
vn 0 1 0
vn 0 1 0
vn 0 1 0
vn 0 1 0
vn 0 1 0
vn 0 1 0
vn 0 1 0
vn 0 1 0
vn 0 1 0
vn -0.08888331800699234 -0.04212917014956474 -0.9951506853103638
vn -0.42060020565986633 -0.04212915897369385 -0.9062674045562744
vn 0.08888319879770279 -0.04212917760014534 -0.9951506853103638
vn -0.5745505690574646 -0.04212914779782295 -0.8173841238021851
vn 0 -1 0
vn 0 -1 0
vn 0 -1 0
vn 0 -1 0
vn 0 -1 0
vn 0 -1 0
vn 0 -1 0
vn 0 -1 0
vn 0 -1 0
vn 0 -1 0
vn 0.42060011625289917 -0.04212918132543564 -0.9062674641609192
vn 0.08888319879770279 -0.04212917760014534 -0.9951506853103638
vn 0.574550449848175 -0.04212918505072594 -0.8173841834068298
vn -0.08888331800699234 -0.04212917014956474 -0.9951506853103638
vn 0.8173840641975403 -0.04212919622659683 -0.5745506286621094
vn 0.574550449848175 -0.04212918505072594 -0.8173841834068298
vn 0.9062673449516296 -0.042129192501306534 -0.4206002652645111
vn 0.42060011625289917 -0.04212918132543564 -0.9062674641609192
vn 0.9951506853103638 -0.04212920367717743 -0.0888833999633789
vn 0.9062673449516296 -0.042129192501306534 -0.4206002652645111
vn 0.9951506853103638 -0.042129211127758026 0.088883176445961
vn 0.8173840641975403 -0.04212919622659683 -0.5745506286621094
vn 0.9062674641609192 -0.04212919995188713 0.4206000864505768
vn 0.9951506853103638 -0.042129211127758026 0.088883176445961
vn 0.8173841834068298 -0.04212919995188713 0.574550449848175
vn 0.9951506853103638 -0.04212920367717743 -0.0888833999633789
vn 0.5745506286621094 -0.042129188776016235 0.8173840641975403
vn 0.8173841834068298 -0.04212919995188713 0.574550449848175
vn 0.4206002652645111 -0.04212918505072594 0.9062673449516296
vn 0.9062674641609192 -0.04212919995188713 0.4206000864505768
vn 0.08888335525989532 -0.04212917014956474 0.9951506853103638
vn 0.4206002652645111 -0.04212918505072594 0.9062673449516296
vn -0.0888831838965416 -0.04212915897369385 0.9951506853103638
vn 0.5745506286621094 -0.042129188776016235 0.8173840641975403
vn -0.42060011625289917 -0.04212914779782295 0.9062674641609192
vn -0.0888831838965416 -0.04212915897369385 0.9951506853103638
vn -0.574550449848175 -0.04212914779782295 0.8173841834068298
vn 0.08888335525989532 -0.04212917014956474 0.9951506853103638
vn -0.8173841238021851 -0.04212914779782295 0.5745505094528198
vn -0.574550449848175 -0.04212914779782295 0.8173841834068298
vn -0.9062673449516296 -0.042129144072532654 0.4206002652645111
vn -0.42060011625289917 -0.04212914779782295 0.9062674641609192
vn -0.9951506853103638 -0.04212914779782295 0.08888338506221771
vn -0.9062673449516296 -0.042129144072532654 0.4206002652645111
vn -0.9951506853103638 -0.042129144072532654 -0.08888325840234756
vn -0.8173841238021851 -0.04212914779782295 0.5745505094528198
vn -0.9062674045562744 -0.042129140347242355 -0.42060017585754395
vn -0.9951506853103638 -0.042129144072532654 -0.08888325840234756
vn -0.8173841238021851 -0.04212913662195206 -0.5745505094528198
vn -0.9951506853103638 -0.04212914779782295 0.08888338506221771
vn -0.5745505690574646 -0.04212914779782295 -0.8173841238021851
vn -0.8173841238021851 -0.04212913662195206 -0.5745505094528198
vn -0.42060020565986633 -0.04212915897369385 -0.9062674045562744
vn -0.9062674045562744 -0.042129140347242355 -0.42060017585754395
vn 0 -1 0
vn 0 -1 0
vn 0 -1 0
vn 0 -1 0
vn 0 -1 0
vn 0 -1 0
vn 0 -1 0
vn 0 -1 0
vt 0 0
vt 1 1
vt 0 1
vt 1 1
vt 0 1
vt 1 1
vt 0 1
vt 1 1
vt 0 0
vt 1 0
vt 0 0
vt 1 0
vt 0 0
vt 1 0
vt 0 0
vt 1 0
vt 0 0
vt 1 0
vt 0 0
vt 1 0
vt 0 0
vt 1 0
vt 0 0
vt 1 0
vt 0 0
vt 1 0
vt 0 0
vt 1 0
vt 0 0
vt 1 0
vt 0 0
vt 1 0
vt 0 0
vt 1 1
vt 0 1
vt 1 0
vt 1 1
vt 0 1
vt 1 1
vt 0 1
vt 1 1
vt 0 1
vt 1 1
vt 0 1
vt 1 1
vt 0 1
vt 0 0
vt 1 1
vt 0 1
vt 1 0
vt 0 0
vt 1 1
vt 0 1
vt 1 0
vt 0 0
vt 1 1
vt 0 1
vt 1 0
vt 0 0
vt 1 1
vt 0 1
vt 1 0
vt 0 0
vt 1 1
vt 0 1
vt 1 0
vt 0 0
vt 1 1
vt 0 1
vt 1 0
vt 0 0
vt 1 1
vt 0 1
vt 1 0
vt 0 0
vt 1 1
vt 0 1
vt 1 0
vt 0 0
vt 1 1
vt 0 1
vt 1 0
vt 0 0
vt 1 1
vt 0 1
vt 1 0
vt 0 0
vt 1 1
vt 0 1
vt 1 0
vt 1 1
vt 0 1
vt 1 1
vt 0 1
vt 1 1
vt 0 1
vt 1 1
vt 0 1
g Geoset0
s 1
usemtl mat_dust7alpha
f 1/1/1 2/2/2 3/3/3
f 1/1/1 4/4/4 5/5/5
f 1/1/1 6/6/6 7/7/7
f 8/8/8 9/9/9 10/10/10
f 8/8/8 11/11/11 12/12/12
f 8/8/8 13/13/13 14/14/14
f 8/8/8 15/15/15 16/16/16
f 8/8/8 17/17/17 18/18/18
f 8/8/8 19/19/19 20/20/20
f 8/8/8 21/21/21 22/22/22
f 8/8/8 23/23/23 24/24/24
f 8/8/8 25/25/25 26/26/26
f 8/8/8 27/27/27 28/28/28
f 8/8/8 29/29/29 30/30/30
f 8/8/8 31/31/31 32/32/32
f 33/33/33 34/34/34 35/35/35
f 33/33/33 36/36/36 34/34/34
f 1/1/1 37/37/37 38/38/38
f 1/1/1 39/39/39 40/40/40
f 1/1/1 41/41/41 42/42/42
f 1/1/1 43/43/43 44/44/44
f 1/1/1 45/45/45 46/46/46
f 47/47/47 48/48/48 49/49/49
f 47/47/47 50/50/50 48/48/48
f 51/51/51 52/52/52 53/53/53
f 51/51/51 54/54/54 52/52/52
f 55/55/55 56/56/56 57/57/57
f 55/55/55 58/58/58 56/56/56
f 59/59/59 60/60/60 61/61/61
f 59/59/59 62/62/62 60/60/60
f 63/63/63 64/64/64 65/65/65
f 63/63/63 66/66/66 64/64/64
f 67/67/67 68/68/68 69/69/69
f 67/67/67 70/70/70 68/68/68
f 71/71/71 72/72/72 73/73/73
f 71/71/71 74/74/74 72/72/72
f 75/75/75 76/76/76 77/77/77
f 75/75/75 78/78/78 76/76/76
f 79/79/79 80/80/80 81/81/81
f 79/79/79 82/82/82 80/80/80
f 83/83/83 84/84/84 85/85/85
f 83/83/83 86/86/86 84/84/84
f 87/87/87 88/88/88 89/89/89
f 87/87/87 90/90/90 88/88/88
f 1/1/1 91/91/91 92/92/92
f 1/1/1 93/93/93 94/94/94
f 1/1/1 95/95/95 96/96/96
f 1/1/1 97/97/97 98/98/98
