# Exported using wow.export v0.1.64
o jar03
mtllib jar03.mtl
v 0.04278187081217766 0.5284862518310547 0.037153951823711395
v 0.04278187081217766 0.5284862518310547 -0.038786906749010086
v -0.03315898776054382 0.5284862518310547 -0.038786906749010086
v 0.04278187081217766 0.5284862518310547 0.037153951823711395
v -0.03315898776054382 0.5284862518310547 0.037153951823711395
v -0.028790708631277084 0.4664585292339325 0.032785672694444656
v 0.03841359168291092 0.4664585292339325 0.032785672694444656
v -0.03315898776054382 0.5284862518310547 0.037153951823711395
v -0.03315898776054382 0.5284862518310547 -0.038786906749010086
v -0.028790708631277084 0.4664585292339325 -0.034418631345033646
v -0.028790708631277084 0.4664585292339325 0.032785672694444656
v -0.03315898776054382 0.5284862518310547 -0.038786906749010086
v 0.04278187081217766 0.5284862518310547 -0.038786906749010086
v 0.03841359168291092 0.4664585292339325 -0.034418631345033646
v -0.028790708631277084 0.4664585292339325 -0.034418631345033646
v 0.04278187081217766 0.5284862518310547 -0.038786906749010086
v 0.04278187081217766 0.5284862518310547 0.037153951823711395
v 0.03841359168291092 0.4664585292339325 0.032785672694444656
v 0.03841359168291092 0.4664585292339325 -0.034418631345033646
v -0.0009360461262986064 0.5001712441444397 0.00042367001879028976
v -0.0009360474650748074 0.4691673517227173 -0.14236459136009216
v -0.1245943158864975 0.4691673517227173 -0.07097046077251434
v 0.12272218614816666 0.4691673517227173 -0.07097047567367554
v 0.12272223085165024 0.4691673517227173 0.0718177929520607
v 0.23154155910015106 0.3903476297855377 0.13464461266994476
v -0.0009360163239762187 0.3903476297855377 0.2688656449317932
v -0.000936018128413707 0.1421261578798294 0.25435829162597656
v -0.2208499014377594 0.1421261578798294 0.1273909956216812
v -0.14561620354652405 0 0.0839548110961914
v -0.14561620354652405 0 -0.08310746401548386
v -0.0009360350668430328 0.4691673517227173 0.14321193099021912
v -0.1245943158864975 0.4691673517227173 0.0718178078532219
v -0.23341356217861176 0.3903476297855377 0.13464465737342834
v -0.23341359198093414 0.3903476297855377 -0.1337973177433014
v -0.0009360397234559059 0.3903476297855377 -0.26801830530166626
v 0.2315414547920227 0.3903476297855377 -0.13379733264446259
v -0.2208499014377594 0.1421261578798294 -0.12654364109039307
v -0.0009360402473248541 0.1421261578798294 -0.2535109519958496
v 0.21897777915000916 0.1421261578798294 -0.12654367089271545
v 0.21897783875465393 0.1421261578798294 0.12739096581935883
v -0.0009360357071273029 0 -0.1666385978460312
v 0.1437441110610962 0 -0.08310747891664505
v 0.14374415576457977 0 0.08395478874444962
v -0.0009360210970044136 0 0.16748593747615814
v -0.03315898776054382 0.5284862518310547 0.037153951823711395
vn 0.32132217288017273 0.6955287456512451 0.6426443457603455
vn 0.8271703720092773 0.38044241070747375 -0.41358518600463867
vn -0.32132217288017273 0.6955287456512451 -0.6426443457603455
vn 0.32132217288017273 0.6955287456512451 0.6426443457603455
vn -0.8271703720092773 0.38044241070747375 0.41358518600463867
vn -0.4425675570964813 -0.1437699794769287 0.8851351141929626
vn 0.8851351141929626 -0.1437699794769287 0.4425675570964813
vn -0.8271703720092773 0.38044241070747375 0.41358518600463867
vn -0.32132217288017273 0.6955287456512451 -0.6426443457603455
vn -0.8851351141929626 -0.1437699794769287 -0.4425675570964813
vn -0.4425675570964813 -0.1437699794769287 0.8851351141929626
vn -0.32132217288017273 0.6955287456512451 -0.6426443457603455
vn 0.8271703720092773 0.38044241070747375 -0.41358518600463867
vn 0.4425675570964813 -0.1437699794769287 -0.8851351141929626
vn -0.8851351141929626 -0.1437699794769287 -0.4425675570964813
vn 0.8271703720092773 0.38044241070747375 -0.41358518600463867
vn 0.32132217288017273 0.6955287456512451 0.6426443457603455
vn 0.8851351141929626 -0.1437699794769287 0.4425675570964813
vn 0.4425675570964813 -0.1437699794769287 -0.8851351141929626
vn 7.681189018171608e-9 1 -1.28019825851311e-8
vn 0.061206717044115067 0.9118472933769226 -0.4059412181377411
vn -0.32095208764076233 0.9118472933769226 -0.25597718358039856
vn 0.3821588158607483 0.9118472337722778 -0.14996416866779327
vn 0.32095205783843994 0.9118472933769226 0.2559771239757538
vn 0.7352482676506042 0.4835142195224762 0.47499892115592957
vn -0.04373716190457344 0.4835142195224762 0.8742431402206421
vn 0.011194135993719101 -0.30300015211105347 0.9529247879981995
vn -0.8196600079536438 -0.30300018191337585 0.48615673184394836
vn -0.6481407284736633 -0.5146344900131226 0.5613064765930176
vn -0.8101759552955627 -0.5146344900131226 -0.2806532084941864
vn -0.06120668724179268 0.9118472933769226 0.4059412479400635
vn -0.3821588158607483 0.9118472337722778 0.1499641239643097
vn -0.7789853811264038 0.4835141897201538 0.3992440402507782
vn -0.7352481484413147 0.4835141599178314 -0.47499915957450867
vn 0.04373723268508911 0.4835141599178314 -0.8742431402206421
vn 0.778985321521759 0.4835142195224762 -0.39924412965774536
vn -0.8308541178703308 -0.30300015211105347 -0.4667680263519287
vn -0.011194090358912945 -0.30300024151802063 -0.9529247283935547
vn 0.819659948348999 -0.30300018191337585 -0.4861568510532379
vn 0.8308541774749756 -0.30300015211105347 0.4667678773403168
vn -0.16203521192073822 -0.5146344304084778 -0.8419595956802368
vn 0.6481407880783081 -0.514634370803833 -0.5613064765930176
vn 0.8101760149002075 -0.5146344900131226 0.28065308928489685
vn 0.16203521192073822 -0.514634370803833 0.8419596552848816
vn -0.8271703720092773 0.38044241070747375 0.41358518600463867
vt 0.37890625 0.3828125
vt 0.42578125 0.3828125
vt 0.42578125 0.40625
vt 0.49609375 0.43359375
vt 0.39453125 0.43359375
vt 0.39453125 0.40234375
vt 0.49609375 0.40234375
vt 0.49609375 0.43359375
vt 0.39453125 0.43359375
vt 0.39453125 0.40234375
vt 0.49609375 0.40234375
vt 0.49609375 0.43359375
vt 0.39453125 0.43359375
vt 0.39453125 0.40234375
vt 0.49609375 0.40234375
vt 0.49609375 0.43359375
vt 0.39453125 0.43359375
vt 0.39453125 0.40234375
vt 0.49609375 0.40234375
vt 0.4398554563522339 0.5
vt 0.49609375 0.48046875
vt 0.37890625 0.48046875
vt 0.37890625 0.48046875
vt 0.49609375 0.48046875
vt 0.49609375 0.44140625
vt 0.37890625 0.44140625
vt 0.37890625 0.33984375
vt 0.49609375 0.33984375
vt 0.49609375 0.25
vt 0.37890625 0.25
vt 0.37890625 0.48046875
vt 0.49609375 0.48046875
vt 0.49609375 0.44140625
vt 0.37890625 0.44140625
vt 0.49609375 0.44140625
vt 0.37890625 0.44140625
vt 0.37890625 0.33984375
vt 0.49609375 0.33984375
vt 0.37890625 0.33984375
vt 0.49609375 0.33984375
vt 0.49609375 0.25
vt 0.37890625 0.25
vt 0.49609375 0.25
vt 0.37890625 0.25
vt 0.37890625 0.40625
g Geoset0
s 1
usemtl mat_deadmines_comp
f 1/1/1 2/2/2 3/3/3
f 4/4/4 5/5/5 6/6/6
f 6/6/6 7/7/7 4/4/4
f 8/8/8 9/9/9 10/10/10
f 10/10/10 11/11/11 8/8/8
f 12/12/12 13/13/13 14/14/14
f 14/14/14 15/15/15 12/12/12
f 16/16/16 17/17/17 18/18/18
f 18/18/18 19/19/19 16/16/16
f 20/20/20 21/21/21 22/22/22
f 20/20/20 23/23/23 21/21/21
f 20/20/20 24/24/24 23/23/23
f 25/25/25 23/23/23 24/24/24
f 26/26/26 25/25/25 24/24/24
f 27/27/27 25/25/25 26/26/26
f 28/28/28 27/27/27 26/26/26
f 29/29/29 27/27/27 28/28/28
f 30/30/30 29/29/29 28/28/28
f 20/20/20 31/31/31 24/24/24
f 20/20/20 32/32/32 31/31/31
f 20/20/20 22/22/22 32/32/32
f 26/26/26 24/24/24 31/31/31
f 33/33/33 26/26/26 31/31/31
f 33/33/33 31/31/31 32/32/32
f 34/34/34 33/33/33 32/32/32
f 34/34/34 32/32/32 22/22/22
f 35/35/35 34/34/34 22/22/22
f 35/35/35 22/22/22 21/21/21
f 36/36/36 35/35/35 21/21/21
f 36/36/36 21/21/21 23/23/23
f 25/25/25 36/36/36 23/23/23
f 28/28/28 26/26/26 33/33/33
f 37/37/37 28/28/28 33/33/33
f 37/37/37 33/33/33 34/34/34
f 38/38/38 37/37/37 34/34/34
f 38/38/38 34/34/34 35/35/35
f 39/39/39 38/38/38 35/35/35
f 39/39/39 35/35/35 36/36/36
f 40/40/40 39/39/39 36/36/36
f 40/40/40 36/36/36 25/25/25
f 27/27/27 40/40/40 25/25/25
f 30/30/30 28/28/28 37/37/37
f 41/41/41 30/30/30 37/37/37
f 41/41/41 37/37/37 38/38/38
f 42/42/42 41/41/41 38/38/38
f 42/42/42 38/38/38 39/39/39
f 43/43/43 42/42/42 39/39/39
f 43/43/43 39/39/39 40/40/40
f 44/44/44 43/43/43 40/40/40
f 44/44/44 40/40/40 27/27/27
f 29/29/29 44/44/44 27/27/27
f 3/3/3 45/45/45 1/1/1
