# Exported using wow.export v0.1.64
o scrolla02
mtllib scrolla02.mtl
v -0.36391201615333557 0.02461809664964676 -0.3674083948135376
v -0.36331772804260254 0.026565972715616226 0.32821089029312134
v 0.35309967398643494 0.02461804263293743 -0.32983145117759705
v 0.4433068335056305 0.004418936092406511 0.2310577780008316
v 0.4404727518558502 0.09577784687280655 0.18472149968147278
v 0.517630398273468 0.07021764665842056 0.2503596842288971
v 0.44622883200645447 0.13592280447483063 0.27883195877075195
v 0.44906288385391235 0.044563908129930496 0.325168251991272
v -0.36331772804260254 0.026565972715616226 0.32821089029312134
v 0.34906214475631714 0.052063919603824615 0.214453786611557
v 0.3533388674259186 0.0265659112483263 0.2843782901763916
v -0.36331772804260254 0.026565972715616226 0.32821089029312134
v -0.3675945997238159 0.052063971757888794 0.25828638672828674
v 0.34906214475631714 0.052063919603824615 0.214453786611557
v -0.3674481511116028 0.05612478777766228 -0.2999347746372223
v 0.35309967398643494 0.02461804263293743 -0.32983145117759705
v 0.34956350922584534 0.0561247356235981 -0.2623577415943146
v -0.3674481511116028 0.05612478777766228 -0.2999347746372223
v -0.36391201615333557 0.02461809664964676 -0.3674083948135376
v 0.35309967398643494 0.02461804263293743 -0.32983145117759705
v 0.35309967398643494 0.02461804263293743 -0.32983145117759705
v -0.36331772804260254 0.026565972715616226 0.32821089029312134
v 0.3533388674259186 0.0265659112483263 0.2843782901763916
v -0.45942941308021545 0.006715158466249704 -0.3228691518306732
v -0.46143266558647156 0.10177242755889893 -0.28463783860206604
v -0.5307141542434692 0.06947655230760574 -0.3576224744319916
v -0.45633357763290405 0.13354699313640594 -0.3819306790828705
v -0.45433035492897034 0.03848979249596596 -0.4201618731021881
v 0.44343796372413635 0.006715198513120413 -0.27555179595947266
v 0.5179130434989929 0.06994518637657166 -0.3016599714756012
v 0.4414342939853668 0.1017724871635437 -0.23732048273086548
v 0.4465332627296448 0.13354699313640594 -0.33461347222328186
v 0.44853687286376953 0.03848980739712715 -0.3728446960449219
v -0.45911332964897156 0.004418942611664534 0.28625214099884033
v -0.45335736870765686 0.0445639044046402 0.3803625702857971
v -0.5305851101875305 0.07054372131824493 0.3135736882686615
v -0.4561910629272461 0.13592280447483063 0.3340263068675995
v -0.46194735169410706 0.09577784687280655 0.2399158477783203
v 0.34956350922584534 0.0561247356235981 -0.2623577415943146
v -0.3641291856765747 0.10391425341367722 -0.36326155066490173
v -0.3674481511116028 0.05612478777766228 -0.2999347746372223
v 0.35288235545158386 0.10391420871019363 -0.3256845772266388
v -0.36391201615333557 0.02461809664964676 -0.3674083948135376
v 0.35309967398643494 0.02461804263293743 -0.32983145117759705
v 0.3533388674259186 0.0265659112483263 0.2843782901763916
v -0.3639920651912689 0.10519849509000778 0.31718358397483826
v -0.36331772804260254 0.026565972715616226 0.32821089029312134
v 0.35266438126564026 0.1051984429359436 0.27335095405578613
v -0.3675945997238159 0.052063971757888794 0.25828638672828674
v 0.34906214475631714 0.052063919603824615 0.214453786611557
v -0.46143266558647156 0.10177242755889893 -0.28463783860206604
v -0.3641291856765747 0.10391425341367722 -0.36326155066490173
v -0.45633357763290405 0.13354699313640594 -0.3819306790828705
v -0.3674481511116028 0.05612478777766228 -0.2999347746372223
v -0.45433035492897034 0.03848979249596596 -0.4201618731021881
v -0.36391201615333557 0.02461809664964676 -0.3674083948135376
v -0.45942941308021545 0.006715158466249704 -0.3228691518306732
v 0.4414342939853668 0.1017724871635437 -0.23732048273086548
v 0.35288235545158386 0.10391420871019363 -0.3256845772266388
v 0.34956350922584534 0.0561247356235981 -0.2623577415943146
v 0.44343796372413635 0.006715198513120413 -0.27555179595947266
v 0.4465332627296448 0.13354699313640594 -0.33461347222328186
v 0.44853687286376953 0.03848980739712715 -0.3728446960449219
v 0.35309967398643494 0.02461804263293743 -0.32983145117759705
v 0.44906288385391235 0.044563908129930496 0.325168251991272
v 0.35266438126564026 0.1051984429359436 0.27335095405578613
v 0.3533388674259186 0.0265659112483263 0.2843782901763916
v 0.4433068335056305 0.004418936092406511 0.2310577780008316
v 0.44622883200645447 0.13592280447483063 0.27883195877075195
v 0.4404727518558502 0.09577784687280655 0.18472149968147278
v 0.34906214475631714 0.052063919603824615 0.214453786611557
v -0.3639920651912689 0.10519849509000778 0.31718358397483826
v -0.3675945997238159 0.052063971757888794 0.25828638672828674
v -0.46194735169410706 0.09577784687280655 0.2399158477783203
v -0.4561910629272461 0.13592280447483063 0.3340263068675995
v -0.45911332964897156 0.004418942611664534 0.28625214099884033
v -0.36331772804260254 0.026565972715616226 0.32821089029312134
v -0.45335736870765686 0.0445639044046402 0.3803625702857971
vn 0.0001468321424908936 0.9999960660934448 -0.0028003142215311527
vn 0.0001468321424908936 0.9999960660934448 -0.0028003142215311527
vn 0.0001468321424908936 0.9999960660934448 -0.0028003142215311527
vn 0.67559415102005 -0.6785150170326233 -0.28842663764953613
vn 0.6738989353179932 0.2390023171901703 -0.6990980505943298
vn 0.998069703578949 0.00038425796083174646 -0.06210223585367203
vn 0.7057426571846008 0.6783127784729004 0.2044970542192459
vn 0.755271852016449 -0.2385551631450653 0.6104554533958435
vn -0.020879900082945824 -0.9396926164627075 -0.34138214588165283
vn -0.020879900082945824 -0.9396926164627075 -0.34138214588165283
vn -0.020879900082945824 -0.9396926164627075 -0.34138214588165283
vn -0.020879894495010376 -0.9396926164627075 -0.34138214588165283
vn -0.020879894495010376 -0.9396926164627075 -0.34138214588165283
vn -0.020879894495010376 -0.9396926164627075 -0.34138214588165283
vn -0.022118205204606056 -0.9063076972961426 0.4220392107963562
vn -0.022118205204606056 -0.9063076972961426 0.4220392107963562
vn -0.022118205204606056 -0.9063076972961426 0.4220392107963562
vn -0.022118203341960907 -0.9063077569007874 0.4220391809940338
vn -0.022118203341960907 -0.9063077569007874 0.4220391809940338
vn -0.022118203341960907 -0.9063077569007874 0.4220391809940338
vn -0.00019388346117921174 0.9999949336051941 -0.0031712513882666826
vn -0.00019388346117921174 0.9999949336051941 -0.0031712513882666826
vn -0.00019388346117921174 0.9999949336051941 -0.0031712513882666826
vn -0.7071563601493835 -0.6528574824333191 0.2714903950691223
vn -0.7548402547836304 0.29193899035453796 0.587356686592102
vn -0.9979451894760132 -0.0053756446577608585 -0.06384748965501785
vn -0.675218939781189 0.6556909084320068 -0.3378591537475586
vn -0.6741878986358643 -0.29818931221961975 -0.6756876707077026
vn 0.6749828457832336 -0.6539069414138794 0.341765820980072
vn 0.998794436454773 -0.0015275912592187524 0.04906418174505234
vn 0.6840019226074219 0.29416021704673767 0.6675411462783813
vn 0.7069191932678223 0.6547109484672546 -0.26761698722839355
vn 0.7461353540420532 -0.2959379255771637 -0.5964082479476929
vn -0.7056074142456055 -0.6792006492614746 -0.20200158655643463
vn -0.6798880100250244 -0.23700138926506042 0.6939615607261658
vn -0.9986085295677185 0.003063809359446168 0.05264630541205406
vn -0.6754583716392517 0.677590012550354 0.2909085154533386
vn -0.7498462796211243 0.24056898057460785 -0.6163254976272583
vn -0.3785925805568695 0.25806835293769836 0.888857901096344
vn 0.37747934460639954 0.8464779257774353 -0.37547895312309265
vn 0.2836073935031891 0.2580682933330536 0.9235624670982361
vn -0.33616384863853455 0.8464778065681458 -0.4128791391849518
vn 0.37197357416152954 -0.5292680859565735 -0.7625686526298523
vn -0.2902255356311798 -0.5292677283287048 -0.7972733378410339
vn -0.2806224822998047 -0.45918506383895874 0.8428523540496826
vn 0.37614569067955017 0.8776593804359436 0.29703277349472046
vn 0.3812486231327057 -0.45918503403663635 0.8023706078529358
vn -0.3371434807777405 0.8776590824127197 0.34065932035446167
vn 0.2743748426437378 0.17799589037895203 -0.9450057744979858
vn -0.38749659061431885 0.17799605429172516 -0.9045240879058838
vn 0.24161237478256226 0.4583550691604614 0.8552976846694946
vn 0.37747934460639954 0.8464779257774353 -0.37547895312309265
vn 0.35190874338150024 0.8550618290901184 -0.3808273673057556
vn 0.2836073935031891 0.2580682933330536 0.9235624670982361
vn 0.3323356807231903 -0.34998664259910583 -0.8758209347724915
vn 0.37197357416152954 -0.5292680859565735 -0.7625686526298523
vn 0.1136590763926506 -0.897917628288269 0.4252358376979828
vn -0.32969266176223755 0.4583573639392853 0.8253552317619324
vn -0.33616384863853455 0.8464778065681458 -0.4128791391849518
vn -0.3785925805568695 0.25806835293769836 0.888857901096344
vn -0.15748567879199982 -0.8979172110557556 0.4110267162322998
vn -0.31017380952835083 0.8550618886947632 -0.4155253767967224
vn -0.2389676719903946 -0.34998413920402527 -0.9057624340057373
vn -0.2902255356311798 -0.5292677283287048 -0.7972733378410339
vn -0.22939960658550262 -0.27090805768966675 0.9348714351654053
vn -0.3371434807777405 0.8776590824127197 0.34065932035446167
vn -0.2806224822998047 -0.45918506383895874 0.8428523540496826
vn -0.15619155764579773 -0.9309929609298706 -0.3299337327480316
vn -0.31117814779281616 0.8865593075752258 0.34231674671173096
vn -0.3391250967979431 0.38327333331108093 -0.8591249585151672
vn -0.38749659061431885 0.17799605429172516 -0.9045240879058838
vn 0.37614569067955017 0.8776593804359436 0.29703277349472046
vn 0.2743748426437378 0.17799589037895203 -0.9450057744979858
vn 0.23189590871334076 0.3832719624042511 -0.8940508365631104
vn 0.3505761921405792 0.8865593075752258 0.3018425405025482
vn 0.11481893062591553 -0.9309930801391602 -0.34650906920433044
vn 0.3812486231327057 -0.45918503403663635 0.8023706078529358
vn 0.341621071100235 -0.27090972661972046 0.8999460935592651
vt 0.5631711483001709 0.2512180805206299
vt 0.43838265538215637 0.25121796131134033
vt 0.5631711483001709 0.4996833801269531
vt 0.847881555557251 0.2767168879508972
vt 0.8478814959526062 0.2518804669380188
vt 0.8129110336303711 0.2762067914009094
vt 0.847881555557251 0.2767168879508972
vt 0.847881555557251 0.3042057752609253
vt 0.37631332874298096 0.49798130989074707
vt 0.4362212121486664 0.25159990787506104
vt 0.37631332874298096 0.25159990787506104
vt 0.37631332874298096 0.49798130989074707
vt 0.436284601688385 0.49798130989074707
vt 0.4362212121486664 0.25159990787506104
vt 0.37631332874298096 0.49798130989074707
vt 0.4362212121486664 0.25159990787506104
vt 0.37631332874298096 0.25159990787506104
vt 0.37631332874298096 0.49798130989074707
vt 0.436284601688385 0.49798130989074707
vt 0.4362212121486664 0.25159990787506104
vt 0.5631711483001709 0.4996833801269531
vt 0.43838265538215637 0.25121796131134033
vt 0.43838265538215637 0.4996832609176636
vt 0.8478965759277344 0.27671825885772705
vt 0.8478965163230896 0.3042071461677551
vt 0.812926173210144 0.27618342638015747
vt 0.8478965759277344 0.27671825885772705
vt 0.8478965759277344 0.25188183784484863
vt 0.847881555557251 0.27671825885772705
vt 0.8129110336303711 0.276203989982605
vt 0.847881555557251 0.3042071461677551
vt 0.847881555557251 0.27671825885772705
vt 0.8478814959526062 0.25188183784484863
vt 0.8478965759277344 0.2767168879508972
vt 0.8478965163230896 0.3042057752609253
vt 0.812926173210144 0.27618908882141113
vt 0.8478965759277344 0.2767168879508972
vt 0.8478965759277344 0.2518804669380188
vt 0.3755629062652588 0.49893760681152344
vt 0.4081951081752777 0.251264750957489
vt 0.3755629062652588 0.25126469135284424
vt 0.4081951081752777 0.49893760681152344
vt 0.43608978390693665 0.25126469135284424
vt 0.43608978390693665 0.49893760681152344
vt 0.3754711151123047 0.49893760681152344
vt 0.4081950783729553 0.25126469135284424
vt 0.3754711151123047 0.25126469135284424
vt 0.4081950783729553 0.49893760681152344
vt 0.43601810932159424 0.25126463174819946
vt 0.43601810932159424 0.49893760681152344
vt 0.8478965163230896 0.3042071461677551
vt 0.9072928428649902 0.27672791481018066
vt 0.8478965759277344 0.27671825885772705
vt 0.907247006893158 0.3042258024215698
vt 0.8478965759277344 0.25188183784484863
vt 0.907281756401062 0.2518719434738159
vt 0.8478965759277344 0.27671825885772705
vt 0.847881555557251 0.3042071461677551
vt 0.907181978225708 0.27672791481018066
vt 0.907227635383606 0.3042258024215698
vt 0.847881555557251 0.27671825885772705
vt 0.847881555557251 0.27671825885772705
vt 0.8478814959526062 0.25188183784484863
vt 0.9071928858757019 0.2518719434738159
vt 0.847881555557251 0.3042057752609253
vt 0.907181978225708 0.2767072916030884
vt 0.907227635383606 0.3042222261428833
vt 0.847881555557251 0.2767168879508972
vt 0.847881555557251 0.2767168879508972
vt 0.8478814959526062 0.2518804669380188
vt 0.9071928858757019 0.2518554925918579
vt 0.9072927832603455 0.2767072916030884
vt 0.9072816967964172 0.2518554925918579
vt 0.8478965759277344 0.2518804669380188
vt 0.8478965759277344 0.2767168879508972
vt 0.8478965759277344 0.2767168879508972
vt 0.907247006893158 0.3042222261428833
vt 0.8478965163230896 0.3042057752609253
g Geoset0
s 1
usemtl mat_books
f 1/1/1 2/2/2 3/3/3
f 4/4/4 5/5/5 6/6/6
f 6/6/6 5/5/5 7/7/7
f 8/8/8 6/6/6 7/7/7
f 4/4/4 6/6/6 8/8/8
f 9/9/9 10/10/10 11/11/11
f 12/12/12 13/13/13 14/14/14
f 15/15/15 16/16/16 17/17/17
f 18/18/18 19/19/19 20/20/20
f 21/21/21 22/22/22 23/23/23
f 24/24/24 25/25/25 26/26/26
f 26/26/26 25/25/25 27/27/27
f 28/28/28 26/26/26 27/27/27
f 24/24/24 26/26/26 28/28/28
f 29/29/29 30/30/30 31/31/31
f 31/31/31 30/30/30 32/32/32
f 30/30/30 33/33/33 32/32/32
f 29/29/29 33/33/33 30/30/30
f 34/34/34 35/35/35 36/36/36
f 36/36/36 35/35/35 37/37/37
f 38/38/38 36/36/36 37/37/37
f 34/34/34 36/36/36 38/38/38
f 39/39/39 40/40/40 41/41/41
f 39/39/39 42/42/42 40/40/40
f 42/42/42 43/43/43 40/40/40
f 42/42/42 44/44/44 43/43/43
f 45/45/45 46/46/46 47/47/47
f 45/45/45 48/48/48 46/46/46
f 48/48/48 49/49/49 46/46/46
f 48/48/48 50/50/50 49/49/49
f 51/51/51 52/52/52 53/53/53
f 54/54/54 52/52/52 51/51/51
f 52/52/52 55/55/55 53/53/53
f 52/52/52 56/56/56 55/55/55
f 56/56/56 57/57/57 55/55/55
f 56/56/56 54/54/54 57/57/57
f 54/54/54 51/51/51 57/57/57
f 58/58/58 59/59/59 60/60/60
f 61/61/61 58/58/58 60/60/60
f 58/58/58 62/62/62 59/59/59
f 62/62/62 63/63/63 59/59/59
f 59/59/59 63/63/63 64/64/64
f 63/63/63 61/61/61 64/64/64
f 61/61/61 60/60/60 64/64/64
f 65/65/65 66/66/66 67/67/67
f 68/68/68 65/65/65 67/67/67
f 65/65/65 69/69/69 66/66/66
f 69/69/69 70/70/70 66/66/66
f 66/66/66 70/70/70 71/71/71
f 70/70/70 68/68/68 71/71/71
f 68/68/68 67/67/67 71/71/71
f 72/72/72 73/73/73 74/74/74
f 72/72/72 74/74/74 75/75/75
f 73/73/73 76/76/76 74/74/74
f 73/73/73 77/77/77 76/76/76
f 77/77/77 78/78/78 76/76/76
f 77/77/77 72/72/72 78/78/78
f 78/78/78 72/72/72 75/75/75
