# Exported using wow.export v0.1.64
o darkshorebush02
mtllib darkshorebush02.mtl
v -1.4894704818725586 1.5805269479751587 3.9520256519317627
v -0.8263259530067444 2.1560633182525635 2.5824005603790283
v -1.7782868146896362 2.2378616333007812 4.042440891265869
v 0.26555073261260986 -0.2907354533672333 -6.6153435707092285
v -0.016401512548327446 1.8963876962661743 -5.299952507019043
v 0.25185292959213257 2.6851894855499268 -5.5447564125061035
v -0.04302274063229561 2.587031602859497 -3.8093953132629395
v 0.13199207186698914 -0.2907354533672333 -1.576802134513855
v 0.1251419335603714 1.3942946195602417 -1.9055758714675903
v 0.12525025010108948 2.8806092739105225 -1.3400577306747437
v -1.5098364353179932 -0.29073551297187805 -4.015835285186768
v -1.0789378881454468 1.1125937700271606 -3.454974412918091
v 0.8510063290596008 1.3942947387695312 -3.0831048488616943
v 1.8556153774261475 -0.29073551297187805 -2.5741710662841797
v 1.8556153774261475 -0.29073551297187805 -2.5741710662841797
v 0.8510063290596008 1.3942947387695312 -3.0831048488616943
v 1.5755635499954224 2.485697031021118 -2.342773675918579
v 0.26555073261260986 -0.2907354533672333 -6.6153435707092285
v -1.0789378881454468 1.1125937700271606 -3.454974412918091
v -0.016401512548327446 1.8963876962661743 -5.299952507019043
v -1.5098364353179932 -0.29073551297187805 -4.015835285186768
v 1.8556153774261475 -0.29073551297187805 -2.5741710662841797
v -1.7777609825134277 3.0871422290802 -3.5949413776397705
v 0.208790123462677 -0.24207589030265808 3.254901170730591
v -0.17222805321216583 -0.2420758455991745 0.8345832824707031
v -0.28284257650375366 1.1621158123016357 1.0853042602539062
v -0.17437341809272766 0.9273651838302612 3.138446092605591
v -0.0837591364979744 2.4007112979888916 0.6581549048423767
v -1.5145241022109985 1.1621159315109253 2.2953691482543945
v -2.023427963256836 -0.2420758754014969 2.171067237854004
v -0.26580774784088135 3.9883813858032227 -2.884798765182495
v 0.02791280299425125 2.076653003692627 -2.383016586303711
v -0.22303053736686707 -0.30118146538734436 -3.2310025691986084
v 0.01450147945433855 4.012674808502197 0.1821826845407486
v 0.02339577116072178 4.005609035491943 2.67301869392395
v 0.027912762016057968 2.1397156715393066 1.9269542694091797
v 0.014501537196338177 -0.30118146538734436 3.2224018573760986
v 1.600895643234253 2.019728660583496 -0.41953277587890625
v 2.750782012939453 -0.3011817932128906 -0.25647106766700745
v -1.9993144273757935 2.1397156715393066 -0.2985500395298004
v -2.921992063522339 -0.3011813163757324 -0.31266605854034424
v -3.019869565963745 3.2745611667633057 -0.2605896294116974
v -1.9993144273757935 2.1397156715393066 -0.2985500395298004
v -2.921992063522339 -0.3011813163757324 -0.31266605854034424
v -0.22303053736686707 -0.30118146538734436 -3.2310025691986084
v -2.921992063522339 -0.3011813163757324 -0.31266605854034424
v 2.841268301010132 3.3549864292144775 -0.17601250112056732
v 1.600895643234253 2.019728660583496 -0.41953277587890625
v 0.02791280299425125 2.076653003692627 -2.383016586303711
v 2.750782012939453 -0.3011817932128906 -0.25647106766700745
v -2.023427963256836 -0.2420758754014969 2.171067237854004
v -1.5145241022109985 1.1621159315109253 2.2953691482543945
v -1.8262566328048706 2.071617603302002 2.1654670238494873
v -2.023427963256836 -0.2420758754014969 2.171067237854004
v -1.9564497470855713 -0.2420758754014969 5.084508895874023
v -1.4894704818725586 1.5805269479751587 3.9520256519317627
v -0.17437341809272766 0.9273651838302612 3.138446092605591
v 0.208790123462677 -0.24207589030265808 3.254901170730591
v 0.5593730211257935 2.572822093963623 3.031376600265503
v -1.9564497470855713 -0.2420758754014969 5.084508895874023
vn 0.29704201221466064 0.6647216081619263 0.6855006814002991
vn -0.00907470565289259 0.9999557733535767 -0.002461415948346257
vn 0.7673819065093994 0.25632768869400024 0.5877254009246826
vn -0.2864891588687897 0.5548918843269348 -0.7810370922088623
vn -0.5627217292785645 0.5991846323013306 -0.5694928169250488
vn -0.9269752502441406 0.22122524678707123 -0.3029460310935974
vn 0.28266334533691406 0.9511293172836304 0.12431604415178299
vn 0.5979019999504089 0.2875879406929016 0.7482020854949951
vn 0.37539491057395935 0.49179062247276306 0.78563392162323
vn 0.9991213083267212 0.014840721152722836 -0.03919634222984314
vn -0.8882107734680176 0.11751685291528702 0.44415250420570374
vn -0.8817400336265564 0.3375813364982605 0.3295046389102936
vn 0.9027521014213562 0.41579750180244446 -0.11023175716400146
vn 0.8682612776756287 0.46755251288414 -0.16588258743286133
vn 0.8682612776756287 0.46755251288414 -0.16588258743286133
vn 0.9027521014213562 0.41579750180244446 -0.11023175716400146
vn 0.6416248083114624 0.09068292379379272 -0.7616391777992249
vn -0.2864891588687897 0.5548918843269348 -0.7810370922088623
vn -0.8817400336265564 0.3375813364982605 0.3295046389102936
vn -0.5627217292785645 0.5991846323013306 -0.5694928169250488
vn -0.8882107734680176 0.11751685291528702 0.44415250420570374
vn 0.8682612776756287 0.46755251288414 -0.16588258743286133
vn -0.22719429433345795 -0.011380285955965519 0.9737829566001892
vn 0.9613355398178101 0.2245442271232605 -0.15941722691059113
vn -0.49071061611175537 0.18684913218021393 -0.8510525822639465
vn -0.11084143072366714 0.5682437419891357 -0.8153607845306396
vn 0.9285795092582703 0.37043505907058716 0.02275756001472473
vn -0.9220764636993408 0.014840724878013134 -0.3867231011390686
vn -0.9267258048057556 0.3702336251735687 -0.06408076733350754
vn -0.9383202791213989 0.3313038945198059 0.09895824640989304
vn 0.9666456580162048 0.08511260151863098 -0.24156172573566437
vn 0.5311210751533508 0.4865207374095917 -0.6936915516853333
vn 0.2974254786968231 0.31449317932128906 -0.901461124420166
vn 0.166505366563797 0.9858608245849609 -0.018826493993401527
vn -0.9999958872795105 -0.001432065269909799 -0.0024729243014007807
vn -0.29459789395332336 0.5679214596748352 0.7685553431510925
vn -0.6357747316360474 0.3486027419567108 0.6886702179908752
vn 0.8633885383605957 0.4144298732280731 0.2877640128135681
vn 0.7633450627326965 0.37582460045814514 0.5254143476486206
vn -0.7658064961433411 0.5058994293212891 -0.3969964385032654
vn -0.7791599631309509 0.2977183759212494 -0.5516098737716675
vn 0.04502297192811966 0.07381332665681839 -0.9962552785873413
vn -0.7658064961433411 0.5058994293212891 -0.3969964385032654
vn -0.7791599631309509 0.2977183759212494 -0.5516098737716675
vn 0.2974254786968231 0.31449317932128906 -0.901461124420166
vn -0.7791599631309509 0.2977183759212494 -0.5516098737716675
vn -0.05447836592793465 -0.12995025515556335 0.9900227189064026
vn 0.8633885383605957 0.4144298732280731 0.2877640128135681
vn 0.5311210751533508 0.4865207374095917 -0.6936915516853333
vn 0.7633450627326965 0.37582460045814514 0.5254143476486206
vn -0.9383202791213989 0.3313038945198059 0.09895824640989304
vn -0.9267258048057556 0.3702336251735687 -0.06408076733350754
vn -0.34852278232574463 0.014400278218090534 0.9371896982192993
vn -0.9383202791213989 0.3313038945198059 0.09895824640989304
vn 0.011850942857563496 0.5437334179878235 0.8391743302345276
vn 0.29704201221466064 0.6647216081619263 0.6855006814002991
vn 0.9285795092582703 0.37043505907058716 0.02275756001472473
vn 0.9613355398178101 0.2245442271232605 -0.15941722691059113
vn 0.20536716282367706 -0.15446239709854126 -0.966418981552124
vn 0.011850942857563496 0.5437334179878235 0.8391743302345276
vt 0.25495484471321106 0.501960813999176
vt 0.4763701856136322 0.9994032382965088
vt 0.004287019371986389 0.9996196031570435
vt 0.007441341876983643 0.011764705181121826
vt 0.25253939628601074 0.501960813999176
vt 0.004287034273147583 0.9996196031570435
vt 0.4739547371864319 0.9994032382965088
vt 0.007441341876983643 0.011764705181121826
vt 0.25253933668136597 0.501960813999176
vt 0.004287034273147583 0.9996196031570435
vt 0.995676577091217 0.011764705181121826
vt 0.6828569769859314 0.5491566061973572
vt 0.6828569769859314 0.5491566061973572
vt 0.995676577091217 0.011764705181121826
vt 0.007441341876983643 0.011764705181121826
vt 0.25253939628601074 0.501960813999176
vt 0.004287034273147583 0.9996196031570435
vt 0.995676577091217 0.011764705181121826
vt 0.25253939628601074 0.501960813999176
vt 0.6828569769859314 0.5491565465927124
vt 0.007441341876983643 0.011764705181121826
vt 0.007441461086273193 0.011764705181121826
vt 0.004287034273147583 0.9996196031570435
vt 0.9980920553207397 0.011764705181121826
vt 0.00985679030418396 0.011764705181121826
vt 0.2549547851085663 0.501960813999176
vt 0.6740773916244507 0.5043762922286987
vt 0.004287019371986389 0.9996196031570435
vt 0.6740773916244507 0.5043762922286987
vt 0.9980920553207397 0.011764705181121826
vt 0.0026324093341827393 0.994571328163147
vt 0.2140248715877533 0.5910670757293701
vt 0.005617648363113403 0.011764705181121826
vt 0.47213104367256165 0.9994032382965088
vt 0.0026324093341827393 0.994571328163147
vt 0.21402481198310852 0.5910670757293701
vt 0.005617648363113403 0.011764705181121826
vt 0.7117705345153809 0.5620332956314087
vt 0.9938528537750244 0.011764705181121826
vt 0.7117705345153809 0.5620332956314087
vt 0.9938528537750244 0.011764705181121826
vt 0.0026324093341827393 0.994571328163147
vt 0.2140248715877533 0.5910670757293701
vt 0.005617648363113403 0.011764705181121826
vt 0.9938528537750244 0.011764705181121826
vt 0.005617767572402954 0.011764705181121826
vt 0.0026324093341827393 0.994571328163147
vt 0.2140248715877533 0.5910670757293701
vt 0.7117705345153809 0.5620332360267639
vt 0.005617648363113403 0.011764705181121826
vt 0.00985679030418396 0.011764705181121826
vt 0.25495484471321106 0.501960813999176
vt 0.004287019371986389 0.9996196031570435
vt 0.00985690951347351 0.011764705181121826
vt 0.9980920553207397 0.011764705181121826
vt 0.6740773916244507 0.504376232624054
vt 0.25495484471321106 0.501960813999176
vt 0.00985679030418396 0.011764705181121826
vt 0.004287019371986389 0.9996196031570435
vt 0.00985679030418396 0.011764705181121826
g Geoset0
s 1
usemtl mat_darkshoretreegray01
f 1/1/1 2/2/2 3/3/3
f 4/4/4 5/5/5 6/6/6
f 5/5/5 7/7/7 6/6/6
f 8/8/8 9/9/9 10/10/10
f 9/9/9 7/7/7 10/10/10
f 11/11/11 9/9/9 12/12/12
f 11/11/11 8/8/8 9/9/9
f 12/12/12 9/9/9 7/7/7
f 9/9/9 13/13/13 7/7/7
f 8/8/8 13/13/13 9/9/9
f 8/8/8 14/14/14 13/13/13
f 15/15/15 16/16/16 17/17/17
f 16/16/16 7/7/7 17/17/17
f 18/18/18 19/19/19 20/20/20
f 18/18/18 21/21/21 19/19/19
f 22/22/22 18/18/18 16/16/16
f 16/16/16 18/18/18 20/20/20
f 16/16/16 20/20/20 7/7/7
f 20/20/20 19/19/19 7/7/7
f 19/19/19 7/7/7 23/23/23
f 21/21/21 19/19/19 23/23/23
f 24/24/24 25/25/25 26/26/26
f 24/24/24 26/26/26 27/27/27
f 25/25/25 26/26/26 28/28/28
f 26/26/26 2/2/2 28/28/28
f 27/27/27 26/26/26 2/2/2
f 26/26/26 29/29/29 2/2/2
f 25/25/25 29/29/29 26/26/26
f 25/25/25 30/30/30 29/29/29
f 31/31/31 32/32/32 33/33/33
f 31/31/31 34/34/34 32/32/32
f 35/35/35 36/36/36 37/37/37
f 35/35/35 34/34/34 36/36/36
f 38/38/38 36/36/36 39/39/39
f 36/36/36 37/37/37 39/39/39
f 34/34/34 36/36/36 38/38/38
f 34/34/34 40/40/40 36/36/36
f 36/36/36 40/40/40 37/37/37
f 40/40/40 41/41/41 37/37/37
f 42/42/42 43/43/43 44/44/44
f 43/43/43 45/45/45 46/46/46
f 47/47/47 34/34/34 48/48/48
f 34/34/34 48/48/48 49/49/49
f 42/42/42 34/34/34 43/43/43
f 34/34/34 49/49/49 43/43/43
f 49/49/49 45/45/45 43/43/43
f 49/49/49 48/48/48 45/45/45
f 48/48/48 50/50/50 45/45/45
f 47/47/47 48/48/48 50/50/50
f 51/51/51 52/52/52 53/53/53
f 54/54/54 55/55/55 52/52/52
f 52/52/52 2/2/2 53/53/53
f 52/52/52 56/56/56 2/2/2
f 52/52/52 55/55/55 56/56/56
f 55/55/55 57/57/57 56/56/56
f 55/55/55 58/58/58 57/57/57
f 58/58/58 57/57/57 59/59/59
f 57/57/57 2/2/2 59/59/59
f 56/56/56 57/57/57 2/2/2
f 60/60/60 1/1/1 3/3/3
