# Exported using wow.export v0.1.64
o darkshorebush03
mtllib darkshorebush03.mtl
v -0.26580774784088135 3.9883813858032227 -2.884798765182495
v 0.01450147945433855 4.012674808502197 0.1821826845407486
v 0.02791280299425125 2.076653003692627 -2.383016586303711
v 0.02339577116072178 4.005609035491943 2.67301869392395
v 0.027912762016057968 2.1397156715393066 1.9269542694091797
v 0.014501537196338177 -0.30118146538734436 3.2224018573760986
v 1.600895643234253 2.019728660583496 -0.41953277587890625
v 2.750782012939453 -0.3011817932128906 -0.25647106766700745
v -1.9993144273757935 2.1397156715393066 -0.2985500395298004
v -2.921992063522339 -0.3011813163757324 -0.31266605854034424
v -3.019869565963745 3.2745611667633057 -0.2605896294116974
v -1.9993144273757935 2.1397156715393066 -0.2985500395298004
v -2.921992063522339 -0.3011813163757324 -0.31266605854034424
v -0.22303053736686707 -0.30118146538734436 -3.2310025691986084
v -2.921992063522339 -0.3011813163757324 -0.31266605854034424
v 0.02791280299425125 2.076653003692627 -2.383016586303711
v 1.600895643234253 2.019728660583496 -0.41953277587890625
v 2.750782012939453 -0.3011817932128906 -0.25647106766700745
v 2.841268301010132 3.3549864292144775 -0.17601250112056732
v -0.22303053736686707 -0.30118146538734436 -3.2310025691986084
vn 0.9666456580162048 0.08511260151863098 -0.24156172573566437
vn 0.166505366563797 0.9858608245849609 -0.018826493993401527
vn 0.5311210751533508 0.4865207374095917 -0.6936915516853333
vn -0.9999958872795105 -0.001432065269909799 -0.0024729243014007807
vn -0.29459789395332336 0.5679214596748352 0.7685553431510925
vn -0.6357747316360474 0.3486027419567108 0.6886702179908752
vn 0.8633885383605957 0.4144298732280731 0.2877640128135681
vn 0.7633450627326965 0.37582460045814514 0.5254143476486206
vn -0.7658064961433411 0.5058994293212891 -0.3969964385032654
vn -0.7791599631309509 0.2977183759212494 -0.5516098737716675
vn 0.04502297192811966 0.07381332665681839 -0.9962552785873413
vn -0.7658064961433411 0.5058994293212891 -0.3969964385032654
vn -0.7791599631309509 0.2977183759212494 -0.5516098737716675
vn 0.2974254786968231 0.31449317932128906 -0.901461124420166
vn -0.7791599631309509 0.2977183759212494 -0.5516098737716675
vn 0.5311210751533508 0.4865207374095917 -0.6936915516853333
vn 0.8633885383605957 0.4144298732280731 0.2877640128135681
vn 0.7633450627326965 0.37582460045814514 0.5254143476486206
vn -0.05447836592793465 -0.12995025515556335 0.9900227189064026
vn 0.2974254786968231 0.31449317932128906 -0.901461124420166
vt 0.0026324093341827393 0.994571328163147
vt 0.47213104367256165 0.9994032382965088
vt 0.2140248715877533 0.5910670757293701
vt 0.0026324093341827393 0.994571328163147
vt 0.21402481198310852 0.5910670757293701
vt 0.005617648363113403 0.011764705181121826
vt 0.7117705345153809 0.5620332956314087
vt 0.9938528537750244 0.011764705181121826
vt 0.7117705345153809 0.5620332956314087
vt 0.9938528537750244 0.011764705181121826
vt 0.0026324093341827393 0.994571328163147
vt 0.2140248715877533 0.5910670757293701
vt 0.005617648363113403 0.011764705181121826
vt 0.9938528537750244 0.011764705181121826
vt 0.005617767572402954 0.011764705181121826
vt 0.7117705345153809 0.5620332360267639
vt 0.2140248715877533 0.5910670757293701
vt 0.005617648363113403 0.011764705181121826
vt 0.0026324093341827393 0.994571328163147
vt 0.005617648363113403 0.011764705181121826
g Geoset0
s 1
usemtl mat_darkshoretreegray01
f 1/1/1 2/2/2 3/3/3
f 4/4/4 5/5/5 6/6/6
f 4/4/4 2/2/2 5/5/5
f 7/7/7 5/5/5 8/8/8
f 5/5/5 6/6/6 8/8/8
f 2/2/2 5/5/5 7/7/7
f 2/2/2 9/9/9 5/5/5
f 5/5/5 9/9/9 6/6/6
f 9/9/9 10/10/10 6/6/6
f 11/11/11 12/12/12 13/13/13
f 12/12/12 14/14/14 15/15/15
f 11/11/11 2/2/2 12/12/12
f 2/2/2 16/16/16 12/12/12
f 16/16/16 14/14/14 12/12/12
f 16/16/16 17/17/17 14/14/14
f 17/17/17 18/18/18 14/14/14
f 19/19/19 17/17/17 18/18/18
f 19/19/19 2/2/2 17/17/17
f 2/2/2 17/17/17 16/16/16
f 1/1/1 3/3/3 20/20/20
