# Exported using wow.export v0.1.64
o taurenbowl05
mtllib taurenbowl05.mtl
v -0.21210864186286926 0.3534102439880371 0.20506121218204498
v -0.007222573738545179 0.3534102439880371 0.28992781043052673
v -0.007222562097012997 0.18560299277305603 0.48365652561187744
v -0.007222650106996298 0.3534102439880371 -0.28957757353782654
v 0.19766345620155334 0.3534102439880371 -0.20471101999282837
v 0.3516148626804352 0.2778532803058624 -0.3586623966693878
v -0.007222688756883144 0.2778532803058624 -0.5072977542877197
v -0.21210868656635284 0.3534102439880371 -0.2047109156847
v -0.36606016755104065 0.2778532803058624 -0.35866233706474304
v -0.2969752848148346 0.3534102439880371 0.0001751138042891398
v -0.514695405960083 0.2778532803058624 0.00017512851627543569
v -0.21210864186286926 0.3534102439880371 0.20506121218204498
v -0.3660600483417511 0.2778532803058624 0.3590126037597656
v -0.007222573738545179 0.3534102439880371 0.28992781043052673
v -0.007222555577754974 0.2778532803058624 0.5076479315757751
v 0.2825300693511963 0.3534102439880371 0.00017506313452031463
v 0.19766351580619812 0.3534102439880371 0.2050611674785614
v 0.3516148626804352 0.2778532803058624 0.35901251435279846
v 0.5002501606941223 0.2778532803058624 0.00017503979324828833
v -0.007222591899335384 -0.03098965622484684 0.00017510520410723984
v -0.3026437759399414 0.026382001116871834 -0.2952459752559662
v -0.007222665939480066 0.026382001116871834 -0.4176134765148163
v 0.2881985008716583 0.026382001116871834 -0.29524606466293335
v 0.4105660021305084 0.026382001116871834 0.00017504871357232332
v 0.5406493544578552 0.15038974583148956 0.0001750334195094183
v 0.38018137216567993 0.15038973093032837 0.3875789940357208
v -0.007222547195851803 0.15038971602916718 0.5480470061302185
v -0.39462652802467346 0.15038974583148956 0.3875791132450104
v 0.2881985604763031 0.026382001116871834 0.2955962121486664
v -0.007222555577754974 0.026382001116871834 0.4179636538028717
v -0.30264371633529663 0.026382001116871834 0.29559627175331116
v -0.42501115798950195 0.026382001116871834 0.00017512176418676972
v -0.5550945401191711 0.15038973093032837 0.00017512922931928188
v -0.394626647233963 0.15038974583148956 -0.387228786945343
v -0.007222691550850868 0.15038971602916718 -0.5476968288421631
v 0.3801812529563904 0.15038973093032837 -0.38722890615463257
v 0.3346503973007202 0.18560291826725006 0.3420480191707611
v 0.4762587547302246 0.18560299277305603 0.00017503640265204012
v -0.0072226012125611305 -0.0040057748556137085 0.00017510839097667485
v -0.34909549355506897 0.18560299277305603 0.3420480787754059
v -0.2969752848148346 0.3534102439880371 0.0001751138042891398
v -0.4907039701938629 0.18560291826725006 0.0001751209347276017
v -0.21210868656635284 0.3534102439880371 -0.2047109156847
v -0.34909555315971375 0.18560299277305603 -0.34169772267341614
v -0.007222650106996298 0.3534102439880371 -0.28957757353782654
v -0.007222689688205719 0.18560299277305603 -0.48330625891685486
v 0.33465030789375305 0.18560291826725006 -0.34169790148735046
v 0.19766345620155334 0.3534102439880371 -0.20471101999282837
v 0.2825300693511963 0.3534102439880371 0.00017506313452031463
v 0.19766351580619812 0.3534102439880371 0.2050611674785614
vn 0.14168664813041687 0.4561418294906616 -0.8785553574562073
vn -0.5210452079772949 0.4561418890953064 -0.7214197516441345
vn 0.09238633513450623 0.015185958705842495 -0.9956074357032776
vn 0.5210450887680054 0.45614179968833923 0.7214198708534241
vn -0.14168651401996613 0.4561418294906616 0.878555417060852
vn 0.5747451186180115 0.30621621012687683 -0.7588805556297302
vn -0.13020342588424683 0.30621621012687683 -0.9430157542228699
vn 0.8785553574562073 0.4561418890953064 0.14168646931648254
vn -0.758880615234375 0.3062162697315216 -0.5747449994087219
vn 0.7214201092720032 0.45614197850227356 -0.5210446119308472
vn -0.9430157542228699 0.3062162697315216 0.13020336627960205
vn 0.14168664813041687 0.4561418294906616 -0.8785553574562073
vn -0.5747451782226562 0.30621618032455444 0.7588804960250854
vn -0.5210452079772949 0.4561418890953064 -0.7214197516441345
vn 0.1302034705877304 0.30621621012687683 0.9430157542228699
vn -0.7214198112487793 0.4561419188976288 0.5210450887680054
vn -0.8785553574562073 0.4561418890953064 -0.14168652892112732
vn 0.7588804960250854 0.3062162697315216 0.5747451782226562
vn 0.9430157542228699 0.3062162399291992 -0.13020344078540802
vn -7.722846362412383e-9 -1 3.861424513473821e-9
vn -0.5486067533493042 -0.4722852110862732 -0.6899110674858093
vn 0.09991716593503952 -0.4722852408885956 -0.8757643699645996
vn 0.6899110674858093 -0.4722852110862732 -0.548606812953949
vn 0.8757643103599548 -0.47228530049324036 0.09991727769374847
vn 0.9964416027069092 -0.0840282291173935 0.006589607801288366
vn 0.6999310255050659 -0.08402828127145767 0.7092502117156982
vn -0.006589602679014206 -0.08402829617261887 0.9964416027069092
vn -0.7092501521110535 -0.08402824401855469 0.6999310851097107
vn 0.5486066937446594 -0.4722852408885956 0.6899111270904541
vn -0.0999172255396843 -0.4722852408885956 0.8757643699645996
vn -0.6899110674858093 -0.47228527069091797 0.5486067533493042
vn -0.8757643103599548 -0.47228533029556274 -0.09991727769374847
vn -0.9964416027069092 -0.08402827382087708 -0.0065895915031433105
vn -0.6999310255050659 -0.08402834087610245 -0.7092502117156982
vn 0.00658957427367568 -0.08402830362319946 -0.9964416027069092
vn 0.7092501521110535 -0.08402826637029648 -0.6999310851097107
vn -0.6386739015579224 0.015185968019068241 -0.7693276405334473
vn -0.9956074357032776 0.01518598385155201 -0.09238623827695847
vn 1.5505857220432517e-7 1 6.299254096120421e-8
vn 0.7693278193473816 0.015185966156423092 -0.638673722743988
vn 0.7214201092720032 0.45614197850227356 -0.5210446119308472
vn 0.9956074357032776 0.015185964293777943 0.09238623827695847
vn 0.8785553574562073 0.4561418890953064 0.14168646931648254
vn 0.6386738419532776 0.015185956843197346 0.769327700138092
vn 0.5210450887680054 0.45614179968833923 0.7214198708534241
vn -0.09238605201244354 0.015185950323939323 0.9956074357032776
vn -0.7693276405334473 0.015185968950390816 0.6386739015579224
vn -0.14168651401996613 0.4561418294906616 0.878555417060852
vn -0.7214198112487793 0.4561419188976288 0.5210450887680054
vn -0.8785553574562073 0.4561418890953064 -0.14168652892112732
vt 0.24488909542560577 0.4868066906929016
vt 0.005644659511744976 0.4868066906929016
vt 0.005644659511744976 0.30989527702331543
vt 0.09745677560567856 0.994053065776825
vt 0.2449018806219101 0.994053065776825
vt 0.24488909542560577 0.8685031533241272
vt 0.005644659511744976 0.8685031533241272
vt 0.2449018806219101 0.994053065776825
vt 0.24488909542560577 0.8685031533241272
vt 0.392408549785614 0.994053065776825
vt 0.48440325260162354 0.8685031533241272
vt 0.2449018806219101 0.994053065776825
vt 0.24488909542560577 0.8685031533241272
vt 0.09745677560567856 0.994053065776825
vt 0.005644659511744976 0.8685031533241272
vt 0.392408549785614 0.994053065776825
vt 0.2449018806219101 0.994053065776825
vt 0.24488909542560577 0.8685031533241272
vt 0.48440325260162354 0.8685031533241272
vt 0.24424539506435394 0.40280765295028687
vt 0.24489805102348328 0.5961422920227051
vt 0.06995054334402084 0.5961422920227051
vt 0.24489805102348328 0.5961422920227051
vt 0.41991859674453735 0.5961422920227051
vt 0.48423343896865845 0.7341242432594299
vt 0.24488909542560577 0.7341242432594299
vt 0.005644659511744976 0.7341242432594299
vt 0.24488909542560577 0.7341242432594299
vt 0.24489805102348328 0.5961422920227051
vt 0.06995054334402084 0.5961422920227051
vt 0.24489805102348328 0.5961422920227051
vt 0.41991859674453735 0.5961422920227051
vt 0.48423343896865845 0.7341242432594299
vt 0.24488909542560577 0.7341242432594299
vt 0.005644659511744976 0.7341242432594299
vt 0.24488909542560577 0.7341242432594299
vt 0.24488909542560577 0.30989521741867065
vt 0.48423343896865845 0.30989527702331543
vt 0.24424539506435394 0.4892265200614929
vt 0.24488909542560577 0.30989521741867065
vt 0.48423343896865845 0.4868066906929016
vt 0.48423343896865845 0.30989527702331543
vt 0.24488909542560577 0.4868066906929016
vt 0.24488909542560577 0.30989521741867065
vt 0.005644659511744976 0.4868066906929016
vt 0.005644659511744976 0.30989527702331543
vt 0.24488909542560577 0.30989521741867065
vt 0.24488909542560577 0.4868066906929016
vt 0.48423343896865845 0.4868066906929016
vt 0.24488909542560577 0.4868066906929016
g Geoset0
s 1
usemtl mat_taurenbowls01
f 1/1/1 2/2/2 3/3/3
f 4/4/4 5/5/5 6/6/6
f 6/6/6 7/7/7 4/4/4
f 8/8/8 4/4/4 7/7/7
f 7/7/7 9/9/9 8/8/8
f 10/10/10 8/8/8 9/9/9
f 9/9/9 11/11/11 10/10/10
f 12/12/12 10/10/10 11/11/11
f 11/11/11 13/13/13 12/12/12
f 14/14/14 12/12/12 13/13/13
f 13/13/13 15/15/15 14/14/14
f 16/16/16 17/17/17 18/18/18
f 18/18/18 19/19/19 16/16/16
f 5/5/5 16/16/16 19/19/19
f 19/19/19 6/6/6 5/5/5
f 20/20/20 21/21/21 22/22/22
f 20/20/20 22/22/22 23/23/23
f 20/20/20 23/23/23 24/24/24
f 25/25/25 24/24/24 23/23/23
f 26/26/26 24/24/24 25/25/25
f 18/18/18 26/26/26 25/25/25
f 15/15/15 26/26/26 18/18/18
f 15/15/15 18/18/18 17/17/17
f 17/17/17 14/14/14 15/15/15
f 15/15/15 27/27/27 26/26/26
f 13/13/13 27/27/27 15/15/15
f 13/13/13 28/28/28 27/27/27
f 11/11/11 28/28/28 13/13/13
f 26/26/26 29/29/29 24/24/24
f 27/27/27 29/29/29 26/26/26
f 27/27/27 30/30/30 29/29/29
f 28/28/28 30/30/30 27/27/27
f 20/20/20 24/24/24 29/29/29
f 20/20/20 29/29/29 30/30/30
f 20/20/20 30/30/30 31/31/31
f 20/20/20 32/32/32 21/21/21
f 20/20/20 31/31/31 32/32/32
f 28/28/28 31/31/31 30/30/30
f 33/33/33 31/31/31 28/28/28
f 33/33/33 32/32/32 31/31/31
f 34/34/34 32/32/32 33/33/33
f 34/34/34 21/21/21 32/32/32
f 35/35/35 21/21/21 34/34/34
f 35/35/35 22/22/22 21/21/21
f 36/36/36 22/22/22 35/35/35
f 36/36/36 23/23/23 22/22/22
f 25/25/25 23/23/23 36/36/36
f 11/11/11 33/33/33 28/28/28
f 9/9/9 33/33/33 11/11/11
f 9/9/9 34/34/34 33/33/33
f 7/7/7 34/34/34 9/9/9
f 7/7/7 35/35/35 34/34/34
f 6/6/6 35/35/35 7/7/7
f 6/6/6 36/36/36 35/35/35
f 19/19/19 36/36/36 6/6/6
f 19/19/19 25/25/25 36/36/36
f 18/18/18 25/25/25 19/19/19
f 37/37/37 38/38/38 39/39/39
f 3/3/3 37/37/37 39/39/39
f 40/40/40 3/3/3 39/39/39
f 3/3/3 40/40/40 1/1/1
f 41/41/41 1/1/1 40/40/40
f 40/40/40 42/42/42 41/41/41
f 43/43/43 41/41/41 42/42/42
f 42/42/42 44/44/44 43/43/43
f 45/45/45 43/43/43 44/44/44
f 42/42/42 40/40/40 39/39/39
f 44/44/44 42/42/42 39/39/39
f 46/46/46 44/44/44 39/39/39
f 47/47/47 46/46/46 39/39/39
f 38/38/38 47/47/47 39/39/39
f 44/44/44 46/46/46 45/45/45
f 48/48/48 45/45/45 46/46/46
f 46/46/46 47/47/47 48/48/48
f 49/49/49 48/48/48 47/47/47
f 47/47/47 38/38/38 49/49/49
f 50/50/50 49/49/49 38/38/38
f 38/38/38 37/37/37 50/50/50
f 2/2/2 50/50/50 37/37/37
f 37/37/37 3/3/3 2/2/2
