# Exported using wow.export v0.1.64
o taurenbowl03
mtllib taurenbowl03.mtl
v 2.28794974077573e-8 -0.048528749495744705 -8.900697401337254e-10
v 0.2278747260570526 -0.04858650267124176 0
v 0.16113173961639404 -0.04858650267124176 0.16113176941871643
v 0.3048582971096039 0.7627980709075928 -0.3048582971096039
v 0.26047420501708984 0.2569304406642914 -0.26047417521476746
v 0.4311347007751465 0.7627980709075928 0
v -3.2042645869978514e-8 0.2569305896759033 -0.3683660626411438
v -4.7452015650151225e-8 0.7627981901168823 -0.4311346709728241
v -0.4311346411705017 0.762798011302948 0
v -0.36836597323417664 0.256930410861969 -1.3440054624780373e-9
v -0.3048582971096039 0.7627980709075928 -0.30485817790031433
v -0.3048582971096039 0.7627980709075928 0.30485817790031433
v -0.26047414541244507 0.2569304406642914 0.2604740858078003
v -4.7452015650151225e-8 0.7627981901168823 0.4311346709728241
v 1.4397540049060353e-8 0.10579495877027512 0
v -1.9764144099099212e-8 0.2569305896759033 0.3683660626411438
v -0.26047414541244507 0.2569304406642914 -0.2604740858078003
v 0.26047420501708984 0.2569304406642914 0.26047417521476746
v 0.3683661222457886 0.25693050026893616 4.354623772684363e-9
v 0.3048582971096039 0.7627980709075928 0.3048582971096039
v -3.462193376435607e-8 -0.04858647659420967 0.22787471115589142
v -2.8964645792939336e-8 0.08083733171224594 0.22787471115589142
v -0.16113178431987762 0.08083731681108475 0.16113172471523285
v -0.2867926061153412 0.17007359862327576 0.28679248690605164
v -4.3767379054315825e-8 0.17007358372211456 0.405585914850235
v -6.219025294740277e-8 0.4923621416091919 0.5103552937507629
v 0.3608756363391876 0.4923621416091919 0.3608757555484772
v 0.3048582971096039 0.7627980709075928 0.3048582971096039
v 0.4311347007751465 0.7627980709075928 0
v -4.7452015650151225e-8 0.7627981901168823 0.4311346709728241
v -0.3608757555484772 0.4923621416091919 0.36087557673454285
v -0.4055858850479126 0.17007358372211456 0
v -0.3048582971096039 0.7627980709075928 0.30485817790031433
v -0.5103552937507629 0.4923621416091919 0
v -0.3608757555484772 0.4923621416091919 -0.36087557673454285
v -0.2867926061153412 0.17007359862327576 -0.28679248690605164
v -6.219025294740277e-8 0.4923621416091919 -0.5103552937507629
v -0.4311346411705017 0.762798011302948 0
v -0.3048582971096039 0.7627980709075928 -0.30485817790031433
v -4.7452015650151225e-8 0.7627981901168823 -0.4311346709728241
v 0.3048582971096039 0.7627980709075928 -0.3048582971096039
v -0.22787471115589142 0.08083732426166534 0
v -0.22787471115589142 -0.04858650267124176 0
v -0.16113175451755524 -0.04858650267124176 0.16113172471523285
v -0.16113175451755524 -0.04858650267124176 -0.16113172471523285
v -0.16113178431987762 0.08083731681108475 -0.16113172471523285
v -3.462193376435607e-8 -0.04858647659420967 -0.22787471115589142
v -2.8964645792939336e-8 0.08083733171224594 -0.22787471115589142
v 0.16113173961639404 -0.04858650267124176 -0.16113176941871643
v 0.16113172471523285 0.08083732426166534 -0.16113176941871643
v 0.2278747260570526 -0.04858650267124176 0
v 0.2278747260570526 0.08083733171224594 0
v 0.286792516708374 0.17007358372211456 -0.2867926061153412
v -4.3767379054315825e-8 0.17007358372211456 -0.405585914850235
v 0.4055859446525574 0.17007356882095337 0
v 0.3608756363391876 0.4923621416091919 -0.3608757555484772
v 0.5103553533554077 0.49236223101615906 0
v 0.286792516708374 0.17007358372211456 0.2867926061153412
v 0.16113172471523285 0.08083732426166534 0.16113176941871643
v 0.16113173961639404 -0.04858650267124176 0.16113176941871643
v -0.16113175451755524 -0.04858650267124176 0.16113172471523285
v -0.22787471115589142 -0.04858650267124176 0
v -0.16113175451755524 -0.04858650267124176 -0.16113172471523285
v -3.462193376435607e-8 -0.04858647659420967 -0.22787471115589142
v 0.16113173961639404 -0.04858650267124176 -0.16113176941871643
v -3.462193376435607e-8 -0.04858647659420967 0.22787471115589142
vn 2.1827874577273754e-11 -1 -3.637979240772582e-12
vn 0.8794379234313965 -0.4760136306285858 2.4936879228221187e-9
vn 0.4911213219165802 -0.5815914869308472 0.6484991908073425
vn -0.04225415736436844 0.9975479245185852 0.055791888386011124
vn -0.6635962128639221 0.5242454409599304 0.5336729288101196
vn -0.06933257728815079 0.9975935816764832 -1.9813532148305057e-8
vn -0.09186959266662598 0.5242453217506409 0.8465971946716309
vn 0.009572349488735199 0.9975479245185852 0.06932927668094635
vn 0.06933227181434631 0.9975936412811279 0
vn 0.8885058760643005 0.458865225315094 0
vn 0.05579153448343277 0.9975479245185852 0.042254552245140076
vn 0.05579153448343277 0.9975479245185852 -0.042254552245140076
vn 0.5336727499961853 0.5242454409599304 -0.6635963320732117
vn 0.009572325274348259 0.9975479245185852 -0.06932928413152695
vn 3.668504078291335e-8 1 2.0380577225864727e-9
vn -0.09186961501836777 0.5242453217506409 -0.8465971946716309
vn 0.5336727499961853 0.5242454409599304 0.6635963320732117
vn -0.6635962128639221 0.5242454409599304 -0.5336729288101196
vn -0.7827706933021545 0.622310221195221 0
vn -0.04225415736436844 0.9975479245185852 -0.055791888386011124
vn -0.1112828329205513 -0.5815914869308472 0.8058333992958069
vn 0.04101905971765518 -0.5407674908638 0.8401713967323303
vn -0.5650860071182251 -0.5407674908638 0.6230957508087158
vn -0.45521247386932373 -0.6569003462791443 0.6010520458221436
vn 0.10312405973672867 -0.6569003462791443 0.7468917965888977
vn 0.0005408378783613443 -0.014858816750347614 0.9998894333839417
vn 0.7074110507965088 -0.014858760870993137 0.706646203994751
vn -0.04225415736436844 0.9975479245185852 -0.055791888386011124
vn -0.06933257728815079 0.9975935816764832 -1.9813532148305057e-8
vn 0.009572325274348259 0.9975479245185852 -0.06932928413152695
vn -0.7066461443901062 -0.01485880371183157 0.7074110507965088
vn -0.7508952021598816 -0.6604213714599609 -4.219088189927334e-9
vn 0.05579153448343277 0.9975479245185852 -0.042254552245140076
vn -0.9961497783660889 0.08766751736402512 2.2250983278127023e-8
vn -0.7066461443901062 -0.01485880371183157 -0.7074110507965088
vn -0.45521247386932373 -0.6569003462791443 -0.6010520458221436
vn 0.0005408378783613443 -0.014858816750347614 -0.9998894333839417
vn 0.06933227181434631 0.9975936412811279 0
vn 0.05579153448343277 0.9975479245185852 0.042254552245140076
vn 0.009572349488735199 0.9975479245185852 0.06932927668094635
vn -0.04225415736436844 0.9975479245185852 0.055791888386011124
vn -0.9335849285125732 -0.358356237411499 0
vn -0.6784979104995728 -0.7346023321151733 3.826973848930493e-9
vn -0.6484990119934082 -0.5815916061401367 0.491121381521225
vn -0.6484990119934082 -0.5815916061401367 -0.491121381521225
vn -0.5650860071182251 -0.5407674908638 -0.6230957508087158
vn -0.1112828329205513 -0.5815914869308472 -0.8058333992958069
vn 0.04101905971765518 -0.5407674908638 -0.8401713967323303
vn 0.4911213219165802 -0.5815914869308472 -0.6484991908073425
vn 0.623095691204071 -0.5407675504684448 -0.5650860071182251
vn 0.8794379234313965 -0.4760136306285858 2.4936879228221187e-9
vn 0.7167684435844421 -0.697311282157898 0
vn 0.601051926612854 -0.6569004058837891 -0.4552125036716461
vn 0.10312405973672867 -0.6569003462791443 -0.7468917965888977
vn 0.750895082950592 -0.6604215502738953 4.2190886340165434e-9
vn 0.7074110507965088 -0.014858760870993137 -0.706646203994751
vn 0.9931102991104126 -0.11718324571847916 5.560281124417088e-9
vn 0.601051926612854 -0.6569004058837891 0.4552125036716461
vn 0.623095691204071 -0.5407675504684448 0.5650860071182251
vn 0.4911213219165802 -0.5815914869308472 0.6484991908073425
vn -0.6484990119934082 -0.5815916061401367 0.491121381521225
vn -0.6784979104995728 -0.7346023321151733 3.826973848930493e-9
vn -0.6484990119934082 -0.5815916061401367 -0.491121381521225
vn -0.1112828329205513 -0.5815914869308472 -0.8058333992958069
vn 0.4911213219165802 -0.5815914869308472 -0.6484991908073425
vn -0.1112828329205513 -0.5815914869308472 0.8058333992958069
vt 0.42960187792778015 0.4468073844909668
vt 0.42960184812545776 0.6102460622787476
vt 0.1878044456243515 0.5621614456176758
vt 0.015948887914419174 0.6748557686805725
vt 0.0499008409678936 0.27675145864486694
vt 0.4808717370033264 0.6753689646720886
vt 0.447922945022583 0.2757565379142761
vt 0.4808717370033264 0.6753689646720886
vt 0.4808717370033264 0.6753689646720886
vt 0.447922945022583 0.2757565379142761
vt 0.015948887914419174 0.6748557686805725
vt 0.015948887914419174 0.6748557686805725
vt 0.0499008409678936 0.27675145864486694
vt 0.4808717370033264 0.6753689646720886
vt 0.24810980260372162 0.652822732925415
vt 0.447922945022583 0.2757565379142761
vt 0.0499008409678936 0.27675145864486694
vt 0.0499008409678936 0.27675145864486694
vt 0.447922945022583 0.2757565379142761
vt 0.015948887914419174 0.6748557686805725
vt 0.05214393511414528 0.4530225992202759
vt 0.05214393511414528 0.5368939638137817
vt 0.25448325276374817 0.5368939638137817
vt 0.25448325276374817 0.6366617679595947
vt 0.010093936696648598 0.6366616487503052
vt 0.003131152829155326 0.7998982071876526
vt 0.25443097949028015 0.7998982071876526
vt 0.25443097949028015 0.9318833947181702
vt 0.491740345954895 0.9318833947181702
vt 0.003131152829155326 0.9318833947181702
vt 0.2544310688972473 0.7998982071876526
vt 0.48384979367256165 0.6366616487503052
vt 0.2544310688972473 0.9318833947181702
vt 0.4918355941772461 0.7998982071876526
vt 0.2544310688972473 0.7998982071876526
vt 0.25448325276374817 0.6366617679595947
vt 0.003131152829155326 0.7998982071876526
vt 0.4918355941772461 0.9318833947181702
vt 0.2544310688972473 0.9318833947181702
vt 0.003131152829155326 0.9318833947181702
vt 0.25443097949028015 0.9318833947181702
vt 0.4628199636936188 0.5368939638137817
vt 0.4628199636936188 0.4530225992202759
vt 0.25448325276374817 0.4530225992202759
vt 0.25448325276374817 0.4530225992202759
vt 0.25448325276374817 0.5368939638137817
vt 0.05214393511414528 0.4530225992202759
vt 0.05214393511414528 0.5368939638137817
vt 0.25448325276374817 0.4530225992202759
vt 0.25448325276374817 0.5368939638137817
vt 0.46273982524871826 0.4530225992202759
vt 0.46273982524871826 0.5368939638137817
vt 0.25448325276374817 0.6366616487503052
vt 0.010093936696648598 0.6366616487503052
vt 0.483757346868515 0.6366616487503052
vt 0.25443097949028015 0.7998982071876526
vt 0.491740345954895 0.7998982071876526
vt 0.25448325276374817 0.6366616487503052
vt 0.25448325276374817 0.5368939638137817
vt 0.25448325276374817 0.4530225992202759
vt 0.18780440092086792 0.5628939867019653
vt 0.4296019375324249 0.6109787225723267
vt 0.18780440092086792 0.5628939867019653
vt 0.08774983137845993 0.4468073844909668
vt 0.1878044456243515 0.5621614456176758
vt 0.08774983137845993 0.4468073844909668
g Geoset0
s 1
usemtl mat_taurenbowls01
f 1/1/1 2/2/2 3/3/3
f 4/4/4 5/5/5 6/6/6
f 5/5/5 4/4/4 7/7/7
f 8/8/8 7/7/7 4/4/4
f 9/9/9 10/10/10 11/11/11
f 10/10/10 9/9/9 12/12/12
f 12/12/12 13/13/13 10/10/10
f 13/13/13 12/12/12 14/14/14
f 15/15/15 13/13/13 16/16/16
f 15/15/15 10/10/10 13/13/13
f 15/15/15 17/17/17 10/10/10
f 17/17/17 11/11/11 10/10/10
f 11/11/11 17/17/17 8/8/8
f 15/15/15 18/18/18 19/19/19
f 15/15/15 16/16/16 18/18/18
f 14/14/14 16/16/16 13/13/13
f 16/16/16 14/14/14 20/20/20
f 20/20/20 18/18/18 16/16/16
f 18/18/18 20/20/20 6/6/6
f 6/6/6 19/19/19 18/18/18
f 19/19/19 6/6/6 5/5/5
f 15/15/15 19/19/19 5/5/5
f 15/15/15 5/5/5 7/7/7
f 15/15/15 7/7/7 17/17/17
f 7/7/7 8/8/8 17/17/17
f 21/21/21 22/22/22 23/23/23
f 24/24/24 23/23/23 22/22/22
f 22/22/22 25/25/25 24/24/24
f 24/24/24 25/25/25 26/26/26
f 26/26/26 25/25/25 27/27/27
f 26/26/26 27/27/27 28/28/28
f 28/28/28 27/27/27 29/29/29
f 30/30/30 26/26/26 28/28/28
f 31/31/31 26/26/26 30/30/30
f 31/31/31 24/24/24 26/26/26
f 32/32/32 24/24/24 31/31/31
f 23/23/23 24/24/24 32/32/32
f 33/33/33 31/31/31 30/30/30
f 34/34/34 31/31/31 33/33/33
f 34/34/34 32/32/32 31/31/31
f 32/32/32 34/34/34 35/35/35
f 36/36/36 32/32/32 35/35/35
f 36/36/36 35/35/35 37/37/37
f 38/38/38 34/34/34 33/33/33
f 34/34/34 38/38/38 39/39/39
f 35/35/35 34/34/34 39/39/39
f 35/35/35 39/39/39 40/40/40
f 37/37/37 35/35/35 40/40/40
f 37/37/37 40/40/40 41/41/41
f 42/42/42 43/43/43 44/44/44
f 43/43/43 42/42/42 45/45/45
f 46/46/46 45/45/45 42/42/42
f 45/45/45 46/46/46 47/47/47
f 48/48/48 47/47/47 46/46/46
f 47/47/47 48/48/48 49/49/49
f 50/50/50 49/49/49 48/48/48
f 49/49/49 50/50/50 51/51/51
f 52/52/52 51/51/51 50/50/50
f 50/50/50 53/53/53 52/52/52
f 53/53/53 50/50/50 54/54/54
f 48/48/48 54/54/54 50/50/50
f 54/54/54 48/48/48 36/36/36
f 46/46/46 36/36/36 48/48/48
f 36/36/36 46/46/46 32/32/32
f 42/42/42 32/32/32 46/46/46
f 32/32/32 42/42/42 23/23/23
f 44/44/44 23/23/23 42/42/42
f 23/23/23 44/44/44 21/21/21
f 55/55/55 52/52/52 53/53/53
f 54/54/54 36/36/36 37/37/37
f 54/54/54 37/37/37 56/56/56
f 53/53/53 54/54/54 56/56/56
f 53/53/53 56/56/56 57/57/57
f 55/55/55 53/53/53 57/57/57
f 58/58/58 55/55/55 57/57/57
f 52/52/52 55/55/55 58/58/58
f 58/58/58 59/59/59 52/52/52
f 51/51/51 52/52/52 59/59/59
f 59/59/59 60/60/60 51/51/51
f 56/56/56 37/37/37 41/41/41
f 56/56/56 41/41/41 29/29/29
f 57/57/57 56/56/56 29/29/29
f 27/27/27 57/57/57 29/29/29
f 27/27/27 58/58/58 57/57/57
f 25/25/25 58/58/58 27/27/27
f 59/59/59 58/58/58 25/25/25
f 25/25/25 22/22/22 59/59/59
f 60/60/60 59/59/59 22/22/22
f 22/22/22 21/21/21 60/60/60
f 1/1/1 61/61/61 62/62/62
f 63/63/63 1/1/1 62/62/62
f 64/64/64 1/1/1 63/63/63
f 65/65/65 1/1/1 64/64/64
f 2/2/2 1/1/1 65/65/65
f 1/1/1 66/66/66 61/61/61
f 1/1/1 3/3/3 66/66/66
