# Exported using wow.export v0.1.64
o orcbarrel03
mtllib orcbarrel03.mtl
v 0.006267129443585873 -0.0076094865798950195 0.010358916595578194
v 0.49201181530952454 -0.007609502412378788 0.4961034953594208
v 0.006267189979553223 -0.0076094865798950195 0.6973055601119995
v 0.00626711780205369 1.9519187211990356 0.010358916595578194
v 0.00626711780205369 1.9519187211990356 -0.6765877604484558
v -0.47947752475738525 1.9519187211990356 -0.47538572549819946
v 0.492011696100235 1.9519187211990356 -0.4753858149051666
v 0.6932137608528137 1.9519187211990356 0.010358826257288456
v -0.6806796193122864 1.9519187211990356 0.010358946397900581
v 0.49201181530952454 1.9519187211990356 0.4961034953594208
v 0.006267177872359753 1.9519187211990356 0.6973055601119995
v -0.47947752475738525 1.9519187211990356 0.49610355496406555
v 0.006267196033149958 1.38038969039917 0.8690422177314758
v 0.49201181530952454 1.9519187211990356 0.4961034953594208
v 0.006267177872359753 1.9519187211990356 0.6973055601119995
v 0.6134479641914368 1.38038969039917 0.6175397038459778
v 0.6932137608528137 1.9519187211990356 0.010358826257288456
v 0.8649504780769348 1.38038969039917 0.010358809493482113
v 0.492011696100235 1.9519187211990356 -0.4753858149051666
v 0.6134477853775024 1.38038969039917 -0.5968219637870789
v 0.00626711780205369 1.9519187211990356 -0.6765877604484558
v 0.006267121527343988 1.38038969039917 -0.8483243584632874
v 0.492011696100235 -0.007609502412378788 -0.4753858149051666
v 0.006267129443585873 -0.0076094865798950195 -0.6765877604484558
v 0.0062671261839568615 0.5639196038246155 -0.8483243584632874
v 0.6134477853775024 0.5639196038246155 -0.5968219637870789
v 0.6932137608528137 -0.007609518710523844 0.010358826257288456
v 0.8649504780769348 0.5639196038246155 0.010358809493482113
v 0.49201181530952454 -0.007609502412378788 0.4961034953594208
v 0.6134479641914368 0.5639196038246155 0.6175397038459778
v 0.006267189979553223 -0.0076094865798950195 0.6973055601119995
v 0.006267201155424118 0.5639196038246155 0.8690422177314758
v -0.47947752475738525 -0.007609470281749964 0.49610355496406555
v 0.006267189979553223 -0.0076094865798950195 0.6973055601119995
v 0.006267201155424118 0.5639196038246155 0.8690422177314758
v -0.6009137034416199 0.5639196038246155 0.6175397634506226
v -0.6806795597076416 -0.007609454449266195 0.010358946397900581
v -0.8524162173271179 0.5639196038246155 0.010358959436416626
v -0.47947752475738525 -0.007609470281749964 -0.47538572549819946
v -0.6009137034416199 0.5639196038246155 -0.5968218445777893
v 0.006267129443585873 -0.0076094865798950195 -0.6765877604484558
v 0.0062671261839568615 0.5639196038246155 -0.8483243584632874
v 0.006267196033149958 1.38038969039917 0.8690422177314758
v -0.6009137034416199 1.38038969039917 0.6175397634506226
v -0.8524162173271179 1.38038969039917 0.010358959436416626
v -0.6009137034416199 1.38038969039917 -0.5968218445777893
v 0.006267121527343988 1.38038969039917 -0.8483243584632874
v -0.47947752475738525 1.9519187211990356 -0.47538572549819946
v 0.00626711780205369 1.9519187211990356 -0.6765877604484558
v -0.6806796193122864 1.9519187211990356 0.010358946397900581
v -0.47947752475738525 1.9519187211990356 0.49610355496406555
v 0.006267177872359753 1.9519187211990356 0.6973055601119995
v -0.47947752475738525 -0.007609470281749964 -0.47538572549819946
v 0.006267129443585873 -0.0076094865798950195 -0.6765877604484558
v 0.492011696100235 -0.007609502412378788 -0.4753858149051666
v 0.6932137608528137 -0.007609518710523844 0.010358826257288456
v -0.6806795597076416 -0.007609454449266195 0.010358946397900581
v -0.47947752475738525 -0.007609470281749964 0.49610355496406555
vn -3.9766185011558264e-8 -1 2.55351295663786e-15
vn -3.9766185011558264e-8 -1 6.822801879025064e-9
vn -3.29433831325332e-8 -1 2.8800022296735037e-15
vn 0 1 0
vn 0 1 0
vn 0 1 0
vn 0 1 0
vn 0 1 0
vn 0 1 0
vn 0 1 0
vn 0 1 0
vn 0 1 0
vn -0.0025348991621285677 0.14587700366973877 0.989299476146698
vn 0.578656792640686 0.28529179096221924 0.7640451192855835
vn -0.13108931481838226 0.28529176115989685 0.9494336247444153
vn 0.6977479457855225 0.14587700366973877 0.7013328075408936
vn 0.9494336247444153 0.285291850566864 0.13108929991722107
vn 0.989299476146698 0.14587701857089996 0.002534882863983512
vn 0.7640450596809387 0.28529179096221924 -0.578656792640686
vn 0.7013328075408936 0.1458769291639328 -0.6977479457855225
vn 0.13108935952186584 0.2852917015552521 -0.9494336247444153
vn 0.002534942701458931 0.145876944065094 -0.989299476146698
vn 0.5786566138267517 -0.28529173135757446 -0.764045238494873
vn -0.131089448928833 -0.28529173135757446 -0.9494336247444153
vn -0.002535067033022642 -0.14587697386741638 -0.989299476146698
vn 0.6977477073669434 -0.14587698876857758 -0.7013330459594727
vn 0.9494335651397705 -0.2852918207645416 -0.13108958303928375
vn 0.989299476146698 -0.14587700366973877 -0.0025351643562316895
vn 0.764045238494873 -0.2852918207645416 0.5786566138267517
vn 0.7013329863548279 -0.14587700366973877 0.6977477669715881
vn 0.13108950853347778 -0.2852918207645416 0.9494335651397705
vn 0.00253512104973197 -0.14587701857089996 0.989299476146698
vn -0.5786566734313965 -0.2852918803691864 0.7640451788902283
vn 0.13108950853347778 -0.2852918207645416 0.9494335651397705
vn 0.00253512104973197 -0.14587701857089996 0.989299476146698
vn -0.6977477669715881 -0.14587704837322235 0.7013329267501831
vn -0.9494335651397705 -0.2852918803691864 0.131089448928833
vn -0.989299476146698 -0.14587700366973877 0.0025350016076117754
vn -0.7640451788902283 -0.2852918207645416 -0.5786566734313965
vn -0.7013329267501831 -0.14587697386741638 -0.6977478265762329
vn -0.131089448928833 -0.28529173135757446 -0.9494336247444153
vn -0.002535067033022642 -0.14587697386741638 -0.989299476146698
vn -0.0025348991621285677 0.14587700366973877 0.989299476146698
vn -0.7013328671455383 0.14587700366973877 0.6977478861808777
vn -0.989299476146698 0.14587698876857758 -0.0025349967181682587
vn -0.6977478861808777 0.145876944065094 -0.7013328671455383
vn 0.002534942701458931 0.145876944065094 -0.989299476146698
vn -0.5786566734313965 0.2852916717529297 -0.764045238494873
vn 0.13108935952186584 0.2852917015552521 -0.9494336247444153
vn -0.9494336247444153 0.2852917015552521 -0.13108940422534943
vn -0.7640451192855835 0.28529179096221924 0.578656792640686
vn -0.13108931481838226 0.28529176115989685 0.9494336247444153
vn -3.9766185011558264e-8 -1 6.822799658579015e-9
vn -3.294338668524688e-8 -1 0
vn -3.976618856427194e-8 -1 -6.822794329508497e-9
vn -4.658898689058333e-8 -1 6.217248514384403e-15
vn -4.658898333786965e-8 -1 1.3322676295501878e-15
vn -3.9766185011558264e-8 -1 -6.822796549954546e-9
vt 0.6274065375328064 0.12561559677124023
vt 0.5811265110969543 0.23734551668167114
vt 0.5156766176223755 0.17189562320709229
vt 0.6274065375328064 0.12561559677124023
vt 0.7391365170478821 0.07933557033538818
vt 0.673686683177948 0.01388561725616455
vt 0.7391365766525269 0.17189562320709229
vt 0.6736866235733032 0.23734551668167114
vt 0.5811265707015991 0.01388561725616455
vt 0.5811265110969543 0.23734551668167114
vt 0.5156766176223755 0.17189562320709229
vt 0.5156766772270203 0.07933551073074341
vt 0.0012057572603225708 0.35021424293518066
vt 0.12496401369571686 0.49872422218322754
vt 0.0012057572603225708 0.49872422218322754
vt 0.12496401369571686 0.35021424293518066
vt 0.24872227013111115 0.49872422218322754
vt 0.24872227013111115 0.35021424293518066
vt 0.3724805414676666 0.49872422218322754
vt 0.3724805414676666 0.35021424293518066
vt 0.4938933253288269 0.49872422218322754
vt 0.4938933253288269 0.35021424293518066
vt 0.3724805414676666 0.003691256046295166
vt 0.4938933253288269 0.003691256046295166
vt 0.4938933253288269 0.14281928539276123
vt 0.3724805414676666 0.14281928539276123
vt 0.24872227013111115 0.003691256046295166
vt 0.24872227013111115 0.14281928539276123
vt 0.12496401369571686 0.003691256046295166
vt 0.12496401369571686 0.14281928539276123
vt 0.0012057572603225708 0.003691256046295166
vt 0.0012057572603225708 0.14281928539276123
vt 0.37074461579322815 0.005004227161407471
vt 0.49372971057891846 0.005004227161407471
vt 0.49372971057891846 0.14224183559417725
vt 0.37074461579322815 0.14224183559417725
vt 0.24775955080986023 0.005004227161407471
vt 0.24775955080986023 0.14224183559417725
vt 0.12477448582649231 0.005004227161407471
vt 0.12477448582649231 0.14224183559417725
vt 0.0017894030315801501 0.005004227161407471
vt 0.0017894030315801501 0.14224183559417725
vt 0.49372971057891846 0.3493623733520508
vt 0.37074461579322815 0.3493623733520508
vt 0.24775955080986023 0.3493623733520508
vt 0.12477448582649231 0.3493623733520508
vt 0.0017894030315801501 0.3493623733520508
vt 0.12477448582649231 0.49694448709487915
vt 0.0017894030315801501 0.49694448709487915
vt 0.24775955080986023 0.49694448709487915
vt 0.37074461579322815 0.49694448709487915
vt 0.49372971057891846 0.49694448709487915
vt 0.673686683177948 0.01388561725616455
vt 0.7391365170478821 0.07933557033538818
vt 0.7391365766525269 0.17189562320709229
vt 0.6736866235733032 0.23734557628631592
vt 0.5811265707015991 0.01388561725616455
vt 0.5156766772270203 0.07933551073074341
g Geoset0
s 1
usemtl mat_beermug
f 1/1/1 2/2/2 3/3/3
f 4/4/4 5/5/5 6/6/6
f 4/4/4 7/7/7 5/5/5
f 4/4/4 8/8/8 7/7/7
f 4/4/4 6/6/6 9/9/9
f 4/4/4 10/10/10 8/8/8
f 4/4/4 11/11/11 10/10/10
f 4/4/4 12/12/12 11/11/11
f 4/4/4 9/9/9 12/12/12
f 13/13/13 14/14/14 15/15/15
f 13/13/13 16/16/16 14/14/14
f 16/16/16 17/17/17 14/14/14
f 16/16/16 18/18/18 17/17/17
f 18/18/18 19/19/19 17/17/17
f 18/18/18 20/20/20 19/19/19
f 20/20/20 21/21/21 19/19/19
f 20/20/20 22/22/22 21/21/21
f 23/23/23 24/24/24 25/25/25
f 23/23/23 25/25/25 26/26/26
f 27/27/27 23/23/23 26/26/26
f 27/27/27 26/26/26 28/28/28
f 29/29/29 27/27/27 28/28/28
f 29/29/29 28/28/28 30/30/30
f 31/31/31 29/29/29 30/30/30
f 31/31/31 30/30/30 32/32/32
f 32/32/32 16/16/16 13/13/13
f 32/32/32 30/30/30 16/16/16
f 30/30/30 18/18/18 16/16/16
f 30/30/30 28/28/28 18/18/18
f 28/28/28 20/20/20 18/18/18
f 28/28/28 26/26/26 20/20/20
f 26/26/26 22/22/22 20/20/20
f 26/26/26 25/25/25 22/22/22
f 33/33/33 34/34/34 35/35/35
f 33/33/33 35/35/35 36/36/36
f 37/37/37 33/33/33 36/36/36
f 37/37/37 36/36/36 38/38/38
f 39/39/39 37/37/37 38/38/38
f 39/39/39 38/38/38 40/40/40
f 41/41/41 39/39/39 40/40/40
f 41/41/41 40/40/40 42/42/42
f 36/36/36 35/35/35 43/43/43
f 36/36/36 43/43/43 44/44/44
f 38/38/38 36/36/36 44/44/44
f 38/38/38 44/44/44 45/45/45
f 40/40/40 38/38/38 45/45/45
f 40/40/40 45/45/45 46/46/46
f 42/42/42 40/40/40 46/46/46
f 42/42/42 46/46/46 47/47/47
f 47/47/47 48/48/48 49/49/49
f 47/47/47 46/46/46 48/48/48
f 46/46/46 50/50/50 48/48/48
f 46/46/46 45/45/45 50/50/50
f 45/45/45 51/51/51 50/50/50
f 45/45/45 44/44/44 51/51/51
f 44/44/44 52/52/52 51/51/51
f 44/44/44 43/43/43 52/52/52
f 1/1/1 53/53/53 54/54/54
f 1/1/1 54/54/54 55/55/55
f 1/1/1 55/55/55 56/56/56
f 1/1/1 57/57/57 53/53/53
f 1/1/1 56/56/56 2/2/2
f 1/1/1 58/58/58 57/57/57
f 1/1/1 3/3/3 58/58/58
