# Exported using wow.export v0.1.64
o orccrate03
mtllib orccrate03.mtl
v 0.8303742408752441 0 0.8927497863769531
v -0.8303742408752441 0 0.8927497863769531
v -0.8303742408752441 0 -0.8927497863769531
v -0.8905537724494934 1.598278522491455 0.9574499130249023
v -0.8905537724494934 1.6494766473770142 -0.9574499130249023
v -0.9858425259590149 0.8753754496574402 -0.01851578801870346
v -0.8303742408752441 0 0.8927497863769531
v -0.8303742408752441 0 -0.8927497863769531
v 0.8905537724494934 1.6443430185317993 -0.9574499130249023
v 0.8905537724494934 1.6443430185317993 0.9574499130249023
v 0.9914371967315674 0.9161153435707092 -0.08626415580511093
v 0.8303742408752441 0 -0.8927497863769531
v 0.8303742408752441 0 0.8927497863769531
v -0.8303742408752441 0 0.8927497863769531
v 0.042922038584947586 0.8773460984230042 1.0679937601089478
v 0.8905537724494934 1.6443430185317993 0.9574499130249023
v -0.8905537724494934 1.598278522491455 0.9574499130249023
v -0.8905537724494934 1.6494766473770142 -0.9574499130249023
v 0.8905537724494934 1.6443430185317993 0.9574499130249023
v 0.8905537724494934 1.6443430185317993 -0.9574499130249023
v 0.8905537724494934 1.6443430185317993 -0.9574499130249023
v -0.03914579376578331 0.8729677796363831 -1.059064269065857
v -0.8303742408752441 0 -0.8927497863769531
v 0.8303742408752441 0 -0.8927497863769531
vn 0.5572670102119446 -0.6243993043899536 0.54733806848526
vn -0.5562192797660828 -0.6239299178123474 0.5489367246627808
vn -0.5551320910453796 -0.6242519021034241 -0.5496707558631897
vn -0.5856231451034546 0.5666021704673767 0.5796616077423096
vn -0.576368510723114 0.5883190631866455 -0.5671684145927429
vn -0.9996311664581299 -0.027081163600087166 -0.0020204184111207724
vn -0.5562192797660828 -0.6239299178123474 0.5489367246627808
vn -0.5551320910453796 -0.6242519021034241 -0.5496707558631897
vn 0.5734173655509949 0.5836330652236938 -0.5749477744102478
vn 0.5727053284645081 0.5871861577033997 0.5720323920249939
vn 0.9997170567512512 -0.021656492725014687 -0.009841090999543667
vn 0.5536577701568604 -0.624395489692688 -0.550993025302887
vn 0.5572670102119446 -0.6243993043899536 0.54733806848526
vn -0.5562192797660828 -0.6239299178123474 0.5489367246627808
vn 0.006348935887217522 -0.028250841423869133 0.9995806813240051
vn 0.5727053284645081 0.5871861577033997 0.5720323920249939
vn -0.5856231451034546 0.5666021704673767 0.5796616077423096
vn -0.576368510723114 0.5883190631866455 -0.5671684145927429
vn 0.5727053284645081 0.5871861577033997 0.5720323920249939
vn 0.5734173655509949 0.5836330652236938 -0.5749477744102478
vn 0.5734173655509949 0.5836330652236938 -0.5749477744102478
vn -0.005493746139109135 -0.031512029469013214 -0.9994882941246033
vn -0.5551320910453796 -0.6242519021034241 -0.5496707558631897
vn 0.5536577701568604 -0.624395489692688 -0.550993025302887
vt 0.9995001554489136 0.0004996061325073242
vt 0.9995002150535583 0.9995004534721375
vt 0.0004995465278625488 0.9995001554489136
vt 0.9995002150535583 0.9995003938674927
vt 0.0004995465278625488 0.9995003938674927
vt 0.45880481600761414 0.4588049054145813
vt 0.9995002150535583 0.0004996061325073242
vt 0.0004995465278625488 0.0004996061325073242
vt 0.9995002150535583 0.9995003938674927
vt 0.0004995465278625488 0.9995003938674927
vt 0.5120039582252502 0.512004017829895
vt 0.9995002150535583 0.0004996061325073242
vt 0.0004995465278625488 0.0004996061325073242
vt 0.0004995465278625488 0.0004996061325073242
vt 0.49137386679649353 0.49137401580810547
vt 0.9995001554489136 0.9995003938674927
vt 0.0004995465278625488 0.9995003938674927
vt 0.9995001554489136 0.9995003938674927
vt 0.0004995465278625488 0.0004998445510864258
vt 0.9995002150535583 0.0004995465278625488
vt 0.0004995465278625488 0.9995003938674927
vt 0.4890440106391907 0.4890441298484802
vt 0.9995001554489136 0.0004996061325073242
vt 0.0004995465278625488 0.0004996061325073242
g Geoset0
s 1
usemtl mat_orccrate07
f 1/1/1 2/2/2 3/3/3
f 4/4/4 5/5/5 6/6/6
f 6/6/6 7/7/7 4/4/4
f 8/8/8 7/7/7 6/6/6
f 6/6/6 5/5/5 8/8/8
f 9/9/9 10/10/10 11/11/11
f 11/11/11 12/12/12 9/9/9
f 13/13/13 12/12/12 11/11/11
f 11/11/11 10/10/10 13/13/13
f 14/14/14 1/1/1 15/15/15
f 15/15/15 1/1/1 16/16/16
f 16/16/16 17/17/17 15/15/15
f 15/15/15 17/17/17 14/14/14
f 18/18/18 17/17/17 19/19/19
f 19/19/19 20/20/20 18/18/18
f 18/18/18 21/21/21 22/22/22
f 22/22/22 23/23/23 18/18/18
f 24/24/24 23/23/23 22/22/22
f 22/22/22 21/21/21 24/24/24
f 3/3/3 24/24/24 1/1/1
