# Exported using wow.export v0.1.64
o nox_window01
mtllib nox_window01.mtl
v 3.4085566997528076 -1.67585027217865 0.1324935257434845
v 4.22013521194458 -1.67585027217865 -3.8623576164245605
v 0.1365988850593567 0.03231057897210121 -2.8993027210235596
v 4.146563529968262 -1.67585027217865 3.8623580932617188
v -0.242582768201828 0.16889366507530212 2.9001691341400146
v -4.220139026641846 1.6758501529693604 0.13250386714935303
vn 0.42227932810783386 0.9064638018608093 0.001886896206997335
vn 0.4009072184562683 0.9124910235404968 0.08144676685333252
vn 0.40484514832496643 0.9138942360877991 0.02996215596795082
vn 0.40097513794898987 0.9126468896865845 -0.0793386846780777
vn 0.4016573429107666 0.915581226348877 -0.0195559523999691
vn 0.3536255955696106 0.9353864192962646 0.0010915362508967519
vt 0.4819861054420471 0.11650216579437256
vt 0.9851866364479065 0.0004996061325073242
vt 0.8560088276863098 0.5332976579666138
vt 0.06670098751783371 0.001073598861694336
vt 0.1038331687450409 0.5278320908546448
vt 0.4929964244365692 1.0334959030151367
g Geoset0
s 1
usemtl mat_bm_nox_window01
f 1/1/1 2/2/2 3/3/3
f 4/4/4 1/1/1 5/5/5
f 3/3/3 5/5/5 1/1/1
f 3/3/3 6/6/6 5/5/5
