# Exported using wow.export v0.1.64
o termite_rock01
mtllib termite_rock01.mtl
v -0.15796324610710144 0.22415712475776672 0.11043433099985123
v -0.2559306025505066 -0.027829190716147423 0.1681482195854187
v 0.03881394490599632 -0.027829190716147423 0.3383190631866455
v -0.2559305727481842 -0.027829190716147423 -0.1721934825181961
v 0.036817945539951324 0.22415709495544434 -0.18654929101467133
v 0.14605595171451569 0.3127495348453522 0.11043432354927063
v 0.03881394863128662 -0.027829190716147423 -0.3423643410205841
v 0.33355849981307983 -0.027829190716147423 -0.002022643806412816
vn -0.6038231253623962 0.7455604672431946 0.28202342987060547
vn -0.7889476418495178 0.4112856686115265 0.45651471614837646
vn 0.10679275542497635 0.44483184814453125 0.8892243504524231
vn -0.7059096693992615 0.5610630512237549 -0.4323190748691559
vn 0.07404620945453644 0.7714598178863525 -0.6319547891616821
vn 0.4106648862361908 0.8669909834861755 0.2822781801223755
vn 0.120391346514225 0.5227882862091064 -0.8439184427261353
vn 0.8965066075325012 0.44046637415885925 -0.04759466275572777
vt 0.2190001755952835 0.4914942979812622
vt 0.04008572921156883 0.4385995864868164
vt 0.23068425059318542 0.9641205072402954
vt 0.38426297903060913 0.0759124755859375
vt 0.7590116262435913 0.4024606943130493
vt 0.5930999517440796 0.8465017080307007
vt 0.9190387725830078 0.23874616622924805
vt 0.9375487565994263 0.945610761642456
g Geoset0
s 1
usemtl mat_mm_rockdetail01
f 1/1/1 2/2/2 3/3/3
f 1/1/1 4/4/4 2/2/2
f 5/5/5 4/4/4 1/1/1
f 6/6/6 5/5/5 1/1/1
f 5/5/5 7/7/7 4/4/4
f 5/5/5 8/8/8 7/7/7
f 6/6/6 8/8/8 5/5/5
f 6/6/6 3/3/3 8/8/8
f 1/1/1 3/3/3 6/6/6
