# Exported using wow.export v0.1.64
o termite_shaft
mtllib termite_shaft.mtl
v 0.5616974234580994 0.7922126054763794 -0.18250688910484314
v 0.3471478521823883 0.7922126054763794 0.47780901193618774
v -0.3471493422985077 0.7922126054763794 0.4778090715408325
v 0.3471478521823883 0.7922126054763794 0.47780901193618774
v -0.3471493422985077 0.7922126054763794 0.4778090715408325
v -0.5520278811454773 -16.375812530517578 0.759800136089325
v 0.5520263910293579 -15.651089668273926 0.7598000168800354
v 0.5616974234580994 0.7922126054763794 -0.18250688910484314
v 0.8931977152824402 -16.375812530517578 -0.29021787643432617
v -7.69946382206399e-7 0.7922126054763794 -0.5906044840812683
v -7.699464390498179e-7 -17.614320755004883 -0.939164400100708
v -0.5616990327835083 0.7922126054763794 -0.18250679969787598
v -0.8931992053985596 -17.614320755004883 -0.29021772742271423
v -0.3471493422985077 0.7922126054763794 0.4778090715408325
v -0.5520278811454773 -16.375812530517578 0.759800136089325
v -7.69946382206399e-7 0.7922126054763794 -0.5906044840812683
v -0.5616990327835083 0.7922126054763794 -0.18250679969787598
vn 0 -1 0
vn 0 -1 0
vn 0 -1 0
vn 0.5874702334403992 0.020764034241437912 0.808979332447052
vn -0.5879589915275574 0.01964205875992775 0.8086522221565247
vn -0.8085366487503052 0.019457362592220306 0.5881240963935852
vn 0.5874519348144531 0.02091290056705475 0.8089888095855713
vn 0.9507803320884705 0.02072693593800068 -0.30917179584503174
vn 0.8096820116043091 0.01873239502310753 -0.5865697860717773
vn -0.0003552216512616724 0.019588474184274673 -0.9998080730438232
vn -0.26361173391342163 0.01826366037130356 -0.9644559621810913
vn -0.950886070728302 0.018933355808258057 -0.308961421251297
vn -0.835809051990509 0.018506769090890884 -0.5487082600593567
vn -0.5879589915275574 0.01964205875992775 0.8086522221565247
vn -0.8085366487503052 0.019457362592220306 0.5881240963935852
vn 0 -1 0
vn 0 -1 0
vt -0.08565086126327515 0.9033381938934326
vt -0.13795538246631622 0.9395177960395813
vt -0.11968357861042023 0.9974686503410339
vt 0.3373754322528839 0.9995003938674927
vt 0.16262449324131012 0.9995003938674927
vt 0.1582849770784378 0.034311532974243164
vt 0.3417149782180786 0.034311532974243164
vt 0.5260658860206604 0.9995003938674927
vt 0.5351496338844299 0.034311532974243164
vt 0.75 0.9995003938674927
vt 0.7499999403953552 0.034311532974243164
vt 0.9739340543746948 0.9995003938674927
vt 0.9648503065109253 0.034311532974243164
vt 1.162624478340149 0.9995003938674927
vt 1.1582850217819214 0.034311532974243164
vt -0.0350530669093132 0.9389287829399109
vt -0.056086428463459015 0.9971046447753906
g Geoset0
s 1
usemtl mat_termite_shaft
f 1/1/1 2/2/2 3/3/3
f 4/4/4 5/5/5 6/6/6
f 6/6/6 7/7/7 4/4/4
f 8/8/8 4/4/4 7/7/7
f 7/7/7 9/9/9 8/8/8
f 10/10/10 8/8/8 9/9/9
f 9/9/9 11/11/11 10/10/10
f 12/12/12 10/10/10 11/11/11
f 11/11/11 13/13/13 12/12/12
f 14/14/14 12/12/12 13/13/13
f 13/13/13 15/15/15 14/14/14
f 16/16/16 1/1/1 17/17/17
f 1/1/1 3/3/3 17/17/17
