# Exported using wow.export v0.1.64
o taurencanoe
mtllib taurencanoe.mtl
v -0.13021381199359894 0.39500340819358826 -5.633812427520752
v -0.8457010984420776 -0.23554940521717072 -3.20377516746521
v 0.592846691608429 -0.23554940521717072 -3.20377516746521
v -0.8457009792327881 1.0531340837478638 -4.181073188781738
v -1.1867154836654663 0.8925648927688599 -2.371751070022583
v -1.1867157220840454 -0.3961186707019806 -1.8831021785736084
v -1.352637529373169 -0.3961186707019806 -0.5624296069145203
v -1.352637529373169 0.8925647735595703 -0.562429666519165
v -1.1867157220840454 -0.3961186707019806 0.7582433819770813
v -1.1867154836654663 0.8925648927688599 1.2468922138214111
v -0.8457010984420776 -0.23554940521717072 2.078916072845459
v -0.8457009792327881 1.0531340837478638 3.0562143325805664
v -0.13021379709243774 0.5114612579345703 4.50895357131958
v -0.1582188457250595 2.602771282196045 6.152972221374512
v 0.592846691608429 -0.23554940521717072 2.078916072845459
v -0.7853070497512817 -1.1633201837539673 0.25603944063186646
v -0.8047498464584351 -1.1633201837539673 -0.5624296069145203
v -0.1578199565410614 -1.2675691843032837 -0.5624297857284546
v -0.7853071689605713 -1.1633201837539673 -1.3808985948562622
v -0.6418566703796387 -1.1633201837539673 -2.1993675231933594
v -1.6511166095733643 -0.2210014909505844 -2.2713522911071777
v -1.2044546604156494 -0.2210014909505844 -3.980274200439453
v -1.8003207445144653 -0.2210014909505844 -0.562429666519165
v -1.6511166095733643 -0.2210014909505844 1.1464929580688477
v -1.204454779624939 -0.5843175053596497 2.855415105819702
v -0.6418566703796387 -1.1633201837539673 1.0745081901550293
v -0.1591223031282425 -0.2902369797229767 5.205665588378906
v -0.1578199863433838 -1.1633201837539673 1.8929778337478638
v -1.4633556604385376 1.1178885698318481 -2.371751070022583
v -1.0725265741348267 1.2784579992294312 -4.181073188781738
v -1.593909502029419 1.1178885698318481 -0.562429666519165
v -1.4633556604385376 1.1178885698318481 1.2468922138214111
v -1.0725265741348267 1.2784578800201416 3.0562143325805664
v -0.1582188457250595 1.6145727634429932 -6.750309467315674
v -0.8457010984420776 -0.23554940521717072 -3.20377516746521
v -0.13021381199359894 0.39500340819358826 -5.633812427520752
v 0.592846691608429 1.0531340837478638 -4.181073188781738
v 0.7568866610527039 1.2784578800201416 -4.181073188781738
v 1.1477159261703491 1.1178885698318481 -2.371751070022583
v 1.3329651355743408 -0.2210014909505844 -2.2713522911071777
v 1.4821691513061523 -0.2210014909505844 -0.562429666519165
v 0.8863034248352051 -0.2210014909505844 -3.980274200439453
v -0.15912224352359772 0.07017620652914047 -5.6891961097717285
v 0.4117855131626129 -1.1633201837539673 -0.5624296069145203
v 0.3600032329559326 -1.1633201837539673 -1.3808985948562622
v 0.2049860656261444 -1.1633201837539673 -2.1993680000305176
v -0.1578199863433838 -1.1633201837539673 -3.017836809158325
v 0.3600033223628998 -1.1633201837539673 0.25603944063186646
v 0.2049860656261444 -1.1633201837539673 1.0745081901550293
v 0.8863032460212708 -0.5843175053596497 2.855415105819702
v 0.7568866610527039 1.2784579992294312 3.0562143325805664
v 0.592846691608429 1.0531340837478638 3.0562143325805664
v 1.3329651355743408 -0.2210014909505844 1.1464929580688477
v 1.1477159261703491 1.1178885698318481 1.2468922138214111
v 1.2782694101333618 1.1178885698318481 -0.562429666519165
v 0.9135592579841614 0.8925648927688599 1.2468922138214111
v 1.0646229982376099 0.8925647735595703 -0.562429666519165
v 0.9135592579841614 0.8925648927688599 -2.371751070022583
v 0.9135592579841614 -0.3961186707019806 0.7582433819770813
v 1.0646229982376099 -0.3961186707019806 -0.5624296069145203
v 0.9135592579841614 -0.3961186707019806 -1.8831021785736084
v 0.592846691608429 -0.23554940521717072 -3.20377516746521
v -0.13021379709243774 0.5114612579345703 4.50895357131958
v 0.592846691608429 -0.23554940521717072 2.078916072845459
v -0.8457010984420776 -0.23554940521717072 2.078916072845459
v -1.1867157220840454 -0.3961186707019806 0.7582433819770813
v 0.9135592579841614 -0.3961186707019806 0.7582433819770813
v -1.352637529373169 -0.3961186707019806 -0.5624296069145203
v 1.0646229982376099 -0.3961186707019806 -0.5624296069145203
v -1.1867157220840454 -0.3961186707019806 -1.8831021785736084
v 0.9135592579841614 -0.3961186707019806 -1.8831021785736084
vn -0.3874339163303375 0.7605991959571838 0.520945131778717
vn 0.5684117078781128 0.7697564959526062 0.29048770666122437
vn -0.725229799747467 0.6243487596511841 0.29022473096847534
vn 0.8808172345161438 0.3912253677845001 0.2666527032852173
vn 0.8909265995025635 0.426604688167572 0.15575054287910461
vn 0.651646614074707 0.7419790625572205 0.1575555056333542
vn 0.698911726474762 0.7148879766464233 0.021391605958342552
vn 0.909859299659729 0.41465863585472107 -0.014637530781328678
vn 0.6775505542755127 0.7167597413063049 -0.16486573219299316
vn 0.8753960728645325 0.4591101109981537 -0.15132617950439453
vn 0.718216598033905 0.6236429214477539 -0.3086007535457611
vn 0.8210605382919312 0.48441413044929504 -0.3019975423812866
vn 0.3780423402786255 0.738991379737854 -0.557651937007904
vn -0.6937658190727234 0.6375700831413269 -0.3349527418613434
vn -0.5705763697624207 0.7608144283294678 -0.30919894576072693
vn -0.4789019227027893 -0.8770567774772644 0.037740472704172134
vn -0.5072209239006042 -0.8617215752601624 0.012760971672832966
vn 0.010726306587457657 -0.9999424815177917 -3.1353472595974097e-10
vn -0.49447906017303467 -0.8679298758506775 -0.046778272837400436
vn -0.4248186945915222 -0.8951840996742249 -0.13481299579143524
vn -0.9330745339393616 -0.33011335134506226 -0.1428183913230896
vn -0.8345448970794678 -0.42489463090896606 -0.3507126569747925
vn -0.9462059140205383 -0.3234096169471741 0.01002847496420145
vn -0.9342418313026428 -0.33495065569877625 0.12247545272111893
vn -0.8364777565002441 -0.4865188002586365 0.2521992623806
vn -0.28573355078697205 -0.9497861862182617 0.12752485275268555
vn 0.169031023979187 -0.8371828198432922 0.5201475024223328
vn 0.05810713395476341 -0.9868217706680298 0.15101785957813263
vn -0.35992124676704407 0.9295772910118103 -0.07964169234037399
vn -0.35693708062171936 0.9184008240699768 -0.17069213092327118
vn -0.3394135534763336 0.9392549395561218 -0.05097687989473343
vn -0.3561943471431732 0.9339389204978943 -0.029726549983024597
vn -0.7196940183639526 0.6937262415885925 0.02800786681473255
vn 0.7205236554145813 0.6674028038978577 0.18819986283779144
vn 0.5684117078781128 0.7697564959526062 0.29048770666122437
vn -0.3874339163303375 0.7605991959571838 0.520945131778717
vn -0.8603373169898987 0.43017807602882385 0.27343466877937317
vn 0.702599287033081 0.7021780014038086 -0.11532679200172424
vn 0.310016930103302 0.9499402642250061 0.03876833617687225
vn 0.9168279767036438 -0.3699696362018585 -0.15016311407089233
vn 0.9389318823814392 -0.3440588712692261 -0.005511694587767124
vn 0.8016564249992371 -0.5001699924468994 -0.32737886905670166
vn -0.09889954328536987 -0.7697206139564514 -0.6306735277175903
vn 0.48867353796958923 -0.8723822236061096 -0.012143292464315891
vn 0.47591614723205566 -0.8761289715766907 -0.07682372629642487
vn 0.40623271465301514 -0.8960945010185242 -0.17885656654834747
vn -0.03788552060723305 -0.9704159498214722 -0.23844829201698303
vn 0.47566166520118713 -0.8779709935188293 0.05397113040089607
vn 0.3897940218448639 -0.9179559350013733 0.07360413670539856
vn 0.8322080969810486 -0.4896481931209564 0.26014286279678345
vn 0.3371308743953705 0.9401548504829407 0.049513865262269974
vn -0.8953636288642883 0.3363488018512726 -0.2918790876865387
vn 0.9262866973876953 -0.3583149313926697 0.11663368344306946
vn 0.3242436647415161 0.9415553212165833 0.09132164716720581
vn 0.30780649185180664 0.9498984217643738 0.05429680272936821
vn -0.9144536852836609 0.3763410449028015 -0.14880141615867615
vn -0.9237546324729919 0.38281121850013733 0.011529190465807915
vn -0.8946428894996643 0.4230712950229645 0.1436132937669754
vn -0.6558340787887573 0.7398735284805298 -0.149896040558815
vn -0.6998510360717773 0.7140226364135742 -0.019497906789183617
vn -0.6801474094390869 0.7159727215766907 0.15742480754852295
vn -0.725229799747467 0.6243487596511841 0.29022473096847534
vn 0.3780423402786255 0.738991379737854 -0.557651937007904
vn -0.5705763697624207 0.7608144283294678 -0.30919894576072693
vn 0.718216598033905 0.6236429214477539 -0.3086007535457611
vn 0.6775505542755127 0.7167597413063049 -0.16486573219299316
vn -0.6558340787887573 0.7398735284805298 -0.149896040558815
vn 0.698911726474762 0.7148879766464233 0.021391605958342552
vn -0.6998510360717773 0.7140226364135742 -0.019497906789183617
vn 0.651646614074707 0.7419790625572205 0.1575555056333542
vn -0.6801474094390869 0.7159727215766907 0.15742480754852295
vt 1.5539460182189941 0.20445311069488525
vt 1.202630877494812 0.3224135637283325
vt 1.202630877494812 0.08649277687072754
vt 0.66645747423172 0.9128643274307251
vt 0.33012717962265015 0.8724299073219299
vt 0.2392933964729309 0.5624071359634399
vt 0.0082896389067173 0.5624071955680847
vt 0.0082896389067173 0.8724300265312195
vt 0.24243319034576416 0.5624072551727295
vt 0.3332669138908386 0.8724300861358643
vt 0.48792994022369385 0.6028417944908142
vt 0.669597327709198 0.912864625453949
vt 0.7334264516830444 0.6596819162368774
vt 1.0059274435043335 0.9841976165771484
vt 0.48792994022369385 0.6028417944908142
vt 0.18102994561195374 0.5107795000076294
vt 0.0082896389067173 0.5107794404029846
vt 0.0082896389067173 0.39998650550842285
vt 0.1778901219367981 0.5107793807983398
vt 0.36198335886001587 0.5107793211936951
vt 0.2940918803215027 0.6621575355529785
vt 0.5943866968154907 0.662157416343689
vt 0.0082896389067173 0.6621575951576233
vt 0.2972314953804016 0.6621576547622681
vt 0.597526490688324 0.6621577143669128
vt 0.3651231527328491 0.5107795000076294
vt 0.9123142957687378 0.634901225566864
vt 0.5492163896560669 0.5107795596122742
vt 0.33012717962265015 0.994388222694397
vt 0.66645747423172 0.9913443326950073
vt 0.0082896389067173 0.9943882822990417
vt 0.3332669138908386 0.9943883419036865
vt 0.669597327709198 0.991344690322876
vt 1.0027878284454346 0.9841970801353455
vt 0.4847900867462158 0.6028415560722351
vt 0.7302865982055664 0.6596815586090088
vt 0.66645747423172 0.9128643274307251
vt 0.66645747423172 0.9913443326950073
vt 0.33012717962265015 0.994388222694397
vt 0.2940918803215027 0.6621575355529785
vt 0.0082896389067173 0.6621575951576233
vt 0.5943866968154907 0.662157416343689
vt 0.9091743230819702 0.6349008083343506
vt 0.0082896389067173 0.5107794404029846
vt 0.1778901219367981 0.5107793807983398
vt 0.36198335886001587 0.5107793211936951
vt 0.5460765957832336 0.5107793211936951
vt 0.18102994561195374 0.5107794404029846
vt 0.3651231527328491 0.5107795000076294
vt 0.597526490688324 0.6621577143669128
vt 0.669597327709198 0.991344690322876
vt 0.669597327709198 0.912864625453949
vt 0.2972314953804016 0.6621576547622681
vt 0.3332669138908386 0.9943883419036865
vt 0.0082896389067173 0.9943882822990417
vt 0.3332669138908386 0.8724300861358643
vt 0.0082896389067173 0.8724300265312195
vt 0.33012717962265015 0.8724299073219299
vt 0.24243319034576416 0.5624072551727295
vt 0.0082896389067173 0.5624071955680847
vt 0.2392933964729309 0.5624071359634399
vt 0.4847900867462158 0.6028415560722351
vt -0.5539459586143494 0.20445352792739868
vt -0.2026306688785553 0.08649307489395142
vt -0.20263060927391052 0.3224138617515564
vt 0.14868482947349548 0.37833988666534424
vt 0.14868469536304474 0.03389632701873779
vt 0.5000001192092896 0.4055509567260742
vt 0.5 0.009121954441070557
vt 0.851315438747406 0.3783397674560547
vt 0.851315438747406 0.03389620780944824
g Geoset0
s 1
usemtl mat_canoe
f 1/1/1 2/2/2 3/3/3
f 4/4/4 5/5/5 6/6/6
f 7/7/7 6/6/6 5/5/5
f 5/5/5 8/8/8 7/7/7
f 9/9/9 7/7/7 8/8/8
f 8/8/8 10/10/10 9/9/9
f 11/11/11 9/9/9 10/10/10
f 10/10/10 12/12/12 11/11/11
f 13/13/13 11/11/11 12/12/12
f 12/12/12 14/14/14 13/13/13
f 15/15/15 13/13/13 14/14/14
f 16/16/16 17/17/17 18/18/18
f 17/17/17 19/19/19 18/18/18
f 19/19/19 20/20/20 18/18/18
f 21/21/21 22/22/22 20/20/20
f 20/20/20 19/19/19 21/21/21
f 23/23/23 21/21/21 19/19/19
f 19/19/19 17/17/17 23/23/23
f 24/24/24 23/23/23 17/17/17
f 17/17/17 16/16/16 24/24/24
f 25/25/25 24/24/24 16/16/16
f 16/16/16 26/26/26 25/25/25
f 27/27/27 25/25/25 26/26/26
f 26/26/26 28/28/28 27/27/27
f 29/29/29 30/30/30 22/22/22
f 22/22/22 21/21/21 29/29/29
f 31/31/31 29/29/29 21/21/21
f 21/21/21 23/23/23 31/31/31
f 32/32/32 31/31/31 23/23/23
f 23/23/23 24/24/24 32/32/32
f 33/33/33 32/32/32 24/24/24
f 24/24/24 25/25/25 33/33/33
f 14/14/14 33/33/33 25/25/25
f 25/25/25 27/27/27 14/14/14
f 34/34/34 30/30/30 4/4/4
f 5/5/5 4/4/4 30/30/30
f 30/30/30 29/29/29 5/5/5
f 8/8/8 5/5/5 29/29/29
f 29/29/29 31/31/31 8/8/8
f 10/10/10 8/8/8 31/31/31
f 31/31/31 32/32/32 10/10/10
f 12/12/12 10/10/10 32/32/32
f 32/32/32 33/33/33 12/12/12
f 14/14/14 12/12/12 33/33/33
f 34/34/34 4/4/4 35/35/35
f 6/6/6 35/35/35 4/4/4
f 35/35/35 36/36/36 34/34/34
f 37/37/37 34/34/34 36/36/36
f 34/34/34 37/37/37 38/38/38
f 39/39/39 38/38/38 37/37/37
f 38/38/38 39/39/39 40/40/40
f 41/41/41 40/40/40 39/39/39
f 40/40/40 42/42/42 38/38/38
f 34/34/34 38/38/38 42/42/42
f 42/42/42 43/43/43 34/34/34
f 30/30/30 34/34/34 43/43/43
f 43/43/43 22/22/22 30/30/30
f 44/44/44 45/45/45 40/40/40
f 42/42/42 40/40/40 45/45/45
f 45/45/45 46/46/46 42/42/42
f 43/43/43 42/42/42 46/46/46
f 46/46/46 47/47/47 43/43/43
f 22/22/22 43/43/43 47/47/47
f 47/47/47 20/20/20 22/22/22
f 20/20/20 47/47/47 18/18/18
f 47/47/47 46/46/46 18/18/18
f 46/46/46 45/45/45 18/18/18
f 45/45/45 44/44/44 18/18/18
f 28/28/28 26/26/26 18/18/18
f 26/26/26 16/16/16 18/18/18
f 40/40/40 41/41/41 44/44/44
f 48/48/48 44/44/44 41/41/41
f 44/44/44 48/48/48 18/18/18
f 48/48/48 49/49/49 18/18/18
f 49/49/49 28/28/28 18/18/18
f 28/28/28 49/49/49 50/50/50
f 50/50/50 27/27/27 28/28/28
f 27/27/27 50/50/50 51/51/51
f 51/51/51 14/14/14 27/27/27
f 14/14/14 51/51/51 52/52/52
f 53/53/53 50/50/50 49/49/49
f 49/49/49 48/48/48 53/53/53
f 41/41/41 53/53/53 48/48/48
f 54/54/54 51/51/51 50/50/50
f 50/50/50 53/53/53 54/54/54
f 55/55/55 54/54/54 53/53/53
f 53/53/53 41/41/41 55/55/55
f 39/39/39 55/55/55 41/41/41
f 56/56/56 52/52/52 51/51/51
f 51/51/51 54/54/54 56/56/56
f 57/57/57 56/56/56 54/54/54
f 54/54/54 55/55/55 57/57/57
f 58/58/58 57/57/57 55/55/55
f 55/55/55 39/39/39 58/58/58
f 37/37/37 58/58/58 39/39/39
f 14/14/14 52/52/52 15/15/15
f 59/59/59 15/15/15 52/52/52
f 52/52/52 56/56/56 59/59/59
f 60/60/60 59/59/59 56/56/56
f 56/56/56 57/57/57 60/60/60
f 61/61/61 60/60/60 57/57/57
f 57/57/57 58/58/58 61/61/61
f 62/62/62 61/61/61 58/58/58
f 58/58/58 37/37/37 62/62/62
f 36/36/36 62/62/62 37/37/37
f 63/63/63 64/64/64 65/65/65
f 66/66/66 65/65/65 64/64/64
f 64/64/64 67/67/67 66/66/66
f 68/68/68 66/66/66 67/67/67
f 67/67/67 69/69/69 68/68/68
f 70/70/70 68/68/68 69/69/69
f 69/69/69 71/71/71 70/70/70
f 2/2/2 70/70/70 71/71/71
f 71/71/71 3/3/3 2/2/2
