# Exported using wow.export v0.1.64
o wc_stickbundle02
mtllib wc_stickbundle02.mtl
v -0.0011011658934876323 0.00021829927572980523 0.13888974487781525
v 0.1567750722169876 0.00021830067271366715 0.2767849862575531
v 0.08814999461174011 1.1073285341262817 0.1569051295518875
v -0.0011010190937668085 2.2144386768341064 0.13888956606388092
v -0.15677553415298462 2.2144386768341064 0.2787078619003296
v -0.08815044909715652 1.1073285341262817 0.15882818400859833
v -0.0011011658934876323 0.0002182925381930545 -0.13690073788166046
v -0.15677568316459656 0.00021829117031302303 -0.2728728950023651
v -0.08815044909715652 1.1073285341262817 -0.15299324691295624
v 0.0011006323620676994 1.1073285341262817 -0.075037881731987
v 0.09035172313451767 1.1073285341262817 0.0029174715746194124
v 0.0011006323620676994 1.1073285341262817 0.08087284117937088
v -0.0011011658934876323 0.00021829927572980523 0.13888974487781525
v 0.15897680819034576 0.00021829396428074688 0.002917557954788208
v -0.15677553415298462 2.2144386768341064 -0.27287307381629944
v -0.0011010190937668085 2.2144386768341064 -0.1369009166955948
v 0.1589769572019577 2.2144386768341064 0.002917384495958686
v -0.15677568316459656 0.00021830463083460927 0.27870801091194153
v -0.0011010190937668085 2.2144386768341064 -0.1369009166955948
v 0.15677520632743835 2.2144386768341064 -0.27479615807533264
v 0.08814999461174011 1.1073285341262817 -0.15491631627082825
v 0.1567750722169876 0.00021828718308825046 -0.2747959494590759
v -0.0011011658934876323 0.0002182925381930545 -0.13690073788166046
v -0.0011010924354195595 1.1073285341262817 -0.0769609585404396
v -0.09035217761993408 1.1073285341262817 0.0009943995391950011
v -0.15897727012634277 2.2144386768341064 0.0009943129261955619
v -0.0011010924354195595 1.1073285341262817 0.07894974946975708
v -0.0011010190937668085 2.2144386768341064 0.13888956606388092
v 0.15677520632743835 2.2144386768341064 0.2767847776412964
v -0.1589774191379547 0.0002182978787459433 0.0009944861521944404
vn -0.0000041854436858557165 0.016504188999533653 0.9998638033866882
vn -0.6577850580215454 0.012723816558718681 0.7530982494354248
vn -0.6578383445739746 2.9968500570021206e-8 0.7531591653823853
vn 0.12379812449216843 -0.01632208377122879 0.9921731948852539
vn 0.6681519746780396 -0.01221326645463705 0.7439245581626892
vn 0.6630358695983887 5.713101547399901e-9 0.7485876083374023
vn 1.9426956043844257e-8 0.0168928112834692 -0.9998573064804077
vn 0.6577849984169006 0.012723753228783607 -0.7530982494354248
vn 0.6578382849693298 -3.1269483002915877e-8 -0.75315922498703
vn 0.6578361392021179 -0.0025449858512729406 -0.7531567811965942
vn 0.9861372113227844 0.0027374105993658304 0.16590920090675354
vn 0.6578382849693298 6.45904218998794e-9 0.75315922498703
vn -0.0000041854436858557165 0.016504188999533653 0.9998638033866882
vn 0.9997891783714294 0.01933928020298481 0.006899591535329819
vn 0.6577850580215454 -0.012723816558718681 -0.75309818983078
vn -0.1237993910908699 -0.016762912273406982 -0.9921656847000122
vn 0.9349173903465271 -0.018084485083818436 -0.3544042408466339
vn 0.6681519746780396 0.012213276699185371 0.7439245581626892
vn -0.1237993910908699 -0.016762912273406982 -0.9921656847000122
vn -0.6577850580215454 -0.012723792344331741 -0.7530982494354248
vn -0.6578382253646851 -7.760094788977767e-9 -0.75315922498703
vn -0.6577849984169006 0.012723775580525398 -0.7530982494354248
vn 1.9426956043844257e-8 0.0168928112834692 -0.9998573064804077
vn -0.6578382253646851 -7.499897591856097e-9 -0.75315922498703
vn -0.9868833422660828 0.0027271080762147903 -0.16141188144683838
vn -0.9341233968734741 -0.018069081008434296 0.35649266839027405
vn -0.6578361988067627 -0.002544925082474947 0.7531567215919495
vn 0.12379812449216843 -0.01632208377122879 0.9921731948852539
vn -0.6577849984169006 -0.012723756022751331 0.7530982494354248
vn -0.9998129606246948 0.019339777529239655 -4.530669528435283e-8
vt 0.9980000257492065 0.7459999918937683
vt 0.9980000257492065 0.9959999918937683
vt 0.0020000000949949026 0.9959999918937683
vt 0.9980000257492065 0.2540000081062317
vt 0.9980000257492065 0.00390625
vt 0.0020000000949949026 0.00390625
vt 0.9980000257492065 0.7459999918937683
vt 0.9980000257492065 0.9959999918937683
vt 0.0020000000949949026 0.9959999918937683
vt 0.0020000000949949026 0.7459999918937683
vt 0.0020000000949949026 0.49999988079071045
vt 0.0020000000949949026 0.2540000081062317
vt 0.9980000257492065 0.2540000081062317
vt 0.9980000257492065 0.49999988079071045
vt 0.9980000257492065 0.9959999918937683
vt 0.9980000257492065 0.7459999918937683
vt 0.9980000257492065 0.49999988079071045
vt 0.9980000257492065 0.00390625
vt 0.9980000257492065 0.2540000081062317
vt 0.9980000257492065 0.00390625
vt 0.0020000000949949026 0.00390625
vt 0.9980000257492065 0.00390625
vt 0.9980000257492065 0.2540000081062317
vt 0.0020000000949949026 0.2540000081062317
vt 0.0020000000949949026 0.5
vt 0.9980000257492065 0.5
vt 0.0020000000949949026 0.7459999918937683
vt 0.9980000257492065 0.7459999918937683
vt 0.9980000257492065 0.9959999918937683
vt 0.9980000257492065 0.5
g Geoset0
s 1
usemtl mat_stickbundle
f 1/1/1 2/2/2 3/3/3
f 4/4/4 5/5/5 6/6/6
f 7/7/7 8/8/8 9/9/9
f 9/9/9 10/10/10 7/7/7
f 7/7/7 10/10/10 11/11/11
f 11/11/11 12/12/12 13/13/13
f 13/13/13 14/14/14 11/11/11
f 11/11/11 14/14/14 7/7/7
f 9/9/9 15/15/15 16/16/16
f 16/16/16 10/10/10 9/9/9
f 10/10/10 16/16/16 17/17/17
f 17/17/17 11/11/11 10/10/10
f 11/11/11 17/17/17 4/4/4
f 4/4/4 12/12/12 11/11/11
f 6/6/6 12/12/12 4/4/4
f 13/13/13 12/12/12 6/6/6
f 6/6/6 18/18/18 13/13/13
f 19/19/19 20/20/20 21/21/21
f 21/21/21 22/22/22 23/23/23
f 23/23/23 24/24/24 21/21/21
f 21/21/21 24/24/24 19/19/19
f 19/19/19 24/24/24 25/25/25
f 25/25/25 26/26/26 19/19/19
f 26/26/26 25/25/25 27/27/27
f 27/27/27 28/28/28 26/26/26
f 28/28/28 27/27/27 3/3/3
f 3/3/3 29/29/29 28/28/28
f 25/25/25 24/24/24 23/23/23
f 3/3/3 27/27/27 1/1/1
f 1/1/1 27/27/27 25/25/25
f 25/25/25 30/30/30 1/1/1
f 23/23/23 30/30/30 25/25/25
