# Exported using wow.export v0.1.64
o sholazar_rocke
mtllib sholazar_rocke.mtl
v -2.362393856048584 -1.3371995687484741 -1.2548669576644897
v -3.3041775226593018 -0.11615312099456787 -0.3628610670566559
v -2.6286544799804688 -0.11615415662527084 -1.3103243112564087
v -2.6286544799804688 -0.11615415662527084 -1.3103243112564087
v -3.3041775226593018 -0.11615312099456787 -0.3628610670566559
v -3.1708860397338867 0.2677479088306427 -0.37123623490333557
v -3.2517786026000977 -0.11615335941314697 0.6469963192939758
v -3.027665853500366 0.257234126329422 0.586952805519104
v -2.8386764526367188 -0.11615315079689026 1.3289889097213745
v -2.725975275039673 0.40899768471717834 1.2553046941757202
v -1.9354631900787354 0.4635801911354065 2.0891993045806885
v -2.6051955223083496 -0.11615357547998428 -1.693744421005249
v -2.411475419998169 0.35249093174934387 -1.217758297920227
v -1.0897351503372192 1.4107023477554321 -0.45624876022338867
v -2.6384174823760986 0.8237695693969727 -0.5075331330299377
v -2.596440076828003 0.7539357542991638 0.09382307529449463
v -1.3431321382522583 0.9731483459472656 0.24336399137973785
v -0.027752304449677467 1.7726348638534546 -0.23353320360183716
v -0.9145747423171997 1.264581322669983 0.6486888527870178
v -0.13763633370399475 1.2260984182357788 1.209770679473877
v 0.23376403748989105 0.9244188666343689 2.034519910812378
v 1.0962038040161133 1.3489774465560913 2.1308434009552
v 1.3274649381637573 0.5863003730773926 2.444091558456421
v 1.9164091348648071 0.9019401669502258 1.6555585861206055
v 2.3883109092712402 0.968095064163208 1.1427733898162842
v 1.6129385232925415 1.5692404508590698 0.6759266257286072
v 2.1534130573272705 1.6173912286758423 0.22770936787128448
v 0.080147385597229 1.8807634115219116 -0.7726653218269348
v 2.9480910301208496 1.509390950202942 -0.6693675518035889
v 1.6740617752075195 2.0763938426971436 -1.7986359596252441
v 2.838151216506958 1.5543938875198364 -1.0645126104354858
v 0.7674043774604797 1.9657783508300781 -1.3443905115127563
v 1.3498753309249878 1.2807954549789429 0.8832834362983704
v 1.004174828529358 1.4823708534240723 1.584517240524292
v -0.7379961013793945 1.5836155414581299 -1.1233066320419312
v 0.996056854724884 1.9951750040054321 -1.9859346151351929
v 1.1002719402313232 1.6418691873550415 -2.501643419265747
v 0.3045979142189026 1.5450941324234009 -2.602957248687744
v -0.0488591268658638 1.5559419393539429 -2.325272798538208
v 0.31377387046813965 1.1877319812774658 -2.8531992435455322
v 1.450338363647461 1.4303981065750122 -2.5627849102020264
v 1.558448076248169 0.46113720536231995 -2.8298985958099365
v 1.9038959741592407 1.5125054121017456 -2.381270408630371
v 1.952789545059204 0.42437270283699036 -2.5632333755493164
v 3.152769088745117 1.354154109954834 -1.1898126602172852
v 3.362867832183838 0.43051677942276 -0.972088634967804
v 3.3374764919281006 1.2702919244766235 -0.5458949208259583
v 3.2769744396209717 1.0240825414657593 0.4127291440963745
v 3.425496816635132 -0.11615408957004547 -0.9652151465415955
v 1.9814411401748657 -0.1161540225148201 -2.7209575176239014
v 1.359897494316101 -0.11615410447120667 -3.089503288269043
v 0.1649884730577469 0.48997053503990173 -2.9666593074798584
v -0.22570514678955078 -0.11615350842475891 -3.1803152561187744
v -1.8377060890197754 0.41249576210975647 -2.256765365600586
v -2.0111405849456787 -0.1161544993519783 -2.4262897968292236
v -2.3763744831085205 0.3699558973312378 -1.6369006633758545
v -1.273558259010315 0.9526821970939636 -2.242520570755005
v -0.9714697599411011 1.3355185985565186 -2.283797264099121
v -1.8153470754623413 0.8207843899726868 -1.2436813116073608
v -1.7155730724334717 0.8378187417984009 -1.558876872062683
v -1.4736487865447998 1.121237874031067 -1.8953908681869507
v -1.4712142944335938 1.0960737466812134 -1.22523832321167
v -1.1877447366714478 1.3090674877166748 -1.9696407318115234
v 1.7894560098648071 1.6438292264938354 -2.199990749359131
v 2.5936331748962402 1.1682345867156982 0.716636061668396
v 3.1382977962493896 1.2180756330490112 0.22267895936965942
v 1.645497441291809 -0.11615531891584396 2.982928991317749
v 2.487990617752075 -0.1161532774567604 2.2714154720306396
v 2.5630135536193848 0.23538409173488617 2.067401647567749
v 2.660223960876465 -1.6528364419937134 0.6918666362762451
v 1.5637791156768799 -1.0276429653167725 2.044327974319458
v 1.2860138416290283 -2.0553781986236572 -0.14842398464679718
v -0.07264585793018341 -1.000128149986267 2.1285805702209473
v -0.12991735339164734 -2.0607588291168213 -0.8829604983329773
v -1.3409055471420288 -0.9357423782348633 1.2857147455215454
v -2.438978672027588 -0.9152905344963074 0.7674866318702698
v -2.056572914123535 -0.11615383625030518 2.2456884384155273
v -2.8386764526367188 -0.11615315079689026 1.3289889097213745
v -0.2963082790374756 -0.1161569133400917 3.1607704162597656
v -0.2963082790374756 -0.1161569133400917 3.1607704162597656
v -0.2504035532474518 0.27516576647758484 3.105257987976074
v 1.5820741653442383 0.15295620262622833 2.953451633453369
v 3.35429310798645 0.3283011019229889 0.9082880020141602
v 3.391535997390747 -0.11615408957004547 0.9589700698852539
v 3.425496816635132 -0.11615408957004547 -0.9652151465415955
v 3.1284236907958984 -1.2406004667282104 -0.25564056634902954
v 2.0668582916259766 -1.2593294382095337 -1.8278577327728271
v 2.068011999130249 -1.2594646215438843 -1.82908034324646
v 2.068011999130249 -1.2594646215438843 -1.82908034324646
v 1.3170260190963745 -1.3492815494537354 -2.371490240097046
v -0.3431597650051117 -1.3805073499679565 -2.7821271419525146
v -0.22570514678955078 -0.11615350842475891 -3.1803152561187744
v -2.0111405849456787 -0.1161544993519783 -2.4262897968292236
v -3.2517786026000977 -0.11615335941314697 0.6469963192939758
v -1.3811269998550415 -1.7113522291183472 -1.4901984930038452
v -1.5482401847839355 -1.302316427230835 -2.515758514404297
v -2.6286544799804688 -0.11615415662527084 -1.3103243112564087
vn -0.9104409217834473 -0.245342418551445 -0.3330231308937073
vn -0.9048173427581787 -0.020751245319843292 -0.42529401183128357
vn -0.8294678926467896 0.0013893039431422949 -0.558552622795105
vn -0.8294678926467896 0.0013893039431422949 -0.558552622795105
vn -0.9048173427581787 -0.020751245319843292 -0.42529401183128357
vn -0.8978882431983948 0.09529467672109604 -0.42978549003601074
vn -0.9749639630317688 -0.02259664051234722 0.22121188044548035
vn -0.9864333868026733 0.11899285018444061 0.11309238523244858
vn -0.807925820350647 -0.03714112937450409 0.5881125926971436
vn -0.8448579907417297 0.20056159794330597 0.4959737956523895
vn -0.5228487849235535 0.20019064843654633 0.8285848498344421
vn -0.8628191351890564 -0.012410342693328857 -0.5053603649139404
vn -0.8101383447647095 0.10316178947687149 -0.5770905017852783
vn -0.8929175138473511 0.3553783893585205 0.2764136493206024
vn -0.8791487812995911 0.2319800853729248 -0.4162723422050476
vn -0.8432291746139526 0.3335561454296112 0.4215505123138428
vn -0.7380306720733643 0.3409765660762787 0.5822762846946716
vn -0.44678786396980286 0.48786845803260803 0.7499099969863892
vn -0.8223116397857666 0.36568254232406616 0.43598148226737976
vn -0.42169618606567383 0.3598335087299347 0.8322812914848328
vn -0.18902277946472168 0.1896507740020752 0.9634848237037659
vn 0.14020049571990967 0.2539534270763397 0.957001268863678
vn 0.31090620160102844 0.1297224462032318 0.9415463209152222
vn 0.6382923722267151 0.10921967029571533 0.7620065212249756
vn 0.5637372136116028 0.1351279616355896 0.8148255944252014
vn 0.14410638809204102 0.26675501465797424 0.9529297351837158
vn 0.6018155813217163 0.40480080246925354 0.6884433627128601
vn -0.5920774340629578 0.7780256271362305 0.21004857122898102
vn 0.8193508386611938 0.33102717995643616 0.46806544065475464
vn 0.5365755558013916 0.6298990249633789 -0.561528205871582
vn 0.9333394765853882 0.29451969265937805 -0.20526939630508423
vn -0.7151157855987549 0.6430632472038269 -0.27400562167167664
vn 0.010714584030210972 0.34501180052757263 0.9385371804237366
vn 0.27311354875564575 0.9538908004760742 0.12450452893972397
vn -0.8572929501533508 0.30715814232826233 -0.41316184401512146
vn -0.3472381830215454 0.3765781819820404 -0.8588448762893677
vn 0.011076397262513638 0.1626690924167633 -0.9866185188293457
vn -0.30529719591140747 0.22242122888565063 -0.9259170889854431
vn -0.5810835361480713 0.29769784212112427 -0.7574416995048523
vn -0.19557760655879974 0.05408515781164169 -0.9791957139968872
vn 0.09611919522285461 0.07920818775892258 -0.992213249206543
vn 0.21324318647384644 0.03926486149430275 -0.976209819316864
vn 0.3797038197517395 0.1501309871673584 -0.9128448367118835
vn 0.5885670781135559 0.029526585713028908 -0.8079090118408203
vn 0.8903839588165283 0.1371716558933258 -0.43405112624168396
vn 0.9522169232368469 0.013519936241209507 -0.30512309074401855
vn 0.9640744924545288 0.12644639611244202 0.23360592126846313
vn 0.7763872742652893 0.08543718606233597 0.6244384050369263
vn 0.9523488283157349 -0.024759862571954727 -0.30400437116622925
vn 0.5574330687522888 -0.021726297214627266 -0.8299375176429749
vn 0.1542920172214508 -0.012219331227242947 -0.9879497289657593
vn -0.20561550557613373 0.043015070259571075 -0.9776870608329773
vn -0.23396578431129456 0.007520303130149841 -0.9722157716751099
vn -0.5443595051765442 0.07096213102340698 -0.8358451128005981
vn -0.5397776961326599 0.012804655358195305 -0.8417102098464966
vn -0.8539875149726868 0.12107617408037186 -0.5060098171234131
vn -0.5459927320480347 0.05692509561777115 -0.8358537554740906
vn -0.5565815567970276 0.17928342521190643 -0.8112178444862366
vn -0.7628390192985535 0.13410121202468872 -0.6325294375419617
vn -0.8535193204879761 0.1231062114238739 -0.5063098073005676
vn -0.8527794480323792 0.1257130205631256 -0.5069156289100647
vn -0.8632245063781738 0.24208834767341614 -0.4429861009120941
vn -0.8905633687973022 0.451572060585022 -0.054585546255111694
vn 0.4337328374385834 0.20040906965732574 -0.8784714341163635
vn 0.5217306017875671 0.17202989757061005 0.835585355758667
vn 0.661320686340332 0.22677668929100037 0.7150015830993652
vn 0.36520177125930786 -0.047400958836078644 0.9297208189964294
vn 0.6378260850906372 -0.02376280166208744 0.7698137760162354
vn 0.6324782967567444 0.08177147805690765 0.7702497243881226
vn 0.7241621613502502 -0.299887478351593 0.6210126280784607
vn 0.28947514295578003 -0.17482078075408936 0.9410854578018188
vn 0.49568742513656616 -0.8129896521568298 0.3055189549922943
vn -0.14283958077430725 -0.23905308544635773 0.960442841053009
vn -0.43391138315200806 -0.8156943917274475 -0.3825749456882477
vn -0.3998801112174988 -0.28209978342056274 0.8720754384994507
vn -0.7348924875259399 -0.2684289515018463 0.622799277305603
vn -0.5126531720161438 -0.059864968061447144 0.8565062284469604
vn -0.807925820350647 -0.03714112937450409 0.5881125926971436
vn -0.07245118170976639 -0.06355777382850647 0.9953447580337524
vn -0.07245118170976639 -0.06355777382850647 0.9953447580337524
vn -0.04633082076907158 0.11060340702533722 0.9927841424942017
vn 0.3748096227645874 0.08400481939315796 0.923288106918335
vn 0.8400524258613586 0.04861818626523018 0.5403223633766174
vn 0.8624287843704224 -0.02038002386689186 0.5057680010795593
vn 0.9523488283157349 -0.024759862571954727 -0.30400437116622925
vn 0.9781980514526367 -0.1767878234386444 -0.10897079855203629
vn 0.48909246921539307 -0.8623217344284058 -0.13110962510108948
vn 0.7266469597816467 -0.4275006055831909 -0.5377987027168274
vn 0.7266469597816467 -0.4275006055831909 -0.5377987027168274
vn 0.3409632742404938 -0.23394715785980225 -0.9105013608932495
vn -0.12926650047302246 -0.2123529314994812 -0.9686053991317749
vn -0.23396578431129456 0.007520303130149841 -0.9722157716751099
vn -0.5397776961326599 0.012804655358195305 -0.8417102098464966
vn -0.9749639630317688 -0.02259664051234722 0.22121188044548035
vn -0.6945756673812866 -0.37310490012168884 -0.6151076555252075
vn -0.5000303387641907 -0.21851076185703278 -0.8379873037338257
vn -0.8294678926467896 0.0013893039431422949 -0.558552622795105
vt 0.18081016838550568 0.8754678964614868
vt 0.35132429003715515 0.020753204822540283
vt 0.17200087010860443 0.014407932758331299
vt 0.0778726190328598 0.0151747465133667
vt 0.25360798835754395 0.020753204822540283
vt 0.2753848731517792 0.247094988822937
vt 0.4438839852809906 0.008825361728668213
vt 0.43499037623405457 0.2802303433418274
vt 0.7181568741798401 0.01796048879623413
vt 0.7266237139701843 0.2816013693809509
vt 0.981220006942749 0.23708373308181763
vt 0.23843035101890564 0.013367652893066406
vt 0.07666601240634918 0.23836147785186768
vt 0.7232137322425842 0.8257961273193359
vt 0.3158947825431824 0.6270155310630798
vt 0.5258308053016663 0.5642817616462708
vt 0.8214316368103027 0.6235957741737366
vt 0.9737505316734314 0.8385236263275146
vt 0.9776196479797363 0.6323109269142151
vt 0.7648448944091797 0.6239340305328369
vt 0.6363075375556946 0.5450259447097778
vt 0.37185966968536377 0.5571737885475159
vt 0.32321155071258545 0.45753371715545654
vt 0.14575964212417603 0.6282652020454407
vt 0.01683177798986435 0.6288672685623169
vt 0.4343831241130829 0.8350512981414795
vt 0.40670984983444214 0.9601316452026367
vt 0.9770175218582153 0.9822596311569214
vt 0.49078577756881714 0.7719106078147888
vt 0.8656218647956848 0.7737911939620972
vt 0.5912713408470154 0.7254635691642761
vt 0.9803711771965027 0.9151985049247742
vt 0.4595717787742615 0.7561338543891907
vt 0.3948335349559784 0.6481424570083618
vt 0.6300223469734192 0.986177384853363
vt 0.9808364510536194 0.8314588665962219
vt 0.9809183478355408 0.7727183699607849
vt 0.7342235445976257 0.7783100605010986
vt 0.6744815707206726 0.8336806297302246
vt 0.8076187372207642 0.6072907447814941
vt 0.9779911637306213 0.6597655415534973
vt 0.9749918580055237 0.2245267629623413
vt 0.8554335236549377 0.6168714761734009
vt 0.8473385572433472 0.2214137315750122
vt 0.5284184217453003 0.6274102926254272
vt 0.4826691448688507 0.23430001735687256
vt 0.38484668731689453 0.6191446185112
vt 0.21620523929595947 0.5812743306159973
vt 0.46888843178749084 0.00808805227279663
vt 0.8620247840881348 0.013094961643218994
vt 0.9784731864929199 0.014108359813690186
vt 0.7464798092842102 0.22806960344314575
vt 0.6479595899581909 0.009942173957824707
vt 0.46393653750419617 0.23726844787597656
vt 0.45237264037132263 0.013697147369384766
vt 0.25866907835006714 0.24444234371185303
vt 0.5841338038444519 0.5995432734489441
vt 0.4990435540676117 0.7600659132003784
vt 0.04602803289890289 0.6171694397926331
vt 0.3023224472999573 0.5943902730941772
vt 0.3730705976486206 0.7437446117401123
vt 0.18081016838550568 0.8754678964614868
vt 0.39999932050704956 0.8047423958778381
vt 0.9069320559501648 0.7102988958358765
vt 0.11313356459140778 0.8739380240440369
vt 0.2577838599681854 0.7139442563056946
vt 0.21516332030296326 0.010650336742401123
vt 0.013899771496653557 0.01421743631362915
vt 0.04830639809370041 0.22844183444976807
vt 0.40670984983444214 0.9601316452026367
vt 0.3948335349559784 0.6481424570083618
vt 0.7345104217529297 0.9725890755653381
vt 0.8373086452484131 0.650284469127655
vt 0.9770175218582153 0.9822596311569214
vt 0.9776196479797363 0.6323109269142151
vt 0.8214316368103027 0.6235957741737366
vt 0.9813808798789978 0.02306663990020752
vt 0.7631722688674927 0.021254301071166992
vt 0.6379095911979675 0.012576758861541748
vt 0.5928941965103149 0.009282946586608887
vt 0.6269381642341614 0.22471511363983154
vt 0.252427875995636 0.2315664291381836
vt 0.22326667606830597 0.2530277967453003
vt 0.2294493317604065 0.014233887195587158
vt 0.5391563177108765 0.013577759265899658
vt 0.49078577756881714 0.7719106078147888
vt 0.8664305210113525 0.7751135230064392
vt 0.8656218647956848 0.7737911939620972
vt 0.8678215742111206 0.7744157910346985
vt 0.9808364510536194 0.8314588665962219
vt 0.7140072584152222 0.865520715713501
vt 0.6929749846458435 0.013235986232757568
vt 0.43151184916496277 0.013697147369384766
vt 0.5141518712043762 0.014315009117126465
vt 0.6300223469734192 0.986177384853363
vt 0.39999932050704956 0.8047423958778381
vt 0.17229510843753815 0.014076828956604004
g Geoset0
s 1
usemtl mat_sholazar_rocka
f 1/1/1 2/2/2 3/3/3
f 4/4/4 5/5/5 6/6/6
f 6/6/6 5/5/5 7/7/7
f 7/7/7 8/8/8 6/6/6
f 8/8/8 7/7/7 9/9/9
f 9/9/9 10/10/10 8/8/8
f 11/11/11 10/10/10 9/9/9
f 12/12/12 4/4/4 13/13/13
f 6/6/6 13/13/13 4/4/4
f 14/14/14 15/15/15 16/16/16
f 16/16/16 17/17/17 14/14/14
f 18/18/18 14/14/14 17/17/17
f 17/17/17 19/19/19 18/18/18
f 18/18/18 19/19/19 20/20/20
f 13/13/13 6/6/6 15/15/15
f 15/15/15 6/6/6 8/8/8
f 8/8/8 16/16/16 15/15/15
f 16/16/16 8/8/8 10/10/10
f 10/10/10 17/17/17 16/16/16
f 17/17/17 10/10/10 11/11/11
f 11/11/11 19/19/19 17/17/17
f 21/21/21 19/19/19 11/11/11
f 21/21/21 20/20/20 19/19/19
f 20/20/20 21/21/21 22/22/22
f 23/23/23 22/22/22 21/21/21
f 24/24/24 22/22/22 23/23/23
f 23/23/23 25/25/25 24/24/24
f 24/24/24 25/25/25 26/26/26
f 27/27/27 26/26/26 25/25/25
f 26/26/26 27/27/27 28/28/28
f 28/28/28 27/27/27 29/29/29
f 28/28/28 29/29/29 30/30/30
f 30/30/30 29/29/29 31/31/31
f 28/28/28 30/30/30 32/32/32
f 18/18/18 20/20/20 33/33/33
f 34/34/34 33/33/33 20/20/20
f 22/22/22 34/34/34 20/20/20
f 34/34/34 22/22/22 24/24/24
f 24/24/24 33/33/33 34/34/34
f 26/26/26 33/33/33 24/24/24
f 18/18/18 33/33/33 26/26/26
f 28/28/28 18/18/18 26/26/26
f 18/18/18 28/28/28 35/35/35
f 28/28/28 32/32/32 35/35/35
f 35/35/35 32/32/32 36/36/36
f 30/30/30 36/36/36 32/32/32
f 37/37/37 38/38/38 39/39/39
f 40/40/40 38/38/38 37/37/37
f 37/37/37 41/41/41 40/40/40
f 40/40/40 41/41/41 42/42/42
f 42/42/42 41/41/41 43/43/43
f 43/43/43 44/44/44 42/42/42
f 44/44/44 43/43/43 45/45/45
f 45/45/45 46/46/46 44/44/44
f 45/45/45 47/47/47 46/46/46
f 46/46/46 47/47/47 48/48/48
f 49/49/49 50/50/50 44/44/44
f 42/42/42 44/44/44 50/50/50
f 50/50/50 51/51/51 42/42/42
f 52/52/52 42/42/42 51/51/51
f 51/51/51 53/53/53 52/52/52
f 54/54/54 52/52/52 53/53/53
f 53/53/53 55/55/55 54/54/54
f 56/56/56 54/54/54 55/55/55
f 55/55/55 12/12/12 56/56/56
f 13/13/13 56/56/56 12/12/12
f 42/42/42 52/52/52 40/40/40
f 57/57/57 40/40/40 52/52/52
f 38/38/38 40/40/40 57/57/57
f 57/57/57 58/58/58 38/38/38
f 13/13/13 59/59/59 60/60/60
f 60/60/60 56/56/56 13/13/13
f 56/56/56 60/60/60 57/57/57
f 57/57/57 54/54/54 56/56/56
f 52/52/52 54/54/54 57/57/57
f 61/61/61 58/58/58 57/57/57
f 57/57/57 60/60/60 61/61/61
f 61/61/61 60/60/60 59/59/59
f 15/15/15 59/59/59 13/13/13
f 59/59/59 15/15/15 62/62/62
f 59/59/59 62/62/62 61/61/61
f 62/62/62 63/63/63 61/61/61
f 61/61/61 63/63/63 58/58/58
f 58/58/58 63/63/63 39/39/39
f 39/39/39 38/38/38 58/58/58
f 62/62/62 15/15/15 14/14/14
f 14/14/14 35/35/35 62/62/62
f 35/35/35 14/14/14 18/18/18
f 39/39/39 63/63/63 62/62/62
f 62/62/62 35/35/35 39/39/39
f 36/36/36 39/39/39 35/35/35
f 45/45/45 43/43/43 64/64/64
f 43/43/43 41/41/41 64/64/64
f 64/64/64 41/41/41 37/37/37
f 39/39/39 36/36/36 37/37/37
f 64/64/64 37/37/37 36/36/36
f 65/65/65 66/66/66 29/29/29
f 29/29/29 27/27/27 65/65/65
f 36/36/36 30/30/30 64/64/64
f 31/31/31 64/64/64 30/30/30
f 64/64/64 31/31/31 45/45/45
f 45/45/45 31/31/31 29/29/29
f 29/29/29 47/47/47 45/45/45
f 47/47/47 29/29/29 66/66/66
f 66/66/66 48/48/48 47/47/47
f 48/48/48 66/66/66 65/65/65
f 65/65/65 25/25/25 48/48/48
f 25/25/25 65/65/65 27/27/27
f 67/67/67 68/68/68 69/69/69
f 70/70/70 68/68/68 67/67/67
f 67/67/67 71/71/71 70/70/70
f 72/72/72 70/70/70 71/71/71
f 71/71/71 73/73/73 72/72/72
f 74/74/74 72/72/72 73/73/73
f 73/73/73 75/75/75 74/74/74
f 74/74/74 75/75/75 76/76/76
f 76/76/76 75/75/75 77/77/77
f 77/77/77 78/78/78 76/76/76
f 77/77/77 75/75/75 73/73/73
f 73/73/73 79/79/79 77/77/77
f 67/67/67 79/79/79 73/73/73
f 73/73/73 71/71/71 67/67/67
f 77/77/77 80/80/80 81/81/81
f 81/81/81 80/80/80 67/67/67
f 67/67/67 82/82/82 81/81/81
f 69/69/69 82/82/82 67/67/67
f 9/9/9 77/77/77 11/11/11
f 81/81/81 11/11/11 77/77/77
f 21/21/21 11/11/11 81/81/81
f 21/21/21 81/81/81 82/82/82
f 82/82/82 23/23/23 21/21/21
f 23/23/23 82/82/82 69/69/69
f 23/23/23 69/69/69 25/25/25
f 25/25/25 69/69/69 83/83/83
f 83/83/83 48/48/48 25/25/25
f 48/48/48 83/83/83 46/46/46
f 49/49/49 46/46/46 83/83/83
f 44/44/44 46/46/46 49/49/49
f 83/83/83 84/84/84 49/49/49
f 84/84/84 83/83/83 69/69/69
f 69/69/69 68/68/68 84/84/84
f 84/84/84 68/68/68 70/70/70
f 85/85/85 84/84/84 86/86/86
f 70/70/70 86/86/86 84/84/84
f 72/72/72 86/86/86 70/70/70
f 74/74/74 87/87/87 72/72/72
f 72/72/72 87/87/87 86/86/86
f 87/87/87 88/88/88 86/86/86
f 85/85/85 86/86/86 88/88/88
f 88/88/88 50/50/50 85/85/85
f 50/50/50 89/89/89 90/90/90
f 90/90/90 51/51/51 50/50/50
f 51/51/51 90/90/90 91/91/91
f 91/91/91 92/92/92 51/51/51
f 93/93/93 92/92/92 91/91/91
f 76/76/76 78/78/78 94/94/94
f 90/90/90 89/89/89 87/87/87
f 74/74/74 90/90/90 87/87/87
f 90/90/90 74/74/74 95/95/95
f 76/76/76 95/95/95 74/74/74
f 1/1/1 95/95/95 76/76/76
f 1/1/1 76/76/76 94/94/94
f 1/1/1 94/94/94 2/2/2
f 96/96/96 12/12/12 93/93/93
f 91/91/91 96/96/96 93/93/93
f 97/97/97 12/12/12 96/96/96
f 96/96/96 1/1/1 97/97/97
f 1/1/1 96/96/96 91/91/91
f 91/91/91 95/95/95 1/1/1
f 95/95/95 91/91/91 90/90/90
