# Exported using wow.export v0.1.64
o sholazar_rocka_dark
mtllib sholazar_rocka_dark.mtl
v -3.7601709365844727 -6.289884567260742 2.4366374015808105
v -1.0613046884536743 -7.056696891784668 2.382047176361084
v -0.7643488049507141 -6.164272308349609 3.3237698078155518
v 0.08014293015003204 4.871403217315674 -2.574122667312622
v -0.623464047908783 5.078662872314453 -3.1484882831573486
v -1.4427381753921509 6.160162448883057 -2.3237991333007812
v -0.4961286187171936 4.271961212158203 -3.3165321350097656
v -1.4191901683807373 5.295799732208252 -2.7625315189361572
v 1.9357094764709473 3.3507978916168213 -1.2674435377120972
v 1.0320212841033936 4.017946243286133 -0.6867303848266602
v 0.6858904361724854 3.6470255851745605 0.25339487195014954
v 1.95933198928833 3.6946072578430176 -2.1117660999298096
v 2.2171647548675537 2.451488971710205 -2.5780656337738037
v 1.2959626913070679 3.901402711868286 -2.709317445755005
v 1.4307252168655396 0.9922383427619934 -3.130322217941284
v 0.5690653324127197 4.039144039154053 -2.6502654552459717
v 0.14666064083576202 1.3786230087280273 -3.4922804832458496
v -1.8794312477111816 1.8036779165267944 -2.50957989692688
v -0.4094052314758301 4.885501861572266 -0.027225174009799957
v 0.370072603225708 4.752119541168213 -1.7635356187820435
v 1.4259639978408813 4.25921630859375 -2.106748580932617
v 0.10519358515739441 4.75795316696167 -1.8836426734924316
v -0.8206364512443542 5.615907192230225 0.3290099501609802
v -0.8789411187171936 5.882630825042725 1.1759915351867676
v -1.6269983053207397 6.352209568023682 0.11630943417549133
v -0.3302038013935089 5.545542240142822 -1.9279295206069946
v -0.6984092593193054 5.398378849029541 1.8723703622817993
v -2.174109935760498 7.0166707038879395 1.1644840240478516
v -2.2465431690216064 6.916163921356201 0.04903183877468109
v -2.0583415031433105 6.39826774597168 -0.5407641530036926
v -2.9256699085235596 5.68200159072876 -0.3380489945411682
v -2.9065845012664795 6.1592936515808105 0.07852042466402054
v -2.6333141326904297 6.228099822998047 -0.3823750913143158
v -2.6298577785491943 6.892641544342041 0.28043684363365173
v -2.8817410469055176 5.580930233001709 1.3030940294265747
v -2.5555226802825928 6.9211907386779785 1.034759521484375
v -1.6807786226272583 4.958003997802734 2.3468222618103027
v -1.800385594367981 6.455169200897217 1.9578423500061035
v -1.267465591430664 5.636131763458252 2.226454257965088
v -1.4380263090133667 6.343227863311768 1.961955189704895
v -2.00308895111084 5.644530296325684 -2.2700769901275635
v -1.8085763454437256 6.291399002075195 -2.0342085361480713
v 0.27197736501693726 -6.7798357009887695 -3.0011982917785645
v 1.6902432441711426 -0.4695970118045807 -3.2067010402679443
v 2.923272132873535 -0.4696047604084015 -3.132700204849243
v 0.18897902965545654 -0.4695979356765747 -3.772409677505493
v -2.0054702758789062 -0.46959951519966125 -2.6831703186035156
v -3.259918689727783 1.7781257629394531 -0.3538782298564911
v -1.848239541053772 -6.2019171714782715 -3.2274792194366455
v -3.453143358230591 -6.291177272796631 -1.0368964672088623
v -3.4512853622436523 -6.290534973144531 -1.0364362001419067
v -3.896256685256958 -6.716140270233154 0.1476105898618698
v -0.9375377297401428 -6.837629795074463 0.6924497485160828
v 1.7236948013305664 -4.6753106117248535 1.9101793766021729
v -0.7643488049507141 -6.164272308349609 3.3237698078155518
v 1.7264000177383423 -4.673129558563232 1.9091203212738037
v -0.5104202628135681 -6.812171936035156 -1.2696481943130493
v 1.7264000177383423 -4.673129558563232 1.9091203212738037
v 2.3024845123291016 -0.4695986211299896 0.9956644177436829
v 1.9703600406646729 -4.7594895362854 0.5180670022964478
v 2.6431782245635986 -5.0641350746154785 -1.2750705480575562
v 2.161468029022217 -5.194316864013672 -2.9097890853881836
v 2.736953020095825 0.6494697332382202 -2.9827606678009033
v 3.2275590896606445 0.6509453654289246 -1.445784091949463
v 3.4473319053649902 -0.46960899233818054 -1.508504867553711
v 1.931292176246643 0.9034983515739441 0.7462382316589355
v 1.503754734992981 -0.4695960283279419 1.2842966318130493
v 1.3316112756729126 1.1832447052001953 1.2189961671829224
v 0.5645785927772522 3.5292091369628906 0.990153968334198
v 0.8260308504104614 3.148582696914673 2.0919644832611084
v 1.3803255558013916 1.0831009149551392 2.2243921756744385
v 1.5118712186813354 -0.469597727060318 2.4960415363311768
v -0.7643488049507141 -6.164272308349609 3.3237698078155518
v 0.8263260722160339 -0.4695959687232971 3.259916305541992
v 0.7191332578659058 1.126819133758545 3.012469530105591
v 0.4284733831882477 3.4389779567718506 2.592717409133911
v -0.16224950551986694 5.145294189453125 1.1681959629058838
v -0.670942485332489 1.551838994026184 2.939657211303711
v -0.8923673629760742 4.469889163970947 2.355668306350708
v -0.5811733603477478 4.365363121032715 2.26701283454895
v -0.30903157591819763 1.4792134761810303 2.726318836212158
v -0.2866503596305847 -0.46959856152534485 3.2340900897979736
v -0.6050694584846497 -0.4695976674556732 3.4406020641326904
v -3.429427146911621 1.931010365486145 0.1761561781167984
v -3.105644941329956 2.0509109497070312 1.5798901319503784
v -1.47385835647583 1.728737473487854 2.874591112136841
v -1.3772540092468262 -0.46960026025772095 3.4320812225341797
v -2.125281572341919 -5.3419671058654785 3.4578115940093994
v -3.2189056873321533 -0.469597727060318 2.1311655044555664
v -3.8674333095550537 -0.469597727060318 0.5814018845558167
v -3.778470039367676 -0.4695977568626404 -0.21313458681106567
vn -0.49015653133392334 -0.6404098868370056 0.5912882089614868
vn 0.07622404396533966 -0.9707809090614319 0.22753965854644775
vn 0.13415446877479553 -0.6054348945617676 0.7845069169998169
vn 0.3686473071575165 0.8479720950126648 -0.380844384431839
vn 0.08790092170238495 0.6345124244689941 -0.7678980827331543
vn 0.016648195683956146 0.9127367734909058 -0.4082087576389313
vn 0.030303651466965675 0.23312032222747803 -0.9719756245613098
vn -0.24101360142230988 0.34015893936157227 -0.908957839012146
vn 0.4670781195163727 0.8222930431365967 0.32507258653640747
vn 0.26227980852127075 0.9069780111312866 0.32954534888267517
vn 0.3492622971534729 0.8634305000305176 0.36401045322418213
vn 0.5098361372947693 0.8442991375923157 -0.16500332951545715
vn 0.51790452003479 0.6027045249938965 -0.6070602536201477
vn 0.12965969741344452 0.652800977230072 -0.7463506460189819
vn 0.11900005489587784 0.2534353733062744 -0.9600049257278442
vn 0.1636178195476532 0.6624147295951843 -0.7310512065887451
vn 0.0012362813577055931 0.21401220560073853 -0.9768301844596863
vn -0.40419796109199524 0.08350983262062073 -0.9108512997627258
vn 0.4101042151451111 0.9092464447021484 0.07131187617778778
vn 0.1124337762594223 0.9889341592788696 -0.0967877134680748
vn 0.21976575255393982 0.9694259166717529 -0.10916206240653992
vn 0.2781422734260559 0.960210919380188 -0.025136733427643776
vn 0.3416218161582947 0.9385298490524292 -0.04956066980957985
vn 0.2881031334400177 0.9559289216995239 0.05653759464621544
vn 0.28123894333839417 0.9263207912445068 -0.25066807866096497
vn 0.3020128309726715 0.9518696069717407 -0.05227353051304817
vn 0.29307034611701965 0.812358558177948 0.5041659474372864
vn 0.039173562079668045 0.9800102114677429 0.19505244493484497
vn 0.045925941318273544 0.9512497186660767 -0.3049832284450531
vn 0.05957746505737305 0.9773691892623901 -0.20297777652740479
vn -0.7104512453079224 0.5085435509681702 -0.4864591062068939
vn -0.6988251805305481 0.6943984031677246 -0.17162249982357025
vn -0.33443090319633484 0.8227694034576416 -0.45957207679748535
vn -0.33230340480804443 0.9286825656890869 -0.16469097137451172
vn -0.6123639345169067 0.4503780007362366 0.6497461795806885
vn -0.35177528858184814 0.868803083896637 0.3484756648540497
vn -0.16619887948036194 0.26525378227233887 0.9497464895248413
vn -0.1294507086277008 0.6852524280548096 0.7167088985443115
vn 0.1331424117088318 0.4628385901451111 0.8763866424560547
vn 0.241069033741951 0.8850299119949341 0.39825594425201416
vn -0.44494158029556274 0.4414237141609192 -0.779212474822998
vn -0.1408664733171463 0.9253358244895935 -0.3520089387893677
vn 0.13533331453800201 -0.8736446499824524 -0.4673648774623871
vn 0.08518165349960327 0.009663370437920094 -0.9963185787200928
vn 0.46336111426353455 0.03887953236699104 -0.8853162527084351
vn -0.0033213908318430185 0.06466975808143616 -0.997901201248169
vn -0.38992151618003845 0.15411143004894257 -0.9078605771064758
vn -0.6609572172164917 0.2759907841682434 -0.6978285312652588
vn -0.22442273795604706 -0.6552244424819946 -0.7213289141654968
vn -0.3315128684043884 -0.7848021388053894 -0.5236265659332275
vn 0.046480417251586914 -0.9972008466720581 -0.05856696888804436
vn -0.5018317103385925 -0.8432466983795166 -0.19261328876018524
vn 0.08628050237894058 -0.9960436224937439 -0.021278824657201767
vn 0.27864089608192444 -0.9147601127624512 0.29252898693084717
vn 0.13415446877479553 -0.6054348945617676 0.7845069169998169
vn 0.49973148107528687 -0.647041916847229 0.5758516788482666
vn 0.046639569103717804 -0.9989061951637268 -0.0033385963179171085
vn 0.49973148107528687 -0.647041916847229 0.5758516788482666
vn 0.477639377117157 0.23835434019565582 0.8456050157546997
vn 0.49624115228652954 -0.788011372089386 0.36439380049705505
vn 0.554211437702179 -0.8269810080528259 0.0946156457066536
vn 0.32475823163986206 -0.7006319761276245 -0.6353321671485901
vn 0.38357698917388916 0.5239054560661316 -0.7605206966400146
vn 0.7014569044113159 0.7047767043113708 0.10605673491954803
vn 0.9968885779380798 0.028285466134548187 0.0735740140080452
vn 0.40601739287376404 0.5528822541236877 0.727647602558136
vn 0.6363344788551331 0.3278757929801941 0.698266327381134
vn 0.6669949293136597 0.5384827256202698 0.5149311423301697
vn 0.518065333366394 0.8539298176765442 0.04911456257104874
vn 0.6003099083900452 0.7520619630813599 0.27208611369132996
vn 0.753905713558197 0.48606571555137634 0.4420025944709778
vn 0.7610674500465393 0.10093285143375397 0.6407721042633057
vn 0.13415446877479553 -0.6054348945617676 0.7845069169998169
vn 0.25569993257522583 0.01982639543712139 0.9665528535842896
vn 0.1946689933538437 0.3329123556613922 0.9226447343826294
vn 0.22597013413906097 0.5906991362571716 0.7746044397354126
vn 0.4000605642795563 0.9164878129959106 -0.0012858904665336013
vn 0.13455919921398163 0.3406454920768738 0.9305130243301392
vn 0.11334589868783951 0.2992265224456787 0.9474260807037354
vn 0.0857137143611908 0.396366685628891 0.914082407951355
vn 0.07616014033555984 0.32147228717803955 0.9438512921333313
vn 0.10406108945608139 0.14278697967529297 0.9842678308486938
vn 0.16396558284759521 0.09574680030345917 0.9818084239959717
vn -0.8914860486984253 0.43508297204971313 -0.1263149380683899
vn -0.589709460735321 0.3202979862689972 0.7413851618766785
vn -0.16411970555782318 0.28078651428222656 0.9456340074539185
vn -0.1353403776884079 0.2085355818271637 0.968605101108551
vn -0.1355637013912201 -0.2582865059375763 0.9565095901489258
vn -0.49699702858924866 0.27720195055007935 0.8222852349281311
vn -0.9249818921089172 0.3126819431781769 0.21595950424671173
vn -0.7781233191490173 0.24409259855747223 -0.578742504119873
vt 0.7219329476356506 0.9178838133811951
vt 0.7479538321495056 0.9859976768493652
vt 0.9800983667373657 0.9259802103042603
vt 0.05272947996854782 0.9060315489768982
vt 0.16844043135643005 0.7156333923339844
vt 0.266910582780838 0.7719106078147888
vt 0.12101036310195923 0.5812743306159973
vt 0.21061913669109344 0.6191446185112
vt 0.34423455595970154 0.5450259447097778
vt 0.45103785395622253 0.650284469127655
vt 0.5401104092597961 0.6319365501403809
vt 0.2037183940410614 0.5571737885475159
vt 0.17786888778209686 0.45753371715545654
vt 0.08357862383127213 0.6282652020454407
vt 0.03179618716239929 0.22844183444976807
vt 0.015071935020387173 0.6288672685623169
vt 0.12476250529289246 0.2530277967453003
vt 0.29993507266044617 0.2397896647453308
vt 0.5182944536209106 0.8907329440116882
vt 0.2404070794582367 0.790169894695282
vt 0.21845942735671997 0.6591218113899231
vt 0.2369406521320343 0.8350512981414795
vt 0.5338245034217834 0.9822596311569214
vt 0.7479784488677979 0.986177384853363
vt 0.5747509002685547 0.9362409114837646
vt 0.18929819762706757 0.9643544554710388
vt 0.9827316403388977 0.9252973198890686
vt 0.7219329476356506 0.9178838133811951
vt 0.5922773480415344 0.883660614490509
vt 0.4816840887069702 0.8393095135688782
vt 0.4606686234474182 0.6168714761734009
vt 0.5439900159835815 0.6594204902648926
vt 0.5032349228858948 0.7753304839134216
vt 0.5897543430328369 0.8375257849693298
vt 0.653611421585083 0.6072907447814941
vt 0.7078126072883606 0.8433416485786438
vt 0.7723616361618042 0.5995432734489441
vt 0.8175749182701111 0.7600659132003784
vt 0.8818188905715942 0.7547239661216736
vt 0.8365732431411743 0.8047423958778381
vt 0.2869069576263428 0.6274102926254272
vt 0.320304274559021 0.7254635691642761
vt 0.18929819762706757 0.9643544554710388
vt 0.013513993471860886 0.01421743631362915
vt 0.12045673280954361 0.010650336742401123
vt 0.12804770469665527 0.014233887195587158
vt 0.29261261224746704 0.013577759265899658
vt 0.4563673138618469 0.2214137315750122
vt 0.266910582780838 0.7719106078147888
vt 0.4816840887069702 0.8393095135688782
vt 0.4816840887069702 0.8393095135688782
vt 0.5922773480415344 0.883660614490509
vt 0.533700704574585 0.9820544719696045
vt 0.6476370692253113 0.6284618973731995
vt 0.9799937009811401 0.9263973236083984
vt 0.6462717652320862 0.6235957741737366
vt 0.3964153230190277 0.9725890755653381
vt 0.6449005603790283 0.6237034797668457
vt 0.579380989074707 0.022040367126464844
vt 0.5401104092597961 0.6319365501403809
vt 0.45103785395622253 0.650284469127655
vt 0.21845942735671997 0.6591218113899231
vt 0.14025750756263733 0.2315664291381836
vt 0.36317530274391174 0.22800886631011963
vt 0.34508582949638367 0.012576758861541748
vt 0.5777015089988708 0.236286461353302
vt 0.6772283315658569 0.021254301071166992
vt 0.6727294325828552 0.2848951816558838
vt 0.6462717652320862 0.6235957741737366
vt 0.8033413290977478 0.5642817616462708
vt 0.8142727017402649 0.28571999073028564
vt 0.8095470070838928 0.014315009117126465
vt 0.9827316403388977 0.9252973198890686
vt 0.8960665464401245 0.020753204822540283
vt 0.8862454295158386 0.2657599449157715
vt 0.8746379613876343 0.5787063241004944
vt 0.6960387825965881 0.9099993109703064
vt 0.945299506187439 0.24444234371185303
vt 0.922104001045227 0.5943902730941772
vt 0.9830297231674194 0.6083859801292419
vt 0.9860020875930786 0.2449491024017334
vt 0.9911949038505554 0.014076828956604004
vt 0.9560534954071045 0.013367652893066406
vt 0.5126745700836182 0.22371608018875122
vt 0.6621787548065186 0.2313634157180786
vt 0.7988919615745544 0.2427581548690796
vt 0.8534583449363708 0.013697147369384766
vt 0.8365732431411743 0.8047423958778381
vt 0.7145281434059143 0.013235986232757568
vt 0.5490227937698364 0.013072550296783447
vt 0.4641709327697754 0.013094961643218994
g Geoset0
s 1
usemtl mat_sholazar_rockb
f 1/1/1 2/2/2 3/3/3
f 4/4/4 5/5/5 6/6/6
f 7/7/7 5/5/5 4/4/4
f 5/5/5 7/7/7 8/8/8
f 8/8/8 6/6/6 5/5/5
f 9/9/9 10/10/10 11/11/11
f 10/10/10 9/9/9 12/12/12
f 13/13/13 12/12/12 9/9/9
f 14/14/14 12/12/12 13/13/13
f 13/13/13 15/15/15 14/14/14
f 15/15/15 16/16/16 14/14/14
f 16/16/16 15/15/15 17/17/17
f 17/17/17 7/7/7 16/16/16
f 7/7/7 17/17/17 18/18/18
f 18/18/18 8/8/8 7/7/7
f 19/19/19 10/10/10 20/20/20
f 21/21/21 20/20/20 10/10/10
f 12/12/12 21/21/21 10/10/10
f 21/21/21 12/12/12 14/14/14
f 14/14/14 20/20/20 21/21/21
f 22/22/22 20/20/20 14/14/14
f 19/19/19 20/20/20 22/22/22
f 23/23/23 19/19/19 22/22/22
f 19/19/19 23/23/23 24/24/24
f 23/23/23 25/25/25 24/24/24
f 22/22/22 26/26/26 23/23/23
f 26/26/26 22/22/22 16/16/16
f 14/14/14 16/16/16 22/22/22
f 27/27/27 24/24/24 28/28/28
f 29/29/29 28/28/28 24/24/24
f 24/24/24 25/25/25 29/29/29
f 30/30/30 29/29/29 25/25/25
f 23/23/23 30/30/30 25/25/25
f 23/23/23 6/6/6 30/30/30
f 23/23/23 26/26/26 6/6/6
f 6/6/6 26/26/26 4/4/4
f 16/16/16 4/4/4 26/26/26
f 4/4/4 16/16/16 7/7/7
f 31/31/31 32/32/32 33/33/33
f 33/33/33 32/32/32 34/34/34
f 34/34/34 32/32/32 35/35/35
f 35/35/35 36/36/36 34/34/34
f 36/36/36 35/35/35 37/37/37
f 37/37/37 38/38/38 36/36/36
f 39/39/39 38/38/38 37/37/37
f 39/39/39 40/40/40 38/38/38
f 27/27/27 40/40/40 39/39/39
f 28/28/28 40/40/40 27/27/27
f 38/38/38 40/40/40 28/28/28
f 41/41/41 8/8/8 18/18/18
f 6/6/6 8/8/8 41/41/41
f 41/41/41 42/42/42 6/6/6
f 30/30/30 6/6/6 42/42/42
f 42/42/42 33/33/33 30/30/30
f 29/29/29 30/30/30 33/33/33
f 33/33/33 34/34/34 29/29/29
f 28/28/28 29/29/29 34/34/34
f 34/34/34 36/36/36 28/28/28
f 28/28/28 36/36/36 38/38/38
f 33/33/33 42/42/42 41/41/41
f 43/43/43 44/44/44 45/45/45
f 45/45/45 44/44/44 15/15/15
f 15/15/15 44/44/44 46/46/46
f 46/46/46 17/17/17 15/15/15
f 17/17/17 46/46/46 47/47/47
f 47/47/47 18/18/18 17/17/17
f 48/48/48 18/18/18 47/47/47
f 41/41/41 18/18/18 48/48/48
f 48/48/48 31/31/31 41/41/41
f 41/41/41 31/31/31 33/33/33
f 47/47/47 46/46/46 49/49/49
f 47/47/47 49/49/49 50/50/50
f 51/51/51 50/50/50 49/49/49
f 52/52/52 50/50/50 51/51/51
f 53/53/53 52/52/52 51/51/51
f 52/52/52 53/53/53 2/2/2
f 54/54/54 2/2/2 53/53/53
f 55/55/55 2/2/2 54/54/54
f 55/55/55 54/54/54 56/56/56
f 46/46/46 44/44/44 43/43/43
f 43/43/43 49/49/49 46/46/46
f 57/57/57 49/49/49 43/43/43
f 57/57/57 51/51/51 49/49/49
f 53/53/53 51/51/51 57/57/57
f 58/58/58 54/54/54 53/53/53
f 59/59/59 60/60/60 61/61/61
f 58/58/58 60/60/60 59/59/59
f 53/53/53 60/60/60 58/58/58
f 61/61/61 60/60/60 53/53/53
f 53/53/53 57/57/57 61/61/61
f 62/62/62 61/61/61 57/57/57
f 57/57/57 43/43/43 62/62/62
f 45/45/45 62/62/62 43/43/43
f 13/13/13 63/63/63 15/15/15
f 15/15/15 63/63/63 45/45/45
f 64/64/64 65/65/65 45/45/45
f 45/45/45 63/63/63 64/64/64
f 9/9/9 64/64/64 63/63/63
f 63/63/63 13/13/13 9/9/9
f 61/61/61 62/62/62 45/45/45
f 45/45/45 65/65/65 61/61/61
f 61/61/61 65/65/65 59/59/59
f 59/59/59 65/65/65 64/64/64
f 64/64/64 66/66/66 59/59/59
f 9/9/9 66/66/66 64/64/64
f 9/9/9 11/11/11 66/66/66
f 59/59/59 67/67/67 56/56/56
f 67/67/67 59/59/59 66/66/66
f 66/66/66 68/68/68 67/67/67
f 69/69/69 68/68/68 66/66/66
f 68/68/68 69/69/69 70/70/70
f 70/70/70 71/71/71 68/68/68
f 67/67/67 68/68/68 71/71/71
f 71/71/71 72/72/72 67/67/67
f 56/56/56 67/67/67 72/72/72
f 73/73/73 56/56/56 72/72/72
f 66/66/66 11/11/11 69/69/69
f 73/73/73 72/72/72 74/74/74
f 75/75/75 74/74/74 72/72/72
f 72/72/72 71/71/71 75/75/75
f 76/76/76 75/75/75 71/71/71
f 71/71/71 70/70/70 76/76/76
f 77/77/77 76/76/76 70/70/70
f 70/70/70 69/69/69 77/77/77
f 19/19/19 77/77/77 69/69/69
f 69/69/69 11/11/11 19/19/19
f 19/19/19 11/11/11 10/10/10
f 77/77/77 24/24/24 27/27/27
f 24/24/24 77/77/77 19/19/19
f 78/78/78 79/79/79 37/37/37
f 37/37/37 79/79/79 39/39/39
f 39/39/39 79/79/79 80/80/80
f 80/80/80 27/27/27 39/39/39
f 80/80/80 76/76/76 27/27/27
f 27/27/27 76/76/76 77/77/77
f 81/81/81 80/80/80 79/79/79
f 76/76/76 80/80/80 81/81/81
f 81/81/81 75/75/75 76/76/76
f 79/79/79 78/78/78 81/81/81
f 82/82/82 74/74/74 75/75/75
f 75/75/75 81/81/81 82/82/82
f 83/83/83 82/82/82 81/81/81
f 81/81/81 78/78/78 83/83/83
f 84/84/84 85/85/85 35/35/35
f 37/37/37 35/35/35 85/85/85
f 85/85/85 86/86/86 37/37/37
f 37/37/37 86/86/86 78/78/78
f 78/78/78 86/86/86 87/87/87
f 87/87/87 83/83/83 78/78/78
f 88/88/88 83/83/83 87/87/87
f 82/82/82 83/83/83 88/88/88
f 88/88/88 73/73/73 82/82/82
f 73/73/73 74/74/74 82/82/82
f 84/84/84 32/32/32 31/31/31
f 35/35/35 32/32/32 84/84/84
f 31/31/31 48/48/48 84/84/84
f 86/86/86 85/85/85 89/89/89
f 90/90/90 89/89/89 85/85/85
f 85/85/85 84/84/84 90/90/90
f 91/91/91 90/90/90 84/84/84
f 84/84/84 48/48/48 91/91/91
f 47/47/47 91/91/91 48/48/48
f 89/89/89 87/87/87 86/86/86
f 87/87/87 89/89/89 1/1/1
f 1/1/1 89/89/89 90/90/90
f 90/90/90 52/52/52 1/1/1
f 52/52/52 90/90/90 91/91/91
f 91/91/91 50/50/50 52/52/52
f 50/50/50 91/91/91 47/47/47
f 73/73/73 88/88/88 1/1/1
f 1/1/1 88/88/88 87/87/87
f 2/2/2 1/1/1 52/52/52
