# Exported using wow.export v0.1.64
o sholazar_rocksmalld
mtllib sholazar_rocksmalld.mtl
v 0.49655571579933167 -0.031713392585515976 0.19047528505325317
v 0.5361490249633789 0.12729257345199585 0.2174011766910553
v 0.5436270833015442 0.07872981578111649 0.5070075988769531
v -0.016034575179219246 -0.16669297218322754 -0.7381605505943298
v -0.42291444540023804 -0.09650851786136627 -0.6147091388702393
v -0.47588565945625305 0.1598454862833023 -0.697938859462738
v -0.041742682456970215 -0.2352401465177536 -0.4608081877231598
v -0.2305411994457245 -0.2130681872367859 -0.38487663865089417
v -0.029645957052707672 -0.17692239582538605 -0.018440552055835724
v -0.33743542432785034 -0.17497305572032928 -0.11499934643507004
v -0.3604123592376709 -0.13514795899391174 0.10325935482978821
v -0.5880434513092041 -0.03171355649828911 0.1904752403497696
v -0.5115529894828796 -0.02405143715441227 0.4572161138057709
v -0.5904034376144409 0.07872964441776276 0.5070075988769531
v -0.3639375865459442 0.0700521245598793 0.721735954284668
v -0.4910328686237335 -0.058941688388586044 -0.22196121513843536
v -0.6215874552726746 0.12729240953922272 0.21740110218524933
v -0.5115530490875244 0.22513890266418457 0.4572161138057709
v -0.32097676396369934 0.2073887139558792 0.6444671750068665
v -0.49103298783302307 0.3753272593021393 -0.22196130454540253
v -0.5880434513092041 0.27983662486076355 0.19047513604164124
v -0.34231841564178467 0.34326401352882385 0.28144946694374084
v -0.36041244864463806 0.37074097990989685 0.1032593622803688
v -0.24743692576885223 0.3198142349720001 0.391554594039917
v -0.029645945876836777 0.4642411470413208 -0.018440445885062218
v -0.33743560314178467 0.44063735008239746 -0.11499933153390884
v -0.4229145646095276 0.41172778606414795 -0.6147089600563049
v 0.008272231556475163 0.32538577914237976 0.4064773619174957
v 0.20338991284370422 0.34816285967826843 0.3365021347999573
v 0.2689247131347656 0.40207991003990173 0.10325942188501358
v 0.49655571579933167 0.335310161113739 0.19047518074512482
v 0.42627888917922974 0.37532737851142883 -0.14598071575164795
v 0.4262787997722626 -0.05894152447581291 -0.14598065614700317
v 0.21596261858940125 0.4406374990940094 -0.11499925702810287
v -0.23054112493991852 0.5238106846809387 -0.3848767578601837
v 0.2630142569541931 0.4117279648780823 -0.5464352369308472
v 0.10548388212919235 0.49647125601768494 -0.32950568199157715
v -0.041742682456970215 0.526369571685791 -0.46080806851387024
v -0.01603478379547596 0.4325849115848541 -0.7381606101989746
v 0.0232810340821743 0.11340609937906265 -0.875021755695343
v 0.10548391938209534 -0.21306796371936798 -0.32950541377067566
v 0.2159624844789505 -0.17497292160987854 -0.11499933153390884
v 0.26301416754722595 -0.09650832414627075 -0.5464352965354919
v 0.33784908056259155 0.15984566509723663 -0.6296650767326355
v -0.2948776185512543 -0.10258922725915909 0.33650198578834534
v 0.0082723218947649 -0.09820082038640976 0.4064772427082062
v 0.2689245939254761 -0.135147824883461 0.1032593846321106
v 0.20338983833789825 -0.09581511467695236 0.3365020155906677
v 0.0010105042019858956 -0.02020459622144699 0.7335056066513062
v -0.32097679376602173 -0.026556124910712242 0.6444671154022217
v -0.016503367573022842 0.08738032728433609 0.8000479936599731
v 0.28626611828804016 -0.02655593864619732 0.6444671750068665
v 0.46477657556533813 -0.024051252752542496 0.4572161138057709
v 0.32922691106796265 0.07005230337381363 0.7217360138893127
v 0.0010102175874635577 0.2260134220123291 0.6972945928573608
v 0.28626611828804016 0.2423170953989029 0.6444672346115112
v 0.46477657556533813 0.28061237931251526 0.45721617341041565
vn 0.9788388013839722 -0.20422890782356262 -0.012851360253989697
vn 0.9913507699966431 0.0007831132388673723 -0.1312364786863327
vn 0.9120445847511292 -0.03458316624164581 0.40863028168678284
vn 0.15367162227630615 -0.32123860716819763 -0.9344468116760254
vn -0.7942370176315308 -0.20101040601730347 -0.5733954906463623
vn -0.7568106651306152 0.00637102359905839 -0.6536030769348145
vn 0.13445493578910828 -0.8778795599937439 -0.4596186876296997
vn -0.7577559947967529 -0.6355962753295898 -0.14772675931453705
vn 0.018753143027424812 -0.7795424461364746 0.6260685920715332
vn -0.8050596117973328 -0.5634018182754517 0.1856270134449005
vn -0.649547815322876 -0.5896323919296265 0.480022132396698
vn -0.9790614247322083 -0.1977968066930771 0.048116181045770645
vn -0.8056288957595825 -0.2991240322589874 0.511357843875885
vn -0.8780137300491333 -0.01615767367184162 0.47836264967918396
vn -0.4654202163219452 -0.027461880818009377 0.8846637010574341
vn -0.976870059967041 -0.1682865470647812 -0.131926029920578
vn -0.9997524619102478 0.0177290141582489 0.013443214818835258
vn -0.7845425605773926 0.21502584218978882 0.5815985798835754
vn -0.4234391748905182 0.23946347832679749 0.8737027645111084
vn -0.9752787947654724 0.22037775814533234 0.01627524010837078
vn -0.9578922986984253 0.20583635568618774 0.2001841515302658
vn -0.5609074831008911 0.4751585125923157 0.6779433488845825
vn -0.7259526252746582 0.4852721691131592 0.48734354972839355
vn -0.28128787875175476 0.4439499080181122 0.8507558703422546
vn 0.010187629610300064 0.6637858152389526 0.7478533387184143
vn -0.768092691898346 0.4398094713687897 0.4654044210910797
vn -0.773645281791687 0.22214865684509277 -0.5933994650840759
vn -0.06709522008895874 0.49276626110076904 0.8675711154937744
vn 0.2188444286584854 0.5386750102043152 0.8135946989059448
vn 0.5867019295692444 0.5964853167533875 0.5477098822593689
vn 0.939655065536499 0.28357845544815063 0.19139385223388672
vn 0.9605371952056885 0.24866966903209686 -0.12462624162435532
vn 0.9651606678962708 -0.16857722401618958 -0.20011644065380096
vn 0.7673460245132446 0.5838605165481567 0.26511698961257935
vn -0.6928627490997314 0.7181465029716492 -0.06485997140407562
vn 0.8060442209243774 0.25201332569122314 -0.5355203151702881
vn 0.7885292172431946 0.6136974692344666 0.03996306657791138
vn 0.3642961382865906 0.7754340767860413 -0.5157424807548523
vn 0.16137342154979706 0.2627074718475342 -0.9512851238250732
vn 0.16961799561977386 -0.016990862786769867 -0.9853634238243103
vn 0.7605963945388794 -0.647710382938385 -0.044321268796920776
vn 0.7881286144256592 -0.5855100154876709 0.18981923162937164
vn 0.8347843885421753 -0.19484522938728333 -0.5149468779563904
vn 0.8261894583702087 0.0073394677601754665 -0.5633445382118225
vn -0.4057020843029022 -0.6305965781211853 0.6616296172142029
vn 0.09650371223688126 -0.6720621585845947 0.7341794967651367
vn 0.6742681860923767 -0.5960903167724609 0.4359343349933624
vn 0.38134968280792236 -0.6452859044075012 0.6619505286216736
vn 0.029868109151721 -0.3059398829936981 0.9515821933746338
vn -0.43513891100883484 -0.33456796407699585 0.8358937501907349
vn -0.0057022469118237495 0.010582801885902882 0.9999277591705322
vn 0.45852336287498474 -0.35130634903907776 0.8162966370582581
vn 0.843875527381897 -0.3134572207927704 0.43545228242874146
vn 0.4744735360145569 -0.037121791392564774 0.8794866800308228
vn -0.05172465741634369 0.2774001657962799 0.9593610763549805
vn 0.36067408323287964 0.2488168627023697 0.8988906145095825
vn 0.767085075378418 0.2682655453681946 0.582764208316803
vt 0.41165006160736084 0.13675516843795776
vt 0.3882805407047272 0.2419741153717041
vt 0.2404942810535431 0.24107831716537476
vt 0.8441576957702637 0.087821364402771
vt 0.6886014342308044 0.1266736388206482
vt 0.7894325256347656 0.2439015507698059
vt 0.6386168599128723 0.03016674518585205
vt 0.6066617369651794 0.060757458209991455
vt 0.45207563042640686 0.025930941104888916
vt 0.5210980772972107 0.08158034086227417
vt 0.4287748336791992 0.08122003078460693
vt 0.41165006160736084 0.13675516843795776
vt 0.2922677993774414 0.12640100717544556
vt 0.2404942810535431 0.24107831716537476
vt 0.09938929975032806 0.23393380641937256
vt 0.55274897813797 0.13637197017669678
vt 0.3882805407047272 0.2419741153717041
vt 0.2616799771785736 0.3477599620819092
vt 0.1446053832769394 0.3617081046104431
vt 0.5962664484977722 0.3156377673149109
vt 0.38046184182167053 0.33964043855667114
vt 0.37868544459342957 0.4199848771095276
vt 0.4577820301055908 0.4140908122062683
vt 0.2990499436855316 0.42990338802337646
vt 0.49797725677490234 0.486744225025177
vt 0.5586031675338745 0.4243955612182617
vt 0.7985735535621643 0.3328564763069153
vt 0.24001926183700562 0.4667355418205261
vt 0.3388676941394806 0.4249441623687744
vt 0.4577820301055908 0.4140908122062683
vt 0.38046184182167053 0.33964043855667114
vt 0.5962664484977722 0.3156377673149109
vt 0.55274897813797 0.13637197017669678
vt 0.5586031675338745 0.4243955612182617
vt 0.6568431854248047 0.43873119354248047
vt 0.7985735535621643 0.3328564763069153
vt 0.6568431854248047 0.43873119354248047
vt 0.7569041848182678 0.47303837537765503
vt 0.9383694529533386 0.36137568950653076
vt 0.9940801858901978 0.23424619436264038
vt 0.6066617369651794 0.060757458209991455
vt 0.5210980772972107 0.08158034086227417
vt 0.6886014342308044 0.1266736388206482
vt 0.7894325256347656 0.2439015507698059
vt 0.32763129472732544 0.06177568435668945
vt 0.26130563020706177 0.03032541275024414
vt 0.4287748336791992 0.08122003078460693
vt 0.32763129472732544 0.06177568435668945
vt 0.10779236257076263 0.08061951398849487
vt 0.1834048479795456 0.10996317863464355
vt 0.004970449488610029 0.23153722286224365
vt 0.1834048479795456 0.10996317863464355
vt 0.2922677993774414 0.12640100717544556
vt 0.09938929975032806 0.23393380641937256
vt 0.047499921172857285 0.3869958519935608
vt 0.1446053832769394 0.3617081046104431
vt 0.2616799771785736 0.3477599620819092
g Geoset0
s 1
usemtl mat_sholazar_rockriver
f 1/1/1 2/2/2 3/3/3
f 4/4/4 5/5/5 6/6/6
f 5/5/5 4/4/4 7/7/7
f 7/7/7 8/8/8 5/5/5
f 8/8/8 7/7/7 9/9/9
f 10/10/10 8/8/8 9/9/9
f 11/11/11 10/10/10 9/9/9
f 10/10/10 11/11/11 12/12/12
f 13/13/13 12/12/12 11/11/11
f 12/12/12 13/13/13 14/14/14
f 15/15/15 14/14/14 13/13/13
f 16/16/16 5/5/5 8/8/8
f 5/5/5 16/16/16 17/17/17
f 8/8/8 10/10/10 16/16/16
f 12/12/12 16/16/16 10/10/10
f 16/16/16 12/12/12 17/17/17
f 14/14/14 17/17/17 12/12/12
f 17/17/17 14/14/14 18/18/18
f 19/19/19 18/18/18 14/14/14
f 20/20/20 17/17/17 21/21/21
f 18/18/18 21/21/21 17/17/17
f 21/21/21 18/18/18 22/22/22
f 22/22/22 23/23/23 21/21/21
f 20/20/20 21/21/21 23/23/23
f 24/24/24 22/22/22 18/18/18
f 22/22/22 24/24/24 25/25/25
f 23/23/23 22/22/22 25/25/25
f 26/26/26 23/23/23 25/25/25
f 23/23/23 26/26/26 20/20/20
f 27/27/27 20/20/20 26/26/26
f 27/27/27 17/17/17 20/20/20
f 27/27/27 6/6/6 17/17/17
f 6/6/6 5/5/5 17/17/17
f 18/18/18 19/19/19 24/24/24
f 28/28/28 24/24/24 19/19/19
f 24/24/24 28/28/28 25/25/25
f 28/28/28 29/29/29 25/25/25
f 29/29/29 30/30/30 25/25/25
f 31/31/31 30/30/30 29/29/29
f 30/30/30 31/31/31 32/32/32
f 2/2/2 32/32/32 31/31/31
f 33/33/33 32/32/32 2/2/2
f 1/1/1 33/33/33 2/2/2
f 30/30/30 34/34/34 25/25/25
f 32/32/32 34/34/34 30/30/30
f 26/26/26 35/35/35 27/27/27
f 35/35/35 26/26/26 25/25/25
f 34/34/34 32/32/32 36/36/36
f 36/36/36 37/37/37 34/34/34
f 34/34/34 37/37/37 25/25/25
f 37/37/37 38/38/38 25/25/25
f 38/38/38 35/35/35 25/25/25
f 35/35/35 38/38/38 39/39/39
f 39/39/39 27/27/27 35/35/35
f 27/27/27 39/39/39 40/40/40
f 40/40/40 6/6/6 27/27/27
f 6/6/6 40/40/40 4/4/4
f 41/41/41 42/42/42 9/9/9
f 7/7/7 41/41/41 9/9/9
f 43/43/43 41/41/41 7/7/7
f 7/7/7 4/4/4 43/43/43
f 44/44/44 43/43/43 4/4/4
f 4/4/4 40/40/40 44/44/44
f 36/36/36 44/44/44 40/40/40
f 40/40/40 39/39/39 36/36/36
f 37/37/37 36/36/36 39/39/39
f 39/39/39 38/38/38 37/37/37
f 41/41/41 43/43/43 33/33/33
f 33/33/33 43/43/43 44/44/44
f 33/33/33 44/44/44 32/32/32
f 44/44/44 36/36/36 32/32/32
f 33/33/33 42/42/42 41/41/41
f 11/11/11 45/45/45 13/13/13
f 45/45/45 11/11/11 9/9/9
f 46/46/46 45/45/45 9/9/9
f 42/42/42 33/33/33 1/1/1
f 1/1/1 47/47/47 42/42/42
f 42/42/42 47/47/47 9/9/9
f 47/47/47 48/48/48 9/9/9
f 48/48/48 46/46/46 9/9/9
f 49/49/49 46/46/46 48/48/48
f 45/45/45 46/46/46 49/49/49
f 49/49/49 50/50/50 45/45/45
f 13/13/13 45/45/45 50/50/50
f 13/13/13 50/50/50 15/15/15
f 51/51/51 15/15/15 50/50/50
f 50/50/50 49/49/49 51/51/51
f 51/51/51 49/49/49 52/52/52
f 48/48/48 52/52/52 49/49/49
f 48/48/48 53/53/53 52/52/52
f 53/53/53 48/48/48 47/47/47
f 47/47/47 1/1/1 53/53/53
f 3/3/3 53/53/53 1/1/1
f 53/53/53 3/3/3 54/54/54
f 54/54/54 52/52/52 53/53/53
f 52/52/52 54/54/54 51/51/51
f 15/15/15 51/51/51 55/55/55
f 55/55/55 51/51/51 54/54/54
f 54/54/54 56/56/56 55/55/55
f 56/56/56 54/54/54 3/3/3
f 3/3/3 57/57/57 56/56/56
f 14/14/14 15/15/15 19/19/19
f 55/55/55 19/19/19 15/15/15
f 19/19/19 55/55/55 28/28/28
f 28/28/28 55/55/55 56/56/56
f 56/56/56 29/29/29 28/28/28
f 56/56/56 57/57/57 29/29/29
f 29/29/29 57/57/57 31/31/31
f 31/31/31 57/57/57 3/3/3
f 3/3/3 2/2/2 31/31/31
