# Exported using wow.export v0.1.64
o sholazar_rocksmalla
mtllib sholazar_rocksmalla.mtl
v 0.5364776849746704 0.2094765454530716 -1.10222327709198
v 0.4624127447605133 0.026719920337200165 -0.962295413017273
v -0.01236250251531601 0.2316666692495346 -1.2802326679229736
v 0.750536322593689 0.4791145920753479 -0.7015513181686401
v 0.46285825967788696 0.4300747513771057 -0.9878904819488525
v 0.24352270364761353 0.598626971244812 -0.6038135290145874
v 0.8833339810371399 0.2412576675415039 -0.7743564248085022
v 0.7505362629890442 0.043813660740852356 -0.7015513181686401
v 0.397846519947052 -0.0808916762471199 -0.4345800578594208
v -0.2985896170139313 0.6365470290184021 0.5352876782417297
v 0.030140604823827744 0.6132161617279053 0.7045414447784424
v 0.011715513654053211 0.6894672513008118 0.016698718070983887
v -0.49461105465888977 0.653934121131897 0.25329869985580444
v -0.49587032198905945 0.6395013332366943 -0.17080093920230865
v -0.46403080224990845 0.6286563277244568 -0.4637026786804199
v -0.6612080335617065 0.47911494970321655 -0.7603803277015686
v -0.8519803881645203 0.5277737379074097 -0.31992006301879883
v -0.8639428615570068 0.5338259935379028 0.3145754635334015
v -0.5775761008262634 0.4309440851211548 0.9151022434234619
v 0.04413387179374695 0.41201677918434143 1.0933393239974976
v 0.2652930021286011 0.6365466117858887 0.5603532791137695
v -0.9969245195388794 0.28277745842933655 -0.3694344460964203
v -1.0162208080291748 0.31240034103393555 0.3218401372432709
v -0.7061192393302917 0.2132093906402588 1.0654747486114502
v 0.07676730304956436 0.15373998880386353 1.2278493642807007
v 0.6012600660324097 0.4309437870979309 0.7916776537895203
v 0.3077257573604584 0.6860628724098206 0.21868938207626343
v -0.8639428615570068 0.06167193874716759 0.31457534432411194
v -0.5775757431983948 -0.0038164875004440546 0.9151022434234619
v 0.12131484597921371 -0.09369321912527084 1.0066145658493042
v 0.7654469609260559 0.21320898830890656 0.899982750415802
v 0.839105486869812 0.5338258147239685 0.2882295250892639
v 0.3790738880634308 0.6395010352134705 -0.09822025895118713
v -0.4946106970310211 -0.10429634898900986 0.25329896807670593
v -0.8519801497459412 0.07915830612182617 -0.3199200928211212
v -0.2985897958278656 -0.1385972648859024 0.5352873206138611
v 0.02131078392267227 -0.1669905185699463 0.6337336301803589
v 0.6012600064277649 -0.003816802054643631 0.7916776537895203
v 0.9795082211494446 0.3124000132083893 0.3187302350997925
v 0.71638423204422 0.5277733206748962 -0.20006687939167023
v 0.3978467285633087 0.6286560297012329 -0.43458014726638794
v 0.8501238822937012 0.2827771306037903 -0.24608823657035828
v 0.8391053080558777 0.06167157366871834 0.28822940587997437
v 0.2652929425239563 -0.13859757781028748 0.5603531002998352
v 0.011715454049408436 -0.17604650557041168 0.01669898070394993
v 0.7163841724395752 0.07915801554918289 -0.20006702840328217
v 0.30772557854652405 -0.10429657250642776 0.2186892181634903
v 0.37907394766807556 -0.08788995444774628 -0.09822015464305878
v -0.49587032198905945 -0.0878896415233612 -0.170801043510437
v -0.4640304148197174 -0.08089134097099304 -0.46370235085487366
v -0.302994042634964 -0.07062281668186188 -0.6398124098777771
v -0.05646975338459015 -0.08576260507106781 -0.6582114696502686
v 0.24352243542671204 -0.08797229826450348 -0.6038135290145874
v -0.04182196781039238 0.034853655844926834 -1.15007483959198
v -0.35740217566490173 0.026720231398940086 -1.0251423120498657
v -0.6612079739570618 0.04381399229168892 -0.7603801488876343
v -0.4288516044616699 0.20947688817977905 -1.182930827140808
v -0.7951350212097168 0.24125811457633972 -0.8503389358520508
v -0.04193532094359398 0.4091968238353729 -1.1193656921386719
v -0.35726556181907654 0.43007490038871765 -1.0524953603744507
v -0.056469518691301346 0.5844739079475403 -0.6582115292549133
v -0.3029942214488983 0.5986270904541016 -0.6398126482963562
vn 0.4963516592979431 -0.02357942797243595 -0.8678012490272522
vn 0.5026418566703796 -0.333757609128952 -0.7974691390991211
vn 0.04360613599419594 0.019335057586431503 -0.9988616704940796
vn 0.8474839925765991 0.2697620689868927 -0.457164466381073
vn 0.39432618021965027 0.24932213127613068 -0.8845028877258301
vn 0.14087001979351044 0.5766031742095947 -0.8047884702682495
vn 0.9278976321220398 -0.010090183466672897 -0.37269851565361023
vn 0.9084535241127014 -0.2885388731956482 -0.3024194836616516
vn 0.7585547566413879 -0.6097643375396729 -0.22974368929862976
vn -0.3726997375488281 0.5985389351844788 0.7091163396835327
vn 0.005237561650574207 0.5040569305419922 0.8636545538902283
vn -0.0063761272467672825 0.9912481904029846 -0.13185733556747437
vn -0.6633570194244385 0.6885440349578857 0.2930265963077545
vn -0.681922197341919 0.7161032557487488 -0.1489235907793045
vn -0.5071545839309692 0.652656078338623 -0.5628803372383118
vn -0.707614004611969 0.25448790192604065 -0.6591800451278687
vn -0.9226580262184143 0.2878219485282898 -0.2566334009170532
vn -0.9085202217102051 0.3059260845184326 0.284605473279953
vn -0.5201980471611023 0.25270965695381165 0.8158013224601746
vn 0.0906578004360199 0.20615677535533905 0.9743102788925171
vn 0.49543970823287964 0.5594178438186646 0.6645232439041138
vn -0.9748580455780029 -0.00353032979182899 -0.22279879450798035
vn -0.981025755405426 0.015244118869304657 0.1932772845029831
vn -0.6342955231666565 -0.010188745334744453 0.7730235457420349
vn 0.10407264530658722 -0.03331071883440018 0.9940117001533508
vn 0.6070278882980347 0.2386760264635086 0.7579913139343262
vn 0.5084243416786194 0.8263795375823975 0.24207758903503418
vn -0.958982527256012 -0.23897719383239746 0.15245452523231506
vn -0.6754115223884583 -0.29883357882499695 0.6741793155670166
vn 0.1897151917219162 -0.4010089337825775 0.8962142467498779
vn 0.7512866258621216 -0.014093608595430851 0.6598255634307861
vn 0.9301212430000305 0.31356915831565857 0.19117756187915802
vn 0.7205111384391785 0.6646256446838379 -0.19782938063144684
vn -0.8335704803466797 -0.5469833612442017 0.07726205140352249
vn -0.9525325894355774 -0.24906525015830994 -0.1750660538673401
vn -0.6692934036254883 -0.6634269952774048 0.3345309793949127
vn 0.043641116470098495 -0.8461176156997681 0.5312066078186035
vn 0.7956453561782837 -0.29575082659721375 0.5286585688591003
vn 0.9958954453468323 0.018302639946341515 0.08864156156778336
vn 0.9409545660018921 0.3012849986553192 -0.15437589585781097
vn 0.555083155632019 0.6772472858428955 -0.4829273223876953
vn 0.9964137077331543 -0.003155237063765526 -0.08455659449100494
vn 0.9661908745765686 -0.2576830983161926 0.008635069243609905
vn 0.7257120013237 -0.6229339838027954 0.29205361008644104
vn 0.14697490632534027 -0.9678084850311279 -0.20431610941886902
vn 0.9669821262359619 -0.25271254777908325 -0.032892923802137375
vn 0.8391011953353882 -0.5312167406082153 -0.11712395399808884
vn 0.8706755638122559 -0.4879305958747864 0.06203051283955574
vn -0.819604754447937 -0.5559027194976807 -0.13863712549209595
vn -0.7364956140518188 -0.5764586925506592 -0.35393446683883667
vn -0.3739042580127716 -0.6652287244796753 -0.6462711095809937
vn -0.09250377118587494 -0.718294620513916 -0.6895620822906494
vn 0.39697587490081787 -0.6906911730766296 -0.6044467687606812
vn -0.020061489194631577 -0.2973598837852478 -0.9545546770095825
vn -0.4624326825141907 -0.3359634280204773 -0.8205391764640808
vn -0.8149992227554321 -0.28547975420951843 -0.5042594075202942
vn -0.45262521505355835 -0.02812088094651699 -0.8912573456764221
vn -0.8180286884307861 -0.012234911322593689 -0.5750473141670227
vn 0.03657087683677673 0.26666057109832764 -0.9630964398384094
vn -0.34291526675224304 0.2564128637313843 -0.9036933183670044
vn 0.0645044818520546 0.5770654082298279 -0.8141466379165649
vn -0.13459746539592743 0.5660108923912048 -0.8133358359336853
vt 0.09938929975032806 0.7267355918884277
vt 0.1834048479795456 0.6027649641036987
vt 0.004970449488610029 0.7243390083312988
vt 0.2616799771785736 0.8405617475509644
vt 0.1446053832769394 0.8545098900794983
vt 0.2990499436855316 0.9227051734924316
vt 0.2404942810535431 0.7338801026344299
vt 0.2922677993774414 0.6192027926445007
vt 0.36001837253570557 0.5637975335121155
vt 0.6568431854248047 0.9315329790115356
vt 0.7569041848182678 0.9658401608467102
vt 0.49797725677490234 0.9795460104942322
vt 0.5586031675338745 0.9171973466873169
vt 0.4577820301055908 0.9068925976753235
vt 0.37868544459342957 0.9127866625785828
vt 0.2616799771785736 0.8405617475509644
vt 0.38046184182167053 0.8324422240257263
vt 0.5962664484977722 0.8227212429046631
vt 0.7985735535621643 0.8256582617759705
vt 0.9383694529533386 0.8541774749755859
vt 0.6568431854248047 0.9315329790115356
vt 0.3790394365787506 0.7381362915039062
vt 0.5849169492721558 0.7333513498306274
vt 0.7894325256347656 0.7367033362388611
vt 0.9940801858901978 0.7270479798316956
vt 0.7985735535621643 0.8256582617759705
vt 0.5586031675338745 0.9171973466873169
vt 0.55274897813797 0.629173755645752
vt 0.6886014342308044 0.6194754242897034
vt 0.8441576957702637 0.5806231498718262
vt 0.7894325256347656 0.7367033362388611
vt 0.5962664484977722 0.8227212429046631
vt 0.4577820301055908 0.9068925976753235
vt 0.5210980772972107 0.5743821263313293
vt 0.41165006160736084 0.6295569539070129
vt 0.6066617369651794 0.5535592436790466
vt 0.6386168599128723 0.5229685306549072
vt 0.6886014342308044 0.6194754242897034
vt 0.5849169492721558 0.7333513498306274
vt 0.38046184182167053 0.8324422240257263
vt 0.37868544459342957 0.9127866625785828
vt 0.3790394365787506 0.7381362915039062
vt 0.55274897813797 0.629173755645752
vt 0.6066617369651794 0.5535592436790466
vt 0.45207563042640686 0.5187327265739441
vt 0.41165006160736084 0.6295569539070129
vt 0.5210980772972107 0.5743821263313293
vt 0.4287748336791992 0.5740218162536621
vt 0.4287748336791992 0.5740218162536621
vt 0.36001837253570557 0.5637975335121155
vt 0.2952441871166229 0.5453574657440186
vt 0.26130563020706177 0.5231271982192993
vt 0.2952441871166229 0.5453574657440186
vt 0.10779236257076263 0.57342129945755
vt 0.1834048479795456 0.6027649641036987
vt 0.2922677993774414 0.6192027926445007
vt 0.09938929975032806 0.7267355918884277
vt 0.2404942810535431 0.7338801026344299
vt 0.047499921172857285 0.879797637462616
vt 0.1446053832769394 0.8545098900794983
vt 0.24001926183700562 0.9595373272895813
vt 0.2990499436855316 0.9227051734924316
g Geoset0
s 1
usemtl mat_sholazar_rockriver
f 1/1/1 2/2/2 3/3/3
f 4/4/4 5/5/5 6/6/6
f 4/4/4 7/7/7 5/5/5
f 7/7/7 1/1/1 5/5/5
f 7/7/7 8/8/8 1/1/1
f 8/8/8 2/2/2 1/1/1
f 8/8/8 9/9/9 2/2/2
f 10/10/10 11/11/11 12/12/12
f 13/13/13 10/10/10 12/12/12
f 14/14/14 13/13/13 12/12/12
f 15/15/15 14/14/14 12/12/12
f 16/16/16 17/17/17 15/15/15
f 17/17/17 14/14/14 15/15/15
f 17/17/17 18/18/18 14/14/14
f 18/18/18 13/13/13 14/14/14
f 18/18/18 19/19/19 13/13/13
f 19/19/19 10/10/10 13/13/13
f 19/19/19 20/20/20 10/10/10
f 20/20/20 11/11/11 10/10/10
f 11/11/11 20/20/20 21/21/21
f 11/11/11 21/21/21 12/12/12
f 22/22/22 23/23/23 17/17/17
f 23/23/23 18/18/18 17/17/17
f 23/23/23 24/24/24 18/18/18
f 24/24/24 19/19/19 18/18/18
f 24/24/24 25/25/25 19/19/19
f 25/25/25 20/20/20 19/19/19
f 20/20/20 25/25/25 26/26/26
f 20/20/20 26/26/26 21/21/21
f 21/21/21 26/26/26 27/27/27
f 21/21/21 27/27/27 12/12/12
f 28/28/28 29/29/29 23/23/23
f 29/29/29 24/24/24 23/23/23
f 29/29/29 30/30/30 24/24/24
f 30/30/30 25/25/25 24/24/24
f 25/25/25 30/30/30 31/31/31
f 25/25/25 31/31/31 26/26/26
f 26/26/26 31/31/31 32/32/32
f 26/26/26 32/32/32 27/27/27
f 27/27/27 32/32/32 33/33/33
f 27/27/27 33/33/33 12/12/12
f 34/34/34 28/28/28 35/35/35
f 34/34/34 36/36/36 28/28/28
f 36/36/36 29/29/29 28/28/28
f 36/36/36 37/37/37 29/29/29
f 37/37/37 30/30/30 29/29/29
f 30/30/30 37/37/37 38/38/38
f 30/30/30 38/38/38 31/31/31
f 31/31/31 38/38/38 39/39/39
f 31/31/31 39/39/39 32/32/32
f 32/32/32 39/39/39 40/40/40
f 40/40/40 4/4/4 41/41/41
f 40/40/40 42/42/42 4/4/4
f 39/39/39 42/42/42 40/40/40
f 39/39/39 43/43/43 42/42/42
f 38/38/38 43/43/43 39/39/39
f 38/38/38 44/44/44 43/43/43
f 37/37/37 44/44/44 38/38/38
f 44/44/44 37/37/37 45/45/45
f 37/37/37 36/36/36 45/45/45
f 36/36/36 34/34/34 45/45/45
f 43/43/43 46/46/46 42/42/42
f 43/43/43 47/47/47 46/46/46
f 44/44/44 47/47/47 43/43/43
f 47/47/47 44/44/44 45/45/45
f 48/48/48 47/47/47 45/45/45
f 47/47/47 48/48/48 46/46/46
f 42/42/42 7/7/7 4/4/4
f 42/42/42 46/46/46 7/7/7
f 46/46/46 8/8/8 7/7/7
f 46/46/46 48/48/48 8/8/8
f 48/48/48 9/9/9 8/8/8
f 9/9/9 48/48/48 45/45/45
f 34/34/34 49/49/49 45/45/45
f 49/49/49 50/50/50 45/45/45
f 50/50/50 51/51/51 45/45/45
f 51/51/51 52/52/52 45/45/45
f 53/53/53 9/9/9 45/45/45
f 52/52/52 53/53/53 45/45/45
f 53/53/53 52/52/52 54/54/54
f 52/52/52 51/51/51 54/54/54
f 51/51/51 55/55/55 54/54/54
f 51/51/51 50/50/50 55/55/55
f 50/50/50 56/56/56 55/55/55
f 50/50/50 49/49/49 56/56/56
f 49/49/49 35/35/35 56/56/56
f 49/49/49 34/34/34 35/35/35
f 9/9/9 53/53/53 2/2/2
f 2/2/2 53/53/53 54/54/54
f 2/2/2 54/54/54 3/3/3
f 54/54/54 55/55/55 3/3/3
f 55/55/55 57/57/57 3/3/3
f 55/55/55 56/56/56 57/57/57
f 56/56/56 58/58/58 57/57/57
f 56/56/56 35/35/35 58/58/58
f 35/35/35 22/22/22 58/58/58
f 35/35/35 28/28/28 22/22/22
f 28/28/28 23/23/23 22/22/22
f 3/3/3 57/57/57 59/59/59
f 57/57/57 60/60/60 59/59/59
f 57/57/57 58/58/58 60/60/60
f 58/58/58 16/16/16 60/60/60
f 58/58/58 22/22/22 16/16/16
f 22/22/22 17/17/17 16/16/16
f 59/59/59 60/60/60 61/61/61
f 60/60/60 62/62/62 61/61/61
f 60/60/60 16/16/16 62/62/62
f 16/16/16 15/15/15 62/62/62
f 61/61/61 62/62/62 12/12/12
f 62/62/62 15/15/15 12/12/12
f 41/41/41 4/4/4 6/6/6
f 32/32/32 40/40/40 33/33/33
f 33/33/33 40/40/40 41/41/41
f 33/33/33 41/41/41 12/12/12
f 41/41/41 6/6/6 12/12/12
f 6/6/6 61/61/61 12/12/12
f 6/6/6 5/5/5 61/61/61
f 5/5/5 59/59/59 61/61/61
f 5/5/5 1/1/1 59/59/59
f 1/1/1 3/3/3 59/59/59
