# Exported using wow.export v0.1.64
o sholazar_rockd
mtllib sholazar_rockd.mtl
v 1.9000195264816284 -3.0846645832061768 1.5008882284164429
v 1.6084834337234497 -4.257043838500977 -0.28111276030540466
v 2.200622320175171 -3.466010332107544 -0.84034264087677
v 0.8946850895881653 2.5510878562927246 -1.2117283344268799
v 0.21857842803001404 2.678481340408325 -1.0620628595352173
v -0.009529564529657364 3.384767532348633 -0.0483907014131546
v 0.6301764845848083 0.7645522952079773 -2.4951860904693604
v -1.1642805337905884 2.7078042030334473 -1.5822423696517944
v -1.3795534372329712 0.6713902354240417 -2.9806907176971436
v -2.8150861263275146 0.6585468053817749 -1.9004429578781128
v -2.9642930030822754 -0.4784623682498932 -2.0265958309173584
v -3.2581043243408203 0.8450530767440796 -0.5825658440589905
v -3.2271928787231445 -0.4741421937942505 -0.9118720293045044
v -3.6174943447113037 -0.4691954255104065 0.5002861022949219
v -2.515623092651367 -3.6336331367492676 -0.25198712944984436
v -0.6277841925621033 3.074154853820801 -0.9781642556190491
v -1.552269697189331 3.5371696949005127 0.05473025515675545
v -2.389392852783203 2.014028310775757 -1.3895214796066284
v -2.227410078048706 2.970968246459961 -1.073243498802185
v -2.1031222343444824 3.354659080505371 -0.6403234601020813
v -3.4061954021453857 1.0033339262008667 0.826826274394989
v -2.402143955230713 3.003875494003296 0.25022250413894653
v -2.546071767807007 2.9238312244415283 -0.2271968573331833
v -1.6642158031463623 3.4647910594940186 0.31265988945961
v -1.644558072090149 3.988959550857544 0.6847513914108276
v -2.2664425373077393 3.5629098415374756 0.6643325090408325
v -1.9419201612472534 4.061941146850586 1.6108238697052002
v -2.7745373249053955 3.519746780395508 1.4963077306747437
v -2.435689687728882 3.4148824214935303 1.876285195350647
v -3.0292060375213623 2.9282217025756836 1.463829755783081
v -2.4999194145202637 1.0637621879577637 2.27142333984375
v -2.427597761154175 -3.434478282928467 -1.5988422632217407
v -2.625060558319092 -0.464533269405365 2.326193332672119
v -2.6854677200317383 -2.5816614627838135 1.3127881288528442
v -1.0903935432434082 -4.523359298706055 0.036258380860090256
v -1.1962944269180298 -4.160356521606445 -2.3076107501983643
v -1.3852145671844482 -0.4934801161289215 -3.1478261947631836
v 1.0223370790481567 3.6567187309265137 -0.6443225145339966
v 1.0137611627578735 4.002933025360107 -0.160380020737648
v 1.6384226083755493 3.667466878890991 -0.47906070947647095
v 0.9507120251655579 4.28807258605957 0.4762742221355438
v 0.06478012353181839 4.204844951629639 0.9359157681465149
v 0.26005151867866516 3.985290050506592 1.070616364479065
v -0.29036563634872437 3.5547914505004883 1.4960805177688599
v 0.11782899498939514 3.382627487182617 1.5112911462783813
v -0.2510359585285187 3.0881588459014893 1.8021444082260132
v 0.30832576751708984 0.9350200295448303 2.6480836868286133
v -0.26487475633621216 0.8850353360176086 2.690617799758911
v -0.07818339765071869 -0.48810139298439026 3.099492311477661
v 1.6418770551681519 4.117523193359375 -0.08675435930490494
v 1.2456260919570923 3.013374090194702 1.2160439491271973
v 0.8698533773422241 4.0243401527404785 0.7551596164703369
v 1.6417948007583618 4.038049697875977 0.12195030599832535
v 1.9482154846191406 3.6382668018341064 -0.19922147691249847
v 2.0792624950408936 2.9013304710388184 -0.6507053375244141
v 2.1727051734924316 2.892397165298462 -0.43407776951789856
v 2.169595718383789 3.0046119689941406 0.1359606832265854
v 2.677424669265747 0.9649755954742432 -0.9778622388839722
v 2.9171743392944336 0.975184977054596 -0.702751100063324
v 2.929236650466919 1.0046730041503906 0.049098093062639236
v 1.7692599296569824 1.0154376029968262 1.890524983406067
v 2.3453776836395264 -0.5334180593490601 1.890726089477539
v 3.419856309890747 -0.5647227168083191 -0.1461762934923172
v 3.343369245529175 -0.5672538876533508 -0.8593728542327881
v 2.6365413665771484 -2.6806371212005615 0.24770204722881317
v 3.1149837970733643 -0.5642277598381042 -1.1002998352050781
v 2.200622320175171 -3.466010332107544 -0.84034264087677
v 2.368311643600464 2.4343159198760986 -1.5800892114639282
v 2.855487108230591 0.8111046552658081 -2.011824131011963
v 3.0740418434143066 -0.569352924823761 -2.1560986042022705
v 2.200622320175171 -3.466010332107544 -0.84034264087677
v 2.2402641773223877 -0.5552658438682556 -2.565431833267212
v 1.535595417022705 -3.546135902404785 -2.3706724643707275
v 1.136080026626587 -0.531657874584198 -2.2264912128448486
v 0.7932417988777161 -0.5288392305374146 -3.016364812850952
v 2.0432708263397217 0.837872326374054 -2.412431240081787
v 1.1046452522277832 0.9188042879104614 -2.0699150562286377
v 1.8958865404129028 2.2938456535339355 -1.7898406982421875
v -1.9784469604492188 3.448883533477783 2.0135955810546875
v -1.6928755044937134 3.9978647232055664 1.6873260736465454
v -0.4266139268875122 3.932776689529419 1.162588357925415
v 0.12331652641296387 4.079368591308594 0.6465080380439758
v 0.3033486008644104 3.824885129928589 0.10320344567298889
v -0.8234607577323914 -2.902993679046631 2.138479232788086
v -0.8230913281440735 -2.9033570289611816 2.137282371520996
v 0.24096563458442688 -3.045293092727661 2.0994369983673096
v 0.7778804898262024 -0.5015922784805298 2.9339988231658936
v 0.470387727022171 -4.561994552612305 -0.01021744217723608
v 0.260128915309906 -3.8524467945098877 -2.213277816772461
vn 0.3925270140171051 -0.8019111156463623 0.45040103793144226
vn 0.29095324873924255 -0.9554619193077087 0.04938367381691933
vn 0.5888668298721313 -0.7994670867919922 -0.11869392544031143
vn -0.16557058691978455 0.8178152441978455 -0.5511484146118164
vn 0.07938540726900101 0.9255408644676208 -0.3702324330806732
vn -0.11264914274215698 0.8977746367454529 -0.4258061349391937
vn 0.3362419903278351 0.7051257491111755 -0.6242908239364624
vn -0.041942838579416275 0.8821682333946228 -0.469062864780426
vn -0.1796293556690216 0.615673840045929 -0.7672541737556458
vn -0.6189860105514526 0.58545982837677 -0.5235390067100525
vn -0.7881858348846436 -0.09207477420568466 -0.6085107326507568
vn -0.8322839736938477 0.5007640719413757 -0.2377786934375763
vn -0.9361541271209717 -0.24203327298164368 -0.2550203502178192
vn -0.9754577279090881 -0.2061220407485962 0.0774330422282219
vn -0.5077581405639648 -0.861477255821228 0.006219048518687487
vn 0.08529296517372131 0.9581454396247864 -0.27328094840049744
vn -0.06875436007976532 0.9975799322128296 0.010347416624426842
vn -0.49588432908058167 0.7047305703163147 -0.507398784160614
vn -0.36503687500953674 0.8252624273300171 -0.4309176802635193
vn -0.2093396782875061 0.9636356830596924 -0.16608168184757233
vn -0.9207338094711304 0.36936378479003906 0.12577617168426514
vn -0.5069108605384827 0.8354797959327698 -0.21216709911823273
vn -0.9397781491279602 0.2918824553489685 0.17782482504844666
vn -0.16735337674617767 0.9418907165527344 -0.29126399755477905
vn -0.12614057958126068 0.9618927836418152 -0.242591992020607
vn -0.3759271800518036 0.87638920545578 -0.3010326623916626
vn -0.1291683465242386 0.9716853499412537 0.1978461593389511
vn -0.5220726132392883 0.8460752367973328 0.10768871754407883
vn -0.37762168049812317 0.6388055086135864 0.6703203320503235
vn -0.8271406888961792 0.5193670392036438 0.21470019221305847
vn -0.46415969729423523 0.20904991030693054 0.8607286810874939
vn -0.5749886631965637 -0.7576311826705933 -0.30884140729904175
vn -0.529083788394928 -0.209872305393219 0.8222067356109619
vn -0.4981544613838196 -0.7736011743545532 0.39164185523986816
vn -0.13104939460754395 -0.982764720916748 0.13038226962089539
vn -0.15414291620254517 -0.8404327630996704 -0.51953125
vn -0.2409229427576065 -0.08601009845733643 -0.9667255878448486
vn -0.14600908756256104 0.8889692425727844 -0.4340680241584778
vn -0.054311834275722504 0.9641141295433044 -0.25987330079078674
vn 0.22012214362621307 0.9079676270484924 -0.3565683960914612
vn 0.1005672812461853 0.9894078969955444 0.10468164086341858
vn -0.08585665374994278 0.9886660575866699 0.12315874546766281
vn 0.18350820243358612 0.8441465497016907 0.5037274360656738
vn 0.14129094779491425 0.8487667441368103 0.509540855884552
vn 0.21579477190971375 0.7791444659233093 0.5885291695594788
vn 0.18595825135707855 0.7467591762542725 0.6385689377784729
vn 0.19476144015789032 0.6262186169624329 0.75492924451828
vn -0.043413080275058746 0.5334412455558777 0.8447222709655762
vn -0.025441529229283333 -0.061237677931785583 0.9977989196777344
vn 0.15734067559242249 0.9641280770301819 -0.21377788484096527
vn 0.4003572165966034 0.7394335269927979 0.5412505269050598
vn 0.3122616708278656 0.8213341236114502 0.4773918092250824
vn 0.4403328597545624 0.8340533375740051 0.3323582410812378
vn 0.5989018082618713 0.7856864333152771 -0.1549627184867859
vn 0.6840296983718872 0.7178832292556763 -0.12941044569015503
vn 0.7329533696174622 0.6556260585784912 -0.1814766824245453
vn 0.6811941862106323 0.6741847991943359 0.2853933572769165
vn 0.7735706567764282 0.5965017676353455 -0.21394874155521393
vn 0.7186121940612793 0.6260021328926086 -0.3028494417667389
vn 0.7825456857681274 0.5770601630210876 0.23371736705303192
vn 0.5091553926467896 0.5980069637298584 0.618989884853363
vn 0.7217832207679749 0.022543495520949364 0.6917519569396973
vn 0.9840692281723022 -0.06085314229130745 0.16704681515693665
vn 0.8558530211448669 -0.22537842392921448 -0.46553218364715576
vn 0.6517402529716492 -0.7422276139259338 0.15598979592323303
vn 0.9443866610527039 -0.1516444981098175 -0.29178372025489807
vn 0.5888668298721313 -0.7994670867919922 -0.11869392544031143
vn 0.44666779041290283 0.8298825621604919 -0.3343394100666046
vn 0.6760863065719604 0.5573621988296509 -0.48192811012268066
vn 0.7226919531822205 -0.28014376759529114 -0.631851077079773
vn 0.5888668298721313 -0.7994670867919922 -0.11869392544031143
vn 0.1448681801557541 -0.11245261877775192 -0.9830399751663208
vn 0.30053287744522095 -0.7286943197250366 -0.6153734922409058
vn 0.2708834707736969 0.2951878607273102 -0.9162348508834839
vn 0.408064603805542 0.18071646988391876 -0.894888162612915
vn 0.026703588664531708 0.46605318784713745 -0.8843536376953125
vn 0.07973472028970718 0.6056963205337524 -0.7916907668113708
vn -0.04326021671295166 0.7738545536994934 -0.6318842768669128
vn -0.06930436193943024 0.6440705060958862 0.7618201971054077
vn 0.0874989777803421 0.8934392333030701 0.4405794143676758
vn 0.01752251759171486 0.9811294078826904 0.19255654513835907
vn -0.2756338119506836 0.9233620762825012 -0.2672611176967621
vn -0.20144589245319366 0.8988202214241028 -0.389283686876297
vn -0.13709823787212372 -0.8637357354164124 0.4849378168582916
vn -0.09270478785037994 -0.9770584106445312 0.19173599779605865
vn 0.08510661870241165 -0.8353024125099182 0.5431636571884155
vn 0.3440174162387848 -0.05465449392795563 0.9373712539672852
vn 0.07817520201206207 -0.9898763298988342 0.11846298724412918
vn 0.07212082296609879 -0.8578087091445923 -0.5088838934898376
vt 0.7219329476356506 0.9178838133811951
vt 0.7479784488677979 0.986177384853363
vt 0.9780149459838867 0.9265205264091492
vt 0.6462717652320862 0.6235957741737366
vt 0.5401104092597961 0.6319365501403809
vt 0.5182944536209106 0.8907329440116882
vt 0.5777015089988708 0.236286461353302
vt 0.34423455595970154 0.5450259447097778
vt 0.36317530274391174 0.22800886631011963
vt 0.14025750756263733 0.2315664291381836
vt 0.12045673280954361 0.010650336742401123
vt 0.03179618716239929 0.22844183444976807
vt 0.013513993471860886 0.01421743631362915
vt 0.12804770469665527 0.014233887195587158
vt 0.18929819762706757 0.9643544554710388
vt 0.45103785395622253 0.650284469127655
vt 0.2404070794582367 0.790169894695282
vt 0.17786888778209686 0.45753371715545654
vt 0.2037183940410614 0.5571737885475159
vt 0.21845942735671997 0.6591218113899231
vt 0.12476250529289246 0.2530277967453003
vt 0.015071935020387173 0.6288672685623169
vt 0.08357862383127213 0.6282652020454407
vt 0.2369406521320343 0.8350512981414795
vt 0.18929819762706757 0.9643544554710388
vt 0.05272947996854782 0.9060315489768982
vt 0.266910582780838 0.7719106078147888
vt 0.16844043135643005 0.7156333923339844
vt 0.21061913669109344 0.6191446185112
vt 0.12101036310195923 0.5812743306159973
vt 0.29993507266044617 0.2397896647453308
vt 0.21845942735671997 0.6591218113899231
vt 0.29261261224746704 0.013577759265899658
vt 0.266910582780838 0.7719106078147888
vt 0.3964153230190277 0.9725890755653381
vt 0.45103785395622253 0.650284469127655
vt 0.34508582949638367 0.012576758861541748
vt 0.6960387825965881 0.9099993109703064
vt 0.7479784488677979 0.986177384853363
vt 0.9827316403388977 0.9252973198890686
vt 0.7219329476356506 0.9178838133811951
vt 0.5922773480415344 0.883660614490509
vt 0.5897543430328369 0.8375257849693298
vt 0.5032349228858948 0.7753304839134216
vt 0.5439900159835815 0.6594204902648926
vt 0.4606686234474182 0.6168714761734009
vt 0.5126745700836182 0.22371608018875122
vt 0.4563673138618469 0.2214137315750122
vt 0.4641709327697754 0.013094961643218994
vt 0.8365732431411743 0.8047423958778381
vt 0.653611421585083 0.6072907447814941
vt 0.7078126072883606 0.8433416485786438
vt 0.8175749182701111 0.7600659132003784
vt 0.8818188905715942 0.7547239661216736
vt 0.9830297231674194 0.6083859801292419
vt 0.922104001045227 0.5943902730941772
vt 0.7723616361618042 0.5995432734489441
vt 0.9860020875930786 0.2449491024017334
vt 0.945299506187439 0.24444234371185303
vt 0.7988919615745544 0.2427581548690796
vt 0.6621787548065186 0.2313634157180786
vt 0.7145281434059143 0.013235986232757568
vt 0.8534583449363708 0.013697147369384766
vt 0.9560534954071045 0.013367652893066406
vt 0.8365732431411743 0.8047423958778381
vt 0.9911949038505554 0.014076828956604004
vt 0.9827316403388977 0.9252973198890686
vt 0.8746379613876343 0.5787063241004944
vt 0.8862454295158386 0.2657599449157715
vt 0.8960665464401245 0.020753204822540283
vt 0.9826260805130005 0.9257211685180664
vt 0.8095470070838928 0.014315009117126465
vt 0.6462717652320862 0.6235957741737366
vt 0.6772283315658569 0.021254301071166992
vt 0.579380989074707 0.022040367126464844
vt 0.8142727017402649 0.28571999073028564
vt 0.6727294325828552 0.2848951816558838
vt 0.8033413290977478 0.5642817616462708
vt 0.2869069576263428 0.6274102926254272
vt 0.320304274559021 0.7254635691642761
vt 0.4816840887069702 0.8393095135688782
vt 0.5747509002685547 0.9362409114837646
vt 0.5338245034217834 0.9822596311569214
vt 0.4816840887069702 0.8393095135688782
vt 0.4816840887069702 0.8393095135688782
vt 0.5922773480415344 0.883660614490509
vt 0.5490227937698364 0.013072550296783447
vt 0.5338245034217834 0.9822596311569214
vt 0.5401104092597961 0.6319365501403809
g Geoset0
s 1
usemtl mat_sholazar_rocka
f 1/1/1 2/2/2 3/3/3
f 4/4/4 5/5/5 6/6/6
f 7/7/7 5/5/5 4/4/4
f 8/8/8 5/5/5 7/7/7
f 8/8/8 7/7/7 9/9/9
f 8/8/8 9/9/9 10/10/10
f 11/11/11 10/10/10 9/9/9
f 12/12/12 10/10/10 11/11/11
f 11/11/11 13/13/13 12/12/12
f 12/12/12 13/13/13 14/14/14
f 14/14/14 13/13/13 15/15/15
f 8/8/8 16/16/16 5/5/5
f 6/6/6 5/5/5 16/16/16
f 6/6/6 16/16/16 17/17/17
f 18/18/18 10/10/10 12/12/12
f 10/10/10 18/18/18 8/8/8
f 18/18/18 19/19/19 8/8/8
f 16/16/16 8/8/8 19/19/19
f 19/19/19 20/20/20 16/16/16
f 20/20/20 17/17/17 16/16/16
f 14/14/14 21/21/21 12/12/12
f 22/22/22 12/12/12 21/21/21
f 18/18/18 12/12/12 22/22/22
f 18/18/18 22/22/22 23/23/23
f 23/23/23 19/19/19 18/18/18
f 20/20/20 19/19/19 23/23/23
f 23/23/23 17/17/17 20/20/20
f 24/24/24 17/17/17 23/23/23
f 23/23/23 22/22/22 24/24/24
f 25/25/25 24/24/24 22/22/22
f 22/22/22 26/26/26 25/25/25
f 27/27/27 25/25/25 26/26/26
f 26/26/26 28/28/28 27/27/27
f 29/29/29 27/27/27 28/28/28
f 28/28/28 30/30/30 29/29/29
f 31/31/31 29/29/29 30/30/30
f 21/21/21 30/30/30 22/22/22
f 26/26/26 22/22/22 30/30/30
f 30/30/30 28/28/28 26/26/26
f 11/11/11 32/32/32 15/15/15
f 15/15/15 13/13/13 11/11/11
f 30/30/30 21/21/21 31/31/31
f 33/33/33 31/31/31 21/21/21
f 21/21/21 14/14/14 33/33/33
f 33/33/33 14/14/14 34/34/34
f 15/15/15 34/34/34 14/14/14
f 35/35/35 34/34/34 15/15/15
f 35/35/35 15/15/15 32/32/32
f 32/32/32 36/36/36 35/35/35
f 36/36/36 32/32/32 11/11/11
f 11/11/11 37/37/37 36/36/36
f 38/38/38 39/39/39 40/40/40
f 40/40/40 39/39/39 41/41/41
f 42/42/42 41/41/41 39/39/39
f 41/41/41 42/42/42 43/43/43
f 44/44/44 43/43/43 42/42/42
f 44/44/44 45/45/45 43/43/43
f 46/46/46 45/45/45 44/44/44
f 47/47/47 45/45/45 46/46/46
f 46/46/46 48/48/48 47/47/47
f 47/47/47 48/48/48 49/49/49
f 41/41/41 50/50/50 40/40/40
f 51/51/51 45/45/45 47/47/47
f 43/43/43 45/45/45 51/51/51
f 51/51/51 52/52/52 43/43/43
f 43/43/43 52/52/52 41/41/41
f 41/41/41 52/52/52 53/53/53
f 53/53/53 50/50/50 41/41/41
f 54/54/54 50/50/50 53/53/53
f 40/40/40 50/50/50 54/54/54
f 55/55/55 40/40/40 54/54/54
f 54/54/54 56/56/56 55/55/55
f 57/57/57 56/56/56 54/54/54
f 54/54/54 53/53/53 57/57/57
f 58/58/58 55/55/55 56/56/56
f 56/56/56 59/59/59 58/58/58
f 59/59/59 56/56/56 57/57/57
f 57/57/57 60/60/60 59/59/59
f 61/61/61 60/60/60 57/57/57
f 60/60/60 61/61/61 62/62/62
f 59/59/59 60/60/60 63/63/63
f 62/62/62 63/63/63 60/60/60
f 63/63/63 62/62/62 1/1/1
f 63/63/63 64/64/64 59/59/59
f 65/65/65 64/64/64 63/63/63
f 1/1/1 65/65/65 63/63/63
f 58/58/58 59/59/59 64/64/64
f 64/64/64 66/66/66 58/58/58
f 66/66/66 64/64/64 65/65/65
f 65/65/65 67/67/67 66/66/66
f 67/67/67 65/65/65 1/1/1
f 55/55/55 68/68/68 40/40/40
f 68/68/68 55/55/55 58/58/58
f 58/58/58 69/69/69 68/68/68
f 69/69/69 58/58/58 66/66/66
f 66/66/66 70/70/70 69/69/69
f 71/71/71 70/70/70 66/66/66
f 71/71/71 72/72/72 70/70/70
f 71/71/71 73/73/73 72/72/72
f 73/73/73 74/74/74 72/72/72
f 75/75/75 74/74/74 73/73/73
f 69/69/69 70/70/70 72/72/72
f 76/76/76 72/72/72 74/74/74
f 72/72/72 76/76/76 69/69/69
f 68/68/68 69/69/69 76/76/76
f 9/9/9 37/37/37 11/11/11
f 75/75/75 37/37/37 9/9/9
f 9/9/9 7/7/7 75/75/75
f 74/74/74 75/75/75 7/7/7
f 7/7/7 77/77/77 74/74/74
f 74/74/74 77/77/77 76/76/76
f 78/78/78 76/76/76 77/77/77
f 76/76/76 78/78/78 68/68/68
f 38/38/38 68/68/68 78/78/78
f 40/40/40 68/68/68 38/38/38
f 78/78/78 4/4/4 38/38/38
f 77/77/77 4/4/4 78/78/78
f 4/4/4 77/77/77 7/7/7
f 39/39/39 38/38/38 6/6/6
f 6/6/6 38/38/38 4/4/4
f 79/79/79 80/80/80 27/27/27
f 44/44/44 80/80/80 79/79/79
f 80/80/80 44/44/44 81/81/81
f 42/42/42 81/81/81 44/44/44
f 81/81/81 42/42/42 82/82/82
f 39/39/39 82/82/82 42/42/42
f 83/83/83 82/82/82 39/39/39
f 6/6/6 83/83/83 39/39/39
f 83/83/83 6/6/6 24/24/24
f 6/6/6 17/17/17 24/24/24
f 24/24/24 25/25/25 83/83/83
f 83/83/83 81/81/81 82/82/82
f 83/83/83 27/27/27 81/81/81
f 83/83/83 25/25/25 27/27/27
f 81/81/81 27/27/27 80/80/80
f 27/27/27 29/29/29 79/79/79
f 79/79/79 29/29/29 31/31/31
f 79/79/79 46/46/46 44/44/44
f 48/48/48 46/46/46 79/79/79
f 79/79/79 31/31/31 48/48/48
f 48/48/48 31/31/31 33/33/33
f 33/33/33 34/34/34 84/84/84
f 84/84/84 49/49/49 33/33/33
f 33/33/33 49/49/49 48/48/48
f 85/85/85 84/84/84 34/34/34
f 86/86/86 84/84/84 85/85/85
f 49/49/49 84/84/84 86/86/86
f 86/86/86 87/87/87 49/49/49
f 49/49/49 87/87/87 47/47/47
f 61/61/61 47/47/47 87/87/87
f 47/47/47 61/61/61 51/51/51
f 57/57/57 51/51/51 61/61/61
f 52/52/52 51/51/51 57/57/57
f 57/57/57 53/53/53 52/52/52
f 35/35/35 85/85/85 34/34/34
f 88/88/88 35/35/35 36/36/36
f 88/88/88 85/85/85 35/35/35
f 88/88/88 86/86/86 85/85/85
f 36/36/36 89/89/89 88/88/88
f 87/87/87 62/62/62 61/61/61
f 1/1/1 62/62/62 87/87/87
f 87/87/87 86/86/86 1/1/1
f 2/2/2 1/1/1 86/86/86
f 86/86/86 88/88/88 2/2/2
f 73/73/73 2/2/2 88/88/88
f 88/88/88 89/89/89 73/73/73
f 73/73/73 89/89/89 75/75/75
f 75/75/75 89/89/89 36/36/36
f 36/36/36 37/37/37 75/75/75
f 3/3/3 2/2/2 73/73/73
