# Exported using wow.export v0.1.64
o uldamanscrolldebris02
mtllib uldamanscrolldebris02.mtl
v -1.0818020105361938 0.1958683431148529 0.06644755601882935
v -1.0850954055786133 0.12044011056423187 0.06644754111766815
v 1.0626068115234375 0.026669396087527275 0.06644754111766815
v 1.0642534494400024 0.06438352167606354 0.01448906771838665
v 1.0615891218185425 0.003360793460160494 -0.005357315298169851
v 1.0642534494400024 0.06438352167606354 -0.04973514750599861
v 1.0626068115234375 0.026669396087527275 0.06644754111766815
v 1.065900206565857 0.10209763050079346 0.06644754856824875
v 1.066917896270752 0.12540625035762787 -0.005357303656637669
v -1.0834487676620483 0.15815423429012299 0.01448906771838665
v -1.0818020105361938 0.1958683431148529 0.06644755601882935
v -1.0807844400405884 0.21917696297168732 -0.005357303656637669
v -1.0834487676620483 0.15815423429012299 -0.04973514750599861
v -1.0850954055786133 0.12044011056423187 0.06644754111766815
v -1.0861130952835083 0.09713151305913925 -0.005357315298169851
v -1.0519249439239502 0.15687395632266998 0.009341353550553322
v -1.1044474840164185 0.1591671258211136 -0.11757998913526535
v -1.1005327701568604 0.24882864952087402 -0.08040560781955719
v -1.098911166191101 0.28596770763397217 0.009341329336166382
v -1.1005327701568604 0.2488286793231964 0.09908827394247055
v -1.225711703300476 0.2915039658546448 0.1362626701593399
v -1.2312480211257935 0.16470341384410858 0.18883521854877472
v -1.3580485582351685 0.1702396422624588 0.1362626850605011
v -1.3619632720947266 0.08057811111211777 0.09908828884363174
v -1.4105710983276367 0.1725328117609024 0.009341338649392128
v -1.3635848760604858 0.04343908652663231 0.009341350756585598
v -1.3619632720947266 0.08057808130979538 -0.0804055705666542
v -1.2367842197418213 0.03790285065770149 0.1362626999616623
v -1.2390774488449097 -0.014619660563766956 0.009341361932456493
v -1.1044474840164185 0.15916717052459717 0.1362626850605011
v -1.1083621978759766 0.06950563192367554 0.09908829629421234
v -1.1099836826324463 0.03236660733819008 0.009341362863779068
v -1.1083621978759766 0.06950560957193375 -0.0804055705666542
v -1.2367842197418213 0.037902817130088806 -0.11757996678352356
v -1.2312480211257935 0.1647033393383026 -0.17015253007411957
v -1.225711703300476 0.29150390625 -0.11758001893758774
v -1.2234185934066772 0.34402644634246826 0.009341315366327763
v -1.352512240409851 0.2970401644706726 0.009341319091618061
v -1.3541338443756104 0.25990113615989685 -0.08040561527013779
v -1.3541338443756104 0.25990116596221924 0.09908826649188995
v -1.3580485582351685 0.17023959755897522 -0.11757998913526535
v 1.0615891218185425 0.003360793460160494 -0.005357315298169851
v -1.0861130952835083 0.09713151305913925 -0.005357315298169851
v 1.0642534494400024 0.06438352167606354 -0.04973514750599861
v -1.0834487676620483 0.15815423429012299 -0.04973514750599861
v 1.066917896270752 0.12540625035762787 -0.005357303656637669
v -1.0807844400405884 0.21917696297168732 -0.005357303656637669
v 1.065900206565857 0.10209763050079346 0.06644754856824875
vn 0.016612326726317406 0.38048475980758667 0.9246379733085632
vn -0.03322466090321541 -0.7609696984291077 0.6479361057281494
vn -0.016612332314252853 -0.3804849088191986 0.9246379137039185
vn 0.9990482330322266 -0.043619394302368164 -4.160338740177849e-11
vn 0.9990482330322266 -0.043619394302368164 -4.160338740177849e-11
vn 0.9990482330322266 -0.043619394302368164 -4.160338740177849e-11
vn 0.9990482330322266 -0.043619394302368164 -4.160338740177849e-11
vn 0.9990482330322266 -0.043619394302368164 -4.160338740177849e-11
vn 0.9990482330322266 -0.043619394302368164 -4.160338740177849e-11
vn -0.9990482330322266 0.043619394302368164 4.160338740177849e-11
vn -0.9990482330322266 0.043619394302368164 4.160338740177849e-11
vn -0.9990482330322266 0.043619394302368164 4.160338740177849e-11
vn -0.9990482330322266 0.043619394302368164 4.160338740177849e-11
vn -0.9990482330322266 0.043619394302368164 4.160338740177849e-11
vn -0.9990482330322266 0.043619394302368164 4.160338740177849e-11
vn 0.9990482330322266 -0.043619461357593536 3.1422082713561394e-8
vn 0.6555188894271851 0.0519661046564579 -0.7533887028694153
vn 0.6777275800704956 0.5606269836425781 -0.47579696774482727
vn 0.6848694086074829 0.7242043614387512 0.08051013201475143
vn 0.6727610230445862 0.4468768835067749 0.5896555185317993
vn 0.030843587592244148 0.706433892250061 0.7071066498756409
vn -3.6782790147071864e-8 1.5869072456098365e-7 1
vn -0.6484952569007874 0.1089010015130043 0.7533886432647705
vn -0.672761082649231 -0.44687673449516296 0.5896556377410889
vn -0.9990482330322266 0.04361944645643234 -3.1422079160847716e-8
vn -0.6848694682121277 -0.7242043614387512 0.08051024377346039
vn -0.677727460861206 -0.5606271624565125 -0.4757968783378601
vn -0.03084362857043743 -0.7064337134361267 0.70710688829422
vn -0.043619442731142044 -0.9990482330322266 9.361345831848666e-8
vn 0.6484951972961426 -0.10890074819326401 0.7533887624740601
vn 0.6262865662574768 -0.6175616383552551 0.47579699754714966
vn 0.6191446185112 -0.7811389565467834 -0.08051009476184845
vn 0.6312530636787415 -0.5038115382194519 -0.5896554589271545
vn -0.030843574553728104 -0.706433892250061 -0.7071066498756409
vn 3.2765246515964463e-8 -2.507074725599523e-7 -1
vn 0.030843649059534073 0.7064336538314819 -0.7071069478988647
vn 0.043619465082883835 0.9990482330322266 -1.3966565859391267e-7
vn -0.6191446185112 0.7811389565467834 -0.08051034808158875
vn -0.6312530636787415 0.503811240196228 -0.5896556973457336
vn -0.6262865662574768 0.6175616979598999 0.4757968485355377
vn -0.6555188298225403 -0.051966484636068344 -0.7533887028694153
vn -0.04349164292216301 -0.9961222410202026 -0.07647858560085297
vn -0.037146296352148056 -0.8507899045944214 -0.5241914391517639
vn -0.010266981087625027 -0.2351524829864502 -0.9719042778015137
vn 0.010266986675560474 0.23515261709690094 -0.9719042181968689
vn 0.037146296352148056 0.8507899641990662 -0.5241913199424744
vn 0.04349164292216301 0.9961222410202026 -0.07647844403982162
vn 0.03322465717792511 0.7609696388244629 0.647936224937439
vt 0.5522099733352661 0.22431927919387817
vt 0.5522099733352661 0.22431927919387817
vt 0.5522093772888184 0.026888251304626465
vt 0.6405029296875 0.026888251304626465
vt 0.6742280721664429 0.026888251304626465
vt 0.7496397495269775 0.026888251304626465
vt 0.5522093772888184 0.026888251304626465
vt 0.5522093176841736 0.026888251304626465
vt 0.6742280125617981 0.026888251304626465
vt 0.6405035257339478 0.22431927919387817
vt 0.5522099733352661 0.22431927919387817
vt 0.6742286682128906 0.22431927919387817
vt 0.7496403455734253 0.22431927919387817
vt 0.5522099733352661 0.22431927919387817
vt 0.6742286682128906 0.22431927919387817
vt 0.6956523656845093 0.07162392139434814
vt 0.6352788805961609 0.09663140773773193
vt 0.6529618501663208 0.09663140773773193
vt 0.6956522464752197 0.09663146734237671
vt 0.738342821598053 0.09663146734237671
vt 0.7560257911682129 0.15700489282608032
vt 0.7810332179069519 0.15700489282608032
vt 0.7560257911682129 0.21737831830978394
vt 0.738342821598053 0.21737831830978394
vt 0.6956522464752197 0.2423858642578125
vt 0.6956522464752197 0.21737831830978394
vt 0.6529618501663208 0.21737831830978394
vt 0.7560257911682129 0.15700489282608032
vt 0.6956523656845093 0.15700489282608032
vt 0.7560257911682129 0.09663146734237671
vt 0.738342821598053 0.09663146734237671
vt 0.6956523656845093 0.09663146734237671
vt 0.6529618501663208 0.09663140773773193
vt 0.6352788805961609 0.15700483322143555
vt 0.6102712750434875 0.15700483322143555
vt 0.6352788805961609 0.15700483322143555
vt 0.6956522464752197 0.15700489282608032
vt 0.6956522464752197 0.21737831830978394
vt 0.6529618501663208 0.21737831830978394
vt 0.738342821598053 0.21737831830978394
vt 0.6352788805961609 0.21737831830978394
vt 0.6742280721664429 0.026888251304626465
vt 0.6742286682128906 0.22431927919387817
vt 0.7496397495269775 0.026888251304626465
vt 0.7496403455734253 0.22431927919387817
vt 0.6742280125617981 0.026888251304626465
vt 0.6742286682128906 0.22431927919387817
vt 0.5522093176841736 0.026888251304626465
g Geoset0
s 1
usemtl mat_booksandscrolls
f 1/1/1 2/2/2 3/3/3
f 4/4/4 5/5/5 6/6/6
f 4/4/4 7/7/7 5/5/5
f 4/4/4 8/8/8 7/7/7
f 4/4/4 9/9/9 8/8/8
f 4/4/4 6/6/6 9/9/9
f 10/10/10 11/11/11 12/12/12
f 10/10/10 12/12/12 13/13/13
f 10/10/10 14/14/14 11/11/11
f 10/10/10 15/15/15 14/14/14
f 10/10/10 13/13/13 15/15/15
f 16/16/16 17/17/17 18/18/18
f 16/16/16 18/18/18 19/19/19
f 16/16/16 19/19/19 20/20/20
f 21/21/21 20/20/20 19/19/19
f 22/22/22 20/20/20 21/21/21
f 23/23/23 22/22/22 21/21/21
f 24/24/24 22/22/22 23/23/23
f 25/25/25 24/24/24 23/23/23
f 25/25/25 26/26/26 24/24/24
f 25/25/25 27/27/27 26/26/26
f 24/24/24 28/28/28 22/22/22
f 26/26/26 28/28/28 24/24/24
f 26/26/26 29/29/29 28/28/28
f 27/27/27 29/29/29 26/26/26
f 22/22/22 30/30/30 20/20/20
f 28/28/28 30/30/30 22/22/22
f 28/28/28 31/31/31 30/30/30
f 29/29/29 31/31/31 28/28/28
f 16/16/16 30/30/30 31/31/31
f 16/16/16 20/20/20 30/30/30
f 16/16/16 31/31/31 32/32/32
f 16/16/16 32/32/32 33/33/33
f 16/16/16 33/33/33 17/17/17
f 29/29/29 32/32/32 31/31/31
f 34/34/34 32/32/32 29/29/29
f 34/34/34 33/33/33 32/32/32
f 35/35/35 33/33/33 34/34/34
f 35/35/35 17/17/17 33/33/33
f 36/36/36 17/17/17 35/35/35
f 36/36/36 18/18/18 17/17/17
f 37/37/37 18/18/18 36/36/36
f 37/37/37 19/19/19 18/18/18
f 21/21/21 19/19/19 37/37/37
f 25/25/25 38/38/38 39/39/39
f 25/25/25 40/40/40 38/38/38
f 25/25/25 23/23/23 40/40/40
f 25/25/25 39/39/39 41/41/41
f 25/25/25 41/41/41 27/27/27
f 27/27/27 34/34/34 29/29/29
f 41/41/41 34/34/34 27/27/27
f 41/41/41 35/35/35 34/34/34
f 39/39/39 35/35/35 41/41/41
f 39/39/39 36/36/36 35/35/35
f 38/38/38 36/36/36 39/39/39
f 38/38/38 37/37/37 36/36/36
f 40/40/40 37/37/37 38/38/38
f 40/40/40 21/21/21 37/37/37
f 23/23/23 21/21/21 40/40/40
f 2/2/2 42/42/42 3/3/3
f 2/2/2 43/43/43 42/42/42
f 43/43/43 44/44/44 42/42/42
f 43/43/43 45/45/45 44/44/44
f 45/45/45 46/46/46 44/44/44
f 45/45/45 47/47/47 46/46/46
f 47/47/47 48/48/48 46/46/46
f 47/47/47 1/1/1 48/48/48
f 1/1/1 3/3/3 48/48/48
