# Exported using wow.export v0.1.64
o dragonblight_icicle_01
mtllib dragonblight_icicle_01.mtl
v 0.47564756870269775 1.9324994087219238 0.5517373085021973
v 0.5239662528038025 2.6974985599517822 0.7490668892860413
v 0.5171557664871216 2.6974985599517822 -0.8930315375328064
v 0.8749634027481079 -0.5146039724349976 0.09588272869586945
v 0.8760655522346497 -0.4894733428955078 -0.0569746308028698
v 1.0325309038162231 -1.3430655002593994 -0.008891208097338676
v 0.9224087595939636 0.3845347762107849 -0.09260052442550659
v 0.9195480346679688 0.3408198952674866 0.13186879456043243
v 0.8040887713432312 0.6400893330574036 -0.08373235911130905
v 0.8108792901039124 0.6596972346305847 0.20669135451316833
v 0.8829599022865295 1.3707927465438843 -0.24882054328918457
v 0.8772083520889282 1.4053672552108765 0.07200473546981812
v 0.4705105423927307 1.9324991703033447 -0.6868997812271118
v 0.47564756870269775 1.9324994087219238 0.5517373085021973
v -0.08410170674324036 -2.2247655391693115 -0.15232834219932556
v -0.08414921909570694 -2.2490689754486084 0.12361609935760498
v -0.2877158224582672 -3.225285768508911 0.0006168949184939265
v 0.05085821449756622 -0.9156545996665955 -0.24739646911621094
v 0.04860073700547218 -0.9720438122749329 0.15131375193595886
v 0.025205058977007866 -0.5336689949035645 -0.3643757104873657
v 0.023937633261084557 -0.47700944542884827 0.14715339243412018
v -0.06922329217195511 0.8897175192832947 -0.37401673197746277
v -0.05296577885746956 0.8844449520111084 0.2966974675655365
v 0.4705105423927307 1.9324991703033447 -0.6868997812271118
v 0.47564756870269775 1.9324994087219238 0.5517373085021973
v 1.2589341402053833 1.9329825639724731 0.6021100282669067
v 1.5623927116394043 2.6974985599517822 0.8158473372459412
v 0.5239662528038025 2.6974985599517822 0.7490668892860413
v 0.47564756870269775 1.9324994087219238 0.5517373085021973
v 0.8772083520889282 1.4053672552108765 0.07200473546981812
v 1.0206705331802368 -0.49606621265411377 0.1455479860305786
v 0.8749634027481079 -0.5146039724349976 0.09588272869586945
v 1.0325309038162231 -1.3430655002593994 -0.008891208097338676
v 1.1118247509002686 -0.4594792425632477 0.023385489359498024
v 0.9195480346679688 0.3408198952674866 0.13186879456043243
v 1.1347473859786987 0.35874372720718384 0.2074689269065857
v 0.8108792901039124 0.6596972346305847 0.20669135451316833
v 1.089289903640747 0.6425489783287048 0.2919500172138214
v 1.1552060842514038 1.2645339965820312 0.19075573980808258
v 1.2706085443496704 0.41353678703308105 0.02972298301756382
v 1.2545665502548218 0.612342119216919 0.054218947887420654
v 1.3744550943374634 1.199975609779358 -0.05097411572933197
v 1.8483412265777588 2.0882389545440674 -0.03989752009510994
v 2.1050405502319336 2.6974985599517822 0.04229247197508812
v 0.4705105423927307 1.9324991703033447 -0.6868997812271118
v 0.5171557664871216 2.6974985599517822 -0.8930315375328064
v 1.5390074253082275 2.6974985599517822 -0.7271255850791931
v 1.2412946224212646 1.9329825639724731 -0.5617567896842957
v 0.8829599022865295 1.3707927465438843 -0.24882054328918457
v 1.1978060007095337 1.2082111835479736 -0.33592307567596436
v 0.8040887713432312 0.6400893330574036 -0.08373235911130905
v 1.0783026218414307 0.6108218431472778 -0.17796573042869568
v 0.9224087595939636 0.3845347762107849 -0.09260052442550659
v 1.1393762826919556 0.42947641015052795 -0.1557300090789795
v 1.5390074253082275 2.6974985599517822 -0.7271255850791931
v 2.1050405502319336 2.6974985599517822 0.04229247197508812
v 1.8483412265777588 2.0882389545440674 -0.03989752009510994
v 1.3744550943374634 1.199975609779358 -0.05097411572933197
v 0.8760655522346497 -0.4894733428955078 -0.0569746308028698
v 1.022454023361206 -0.45540401339530945 -0.10178033262491226
v 1.0325309038162231 -1.3430655002593994 -0.008891208097338676
v 1.1118247509002686 -0.4594792425632477 0.023385489359498024
v 0.5171557664871216 2.6974985599517822 -0.8930315375328064
v 0.4705105423927307 1.9324991703033447 -0.6868997812271118
v -0.6962271928787231 1.797464370727539 -1.07634699344635
v -0.964781641960144 2.6974985599517822 -1.347486138343811
v -1.4121737480163574 1.6662143468856812 -0.07840193808078766
v -0.06922329217195511 0.8897175192832947 -0.37401673197746277
v -0.6167993545532227 0.5556523203849792 -0.5707671046257019
v -0.9389627575874329 0.3439163267612457 -0.021651173010468483
v 0.025205058977007866 -0.5336689949035645 -0.3643757104873657
v -0.4638715386390686 -0.5508589148521423 -0.5236954092979431
v -0.7674048542976379 -0.5048230290412903 -0.11063068360090256
v -0.33824580907821655 -2.1419286727905273 -0.2321607768535614
v -0.08410170674324036 -2.2247655391693115 -0.15232834219932556
v -0.2877158224582672 -3.225285768508911 0.0006168949184939265
v -0.4953629672527313 -2.1150357723236084 -0.005555453710258007
v -0.5467991232872009 -0.7773129343986511 -0.02786562778055668
v 0.05085821449756622 -0.9156545996665955 -0.24739646911621094
v -0.31711912155151367 -0.7953041195869446 -0.3581354022026062
v -0.687915563583374 1.797464370727539 0.9278094172477722
v -1.018604040145874 2.6974985599517822 1.2476369142532349
v -1.9787747859954834 2.6974985599517822 -0.08632747083902359
v 0.47564756870269775 1.9324994087219238 0.5517373085021973
v 0.5239662528038025 2.6974985599517822 0.7490668892860413
v -0.05296577885746956 0.8844449520111084 0.2966974675655365
v -0.08414921909570694 -2.2490689754486084 0.12361609935760498
v -0.33832260966300964 -2.1812522411346436 0.21432669460773468
v -0.2877158224582672 -3.225285768508911 0.0006168949184939265
v -0.4953629672527313 -2.1150357723236084 -0.005555453710258007
v -0.5904941558837891 0.5471209287643433 0.5144714117050171
v -0.4659222662448883 -0.45918190479278564 0.30397653579711914
v 0.023937633261084557 -0.47700944542884827 0.14715339243412018
v -0.3207719027996063 -0.8865440487861633 0.28699132800102234
v 0.04860073700547218 -0.9720438122749329 0.15131375193595886
v -0.5467991232872009 -0.7773129343986511 -0.02786562778055668
v 0.4705105423927307 1.9324991703033447 -0.6868997812271118
vn -0.11291158944368362 -0.5336130857467651 0.8381575345993042
vn -0.287830650806427 -0.22215230762958527 0.9315588474273682
vn -0.18040281534194946 -0.2312713861465454 -0.9560169577598572
vn -0.8181741237640381 -0.1082662045955658 0.5646853446960449
vn -0.806638777256012 -0.07190057635307312 -0.5866551399230957
vn 0.061691250652074814 -0.997404932975769 -0.03711612895131111
vn -0.7227936387062073 -0.17724119126796722 -0.667948305606842
vn -0.7902953028678894 -0.20190738141536713 0.5785038471221924
vn -0.8557620644569397 -0.16725008189678192 -0.4895903170108795
vn -0.7863826751708984 -0.0828542560338974 0.6121580004692078
vn -0.7137764692306519 -0.39186805486679077 -0.5804848074913025
vn -0.7917460203170776 -0.38002461194992065 0.4782463312149048
vn -0.03254667669534683 -0.5288938283920288 -0.8480637073516846
vn -0.11291158944368362 -0.5336130857467651 0.8381575345993042
vn 0.7739725708961487 -0.18528932332992554 -0.6055033206939697
vn 0.7970660924911499 -0.16986647248268127 0.5795093178749084
vn -0.028715167194604874 -0.9995623826980591 0.007104694377630949
vn 0.8265116214752197 -0.11089412122964859 -0.551888644695282
vn 0.8251726627349854 -0.030908286571502686 0.5640343427658081
vn 0.7870992422103882 -0.05118471011519432 -0.6146990656852722
vn 0.823333203792572 0.027064722031354904 0.5669125914573669
vn 0.7917449474334717 -0.2775214612483978 -0.5441707372665405
vn 0.7977985143661499 -0.2791881561279297 0.5343888998031616
vn -0.03254667669534683 -0.5288938283920288 -0.8480637073516846
vn -0.11291158944368362 -0.5336130857467651 0.8381575345993042
vn 0.2895136773586273 -0.46851205825805664 0.8346725702285767
vn 0.43632495403289795 -0.3851058781147003 0.8132121562957764
vn -0.287830650806427 -0.22215230762958527 0.9315588474273682
vn -0.11291158944368362 -0.5336130857467651 0.8381575345993042
vn -0.7917460203170776 -0.38002461194992065 0.4782463312149048
vn 0.2803061902523041 -0.1282823383808136 0.9513002038002014
vn -0.8181741237640381 -0.1082662045955658 0.5646853446960449
vn 0.061691250652074814 -0.997404932975769 -0.03711612895131111
vn 0.9904203414916992 -0.1380777209997177 -0.0014391153817996383
vn -0.7902953028678894 -0.20190738141536713 0.5785038471221924
vn 0.365291565656662 -0.17196209728717804 0.9148721694946289
vn -0.7863826751708984 -0.0828542560338974 0.6121580004692078
vn 0.2570430636405945 -0.055005136877298355 0.9648333191871643
vn 0.17657504975795746 -0.22571809589862823 0.9580566883087158
vn 0.9986220598220825 -0.049114495515823364 -0.0184866301715374
vn 0.9978470206260681 -0.03416580706834793 0.05598181113600731
vn 0.9252662658691406 -0.37503737211227417 0.056827183812856674
vn 0.9086766242980957 -0.400981068611145 -0.11627968400716782
vn 0.9017357230186462 -0.43225717544555664 -0.005135065410286188
vn -0.03254667669534683 -0.5288938283920288 -0.8480637073516846
vn -0.18040281534194946 -0.2312713861465454 -0.9560169577598572
vn 0.5185758471488953 -0.3687625527381897 -0.7714229226112366
vn 0.3771296739578247 -0.3515080213546753 -0.8568636775016785
vn -0.7137764692306519 -0.39186805486679077 -0.5804848074913025
vn 0.2793414294719696 -0.3321458399295807 -0.9009147882461548
vn -0.8557620644569397 -0.16725008189678192 -0.4895903170108795
vn 0.217441126704216 -0.15385094285011292 -0.9638720154762268
vn -0.7227936387062073 -0.17724119126796722 -0.667948305606842
vn 0.40792837738990784 -0.04198262840509415 -0.9120481610298157
vn 0.5185758471488953 -0.3687625527381897 -0.7714229226112366
vn 0.9017357230186462 -0.43225717544555664 -0.005135065410286188
vn 0.9086766242980957 -0.400981068611145 -0.11627968400716782
vn 0.9252662658691406 -0.37503737211227417 0.056827183812856674
vn -0.806638777256012 -0.07190057635307312 -0.5866551399230957
vn 0.2969662547111511 -0.09242000430822372 -0.950404942035675
vn 0.061691250652074814 -0.997404932975769 -0.03711612895131111
vn 0.9904203414916992 -0.1380777209997177 -0.0014391153817996383
vn -0.18040281534194946 -0.2312713861465454 -0.9560169577598572
vn -0.03254667669534683 -0.5288938283920288 -0.8480637073516846
vn -0.20218053460121155 -0.38584282994270325 -0.9001379609107971
vn -0.32403475046157837 -0.3632100522518158 -0.873544454574585
vn -0.9101678729057312 -0.414215624332428 -0.004451940767467022
vn 0.7917449474334717 -0.2775214612483978 -0.5441707372665405
vn -0.2876944839954376 -0.22689242660999298 -0.9304577708244324
vn -0.9618507623672485 -0.26981011033058167 0.04522820562124252
vn 0.7870992422103882 -0.05118471011519432 -0.6146990656852722
vn -0.3161159157752991 -0.34224316477775574 -0.8848391771316528
vn -0.9205321073532104 -0.38985246419906616 -0.025212645530700684
vn -0.3486165702342987 -0.14081957936286926 -0.9266263246536255
vn 0.7739725708961487 -0.18528932332992554 -0.6055033206939697
vn -0.028715167194604874 -0.9995623826980591 0.007104694377630949
vn -0.9949076175689697 -0.10066523402929306 0.005028848070651293
vn -0.9264383316040039 -0.3693383038043976 0.07280941307544708
vn 0.8265116214752197 -0.11089412122964859 -0.551888644695282
vn -0.31467685103416443 -0.44524767994880676 -0.8382917046546936
vn -0.19794628024101257 -0.3747418522834778 0.9057515263557434
vn -0.3325481116771698 -0.4285863935947418 0.8400746583938599
vn -0.8696955442428589 -0.4934191107749939 -0.0129313413053751
vn -0.11291158944368362 -0.5336130857467651 0.8381575345993042
vn -0.287830650806427 -0.22215230762958527 0.9315588474273682
vn 0.7977985143661499 -0.2791881561279297 0.5343888998031616
vn 0.7970660924911499 -0.16986647248268127 0.5795093178749084
vn -0.3219825029373169 -0.12302769720554352 0.9387179613113403
vn -0.028715167194604874 -0.9995623826980591 0.007104694377630949
vn -0.9949076175689697 -0.10066523402929306 0.005028848070651293
vn -0.21177208423614502 -0.2695139944553375 0.939422607421875
vn -0.3257363736629486 -0.2064824104309082 0.9226379990577698
vn 0.823333203792572 0.027064722031354904 0.5669125914573669
vn -0.2520763576030731 -0.07217568159103394 0.9650120139122009
vn 0.8251726627349854 -0.030908286571502686 0.5640343427658081
vn -0.9264383316040039 -0.3693383038043976 0.07280941307544708
vn -0.03254667669534683 -0.5288938283920288 -0.8480637073516846
vt 0 0
vt 7.637076630570253e-43 0
vt 0.029008328914642334 0.0004994869232177734
vt 0.6806275844573975 0.12247514724731445
vt 0.7458003759384155 0.16318851709365845
vt 0.8427599668502808 0.018966317176818848
vt 0.7135445475578308 0.3191699981689453
vt 0.6017618179321289 0.26158642768859863
vt 0.6965675950050354 0.3979625701904297
vt 0.5646032094955444 0.33223628997802734
vt 0.7464972734451294 0.5680755376815796
vt 0.4841689169406891 0.49585723876953125
vt 0.5930845141410828 0.6516445279121399
vt 0.39365702867507935 0.565119743347168
vt 0.966791033744812 0.2230767011642456
vt 0.7680482268333435 0.13346076011657715
vt 0.8906484842300415 0.06001293659210205
vt 0.947519063949585 0.39153409004211426
vt 0.7112029194831848 0.2358660101890564
vt 0.8753167390823364 0.4278598427772522
vt 0.6803209781646729 0.31458020210266113
vt 0.878309428691864 0.6046148538589478
vt 0.5706387162208557 0.3580021262168884
vt 0.7542821168899536 0.7982949614524841
vt 0.4225442707538605 0.5594244599342346
vt 0.4891251027584076 0.5961031317710876
vt 0.2875346541404724 0.7314547300338745
vt 0.7193692326545715 0.9128341674804688
vt 0.8399149775505066 0.7830518484115601
vt 0.7282658219337463 0.5897862911224365
vt 0.8693237900733948 0.20427316427230835
vt 0.9369630813598633 0.23564153909683228
vt 0.9735256433486938 0.044972896575927734
vt 0.8237777352333069 0.18926560878753662
vt 0.8469478487968445 0.3830198049545288
vt 0.7482718825340271 0.3349442481994629
vt 0.8543767333030701 0.4678754210472107
vt 0.7319316864013672 0.3982269763946533
vt 0.6219975352287292 0.49738776683807373
vt 0.6803537011146545 0.31262457370758057
vt 0.661832332611084 0.3531809449195862
vt 0.5321727395057678 0.4331080913543701
vt 0.2706397771835327 0.4278954267501831
vt 0.11747512966394424 0.5041030645370483
vt 0.8452062010765076 0.7818922400474548
vt 0.7265554666519165 0.9129329919815063
vt 0.30453699827194214 0.7349452972412109
vt 0.4989631175994873 0.6015863418579102
vt 0.7317009568214417 0.5811284184455872
vt 0.611058235168457 0.4772716760635376
vt 0.8604451417922974 0.46399402618408203
vt 0.7410258054733276 0.39438557624816895
vt 0.8399420976638794 0.38888007402420044
vt 0.7367560863494873 0.34644031524658203
vt 0.3032738268375397 0.7367501258850098
vt 0.12197070568799973 0.5065000057220459
vt 0.27199631929397583 0.43217629194259644
vt 0.5327719449996948 0.4344002604484558
vt 0.9318291544914246 0.2375403642654419
vt 0.8617307543754578 0.20960146188735962
vt 0.9705715179443359 0.04252356290817261
vt 0.8221121430397034 0.18792879581451416
vt 0.7410048246383667 0.9243720173835754
vt 0.7948472499847412 0.8206912279129028
vt 0.4657100439071655 0.6217970848083496
vt 0.3409561514854431 0.7599435448646545
vt 0.33306223154067993 0.43726474046707153
vt 0.7290573716163635 0.6051377654075623
vt 0.5984623432159424 0.47767841815948486
vt 0.5221400260925293 0.40033280849456787
vt 0.8822104334831238 0.44047439098358154
vt 0.7407650947570801 0.36206865310668945
vt 0.6470149755477905 0.320040225982666
vt 0.8772780895233154 0.18113601207733154
vt 0.9588733911514282 0.2103135585784912
vt 0.9876067638397217 0.05248206853866577
vt 0.8289791345596313 0.16003310680389404
vt 0.7364991307258606 0.32060253620147705
vt 0.8828523755073547 0.39633333683013916
vt 0.8052236437797546 0.35413867235183716
vt 0.46711257100105286 0.6225451231002808
vt 0.3244595229625702 0.751146137714386
vt 0.1174752339720726 0.5041030645370483
vt 0.7943963408470154 0.8204507827758789
vt 0.7410047650337219 0.9243720769882202
vt 0.7327425479888916 0.60619056224823
vt 0.9594956636428833 0.20643943548202515
vt 0.8794187307357788 0.17547214031219482
vt 0.9862610101699829 0.05176442861557007
vt 0.82779860496521 0.15940356254577637
vt 0.6057994365692139 0.48011481761932373
vt 0.7308754920959473 0.372660756111145
vt 0.8752487897872925 0.4465676546096802
vt 0.8108845353126526 0.341367244720459
vt 0.8855533003807068 0.3880147933959961
vt 0.7353596091270447 0.3199949264526367
vt 0.0004995167255401611 0.18964022397994995
g Geoset0
s 1
usemtl mat_dragonblight_iceshard_01
f 1/1/1 2/2/2 3/3/3
f 4/4/4 5/5/5 6/6/6
f 7/7/7 5/5/5 4/4/4
f 4/4/4 8/8/8 7/7/7
f 9/9/9 7/7/7 8/8/8
f 8/8/8 10/10/10 9/9/9
f 11/11/11 9/9/9 10/10/10
f 12/12/12 11/11/11 10/10/10
f 13/13/13 11/11/11 12/12/12
f 12/12/12 14/14/14 13/13/13
f 15/15/15 16/16/16 17/17/17
f 15/15/15 18/18/18 16/16/16
f 19/19/19 16/16/16 18/18/18
f 18/18/18 20/20/20 19/19/19
f 21/21/21 19/19/19 20/20/20
f 20/20/20 22/22/22 21/21/21
f 22/22/22 23/23/23 21/21/21
f 22/22/22 24/24/24 23/23/23
f 25/25/25 23/23/23 24/24/24
f 26/26/26 27/27/27 28/28/28
f 28/28/28 29/29/29 26/26/26
f 29/29/29 30/30/30 26/26/26
f 31/31/31 32/32/32 33/33/33
f 34/34/34 31/31/31 33/33/33
f 35/35/35 32/32/32 31/31/31
f 31/31/31 36/36/36 35/35/35
f 37/37/37 35/35/35 36/36/36
f 36/36/36 38/38/38 37/37/37
f 30/30/30 37/37/37 38/38/38
f 39/39/39 30/30/30 38/38/38
f 39/39/39 26/26/26 30/30/30
f 36/36/36 31/31/31 34/34/34
f 34/34/34 40/40/40 36/36/36
f 38/38/38 36/36/36 40/40/40
f 40/40/40 41/41/41 38/38/38
f 39/39/39 38/38/38 41/41/41
f 42/42/42 39/39/39 41/41/41
f 26/26/26 39/39/39 42/42/42
f 42/42/42 43/43/43 26/26/26
f 27/27/27 26/26/26 43/43/43
f 43/43/43 44/44/44 27/27/27
f 45/45/45 46/46/46 47/47/47
f 47/47/47 48/48/48 45/45/45
f 49/49/49 45/45/45 48/48/48
f 48/48/48 50/50/50 49/49/49
f 49/49/49 50/50/50 51/51/51
f 50/50/50 52/52/52 51/51/51
f 53/53/53 51/51/51 52/52/52
f 52/52/52 54/54/54 53/53/53
f 48/48/48 55/55/55 56/56/56
f 56/56/56 57/57/57 48/48/48
f 50/50/50 48/48/48 57/57/57
f 57/57/57 58/58/58 50/50/50
f 50/50/50 58/58/58 52/52/52
f 58/58/58 41/41/41 52/52/52
f 54/54/54 52/52/52 41/41/41
f 41/41/41 40/40/40 54/54/54
f 59/59/59 60/60/60 61/61/61
f 60/60/60 62/62/62 61/61/61
f 59/59/59 53/53/53 54/54/54
f 54/54/54 60/60/60 59/59/59
f 60/60/60 54/54/54 40/40/40
f 40/40/40 62/62/62 60/60/60
f 63/63/63 64/64/64 65/65/65
f 65/65/65 66/66/66 63/63/63
f 66/66/66 65/65/65 67/67/67
f 64/64/64 68/68/68 65/65/65
f 69/69/69 65/65/65 68/68/68
f 65/65/65 69/69/69 67/67/67
f 70/70/70 67/67/67 69/69/69
f 69/69/69 68/68/68 71/71/71
f 72/72/72 69/69/69 71/71/71
f 70/70/70 69/69/69 72/72/72
f 73/73/73 70/70/70 72/72/72
f 74/74/74 75/75/75 76/76/76
f 77/77/77 74/74/74 76/76/76
f 77/77/77 78/78/78 74/74/74
f 79/79/79 75/75/75 80/80/80
f 74/74/74 80/80/80 75/75/75
f 80/80/80 74/74/74 78/78/78
f 78/78/78 73/73/73 80/80/80
f 72/72/72 80/80/80 73/73/73
f 80/80/80 72/72/72 79/79/79
f 71/71/71 79/79/79 72/72/72
f 81/81/81 82/82/82 83/83/83
f 84/84/84 85/85/85 82/82/82
f 82/82/82 81/81/81 84/84/84
f 81/81/81 86/86/86 84/84/84
f 87/87/87 88/88/88 89/89/89
f 88/88/88 90/90/90 89/89/89
f 86/86/86 81/81/81 91/91/91
f 86/86/86 91/91/91 92/92/92
f 93/93/93 86/86/86 92/92/92
f 92/92/92 94/94/94 93/93/93
f 95/95/95 93/93/93 94/94/94
f 94/94/94 88/88/88 95/95/95
f 87/87/87 95/95/95 88/88/88
f 88/88/88 94/94/94 90/90/90
f 96/96/96 90/90/90 94/94/94
f 94/94/94 92/92/92 96/96/96
f 73/73/73 96/96/96 92/92/92
f 92/92/92 91/91/91 73/73/73
f 91/91/91 70/70/70 73/73/73
f 91/91/91 81/81/81 70/70/70
f 67/67/67 70/70/70 81/81/81
f 83/83/83 67/67/67 81/81/81
f 67/67/67 83/83/83 66/66/66
f 3/3/3 97/97/97 1/1/1
