# Exported using wow.export v0.1.64
o dragonblight_rock_grey_01
mtllib dragonblight_rock_grey_01.mtl
v 0.23813822865486145 3.281975269317627 3.1752688884735107
v -1.5213533639907837 2.8851230144500732 3.8246333599090576
v -1.1676629781723022 -0.666187584400177 2.929208278656006
v -2.0608506202697754 -0.6847591400146484 -0.21291279792785645
v -2.1956963539123535 -0.655289351940155 0.6378395557403564
v -1.9934927225112915 0.04331332445144653 -0.25473180413246155
v -2.207942008972168 -0.6847591400146484 -2.47147274017334
v -2.5279693603515625 -0.5546433329582214 1.2325981855392456
v -3.6246337890625 4.05552339553833 1.4256759881973267
v -2.4686965942382812 4.771259784698486 0.1486857533454895
v -2.696559190750122 3.781812906265259 -1.9132790565490723
v -0.7218239307403564 3.5834779739379883 -3.196183919906616
v -0.6712282299995422 -0.6847591400146484 -2.26094388961792
v -0.07717025279998779 -0.6847591400146484 -2.834878444671631
v 1.187767744064331 -0.6847591400146484 -1.9709739685058594
v 0.6345332264900208 -0.6847591400146484 -2.7964789867401123
v 0.6835797429084778 2.8126633167266846 -3.6274707317352295
v 0.11258533596992493 3.7752838134765625 -4.130737781524658
v -0.2072962075471878 9.780789375305176 -1.633743166923523
v -1.02010977268219 11.89266586303711 -1.1622213125228882
v -1.1748969554901123 8.83498477935791 -0.6857165694236755
v -2.4560704231262207 8.673051834106445 0.05866487696766853
v 0.27700701355934143 12.657496452331543 -0.6283645629882812
v -0.049184102565050125 10.056662559509277 -2.2271509170532227
v 0.9941518902778625 8.72164249420166 -2.834453582763672
v 1.0921478271484375 2.6676535606384277 -2.2483768463134766
v 2.2102622985839844 -0.6847591400146484 -0.4207666218280792
v 2.127180337905884 4.008280277252197 3.7936487197875977
v 1.5060280561447144 8.49506664276123 3.2372078895568848
v 1.0911508798599243 7.640891075134277 3.0498154163360596
v 1.6604828834533691 7.393802165985107 2.30168080329895
v 1.227667212486267 13.897435188293457 2.357438325881958
v 2.498208522796631 10.558731079101562 0.7986744046211243
v 2.3128645420074463 15.84264087677002 1.3066762685775757
v 1.7591352462768555 9.026572227478027 -0.408841609954834
v 1.868752360343933 15.205058097839355 -0.4982280731201172
v 1.2250150442123413 8.673051834106445 -1.9969255924224854
v 0.2716870605945587 11.34603214263916 -1.8984909057617188
v 2.4676520824432373 2.7962303161621094 2.803868532180786
v 2.5510263442993164 4.825235843658447 0.953607439994812
v 3.6279115676879883 3.6792984008789062 -0.6090593338012695
v 2.60388445854187 -0.6847591400146484 1.2868648767471313
v 1.5844312906265259 -0.6847591400146484 3.064453125
v 1.701160192489624 -0.6847591400146484 1.9370795488357544
v 0.23813822865486145 3.281975269317627 3.1752688884735107
v 0.1334599256515503 -0.6847591400146484 2.560330390930176
v 1.0018078088760376 -0.6847591400146484 3.2747223377227783
v 1.4552055597305298 5.305268287658691 4.014104843139648
v 0.3826344311237335 6.9391255378723145 2.7955310344696045
v 1.3067272901535034 12.386627197265625 2.87699818611145
v 0.030865749344229698 12.381619453430176 1.6321223974227905
v -0.13820265233516693 19.65495491027832 -0.6586182713508606
v 0.6872293949127197 18.697046279907227 -0.4499273896217346
v 1.3422714471817017 18.878284454345703 0.1762087494134903
v 1.6182966232299805 19.65495491027832 1.3105841875076294
v 0.7466888427734375 19.65495491027832 1.151950478553772
v 0.05644330009818077 19.65495491027832 1.5217496156692505
v 0.6264482736587524 22.974180221557617 0.8222352266311646
v 0.208246111869812 21.04847526550293 0.18291205167770386
v -0.34082815051078796 20.058610916137695 0.06834409385919571
v -0.9161450266838074 19.001752853393555 0.009218325838446617
v -0.5716830492019653 19.669431686401367 0.676167905330658
v 0.05644330009818077 19.65495491027832 1.5217496156692505
v 0.030865749344229698 12.381619453430176 1.6321223974227905
v -1.4442883729934692 13.897436141967773 0.8197940587997437
v -1.8312606811523438 13.897436141967773 -0.20453159511089325
v -0.5889564156532288 7.107643127441406 1.6781619787216187
v 0.3826344311237335 6.9391255378723145 2.7955310344696045
v -2.340143918991089 8.673051834106445 1.588339924812317
v 0.1334599256515503 -0.6847591400146484 2.560330390930176
vn -0.23583535850048065 0.13709822297096252 0.9620736837387085
vn -0.22396540641784668 0.03366992250084877 0.9740152955055237
vn -0.21857108175754547 -0.5517626404762268 0.804850697517395
vn -0.9710624814033508 0.23298190534114838 -0.0525076799094677
vn -0.8860164880752563 -0.2485775351524353 -0.39138728380203247
vn -0.9969781041145325 -0.0603497251868248 -0.04891396686434746
vn -0.6844273805618286 -0.3506893217563629 -0.6391996145248413
vn -0.8343110084533691 -0.5490165948867798 0.05005936324596405
vn -0.9984669089317322 -0.035371970385313034 0.04257472604513168
vn -0.9023382067680359 0.05749502778053284 -0.42717689275741577
vn -0.8883664011955261 0.25529399514198303 -0.38161513209342957
vn -0.6101433038711548 0.1435319036245346 -0.7791814208030701
vn -0.2519528865814209 -0.49644988775253296 -0.8306968212127686
vn -0.33395645022392273 -0.513200044631958 -0.790631890296936
vn 0.8518383502960205 -0.13979637622833252 -0.504805326461792
vn 0.47164666652679443 -0.4866074323654175 -0.735365629196167
vn 0.692797839641571 -0.2959219813346863 -0.6576179265975952
vn -0.09277071058750153 0.04533275216817856 -0.9946550130844116
vn -0.7630090713500977 0.5479663610458374 -0.34285563230514526
vn -0.1455085426568985 -0.0897776409983635 -0.9852752089500427
vn -0.6337719559669495 0.34226447343826294 -0.6936772465705872
vn -0.8531630039215088 0.1967330276966095 -0.4831241965293884
vn 0.02793562412261963 0.3989681005477905 -0.916539192199707
vn -0.629004180431366 0.5504657030105591 -0.5489456057548523
vn 0.5098370313644409 0.5709112882614136 -0.6435266137123108
vn 0.8618084192276001 -0.02736136130988598 -0.5064954161643982
vn 0.729896068572998 -0.5273115038871765 -0.43496468663215637
vn 0.6774649024009705 0.02671114355325699 0.7350699305534363
vn 0.4220031201839447 0.33762073516845703 0.841383159160614
vn -0.4253355860710144 0.2243182361125946 0.8767958283424377
vn 0.9289451837539673 0.25768032670021057 0.26582255959510803
vn 0.14767439663410187 0.23292627930641174 0.9612167477607727
vn 0.9682348370552063 0.2500426471233368 0.00014944912982173264
vn 0.87523353099823 0.3437957465648651 0.34025105834007263
vn 0.8080480694770813 0.2631874680519104 -0.5270585417747498
vn 0.5538796782493591 0.3641224503517151 -0.7487537264823914
vn 0.8944522142410278 0.2776210606098175 -0.35054489970207214
vn -0.020471736788749695 0.9030017256736755 -0.42914897203445435
vn 0.9515224099159241 -0.0898713767528534 0.29415687918663025
vn 0.892680287361145 0.1711670607328415 0.4169217348098755
vn 0.9554914236068726 0.031957440078258514 -0.29328280687332153
vn 0.8177503943443298 -0.4932277500629425 0.2966659963130951
vn 0.6460523009300232 -0.509051501750946 0.5687556266784668
vn 0.6444836854934692 -0.6499360799789429 0.4027703106403351
vn -0.23583535850048065 0.13709822297096252 0.9620736837387085
vn -0.17018403112888336 -0.3681865632534027 0.9140437841415405
vn -0.18123622238636017 -0.33312276005744934 0.9253013730049133
vn 0.04218963906168938 0.5136232376098633 0.8569779396057129
vn -0.5848991870880127 0.2595541179180145 0.768455982208252
vn 0.2391817569732666 0.6140461564064026 0.7521564960479736
vn -0.5345149040222168 0.20109567046165466 0.8208863139152527
vn -0.1289140284061432 0.6817268133163452 -0.7201595306396484
vn 0.5078846216201782 0.2634468078613281 -0.8201518058776855
vn 0.7079284191131592 0.43476957082748413 -0.556608259677887
vn 0.629539966583252 0.500516414642334 0.5942749381065369
vn 0.19335687160491943 0.31423792243003845 0.9294447898864746
vn -0.2784969210624695 0.4298161268234253 0.8588932156562805
vn 0.04662895202636719 0.9974691271781921 0.05367593467235565
vn -0.26559436321258545 0.785142183303833 -0.5594742298126221
vn -0.5347172021865845 0.8289103507995605 -0.16427162289619446
vn -0.7904726266860962 0.5885288715362549 -0.16966663300991058
vn -0.7522345185279846 0.5868231058120728 0.29963627457618713
vn -0.2784969210624695 0.4298161268234253 0.8588932156562805
vn -0.5345149040222168 0.20109567046165466 0.8208863139152527
vn -0.6622676849365234 0.3712773323059082 0.6508107781410217
vn -0.8773840665817261 0.3993828296661377 -0.2658769190311432
vn -0.232834592461586 0.5421097278594971 0.8074063658714294
vn -0.5848991870880127 0.2595541179180145 0.768455982208252
vn -0.5175302624702454 0.6075670719146729 0.6025153398513794
vn -0.17018403112888336 -0.3681865632534027 0.9140437841415405
vt 0.9670395255088806 0.6518986821174622
vt 0.894061267375946 0.6595801115036011
vt 0.8931084871292114 0.7002909779548645
vt 0.6969509124755859 0.7463759779930115
vt 0.7363693118095398 0.7582733035087585
vt 0.7043625712394714 0.7166695594787598
vt 0.6112944483757019 0.7134777903556824
vt 0.7936537265777588 0.6883611083030701
vt 0.8089939951896667 0.5982352495193481
vt 0.7471160292625427 0.6101366877555847
vt 0.6721504926681519 0.6308013796806335
vt 0.6059096455574036 0.5896069407463074
vt 0.5646165609359741 0.667559027671814
vt 0.531379759311676 0.6522213816642761
vt 0.4679836928844452 0.5904999375343323
vt 0.5017555952072144 0.6284154653549194
vt 0.5458537936210632 0.5648782849311829
vt 0.5755895376205444 0.5632259249687195
vt 0.6922317147254944 0.4284048080444336
vt 0.7450534105300903 0.3762366771697998
vt 0.7306056618690491 0.4724668264389038
vt 0.7824328541755676 0.49773073196411133
vt 0.7094451785087585 0.31873810291290283
vt 0.668940544128418 0.4238704442977905
vt 0.6194607615470886 0.43826544284820557
vt 0.5131978988647461 0.5244840979576111
vt 0.40629279613494873 0.5044028759002686
vt 0.390646755695343 0.23516148328781128
vt 0.5014798641204834 0.1546546220779419
vt 0.4777531325817108 0.13411247730255127
vt 0.49632975459098816 0.22295403480529785
vt 0.6396615505218506 0.09475827217102051
vt 0.5978191494941711 0.24037820100784302
vt 0.6993517279624939 0.13755083084106445
vt 0.5925496816635132 0.3309550881385803
vt 0.7151481509208679 0.21284210681915283
vt 0.6071321964263916 0.40583133697509766
vt 0.6746727228164673 0.3867204189300537
vt 0.3802245259284973 0.30402588844299316
vt 0.4641021490097046 0.3399807810783386
vt 0.47577449679374695 0.4249429702758789
vt 0.34182053804397583 0.4256165027618408
vt 0.2920657992362976 0.28574955463409424
vt 0.3146151304244995 0.3509892225265503
vt 0.35611048340797424 0.1243818998336792
vt 0.26509663462638855 0.16888153553009033
vt 0.27510157227516174 0.2294788360595703
vt 0.41265320777893066 0.18612468242645264
vt 0.45805907249450684 0.09553790092468262
vt 0.5869818925857544 0.11646145582199097
vt 0.6055266857147217 0.02662837505340576
vt 0.816421627998352 0.1802629828453064
vt 0.7890255451202393 0.1745254397392273
vt 0.77585369348526 0.14438438415527344
vt 0.7745479941368103 0.09544336795806885
vt 0.7791516184806824 0.056263864040374756
vt 0.7807998061180115 0.01804971694946289
vt 0.8587482571601868 0.06441032886505127
vt 0.8369825482368469 0.13027024269104004
vt 0.8392463326454163 0.16905301809310913
vt 0.8393504023551941 0.2028571367263794
vt 0.8625261783599854 0.17656725645065308
vt 0.9016069173812866 0.1585736870765686
vt 0.9230590462684631 0.3669118881225586
vt 0.8538004755973816 0.3390007019042969
vt 0.8113818168640137 0.3382779359817505
vt 0.9123137593269348 0.5304725766181946
vt 0.9713067412376404 0.53049236536026
vt 0.8409256935119629 0.5082721710205078
vt 0.9664689302444458 0.7609167098999023
g Geoset0
s 1
usemtl mat_dragonblight_cliffshard_grey_01
f 1/1/1 2/2/2 3/3/3
f 4/4/4 5/5/5 6/6/6
f 7/7/7 4/4/4 6/6/6
f 8/8/8 3/3/3 2/2/2
f 2/2/2 9/9/9 8/8/8
f 8/8/8 9/9/9 5/5/5
f 9/9/9 10/10/10 5/5/5
f 10/10/10 6/6/6 5/5/5
f 6/6/6 10/10/10 11/11/11
f 11/11/11 7/7/7 6/6/6
f 7/7/7 11/11/11 12/12/12
f 12/12/12 13/13/13 7/7/7
f 14/14/14 13/13/13 12/12/12
f 15/15/15 16/16/16 17/17/17
f 17/17/17 16/16/16 14/14/14
f 14/14/14 18/18/18 17/17/17
f 12/12/12 18/18/18 14/14/14
f 18/18/18 12/12/12 19/19/19
f 20/20/20 21/21/21 22/22/22
f 21/21/21 20/20/20 23/23/23
f 23/23/23 19/19/19 21/21/21
f 24/24/24 19/19/19 23/23/23
f 19/19/19 24/24/24 18/18/18
f 18/18/18 24/24/24 25/25/25
f 25/25/25 17/17/17 18/18/18
f 26/26/26 17/17/17 25/25/25
f 17/17/17 26/26/26 15/15/15
f 27/27/27 15/15/15 26/26/26
f 28/28/28 29/29/29 30/30/30
f 31/31/31 29/29/29 28/28/28
f 29/29/29 31/31/31 32/32/32
f 32/32/32 31/31/31 33/33/33
f 33/33/33 34/34/34 32/32/32
f 34/34/34 33/33/33 35/35/35
f 35/35/35 36/36/36 34/34/34
f 36/36/36 35/35/35 37/37/37
f 37/37/37 23/23/23 36/36/36
f 38/38/38 23/23/23 37/37/37
f 31/31/31 39/39/39 40/40/40
f 40/40/40 33/33/33 31/31/31
f 33/33/33 40/40/40 41/41/41
f 41/41/41 35/35/35 33/33/33
f 35/35/35 41/41/41 26/26/26
f 26/26/26 37/37/37 35/35/35
f 25/25/25 37/37/37 26/26/26
f 37/37/37 25/25/25 38/38/38
f 38/38/38 25/25/25 24/24/24
f 23/23/23 38/38/38 24/24/24
f 26/26/26 41/41/41 27/27/27
f 42/42/42 27/27/27 41/41/41
f 41/41/41 40/40/40 42/42/42
f 42/42/42 40/40/40 39/39/39
f 43/43/43 44/44/44 39/39/39
f 39/39/39 44/44/44 42/42/42
f 45/45/45 46/46/46 47/47/47
f 47/47/47 48/48/48 45/45/45
f 48/48/48 47/47/47 43/43/43
f 43/43/43 28/28/28 48/48/48
f 39/39/39 28/28/28 43/43/43
f 28/28/28 39/39/39 31/31/31
f 45/45/45 48/48/48 30/30/30
f 30/30/30 48/48/48 28/28/28
f 30/30/30 49/49/49 45/45/45
f 49/49/49 30/30/30 50/50/50
f 50/50/50 30/30/30 29/29/29
f 32/32/32 50/50/50 29/29/29
f 49/49/49 32/32/32 51/51/51
f 50/50/50 32/32/32 49/49/49
f 20/20/20 52/52/52 53/53/53
f 53/53/53 23/23/23 20/20/20
f 23/23/23 53/53/53 54/54/54
f 54/54/54 36/36/36 23/23/23
f 36/36/36 54/54/54 55/55/55
f 55/55/55 34/34/34 36/36/36
f 34/34/34 55/55/55 56/56/56
f 56/56/56 32/32/32 34/34/34
f 32/32/32 56/56/56 57/57/57
f 57/57/57 51/51/51 32/32/32
f 56/56/56 58/58/58 57/57/57
f 55/55/55 58/58/58 56/56/56
f 54/54/54 58/58/58 55/55/55
f 54/54/54 53/53/53 58/58/58
f 59/59/59 58/58/58 53/53/53
f 59/59/59 53/53/53 52/52/52
f 52/52/52 60/60/60 59/59/59
f 52/52/52 61/61/61 60/60/60
f 60/60/60 61/61/61 62/62/62
f 59/59/59 60/60/60 62/62/62
f 58/58/58 59/59/59 62/62/62
f 63/63/63 58/58/58 62/62/62
f 64/64/64 63/63/63 62/62/62
f 62/62/62 65/65/65 64/64/64
f 65/65/65 62/62/62 61/61/61
f 61/61/61 66/66/66 65/65/65
f 66/66/66 61/61/61 52/52/52
f 52/52/52 20/20/20 66/66/66
f 64/64/64 67/67/67 68/68/68
f 67/67/67 64/64/64 65/65/65
f 65/65/65 69/69/69 67/67/67
f 69/69/69 65/65/65 66/66/66
f 66/66/66 22/22/22 69/69/69
f 22/22/22 66/66/66 20/20/20
f 19/19/19 12/12/12 11/11/11
f 11/11/11 21/21/21 19/19/19
f 21/21/21 11/11/11 10/10/10
f 10/10/10 22/22/22 21/21/21
f 22/22/22 10/10/10 9/9/9
f 9/9/9 69/69/69 22/22/22
f 69/69/69 9/9/9 2/2/2
f 2/2/2 67/67/67 69/69/69
f 67/67/67 2/2/2 1/1/1
f 1/1/1 68/68/68 67/67/67
f 3/3/3 70/70/70 1/1/1
