# Exported using wow.export v0.1.64
o orcjug01
mtllib orcjug01.mtl
v -0.0018997308798134327 0 0.004767894744873047
v -0.3626612722873688 6.105390415456213e-9 0.004767894744873047
v -0.18228060007095337 -6.105388195010164e-9 -0.3076608180999756
v -0.0018997308798134327 1.4808322191238403 0.004767894744873047
v 0.11927459388971329 1.4808320999145508 -0.20511221885681152
v -0.12307410687208176 1.4808320999145508 -0.20511220395565033
v 0.2404489517211914 1.4808320999145508 0.004767873790115118
v 0.11927461624145508 1.4808320999145508 0.21464799344539642
v -0.12307405471801758 1.4808320999145508 0.21464800834655762
v -0.2442484200000763 1.4808320999145508 0.004767894744873047
v 0.13042311370372772 0.3469044268131256 -0.35210731625556946
v 0.014985245652496815 0.23622041940689087 -0.38489341735839844
v 0.014985240064561367 0.4437922537326813 -0.6130446195602417
v 0.11118348687887192 0.4852065443992615 -0.526217520236969
v 0.014985241927206516 0.7720552086830139 -0.6728917956352234
v 0.10163585096597672 0.7267802953720093 -0.5990099906921387
v 0.014985238201916218 1.0127205848693848 -0.439456045627594
v 0.0952172800898552 0.9328579306602478 -0.4317661225795746
v 0.01498522236943245 0.9312140345573425 -0.18506796658039093
v 0.07718060165643692 0.880896806716919 -0.22162553668022156
v 0.014985238201916218 0.8529951572418213 -0.42407622933387756
v 0.014985223300755024 0.8305796980857849 -0.2581830322742462
v 0.014985245652496815 0.6815054416656494 -0.5251282453536987
v 0.014985252171754837 0.5266210436820984 -0.4393903911113739
v 0.014985263347625732 0.4575885236263275 -0.3193212151527405
v -0.10045261681079865 0.34690460562705994 -0.3521072566509247
v 0.014985263347625732 0.4575885236263275 -0.3193212151527405
v 0.014985252171754837 0.5266210436820984 -0.4393903911113739
v -0.08121297508478165 0.4852067232131958 -0.526217520236969
v 0.014985245652496815 0.6815054416656494 -0.5251282453536987
v -0.07166538387537003 0.726780354976654 -0.5990099906921387
v 0.014985238201916218 0.8529951572418213 -0.42407622933387756
v -0.0652468129992485 0.9328579306602478 -0.4317661225795746
v 0.014985223300755024 0.8305796980857849 -0.2581830322742462
v -0.04721016809344292 0.880896806716919 -0.22162553668022156
v 0.014985238201916218 1.0127205848693848 -0.439456045627594
v 0.01498522236943245 0.9312140345573425 -0.18506796658039093
v 0.014985241927206516 0.7720552086830139 -0.6728917956352234
v 0.014985240064561367 0.4437922537326813 -0.6130446195602417
v 0.014985245652496815 0.23622041940689087 -0.38489341735839844
v -0.18228060007095337 -6.105388195010164e-9 -0.3076608180999756
v -0.3626612722873688 6.105390415456213e-9 0.004767894744873047
v -0.500817596912384 0.1837839037179947 0.004767900798469782
v -0.25135868787765503 0.1837839037179947 -0.4273076057434082
v 0.1784810572862625 -6.105388639099374e-9 -0.3076608180999756
v 0.24755913019180298 0.1837839037179947 -0.4273076355457306
v 0.35886192321777344 6.105388639099374e-9 0.004767862614244223
v 0.49701806902885437 0.1837839037179947 0.004767857491970062
v -0.3872341811656952 0.8240075707435608 0.017127512022852898
v -0.194567009806633 0.8240075707435608 -0.31658193469047546
v 0.19076748192310333 0.8240075707435608 -0.31658193469047546
v 0.3834347128868103 0.8240075707435608 0.017127472907304764
v -0.17019744217395782 1.110624074935913 0.004767894744873047
v -0.08604860305786133 1.110624074935913 -0.14098218083381653
v 0.08224910497665405 1.110624074935913 -0.14098219573497772
v 0.16639798879623413 1.110624074935913 0.004767879843711853
v 0.11927459388971329 1.4808320999145508 -0.20511221885681152
v 0.2404489517211914 1.4808320999145508 0.004767873790115118
v -0.12307410687208176 1.4808320999145508 -0.20511220395565033
v -0.2442484200000763 1.4808320999145508 0.004767894744873047
v 0.08224912732839584 1.110624074935913 0.15051797032356262
v 0.2404489517211914 1.4808320999145508 0.004767873790115118
v 0.11927461624145508 1.4808320999145508 0.21464799344539642
v 0.16639798879623413 1.110624074935913 0.004767879843711853
v 0.17649586498737335 0.8240075707435608 0.31375807523727417
v 0.3834347128868103 0.8240075707435608 0.017127472907304764
v 0.24755920469760895 0.1837839037179947 0.4368433952331543
v 0.49701806902885437 0.1837839037179947 0.004767857491970062
v 0.1784810870885849 0 0.3171966075897217
v 0.35886192321777344 6.105388639099374e-9 0.004767862614244223
v -0.1822805106639862 0 0.3171966075897217
v -0.25135862827301025 0.1837839037179947 0.4368434250354767
v -0.18029528856277466 0.8240075707435608 0.31375810503959656
v -0.08604857325553894 1.110624074935913 0.15051798522472382
v -0.12307405471801758 1.4808320999145508 0.21464800834655762
v -0.17019744217395782 1.110624074935913 0.004767894744873047
v -0.2442484200000763 1.4808320999145508 0.004767894744873047
v -0.3872341811656952 0.8240075707435608 0.017127512022852898
v -0.500817596912384 0.1837839037179947 0.004767900798469782
v -0.3626612722873688 6.105390415456213e-9 0.004767894744873047
v 0.35886192321777344 6.105388639099374e-9 0.004767862614244223
v 0.1784810870885849 0 0.3171966075897217
v -0.1822805106639862 0 0.3171966075897217
v 0.1784810572862625 -6.105388639099374e-9 -0.3076608180999756
vn -2.960594661747672e-15 -1 9.770850795121078e-9
vn -0.5111827254295349 -0.8538232445716858 0.09837719798088074
vn -0.34078848361968994 -0.8538233041763306 -0.39350855350494385
vn 0 1 0
vn 0.5685607194900513 0.4957050383090973 -0.656517505645752
vn -0.2842804491519928 0.4957050383090973 -0.8206467628479004
vn 0.8528411984443665 0.4957050383090973 0.16412930190563202
vn 0.2842804193496704 0.4957050085067749 0.8206468224525452
vn -0.5685607194900513 0.49570509791374207 0.6565174460411072
vn -0.8528411984443665 0.4957050383090973 -0.16412930190563202
vn 0.9357832670211792 -0.22134986519813538 -0.27443382143974304
vn -0.29164937138557434 -0.7052186727523804 -0.6462253928184509
vn 0.01594061218202114 -0.4919474422931671 -0.8704789280891418
vn 0.9790434241294861 0.1527658998966217 -0.1346721053123474
vn 0.012733316980302334 0.2525867819786072 -0.9674904346466064
vn 0.9626973271369934 0.2696862816810608 0.021980570629239082
vn -0.003642273135483265 0.9627153873443604 -0.2704918384552002
vn 0.9634844064712524 0.08271826058626175 0.25466734170913696
vn 0.296298086643219 0.9083975553512573 0.2949937880039215
vn 0.9363942742347717 -0.3509015142917633 0.005823557265102863
vn -0.028413958847522736 -0.8988352417945862 0.4373646080493927
vn -0.30331939458847046 -0.9428132772445679 -0.13820460438728333
vn -0.07332061976194382 -0.04628285393118858 0.9962338805198669
vn -0.06280618160963058 0.6684129238128662 0.7411339282989502
vn 0.2736112177371979 0.8231905102729797 0.49748796224594116
vn -0.936722993850708 0.32589423656463623 0.12783977389335632
vn 0.2736112177371979 0.8231905102729797 0.49748796224594116
vn -0.06280618160963058 0.6684129238128662 0.7411339282989502
vn -0.9992256760597229 -0.009573145769536495 0.038162440061569214
vn -0.07332061976194382 -0.04628285393118858 0.9962338805198669
vn -0.9925376772880554 -0.12161866575479507 0.008826309815049171
vn -0.028413958847522736 -0.8988352417945862 0.4373646080493927
vn -0.9915667176246643 -0.05993712693452835 -0.11490435153245926
vn -0.30331939458847046 -0.9428132772445679 -0.13820460438728333
vn -0.9404664635658264 0.3040466904640198 0.15191583335399628
vn -0.003642273135483265 0.9627153873443604 -0.2704918384552002
vn 0.296298086643219 0.9083975553512573 0.2949937880039215
vn 0.012733316980302334 0.2525867819786072 -0.9674904346466064
vn 0.01594061218202114 -0.4919474422931671 -0.8704789280891418
vn -0.29164937138557434 -0.7052186727523804 -0.6462253928184509
vn -0.34078848361968994 -0.8538233041763306 -0.39350855350494385
vn -0.5111827254295349 -0.8538232445716858 0.09837719798088074
vn -0.9706814289093018 -0.23847824335098267 0.0300949327647686
vn -0.4993434250354767 -0.23458626866340637 -0.8340415954589844
vn 0.17039422690868378 -0.8538232445716858 -0.49188581109046936
vn 0.47324642539024353 -0.23285555839538574 -0.8495976328849792
vn 0.5111827254295349 -0.8538232445716858 -0.09837720543146133
vn 0.970707356929779 -0.23980015516281128 -0.01493857055902481
vn -0.9147712588310242 0.4037814140319824 0.012413794174790382
vn -0.4453311264514923 0.40270933508872986 -0.7996907830238342
vn 0.4691613018512726 0.39850300550460815 -0.7880882024765015
vn 0.9102146625518799 0.41232290863990784 0.038718391209840775
vn -0.9731214046478271 0.22993871569633484 0.012761968187987804
vn -0.4988880455493927 0.2186214029788971 -0.8386390209197998
vn 0.4743027091026306 0.22149279713630676 -0.8520433902740479
vn 0.9757856130599976 0.2187291979789734 0.00004801298200618476
vn 0.5685607194900513 0.4957050383090973 -0.656517505645752
vn 0.8528411984443665 0.4957050383090973 0.16412930190563202
vn -0.2842804491519928 0.4957050383090973 -0.8206467628479004
vn -0.8528411984443665 0.4957050383090973 -0.16412930190563202
vn 0.5003289580345154 0.1978907734155655 0.8429176807403564
vn 0.8528411984443665 0.4957050383090973 0.16412930190563202
vn 0.2842804193496704 0.4957050085067749 0.8206468224525452
vn 0.9757856130599976 0.2187291979789734 0.00004801298200618476
vn 0.42399775981903076 0.3978216052055359 0.813611626625061
vn 0.9102146625518799 0.41232290863990784 0.038718391209840775
vn 0.4871683120727539 -0.2262057512998581 0.8435034155845642
vn 0.970707356929779 -0.23980015516281128 -0.01493857055902481
vn 0.34078851342201233 -0.8538232445716858 0.393508642911911
vn 0.5111827254295349 -0.8538232445716858 -0.09837720543146133
vn -0.17039424180984497 -0.8538232445716858 0.49188581109046936
vn -0.4747525751590729 -0.2207488864660263 0.8519858717918396
vn -0.4484119415283203 0.3810747265815735 0.8085225820541382
vn -0.4619947075843811 0.21431371569633484 0.8605989217758179
vn -0.5685607194900513 0.49570509791374207 0.6565174460411072
vn -0.9731214046478271 0.22993871569633484 0.012761968187987804
vn -0.8528411984443665 0.4957050383090973 -0.16412930190563202
vn -0.9147712588310242 0.4037814140319824 0.012413794174790382
vn -0.9706814289093018 -0.23847824335098267 0.0300949327647686
vn -0.5111827254295349 -0.8538232445716858 0.09837719798088074
vn 0.5111827254295349 -0.8538232445716858 -0.09837720543146133
vn 0.34078851342201233 -0.8538232445716858 0.393508642911911
vn -0.17039424180984497 -0.8538232445716858 0.49188581109046936
vn 0.17039422690868378 -0.8538232445716858 -0.49188581109046936
vt 0.9091402888298035 0.41538888216018677
vt 0.9485126733779907 0.41538888216018677
vt 0.9288264513015747 0.3760165572166443
vt 0.9115264415740967 0.41231417655944824
vt 0.8685691952705383 0.32639962434768677
vt 0.954483687877655 0.326399564743042
vt 0.8256118893623352 0.412314236164093
vt 0.8685692548751831 0.49822866916656494
vt 0.9544837474822998 0.49822866916656494
vt 0.9974410533905029 0.41231417655944824
vt 0.8717415928840637 0.8692620396614075
vt 0.8569084405899048 0.8691619038581848
vt 0.8565470576286316 0.9511142373085022
vt 0.8713802099227905 0.9512143731117249
vt 0.8561891913414001 0.968363881111145
vt 0.8710223436355591 0.9684640765190125
vt 0.8558242917060852 0.9975910186767578
vt 0.8706573843955994 0.99769127368927
vt 0.855462908744812 0.8689624667167664
vt 0.8702960014343262 0.8690627217292786
vt 0.8883554339408875 0.9978107213973999
vt 0.8879940509796143 0.8691821694374084
vt 0.8887203931808472 0.9685835242271423
vt 0.8890781998634338 0.9513339996337891
vt 0.8894396424293518 0.8693814873695374
vt 0.8718037009239197 0.869259774684906
vt 0.8564427495002747 0.8691560626029968
vt 0.8560816049575806 0.9510869383811951
vt 0.8714425563812256 0.951190710067749
vt 0.8557204604148865 0.9686287641525269
vt 0.8710814118385315 0.9687325358390808
vt 0.8553593158721924 0.997520923614502
vt 0.8707202672958374 0.9976245164871216
vt 0.8549981713294983 0.8688707947731018
vt 0.8703591227531433 0.8689743876457214
vt 0.8888773322105408 0.9977470636367798
vt 0.8885161876678467 0.8690970540046692
vt 0.8892385363578796 0.968855082988739
vt 0.8895996809005737 0.9513132572174072
vt 0.8899608254432678 0.8693824410438538
vt 0.9174053072929382 0.5098544955253601
vt 0.9614041447639465 0.5291058421134949
vt 0.9953092336654663 0.5813966393470764
vt 0.9342883825302124 0.56730055809021
vt 0.82932049036026 0.5098544955253601
vt 0.8124708533287048 0.5672743916511536
vt 0.7852345705032349 0.5290680527687073
vt 0.7519999742507935 0.5813443660736084
vt 0.9953092336654663 0.7883701324462891
vt 0.9169201850891113 0.7641090154647827
vt 0.8298047780990601 0.7640902996063232
vt 0.7519999742507935 0.7872971296310425
vt 0.9950000047683716 0.8675118684768677
vt 0.9095059633255005 0.8683267831802368
vt 0.8371734619140625 0.8683179616928101
vt 0.7517355680465698 0.8680307865142822
vt 0.8437623381614685 0.9942479133605957
vt 0.7517355680465698 0.9969465732574463
vt 0.9081417322158813 0.9942606687545776
vt 0.9950000047683716 0.9969720840454102
vt 0.9135468602180481 0.8677557110786438
vt 0.9950000047683716 0.9973933100700378
vt 0.9121868014335632 0.993447482585907
vt 0.9950000047683716 0.8674812912940979
vt 0.9209717512130737 0.7719831466674805
vt 0.9953092336654663 0.7884644269943237
vt 0.9383480548858643 0.5679060816764832
vt 0.9953092336654663 0.5820835828781128
vt 0.9214571118354797 0.5098544955253601
vt 0.9647999405860901 0.5311133861541748
vt 0.8340079188346863 0.5098544955253601
vt 0.8174094557762146 0.5677723288536072
vt 0.8344849348068237 0.771887481212616
vt 0.8415108323097229 0.8677105903625488
vt 0.8482344150543213 0.9902758002281189
vt 0.7517355680465698 0.867927610874176
vt 0.7517355680465698 0.9972633123397827
vt 0.7519999742507935 0.7882730960845947
vt 0.7519999742507935 0.5818160176277161
vt 0.7899014353752136 0.5309199094772339
vt 0.869767963886261 0.41538888216018677
vt 0.8894541263580322 0.454761266708374
vt 0.9288264513015747 0.45476120710372925
vt 0.8894541263580322 0.3760165572166443
g Geoset0
s 1
usemtl mat_beermug
f 1/1/1 2/2/2 3/3/3
f 4/4/4 5/5/5 6/6/6
f 4/4/4 7/7/7 5/5/5
f 4/4/4 8/8/8 7/7/7
f 4/4/4 9/9/9 8/8/8
f 4/4/4 10/10/10 9/9/9
f 4/4/4 6/6/6 10/10/10
f 11/11/11 12/12/12 13/13/13
f 11/11/11 13/13/13 14/14/14
f 14/14/14 13/13/13 15/15/15
f 14/14/14 15/15/15 16/16/16
f 16/16/16 15/15/15 17/17/17
f 16/16/16 17/17/17 18/18/18
f 18/18/18 17/17/17 19/19/19
f 18/18/18 19/19/19 20/20/20
f 21/21/21 20/20/20 22/22/22
f 21/21/21 18/18/18 20/20/20
f 23/23/23 18/18/18 21/21/21
f 23/23/23 16/16/16 18/18/18
f 24/24/24 16/16/16 23/23/23
f 24/24/24 14/14/14 16/16/16
f 25/25/25 14/14/14 24/24/24
f 25/25/25 11/11/11 14/14/14
f 26/26/26 27/27/27 28/28/28
f 26/26/26 28/28/28 29/29/29
f 29/29/29 28/28/28 30/30/30
f 29/29/29 30/30/30 31/31/31
f 31/31/31 30/30/30 32/32/32
f 31/31/31 32/32/32 33/33/33
f 33/33/33 32/32/32 34/34/34
f 33/33/33 34/34/34 35/35/35
f 36/36/36 35/35/35 37/37/37
f 36/36/36 33/33/33 35/35/35
f 38/38/38 33/33/33 36/36/36
f 38/38/38 31/31/31 33/33/33
f 39/39/39 31/31/31 38/38/38
f 39/39/39 29/29/29 31/31/31
f 40/40/40 29/29/29 39/39/39
f 40/40/40 26/26/26 29/29/29
f 41/41/41 42/42/42 43/43/43
f 41/41/41 43/43/43 44/44/44
f 45/45/45 41/41/41 44/44/44
f 45/45/45 44/44/44 46/46/46
f 47/47/47 45/45/45 46/46/46
f 47/47/47 46/46/46 48/48/48
f 44/44/44 43/43/43 49/49/49
f 44/44/44 49/49/49 50/50/50
f 46/46/46 44/44/44 50/50/50
f 46/46/46 50/50/50 51/51/51
f 48/48/48 46/46/46 51/51/51
f 48/48/48 51/51/51 52/52/52
f 50/50/50 49/49/49 53/53/53
f 50/50/50 53/53/53 54/54/54
f 51/51/51 50/50/50 54/54/54
f 51/51/51 54/54/54 55/55/55
f 52/52/52 51/51/51 55/55/55
f 52/52/52 55/55/55 56/56/56
f 56/56/56 57/57/57 58/58/58
f 56/56/56 55/55/55 57/57/57
f 55/55/55 59/59/59 57/57/57
f 55/55/55 54/54/54 59/59/59
f 54/54/54 60/60/60 59/59/59
f 54/54/54 53/53/53 60/60/60
f 61/61/61 62/62/62 63/63/63
f 61/61/61 64/64/64 62/62/62
f 65/65/65 64/64/64 61/61/61
f 65/65/65 66/66/66 64/64/64
f 67/67/67 66/66/66 65/65/65
f 67/67/67 68/68/68 66/66/66
f 69/69/69 68/68/68 67/67/67
f 69/69/69 70/70/70 68/68/68
f 71/71/71 69/69/69 67/67/67
f 71/71/71 67/67/67 72/72/72
f 72/72/72 67/67/67 65/65/65
f 72/72/72 65/65/65 73/73/73
f 73/73/73 65/65/65 61/61/61
f 73/73/73 61/61/61 74/74/74
f 74/74/74 61/61/61 63/63/63
f 74/74/74 63/63/63 75/75/75
f 76/76/76 75/75/75 77/77/77
f 76/76/76 74/74/74 75/75/75
f 78/78/78 74/74/74 76/76/76
f 78/78/78 73/73/73 74/74/74
f 79/79/79 73/73/73 78/78/78
f 79/79/79 72/72/72 73/73/73
f 80/80/80 72/72/72 79/79/79
f 80/80/80 71/71/71 72/72/72
f 1/1/1 81/81/81 82/82/82
f 1/1/1 82/82/82 83/83/83
f 1/1/1 83/83/83 2/2/2
f 1/1/1 84/84/84 81/81/81
f 1/1/1 3/3/3 84/84/84
