# Exported using wow.export v0.1.64
o wg_siege01_pvp_set0
mtllib wg_siege01_pvp_set0.mtl
v 3.081488847732544 -13.793234825134277 3.2184317111968994
v 3.0784640312194824 -13.792814254760742 -3.1926934719085693
v 3.0699870586395264 -8.19599723815918 -3.218432664871216
v 3.073011636734009 -8.196209907531738 3.2184317111968994
v 3.0699870586395264 -8.19599723815918 -3.218432664871216
v 3.0784640312194824 -13.792814254760742 -3.1926934719085693
v -3.073011636734009 -13.792814254760742 -3.1926934719085693
v -3.081488847732544 -8.19599723815918 -3.218432664871216
v 3.073011636734009 -8.196209907531738 3.2184317111968994
v 3.0699870586395264 -8.19599723815918 -3.218432664871216
v -3.081488847732544 -8.19599723815918 -3.218432664871216
v -3.0784640312194824 -8.196209907531738 3.2184317111968994
v 3.081488847732544 -13.793234825134277 3.2184317111968994
v 3.073011636734009 -8.196209907531738 3.2184317111968994
v -3.0784640312194824 -8.196209907531738 3.2184317111968994
v -3.0699870586395264 -13.793234825134277 3.2184317111968994
v 3.0784640312194824 -13.792814254760742 -3.1926934719085693
v 3.081488847732544 -13.793234825134277 3.2184317111968994
v -3.0699870586395264 -13.793234825134277 3.2184317111968994
v -3.073011636734009 -13.792814254760742 -3.1926934719085693
v -3.073011636734009 -13.792814254760742 -3.1926934719085693
v -3.0699870586395264 -13.793234825134277 3.2184317111968994
v -3.0784640312194824 -8.196209907531738 3.2184317111968994
v -3.081488847732544 -8.19599723815918 -3.218432664871216
vn 0.9999987483024597 0.0015145716024562716 -0.00046984132495708764
vn 0.9999987483024597 0.001512458547949791 -0.00047167870798148215
vn 0.9999987483024597 0.0015145716024562716 -0.00046984132495708764
vn 0.9999987483024597 0.0015145716024562716 -0.00046984132495708764
vn 0 -0.004598821047693491 -0.9999894499778748
vn 0 -0.004598821047693491 -0.9999894499778748
vn 0 -0.004598821047693491 -0.9999894499778748
vn 0 -0.004598821047693491 -0.9999894499778748
vn 0 1 0.00003305574136902578
vn 0 1 0.00003305574136902578
vn 0 1 0.00003305574136902578
vn 0 1 0.00003305574136902578
vn 0 0 1
vn 0 0 1
vn 0 0 1
vn 0 0 1
vn 0 -1 -0.00006558355380548164
vn 0 -1 -0.00006558355380548164
vn 0 -1 -0.00006558355380548164
vn 0 -1 -0.00006558355380548164
vn -0.9999987483024597 -0.0015124669298529625 0.000469841412268579
vn -0.9999987483024597 -0.0015145714860409498 0.0004716785915661603
vn -0.9999987483024597 -0.0015124669298529625 0.000469841412268579
vn -0.9999987483024597 -0.0015124669298529625 0.000469841412268579
vt 0 1
vt 0 0
vt 1 0
vt 1 1
vt 1 1
vt 0 1
vt 0 0
vt 1 0
vt 1 1
vt 0 1
vt 0 0
vt 1 0
vt 1 1
vt 0 1
vt 0 0
vt 1 0
vt 1 1
vt 0 1
vt 0 0
vt 1 0
vt 0 0
vt 1 0
vt 1 1
vt 0 1
g siege0
s 1
usemtl mat_bm_brspire_rampmetal01
f 1/1/1 2/2/2 3/3/3
f 3/3/3 4/4/4 1/1/1
f 5/5/5 6/6/6 7/7/7
f 7/7/7 8/8/8 5/5/5
f 9/9/9 10/10/10 11/11/11
f 11/11/11 12/12/12 9/9/9
f 13/13/13 14/14/14 15/15/15
f 15/15/15 16/16/16 13/13/13
f 17/17/17 18/18/18 19/19/19
f 19/19/19 20/20/20 17/17/17
f 21/21/21 22/22/22 23/23/23
f 23/23/23 24/24/24 21/21/21
