# Exported using wow.export v0.1.64
o wintergrasp_courtyardcurb03_set0
mtllib wintergrasp_courtyardcurb03_set0.mtl
v -45.0023078918457 0.5103566646575928 -36.09075164794922
v -45.082176208496094 0.5103557705879211 -41.019344329833984
v -45.10499954223633 -1.4840847253799438 -42.42750930786133
v -44.9860954284668 -1.67446768283844 -35.09041213989258
v -18.681922912597656 0.4810548424720764 -40.73543167114258
v -18.681921005249023 0.48105621337890625 -35.79524612426758
v 7.67949104309082 0.45175421237945557 -35.49973678588867
v 7.67949104309082 0.4517538845539093 -40.45151138305664
v -18.681922912597656 -1.9028491973876953 -34.66624069213867
v 7.67949104309082 -2.131230592727661 -34.2420539855957
v -18.681922912597656 -1.5133854150772095 -42.040733337402344
v 7.67949104309082 -1.5426864624023438 -41.653961181640625
v 36.753719329833984 0.4227384328842163 -12.884669303894043
v 36.660064697265625 0.42259499430656433 -25.26138687133789
v 31.731388092041016 0.4225958585739136 -25.26138687133789
v 31.82495880126953 0.4227387607097626 -12.884668350219727
v 29.955957412719727 -2.3594698905944824 -25.261388778686523
v 30.049495697021484 -2.3593270778656006 -12.884669303894043
v 38.16193771362305 -1.571702003479004 -12.884665489196777
v 38.06825637817383 -1.5718451738357544 -25.26139259338379
v 36.868289947509766 0.4228185713291168 10.430481910705566
v 31.93935775756836 0.42281943559646606 10.430485725402832
v 31.960187911987305 0.4227582514286041 21.368892669677734
v 36.88920974731445 0.42275792360305786 21.36888885498047
v 30.163835525512695 -2.359246253967285 10.430485725402832
v 30.184635162353516 -2.3593075275421143 21.368894577026367
v 38.27655792236328 -1.5716214179992676 10.430484771728516
v 38.2974967956543 -1.5716828107833862 21.3688907623291
v -45.14051055908203 -1.8506391048431396 28.41762351989746
v -45.08563995361328 -1.6602554321289062 35.7554817199707
v -45.09618377685547 0.33418580889701843 34.34716033935547
v -45.13302993774414 0.3341849744319916 29.418060302734375
v -18.614604949951172 0.36368948221206665 34.52519226074219
v 7.88487434387207 0.39319315552711487 34.70322036743164
v 7.884875774383545 0.3931933641433716 29.686553955078125
v -18.614608764648438 0.3636891543865204 29.55230140686035
v 7.8848748207092285 -2.1897923946380615 28.507686614990234
v -18.614608764648438 -2.0202157497406006 28.462650299072266
v -18.614606857299805 -1.6307514905929565 35.79932403564453
v 7.884875774383545 -1.601247787475586 35.843196868896484
v 34.102115631103516 0.4224533140659332 -37.68590545654297
v 36.566410064697266 0.4224527180194855 -40.1675910949707
v 31.6378173828125 0.422453373670578 -35.2042236328125
v -45.082176208496094 0.5103557705879211 -41.019344329833984
v -45.0023078918457 0.5103566646575928 -36.09075164794922
v 29.862417221069336 -2.359612464904785 -33.817874908447266
v -44.9860954284668 -1.67446768283844 -35.09041213989258
v 37.974578857421875 -1.5719877481460571 -41.267181396484375
v -45.10499954223633 -1.4840847253799438 -42.42750930786133
v 36.847373962402344 0.42288079857826233 -0.5079345703125
v 31.918527603149414 0.422881156206131 -0.5079323053359985
v 30.143035888671875 -2.359184741973877 -0.5079329609870911
v 38.255615234375 -1.5715596675872803 -0.5079315900802612
v 34.44557571411133 0.42269638180732727 32.351036071777344
v 36.91012191772461 0.4226955473423004 34.88125991821289
v 31.98101806640625 0.42269665002822876 29.82080841064453
v 30.205434799194336 -2.3593695163726807 28.5527286529541
v 38.31843948364258 -1.571744680404663 35.88704299926758
v -45.09618377685547 0.33418580889701843 34.34716033935547
v -45.13302993774414 0.3341849744319916 29.418060302734375
v -45.14051055908203 -1.8506391048431396 28.41762351989746
v -45.08563995361328 -1.6602554321289062 35.7554817199707
vn -0.5104824900627136 0.7228789329528809 0.4656755030155182
vn -0.48825007677078247 0.778110921382904 -0.39516481757164
vn -0.7073272466659546 0.39240652322769165 -0.5879670977592468
vn -0.7057867050170898 0.2905791997909546 0.6460873484611511
vn 0.006099906284362078 0.879652738571167 -0.4755774140357971
vn -0.005752970464527607 0.8449873924255371 0.534755289554596
vn -0.005000906530767679 0.8478688597679138 0.530182421207428
vn 0.006099882535636425 0.8796527981758118 -0.47557732462882996
vn -0.010833845473825932 0.42799606919288635 0.9037156701087952
vn -0.010833845473825932 0.42799606919288635 0.9037156701087952
vn 0.009620124474167824 0.5475896000862122 -0.8366917371749878
vn 0.01313773449510336 0.5162768959999084 -0.8563209772109985
vn 0.4600004255771637 0.887911856174469 -0.0034911285620182753
vn 0.46000391244888306 0.887910008430481 -0.0034920277539640665
vn -0.4806378483772278 0.8769116997718811 0.003623562166467309
vn -0.48063790798187256 0.8769116401672363 0.003623585682362318
vn -0.8429539799690247 0.5379480123519897 0.006366676650941372
vn -0.8429498076438904 0.537954568862915 0.006364569067955017
vn 0.8168841004371643 0.5767686367034912 -0.006189624313265085
vn 0.8168841004371643 0.5767686367034912 -0.006189624313265085
vn 0.45999956130981445 0.8879187107086182 -0.0008747333195060492
vn -0.4806351065635681 0.876920223236084 0.0009188413387164474
vn -0.4806317090988159 0.876922070980072 0.0009201639913953841
vn 0.45999953150749207 0.8879187107086182 -0.0008747604442760348
vn -0.8429573774337769 0.5379779934883118 0.0016059092013165355
vn -0.8429573774337769 0.5379779934883118 0.0016059092013165355
vn 0.8168843388557434 0.5767993927001953 -0.0015589758986607194
vn 0.8168805241584778 0.5768048167228699 -0.0015604430809617043
vn -0.7080209255218506 0.2960081398487091 -0.6411595344543457
vn -0.7055785059928894 0.37910422682762146 0.5986977219581604
vn -0.4926319420337677 0.7712005972862244 0.4031915068626404
vn -0.5106320977210999 0.7251255512237549 -0.46200403571128845
vn -0.0042040711268782616 0.8770241737365723 0.48042789101600647
vn -0.001793930889107287 0.8649370670318604 0.5018771886825562
vn 0.0018029678612947464 0.8411892056465149 -0.5407378673553467
vn 0.0018029564525932074 0.8411892056465149 -0.5407379269599915
vn 0.004146632272750139 0.41519486904144287 -0.9097230434417725
vn 0.004205967765301466 0.4157135784626007 -0.9094858765602112
vn -0.0019899127073585987 0.49623534083366394 0.8681857585906982
vn -0.0019899127073585987 0.49623534083366394 0.8681857585906982
vn 0.0010045376839116216 0.9999989867210388 0.000997252413071692
vn 0.3431743085384369 0.8687213659286499 -0.35714778304100037
vn -0.3624815344810486 0.8491054177284241 0.38422268629074097
vn -0.48825007677078247 0.778110921382904 -0.39516481757164
vn -0.5104824900627136 0.7228789329528809 0.4656755030155182
vn -0.5401820540428162 0.6159767508506775 0.5733899474143982
vn -0.7057867050170898 0.2905791997909546 0.6460873484611511
vn 0.5137242078781128 0.6629583835601807 -0.5445857048034668
vn -0.7073272466659546 0.39240652322769165 -0.5879670977592468
vn 0.45999687910079956 0.8879136443138123 -0.0034910226240754128
vn -0.48063451051712036 0.8769135475158691 0.0036235919687896967
vn -0.8429455757141113 0.5379611849784851 0.006364547181874514
vn 0.8168795704841614 0.5767750144004822 -0.006189546547830105
vn -0.000004411783720570384 1 0.000004621836978913052
vn 0.33950749039649963 0.8677800893783569 0.3628943860530853
vn -0.3633005917072296 0.8444151878356934 -0.393669456243515
vn -0.5371248126029968 0.6109765768051147 -0.5815535187721252
vn 0.5143828988075256 0.6470372080802917 0.5628082156181335
vn -0.4926319420337677 0.7712005972862244 0.4031915068626404
vn -0.5106320977210999 0.7251255512237549 -0.46200403571128845
vn -0.7080209255218506 0.2960081398487091 -0.6411595344543457
vn -0.7055785059928894 0.37910422682762146 0.5986977219581604
vt 1.1732711791992188 1.1195136308670044
vt 1.4831464290618896 1.1195136308670044
vt 1.571682095527649 1.0527647733688354
vt 1.1103770732879639 1.0527647733688354
vt 0.1347033977508545 10.666666030883789
vt 0.36535608768463135 10.666666030883789
vt 0.36535608768463135 9.333333015441895
vt 0.13470332324504852 9.333333015441895
vt 0.4926645755767822 10.666666030883789
vt 0.49266451597213745 9.333333015441895
vt 0 10.666666030883789
vt 0 9.333333015441895
vt 0.13470324873924255 6.666666507720947
vt 0.13470324873924255 7.333333492279053
vt 0.3653559982776642 7.3333330154418945
vt 0.365355908870697 6.666666507720947
vt 0.4926643967628479 7.3333330154418945
vt 0.4926644265651703 6.666666507720947
vt 0 6.666666507720947
vt 0 7.333333492279053
vt 0.13470317423343658 5.3333330154418945
vt 0.36535584926605225 5.3333330154418945
vt 0.36535584926605225 4.666666507720947
vt 0.13470308482646942 4.666666507720947
vt 0.4926643371582031 5.3333330154418945
vt 0.49266427755355835 4.666666507720947
vt 0 5.3333330154418945
vt 0 4.666666507720947
vt 1.1103770732879639 1.0527647733688354
vt 1.571682095527649 1.0527647733688354
vt 1.4831464290618896 1.1195136308670044
vt 1.1732710599899292 1.1195136308670044
vt 0.13470301032066345 1.3333333730697632
vt 0.13470301032066345 2.6666667461395264
vt 0.3653557598590851 2.6666665077209473
vt 0.3653557002544403 1.3333332538604736
vt 0.4926641881465912 2.6666665077209473
vt 0.4926642179489136 1.3333332538604736
vt 0 1.3333333730697632
vt 0 2.6666667461395264
vt 0.25002968311309814 8
vt 0.13470324873924255 8
vt 0.36535608768463135 8
vt 0.13470348715782166 12
vt 0.36535608768463135 12
vt 0.4926644265651703 8
vt 0.4926646649837494 12
vt 0 8
vt 0 12
vt 0.13470324873924255 6
vt 0.36535584926605225 6
vt 0.4926644265651703 6
vt 0 6
vt 0.2500293254852295 4
vt 0.13470301032066345 4
vt 0.36535584926605225 4
vt 0.4926641881465912 4
vt 0 4
vt 0.13470301032066345 0
vt 0.36535561084747314 0
vt 0.4926641881465912 0
vt 0 0
g exterior0
s 1
usemtl mat_wr_vtrim01_stone
f 1/1/1 2/2/2 3/3/3
f 3/3/3 4/4/4 1/1/1
f 5/5/5 6/6/6 7/7/7
f 7/7/7 8/8/8 5/5/5
f 6/6/6 9/9/9 10/10/10
f 10/10/10 7/7/7 6/6/6
f 11/11/11 5/5/5 8/8/8
f 8/8/8 12/12/12 11/11/11
f 13/13/13 14/14/14 15/15/15
f 15/15/15 16/16/16 13/13/13
f 16/16/16 15/15/15 17/17/17
f 17/17/17 18/18/18 16/16/16
f 19/19/19 20/20/20 14/14/14
f 14/14/14 13/13/13 19/19/19
f 21/21/21 22/22/22 23/23/23
f 23/23/23 24/24/24 21/21/21
f 22/22/22 25/25/25 26/26/26
f 26/26/26 23/23/23 22/22/22
f 27/27/27 21/21/21 24/24/24
f 24/24/24 28/28/28 27/27/27
f 29/29/29 30/30/30 31/31/31
f 31/31/31 32/32/32 29/29/29
f 33/33/33 34/34/34 35/35/35
f 35/35/35 36/36/36 33/33/33
f 36/36/36 35/35/35 37/37/37
f 37/37/37 38/38/38 36/36/36
f 39/39/39 40/40/40 34/34/34
f 34/34/34 33/33/33 39/39/39
f 41/41/41 42/42/42 8/8/8
f 41/41/41 8/8/8 7/7/7
f 41/41/41 7/7/7 43/43/43
f 6/6/6 5/5/5 44/44/44
f 44/44/44 45/45/45 6/6/6
f 7/7/7 10/10/10 46/46/46
f 46/46/46 43/43/43 7/7/7
f 9/9/9 6/6/6 45/45/45
f 45/45/45 47/47/47 9/9/9
f 12/12/12 8/8/8 42/42/42
f 42/42/42 48/48/48 12/12/12
f 5/5/5 11/11/11 49/49/49
f 49/49/49 44/44/44 5/5/5
f 50/50/50 13/13/13 16/16/16
f 16/16/16 51/51/51 50/50/50
f 41/41/41 43/43/43 15/15/15
f 41/41/41 15/15/15 14/14/14
f 41/41/41 14/14/14 42/42/42
f 51/51/51 16/16/16 18/18/18
f 18/18/18 52/52/52 51/51/51
f 46/46/46 17/17/17 15/15/15
f 15/15/15 43/43/43 46/46/46
f 53/53/53 19/19/19 13/13/13
f 13/13/13 50/50/50 53/53/53
f 42/42/42 14/14/14 20/20/20
f 20/20/20 48/48/48 42/42/42
f 54/54/54 55/55/55 24/24/24
f 54/54/54 24/24/24 23/23/23
f 54/54/54 23/23/23 56/56/56
f 22/22/22 21/21/21 50/50/50
f 50/50/50 51/51/51 22/22/22
f 23/23/23 26/26/26 57/57/57
f 57/57/57 56/56/56 23/23/23
f 25/25/25 22/22/22 51/51/51
f 51/51/51 52/52/52 25/25/25
f 28/28/28 24/24/24 55/55/55
f 55/55/55 58/58/58 28/28/28
f 21/21/21 27/27/27 53/53/53
f 53/53/53 50/50/50 21/21/21
f 59/59/59 33/33/33 36/36/36
f 36/36/36 60/60/60 59/59/59
f 54/54/54 56/56/56 35/35/35
f 54/54/54 35/35/35 34/34/34
f 54/54/54 34/34/34 55/55/55
f 60/60/60 36/36/36 38/38/38
f 38/38/38 61/61/61 60/60/60
f 57/57/57 37/37/37 35/35/35
f 35/35/35 56/56/56 57/57/57
f 62/62/62 39/39/39 33/33/33
f 33/33/33 59/59/59 62/62/62
f 55/55/55 34/34/34 40/40/40
f 40/40/40 58/58/58 55/55/55
