# Exported using wow.export v0.1.64
o wintergrasp_courtyardcurb02_set0
mtllib wintergrasp_courtyardcurb02_set0.mtl
v 51.74541091918945 -1.4306267499923706 21.495065689086914
v 51.87526321411133 -1.6210099458694458 12.569400787353516
v 51.85755920410156 0.5638139843940735 13.569714546203613
v 51.77033615112305 0.5638131499290466 20.086923599243164
v 17.377511978149414 0.5500444769859314 13.583160400390625
v 17.29148292541504 0.5500441789627075 20.100370407104492
v 51.77033615112305 0.5638131499290466 20.086923599243164
v 51.85755920410156 0.5638139843940735 13.569714546203613
v 17.40850257873535 -2.2320210933685303 11.8077974319458
v 51.87526321411133 -1.6210099458694458 12.569400787353516
v 17.266897201538086 -1.444395899772644 21.508508682250977
v 51.74541091918945 -1.4306267499923706 21.495065689086914
v -16.37636947631836 0.5508209466934204 13.58098316192627
v -16.50541114807129 0.5508206486701965 20.097253799438477
v -16.329885482788086 -2.2312448024749756 11.80595874786377
v -16.542278289794922 -1.4436194896697998 21.505126953125
v -35.666587829589844 0.5508200526237488 13.580971717834473
v -35.66839599609375 0.5508197546005249 20.09724235534668
v -35.666221618652344 -1.896564245223999 12.240184783935547
v -35.66876220703125 -1.4436203241348267 21.505115509033203
v 50.7557373046875 -1.4454129934310913 -29.44462013244629
v 50.78065490722656 0.5490264892578125 -28.036479949951172
v 50.86787796020508 0.5490278005599976 -21.49772834777832
v 50.88557815551758 -1.6357955932617188 -20.497411727905273
v 16.38037109375 0.5490289926528931 -21.497743606567383
v 50.86787796020508 0.5490278005599976 -21.49772834777832
v 50.78065490722656 0.5490264892578125 -28.036479949951172
v 16.294349670410156 0.549028217792511 -28.036500930786133
v 16.411359786987305 -2.2330362796783447 -19.72237777709961
v 50.88557815551758 -1.6357955932617188 -20.497411727905273
v 50.7557373046875 -1.4454129934310913 -29.44462013244629
v 16.2697696685791 -1.4454115629196167 -29.444637298583984
v -17.356822967529297 0.5354110598564148 -21.500347137451172
v -17.46434783935547 0.5354102253913879 -28.038633346557617
v -17.31809425354004 -2.2466540336608887 -19.72515296936035
v -17.495067596435547 -1.4590295553207397 -29.446638107299805
v -35.41354751586914 0.5354110598564148 -28.038400650024414
v -35.455955505371094 0.5354112982749939 -21.500356674194336
v -35.46481704711914 -1.9326152801513672 -20.132705688476562
v -35.4044303894043 -1.459028720855713 -29.44633674621582
vn 0.7026160359382629 0.40627533197402954 0.5841841101646423
vn 0.7159754633903503 0.2954105734825134 -0.6325438618659973
vn 0.3606725037097931 0.6972519755363464 -0.6194796562194824
vn 0.4897882342338562 0.7711012363433838 0.40682968497276306
vn -0.0005376355838961899 0.876908004283905 -0.4806579351425171
vn -0.0001752051175571978 0.887910008430481 0.4600171744823456
vn 0.4897882342338562 0.7711012363433838 0.40682968497276306
vn 0.3606725037097931 0.6972519755363464 -0.6194796562194824
vn 0.006096924189478159 0.478297621011734 -0.8781766295433044
vn 0.7159754633903503 0.2954105734825134 -0.6325438618659973
vn 0.00008821607480058447 0.5767641067504883 0.8169107437133789
vn 0.7026160359382629 0.40627533197402954 0.5841841101646423
vn 0.00005117154432809912 0.8768901228904724 -0.4806908667087555
vn -0.00002201593088102527 0.8879090547561646 0.460019052028656
vn 0.00005831522139487788 0.5379448533058167 -0.8429800271987915
vn -0.00006848604971310124 0.5766929388046265 0.8169609904289246
vn 2.7416160719440086e-7 0.8603682518005371 -0.5096728801727295
vn -3.2419916351500433e-7 0.887888491153717 0.46005868911743164
vn -0.0096249058842659 0.5377323031425476 -0.8430606722831726
vn -5.314685722623835e-7 0.5766920447349548 0.8169616460800171
vn 0.7038372755050659 0.40382304787635803 -0.5844142436981201
vn 0.4899132251739502 0.7710440158843994 -0.4067876636981964
vn 0.36144259572029114 0.6961106061935425 0.6203138828277588
vn 0.7161425948143005 0.29533931612968445 0.6323879361152649
vn -1.8302446846973908e-7 0.8769107460975647 0.48065322637557983
vn 0.36144259572029114 0.6961106061935425 0.6203138828277588
vn 0.4899132251739502 0.7710440158843994 -0.4067876636981964
vn 3.1503773811891733e-7 0.8879091143608093 -0.4600188732147217
vn 0.0066285585053265095 0.47830089926719666 0.8781710267066956
vn 0.7161425948143005 0.29533931612968445 0.6323879361152649
vn 0.7038372755050659 0.40382304787635803 -0.5844142436981201
vn 4.24653364916594e-7 0.5767644047737122 -0.8169105052947998
vn -0.0003910610976163298 0.8768981099128723 0.48067617416381836
vn -0.0003291115281172097 0.887910783290863 -0.4600156247615814
vn -0.00028655148344114423 0.5379424691200256 0.8429815173149109
vn -0.0001842010678956285 0.5767301321029663 -0.8169347047805786
vn -0.000005933549346082145 0.8878933787345886 -0.4600493311882019
vn -2.2513025044190726e-7 0.8615977764129639 0.5075916647911072
vn -4.0258004219140275e-7 0.48470139503479004 0.874679684638977
vn -0.000010551354534982238 0.5767092704772949 -0.8169494271278381
vt 1.5253541469573975 1.0527647733688354
vt 1.0640491247177124 1.0527647733688354
vt 1.1269432306289673 1.1195136308670044
vt 1.4368184804916382 1.1195136308670044
vt 0.6390678882598877 4.498538494110107
vt 0.14796465635299683 4.504580497741699
vt 0.14796489477157593 6.010260581970215
vt 0.6390678882598877 6.004219055175781
vt 0.7693079113960266 4.496362686157227
vt 0.7693081498146057 6.002992630004883
vt 0 4.5063066482543945
vt 0 6.011987209320068
vt 0.6390676498413086 1.5245260000228882
vt 0.14796441793441772 1.5279792547225952
vt 0.7693076729774475 1.5232821702957153
vt 0 1.5289655923843384
vt 0.639067530632019 0.6822093725204468
vt 0.14796441793441772 0.6912617087364197
vt 0.7693076729774475 0.6797436475753784
vt 0 0.6938536763191223
vt 1.5253541469573975 1.0527647733688354
vt 1.4368184804916382 1.1195136308670044
vt 1.1269432306289673 1.1195136308670044
vt 1.0640491247177124 1.0527647733688354
vt 0.6390678882598877 4.498538494110107
vt 0.6390678882598877 6.004219055175781
vt 0.14796489477157593 6.010260581970215
vt 0.14796465635299683 4.504580497741699
vt 0.7693079113960266 4.496362686157227
vt 0.7693081498146057 6.002992630004883
vt 0 6.011987209320068
vt 0 4.5063066482543945
vt 0.6390676498413086 3.0116143226623535
vt 0.14796465635299683 3.016361713409424
vt 0.7693079113960266 3.009903907775879
vt 0 3.017718553543091
vt 0.14796453714370728 1.4595955610275269
vt 0.639067530632019 1.4414637088775635
vt 0.7693077921867371 1.4367092847824097
vt 0 1.4645158052444458
g exterior0
s 1
usemtl mat_wr_vtrim02_flowery
f 1/1/1 2/2/2 3/3/3
f 3/3/3 4/4/4 1/1/1
f 5/5/5 6/6/6 7/7/7
f 7/7/7 8/8/8 5/5/5
f 9/9/9 5/5/5 8/8/8
f 8/8/8 10/10/10 9/9/9
f 6/6/6 11/11/11 12/12/12
f 12/12/12 7/7/7 6/6/6
f 6/6/6 5/5/5 13/13/13
f 13/13/13 14/14/14 6/6/6
f 5/5/5 9/9/9 15/15/15
f 15/15/15 13/13/13 5/5/5
f 11/11/11 6/6/6 14/14/14
f 14/14/14 16/16/16 11/11/11
f 14/14/14 13/13/13 17/17/17
f 17/17/17 18/18/18 14/14/14
f 13/13/13 15/15/15 19/19/19
f 19/19/19 17/17/17 13/13/13
f 14/14/14 18/18/18 20/20/20
f 20/20/20 16/16/16 14/14/14
f 21/21/21 22/22/22 23/23/23
f 23/23/23 24/24/24 21/21/21
f 25/25/25 26/26/26 27/27/27
f 27/27/27 28/28/28 25/25/25
f 29/29/29 30/30/30 26/26/26
f 26/26/26 25/25/25 29/29/29
f 28/28/28 27/27/27 31/31/31
f 31/31/31 32/32/32 28/28/28
f 33/33/33 25/25/25 28/28/28
f 28/28/28 34/34/34 33/33/33
f 35/35/35 29/29/29 25/25/25
f 25/25/25 33/33/33 35/35/35
f 34/34/34 28/28/28 32/32/32
f 32/32/32 36/36/36 34/34/34
f 37/37/37 38/38/38 33/33/33
f 33/33/33 34/34/34 37/37/37
f 33/33/33 38/38/38 39/39/39
f 39/39/39 35/35/35 33/33/33
f 40/40/40 37/37/37 34/34/34
f 34/34/34 36/36/36 40/40/40
