# Exported using wow.export v0.1.64
o wintergrasp_courtyardcurb01_set0
mtllib wintergrasp_courtyardcurb01_set0.mtl
v 51.27114486694336 -1.484087586402893 25.787233352661133
v 51.40275573730469 -1.6744705438613892 18.450288772583008
v 51.38481140136719 0.510353147983551 19.45060157775879
v 51.29640579223633 0.5103524327278137 24.379093170166016
v 24.99034309387207 0.4224528968334198 18.97236442565918
v 24.904314041137695 0.4224526584148407 23.900854110717773
v 51.29640579223633 0.5103524327278137 24.379093170166016
v 51.38481140136719 0.510353147983551 19.45060157775879
v 25.021333694458008 -2.3596127033233643 17.19700050354004
v 51.40275573730469 -1.6744705438613892 18.450288772583008
v 24.87973403930664 -1.5719877481460571 25.30899429321289
v 51.27114486694336 -1.484087586402893 25.787233352661133
v 0.2875676155090332 0.4228805601596832 18.421463012695312
v 0.18003614246845245 0.4228803217411041 23.349483489990234
v 0.3263007700443268 -2.359185218811035 16.646268844604492
v 0.1493203192949295 -1.5715597867965698 24.757488250732422
v -24.409679412841797 0.42269575595855713 17.65240478515625
v -24.538713455200195 0.422695517539978 22.5799560546875
v -24.363195419311523 -2.359369993209839 15.877378463745117
v -24.57558250427246 -1.5717445611953735 23.987829208374023
v -50.92594909667969 0.3341827988624573 21.883560180664062
v -50.7933235168457 0.33418193459510803 16.956008911132812
v -50.76640701293945 -1.8506418466567993 15.955883979797363
v -50.96381378173828 -1.660258173942566 23.291433334350586
v -50.7933235168457 0.33418193459510803 16.956008911132812
v -50.92594909667969 0.3341827988624573 21.883560180664062
v -50.76640701293945 -1.8506418466567993 15.955883979797363
v -50.96381378173828 -1.660258173942566 23.291433334350586
v 51.52522659301758 -1.4827505350112915 -23.49639320373535
v 51.55049133300781 0.5116894841194153 -22.0882511138916
v 51.63890075683594 0.5116898417472839 -17.15976333618164
v 51.65684127807617 -1.673133373260498 -16.159448623657227
v 24.912500381469727 0.5116800665855408 -17.15983009338379
v 51.63890075683594 0.5116898417472839 -17.15976333618164
v 51.55049133300781 0.5116894841194153 -22.0882511138916
v 24.826473236083984 0.5116797685623169 -22.08832359313965
v 24.94348907470703 -2.2703850269317627 -15.384469032287598
v 51.65684127807617 -1.673133373260498 -16.159448623657227
v 51.52522659301758 -1.4827505350112915 -23.49639320373535
v 24.801895141601562 -1.4827600717544556 -23.496461868286133
v 0.1294412463903427 0.5096122026443481 -17.454429626464844
v 0.021913180127739906 0.5096119046211243 -22.3824520111084
v 0.1681692898273468 -2.2724525928497314 -15.679234504699707
v -0.008806601166725159 -1.4848276376724243 -23.790456771850586
v -25.12554931640625 0.5095900893211365 -17.234643936157227
v -25.25457763671875 0.5095892548561096 -22.162195205688477
v -25.07905387878418 -2.272475481033325 -15.459620475769043
v -25.29143714904785 -1.484850287437439 -23.570070266723633
v -51.34269714355469 0.3325617015361786 -22.029401779174805
v -51.38056945800781 -1.6618781089782715 -23.437274932861328
v -51.18315887451172 -1.8522619009017944 -16.101726531982422
v -51.210079193115234 0.3325609564781189 -17.101848602294922
v -51.210079193115234 0.3325609564781189 -17.101848602294922
v -51.34269714355469 0.3325617015361786 -22.029401779174805
v -51.18315887451172 -1.8522619009017944 -16.101726531982422
v -51.38056945800781 -1.6618781089782715 -23.437274932861328
vn 0.695890486240387 0.40829798579216003 0.5907869338989258
vn 0.724082887172699 0.29202738404273987 -0.6248391270637512
vn 0.37058839201927185 0.6948142051696777 -0.61635822057724
vn 0.48137393593788147 0.7746972441673279 0.4100283980369568
vn 0.005787294823676348 0.8769236207008362 -0.4805949330329895
vn -0.011290383525192738 0.8879205584526062 0.4598581790924072
vn 0.48137393593788147 0.7746972441673279 0.4100283980369568
vn 0.37058839201927185 0.6948142051696777 -0.61635822057724
vn 0.0229736790060997 0.4783138334751129 -0.8778884410858154
vn 0.724082887172699 0.29202738404273987 -0.6248391270637512
vn -0.016720600426197052 0.5768221020698547 0.8166986703872681
vn 0.695890486240387 0.40829798579216003 0.5907869338989258
vn 0.01073102094233036 0.8769261240959167 -0.48050540685653687
vn -0.01024017296731472 0.8879244327545166 0.45987531542778015
vn 0.018803337588906288 0.5379987955093384 -0.8427358865737915
vn -0.0182022862136364 0.5768197178840637 0.8166686296463013
vn 0.018599236384034157 0.744575023651123 -0.6672796010971069
vn -0.014318686909973621 0.887924313545227 0.4597666561603546
vn 0.026232123374938965 0.5379980802536011 -0.8425378203392029
vn -0.025420350953936577 0.5768193006515503 0.8164761662483215
vn -0.5030652284622192 0.7727881073951721 0.3869417607784271
vn -0.5001009106636047 0.7224782705307007 -0.477414071559906
vn -0.43282589316368103 0.4261772334575653 -0.7943769097328186
vn -0.7229129672050476 0.4075668752193451 0.5579301714897156
vn -0.5001009106636047 0.7224782705307007 -0.477414071559906
vn -0.5030652284622192 0.7727881073951721 0.3869417607784271
vn -0.43282589316368103 0.4261772334575653 -0.7943769097328186
vn -0.7229129672050476 0.4075668752193451 0.5579301714897156
vn 0.701870858669281 0.40487873554229736 -0.5860465168952942
vn 0.48887234926223755 0.7709594368934631 -0.40819770097732544
vn 0.3627070188522339 0.6970536112785339 0.6185142397880554
vn 0.7187871336936951 0.29428791999816895 0.629872739315033
vn -0.0000015394939509860706 0.8769105076789856 0.48065367341041565
vn 0.3627070188522339 0.6970536112785339 0.6185142397880554
vn 0.48887234926223755 0.7709594368934631 -0.40819770097732544
vn 9.31029546791251e-7 0.8879092931747437 -0.4600186049938202
vn 0.008551501668989658 0.47830820083618164 0.8781504034996033
vn 0.7187871336936951 0.29428791999816895 0.629872739315033
vn 0.701870858669281 0.40487873554229736 -0.5860465168952942
vn 0.0000019191024875908624 0.5767648816108704 -0.8169102072715759
vn -0.005787336733192205 0.8768634796142578 0.4807046353816986
vn 0.005381106864660978 0.8878797888755798 -0.4600440561771393
vn -0.010074397549033165 0.5378370881080627 0.8429886102676392
vn 0.009632611647248268 0.576602578163147 -0.8169680237770081
vn 0.003481733612716198 0.74453204870224 0.6675776243209839
vn -0.004009106662124395 0.8879151940345764 -0.4599897265434265
vn 0.007331835571676493 0.5379660129547119 0.8429346084594727
vn -0.0071211569011211395 0.576766312122345 -0.8168781399726868
vn -0.4986528158187866 0.7750140428543091 -0.38819921016693115
vn -0.7175666093826294 0.410703182220459 -0.5625131726264954
vn -0.44739624857902527 0.4225906431674957 0.7881965041160583
vn -0.5092544555664062 0.717897891998291 0.474639356136322
vn -0.5092544555664062 0.717897891998291 0.474639356136322
vn -0.4986528158187866 0.7750140428543091 -0.38819921016693115
vn -0.44739624857902527 0.4225906431674957 0.7881965041160583
vn -0.7175666093826294 0.410703182220459 -0.5625131726264954
vt 1.54937744140625 1.0527647733688354
vt 1.088072419166565 1.0527647733688354
vt 1.1509664058685303 1.1195136308670044
vt 1.4608416557312012 1.1195136308670044
vt 0.6444420218467712 4.510616302490234
vt 0.1392996609210968 4.516657829284668
vt 0.1392998993396759 6.022337913513184
vt 0.6444420218467712 6.01629638671875
vt 0.7750243544578552 4.508440017700195
vt 0.7750245928764343 6.015069961547852
vt 0 4.518383979797363
vt 0 6.024065017700195
vt 0.6444417834281921 3.0236918926239014
vt 0.1392996609210968 3.0284392833709717
vt 0.7750243544578552 3.0219814777374268
vt 0 3.0297961235046387
vt 0.6444417834281921 1.536603569984436
vt 0.1392994225025177 1.540056824684143
vt 0.7750241160392761 1.5353597402572632
vt 0 1.5410431623458862
vt 1.4608416557312012 1.1195136308670044
vt 1.1509664058685303 1.1195136308670044
vt 1.0880722999572754 1.0527647733688354
vt 1.54937744140625 1.0527647733688354
vt 0.644441545009613 0.030759572982788086
vt 0.1392994225025177 0.03421187400817871
vt 0.7750241160392761 0.030058860778808594
vt 0 0.03519940376281738
vt 1.54937744140625 1.0527647733688354
vt 1.4608416557312012 1.1195136308670044
vt 1.1509664058685303 1.1195136308670044
vt 1.088072419166565 1.0527647733688354
vt 0.6444420218467712 4.510616302490234
vt 0.6444420218467712 6.01629638671875
vt 0.1392998993396759 6.022337913513184
vt 0.1392996609210968 4.516657829284668
vt 0.7750243544578552 4.508440017700195
vt 0.7750245928764343 6.015069961547852
vt 0 6.024065017700195
vt 0 4.518383979797363
vt 0.6444417834281921 3.0236918926239014
vt 0.1392996609210968 3.0284392833709717
vt 0.7750243544578552 3.0219814777374268
vt 0 3.0297961235046387
vt 0.6444417834281921 1.536603569984436
vt 0.1392994225025177 1.540056824684143
vt 0.7750241160392761 1.5353597402572632
vt 0 1.5410431623458862
vt 1.4608416557312012 1.1195136308670044
vt 1.54937744140625 1.0527647733688354
vt 1.0880722999572754 1.0527647733688354
vt 1.1509664058685303 1.1195136308670044
vt 0.644441545009613 0.030759572982788086
vt 0.1392994225025177 0.03421187400817871
vt 0.7750241160392761 0.030058860778808594
vt 0 0.03519940376281738
g exterior010
s 1
usemtl mat_wr_vtrim02_flowery
f 1/1/1 2/2/2 3/3/3
f 3/3/3 4/4/4 1/1/1
f 5/5/5 6/6/6 7/7/7
f 7/7/7 8/8/8 5/5/5
f 9/9/9 5/5/5 8/8/8
f 8/8/8 10/10/10 9/9/9
f 6/6/6 11/11/11 12/12/12
f 12/12/12 7/7/7 6/6/6
f 13/13/13 14/14/14 6/6/6
f 6/6/6 5/5/5 13/13/13
f 15/15/15 13/13/13 5/5/5
f 5/5/5 9/9/9 15/15/15
f 14/14/14 16/16/16 11/11/11
f 11/11/11 6/6/6 14/14/14
f 17/17/17 18/18/18 14/14/14
f 14/14/14 13/13/13 17/17/17
f 19/19/19 17/17/17 13/13/13
f 13/13/13 15/15/15 19/19/19
f 18/18/18 20/20/20 16/16/16
f 16/16/16 14/14/14 18/18/18
f 21/21/21 22/22/22 23/23/23
f 23/23/23 24/24/24 21/21/21
f 25/25/25 26/26/26 18/18/18
f 18/18/18 17/17/17 25/25/25
f 27/27/27 25/25/25 17/17/17
f 17/17/17 19/19/19 27/27/27
f 26/26/26 28/28/28 20/20/20
f 20/20/20 18/18/18 26/26/26
f 29/29/29 30/30/30 31/31/31
f 31/31/31 32/32/32 29/29/29
f 33/33/33 34/34/34 35/35/35
f 35/35/35 36/36/36 33/33/33
f 37/37/37 38/38/38 34/34/34
f 34/34/34 33/33/33 37/37/37
f 36/36/36 35/35/35 39/39/39
f 39/39/39 40/40/40 36/36/36
f 41/41/41 33/33/33 36/36/36
f 36/36/36 42/42/42 41/41/41
f 43/43/43 37/37/37 33/33/33
f 33/33/33 41/41/41 43/43/43
f 42/42/42 36/36/36 40/40/40
f 40/40/40 44/44/44 42/42/42
f 45/45/45 41/41/41 42/42/42
f 42/42/42 46/46/46 45/45/45
f 47/47/47 43/43/43 41/41/41
f 41/41/41 45/45/45 47/47/47
f 46/46/46 42/42/42 44/44/44
f 44/44/44 48/48/48 46/46/46
f 49/49/49 50/50/50 51/51/51
f 51/51/51 52/52/52 49/49/49
f 53/53/53 45/45/45 46/46/46
f 46/46/46 54/54/54 53/53/53
f 55/55/55 47/47/47 45/45/45
f 45/45/45 53/53/53 55/55/55
f 54/54/54 46/46/46 48/48/48
f 48/48/48 56/56/56 54/54/54
