# Exported using wow.export v0.1.64
o lochtallgrass07
mtllib lochtallgrass07.mtl
v -0.24877190589904785 5.747512340545654 4.296331882476807
v -0.5172207355499268 -0.027363883331418037 4.296331882476807
v 0.26844826340675354 4.759687423706055 -2.14685320854187
v -1.0548580884933472 -0.027363883331418037 -5.654707908630371
v -0.7864096760749817 4.242126941680908 -5.654707908630371
v -1.5894573834884795e-7 -0.027363885194063187 -2.14685320854187
v -0.7864096760749817 -2.8765041828155518 -5.654707908630371
v 0.2684483528137207 -2.9109601974487305 -2.14685320854187
v 1.8876999616622925 -0.027363883331418037 -5.554797649383545
v 2.1561481952667236 -2.910959243774414 -5.554797649383545
v 2.1561479568481445 4.759686470031738 -5.554797649383545
v 0.26844826340675354 4.759687423706055 -2.14685320854187
v 1.7139326333999634 -2.9113967418670654 5.39797830581665
v 2.0490622520446777 -2.889296770095825 1.0747392177581787
v 1.4454843997955322 -0.027363883331418037 5.39797830581665
v 1.7806137800216675 -0.027363883331418037 1.0747392177581787
v 0.2684483528137207 -2.9109601974487305 -2.14685320854187
v 1.7139325141906738 3.7835147380828857 5.39797830581665
v 2.0490620136260986 3.9065470695495605 1.0747392177581787
v -0.5172207355499268 -0.027363883331418037 4.296331882476807
v -0.24877190589904785 5.747512340545654 4.296331882476807
v -2.43168306350708 3.9065475463867188 1.6818264722824097
v -2.700131416320801 -0.027363883331418037 1.6818263530731201
v -1.5894573834884795e-7 -0.027363885194063187 -2.14685320854187
v 0.26844826340675354 4.759687423706055 -2.14685320854187
v -2.431682825088501 -2.8892979621887207 1.6818263530731201
v -0.24877174198627472 -2.901193857192993 4.296331882476807
v -1.5894573834884795e-7 -0.027363885194063187 -2.14685320854187
v 0.2684483528137207 -2.9109601974487305 -2.14685320854187
v -0.24877174198627472 -2.901193857192993 4.296331882476807
vn 0.9986863136291504 -0.04642457142472267 0.021688591688871384
vn 0.999754786491394 0.01913461461663246 0.011144015938043594
vn 0.9956073760986328 -0.05735127255320549 0.0740056037902832
vn 0.9575315117835999 0.014922444708645344 -0.2879422903060913
vn 0.9571717977523804 -0.0569254532456398 -0.2838691174983978
vn 0.9958370327949524 0.017910609021782875 0.0893743634223938
vn 0.9539286494255066 0.08934291452169418 -0.28642264008522034
vn 0.9928947687149048 0.09264127165079117 0.0746833011507988
vn 0.8746534585952759 0.01611991412937641 0.48448067903518677
vn 0.8718807697296143 0.08116772770881653 0.4829448461532593
vn 0.8737164735794067 -0.04899625480175018 0.48396164178848267
vn 0.9956073760986328 -0.05735127255320549 0.0740056037902832
vn 0.9927070140838623 0.09240204095840454 0.07742518931627274
vn 0.9791368842124939 0.09161797910928726 0.18137574195861816
vn 0.9969673156738281 0.011930703185498714 0.0769013911485672
vn 0.9959861040115356 0.014135539531707764 -0.08838479220867157
vn 0.9928947687149048 0.09264127165079117 0.0746833011507988
vn 0.9947100281715393 -0.07006993144750595 0.07511403411626816
vn 0.9811636805534363 -0.06360115110874176 0.18240810930728912
vn 0.999754786491394 0.01913461461663246 0.011144015938043594
vn 0.9986863136291504 -0.04642457142472267 0.021688591688871384
vn 0.9575182795524597 -0.05848325416445732 -0.28238004446029663
vn 0.978369951248169 0.014258653856813908 0.20637087523937225
vn 0.9958370327949524 0.017910609021782875 0.0893743634223938
vn 0.9956073760986328 -0.05735127255320549 0.0740056037902832
vn 0.9539919495582581 0.08936330676078796 -0.2862055003643036
vn 0.9956365823745728 0.09300397336483002 0.007616951130330563
vn 0.9958370327949524 0.017910609021782875 0.0893743634223938
vn 0.9928947687149048 0.09264127165079117 0.0746833011507988
vn 0.9956365823745728 0.09300397336483002 0.007616951130330563
vt 0.46936559677124023 0.49638813734054565
vt 0.46936559677124023 0.008591234683990479
vt 2.229365587234497 0.49638813734054565
vt 1.3451143503189087 0.008591234683990479
vt 1.3451143503189087 0.49638813734054565
vt 0.46936553716659546 0.008591234683990479
vt 1.3451143503189087 0.2894243001937866
vt 0.46936553716659546 0.2894243001937866
vt -0.406383216381073 0.008591234683990479
vt -0.406383216381073 0.2894243001937866
vt -0.406383216381073 0.49638813734054565
vt 0.46936553716659546 0.49638813734054565
vt -0.4055037498474121 0.2889246940612793
vt 0.47361698746681213 0.28892457485198975
vt -0.4055040776729584 0.006675660610198975
vt 0.4736166298389435 0.0066754817962646484
vt 1.3527376651763916 0.2889244556427002
vt -0.4055037498474121 0.49588853120803833
vt 0.47361698746681213 0.4958884119987488
vt -0.4055040776729584 0.006675660610198975
vt -0.4055037498474121 0.49588853120803833
vt 0.47361698746681213 0.4958884119987488
vt 0.4736166298389435 0.0066754817962646484
vt 1.352737307548523 0.006675362586975098
vt 1.3527376651763916 0.49588823318481445
vt 0.47361698746681213 0.28892457485198975
vt -0.4055037498474121 0.2889246940612793
vt 2.229365587234497 0.008591234683990479
vt 2.229365587234497 0.2894243001937866
vt 0.46936559677124023 0.2894243001937866
g Geoset0
s 1
usemtl mat_wetlandstallgrassfull
f 1/1/1 2/2/2 3/3/3
f 4/4/4 5/5/5 6/6/6
f 4/4/4 6/6/6 7/7/7
f 8/8/8 7/7/7 6/6/6
f 9/9/9 6/6/6 10/10/10
f 8/8/8 10/10/10 6/6/6
f 9/9/9 11/11/11 6/6/6
f 12/12/12 6/6/6 11/11/11
f 12/12/12 6/6/6 5/5/5
f 13/13/13 14/14/14 15/15/15
f 16/16/16 15/15/15 14/14/14
f 14/14/14 17/17/17 16/16/16
f 18/18/18 15/15/15 19/19/19
f 16/16/16 19/19/19 15/15/15
f 16/16/16 19/19/19 20/20/20
f 16/16/16 20/20/20 14/14/14
f 21/21/21 20/20/20 19/19/19
f 21/21/21 20/20/20 22/22/22
f 23/23/23 22/22/22 20/20/20
f 24/24/24 25/25/25 23/23/23
f 22/22/22 23/23/23 25/25/25
f 19/19/19 16/16/16 25/25/25
f 24/24/24 25/25/25 16/16/16
f 24/24/24 16/16/16 17/17/17
f 24/24/24 23/23/23 17/17/17
f 26/26/26 17/17/17 23/23/23
f 23/23/23 20/20/20 26/26/26
f 27/27/27 26/26/26 20/20/20
f 27/27/27 14/14/14 20/20/20
f 28/28/28 2/2/2 29/29/29
f 30/30/30 29/29/29 2/2/2
f 28/28/28 3/3/3 2/2/2
