# Exported using wow.export v0.1.64
o sc_fence_base
mtllib sc_fence_base.mtl
v 0.00954171922057867 1.593163251876831 -0.16565805673599243
v 0.16426986455917358 1.593163251876831 -0.009243091568350792
v 0.16242091357707977 1.2851027250289917 -0.009417247958481312
v 0.00954171922057867 2.7469866275787354 0.06868324428796768
v 0.0806790441274643 2.7469868659973145 0.0005924288998357952
v 0.00954171922057867 3.1561057567596436 0.0016750132199376822
v -0.0615956112742424 2.7469868659973145 0.0005924288998357952
v 0.00954171922057867 2.7469866275787354 -0.07150683552026749
v 0.009541718289256096 1.2253848314285278 0.12678171694278717
v -0.11576567590236664 1.2253847122192383 -0.008460153825581074
v -0.17404021322727203 -0.014942245557904243 -0.0008278595632873476
v 0.00954171922057867 -0.014942245557904243 -0.17694787681102753
v 0.00954171922057867 -0.014942245557904243 0.1716756820678711
v 0.19312365353107452 -0.014942245557904243 -0.0008278595632873476
v 0.13484911620616913 1.2253847122192383 -0.008460153825581074
v 0.00954171922057867 1.2253848314285278 -0.12894895672798157
v -0.0615956112742424 2.7469868659973145 0.0005924288998357952
v 0.00954171922057867 2.7469866275787354 -0.07150683552026749
v 0.009541718289256096 2.738964080810547 -0.10992050915956497
v -0.10075969249010086 2.7389638423919678 0.000010877233762585092
v 0.0806790441274643 2.7469868659973145 0.0005924288998357952
v 0.11984312534332275 2.7389638423919678 0.000010877233762585092
v 0.00954171922057867 2.7469866275787354 0.06868324428796768
v 0.009541718289256096 2.738964080810547 0.1047317236661911
v 0.00954171922057867 2.562066078186035 0.11751935631036758
v 0.12477955967187881 2.5620663166046143 -0.0002035882353084162
v 0.11984312534332275 2.7389638423919678 0.000010877233762585092
v 0.009541718289256096 2.738964080810547 -0.10992050915956497
v 0.00954171922057867 2.5620663166046143 -0.12338920682668686
v -0.10569613426923752 2.5620663166046143 -0.0002035882353084162
v -0.10075969249010086 2.7389638423919678 0.000010877233762585092
v 0.00954171922057867 2.5277743339538574 -0.07106313854455948
v -0.06258668005466461 2.5277743339538574 0.0006979157333262265
v 0.00954171922057867 2.5277743339538574 0.06847366690635681
v 0.009541718289256096 1.6045691967010498 0.10692638158798218
v 0.0816701203584671 2.5277743339538574 0.0006979157333262265
v 0.12319731712341309 1.6045690774917603 0.00012941770546603948
v 0.009541718289256096 1.6045691967010498 -0.11202405393123627
v -0.10411388427019119 1.6045690774917603 0.00012941770546603948
v 0.009541718289256096 1.6045691967010498 0.10692638158798218
v 0.00954171922057867 1.593163251876831 0.16709835827350616
v 0.16426986455917358 1.593163251876831 -0.009243091568350792
v 0.12319731712341309 1.6045690774917603 0.00012941770546603948
v 0.00954171922057867 1.593163251876831 -0.16565805673599243
v 0.009541718289256096 1.6045691967010498 -0.11202405393123627
v -0.1451864093542099 1.593163251876831 -0.009243091568350792
v -0.10411388427019119 1.6045690774917603 0.00012941770546603948
v 0.009541718289256096 1.2253848314285278 0.12678171694278717
v 0.13484911620616913 1.2253847122192383 -0.008460153825581074
v 0.00954171922057867 1.2253848314285278 -0.12894895672798157
v -0.11576567590236664 1.2253847122192383 -0.008460153825581074
v -0.14333747327327728 1.2851027250289917 -0.009417247958481312
v 0.00954171922057867 1.2851026058197021 0.177742138504982
v 0.00954171922057867 1.2851026058197021 -0.17541766166687012
v -0.1451864093542099 1.593163251876831 -0.009243091568350792
vn -6.119759810019332e-9 0.5229307413101196 -0.8523751497268677
vn 0.8621384501457214 0.5058164596557617 -0.02944452501833439
vn 0.9772282242774963 -0.21020233631134033 -0.028981657698750496
vn 9.002230960675206e-9 0.8399249315261841 0.5427026152610779
vn 0.5189630389213562 0.8547053337097168 0.012494944967329502
vn 5.920834311723411e-8 0.9999832510948181 0.005790984723716974
vn -0.5189630389213562 0.8547053337097168 0.012494956143200397
vn 1.0197123145871956e-8 0.8542123436927795 -0.5199243426322937
vn 7.52352491417696e-9 -0.35943230986595154 0.9331711530685425
vn -0.9760769605636597 -0.2154785543680191 -0.029030725359916687
vn -0.9991796016693115 0.040228504687547684 0.00467012170702219
vn -1.970864893507951e-8 0.038870807737112045 -0.9992442727088928
vn 1.734999344193966e-8 0.03617158159613609 0.999345600605011
vn 0.9991796016693115 0.040228504687547684 0.004670101683586836
vn 0.9760769605636597 -0.2154785543680191 -0.029030725359916687
vn 9.440946691086083e-9 -0.3347700536251068 -0.9422998428344727
vn -0.5189630389213562 0.8547053337097168 0.012494956143200397
vn 1.0197123145871956e-8 0.8542123436927795 -0.5199243426322937
vn -4.573938028329394e-8 0.5422831773757935 -0.8401957750320435
vn -0.8477489948272705 0.5303022861480713 0.010056417435407639
vn 0.5189630389213562 0.8547053337097168 0.012494944967329502
vn 0.8477489948272705 0.5303022861480713 0.010056417435407639
vn 9.002230960675206e-9 0.8399249315261841 0.5427026152610779
vn 2.7738751740002954e-8 0.5388069152832031 0.8424292802810669
vn 1.6771380728641816e-8 -0.3609674274921417 0.932578444480896
vn 0.9336073398590088 -0.3581986427307129 0.008430065587162971
vn 0.8477489948272705 0.5303022861480713 0.010056417435407639
vn -4.573938028329394e-8 0.5422831773757935 -0.8401957750320435
vn 2.5573314132998348e-8 -0.368272066116333 -0.9297180771827698
vn -0.9336073398590088 -0.3581986725330353 0.008430059999227524
vn -0.8477489948272705 0.5303022861480713 0.010056417435407639
vn -1.853896236525543e-8 -0.5699217915534973 -0.8216989636421204
vn -0.8527190089225769 -0.5218139290809631 0.024094168096780777
vn 3.1668381250682387e-9 -0.5440658926963806 0.8390424847602844
vn -4.811723464115403e-9 0.8220129609107971 0.5694687366485596
vn 0.8527190089225769 -0.5218139290809631 0.024094166234135628
vn 0.6142076253890991 0.78509920835495 0.07980111241340637
vn 2.034378532300707e-8 0.8229356408119202 -0.568134605884552
vn -0.6142076253890991 0.78509920835495 0.07980111241340637
vn -4.811723464115403e-9 0.8220129609107971 0.5694687366485596
vn 1.686964168357008e-8 0.5248404145240784 0.8512006402015686
vn 0.8621384501457214 0.5058164596557617 -0.02944452501833439
vn 0.6142076253890991 0.78509920835495 0.07980111241340637
vn -6.119759810019332e-9 0.5229307413101196 -0.8523751497268677
vn 2.034378532300707e-8 0.8229356408119202 -0.568134605884552
vn -0.8621384501457214 0.5058165192604065 -0.029444510117173195
vn -0.6142076253890991 0.78509920835495 0.07980111241340637
vn 7.52352491417696e-9 -0.35943230986595154 0.9331711530685425
vn 0.9760769605636597 -0.2154785543680191 -0.029030725359916687
vn 9.440946691086083e-9 -0.3347700536251068 -0.9422998428344727
vn -0.9760769605636597 -0.2154785543680191 -0.029030725359916687
vn -0.9772282242774963 -0.21020235121250153 -0.02898162417113781
vn 1.3601005655061726e-8 -0.2844661772251129 0.9586860537528992
vn -3.2101556968200384e-8 -0.27084431052207947 -0.9626231789588928
vn -0.8621384501457214 0.5058165192604065 -0.029444510117173195
vt 0.38891303539276123 0.7844445705413818
vt 0.2467227429151535 0.7844445705413818
vt 0.2467227429151535 0.6517605781555176
vt 0.10656037926673889 0.7857657670974731
vt 0.2467227429151535 0.7857657670974731
vt 0.2467227429151535 0.9882940649986267
vt 0.2467227429151535 0.7857657670974731
vt 0.38635677099227905 0.7857657670974731
vt 0.032816242426633835 0.14065510034561157
vt 0.24681401252746582 0.1406528353691101
vt 0.2467227429151535 0.5489524006843567
vt 0.47313356399536133 0.5489524006843567
vt 0.026149999350309372 0.5489524006843567
vt 0.2467227429151535 0.5489524006843567
vt 0.24681401252746582 0.1406528353691101
vt 0.4662540555000305 0.14065515995025635
vt 0.24560433626174927 0.7690227627754211
vt 0.3633602261543274 0.7690227627754211
vt 0.38650262355804443 0.7846208214759827
vt 0.24560433626174927 0.7846208214759827
vt 0.24560433626174927 0.7690227627754211
vt 0.24560433626174927 0.7846208214759827
vt 0.1280757635831833 0.7690227627754211
vt 0.10497249662876129 0.7846209406852722
vt 0.11149893701076508 0.6517605781555176
vt 0.2467227429151535 0.6517605781555176
vt 0.2467227429151535 0.7844445705413818
vt 0.38785520195961 0.7844445705413818
vt 0.3879731297492981 0.6517605781555176
vt 0.2467227429151535 0.6517605781555176
vt 0.2467227429151535 0.7844445705413818
vt 0.4690779745578766 0.5502995252609253
vt 0.2467227429151535 0.5502995252609253
vt 0.030115041881799698 0.5502994656562805
vt 0.02774599939584732 0.01696711778640747
vt 0.2467227429151535 0.5502995252609253
vt 0.2467227429151535 0.01696711778640747
vt 0.4715011417865753 0.01696711778640747
vt 0.2467227429151535 0.01696711778640747
vt 0.12673789262771606 0.7690227627754211
vt 0.1038917675614357 0.7846209406852722
vt 0.24560433626174927 0.7846208214759827
vt 0.24560433626174927 0.7690227627754211
vt 0.3875587284564972 0.7846208214759827
vt 0.3646889626979828 0.7690227627754211
vt 0.24560433626174927 0.7846208214759827
vt 0.24560433626174927 0.7690227627754211
vt 0.02681240439414978 0.5502995252609253
vt 0.2467227429151535 0.5502995252609253
vt 0.47241297364234924 0.5502995848655701
vt 0.2467227429151535 0.5502995252609253
vt 0.2467227429151535 0.6517605781555176
vt 0.1105937510728836 0.6517605185508728
vt 0.38889214396476746 0.6517605781555176
vt 0.2467227429151535 0.7844445705413818
g Geoset0
s 1
usemtl mat_sc_fence
f 1/1/1 2/2/2 3/3/3
f 4/4/4 5/5/5 6/6/6
f 4/4/4 6/6/6 7/7/7
f 7/7/7 6/6/6 8/8/8
f 5/5/5 8/8/8 6/6/6
f 9/9/9 10/10/10 11/11/11
f 12/12/12 11/11/11 10/10/10
f 11/11/11 13/13/13 9/9/9
f 9/9/9 13/13/13 14/14/14
f 14/14/14 15/15/15 9/9/9
f 15/15/15 14/14/14 12/12/12
f 12/12/12 16/16/16 15/15/15
f 10/10/10 16/16/16 12/12/12
f 17/17/17 18/18/18 19/19/19
f 19/19/19 20/20/20 17/17/17
f 21/21/21 22/22/22 19/19/19
f 19/19/19 18/18/18 21/21/21
f 21/21/21 23/23/23 24/24/24
f 24/24/24 22/22/22 21/21/21
f 17/17/17 20/20/20 24/24/24
f 24/24/24 23/23/23 17/17/17
f 24/24/24 25/25/25 26/26/26
f 26/26/26 27/27/27 24/24/24
f 28/28/28 29/29/29 30/30/30
f 30/30/30 31/31/31 28/28/28
f 28/28/28 27/27/27 26/26/26
f 26/26/26 29/29/29 28/28/28
f 32/32/32 29/29/29 26/26/26
f 30/30/30 29/29/29 32/32/32
f 32/32/32 33/33/33 30/30/30
f 30/30/30 33/33/33 34/34/34
f 35/35/35 34/34/34 33/33/33
f 36/36/36 34/34/34 35/35/35
f 35/35/35 37/37/37 36/36/36
f 36/36/36 37/37/37 38/38/38
f 33/33/33 39/39/39 35/35/35
f 38/38/38 39/39/39 33/33/33
f 33/33/33 32/32/32 38/38/38
f 38/38/38 32/32/32 36/36/36
f 26/26/26 36/36/36 32/32/32
f 34/34/34 36/36/36 26/26/26
f 26/26/26 25/25/25 34/34/34
f 34/34/34 25/25/25 30/30/30
f 30/30/30 25/25/25 24/24/24
f 24/24/24 31/31/31 30/30/30
f 40/40/40 41/41/41 42/42/42
f 42/42/42 43/43/43 40/40/40
f 42/42/42 44/44/44 45/45/45
f 45/45/45 43/43/43 42/42/42
f 45/45/45 44/44/44 46/46/46
f 46/46/46 47/47/47 45/45/45
f 40/40/40 47/47/47 46/46/46
f 46/46/46 41/41/41 40/40/40
f 48/48/48 49/49/49 3/3/3
f 50/50/50 51/51/51 52/52/52
f 52/52/52 51/51/51 48/48/48
f 48/48/48 53/53/53 52/52/52
f 3/3/3 53/53/53 48/48/48
f 41/41/41 53/53/53 3/3/3
f 3/3/3 2/2/2 41/41/41
f 52/52/52 53/53/53 41/41/41
f 52/52/52 54/54/54 50/50/50
f 3/3/3 49/49/49 50/50/50
f 50/50/50 54/54/54 3/3/3
f 3/3/3 54/54/54 1/1/1
f 1/1/1 54/54/54 52/52/52
f 52/52/52 55/55/55 1/1/1
f 41/41/41 55/55/55 52/52/52
