# Exported using wow.export v0.1.64
o grizzlyhills_yellowflower02
mtllib grizzlyhills_yellowflower02.mtl
v -0.04927755147218704 0.12117282301187515 0.018356047570705414
v 0.014398342929780483 0.12117282301187515 -0.11819735914468765
v 0.029631802812218666 -0.057313695549964905 -0.02718641608953476
v 0.14271655678749084 0.0696406438946724 -0.05836159735918045
v 0.014398342929780483 0.12117282301187515 -0.11819735914468765
v -0.07406656444072723 0.36769238114356995 -0.5051804184913635
v 0.58796226978302 0.10182376205921173 -0.19647131860256195
v -0.40258780121803284 0.36769238114356995 0.1993359625339508
v -0.04927755147218704 0.12117282301187515 0.018356047570705414
v 0.25944092869758606 0.10182376205921173 0.5080450177192688
v 0.07904066145420074 0.0696406438946724 0.07819180190563202
v 0.014398342929780483 0.12117282301187515 -0.11819735914468765
v -0.07406656444072723 0.36769238114356995 -0.5051804184913635
v -0.40258780121803284 0.36769238114356995 0.1993359625339508
v -0.04927755147218704 0.12117282301187515 0.018356047570705414
v 0.25944092869758606 0.10182376205921173 0.5080450177192688
v 0.07904066145420074 0.0696406438946724 0.07819180190563202
v 0.14271655678749084 0.0696406438946724 -0.05836159735918045
v 0.0700715109705925 0.1661984622478485 -0.009113547392189503
v 0.58796226978302 0.10182376205921173 -0.19647131860256195
v 0.014398342929780483 0.12117282301187515 -0.11819735914468765
v 0.14271655678749084 0.0696406438946724 -0.05836159735918045
v 0.07904066145420074 0.0696406438946724 0.07819180190563202
v -0.04927755147218704 0.12117282301187515 0.018356047570705414
vn -0.6869637370109558 -0.7262210249900818 0.026150736957788467
vn -0.4210332930088043 -0.7269798517227173 -0.5424308180809021
vn -0.15848831832408905 -0.9848760962486267 -0.07000403851270676
vn 0.1881527304649353 -0.9284396171569824 -0.32030990719795227
vn -0.4210332930088043 -0.7269798517227173 -0.5424308180809021
vn -0.39022842049598694 -0.8143664598464966 -0.42956849932670593
vn -0.008001350797712803 -0.9678675532341003 -0.25133320689201355
vn -0.5799025893211365 -0.8143664002418518 -0.0228109173476696
vn -0.6869637370109558 -0.7262210249900818 0.026150736957788467
vn -0.19767552614212036 -0.9678675532341003 0.15542449057102203
vn -0.123322494328022 -0.9280593991279602 0.3514218330383301
vn 0.3330840468406677 0.9175240397453308 0.21726630628108978
vn 0.39022842049598694 0.8143664598464966 0.42956849932670593
vn 0.5799025893211365 0.8143664002418518 0.022810937836766243
vn 0.3805380165576935 0.9175240397453308 0.1155010536313057
vn 0.19767552614212036 0.9678675532341003 -0.15542449057102203
vn 0.2849099040031433 0.9559279680252075 0.07090897858142853
vn 0.23745597898960114 0.9559279680252075 0.17267420887947083
vn 0.3099755048751831 0.9396926164627075 0.14454400539398193
vn 0.008001345209777355 0.9678675532341003 0.25133317708969116
vn -0.4210332930088043 -0.7269798517227173 -0.5424308180809021
vn 0.1881527304649353 -0.9284396171569824 -0.32030990719795227
vn -0.123322494328022 -0.9280593991279602 0.3514218330383301
vn -0.6869637370109558 -0.7262210249900818 0.026150736957788467
vt 0.7746022939682007 0.9934094548225403
vt 0.6964321136474609 0.9949049353599548
vt 0.722072958946228 0.9453617930412292
vt 0.19589641690254211 0.695145308971405
vt 0.19589930772781372 0.7877707481384277
vt 0.007670304272323847 0.9946056604385376
vt 0.0076701948419213295 0.48831361532211304
vt 0.4684187173843384 0.994605541229248
vt 0.280192494392395 0.787773847579956
vt 0.46841859817504883 0.4883134961128235
vt 0.2801896035671234 0.6951484084129333
vt 0.19589930772781372 0.7877707481384277
vt 0.007670304272323847 0.9946056604385376
vt 0.4684187173843384 0.994605541229248
vt 0.280192494392395 0.787773847579956
vt 0.46841859817504883 0.4883134961128235
vt 0.2801896035671234 0.6951484084129333
vt 0.19589641690254211 0.695145308971405
vt 0.23804444074630737 0.7414596080780029
vt 0.0076701948419213295 0.48831361532211304
vt 0.7746022939682007 0.9934094548225403
vt 0.6964321136474609 0.9949049353599548
vt 0.7746022939682007 0.9934094548225403
vt 0.6964321136474609 0.9949049353599548
g Geoset0
s 1
usemtl mat_grizzlyhills_yellowflower
f 1/1/1 2/2/2 3/3/3
f 4/4/4 5/5/5 6/6/6
f 6/6/6 7/7/7 4/4/4
f 8/8/8 6/6/6 5/5/5
f 5/5/5 9/9/9 8/8/8
f 10/10/10 8/8/8 9/9/9
f 9/9/9 11/11/11 10/10/10
f 7/7/7 10/10/10 11/11/11
f 11/11/11 4/4/4 7/7/7
f 12/12/12 13/13/13 14/14/14
f 14/14/14 15/15/15 12/12/12
f 15/15/15 14/14/14 16/16/16
f 17/17/17 18/18/18 19/19/19
f 20/20/20 18/18/18 17/17/17
f 17/17/17 16/16/16 20/20/20
f 18/18/18 20/20/20 13/13/13
f 13/13/13 12/12/12 18/18/18
f 18/18/18 12/12/12 19/19/19
f 12/12/12 15/15/15 19/19/19
f 15/15/15 17/17/17 19/19/19
f 16/16/16 17/17/17 15/15/15
f 21/21/21 22/22/22 3/3/3
f 22/22/22 23/23/23 3/3/3
f 23/23/23 24/24/24 3/3/3
