# Exported using wow.export v0.1.64
o grizzlyhills_blurpleflower01
mtllib grizzlyhills_blurpleflower01.mtl
v 0.14633293449878693 0.5409844517707825 0.12423864752054214
v 0.15189941227436066 0.2637996971607208 0.09614161401987076
v -0.004787376616150141 0.2678180932998657 0.02545700967311859
v 0.14633293449878693 0.5409844517707825 0.12423864752054214
v -0.01035385299474001 0.545002818107605 0.053554050624370575
v -0.004787376616150141 0.2678180932998657 0.02545700967311859
v 0.15189941227436066 0.2637996971607208 0.09614161401987076
v 0.05593155696988106 0.9412945508956909 -0.20972692966461182
v -0.0039058842230588198 1.0145591497421265 -0.06877796351909637
v 0.0129288574680686 0.9384157657623291 0.02850279211997986
v 0.06412392854690552 1.0145591497421265 0.07711246609687805
v -0.029408011585474014 0.9412945508956909 0.27425768971443176
v 0.008508666418492794 -0.04372590407729149 0.001966171432286501
v 0.13550056517124176 -0.04372590407729149 -0.17939704656600952
v -0.14262992143630981 -0.04372590407729149 0.21781443059444427
v 0.06412392854690552 1.0145591497421265 0.07711246609687805
v 0.0129288574680686 0.9384157657623291 0.02850279211997986
v -0.029408011585474014 0.9412945508956909 0.27425768971443176
v -0.14262992143630981 -0.04372590407729149 0.21781443059444427
v 0.008508666418492794 -0.04372590407729149 0.001966171432286501
v 0.05593155696988106 0.9412945508956909 -0.20972692966461182
v -0.0039058842230588198 1.0145591497421265 -0.06877796351909637
v 0.13550056517124176 -0.04372590407729149 -0.17939704656600952
v 0.0129288574680686 0.9384157657623291 0.02850279211997986
v -0.0039058842230588198 1.0145591497421265 -0.06877796351909637
v -0.07245197147130966 1.0420870780944824 -0.03681440278887749
v 0.06464020162820816 0.9870312809944153 -0.10074152797460556
v 0.13267001509666443 0.9870312809944153 0.045148905366659164
v 0.06412392854690552 1.0145591497421265 0.07711246609687805
v -0.004422146361321211 1.0420870780944824 0.10907602310180664
v 0.0129288574680686 0.9384157657623291 0.02850279211997986
v -0.07245197147130966 1.0420870780944824 -0.03681440278887749
v -0.0039058842230588198 1.0145591497421265 -0.06877796351909637
v -0.004422146361321211 1.0420870780944824 0.10907602310180664
v 0.06412392854690552 1.0145591497421265 0.07711246609687805
v 0.13267001509666443 0.9870312809944153 0.045148905366659164
v 0.06464020162820816 0.9870312809944153 -0.10074152797460556
v 0.2573755979537964 1.021414875984192 -0.5599864721298218
v 0.06464020907878876 0.9870312213897705 -0.10074152797460556
v -0.07245193421840668 1.0420870780944824 -0.03681441396474838
v -0.44992029666900635 1.3054625988006592 -0.23016905784606934
v -0.004422113299369812 1.0420870780944824 0.10907600075006485
v -0.09893593192100525 1.3054625988006592 0.5225195288658142
v 0.13267002999782562 0.9870312213897705 0.04514889791607857
v 0.6083600521087646 1.021414875984192 0.19270206987857819
v 0.05505778267979622 1.09019136428833 -0.007466549053788185
v 0.06464020907878876 0.9870312213897705 -0.10074152797460556
v -0.07245193421840668 1.0420870780944824 -0.03681441396474838
v 0.13267002999782562 0.9870312213897705 0.04514889791607857
v -0.004422113299369812 1.0420870780944824 0.10907600820064545
v -0.44992029666900635 1.3054625988006592 -0.23016905784606934
v 0.2573755979537964 1.021414875984192 -0.5599864721298218
v 0.6083600521087646 1.021414875984192 0.19270206987857819
v -0.09893593192100525 1.3054625988006592 0.5225195288658142
v -0.01035385299474001 0.545002818107605 0.053554050624370575
vn 0.4112805724143982 0.10009638220071793 -0.9059961438179016
vn 0.4112805724143982 0.10009638220071793 -0.9059961438179016
vn 0.4112805724143982 0.10009638220071793 -0.9059961438179016
vn -0.4112805724143982 -0.10009638220071793 0.9059961438179016
vn -0.4112806022167206 -0.10009638220071793 0.9059961438179016
vn -0.4112805724143982 -0.10009638220071793 0.9059961438179016
vn -0.4112805724143982 -0.10009638220071793 0.9059961438179016
vn 0.9691023230552673 0.10619702190160751 0.22262728214263916
vn 0.8961823582649231 0.411163866519928 0.16673779487609863
vn 0.9718890190124512 -0.12757715582847595 0.1978781521320343
vn 0.7775000929832458 -0.6128445863723755 0.14112088084220886
vn 0.9572277665138245 -0.23580294847488403 0.16766640543937683
vn 0.8369945287704468 0.026279451325535774 0.546579897403717
vn 0.8162887692451477 0.08353835344314575 0.5715715289115906
vn 0.8554413318634033 -0.03590402752161026 0.5166536569595337
vn -0.7775001525878906 0.6128445267677307 -0.14112089574337006
vn -0.9718890190124512 0.12757714092731476 -0.1978781670331955
vn -0.9572277665138245 0.23580293357372284 -0.16766640543937683
vn -0.8554413318634033 0.03590402379631996 -0.5166536569595337
vn -0.8369945287704468 -0.026279455050826073 -0.546579897403717
vn -0.9691023230552673 -0.10619701445102692 -0.22262728214263916
vn -0.8961823582649231 -0.4111638367176056 -0.16673779487609863
vn -0.8162887692451477 -0.08353835344314575 -0.5715715289115906
vn 0.26625433564186096 0.9397739768028259 -0.21432094275951385
vn 0.5094466209411621 0.7181954383850098 0.473982572555542
vn 0.7436661720275879 0.6636051535606384 0.08117181062698364
vn 0.10538619756698608 0.9161342978477478 0.3867708444595337
vn -0.3168647587299347 0.8913997411727905 -0.32404205203056335
vn -0.1311250776052475 0.59458327293396 -0.7932698130607605
vn 0.4449155032634735 0.5948106050491333 -0.6695151329040527
vn -0.26625433564186096 -0.9397739768028259 0.21432094275951385
vn -0.7436661720275879 -0.6636051535606384 -0.08117178827524185
vn -0.5094466209411621 -0.7181954383850098 -0.4739825427532196
vn -0.4449155032634735 -0.5948106050491333 0.6695151329040527
vn 0.1311250776052475 -0.59458327293396 0.7932698130607605
vn 0.3168647289276123 -0.8913997411727905 0.32404205203056335
vn -0.10538621246814728 -0.9161342978477478 -0.3867708444595337
vn -0.19767552614212036 -0.9678675532341003 -0.15542449057102203
vn -0.19767551124095917 -0.9678675532341003 -0.15542446076869965
vn -0.5799026489257812 -0.8143664002418518 0.022810958325862885
vn -0.5799025893211365 -0.8143664002418518 0.0228109173476696
vn -0.3902284502983093 -0.8143664002418518 0.4295685291290283
vn -0.39022842049598694 -0.8143664598464966 0.42956849932670593
vn -0.008001319132745266 -0.9678676128387451 0.2513330578804016
vn -0.008001350797712803 -0.9678675532341003 0.25133320689201355
vn 0.3099755346775055 0.9396926164627075 -0.14454400539398193
vn 0.2849099040031433 0.9559279680252075 -0.07090897858142853
vn 0.3805380165576935 0.9175240397453308 -0.1155010536313057
vn 0.23745597898960114 0.9559279680252075 -0.17267420887947083
vn 0.3330840468406677 0.9175240397453308 -0.21726630628108978
vn 0.5799025893211365 0.8143664002418518 -0.022810937836766243
vn 0.19767552614212036 0.9678675532341003 0.15542449057102203
vn 0.008001345209777355 0.9678675532341003 -0.25133317708969116
vn 0.39022842049598694 0.8143664598464966 -0.42956849932670593
vn 0.4112806022167206 0.10009638220071793 -0.9059961438179016
vt 1 0.39304935932159424
vt 1 0.10768473148345947
vt 0.8125305771827698 0.1027899980545044
vt 1 0.39304935932159424
vt 0.8076358437538147 0.39304935932159424
vt 0.8125305771827698 0.1027899980545044
vt 1 0.10768473148345947
vt 0.9872636198997498 0.9288088083267212
vt 0.7830088138580322 0.9948388934135437
vt 0.7074146866798401 0.9270674586296082
vt 0.6905273795127869 0.9948388934135437
vt 0.5046602487564087 0.9288088083267212
vt 0.8117959499359131 0.0013085603713989258
vt 0.9872636198997498 0.0004994869232177734
vt 0.5046602487564087 0.0004994869232177734
vt 0.6905273795127869 0.9948388934135437
vt 0.7074146866798401 0.9270674586296082
vt 0.5046602487564087 0.9288088083267212
vt 0.5046602487564087 0.0004994869232177734
vt 0.8117959499359131 0.0013085603713989258
vt 0.9872636198997498 0.9288088083267212
vt 0.7830088138580322 0.9948388934135437
vt 0.9872636198997498 0.0004994869232177734
vt 0.7074146866798401 0.9270674586296082
vt 0.7830088138580322 0.9948388934135437
vt 0.7830088138580322 0.9948388934135437
vt 0.7830088138580322 0.9948388934135437
vt 0.6905273795127869 0.9948388934135437
vt 0.6905273795127869 0.9948388934135437
vt 0.6905273795127869 0.9948388934135437
vt 0.7074146866798401 0.9270674586296082
vt 0.7830088138580322 0.9948388934135437
vt 0.7830088138580322 0.9948388934135437
vt 0.6905273795127869 0.9948388934135437
vt 0.6905273795127869 0.9948388934135437
vt 0.6905273795127869 0.9948388934135437
vt 0.7830088138580322 0.9948388934135437
vt 0.46841859817504883 0.4883134961128235
vt 0.2801896035671234 0.6951484084129333
vt 0.280192494392395 0.787773847579956
vt 0.4684187173843384 0.994605541229248
vt 0.19589930772781372 0.7877707481384277
vt 0.007670304272323847 0.9946056604385376
vt 0.19589641690254211 0.695145308971405
vt 0.0076701948419213295 0.48831361532211304
vt 0.23804444074630737 0.7414596080780029
vt 0.2801896035671234 0.6951484084129333
vt 0.280192494392395 0.787773847579956
vt 0.19589641690254211 0.695145308971405
vt 0.19589930772781372 0.7877707481384277
vt 0.4684187173843384 0.994605541229248
vt 0.46841859817504883 0.4883134961128235
vt 0.0076701948419213295 0.48831361532211304
vt 0.007670304272323847 0.9946056604385376
vt 0.8076358437538147 0.39304935932159424
g Geoset0
s 1
usemtl mat_grizzlyhills_blurpleflower
f 1/1/1 2/2/2 3/3/3
f 4/4/4 5/5/5 6/6/6
f 6/6/6 7/7/7 4/4/4
f 8/8/8 9/9/9 10/10/10
f 11/11/11 12/12/12 10/10/10
f 13/13/13 14/14/14 8/8/8
f 8/8/8 10/10/10 13/13/13
f 15/15/15 13/13/13 10/10/10
f 10/10/10 12/12/12 15/15/15
f 16/16/16 17/17/17 18/18/18
f 19/19/19 18/18/18 17/17/17
f 17/17/17 20/20/20 19/19/19
f 21/21/21 17/17/17 22/22/22
f 20/20/20 17/17/17 21/21/21
f 21/21/21 23/23/23 20/20/20
f 24/24/24 25/25/25 26/26/26
f 24/24/24 27/27/27 25/25/25
f 24/24/24 28/28/28 27/27/27
f 24/24/24 29/29/29 28/28/28
f 24/24/24 30/30/30 29/29/29
f 24/24/24 26/26/26 30/30/30
f 31/31/31 32/32/32 33/33/33
f 31/31/31 34/34/34 32/32/32
f 31/31/31 35/35/35 34/34/34
f 31/31/31 36/36/36 35/35/35
f 31/31/31 37/37/37 36/36/36
f 31/31/31 33/33/33 37/37/37
f 38/38/38 39/39/39 40/40/40
f 40/40/40 41/41/41 38/38/38
f 41/41/41 40/40/40 42/42/42
f 42/42/42 43/43/43 41/41/41
f 43/43/43 42/42/42 44/44/44
f 44/44/44 45/45/45 43/43/43
f 45/45/45 44/44/44 39/39/39
f 39/39/39 38/38/38 45/45/45
f 46/46/46 47/47/47 48/48/48
f 46/46/46 49/49/49 47/47/47
f 46/46/46 50/50/50 49/49/49
f 46/46/46 48/48/48 50/50/50
f 50/50/50 48/48/48 51/51/51
f 52/52/52 51/51/51 48/48/48
f 48/48/48 47/47/47 52/52/52
f 53/53/53 52/52/52 47/47/47
f 47/47/47 49/49/49 53/53/53
f 54/54/54 53/53/53 49/49/49
f 49/49/49 50/50/50 54/54/54
f 51/51/51 54/54/54 50/50/50
f 3/3/3 55/55/55 1/1/1
