# Exported using wow.export v0.1.64
o grizzlyhills_blurpleflower02
mtllib grizzlyhills_blurpleflower02.mtl
v -0.04211758077144623 0.10356654226779938 0.015688933432102203
v 0.012306277640163898 0.10356654226779938 -0.10102341324090958
v 0.025326332077383995 -0.048986081033945084 -0.023236257955431938
v 0.12197998911142349 0.05952192842960358 -0.0498817153275013
v 0.012306277640163898 0.10356654226779938 -0.10102341324090958
v -0.06330477446317673 0.3142670691013336 -0.4317782521247864
v 0.5025319457054138 0.0870288759469986 -0.16792425513267517
v -0.3440922796726227 0.3142670691013336 0.17037266492843628
v -0.04211758077144623 0.10356654226779938 0.015688933432102203
v 0.22174443304538727 0.0870288759469986 0.4342266023159027
v 0.06755613535642624 0.05952192842960358 0.06683062016963959
v 0.012306277640163898 0.10356654226779938 -0.10102341324090958
v -0.06330477446317673 0.3142670691013336 -0.4317782521247864
v -0.3440922796726227 0.3142670691013336 0.17037266492843628
v -0.04211758077144623 0.10356654226779938 0.015688933432102203
v 0.22174443304538727 0.0870288759469986 0.4342266023159027
v 0.06755613535642624 0.05952192842960358 0.06683062016963959
v 0.12197998911142349 0.05952192842960358 -0.0498817153275013
v 0.059890199452638626 0.14204999804496765 -0.007789359427988529
v 0.5025319457054138 0.0870288759469986 -0.16792425513267517
v 0.012306277640163898 0.10356654226779938 -0.10102341324090958
v 0.12197998911142349 0.05952192842960358 -0.0498817153275013
v 0.06755613535642624 0.05952192842960358 0.06683062016963959
v -0.04211758077144623 0.10356654226779938 0.015688933432102203
vn -0.6869637370109558 -0.7262210249900818 0.026150736957788467
vn -0.4210333228111267 -0.7269798517227173 -0.5424308776855469
vn -0.15848831832408905 -0.9848760962486267 -0.07000403851270676
vn 0.1881527453660965 -0.9284396171569824 -0.32030993700027466
vn -0.4210333228111267 -0.7269798517227173 -0.5424308776855469
vn -0.39022842049598694 -0.8143664598464966 -0.42956849932670593
vn -0.008001350797712803 -0.9678675532341003 -0.25133320689201355
vn -0.5799025893211365 -0.8143664002418518 -0.0228109173476696
vn -0.6869637370109558 -0.7262210249900818 0.026150736957788467
vn -0.19767551124095917 -0.9678675532341003 0.15542449057102203
vn -0.123322494328022 -0.9280593991279602 0.3514218032360077
vn 0.3330840468406677 0.9175240397453308 0.21726630628108978
vn 0.39022842049598694 0.8143664598464966 0.42956849932670593
vn 0.5799025893211365 0.8143664002418518 0.022810939699411392
vn 0.3805380165576935 0.9175240397453308 0.1155010536313057
vn 0.19767551124095917 0.9678675532341003 -0.15542449057102203
vn 0.2849099040031433 0.9559279680252075 0.07090897858142853
vn 0.23745597898960114 0.9559279680252075 0.17267420887947083
vn 0.3099755346775055 0.9396926164627075 0.14454400539398193
vn 0.008001345209777355 0.9678675532341003 0.25133317708969116
vn -0.4210333228111267 -0.7269798517227173 -0.5424308776855469
vn 0.1881527453660965 -0.9284396171569824 -0.32030993700027466
vn -0.123322494328022 -0.9280593991279602 0.3514218032360077
vn -0.6869637370109558 -0.7262210249900818 0.026150736957788467
vt 0.7746022939682007 0.9934094548225403
vt 0.6964321136474609 0.9949049353599548
vt 0.722072958946228 0.9453617930412292
vt 0.19589641690254211 0.695145308971405
vt 0.19589930772781372 0.7877707481384277
vt 0.007670304272323847 0.9946056604385376
vt 0.0076701948419213295 0.48831361532211304
vt 0.4684187173843384 0.994605541229248
vt 0.280192494392395 0.787773847579956
vt 0.46841859817504883 0.4883134961128235
vt 0.2801896035671234 0.6951484084129333
vt 0.19589930772781372 0.7877707481384277
vt 0.007670304272323847 0.9946056604385376
vt 0.4684187173843384 0.994605541229248
vt 0.280192494392395 0.787773847579956
vt 0.46841859817504883 0.4883134961128235
vt 0.2801896035671234 0.6951484084129333
vt 0.19589641690254211 0.695145308971405
vt 0.23804444074630737 0.7414596080780029
vt 0.0076701948419213295 0.48831361532211304
vt 0.7746022939682007 0.9934094548225403
vt 0.6964321136474609 0.9949049353599548
vt 0.7746022939682007 0.9934094548225403
vt 0.6964321136474609 0.9949049353599548
g Geoset0
s 1
usemtl mat_grizzlyhills_blurpleflower
f 1/1/1 2/2/2 3/3/3
f 4/4/4 5/5/5 6/6/6
f 6/6/6 7/7/7 4/4/4
f 8/8/8 6/6/6 5/5/5
f 5/5/5 9/9/9 8/8/8
f 10/10/10 8/8/8 9/9/9
f 9/9/9 11/11/11 10/10/10
f 7/7/7 10/10/10 11/11/11
f 11/11/11 4/4/4 7/7/7
f 12/12/12 13/13/13 14/14/14
f 14/14/14 15/15/15 12/12/12
f 15/15/15 14/14/14 16/16/16
f 17/17/17 18/18/18 19/19/19
f 20/20/20 18/18/18 17/17/17
f 17/17/17 16/16/16 20/20/20
f 18/18/18 20/20/20 13/13/13
f 13/13/13 12/12/12 18/18/18
f 18/18/18 12/12/12 19/19/19
f 12/12/12 15/15/15 19/19/19
f 15/15/15 17/17/17 19/19/19
f 16/16/16 17/17/17 15/15/15
f 21/21/21 22/22/22 3/3/3
f 22/22/22 23/23/23 3/3/3
f 23/23/23 24/24/24 3/3/3
