# Exported using wow.export v0.1.64
o grizzlyhills_mushroom01
mtllib grizzlyhills_mushroom01.mtl
v 0.0002801468363031745 1.2842626571655273 0.0001601208496140316
v 0.1353262960910797 1.2703901529312134 -1.1549000333843651e-7
v 0.09569016844034195 1.270390272140503 -0.09569019079208374
v 0.0002801468363031745 1.2842626571655273 0.0001601208496140316
v -0.13532622158527374 1.2703901529312134 -1.1549000333843651e-7
v -0.09569009393453598 1.2703901529312134 0.09568999707698822
v 0.0002801468363031745 1.2842626571655273 0.0001601208496140316
v 0.09569016844034195 1.270390272140503 -0.09569019079208374
v 3.097408196595097e-8 1.2703901529312134 -0.1353263258934021
v 0.0002801468363031745 1.2842626571655273 0.0001601208496140316
v 0.09569016098976135 1.2703901529312134 0.09568999707698822
v 0.1353262960910797 1.2703901529312134 -1.1549000333843651e-7
v -0.1066250205039978 -0.07317457348108292 0.10662497580051422
v -0.0000011843956144730328 -0.07317457348108292 0.15078994631767273
v 3.121249392279424e-8 0.6707525849342346 0.10340864956378937
v -0.07312090694904327 0.6707526445388794 0.07312091439962387
v 3.121249392279424e-8 0.6707526445388794 -0.10340869426727295
v -0.07312098145484924 0.6707525849342346 -0.07312098145484924
v -0.10036346316337585 0.8143320083618164 -0.10036347061395645
v -0.1419353485107422 0.8143320083618164 -2.0122586263937592e-8
v -0.10340860486030579 0.6707526445388794 -1.0491021384950727e-9
v -0.10036347061395645 0.8143320083618164 0.10036341100931168
v 3.097408196595097e-8 0.8143319487571716 0.1419353485107422
v 0.07312096655368805 0.6707527041435242 0.07312091439962387
v 0.10662263631820679 -0.07317457348108292 0.10662497580051422
v -0.1507899910211563 -0.07317457348108292 0.0000011624333637882955
v 0.15078765153884888 -0.07317457348108292 0.0000011624334774751333
v 0.10036353021860123 0.8143320083618164 0.10036341100931168
v 0.10340864956378937 0.6707526445388794 -1.0491021384950727e-9
v 0.10662257671356201 -0.07317457348108292 -0.10662252455949783
v 0.14193540811538696 0.8143320083618164 -2.0122586263937592e-8
v 0.07312104851007462 0.6707525849342346 -0.07312098145484924
v -0.0000011843956144730328 -0.07317457348108292 -0.1507875919342041
v -0.10662492364645004 -0.07317457348108292 -0.10662252455949783
v 0.10036351531744003 0.8143320083618164 -0.10036347061395645
v 3.097408196595097e-8 0.8143320083618164 -0.14193540811538696
v -0.35910549759864807 0.9547373652458191 -2.0122586263937592e-8
v -0.25392594933509827 0.9547373652458191 -0.25392594933509827
v -0.10036346316337585 0.8143320083618164 -0.10036347061395645
v 3.097408196595097e-8 0.9547373652458191 -0.35910549759864807
v 0.10036351531744003 0.8143320083618164 -0.10036347061395645
v 0.25392600893974304 0.9547373652458191 -0.25392594933509827
v 0.14193540811538696 0.8143320083618164 -2.0122586263937592e-8
v 0.3591056168079376 0.9547373652458191 -2.0122586263937592e-8
v 0.10036353021860123 0.8143320083618164 0.10036341100931168
v 0.25392594933509827 0.9547372460365295 0.25392594933509827
v -0.34352779388427734 1.1343176364898682 -0.3435279428958893
v 3.097408196595097e-8 1.1343176364898682 -0.4858217239379883
v 0.3435279130935669 1.1343176364898682 -0.3435279428958893
v 0.48582184314727783 1.1343176364898682 -9.641651388392347e-8
v 0.3435279428958893 1.1343176364898682 0.34352779388427734
v 3.097408196595097e-8 0.9547370076179504 0.35910549759864807
v -0.10036347061395645 0.8143320083618164 0.10036341100931168
v -0.3435278832912445 1.1343176364898682 0.34352779388427734
v 3.097408196595097e-8 1.1343176364898682 0.4858216643333435
v 3.097408196595097e-8 1.270390272140503 0.13532613217830658
v 0.09569016098976135 1.2703901529312134 0.09568999707698822
v -0.09569010883569717 1.270390272140503 -0.09569019079208374
v 0.0002801468363031745 1.2842626571655273 0.0001601208496140316
v -0.09569009393453598 1.2703901529312134 0.09568999707698822
v 3.097408196595097e-8 1.270390272140503 0.13532613217830658
v 0.0002801468363031745 1.2842626571655273 0.0001601208496140316
v 0.09569016098976135 1.2703901529312134 0.09568999707698822
v -0.2539258897304535 0.9547372460365295 0.25392594933509827
v -0.1419353485107422 0.8143320083618164 -2.0122586263937592e-8
v -0.4858216643333435 1.1343176364898682 -9.641651388392347e-8
v 3.097408196595097e-8 1.2703901529312134 -0.1353263258934021
v -0.13532622158527374 1.2703901529312134 -1.1549000333843651e-7
vn 0.00023345716181211174 0.9999999403953552 0.00013332183880265802
vn 0.265145480632782 0.9642084240913391 -0.0000077299409895204
vn 0.18743585050106049 0.964223325252533 -0.18745973706245422
vn 0.00023345716181211174 0.9999999403953552 0.00013332183880265802
vn -0.26499253511428833 0.9642504453659058 -0.00000817473937786417
vn -0.18742725253105164 0.9642360210418701 0.18740321695804596
vn 0.00023345716181211174 0.9999999403953552 0.00013332183880265802
vn 0.18743585050106049 0.964223325252533 -0.18745973706245422
vn -0.00001404741942678811 0.9642414450645447 -0.26502537727355957
vn 0.00023345716181211174 0.9999999403953552 0.00013332183880265802
vn 0.18748949468135834 0.9642060995101929 0.18749471008777618
vn 0.265145480632782 0.9642084240913391 -0.0000077299409895204
vn -0.7056770324707031 0.0635627806186676 0.705676794052124
vn -4.337146890520671e-7 0.0635620579123497 0.9979779124259949
vn 2.629249422625435e-7 -0.10324746370315552 0.9946557283401489
vn -0.7033278942108154 -0.10324744135141373 0.7033277153968811
vn 1.9613116819527932e-7 -0.10324922949075699 -0.9946554899215698
vn -0.7033277153968811 -0.10324832051992416 -0.7033277153968811
vn -0.5464712977409363 -0.6346166133880615 -0.5464712977409363
vn -0.7728269100189209 -0.6346168518066406 5.5989666236655466e-8
vn -0.9946556687355042 -0.1032477468252182 4.5307137952477206e-7
vn -0.5464712977409363 -0.6346170902252197 0.5464707612991333
vn -1.659648347640541e-7 -0.634617030620575 0.7728267908096313
vn 0.703328013420105 -0.10324861854314804 0.7033273577690125
vn 0.7056766152381897 0.06356052309274673 0.7056773900985718
vn -0.9979779124259949 0.0635620579123497 -5.751358500560855e-8
vn 0.9979780912399292 0.0635589063167572 -9.383187915545932e-8
vn 0.5464714169502258 -0.6346171498298645 0.5464705228805542
vn 0.9946554899215698 -0.1032494455575943 3.882450698711182e-7
vn 0.7056771516799927 0.06355810165405273 -0.7056770920753479
vn 0.7728270292282104 -0.6346167325973511 1.659881654347828e-8
vn 0.7033278942108154 -0.10324957221746445 -0.7033273577690125
vn -4.994738560526457e-7 0.06355872750282288 -0.9979780912399292
vn -0.7056774497032166 0.06356029957532883 -0.7056766152381897
vn 0.5464714765548706 -0.634616494178772 -0.5464712381362915
vn 5.174446471301053e-8 -0.6346166133880615 -0.7728270888328552
vn -0.7155157923698425 -0.6985965371131897 -1.1347430017849547e-7
vn -0.5059460401535034 -0.6985965371131897 -0.505946159362793
vn -0.5464712977409363 -0.6346166133880615 -0.5464712977409363
vn -2.168501822552571e-9 -0.6985965967178345 -0.7155157327651978
vn 0.5464714765548706 -0.634616494178772 -0.5464712381362915
vn 0.5059459805488586 -0.6985965967178345 -0.5059460997581482
vn 0.7728270292282104 -0.6346167325973511 1.659881654347828e-8
vn 0.7155157327651978 -0.6985965967178345 -1.3739503401666298e-7
vn 0.5464714169502258 -0.6346171498298645 0.5464705228805542
vn 0.5059460997581482 -0.6985966563224792 0.5059458613395691
vn -0.6852554678916931 0.24667741358280182 -0.6852555871009827
vn 7.20049513347476e-8 0.2466772347688675 -0.9690976738929749
vn 0.6852553486824036 0.2466774433851242 -0.6852557063102722
vn 0.9690976142883301 0.2466774880886078 -8.871515433384047e-8
vn 0.6852555871009827 0.24667766690254211 0.6852553486824036
vn -2.298182621984779e-8 -0.6985965967178345 0.7155157923698425
vn -0.5464712977409363 -0.6346170902252197 0.5464707612991333
vn -0.6852556467056274 0.24667750298976898 0.6852553486824036
vn 3.899472034163409e-8 0.2466777116060257 0.9690975546836853
vn -0.000014360925888468046 0.9642176032066345 0.2651119828224182
vn 0.18748949468135834 0.9642060995101929 0.18749471008777618
vn -0.18737457692623138 0.9642530679702759 -0.18736813962459564
vn 0.00023345716181211174 0.9999999403953552 0.00013332183880265802
vn -0.18742725253105164 0.9642360210418701 0.18740321695804596
vn -0.000014360925888468046 0.9642176032066345 0.2651119828224182
vn 0.00023345716181211174 0.9999999403953552 0.00013332183880265802
vn 0.18748949468135834 0.9642060995101929 0.18749471008777618
vn -0.5059460997581482 -0.6985966563224792 0.5059458613395691
vn -0.7728269100189209 -0.6346168518066406 5.5989666236655466e-8
vn -0.9690976738929749 0.24667738378047943 -2.079545282640538e-7
vn -0.00001404741942678811 0.9642414450645447 -0.26502537727355957
vn -0.26499253511428833 0.9642504453659058 -0.00000817473937786417
vt 0.7574337720870972 0.9975525140762329
vt 0.5263943672180176 0.9194874167442322
vt 0.7574337720870972 0.9062464833259583
vt 0.508134126663208 0.9975525736808777
vt 0.508134126663208 0.9062464833259583
vt 0.27704232931137085 0.9194495677947998
vt 0.9444085359573364 0.9975525140762329
vt 0.7740776538848877 0.9194632768630981
vt 0.999305009841919 0.9062464833259583
vt 0.4458092153072357 0.9975525140762329
vt 0.26799285411834717 0.9195031523704529
vt 0.508134126663208 0.9062464833259583
vt 0.25172170996665955 0.007662653923034668
vt 0.00027395502547733486 0.007662653923034668
vt 0.00027395502547733486 0.37617790699005127
vt 0.25172165036201477 0.37617790699005127
vt 0.999305009841919 0.37617790699005127
vt 0.7503209114074707 0.37617790699005127
vt 0.7503209114074707 0.45867782831192017
vt 0.5010213851928711 0.45867782831192017
vt 0.5010213851928711 0.37617790699005127
vt 0.25172165036201477 0.45867782831192017
vt 0.00027395502547733486 0.45867782831192017
vt 0.25172165036201477 0.37617790699005127
vt 0.25172170996665955 0.007662653923034668
vt 0.5010213851928711 0.007662653923034668
vt 0.5010213851928711 0.007662653923034668
vt 0.25172165036201477 0.45867782831192017
vt 0.5010213851928711 0.37617790699005127
vt 0.7503210306167603 0.007662653923034668
vt 0.5010213851928711 0.45867782831192017
vt 0.7503209114074707 0.37617790699005127
vt 0.999305009841919 0.007662653923034668
vt 0.7503210306167603 0.007662653923034668
vt 0.7503209114074707 0.45867782831192017
vt 0.999305009841919 0.45867782831192017
vt 0.49832403659820557 0.5339176654815674
vt 0.7476237416267395 0.5339176654815674
vt 0.7476237416267395 0.45934224128723145
vt 0.999305009841919 0.5339176654815674
vt 0.7476237416267395 0.45934224128723145
vt 0.7476237416267395 0.5339176654815674
vt 0.49832412600517273 0.45934224128723145
vt 0.49832403659820557 0.5339176654815674
vt 0.2490244358778 0.45934224128723145
vt 0.24909305572509766 0.5339176654815674
vt 0.7594002485275269 0.6110808253288269
vt 0.999305009841919 0.6191433668136597
vt 0.7594002485275269 0.6110808253288269
vt 0.5075588226318359 0.6074034571647644
vt 0.2575746178627014 0.6106985807418823
vt 0.00027395502547733486 0.5339176654815674
vt 0.2490244358778 0.45934224128723145
vt 0.2575746178627014 0.6106985807418823
vt 0.00027395502547733486 0.6185266971588135
vt 0.00027395502547733486 0.9048234820365906
vt 0.2576768696308136 0.9062464833259583
vt 0.7574337720870972 0.9062464833259583
vt 0.2576768398284912 0.9975525140762329
vt 0.2576768696308136 0.9062464833259583
vt 0.02020081877708435 0.9194711446762085
vt 0.00027395502547733486 0.9975525140762329
vt 0.23990724980831146 0.9209151268005371
vt 0.24909305572509766 0.5339176654815674
vt 0.49832412600517273 0.45934224128723145
vt 0.5075588226318359 0.6074034571647644
vt 0.9885518550872803 0.9194450378417969
vt 0.5262565612792969 0.9194416999816895
g Geoset0
s 1
usemtl mat_grizzlyhills_mushroom01
f 1/1/1 2/2/2 3/3/3
f 4/4/4 5/5/5 6/6/6
f 7/7/7 8/8/8 9/9/9
f 10/10/10 11/11/11 12/12/12
f 13/13/13 14/14/14 15/15/15
f 15/15/15 16/16/16 13/13/13
f 17/17/17 18/18/18 19/19/19
f 20/20/20 19/19/19 18/18/18
f 18/18/18 21/21/21 20/20/20
f 22/22/22 20/20/20 21/21/21
f 21/21/21 16/16/16 22/22/22
f 23/23/23 22/22/22 16/16/16
f 16/16/16 15/15/15 23/23/23
f 23/23/23 15/15/15 24/24/24
f 24/24/24 15/15/15 14/14/14
f 14/14/14 25/25/25 24/24/24
f 26/26/26 13/13/13 16/16/16
f 16/16/16 21/21/21 26/26/26
f 26/26/26 21/21/21 18/18/18
f 24/24/24 25/25/25 27/27/27
f 24/24/24 28/28/28 23/23/23
f 28/28/28 24/24/24 29/29/29
f 27/27/27 29/29/29 24/24/24
f 29/29/29 27/27/27 30/30/30
f 29/29/29 31/31/31 28/28/28
f 31/31/31 29/29/29 32/32/32
f 30/30/30 32/32/32 29/29/29
f 32/32/32 30/30/30 33/33/33
f 18/18/18 34/34/34 26/26/26
f 33/33/33 34/34/34 18/18/18
f 18/18/18 17/17/17 33/33/33
f 33/33/33 17/17/17 32/32/32
f 35/35/35 32/32/32 17/17/17
f 32/32/32 35/35/35 31/31/31
f 17/17/17 36/36/36 35/35/35
f 19/19/19 36/36/36 17/17/17
f 37/37/37 38/38/38 39/39/39
f 36/36/36 39/39/39 38/38/38
f 38/38/38 40/40/40 36/36/36
f 41/41/41 36/36/36 40/40/40
f 40/40/40 42/42/42 41/41/41
f 43/43/43 41/41/41 42/42/42
f 42/42/42 44/44/44 43/43/43
f 45/45/45 43/43/43 44/44/44
f 44/44/44 46/46/46 45/45/45
f 23/23/23 45/45/45 46/46/46
f 47/47/47 48/48/48 40/40/40
f 40/40/40 48/48/48 49/49/49
f 49/49/49 42/42/42 40/40/40
f 42/42/42 49/49/49 50/50/50
f 50/50/50 44/44/44 42/42/42
f 44/44/44 50/50/50 51/51/51
f 51/51/51 46/46/46 44/44/44
f 52/52/52 46/46/46 51/51/51
f 46/46/46 52/52/52 23/23/23
f 53/53/53 23/23/23 52/52/52
f 54/54/54 55/55/55 56/56/56
f 57/57/57 56/56/56 55/55/55
f 55/55/55 51/51/51 57/57/57
f 12/12/12 57/57/57 51/51/51
f 51/51/51 50/50/50 12/12/12
f 3/3/3 12/12/12 50/50/50
f 50/50/50 49/49/49 3/3/3
f 9/9/9 3/3/3 49/49/49
f 49/49/49 48/48/48 9/9/9
f 58/58/58 9/9/9 48/48/48
f 59/59/59 60/60/60 61/61/61
f 62/62/62 56/56/56 63/63/63
f 52/52/52 55/55/55 54/54/54
f 51/51/51 55/55/55 52/52/52
f 52/52/52 64/64/64 53/53/53
f 65/65/65 53/53/53 64/64/64
f 64/64/64 37/37/37 65/65/65
f 39/39/39 65/65/65 37/37/37
f 64/64/64 54/54/54 66/66/66
f 54/54/54 64/64/64 52/52/52
f 47/47/47 66/66/66 5/5/5
f 60/60/60 5/5/5 66/66/66
f 66/66/66 54/54/54 60/60/60
f 56/56/56 60/60/60 54/54/54
f 37/37/37 66/66/66 47/47/47
f 66/66/66 37/37/37 64/64/64
f 40/40/40 38/38/38 47/47/47
f 47/47/47 38/38/38 37/37/37
f 5/5/5 58/58/58 47/47/47
f 48/48/48 47/47/47 58/58/58
f 1/1/1 67/67/67 58/58/58
f 1/1/1 58/58/58 68/68/68
