# Exported using wow.export v0.1.64
o greatpearl_01
mtllib greatpearl_01.mtl
v 0.2592119574546814 0.5062382817268372 -0.22018833458423615
v 0.1475747972726822 0.1989275962114334 -0.5637720227241516
v 0.07857929170131683 0.5062382817268372 -0.3514255881309509
v -0.033057767897844315 -0.6056221127510071 -0.007841878570616245
v -0.3253275454044342 -0.4882398843765259 -0.2201882153749466
v -0.1446949541568756 -0.4882398843765259 -0.35142555832862854
v -0.21369053423404694 -0.18092922866344452 -0.5637720227241516
v 0.1475747972726822 -0.18092922866344452 -0.5637720227241516
v 0.43984460830688477 0.1989275962114334 -0.3514256477355957
v 0.32820752263069153 0.5062382817268372 -0.00784192606806755
v -0.033057767897844315 0.6236203908920288 -0.007841878570616245
v 0.25921204686164856 0.5062382817268372 0.20450450479984283
v 0.0785793736577034 0.5062382817268372 0.3357418179512024
v -0.2136903703212738 0.1989275962114334 0.5480883121490479
v -0.2136903703212738 -0.18092922866344452 0.5480883121490479
v 0.14757494628429413 -0.18092922866344452 0.5480881929397583
v -0.50596022605896 0.1989275962114334 0.33574187755584717
v -0.50596022605896 -0.18092922866344452 0.33574187755584717
v -0.6175973415374756 0.1989275962114334 -0.007841852493584156
v -0.6175973415374756 -0.18092922866344452 -0.007841852493584156
v -0.5059602856636047 0.1989275962114334 -0.35142549872398376
v -0.5059602856636047 -0.18092922866344452 -0.35142549872398376
v -0.21369053423404694 0.1989275962114334 -0.5637720227241516
v 0.0785793736577034 -0.4882398843765259 0.33574178814888
v 0.2592119872570038 -0.4882398843765259 0.20450447499752045
v -0.14469484984874725 -0.4882398843765259 0.3357418179512024
v -0.3253275454044342 -0.4882398843765259 0.20450453460216522
v -0.39432305097579956 -0.4882398843765259 -0.007841862738132477
v 0.32820749282836914 -0.4882398843765259 -0.00784192606806755
v 0.07857928425073624 -0.4882398843765259 -0.35142555832862854
v 0.259211927652359 -0.4882398843765259 -0.22018831968307495
v 0.43984460830688477 -0.18092922866344452 -0.3514256477355957
v 0.5514818429946899 -0.18092922866344452 -0.007841955870389938
v 0.4398447275161743 -0.18092922866344452 0.33574178814888
v 0.5514818429946899 0.1989275962114334 -0.007841955870389938
v 0.4398447275161743 0.1989275962114334 0.33574178814888
v 0.14757494628429413 0.1989275962114334 0.5480881929397583
v -0.14469486474990845 0.5062382817268372 0.33574187755584717
v -0.3253275454044342 0.5062382817268372 0.20450454950332642
v -0.1446949541568756 0.5062382817268372 -0.35142555832862854
v -0.39432305097579956 0.5062382817268372 -0.007841862738132477
v -0.3253275752067566 0.5062382817268372 -0.2201882302761078
vn 0.5058181881904602 0.7804439663887024 -0.36749857664108276
vn 0.2955039143562317 0.29248112440109253 -0.9094681143760681
vn 0.19320526719093323 0.7804439663887024 -0.5946250557899475
vn -2.302601220804945e-9 -1 5.390360602319788e-9
vn -0.505818247795105 -0.7804440259933472 -0.36749836802482605
vn -0.19320547580718994 -0.7804440259933472 -0.594624936580658
vn -0.29550421237945557 -0.2924811542034149 -0.9094679951667786
vn 0.2955039441585541 -0.2924811542034149 -0.9094680547714233
vn 0.7736396193504333 0.2924811542034149 -0.5620822906494141
vn 0.6252257227897644 0.7804439663887024 -9.69113358451068e-8
vn -9.487396424034955e-10 1 -9.923901700403803e-9
vn 0.5058183073997498 0.7804439663887024 0.36749839782714844
vn 0.19320540130138397 0.7804439663887024 0.5946249961853027
vn -0.2955039441585541 0.29248112440109253 0.9094681143760681
vn -0.29550397396087646 -0.2924811840057373 0.9094680547714233
vn 0.2955041825771332 -0.2924811840057373 0.9094679951667786
vn -0.7736396789550781 0.2924811840057373 0.5620822310447693
vn -0.7736396789550781 -0.2924811840057373 0.5620822310447693
vn -0.9562712907791138 0.2924811542034149 4.869411185381978e-8
vn -0.9562712907791138 -0.2924811840057373 2.801136922414571e-8
vn -0.7736397981643677 0.2924811542034149 -0.562082052230835
vn -0.7736397981643677 -0.2924811542034149 -0.562082052230835
vn -0.29550427198410034 0.2924811542034149 -0.9094679951667786
vn 0.19320544600486755 -0.7804440259933472 0.594624936580658
vn 0.5058181881904602 -0.7804440259933472 0.36749836802482605
vn -0.19320529699325562 -0.7804440259933472 0.5946249961853027
vn -0.5058181881904602 -0.7804440259933472 0.3674984574317932
vn -0.6252256631851196 -0.7804440259933472 3.15493124958266e-8
vn 0.6252256631851196 -0.7804440259933472 -8.986067712157819e-8
vn 0.19320528209209442 -0.7804440259933472 -0.5946249961853027
vn 0.5058181285858154 -0.7804440259933472 -0.367498517036438
vn 0.7736396193504333 -0.2924811840057373 -0.5620822906494141
vn 0.9562712907791138 -0.2924812138080597 -1.4246248269955686e-7
vn 0.7736397385597229 -0.2924811840057373 0.5620821118354797
vn 0.9562712907791138 0.2924811542034149 -1.548360160086304e-7
vn 0.7736397385597229 0.2924811840057373 0.5620821118354797
vn 0.2955041527748108 0.29248112440109253 0.9094679951667786
vn -0.1932053565979004 0.7804439663887024 0.5946249961853027
vn -0.5058181881904602 0.7804439663887024 0.367498517036438
vn -0.19320546090602875 0.7804439663887024 -0.5946249961853027
vn -0.6252257227897644 0.7804439663887024 8.500779813402914e-8
vn -0.5058183073997498 0.7804439663887024 -0.36749833822250366
vt 0.7262157797813416 0.8848612904548645
vt 0.6398090124130249 0.6470039486885071
vt 0.5864067673683167 0.8848612904548645
vt 0.4999999701976776 0.02428525686264038
vt 0.2737841308116913 0.11513864994049072
vt 0.4135931730270386 0.11513864994049072
vt 0.36019083857536316 0.3529961109161377
vt 0.6398089528083801 0.3529960513114929
vt 0.8660248517990112 0.6470038890838623
vt 0.7796181440353394 0.8848612904548645
vt 0.5000000596046448 0.9757148027420044
vt 0.7262158393859863 0.8848612904548645
vt 0.5864068269729614 0.8848612904548645
vt 0.3601910173892975 0.6470038890838623
vt 0.3601909875869751 0.3529960513114929
vt 0.6398091316223145 0.35299599170684814
vt 0.13397514820098877 0.6470039486885071
vt 0.13397514820098877 0.3529961109161377
vt 0.047568388283252716 0.6470040082931519
vt 0.04756835848093033 0.3529961109161377
vt 0.133975088596344 0.6470040082931519
vt 0.133975088596344 0.3529961109161377
vt 0.36019086837768555 0.6470039486885071
vt 0.5864067673683167 0.11513864994049072
vt 0.7262157201766968 0.11513859033584595
vt 0.41359323263168335 0.11513864994049072
vt 0.27378419041633606 0.11513864994049072
vt 0.22038187086582184 0.11513864994049072
vt 0.7796180248260498 0.11513859033584595
vt 0.5864066481590271 0.11513864994049072
vt 0.7262157201766968 0.11513864994049072
vt 0.8660247921943665 0.35299599170684814
vt 0.9524316191673279 0.35299599170684814
vt 0.866024911403656 0.35299599170684814
vt 0.9524316191673279 0.6470038890838623
vt 0.866024911403656 0.6470038890838623
vt 0.6398091316223145 0.6470038890838623
vt 0.4135932922363281 0.8848612904548645
vt 0.27378425002098083 0.8848612904548645
vt 0.41359323263168335 0.8848613500595093
vt 0.2203819304704666 0.8848613500595093
vt 0.27378419041633606 0.8848613500595093
g Geoset0
s 1
usemtl mat_spideregg
f 1/1/1 2/2/2 3/3/3
f 4/4/4 5/5/5 6/6/6
f 7/7/7 6/6/6 5/5/5
f 8/8/8 6/6/6 7/7/7
f 2/2/2 8/8/8 7/7/7
f 9/9/9 8/8/8 2/2/2
f 1/1/1 9/9/9 2/2/2
f 10/10/10 9/9/9 1/1/1
f 11/11/11 10/10/10 1/1/1
f 11/11/11 12/12/12 10/10/10
f 11/11/11 13/13/13 12/12/12
f 14/14/14 15/15/15 16/16/16
f 17/17/17 15/15/15 14/14/14
f 17/17/17 18/18/18 15/15/15
f 19/19/19 18/18/18 17/17/17
f 19/19/19 20/20/20 18/18/18
f 21/21/21 20/20/20 19/19/19
f 21/21/21 22/22/22 20/20/20
f 23/23/23 22/22/22 21/21/21
f 23/23/23 7/7/7 22/22/22
f 2/2/2 7/7/7 23/23/23
f 16/16/16 24/24/24 25/25/25
f 15/15/15 24/24/24 16/16/16
f 15/15/15 26/26/26 24/24/24
f 18/18/18 26/26/26 15/15/15
f 18/18/18 27/27/27 26/26/26
f 20/20/20 27/27/27 18/18/18
f 20/20/20 28/28/28 27/27/27
f 22/22/22 28/28/28 20/20/20
f 22/22/22 5/5/5 28/28/28
f 7/7/7 5/5/5 22/22/22
f 4/4/4 27/27/27 28/28/28
f 4/4/4 28/28/28 5/5/5
f 4/4/4 26/26/26 27/27/27
f 4/4/4 24/24/24 26/26/26
f 4/4/4 25/25/25 24/24/24
f 4/4/4 29/29/29 25/25/25
f 4/4/4 6/6/6 30/30/30
f 4/4/4 30/30/30 31/31/31
f 4/4/4 31/31/31 29/29/29
f 8/8/8 30/30/30 6/6/6
f 32/32/32 30/30/30 8/8/8
f 32/32/32 31/31/31 30/30/30
f 33/33/33 31/31/31 32/32/32
f 33/33/33 29/29/29 31/31/31
f 34/34/34 29/29/29 33/33/33
f 34/34/34 25/25/25 29/29/29
f 16/16/16 25/25/25 34/34/34
f 9/9/9 32/32/32 8/8/8
f 35/35/35 32/32/32 9/9/9
f 35/35/35 33/33/33 32/32/32
f 36/36/36 33/33/33 35/35/35
f 36/36/36 34/34/34 33/33/33
f 37/37/37 34/34/34 36/36/36
f 37/37/37 16/16/16 34/34/34
f 14/14/14 16/16/16 37/37/37
f 10/10/10 35/35/35 9/9/9
f 12/12/12 35/35/35 10/10/10
f 12/12/12 36/36/36 35/35/35
f 13/13/13 36/36/36 12/12/12
f 13/13/13 37/37/37 36/36/36
f 38/38/38 37/37/37 13/13/13
f 38/38/38 14/14/14 37/37/37
f 39/39/39 14/14/14 38/38/38
f 11/11/11 39/39/39 38/38/38
f 11/11/11 38/38/38 13/13/13
f 11/11/11 3/3/3 40/40/40
f 11/11/11 1/1/1 3/3/3
f 11/11/11 41/41/41 39/39/39
f 11/11/11 42/42/42 41/41/41
f 11/11/11 40/40/40 42/42/42
f 39/39/39 17/17/17 14/14/14
f 41/41/41 17/17/17 39/39/39
f 41/41/41 19/19/19 17/17/17
f 42/42/42 19/19/19 41/41/41
f 42/42/42 21/21/21 19/19/19
f 40/40/40 21/21/21 42/42/42
f 40/40/40 23/23/23 21/21/21
f 3/3/3 23/23/23 40/40/40
f 3/3/3 2/2/2 23/23/23
