# Exported using wow.export v0.1.64
o be_rug_largeruined02
mtllib be_rug_largeruined02.mtl
v 6.346296310424805 0 -0.6300175786018372
v 6.346297740936279 0 -7.446986675262451
v 0.016625134274363518 0 -7.446987628936768
v 0.01662384159862995 0 -0.6300184726715088
v -6.313047409057617 0 -7.446988582611084
v -6.313048839569092 0 -0.6300193667411804
v 0.01662360318005085 0 6.186952590942383
v -6.313048839569092 0 6.186952590942383
v 6.346296310424805 0 6.186952590942383
vn 0 1 0
vn 0 1 0
vn 0 1 0
vn 0 1 0
vn 0 1 0
vn 0 1 0
vn 0 1 0
vn 0 1 0
vn 0 1 0
vt 0.4999999701976776 0.5025668144226074
vt 0.9999998807907104 0.5025668740272522
vt 0.9999999403953552 0.9626548290252686
vt 0.5000000596046448 0.9626549482345581
vt 1 0.5037354230880737
vt 0.5000001192092896 0.5037354230880737
vt 0 0.9626549482345581
vt 0 0.5037354230880737
vt 0 0.5025668144226074
g Geoset0
s 1
usemtl mat_be_rugs04
f 1/1/1 2/2/2 3/3/3
f 4/4/4 3/3/3 5/5/5
f 5/5/5 6/6/6 4/4/4
f 7/7/7 4/4/4 6/6/6
f 6/6/6 8/8/8 7/7/7
f 4/4/4 7/7/7 9/9/9
f 9/9/9 1/1/1 4/4/4
f 3/3/3 4/4/4 1/1/1
