# Exported using wow.export v0.1.64
o replacecrate03
mtllib replacecrate03.mtl
v 0.3934648931026459 0.621661365032196 0.5948511958122253
v 0.3934648931026459 0.621661365032196 -0.5889506936073303
v -0.3935318887233734 0.621661365032196 -0.5889506936073303
v -0.3935319185256958 0.621661365032196 0.5948511958122253
v -0.3935318887233734 0.621661365032196 -0.5889506936073303
v -0.3935318887233734 0 -0.5889506936073303
v -0.3935319185256958 0 0.5948511958122253
v 0.3934648931026459 0.621661365032196 -0.5889506936073303
v 0.3934648931026459 0.621661365032196 0.5948511958122253
v 0.3934648931026459 0 0.5948511958122253
v 0.3934648931026459 0 -0.5889506936073303
v -0.3935318887233734 0 -0.5889506936073303
v 0.3934648931026459 0 -0.5889506936073303
v 0.3934648931026459 0 0.5948511958122253
v -0.3935319185256958 0 0.5948511958122253
v -0.3935319185256958 0 0.5948511958122253
v 0.3934648931026459 0.621661365032196 0.5948511958122253
v -0.3935319185256958 0.621661365032196 0.5948511958122253
v 0.3934648931026459 0.621661365032196 -0.5889506936073303
v -0.3935318887233734 0 -0.5889506936073303
vn 0.5773502588272095 0.5773502588272095 0.5773502588272095
vn 0.5773502588272095 0.5773502588272095 -0.5773502588272095
vn -0.5773502588272095 0.5773502588272095 -0.5773502588272095
vn -0.5773502588272095 0.5773502588272095 0.5773502588272095
vn -0.5773502588272095 0.5773502588272095 -0.5773502588272095
vn -0.5773502588272095 -0.5773502588272095 -0.5773502588272095
vn -0.5773502588272095 -0.5773502588272095 0.5773502588272095
vn 0.5773502588272095 0.5773502588272095 -0.5773502588272095
vn 0.5773502588272095 0.5773502588272095 0.5773502588272095
vn 0.5773502588272095 -0.5773502588272095 0.5773502588272095
vn 0.5773502588272095 -0.5773502588272095 -0.5773502588272095
vn -0.5773502588272095 -0.5773502588272095 -0.5773502588272095
vn 0.5773502588272095 -0.5773502588272095 -0.5773502588272095
vn 0.5773502588272095 -0.5773502588272095 0.5773502588272095
vn -0.5773502588272095 -0.5773502588272095 0.5773502588272095
vn -0.5773502588272095 -0.5773502588272095 0.5773502588272095
vn 0.5773502588272095 0.5773502588272095 0.5773502588272095
vn -0.5773502588272095 0.5773502588272095 0.5773502588272095
vn 0.5773502588272095 0.5773502588272095 -0.5773502588272095
vn -0.5773502588272095 -0.5773502588272095 -0.5773502588272095
vt 0.0004995167255401611 0.0004998445510864258
vt 0.9995002746582031 0.0004994869232177734
vt 0.9995001554489136 0.9995004534721375
vt 0.9995002746582031 0.9995004534721375
vt 0.0004995167255401611 0.9995004534721375
vt 0.0004995167255401611 0.0004995465278625488
vt 0.9995002746582031 0.0004995465278625488
vt 0.9995002746582031 0.9995004534721375
vt 0.0004995167255401611 0.9995004534721375
vt 0.0004995167255401611 0.0004995465278625488
vt 0.9995002746582031 0.0004995465278625488
vt 0.0004995167255401611 0.9995001554489136
vt 0.0004995167255401611 0.0004995465278625488
vt 0.9995001554489136 0.0004995465278625488
vt 0.9995002746582031 0.9995005130767822
vt 0.0004995167255401611 0.0004995465278625488
vt 0.9995001554489136 0.9995004534721375
vt 0.0004995167255401611 0.9995004534721375
vt 0.0004995167255401611 0.9995004534721375
vt 0.9995001554489136 0.0004995465278625488
g Geoset0
s 1
usemtl mat_stormwindcrate01
f 1/1/1 2/2/2 3/3/3
f 4/4/4 5/5/5 6/6/6
f 6/6/6 7/7/7 4/4/4
f 8/8/8 9/9/9 10/10/10
f 10/10/10 11/11/11 8/8/8
f 12/12/12 13/13/13 14/14/14
f 14/14/14 15/15/15 12/12/12
f 16/16/16 14/14/14 17/17/17
f 17/17/17 18/18/18 16/16/16
f 3/3/3 19/19/19 13/13/13
f 13/13/13 20/20/20 3/3/3
f 3/3/3 18/18/18 1/1/1
