# Exported using wow.export v0.1.64
o bush_mountainsilversage
mtllib bush_mountainsilversage.mtl
v -0.13962067663669586 0.2991246283054352 -0.18078050017356873
v 0.06300781667232513 0.7832501530647278 0.2934422194957733
v 0.1671278178691864 0.30104634165763855 0.4323092997074127
v -0.6674731373786926 -0.017969604581594467 0.8235839009284973
v -0.34261831641197205 0.15374088287353516 0.8231154084205627
v -0.7401142716407776 0.1185842901468277 0.50309157371521
v -0.3884030878543854 0.23941008746623993 0.47485533356666565
v -0.7673723101615906 0.16915075480937958 0.13567586243152618
v -0.38533374667167664 0.10578245669603348 0.11228859424591064
v 0.009092962369322777 0.2745666801929474 0.7948790788650513
v 0.0002315582532901317 0.10578244179487228 0.4484339952468872
v -0.037380415946245193 -0.20688709616661072 0.09891537576913834
v 0.08037713170051575 0.2538386583328247 -0.14590580761432648
v 0.20812344551086426 0.4806102216243744 -0.5318016409873962
v -0.2521679103374481 0.4748580753803253 -0.253054141998291
v -0.1407349407672882 0.46922165155410767 -0.6897554993629456
v -0.5906324982643127 0.4110085964202881 -0.39824363589286804
v -0.46413272619247437 0.3293253183364868 -0.8164418339729309
v -0.7020654082298279 0.41664502024650574 0.03845769166946411
v -0.3796987235546112 0.16054995357990265 0.11040302366018295
v 0.8188238739967346 -0.01796971634030342 0.3210996687412262
v 0.6888588070869446 0.1537408083677292 0.02337503433227539
v 0.553878903388977 0.11858420819044113 0.5155120491981506
v 0.3877401053905487 0.23941005766391754 0.20423085987567902
v 0.5227200388908386 0.274566650390625 -0.28790605068206787
v 0.2085425704717636 0.10578242689371109 -0.141635000705719
v 0.05402081087231636 0.10578244924545288 0.34598925709724426
v 0.22780568897724152 0.169150710105896 0.6870158910751343
v 0.48150429129600525 0.6050487160682678 0.3024524748325348
v 0.26168909668922424 0.17337718605995178 -0.1717701107263565
v -0.015507441945374012 0.3047563433647156 0.4413195848464966
v -0.4876779615879059 0.6452248096466064 0.2129632532596588
v -0.05228200927376747 0.21240739524364471 0.5004444122314453
v -0.22618797421455383 0.26014670729637146 -0.16095925867557526
v 0.13386142253875732 0.19301922619342804 -0.7835925817489624
v -0.28453439474105835 0.07970715314149857 -0.29406484961509705
v 0.37074774503707886 0.1612965613603592 -0.2596415579319
vn 0.8943092226982117 -0.0011652405373752117 -0.4474479556083679
vn 0.8923917412757874 0.06404947489500046 -0.4466930031776428
vn 0.8943092226982117 -0.0011652405373752117 -0.4474479556083679
vn -0.4203721582889557 0.7964774370193481 0.4346388280391693
vn -0.33854424953460693 0.8836184740066528 0.32342883944511414
vn -0.34516435861587524 0.8936601281166077 0.2867632210254669
vn -0.03835694119334221 0.9963711500167847 -0.07598201185464859
vn -0.09370453655719757 0.9905163049697876 -0.10048341006040573
vn 0.32448363304138184 0.8388099670410156 -0.4371592104434967
vn -0.014772572554647923 0.9957377314567566 -0.09103929251432419
vn 0.36696574091911316 0.8074508309364319 -0.46190834045410156
vn 0.32779741287231445 0.9285086393356323 -0.17441494762897491
vn 0.3316297233104706 0.6166924238204956 0.7139413356781006
vn 0.16261796653270721 0.9437212944030762 0.2880025804042816
vn 0.10653279721736908 0.9374395608901978 0.3314480185508728
vn -0.1616899073123932 0.9801035523414612 -0.11512354016304016
vn -0.20737145841121674 0.9700717329978943 -0.12632456421852112
vn -0.2922714352607727 0.9180940389633179 -0.26773250102996826
vn 0.11111631244421005 0.9275795221328735 0.35672035813331604
vn 0.3386400640010834 0.5695433020591736 0.7489614486694336
vn 0.5662131905555725 0.7964772582054138 0.21219463646411896
vn 0.4315982460975647 0.8836182951927185 0.1814984381198883
vn 0.4006132483482361 0.8936600685119629 0.20218980312347412
vn -0.05438511073589325 0.9963711500167847 0.06547324359416962
vn -0.0775977373123169 0.9957377314567566 0.049849092960357666
vn -0.6126419901847839 0.7728819847106934 -0.16529735922813416
vn -0.5744712948799133 0.8071179986000061 -0.13617371022701263
vn -0.054784659296274185 0.9905163049697876 0.12600024044513702
vn -0.5530233979225159 0.7275771498680115 -0.40595149993896484
vn -0.7124152183532715 0.547196626663208 -0.43936359882354736
vn -0.7124152183532715 0.547196626663208 -0.43936359882354736
vn 0.7448595762252808 0.6503934264183044 -0.14890483021736145
vn 0.8646648526191711 0.46341878175735474 -0.19390138983726501
vn 0.8646648526191711 0.46341878175735474 -0.19390138983726501
vn -0.12878906726837158 0.9846453666687012 0.11784282326698303
vn -0.13391682505607605 0.9098509550094604 0.39273080229759216
vn -0.13391682505607605 0.9098509550094604 0.39273080229759216
vt 0 1
vt 1 1
vt 1 0
vt 0.9995005130767822 0.9995002746582031
vt 0.5000001192092896 0.9995003938674927
vt 0.9995003938674927 0.49999988079071045
vt 0.5 0.5
vt 0.9995002746582031 0.0004994869232177734
vt 0.49999988079071045 0.0004996061325073242
vt 0.000499725341796875 0.9995005130767822
vt 0.0004996061325073242 0.5000001192092896
vt 0 0
vt 0.49999988079071045 0.0004996061325073242
vt 0.9995002746582031 0.0004994869232177734
vt 0.5 0.5
vt 0.9995003938674927 0.49999988079071045
vt 0.5000001192092896 0.9995003938674927
vt 0.9995005130767822 0.9995002746582031
vt 0.000499725341796875 0.9995005130767822
vt 0.0004996061325073242 0.5000001192092896
vt 0.9995005130767822 0.9995002746582031
vt 0.5000001192092896 0.9995003938674927
vt 0.9995003938674927 0.49999988079071045
vt 0.5 0.5
vt 0.000499725341796875 0.9995005130767822
vt 0.0004996061325073242 0.5000001192092896
vt 0.49999988079071045 0.0004996061325073242
vt 0.9995002746582031 0.0004994869232177734
vt 1 1
vt 0 1
vt 1 0
vt 1 1
vt 0 1
vt 1 0
vt 1 1
vt 0 1
vt 1 0
g Geoset0
s 1
usemtl mat_silversage
f 1/1/1 2/2/2 3/3/3
f 4/4/4 5/5/5 6/6/6
f 7/7/7 6/6/6 5/5/5
f 6/6/6 7/7/7 8/8/8
f 9/9/9 8/8/8 7/7/7
f 5/5/5 10/10/10 7/7/7
f 11/11/11 7/7/7 10/10/10
f 7/7/7 11/11/11 9/9/9
f 12/12/12 9/9/9 11/11/11
f 13/13/13 14/14/14 15/15/15
f 16/16/16 15/15/15 14/14/14
f 15/15/15 16/16/16 17/17/17
f 18/18/18 17/17/17 16/16/16
f 17/17/17 19/19/19 15/15/15
f 20/20/20 15/15/15 19/19/19
f 15/15/15 20/20/20 13/13/13
f 12/12/12 13/13/13 20/20/20
f 21/21/21 22/22/22 23/23/23
f 24/24/24 23/23/23 22/22/22
f 22/22/22 25/25/25 24/24/24
f 26/26/26 24/24/24 25/25/25
f 12/12/12 27/27/27 26/26/26
f 24/24/24 26/26/26 27/27/27
f 27/27/27 28/28/28 24/24/24
f 23/23/23 24/24/24 28/28/28
f 29/29/29 30/30/30 31/31/31
f 12/12/12 31/31/31 30/30/30
f 32/32/32 33/33/33 34/34/34
f 12/12/12 34/34/34 33/33/33
f 35/35/35 36/36/36 37/37/37
f 12/12/12 37/37/37 36/36/36
f 3/3/3 12/12/12 1/1/1
