# Exported using wow.export v0.1.64
o gnomegauge01
mtllib gnomegauge01.mtl
v 0.12038160860538483 0.43337562680244446 0.15762211382389069
v 0.11179472506046295 0.3352271616458893 0.10864895582199097
v 0.1284298449754715 0.5253673195838928 0.10678502917289734
v -0.015138436108827591 0.5372536182403564 0.10789386183023453
v -0.021935297176241875 0.3477320075035095 0.10789386183023453
v -0.018407970666885376 0.4460870921611786 0.15742050111293793
v -0.013288774527609348 0.5888316035270691 0.00022716406965628266
v -0.02364734373986721 0.2999937832355499 0.00022715775412507355
v -0.015138412825763226 0.5372536778450012 -0.10743949562311172
v -0.021935278549790382 0.34773197770118713 -0.1074395477771759
v -0.018407007679343224 0.4461127817630768 -0.1569661945104599
v 0.04290948063135147 0.28331393003463745 -0.03888405114412308
v -0.008502562530338764 0.014532470144331455 -0.04351155832409859
v -0.04747730493545532 0.017942318692803383 -0.004387995228171349
v 0.0818842425942421 0.27990415692329407 0.00023958785459399223
v 0.03047219291329384 0.011122620664536953 -0.004387944936752319
v 0.04290948435664177 0.28331393003463745 0.039363179355859756
v -0.008502555079758167 0.014532470144331455 0.03473564237356186
v 0.0039347331039607525 0.2867238223552704 0.00023953882919158787
v -0.015138412825763226 0.5372536778450012 -0.10743949562311172
v 0.1285531371831894 0.5267768502235413 -0.10698840767145157
v -0.018407007679343224 0.4461127817630768 -0.1569661945104599
v -0.013288774527609348 0.5888316035270691 0.00022716406965628266
v 0.1329117715358734 0.5765961408615112 0.000227188560529612
v 0.1284298449754715 0.5253673195838928 0.10678502917289734
v -0.015138436108827591 0.5372536182403564 0.10789386183023453
v -0.018407970666885376 0.4460870921611786 0.15742050111293793
v 0.12038160860538483 0.43337562680244446 0.15762211382389069
v 0.11179472506046295 0.3352271616458893 0.10864895582199097
v -0.021935297176241875 0.3477320075035095 0.10789386183023453
v 0.04290948435664177 0.28331393003463745 0.039363179355859756
v 0.0039347331039607525 0.2867238223552704 0.00023953882919158787
v -0.02364734373986721 0.2999937832355499 0.00022715775412507355
v -0.021935278549790382 0.34773197770118713 -0.1074395477771759
v 0.0818842425942421 0.27990415692329407 0.00023958785459399223
v 0.10765891522169113 0.2879545986652374 0.0002271631092298776
v 0.1118500754237175 0.33585983514785767 -0.10804633051156998
v 0.04290948063135147 0.28331393003463745 -0.03888405114412308
v 0.1204744204878807 0.43443623185157776 -0.15624269843101501
v 0.1285531371831894 0.5267768502235413 -0.10698840767145157
v 0.1118500754237175 0.33585983514785767 -0.10804633051156998
v 0.1204744204878807 0.43443623185157776 -0.15624269843101501
v 0.10765891522169113 0.2879545986652374 0.0002271631092298776
v 0.1329117715358734 0.5765961408615112 0.000227188560529612
vn 0.49032527208328247 -0.02455398440361023 0.8711935877799988
vn 0.4472995400428772 -0.6700049638748169 0.5924664735794067
vn 0.666261613368988 0.5136864185333252 0.5405753254890442
vn -0.6928455829620361 0.5343211889266968 0.48421671986579895
vn -0.7418057322502136 -0.5173810720443726 0.42666274309158325
vn -0.271367609500885 0.027354994788765907 0.9620869755744934
vn -0.5892216563224792 0.8079674243927002 0.002556577557697892
vn -0.9249480962753296 -0.380093514919281 -0.000011552726391528267
vn -0.8254067301750183 0.4230189621448517 -0.3738430440425873
vn -0.6332179307937622 -0.5998312830924988 -0.48911914229393005
vn -0.26924610137939453 0.0255757924169302 -0.9627317786216736
vn -0.210517019033432 -0.536273717880249 -0.8173696398735046
vn 0.3142211139202118 -0.04377640783786774 -0.9483399987220764
vn -0.931525707244873 0.18358547985553741 -0.313936710357666
vn 0.63033527135849 -0.7637006044387817 -0.1394231617450714
vn 0.9315257668495178 -0.183585524559021 0.3139365017414093
vn 0.10777560621500015 -0.5990132093429565 0.7934529185295105
vn -0.3142210841178894 0.04377634823322296 0.9483399987220764
vn -0.7806707620620728 -0.6075038909912109 0.14660218358039856
vn -0.8254067301750183 0.4230189621448517 -0.3738430440425873
vn 0.6649870276451111 0.5142590999603271 -0.5415993332862854
vn -0.26924610137939453 0.0255757924169302 -0.9627317786216736
vn -0.5892216563224792 0.8079674243927002 0.002556577557697892
vn 0.7965970635414124 0.6044944524765015 0.004428484942764044
vn 0.666261613368988 0.5136864185333252 0.5405753254890442
vn -0.6928455829620361 0.5343211889266968 0.48421671986579895
vn -0.271367609500885 0.027354994788765907 0.9620869755744934
vn 0.49032527208328247 -0.02455398440361023 0.8711935877799988
vn 0.4472995400428772 -0.6700049638748169 0.5924664735794067
vn -0.7418057322502136 -0.5173810720443726 0.42666274309158325
vn 0.10777560621500015 -0.5990132093429565 0.7934529185295105
vn -0.7806707620620728 -0.6075038909912109 0.14660218358039856
vn -0.9249480962753296 -0.380093514919281 -0.000011552726391528267
vn -0.6332179307937622 -0.5998312830924988 -0.48911914229393005
vn 0.63033527135849 -0.7637006044387817 -0.1394231617450714
vn 0.906250536441803 -0.4227398633956909 -0.0009583497303538024
vn 0.4502538740634918 -0.6665842533111572 -0.5940849184989929
vn -0.210517019033432 -0.536273717880249 -0.8173696398735046
vn 0.4921550452709198 -0.027689481154084206 -0.8700670599937439
vn 0.6649870276451111 0.5142590999603271 -0.5415993332862854
vn 0.4502538740634918 -0.6665842533111572 -0.5940849184989929
vn 0.4921550452709198 -0.027689481154084206 -0.8700670599937439
vn 0.906250536441803 -0.4227398633956909 -0.0009583497303538024
vn 0.7965970635414124 0.6044944524765015 0.004428484942764044
vt 0.48533743619918823 0.9041744470596313
vt 0.4686943590641022 0.8679049015045166
vt 0.4680609107017517 0.9381690621376038
vt 0.6028419137001038 0.9545260667800903
vt 0.6028419137001038 0.8627197742462158
vt 0.6248834729194641 0.9103639721870422
vt 0.5549255013465881 0.9795109629631042
vt 0.5549255013465881 0.8395949006080627
vt 0.507008969783783 0.9545260667800903
vt 0.507008969783783 0.8627197742462158
vt 0.484967440366745 0.9103764891624451
vt 0.6895527839660645 0.9992940425872803
vt 0.6895527839660645 0.5006256103515625
vt 0.738747239112854 0.5006256103515625
vt 0.6304337978363037 0.9992940425872803
vt 0.6304337978363037 0.5006256103515625
vt 0.6895527839660645 0.9992940425872803
vt 0.6895527839660645 0.5006256103515625
vt 0.738747239112854 0.9992940425872803
vt 0.41481003165245056 0.8205788731575012
vt 0.4148681163787842 0.7503847479820251
vt 0.37602460384368896 0.8205674290657043
vt 0.4997141361236572 0.8205854892730713
vt 0.4997141361236572 0.7503846883773804
vt 0.5843732357025146 0.7503846883773804
vt 0.5845357179641724 0.8205788731575012
vt 0.6236867904663086 0.8205674290657043
vt 0.6237452030181885 0.7503846883773804
vt 0.5846463441848755 0.7503846883773804
vt 0.5845357179641724 0.8205549716949463
vt 0.5521493554115295 0.7855089902877808
vt 0.49971646070480347 0.8052266240119934
vt 0.4997141361236572 0.8205488920211792
vt 0.41481003165245056 0.8205549716949463
vt 0.49971646070480347 0.7657912969589233
vt 0.4997141361236572 0.7503846883773804
vt 0.41473186016082764 0.7503846883773804
vt 0.4472835659980774 0.7855089902877808
vt 0.37612906098365784 0.7503847479820251
vt 0.395411878824234 0.9386898875236511
vt 0.39505234360694885 0.8681387305259705
vt 0.3786732852458954 0.9045664668083191
vt 0.4318481385707855 0.8504359126091003
vt 0.4318481385707855 0.9571000337600708
g Geoset0
s 1
usemtl mat_minecartmisc01
f 1/1/1 2/2/2 3/3/3
f 4/4/4 5/5/5 6/6/6
f 4/4/4 7/7/7 5/5/5
f 7/7/7 8/8/8 5/5/5
f 7/7/7 9/9/9 8/8/8
f 9/9/9 10/10/10 8/8/8
f 11/11/11 10/10/10 9/9/9
f 12/12/12 13/13/13 14/14/14
f 12/12/12 15/15/15 13/13/13
f 15/15/15 16/16/16 13/13/13
f 15/15/15 17/17/17 16/16/16
f 17/17/17 18/18/18 16/16/16
f 17/17/17 19/19/19 18/18/18
f 19/19/19 14/14/14 18/18/18
f 19/19/19 12/12/12 14/14/14
f 20/20/20 21/21/21 22/22/22
f 21/21/21 20/20/20 23/23/23
f 23/23/23 24/24/24 21/21/21
f 25/25/25 24/24/24 23/23/23
f 26/26/26 25/25/25 23/23/23
f 26/26/26 27/27/27 25/25/25
f 27/27/27 28/28/28 25/25/25
f 27/27/27 29/29/29 28/28/28
f 27/27/27 30/30/30 29/29/29
f 30/30/30 31/31/31 29/29/29
f 30/30/30 32/32/32 31/31/31
f 33/33/33 32/32/32 30/30/30
f 34/34/34 32/32/32 33/33/33
f 29/29/29 35/35/35 36/36/36
f 29/29/29 31/31/31 35/35/35
f 37/37/37 35/35/35 38/38/38
f 36/36/36 35/35/35 37/37/37
f 34/34/34 38/38/38 32/32/32
f 34/34/34 37/37/37 38/38/38
f 22/22/22 37/37/37 34/34/34
f 39/39/39 37/37/37 22/22/22
f 21/21/21 39/39/39 22/22/22
f 40/40/40 41/41/41 42/42/42
f 40/40/40 43/43/43 41/41/41
f 44/44/44 43/43/43 40/40/40
f 44/44/44 3/3/3 43/43/43
f 3/3/3 2/2/2 43/43/43
