# Exported using wow.export v0.1.64
o sholazarshrub07
mtllib sholazarshrub07.mtl
v 0.13068465888500214 -0.14152254164218903 0.3728499710559845
v 0.5592445731163025 -0.14152254164218903 -0.1563776284456253
v 0.9978009462356567 3.483236789703369 -0.13623885810375214
v 0.33996549248695374 2.3534157276153564 -1.6741786003112793
v 0.7567843794822693 -0.14152254164218903 -0.07902611047029495
v 1.2627073526382446 2.3534157276153564 -0.011761652305722237
v 0.20503728091716766 -0.14152254164218903 -1.0730568170547485
v -0.9292843341827393 1.8633885383605957 -0.8126548528671265
v -0.5245051383972168 -0.14152254164218903 -0.3796146512031555
v -0.7239786386489868 2.3534157276153564 0.7245530486106873
v -0.3321019113063812 -0.14152254164218903 0.3932565152645111
v 0.3918899893760681 1.8633885383605957 1.401811122894287
v 0.2360851764678955 -0.14152254164218903 0.7662099003791809
v 1.2627073526382446 2.3534157276153564 -0.011761652305722237
v 0.7567843794822693 -0.14152254164218903 -0.07902611047029495
v 0.3336057960987091 3.483236789703369 -1.159009575843811
v 0.5592445731163025 -0.14152254164218903 -0.1563776284456253
v 0.9978009462356567 3.483236789703369 -0.13623885810375214
v 0.18835151195526123 -0.14152254164218903 -0.7275026440620422
v -0.5719150900840759 3.082688093185425 -0.7881171107292175
v -0.24427618086338043 -0.14152254164218903 -0.5055813193321228
v -0.6357392072677612 3.483236789703369 0.42972609400749207
v -0.2799161970615387 -0.14152254164218903 0.17447394132614136
v 0.23033587634563446 3.082688093185425 0.8115020394325256
v 0.13068465888500214 -0.14152254164218903 0.3728499710559845
v 0.9978009462356567 3.483236789703369 -0.13623885810375214
v 0.5592445731163025 -0.14152254164218903 -0.1563776284456253
v 0.7567843794822693 -0.14152254164218903 -0.07902611047029495
v 0.33996549248695374 2.3534157276153564 -1.6741786003112793
v 1.2627073526382446 2.3534157276153564 -0.011761652305722237
v 0.20503728091716766 -0.14152254164218903 -1.0730568170547485
v -0.9292843341827393 1.8633885383605957 -0.8126548528671265
v -0.5245051383972168 -0.14152254164218903 -0.3796146512031555
v -0.7239786386489868 2.3534157276153564 0.7245530486106873
v -0.3321019113063812 -0.14152254164218903 0.3932565152645111
v 0.3918899893760681 1.8633885383605957 1.401811122894287
v 0.2360851764678955 -0.14152254164218903 0.7662099003791809
v 1.2627073526382446 2.3534157276153564 -0.011761652305722237
v 0.7567843794822693 -0.14152254164218903 -0.07902611047029495
v 0.5592445731163025 -0.14152254164218903 -0.1563776284456253
v 0.3336057960987091 3.483236789703369 -1.159009575843811
v 0.9978009462356567 3.483236789703369 -0.13623885810375214
v 0.18835151195526123 -0.14152254164218903 -0.7275026440620422
v -0.5719150900840759 3.082688093185425 -0.7881171107292175
v -0.24427618086338043 -0.14152254164218903 -0.5055813193321228
v -0.6357392072677612 3.483236789703369 0.42972609400749207
v -0.2799161970615387 -0.14152254164218903 0.17447394132614136
v 0.23033587634563446 3.082688093185425 0.8115020394325256
vn 0.22002054750919342 -0.1321762055158615 0.9664990305900574
vn 0.9913686513900757 -0.12023518234491348 0.05226532369852066
vn 0.9914137721061707 -0.12266626954078674 -0.045295700430870056
vn -0.2884749472141266 0.15895195305347443 0.9442015290260315
vn -0.9786314964294434 0.19434532523155212 -0.0671585202217102
vn -0.9770558476448059 0.20131956040859222 0.06951451301574707
vn -0.1449062079191208 0.19671620428562164 0.9696931838989258
vn 0.8333855271339417 0.181269571185112 0.5221206545829773
vn 0.8949500322341919 0.23024003207683563 0.38217008113861084
vn 0.7196503281593323 0.16788676381111145 -0.6737339496612549
vn 0.6803271770477295 0.17968255281448364 -0.7105414271354675
vn -0.16122141480445862 0.18625591695308685 -0.9691833853721619
vn -0.1752820760011673 0.17941567301750183 -0.9680321216583252
vn -0.9770558476448059 0.20131956040859222 0.06951451301574707
vn -0.9786314964294434 0.19434532523155212 -0.0671585202217102
vn -0.42469388246536255 0.12378174811601639 0.8968350887298584
vn -0.9913686513900757 0.12023518234491348 -0.05226532369852066
vn -0.9914137721061707 0.12266626954078674 0.045295700430870056
vn -0.2630777359008789 0.14419567584991455 0.9539380073547363
vn 0.800567626953125 0.1220533698797226 0.5866808891296387
vn 0.8380194306373596 0.12626759707927704 0.5308294296264648
vn 0.8591539859771729 0.12258914858102798 -0.49681615829467773
vn 0.85685795545578 0.12084924429655075 -0.5011884570121765
vn -0.20992343127727509 0.137299582362175 -0.9680294394493103
vn -0.22002054750919342 0.1321762055158615 -0.9664990305900574
vn -0.9914137721061707 0.12266626954078674 0.045295700430870056
vn -0.9913686513900757 0.12023518234491348 -0.05226532369852066
vn 0.9786314964294434 -0.19434532523155212 0.0671585202217102
vn 0.2884749472141266 -0.15895195305347443 -0.9442015290260315
vn 0.9770558476448059 -0.20131956040859222 -0.06951451301574707
vn 0.1449062079191208 -0.19671620428562164 -0.9696931838989258
vn -0.8333855271339417 -0.181269571185112 -0.5221206545829773
vn -0.8949500322341919 -0.23024001717567444 -0.38217008113861084
vn -0.7196503281593323 -0.16788677871227264 0.6737339496612549
vn -0.6803271770477295 -0.17968255281448364 0.7105414271354675
vn 0.16122141480445862 -0.18625591695308685 0.9691833853721619
vn 0.1752820760011673 -0.17941567301750183 0.9680321216583252
vn 0.9770558476448059 -0.20131956040859222 -0.06951451301574707
vn 0.9786314964294434 -0.19434532523155212 0.0671585202217102
vn 0.9913686513900757 -0.12023518234491348 0.05226532369852066
vn 0.42469388246536255 -0.12378177046775818 -0.8968350887298584
vn 0.9914137721061707 -0.12266626954078674 -0.045295700430870056
vn 0.2630777359008789 -0.14419567584991455 -0.9539380073547363
vn -0.800567626953125 -0.1220533698797226 -0.5866808891296387
vn -0.8380194306373596 -0.12626759707927704 -0.5308294296264648
vn -0.8591539859771729 -0.12258914858102798 0.49681615829467773
vn -0.85685795545578 -0.12084925174713135 0.5011884570121765
vn 0.20992343127727509 -0.137299582362175 0.9680294394493103
vt 0.9071396589279175 0.0029841065406799316
vt 1.2253286838531494 0.0029841065406799316
vt 1.2253286838531494 0.49581092596054077
vt -0.025318283587694168 0.9990609884262085
vt -0.3431745767593384 0.49933528900146484
vt -0.3431745767593384 0.9990609884262085
vt -0.025318283587694168 0.49933528900146484
vt 0.2971344590187073 0.9990609884262085
vt 0.2971344590187073 0.49933528900146484
vt 0.6149906516075134 0.9990609884262085
vt 0.6149906516075134 0.49933528900146484
vt 0.9809079766273499 0.9990609884262085
vt 0.9809079766273499 0.49933528900146484
vt 1.346825361251831 0.9990609884262085
vt 1.346825361251831 0.49933528900146484
vt 0.03216025233268738 0.49581092596054077
vt -0.2442365288734436 0.0029841065406799316
vt -0.2442365288734436 0.49581092596054077
vt 0.03216025233268738 0.0029841065406799316
vt 0.31255394220352173 0.49581092596054077
vt 0.31255394220352173 0.0029841065406799316
vt 0.5889506340026855 0.49581092596054077
vt 0.5889506340026855 0.0029841065406799316
vt 0.9071396589279175 0.49581092596054077
vt 0.9071396589279175 0.0029841065406799316
vt 1.2253286838531494 0.49581092596054077
vt 1.2253286838531494 0.0029841065406799316
vt -0.3431745767593384 0.49933528900146484
vt -0.025318283587694168 0.9990609884262085
vt -0.3431745767593384 0.9990609884262085
vt -0.025318283587694168 0.49933528900146484
vt 0.2971344590187073 0.9990609884262085
vt 0.2971344590187073 0.49933528900146484
vt 0.6149906516075134 0.9990609884262085
vt 0.6149906516075134 0.49933528900146484
vt 0.9809079766273499 0.9990609884262085
vt 0.9809079766273499 0.49933528900146484
vt 1.346825361251831 0.9990609884262085
vt 1.346825361251831 0.49933528900146484
vt -0.2442365288734436 0.0029841065406799316
vt 0.03216025233268738 0.49581092596054077
vt -0.2442365288734436 0.49581092596054077
vt 0.03216025233268738 0.0029841065406799316
vt 0.31255394220352173 0.49581092596054077
vt 0.31255394220352173 0.0029841065406799316
vt 0.5889506340026855 0.49581092596054077
vt 0.5889506340026855 0.0029841065406799316
vt 0.9071396589279175 0.49581092596054077
g Geoset0
s 1
usemtl mat_sholazartallgrassfull
f 1/1/1 2/2/2 3/3/3
f 4/4/4 5/5/5 6/6/6
f 7/7/7 5/5/5 4/4/4
f 8/8/8 7/7/7 4/4/4
f 9/9/9 7/7/7 8/8/8
f 10/10/10 9/9/9 8/8/8
f 11/11/11 9/9/9 10/10/10
f 12/12/12 11/11/11 10/10/10
f 13/13/13 11/11/11 12/12/12
f 14/14/14 13/13/13 12/12/12
f 15/15/15 13/13/13 14/14/14
f 16/16/16 17/17/17 18/18/18
f 19/19/19 17/17/17 16/16/16
f 20/20/20 19/19/19 16/16/16
f 21/21/21 19/19/19 20/20/20
f 22/22/22 21/21/21 20/20/20
f 23/23/23 21/21/21 22/22/22
f 24/24/24 23/23/23 22/22/22
f 25/25/25 23/23/23 24/24/24
f 26/26/26 25/25/25 24/24/24
f 27/27/27 25/25/25 26/26/26
f 28/28/28 29/29/29 30/30/30
f 28/28/28 31/31/31 29/29/29
f 31/31/31 32/32/32 29/29/29
f 31/31/31 33/33/33 32/32/32
f 33/33/33 34/34/34 32/32/32
f 33/33/33 35/35/35 34/34/34
f 35/35/35 36/36/36 34/34/34
f 35/35/35 37/37/37 36/36/36
f 37/37/37 38/38/38 36/36/36
f 37/37/37 39/39/39 38/38/38
f 40/40/40 41/41/41 42/42/42
f 40/40/40 43/43/43 41/41/41
f 43/43/43 44/44/44 41/41/41
f 43/43/43 45/45/45 44/44/44
f 45/45/45 46/46/46 44/44/44
f 45/45/45 47/47/47 46/46/46
f 47/47/47 48/48/48 46/46/46
f 47/47/47 1/1/1 48/48/48
f 1/1/1 3/3/3 48/48/48
