# Exported using wow.export v0.1.64
o sholazar_leafybusha_dark
mtllib sholazar_leafybusha_dark.mtl
v 0.666217565536499 2.831853151321411 0.22588936984539032
v 0.6117826700210571 2.8373444080352783 0.1944299042224884
v 0.12378678470849991 2.1578238010406494 0.09205332398414612
v 1.612618327140808 2.479809045791626 0.5999937653541565
v 1.9416906833648682 2.058974027633667 0.6008833050727844
v 1.5954045057296753 2.213387966156006 1.0355756282806396
v 1.5905404090881348 2.512559413909912 0.16310468316078186
v 2.058712959289551 1.9981685876846313 0.15493513643741608
v 1.6169569492340088 2.600661516189575 -0.2712984085083008
v 1.9440447092056274 2.160464286804199 -0.3101073205471039
v 0.9271230697631836 2.935020685195923 -0.26416316628456116
v 0.9179370999336243 2.8294403553009033 0.19356386363506317
v 0.9220336079597473 2.7999706268310547 0.6562275290489197
v 0.7797919511795044 2.571254014968872 1.1534756422042847
v 0.450131893157959 2.82747220993042 0.6850473284721375
v 0.505859911441803 2.8412718772888184 0.1882351189851761
v 0.4543401300907135 2.9624006748199463 -0.30136770009994507
v 0.7872591614723206 2.8261945247650146 -0.7972424626350403
v 1.6011440753936768 2.426070213317871 -0.7250565886497498
v 1.94271719455719 2.0605642795562744 0.6009173393249512
v 1.613691806793213 2.481436252593994 0.6000722050666809
v 1.5964477062225342 2.214959144592285 1.035625696182251
v 0.9223957061767578 2.802015542984009 0.6563646197319031
v 0.780124306678772 2.573237657546997 1.1535850763320923
v 2.059732675552368 1.999816656112671 0.15496332943439484
v 1.5916180610656738 2.5142643451690674 0.1631873995065689
v 0.9183028340339661 2.8315632343292236 0.193704292178154
v 1.9450833797454834 2.162203073501587 -0.31006133556365967
v 1.618045449256897 2.602430582046509 -0.2712059020996094
v 0.9275023341178894 2.9372189044952393 -0.26401010155677795
v 1.602213740348816 2.4279282093048096 -0.7249816060066223
v 0.7876238226890564 2.828505516052246 -0.7971030473709106
v 0.45472252368927 2.9646902084350586 -0.30121174454689026
v 0.5062269568443298 2.8434698581695557 0.1883767694234848
v 0.4504973590373993 2.829596757888794 0.6851874589920044
v -0.07013128697872162 -0.1378650963306427 -0.2460072636604309
v -0.3048999011516571 -0.13803543150424957 -0.01123751513659954
v -0.20616011321544647 1.1417144536972046 0.11182752996683121
v -0.10022109001874924 1.1376240253448486 0.005018705502152443
v 0.16461949050426483 -0.1329871565103531 -0.011255273595452309
v 0.005159255117177963 1.1157641410827637 0.11085840314626694
v -0.07014911621809006 -0.13315749168395996 0.22351451218128204
v -0.1007843166589737 1.1197963953018188 0.2176632136106491
v -0.3048999011516571 -0.13803543150424957 -0.01123751513659954
v -0.20616011321544647 1.1417144536972046 0.11182752996683121
v 0.12378678470849991 2.1578238010406494 0.09205332398414612
v 0.1646977812051773 2.1473679542541504 0.049642451107501984
v 0.20482385158538818 2.1238174438476562 0.08899843692779541
v 0.1638994961977005 2.1342098712921143 0.13139677047729492
v 0.6117826700210571 2.8373444080352783 0.1944299042224884
v 0.6655237078666687 2.8411431312561035 0.1620979607105255
v 0.7199518084526062 2.8355658054351807 0.19355078041553497
vn 0.20080974698066711 -0.3860284686088562 0.9003651738166809
vn -0.7021776437759399 0.7016068696975708 0.12122020870447159
vn -0.8228326439857483 0.5680347084999084 0.01682112365961075
vn -0.48685023188591003 -0.8533608913421631 -0.1864190548658371
vn -0.6380631923675537 -0.7555574774742126 -0.14835181832313538
vn -0.43753963708877563 -0.8210023641586304 -0.36676183342933655
vn -0.47214818000793457 -0.8760836124420166 -0.09774268418550491
vn -0.6297990083694458 -0.7725708484649658 -0.08054525405168533
vn -0.48791536688804626 -0.8714415431022644 0.05028146505355835
vn -0.6814939975738525 -0.7288421988487244 0.06599266827106476
vn -0.18849481642246246 -0.9820201396942139 0.01030160766094923
vn -0.16877000033855438 -0.9803293347358704 -0.10232839733362198
vn -0.19118453562259674 -0.9621135592460632 -0.19438619911670685
vn -0.22087940573692322 -0.9077654480934143 -0.35661494731903076
vn -0.049670323729515076 -0.987247109413147 -0.15124832093715668
vn -0.024397242814302444 -0.9944446086883545 -0.1023949682712555
vn -0.03619404137134552 -0.9990014433860779 -0.026194605976343155
vn -0.21789506077766418 -0.9546298384666443 0.20298679172992706
vn -0.4606810212135315 -0.8526198267936707 0.24660176038742065
vn 0.6381522417068481 0.7554646134376526 0.14844180643558502
vn 0.48693400621414185 0.8532905578613281 0.18652217090129852
vn 0.4376112222671509 0.8209190964698792 0.3668626844882965
vn 0.19128118455410004 0.9620717167854309 0.1944981813430786
vn 0.22096070647239685 0.9077010154724121 0.35672858357429504
vn 0.6298888921737671 0.7724879384040833 0.0806373655796051
vn 0.47223392128944397 0.8760256767272949 0.0978473424911499
vn 0.16887208819389343 0.9802994132041931 0.10244674980640411
vn 0.6815786361694336 0.7287710309028625 -0.0659044161438942
vn 0.487995982170105 0.8714020848274231 -0.050182901322841644
vn 0.1885935515165329 0.9820024371147156 -0.010183043777942657
vn 0.46073994040489197 0.8526186347007751 -0.24649578332901
vn 0.21797725558280945 0.954637348651886 -0.20286309719085693
vn 0.036319904029369354 0.9989937543869019 0.026311494410037994
vn 0.02452235110104084 0.994429349899292 0.10251311212778091
vn 0.04979502037167549 0.9872224926948547 0.15136785805225372
vn 0.004871506709605455 0.26988857984542847 -0.9628792405128479
vn -0.9919313192367554 0.11558771878480911 -0.0520748645067215
vn -0.9643257856369019 0.2618236243724823 0.03903986141085625
vn -0.06658096611499786 0.18794196844100952 -0.9799208045005798
vn 0.9819690585136414 0.1822969615459442 -0.05004603788256645
vn 0.9984896779060364 -0.042328495532274246 0.035023126751184464
vn 0.009273579344153404 0.007480207365006208 0.9999290108680725
vn -0.05970592424273491 0.07058946788311005 0.9957169890403748
vn -0.9919313192367554 0.11558771878480911 -0.0520748645067215
vn -0.9643257856369019 0.2618236243724823 0.03903986141085625
vn -0.8228326439857483 0.5680347084999084 0.01682112365961075
vn -0.06675317883491516 0.19225946068763733 -0.9790711402893066
vn 0.8461964130401611 -0.524087131023407 -0.09635496884584427
vn -0.046530209481716156 0.02825169265270233 0.9985172748565674
vn -0.7021776437759399 0.7016068696975708 0.12122020870447159
vn 0.21102672815322876 -0.00697802659124136 -0.9774553775787354
vn 0.707095205783844 -0.7039281129837036 -0.06709397584199905
vt 0.08498472720384598 0.9955102205276489
vt 0.1113855317234993 0.9955102205276489
vt 0.1113855317234993 0.6624845266342163
vt 0.6309018135070801 0.7198269963264465
vt 0.6634542942047119 0.8903058171272278
vt 0.820846438407898 0.7022117972373962
vt 0.468569278717041 0.7297631502151489
vt 0.45905351638793945 0.9929191470146179
vt 0.33412906527519226 0.7281886339187622
vt 0.3347363770008087 0.9070447683334351
vt 0.3229399621486664 0.5173072814941406
vt 0.4692053496837616 0.5178320407867432
vt 0.636988639831543 0.5136333703994751
vt 0.8320111036300659 0.4812675714492798
vt 0.692483127117157 0.3485894203186035
vt 0.4887321889400482 0.35308563709259033
vt 0.2754755914211273 0.3570631742477417
vt 0.12200669199228287 0.538798987865448
vt 0.18822602927684784 0.7731645703315735
vt 0.6634542942047119 0.8903058171272278
vt 0.6309018135070801 0.7198269963264465
vt 0.820846438407898 0.7022117972373962
vt 0.636988639831543 0.5136333703994751
vt 0.8320111036300659 0.4812675714492798
vt 0.45905351638793945 0.9929191470146179
vt 0.468569278717041 0.7297631502151489
vt 0.4692053496837616 0.5178320407867432
vt 0.3347363770008087 0.9070447683334351
vt 0.33412906527519226 0.7281886339187622
vt 0.3229399621486664 0.5173072814941406
vt 0.18822602927684784 0.7731645703315735
vt 0.12200669199228287 0.538798987865448
vt 0.2754755914211273 0.3570631742477417
vt 0.4887321889400482 0.35308563709259033
vt 0.692483127117157 0.3485894203186035
vt 0.03185439482331276 0.005313217639923096
vt 0.005453560501337051 0.005313217639923096
vt 0.005453560501337051 0.33897340297698975
vt 0.03185439482331276 0.33897334337234497
vt 0.058588746935129166 0.005313217639923096
vt 0.058588746935129166 0.33897334337234497
vt 0.08498472720384598 0.005313217639923096
vt 0.08498472720384598 0.33897334337234497
vt 0.1113855317234993 0.005313217639923096
vt 0.1113855317234993 0.33897340297698975
vt 0.005453560501337051 0.6613962650299072
vt 0.03185442462563515 0.6613962054252625
vt 0.058588746935129166 0.6624844670295715
vt 0.08498472720384598 0.6624846458435059
vt 0.005453560501337051 0.9958158135414124
vt 0.03185442462563515 0.9958158135414124
vt 0.058588746935129166 0.9955101609230042
g Geoset0
s 1
usemtl mat_sb_plantsb_dark
f 1/1/1 2/2/2 3/3/3
f 4/4/4 5/5/5 6/6/6
f 4/4/4 7/7/7 5/5/5
f 8/8/8 5/5/5 7/7/7
f 7/7/7 9/9/9 8/8/8
f 10/10/10 8/8/8 9/9/9
f 9/9/9 7/7/7 11/11/11
f 12/12/12 11/11/11 7/7/7
f 7/7/7 4/4/4 12/12/12
f 13/13/13 12/12/12 4/4/4
f 4/4/4 6/6/6 13/13/13
f 14/14/14 13/13/13 6/6/6
f 15/15/15 13/13/13 14/14/14
f 15/15/15 16/16/16 13/13/13
f 12/12/12 13/13/13 16/16/16
f 16/16/16 17/17/17 12/12/12
f 11/11/11 12/12/12 17/17/17
f 17/17/17 18/18/18 11/11/11
f 11/11/11 18/18/18 9/9/9
f 19/19/19 9/9/9 18/18/18
f 9/9/9 19/19/19 10/10/10
f 20/20/20 21/21/21 22/22/22
f 22/22/22 21/21/21 23/23/23
f 23/23/23 24/24/24 22/22/22
f 20/20/20 25/25/25 26/26/26
f 26/26/26 21/21/21 20/20/20
f 21/21/21 26/26/26 27/27/27
f 27/27/27 23/23/23 21/21/21
f 25/25/25 28/28/28 29/29/29
f 29/29/29 26/26/26 25/25/25
f 26/26/26 29/29/29 30/30/30
f 30/30/30 27/27/27 26/26/26
f 31/31/31 29/29/29 28/28/28
f 29/29/29 31/31/31 32/32/32
f 32/32/32 30/30/30 29/29/29
f 32/32/32 33/33/33 30/30/30
f 27/27/27 30/30/30 33/33/33
f 33/33/33 34/34/34 27/27/27
f 23/23/23 27/27/27 34/34/34
f 34/34/34 35/35/35 23/23/23
f 23/23/23 35/35/35 24/24/24
f 36/36/36 37/37/37 38/38/38
f 38/38/38 39/39/39 36/36/36
f 40/40/40 36/36/36 39/39/39
f 39/39/39 41/41/41 40/40/40
f 42/42/42 40/40/40 41/41/41
f 41/41/41 43/43/43 42/42/42
f 44/44/44 42/42/42 43/43/43
f 43/43/43 45/45/45 44/44/44
f 39/39/39 38/38/38 46/46/46
f 46/46/46 47/47/47 39/39/39
f 41/41/41 39/39/39 47/47/47
f 47/47/47 48/48/48 41/41/41
f 43/43/43 41/41/41 48/48/48
f 48/48/48 49/49/49 43/43/43
f 45/45/45 43/43/43 49/49/49
f 49/49/49 3/3/3 45/45/45
f 47/47/47 46/46/46 50/50/50
f 50/50/50 51/51/51 47/47/47
f 48/48/48 47/47/47 51/51/51
f 51/51/51 52/52/52 48/48/48
f 49/49/49 48/48/48 52/52/52
f 52/52/52 1/1/1 49/49/49
f 3/3/3 49/49/49 1/1/1
