# Exported using wow.export v0.1.64
o bone01
mtllib bone01.mtl
v 0.2747933566570282 -0.023456459864974022 -0.06571464240550995
v 0.23077675700187683 0.12627044320106506 -0.0963919535279274
v 0.303328275680542 0.06548546254634857 0.01578565686941147
v -0.27253657579421997 0.06932774931192398 -0.05690135061740875
v -0.33948925137519836 0.031299080699682236 -0.00593933742493391
v -0.3056277632713318 0.07817002385854721 0.03700997307896614
v -0.21291548013687134 0.053261898458004 -0.027387529611587524
v -0.21094347536563873 0.06398042291402817 0.024007605388760567
v 0.1370316743850708 0.0931355282664299 0.041122276335954666
v -0.2129155397415161 0.011846699751913548 0.01780923828482628
v -0.27253660559654236 -0.01615457981824875 0.03638624772429466
v -0.3076893389225006 -0.01654093526303768 -0.04977664723992348
v -0.21329456567764282 0.003749963827431202 -0.03118346445262432
v 0.13989922404289246 -0.0010934756137430668 0.03270091488957405
v 0.15029199421405792 0.0019483307842165232 -0.0424354262650013
v 0.13989922404289246 0.07653362303972244 -0.05201421678066254
v 0.26300111413002014 0.12955766916275024 0.0744970366358757
v 0.23077675700187683 -0.040967460721731186 0.08611629158258438
vn 0.5262891054153442 -0.6269111633300781 -0.5744581818580627
vn 0.21278809010982513 0.4466128349304199 -0.8690559267997742
vn 0.9957866668701172 0.06760821491479874 0.06195150315761566
vn -0.10427946597337723 0.5292759537696838 -0.8420170545578003
vn -0.9999739527702332 0.005318974610418081 0.004873838275671005
vn -0.15384472906589508 0.7285000681877136 0.667547345161438
vn 0.12792448699474335 0.8463112711906433 -0.5171001553535461
vn 0.053009238094091415 0.735598087310791 0.675341010093689
vn -0.1915380358695984 0.7230333685874939 0.6637288331985474
vn 0.14753316342830658 -0.44026699662208557 0.8856629729270935
vn -0.10427938401699066 -0.792683482170105 0.6006485819816589
vn -0.37092575430870056 -0.68468177318573 -0.6273953914642334
vn 0.21803970634937286 -0.7200575470924377 -0.6587684154510498
vn -0.26520228385925293 -0.6905110478401184 0.6729503870010376
vn -0.25044628977775574 -0.7141948938369751 -0.653607189655304
vn -0.2845577895641327 0.6062040328979492 -0.7426597476005554
vn 0.05008378624916077 0.7363520860671997 0.6747423410415649
vn 0.21278807520866394 -0.8268240690231323 0.5206564664840698
vt 0.019417036324739456 0.0528143048286438
vt 0.15897853672504425 0.5069760084152222
vt 0.003842432051897049 0.5663352608680725
vt 0.850559651851654 0.5193741917610168
vt 0.9898934960365295 0.5031464099884033
vt 0.9604678153991699 0.9225232601165771
vt 0.7619315981864929 0.5094818472862244
vt 0.7876020073890686 0.9908974766731262
vt 0.2261904925107956 0.9856827259063721
vt 0.7619315981864929 0.5094818472862244
vt 0.850559651851654 0.5193741917610168
vt 0.9787042140960693 0.051048994064331055
vt 0.7814452648162842 0.03392446041107178
vt 0.2556813359260559 0.5186350345611572
vt 0.23591242730617523 0.03832823038101196
vt 0.2556813359260559 0.5186350345611572
vt 0.031859591603279114 0.9539802670478821
vt 0.15897853672504425 0.5069760084152222
g Geoset0
s 1
usemtl mat_cavebone01
f 1/1/1 2/2/2 3/3/3
f 4/4/4 5/5/5 6/6/6
f 6/6/6 7/7/7 4/4/4
f 7/7/7 6/6/6 8/8/8
f 7/7/7 8/8/8 9/9/9
f 10/10/10 8/8/8 6/6/6
f 6/6/6 11/11/11 10/10/10
f 11/11/11 6/6/6 5/5/5
f 12/12/12 11/11/11 5/5/5
f 12/12/12 5/5/5 4/4/4
f 4/4/4 13/13/13 12/12/12
f 13/13/13 10/10/10 11/11/11
f 11/11/11 12/12/12 13/13/13
f 10/10/10 9/9/9 8/8/8
f 9/9/9 10/10/10 14/14/14
f 13/13/13 14/14/14 10/10/10
f 14/14/14 13/13/13 15/15/15
f 16/16/16 15/15/15 13/13/13
f 15/15/15 16/16/16 2/2/2
f 17/17/17 2/2/2 16/16/16
f 2/2/2 17/17/17 3/3/3
f 18/18/18 3/3/3 17/17/17
f 1/1/1 3/3/3 18/18/18
f 13/13/13 4/4/4 7/7/7
f 13/13/13 7/7/7 16/16/16
f 9/9/9 16/16/16 7/7/7
f 16/16/16 9/9/9 17/17/17
f 14/14/14 17/17/17 9/9/9
f 17/17/17 14/14/14 18/18/18
f 15/15/15 18/18/18 14/14/14
f 18/18/18 15/15/15 1/1/1
f 2/2/2 1/1/1 15/15/15
