# Exported using wow.export v0.1.64
o bone02
mtllib bone02.mtl
v -0.43925777077674866 0.03978864103555679 0.003815792500972748
v -0.43446022272109985 -0.019127005711197853 0.02584344893693924
v -0.4355366826057434 0.020391952246427536 0.04556169733405113
v -0.43925777077674866 0.03978864103555679 0.003815792500972748
v -0.43685901165008545 -0.0007067994447425008 -0.014691821299493313
v -0.43446022272109985 -0.019127005711197853 0.02584344893693924
v -0.43685901165008545 -0.0007067994447425008 -0.014691821299493313
v -0.43925777077674866 0.03978864103555679 0.003815792500972748
v -0.09677480161190033 0.12265348434448242 -0.027166089043021202
v -0.4355366826057434 0.020391952246427536 0.04556169733405113
v -0.10077138990163803 0.07678429037332535 0.05232079699635506
v -0.43446022272109985 -0.019127005711197853 0.02584344893693924
v -0.0836770161986351 0.015583104453980923 0.012865881435573101
v -0.10077139735221863 0.035887461155653 -0.05706270411610603
v -0.009374191053211689 0.027333185076713562 -0.09090486913919449
v -0.020268917083740234 0.14985156059265137 -0.037335023283958435
v 0.06569627672433853 0.09624690562486649 0.005090103484690189
v -0.028932834044098854 0.0925307497382164 0.06724968552589417
v 0.022597143426537514 -0.016755500808358192 0.024956796318292618
vn -0.9963975548744202 -0.058007463812828064 0.06186295300722122
vn -0.9963975548744202 -0.058007463812828064 0.06186295300722122
vn -0.9963975548744202 -0.058007463812828064 0.06186295300722122
vn -0.9971038103103638 -0.07123640179634094 0.02663438767194748
vn -0.9971038103103638 -0.07123640179634094 0.02663438767194748
vn -0.9971038103103638 -0.07123640179634094 0.02663438767194748
vn -0.12541146576404572 -0.07918615639209747 -0.9889395833015442
vn -0.25009685754776 0.9091826677322388 -0.3329240381717682
vn -0.2805410325527191 0.8998406529426575 -0.3340412676334381
vn -0.12183110415935516 0.5794616341590881 0.8058420419692993
vn -0.14030033349990845 0.24968084692955017 0.9581102728843689
vn 0.08925557136535645 -0.9358741044998169 0.34084174036979675
vn -0.11564149707555771 -0.9230132102966309 0.36697909235954285
vn -0.1757945865392685 -0.4327561855316162 -0.8842049241065979
vn 0.2336055040359497 -0.5094073414802551 -0.8282104730606079
vn -0.047926973551511765 0.9531615376472473 -0.2986404299736023
vn 0.9454695582389832 0.3135487735271454 0.08817273378372192
vn 0.07583677023649216 0.17722688615322113 0.9812437891960144
vn 0.3972962200641632 -0.7978681325912476 0.45338958501815796
vt 0.842641294002533 0.9744754433631897
vt 0.942227303981781 0.014103055000305176
vt 0.9718323349952698 0.5001757144927979
vt 0.842641294002533 0.9744754433631897
vt 0.9636579751968384 0.6113013029098511
vt 0.942227303981781 0.014103055000305176
vt 0.9718323349952698 0.5001757144927979
vt 0.842641294002533 0.9744754433631897
vt 0.21759480237960815 0.9910721182823181
vt 0.9718323349952698 0.5001757144927979
vt 0.29206156730651855 0.5008420944213867
vt 0.942227303981781 0.014103055000305176
vt 0.25261393189430237 0.01863950490951538
vt 0.29206156730651855 0.5008420944213867
vt 0.13869841396808624 0.4859166145324707
vt 0.013455953449010849 0.9788281917572021
vt 0.004169236868619919 0.47314345836639404
vt 0.13869841396808624 0.4859166145324707
vt 0.011257633566856384 0.01365351676940918
g Geoset0
s 1
usemtl mat_cavebone01
f 1/1/1 2/2/2 3/3/3
f 4/4/4 5/5/5 6/6/6
f 7/7/7 8/8/8 9/9/9
f 10/10/10 9/9/9 8/8/8
f 9/9/9 10/10/10 11/11/11
f 12/12/12 11/11/11 10/10/10
f 11/11/11 12/12/12 13/13/13
f 14/14/14 13/13/13 12/12/12
f 13/13/13 14/14/14 15/15/15
f 16/16/16 15/15/15 14/14/14
f 15/15/15 16/16/16 17/17/17
f 18/18/18 17/17/17 16/16/16
f 19/19/19 17/17/17 18/18/18
f 19/19/19 15/15/15 17/17/17
f 15/15/15 19/19/19 13/13/13
f 18/18/18 13/13/13 19/19/19
f 13/13/13 18/18/18 11/11/11
f 16/16/16 11/11/11 18/18/18
f 11/11/11 16/16/16 9/9/9
f 14/14/14 9/9/9 16/16/16
f 9/9/9 14/14/14 7/7/7
f 12/12/12 7/7/7 14/14/14
