# Exported using wow.export v0.1.64
o northrendgeneraltorch02
mtllib northrendgeneraltorch02.mtl
v 0.005365237593650818 -0.04691695049405098 -0.03873616084456444
v -0.04179378226399422 -0.04691695049405098 -0.007868565618991852
v -0.06537322700023651 2.1026737689971924 -0.014770767651498318
v 0.004559914115816355 2.1625754833221436 0.006966697052121162
v 0.06254411488771439 2.1625754833221436 0.08677508682012558
v 0.09838031232357025 2.1625754833221436 -0.023517409339547157
v -0.05342427268624306 2.1625754833221436 0.08677510172128677
v -0.08926048874855042 2.1625754833221436 -0.023517394438385963
v 0.004559914115816355 2.1625754833221436 -0.09168190509080887
v 0.004559914115816355 1.8697925806045532 0.006966697052121162
v 0.004559914115816355 1.8697925806045532 -0.07807520031929016
v 0.08543956279754639 1.8697925806045532 -0.019312703981995583
v -0.07631973177194595 1.8697925806045532 -0.019312690943479538
v -0.04542645439505577 1.8697925806045532 0.07576704025268555
v 0.0545462928712368 1.8697925806045532 0.07576702535152435
v -0.05342427268624306 2.1625754833221436 0.08677510172128677
v -0.08926048874855042 2.1625754833221436 -0.023517394438385963
v 0.06254411488771439 2.1625754833221436 0.08677508682012558
v 0.09838031232357025 2.1625754833221436 -0.023517409339547157
v 0.004559914115816355 2.1625754833221436 -0.09168190509080887
v 0.004559914115816355 1.8697925806045532 -0.07807520031929016
v -0.08926048874855042 2.1625754833221436 -0.023517394438385963
v -0.07631973177194595 1.8697925806045532 -0.019312690943479538
v -0.04179378226399422 -0.04691695049405098 -0.007868565618991852
v -0.038353513926267624 2.1026737689971924 0.06014646589756012
v -0.06537322700023651 2.1026737689971924 -0.014770767651498318
v -0.02378063276410103 -0.04691695049405098 0.04207625612616539
v 0.04908411204814911 2.1026737689971924 0.06014645844697952
v 0.03451111912727356 -0.04691695049405098 0.04207625240087509
v 0.0761038139462471 2.1026737689971924 -0.014770779758691788
v 0.052524253726005554 -0.04691695049405098 -0.007868574932217598
v 0.005365292076021433 2.1026737689971924 -0.06107216328382492
v -0.07844743132591248 1.8945045471191406 0.008323532529175282
v -0.02161998674273491 1.893823266029358 0.08411810547113419
v -0.04519864171743393 2.0298922061920166 0.14430712163448334
v -0.01517505757510662 2.6127498149871826 0.013971258886158466
v -0.025028763338923454 2.6146442890167236 0.004691154230386019
v -0.07500652968883514 2.400799036026001 -0.01993999257683754
v -0.039095282554626465 2.400806188583374 0.025571968406438828
v -0.0027898838743567467 2.6146018505096436 0.016927577555179596
v 0.009667499922215939 2.400623083114624 0.028367813676595688
v -0.00007480957719963044 2.6145875453948975 0.01019207015633583
v 0.03211607411503792 2.400073289871216 0.008480343036353588
v -0.009447406977415085 2.6146018505096436 -0.0021733392495661974
v -0.0011024558916687965 2.400092363357544 -0.036260854452848434
v -0.022313661873340607 2.6146302223205566 -0.00204435340128839
v -0.035630542784929276 2.4006545543670654 -0.04055681452155113
v -0.025028763338923454 2.6146442890167236 0.004691154230386019
v -0.07500652968883514 2.400799036026001 -0.01993999257683754
v 0.1015581488609314 2.020177125930786 0.10988805443048477
v 0.06732532382011414 1.8924615383148193 0.07768504321575165
v 0.13604356348514557 2.0157835483551025 -0.02546374499797821
v 0.09062027186155319 1.8917810916900635 -0.01115513313561678
v 0.057934489101171494 2.0201783180236816 -0.11512628942728043
v 0.034767430275678635 1.8924623727798462 -0.06523055583238602
v -0.06694089621305466 2.029893636703491 -0.09521085023880005
v -0.044673431664705276 1.8938241004943848 -0.06111708655953407
v -0.1419026404619217 2.035299301147461 0.022498972713947296
v -0.07844743132591248 1.8945045471191406 0.008323532529175282
v 0.1019384041428566 2.170335292816162 0.09709994494915009
v -0.04694902524352074 2.171597719192505 0.1145942360162735
v 0.12207567691802979 2.1697046756744385 -0.016099970787763596
v 0.05608562007546425 2.1703357696533203 -0.0987502709031105
v -0.07006838917732239 2.1715989112854004 -0.08347158879041672
v -0.130268856883049 2.172229528427124 0.018789442256093025
v 0.07757642865180969 2.271350145339966 0.07097875326871872
v -0.015246058814227581 2.271516799926758 0.07080395519733429
v 0.08202672004699707 2.2688498497009277 -0.007953650318086147
v 0.030018743127584457 2.264056444168091 -0.08210531622171402
v -0.0536944642663002 2.271517515182495 -0.08577150106430054
v -0.09060041606426239 2.2716012001037598 -0.030315902084112167
v -0.09060041606426239 2.2716012001037598 -0.030315902084112167
v -0.13026873767375946 2.172229528427124 0.01878948323428631
v -0.14190241694450378 2.035299301147461 0.022499000653624535
v 0.37175607681274414 2.4241044521331787 0.32660868763923645
v 0.3741625249385834 1.837420105934143 0.32660871744155884
v 0.37175607681274414 2.4241044521331787 -0.3052101731300354
v 0.3741625249385834 1.837420105934143 -0.305210143327713
v 0.11639270931482315 1.6885414123535156 0.20232035219669342
v 0.19638308882713318 2.03259015083313 0.3422645926475525
v 0.001070536789484322 2.032590389251709 0.1716710329055786
v -0.11173009872436523 1.682943344116211 -0.1977943331003189
v -0.19151823222637177 2.03259015083313 -0.3377307057380676
v 0.001070536789484322 2.032590389251709 -0.1695161610841751
v 0.1182386726140976 1.688586711883545 0.00289926421828568
v 0.19910688698291779 2.03259015083313 0.0034565075766295195
v 0.001070536789484322 2.032590389251709 0.1716710329055786
v 0.0018681673100218177 1.685731053352356 -0.09865719825029373
v 0.003321464406326413 -0.04392029345035553 -0.07395431399345398
v -0.08483338356018066 -0.04392038285732269 -0.15095219016075134
v 0.09147629886865616 -0.04392034560441971 0.003043563337996602
v 0.003321464406326413 -0.04392029345035553 0.08004145324230194
v 0.0018681673100218177 1.685731053352356 0.10220547765493393
v -0.08483338356018066 -0.04392038285732269 0.1570393443107605
v -0.11173009872436523 1.6829432249069214 0.20359495282173157
v -0.19151823222637177 2.03259015083313 0.3446437120437622
v 0.001311340369284153 1.6857173442840576 -0.0991431400179863
v 0.11639270931482315 1.6885414123535156 -0.19974374771118164
v 0.08930162340402603 -0.04392034560441971 -0.1528516560792923
v 0.001146782422438264 -0.04392029345035553 -0.07585375010967255
v -0.11357531696557999 1.6828981637954712 0.0012872583465650678
v -0.08700805902481079 -0.04392038285732269 0.0011441115057095885
v 0.001311340369284153 1.6857173442840576 0.1017187312245369
v 0.001146782422438264 -0.04392029345035553 0.07814198732376099
v 0.08930162340402603 -0.04392034560441971 0.15513987839221954
v 0.001070536789484322 2.032590389251709 -0.1695161610841751
v 0.19638308882713318 2.03259015083313 -0.3401097357273102
v -0.19424203038215637 2.03259015083313 0.0010774281108751893
vn 2.2653298969999014e-7 -0.025085043162107468 -0.9996853470802307
vn -0.9594780206680298 -0.022806387394666672 -0.2808590829372406
vn -0.9594781994819641 -0.022806385532021523 -0.28085848689079285
vn 0 1 0
vn 0.49955838918685913 0.5269450545310974 0.6875829696655273
vn 0.8083022832870483 0.5269450545310974 -0.26263338327407837
vn -0.4995582401752472 0.5269450545310974 0.6875830292701721
vn -0.8083022832870483 0.5269451141357422 -0.2626333236694336
vn -3.162220352237455e-8 0.5269450545310974 -0.8498993515968323
vn 0 -1 0
vn -5.9084520387386874e-8 -0.5570658445358276 -0.8304682970046997
vn 0.7898222804069519 -0.5570658445358276 -0.2566289007663727
vn -0.7898223400115967 -0.5570657849311829 -0.2566288113594055
vn -0.48813700675964355 -0.5570658445358276 0.6718630194664001
vn 0.4881370961666107 -0.5570658445358276 0.6718629598617554
vn -0.4995582401752472 0.5269450545310974 0.6875830292701721
vn -0.8083022832870483 0.5269451141357422 -0.2626333236694336
vn 0.49955838918685913 0.5269450545310974 0.6875829696655273
vn 0.8083022832870483 0.5269450545310974 -0.26263338327407837
vn -3.162220352237455e-8 0.5269450545310974 -0.8498993515968323
vn -5.9084520387386874e-8 -0.5570658445358276 -0.8304682970046997
vn -0.8083022832870483 0.5269451141357422 -0.2626333236694336
vn -0.7898223400115967 -0.5570657849311829 -0.2566288113594055
vn -0.9594780206680298 -0.022806387394666672 -0.2808590829372406
vn -0.6275741457939148 -0.024136528372764587 0.7781825661659241
vn -0.9594781994819641 -0.022806385532021523 -0.28085848689079285
vn -0.6275746822357178 -0.024136530235409737 0.7781821489334106
vn 0.6275749206542969 -0.024136587977409363 0.7781819105148315
vn 0.6275744438171387 -0.024136589840054512 0.778182327747345
vn 0.959477961063385 -0.022806482389569283 -0.2808593213558197
vn 0.9594780802726746 -0.02280648797750473 -0.2808587849140167
vn -4.4903779894411855e-7 -0.025085048750042915 -0.9996853470802307
vn -0.9075518846511841 -0.4163930118083954 0.05446474999189377
vn -0.5878310203552246 -0.789940595626831 0.1744951456785202
vn -0.9489576816558838 -0.023547761142253876 0.3145231008529663
vn -0.9393346905708313 0.22728009521961212 0.2568930983543396
vn -0.9894254803657532 0.0892544612288475 0.11432788521051407
vn -0.9953012466430664 0.09402193129062653 0.023136986419558525
vn -0.9877022504806519 0.11532914638519287 0.10556256026029587
vn 0.9624742865562439 0.16420583426952362 0.21605484187602997
vn 0.9357127547264099 0.3073806166648865 0.17308616638183594
vn 0.991889476776123 0.12628886103630066 0.014367163181304932
vn 0.9596878290176392 0.2810519337654114 0.003012416884303093
vn 0.9087647795677185 0.36611273884773254 -0.20027001202106476
vn 0.8710060715675354 0.46793538331985474 -0.14961574971675873
vn -0.9817936420440674 0.16406747698783875 -0.09572441130876541
vn -0.6390931606292725 0.7109366655349731 -0.2934774160385132
vn -0.9772093892097473 0.1879359781742096 -0.09870093315839767
vn -0.9953012466430664 0.09402193129062653 0.023136986419558525
vn 0.9935243725776672 -0.029475262388586998 0.10972949862480164
vn 0.8705152869224548 -0.4735764265060425 0.13389739394187927
vn 0.9996948838233948 -0.011005186475813389 -0.022113284096121788
vn 0.9319106936454773 -0.3626471161842346 -0.005435196217149496
vn 0.9626221060752869 -0.03654574975371361 -0.2683711051940918
vn -0.09242834150791168 -0.9632695317268372 -0.252128541469574
vn -0.9835465550422668 -0.04616205766797066 -0.1746574491262436
vn -0.9149479269981384 -0.38353270292282104 -0.12559041380882263
vn -0.9974197149276733 -0.022809667512774467 -0.06807098537683487
vn -0.9509011507034302 -0.30581751465797424 -0.047566916793584824
vn 0.9921713471412659 0.10614181309938431 0.06580234318971634
vn -0.905289888381958 0.3914802074432373 0.16490432620048523
vn 0.9892463684082031 0.14624494314193726 -0.00199920148588717
vn 0.8947511911392212 0.37892380356788635 -0.23629873991012573
vn -0.9944158792495728 0.048133138567209244 -0.09391649812459946
vn -0.9968429803848267 0.03665509074926376 -0.07043085992336273
vn 0.9270904660224915 0.36729544401168823 0.07481497526168823
vn -0.23787276446819305 0.940564751625061 0.24239329993724823
vn 0.9413238763809204 0.3372453451156616 -0.013225479982793331
vn 0.7391455769538879 0.6384824514389038 -0.21448536217212677
vn -0.9484437108039856 0.16820667684078217 -0.26862800121307373
vn -0.9933120608329773 0.10746700316667557 -0.042213473469018936
vn -0.9933120608329773 0.10746700316667557 -0.042213473469018936
vn -0.9789342880249023 0.1849222332239151 0.08655320852994919
vn -0.9966081380844116 -0.01374494656920433 0.08113733679056168
vn 0.9999915957450867 0.004101722501218319 -3.422842809186477e-8
vn 0.9999915957450867 0.004101722501218319 -3.422842809186477e-8
vn 0.9999915957450867 0.004101722501218319 -3.422842809186477e-8
vn 0.9999915957450867 0.004101722501218319 -3.422842809186477e-8
vn -0.6566541194915771 -0.03992188721895218 0.7531344890594482
vn -0.6562811136245728 -0.06876182556152344 0.7513766884803772
vn -0.6561248302459717 -0.06850669533014297 0.7515364289283752
vn 0.6579803228378296 -0.03860282525420189 -0.7520450353622437
vn 0.656323254108429 -0.06782817095518112 -0.7514247298240662
vn 0.656629204750061 -0.06824427098035812 -0.7511196732521057
vn 0.9983013868331909 -0.057990700006484985 0.005605257581919432
vn 0.9944445490837097 -0.10503816604614258 0.006857587024569511
vn 0.6572667956352234 -0.06729003041982651 0.7506479620933533
vn 0.6582150459289551 -0.036339983344078064 -0.7519523501396179
vn 0.6578282117843628 -0.0045801675878465176 -0.7531540393829346
vn 0.6578314304351807 -0.004575428087264299 -0.7531512975692749
vn 0.9999759793281555 -0.006933390628546476 0.000022712312784278765
vn 0.6576715707778931 -0.004305866546928883 0.7532925009727478
vn 0.6579524278640747 -0.03549414128065109 0.7522225379943848
vn 0.6581375002861023 -0.004098454490303993 0.7528865933418274
vn 0.666593074798584 -0.03750598430633545 0.7444776296615601
vn 0.6667365431785583 -0.06618960946798325 0.7423485517501831
vn -0.6567180752754211 -0.03649279102683067 -0.7532527446746826
vn -0.656640887260437 -0.040126387029886246 -0.7531351447105408
vn -0.6578380465507507 -0.004528449382632971 -0.7531457543373108
vn -0.6578348278999329 -0.004523835610598326 -0.7531486749649048
vn -0.9984301924705505 -0.056010227650403976 0.00011498807725729421
vn -0.9999760389328003 -0.006918986327946186 -0.000031271665648091584
vn -0.6567290425300598 -0.03631654381752014 0.7532516717910767
vn -0.6578314304351807 -0.004584441892802715 0.7531512379646301
vn -0.657837986946106 -0.004584667272865772 0.7531455159187317
vn -0.6561047434806824 -0.06891638785600662 -0.7515165209770203
vn -0.6562623977661133 -0.0691736713051796 -0.7513552308082581
vn -0.9946123957633972 -0.10366392135620117 -0.0001729940704535693
vt 0.7492488026618958 0.0004994869232177734
vt 0.9725976586341858 0.0004994869232177734
vt 0.9652801156044006 0.9125439524650574
vt 0.5007780194282532 0.8931624889373779
vt 0.32610201835632324 0.8537186980247498
vt 0.5674983263015747 0.8293409943580627
vt 0.326102077960968 0.9326063394546509
vt 0.5674984455108643 0.9569839835166931
vt 0.7166895270347595 0.8931624889373779
vt 0.29382553696632385 0.7855237126350403
vt -0.7121701836585999 0.7855237126350403
vt 0.867544412612915 0.7855237126350403
vt -0.27989301085472107 0.7855237126350403
vt 0.10929593443870544 0.7855237126350403
vt 0.4783555567264557 0.7855237126350403
vt 0.10929593443870544 0.9705150127410889
vt -0.27989301085472107 0.9705150127410889
vt 0.4783555567264557 0.9705150127410889
vt 0.867544412612915 0.9705150127410889
vt 1.2998214960098267 0.9705150127410889
vt 1.2998214960098267 0.7855237126350403
vt 1.7320984601974487 0.9705150127410889
vt 1.7320984601974487 0.7855237126350403
vt -0.02515007182955742 0.0004994869232177734
vt 0.15518949925899506 0.9125439524650574
vt -0.0324675478041172 0.9125439524650574
vt 0.1589575558900833 0.0004994869232177734
vt 0.3455601930618286 0.9125439524650574
vt 0.3417918384075165 0.0004994869232177734
vt 0.533217191696167 0.9125439524650574
vt 0.5258998274803162 0.0004994869232177734
vt 0.7492485642433167 0.9125439524650574
vt 0.11139719188213348 0.5803776979446411
vt 0.15622258186340332 0.5612030625343323
vt 0.16589155793190002 0.6008733510971069
vt 0.1523410826921463 0.9113609194755554
vt 0.10558415204286575 0.9101330637931824
vt 0.10924088954925537 0.771339476108551
vt 0.15049339830875397 0.7847299575805664
vt 0.20405429601669312 0.9149878025054932
vt 0.1854533851146698 0.8193506598472595
vt 0.255792498588562 0.9143245220184326
vt 0.23222807049751282 0.8132409453392029
vt 0.30254682898521423 0.9089252948760986
vt 0.2805933654308319 0.7932287454605103
vt 0.34148192405700684 0.9044533371925354
vt 0.3316798508167267 0.7817395925521851
vt 0.38695451617240906 0.9085379242897034
vt 0.3831520080566406 0.7891726493835449
vt 0.20099666714668274 0.5879173278808594
vt 0.19794961810112 0.5542631149291992
vt 0.24648377299308777 0.5823764801025391
vt 0.24958182871341705 0.5554210543632507
vt 0.2976088225841522 0.6141790151596069
vt 0.30225029587745667 0.580467939376831
vt 0.342666894197464 0.6180890202522278
vt 0.34527382254600525 0.5823206305503845
vt 0.3885646164417267 0.6089823246002197
vt 0.3887306749820709 0.5727010369300842
vt 0.216170996427536 0.6150299906730652
vt 0.17977449297904968 0.6334645748138428
vt 0.25398126244544983 0.6152765154838562
vt 0.30133727192878723 0.6509522199630737
vt 0.3485991060733795 0.6606072783470154
vt 0.3882090747356415 0.6433463096618652
vt 0.2177744060754776 0.6734763383865356
vt 0.17893347144126892 0.673332691192627
vt 0.24324330687522888 0.6931456923484802
vt 0.2844619154930115 0.6942125558853149
vt 0.33526307344436646 0.7028400301933289
vt 0.3853144943714142 0.699021577835083
vt 0.12551961839199066 0.6824344396591187
vt 0.12437905371189117 0.6410974860191345
vt 0.11760597676038742 0.612905740737915
vt 0 1
vt 0 0
vt 1 1
vt 1 0
vt 0.7456537485122681 0.9960000514984131
vt 0.9980000257492065 0.9959999918937683
vt 0.9980000257492065 0.7459999918937683
vt 0.7403193116188049 0.9959999918937683
vt 0.9980000257492065 0.9959999918937683
vt 0.9980000257492065 0.7459999918937683
vt 0.7456969618797302 0.49999988079071045
vt 0.9980000257492065 0.49999988079071045
vt 0.9980000257492065 0.2540000081062317
vt 0.7429757118225098 0.7459999322891235
vt 0.0020000000949949026 0.7459999918937683
vt 0.0020000000949949026 0.9959999918937683
vt 0.0020000000949949026 0.49999988079071045
vt 0.0020000000949949026 0.2540000081062317
vt 0.7429757118225098 0.2540000081062317
vt 0.0020000000949949026 0.00390625
vt 0.7403193116188049 0.00390625
vt 0.9980000257492065 0.00390625
vt 0.7429627180099487 0.2540000081062317
vt 0.7456537485122681 0.00390625
vt 0.0020000000949949026 0.00390625
vt 0.0020000000949949026 0.2540000081062317
vt 0.7402761578559875 0.5
vt 0.0020000000949949026 0.5
vt 0.7429627180099487 0.7459999918937683
vt 0.0020000000949949026 0.7459999918937683
vt 0.0020000000949949026 0.9959999918937683
vt 0.9980000257492065 0.2540000081062317
vt 0.9980000257492065 0.00390625
vt 0.9980000257492065 0.5
g Geoset0
s 1
usemtl mat_club_1h_torch_a_01
f 1/1/1 2/2/2 3/3/3
f 4/4/4 5/5/5 6/6/6
f 4/4/4 7/7/7 5/5/5
f 4/4/4 8/8/8 7/7/7
f 4/4/4 9/9/9 8/8/8
f 4/4/4 6/6/6 9/9/9
f 10/10/10 11/11/11 12/12/12
f 10/10/10 13/13/13 11/11/11
f 10/10/10 14/14/14 13/13/13
f 10/10/10 12/12/12 15/15/15
f 10/10/10 15/15/15 14/14/14
f 13/13/13 16/16/16 17/17/17
f 13/13/13 14/14/14 16/16/16
f 14/14/14 18/18/18 16/16/16
f 14/14/14 15/15/15 18/18/18
f 15/15/15 19/19/19 18/18/18
f 15/15/15 12/12/12 19/19/19
f 12/12/12 20/20/20 19/19/19
f 12/12/12 21/21/21 20/20/20
f 21/21/21 22/22/22 20/20/20
f 21/21/21 23/23/23 22/22/22
f 24/24/24 25/25/25 26/26/26
f 24/24/24 27/27/27 25/25/25
f 27/27/27 28/28/28 25/25/25
f 27/27/27 29/29/29 28/28/28
f 29/29/29 30/30/30 28/28/28
f 29/29/29 31/31/31 30/30/30
f 31/31/31 32/32/32 30/30/30
f 31/31/31 1/1/1 32/32/32
f 1/1/1 3/3/3 32/32/32
g Geoset1
s 1
usemtl mat_t_vfx_fire_anim02_128_full_desat
f 33/33/33 34/34/34 35/35/35
f 36/36/36 37/37/37 38/38/38
f 38/38/38 39/39/39 36/36/36
f 40/40/40 36/36/36 39/39/39
f 39/39/39 41/41/41 40/40/40
f 42/42/42 40/40/40 41/41/41
f 41/41/41 43/43/43 42/42/42
f 44/44/44 42/42/42 43/43/43
f 43/43/43 45/45/45 44/44/44
f 46/46/46 44/44/44 45/45/45
f 45/45/45 47/47/47 46/46/46
f 48/48/48 46/46/46 47/47/47
f 47/47/47 49/49/49 48/48/48
f 50/50/50 35/35/35 34/34/34
f 34/34/34 51/51/51 50/50/50
f 52/52/52 50/50/50 51/51/51
f 51/51/51 53/53/53 52/52/52
f 54/54/54 52/52/52 53/53/53
f 53/53/53 55/55/55 54/54/54
f 56/56/56 54/54/54 55/55/55
f 55/55/55 57/57/57 56/56/56
f 58/58/58 56/56/56 57/57/57
f 57/57/57 59/59/59 58/58/58
f 60/60/60 61/61/61 35/35/35
f 35/35/35 50/50/50 60/60/60
f 62/62/62 60/60/60 50/50/50
f 50/50/50 52/52/52 62/62/62
f 63/63/63 62/62/62 52/52/52
f 52/52/52 54/54/54 63/63/63
f 64/64/64 63/63/63 54/54/54
f 54/54/54 56/56/56 64/64/64
f 65/65/65 64/64/64 56/56/56
f 56/56/56 58/58/58 65/65/65
f 66/66/66 67/67/67 61/61/61
f 61/61/61 60/60/60 66/66/66
f 68/68/68 66/66/66 60/60/60
f 60/60/60 62/62/62 68/68/68
f 69/69/69 68/68/68 62/62/62
f 62/62/62 63/63/63 69/69/69
f 70/70/70 69/69/69 63/63/63
f 63/63/63 64/64/64 70/70/70
f 71/71/71 70/70/70 64/64/64
f 64/64/64 65/65/65 71/71/71
f 70/70/70 71/71/71 49/49/49
f 49/49/49 47/47/47 70/70/70
f 69/69/69 70/70/70 47/47/47
f 47/47/47 45/45/45 69/69/69
f 68/68/68 69/69/69 45/45/45
f 45/45/45 43/43/43 68/68/68
f 66/66/66 68/68/68 43/43/43
f 43/43/43 41/41/41 66/66/66
f 67/67/67 66/66/66 41/41/41
f 41/41/41 39/39/39 67/67/67
f 72/72/72 67/67/67 39/39/39
f 39/39/39 38/38/38 72/72/72
f 67/67/67 72/72/72 73/73/73
f 73/73/73 61/61/61 67/67/67
f 61/61/61 73/73/73 74/74/74
f 74/74/74 35/35/35 61/61/61
f 35/35/35 74/74/74 33/33/33
g Geoset2
s 1
usemtl mat_gloworange32
f 75/75/75 76/76/76 77/77/77
f 78/78/78 77/77/77 76/76/76
g Geoset3
s 1
usemtl mat_stickbundle
f 79/79/79 80/80/80 81/81/81
f 82/82/82 83/83/83 84/84/84
f 85/85/85 86/86/86 87/87/87
f 84/84/84 86/86/86 85/85/85
f 85/85/85 88/88/88 84/84/84
f 84/84/84 88/88/88 82/82/82
f 82/82/82 88/88/88 89/89/89
f 89/89/89 90/90/90 82/82/82
f 91/91/91 89/89/89 88/88/88
f 88/88/88 85/85/85 91/91/91
f 92/92/92 91/91/91 85/85/85
f 85/85/85 93/93/93 92/92/92
f 87/87/87 93/93/93 85/85/85
f 94/94/94 92/92/92 93/93/93
f 93/93/93 95/95/95 94/94/94
f 95/95/95 93/93/93 87/87/87
f 87/87/87 96/96/96 95/95/95
f 97/97/97 98/98/98 99/99/99
f 99/99/99 100/100/100 97/97/97
f 101/101/101 97/97/97 100/100/100
f 100/100/100 102/102/102 101/101/101
f 103/103/103 101/101/101 102/102/102
f 102/102/102 104/104/104 103/103/103
f 103/103/103 104/104/104 105/105/105
f 106/106/106 107/107/107 98/98/98
f 98/98/98 97/97/97 106/106/106
f 108/108/108 106/106/106 97/97/97
f 97/97/97 101/101/101 108/108/108
f 108/108/108 101/101/101 103/103/103
f 105/105/105 79/79/79 103/103/103
f 81/81/81 103/103/103 79/79/79
f 103/103/103 81/81/81 108/108/108
