# Exported using wow.export v0.1.64
o zuldrak_lightray_01
mtllib zuldrak_lightray_01.mtl
v -10.143045425415039 -18.674959182739258 73.64479064941406
v 62.76065444946289 -21.52016258239746 36.26683807373047
v 30.233781814575195 92.0811538696289 -34.702354431152344
v 43.62736892700195 80.9869155883789 -20.69989013671875
v -62.38955307006836 80.9869155883789 8.01856803894043
v -51.24091339111328 -7.580740451812744 49.17479705810547
v 54.77600860595703 -7.580729961395264 20.456340789794922
v 62.888916015625 90.61924743652344 -11.835677146911621
v -68.9855728149414 86.47322845458984 -0.8609124422073364
v -74.911376953125 -17.21306610107422 44.834266662597656
v 56.96309280395508 -13.067044258117676 33.85950469970703
v -42.669918060302734 94.92634582519531 2.675603151321411
vn 0.6202985644340515 0.21453821659088135 0.7544554471969604
vn 0.6202985644340515 0.21453823149204254 0.7544554471969604
vn 0.6202985644340515 0.21453821659088135 0.7544554471969604
vn 0.1957879215478897 0.3083283603191376 0.9309139251708984
vn 0.1957879364490509 0.3083283305168152 0.9309139251708984
vn 0.1957879215478897 0.3083283603191376 0.9309139251708984
vn 0.19578790664672852 0.3083283603191376 0.9309139251708984
vn 0.018856294453144073 0.2414873093366623 0.9702207446098328
vn 0.018856294453144073 0.2414873093366623 0.9702207446098328
vn 0.018856294453144073 0.2414873093366623 0.9702207446098328
vn 0.018856294453144073 0.2414873093366623 0.9702207446098328
vn 0.6202986240386963 0.21453820168972015 0.7544554471969604
vt 0 0
vt 1 0
vt 1 1
vt 1 1
vt 0 1
vt 0 0
vt 1 0
vt 1 1
vt 0 1
vt 0 0
vt 1 0
vt 0 1
g Geoset0
s 1
usemtl mat_zuldrak_lightray_01
f 1/1/1 2/2/2 3/3/3
f 4/4/4 5/5/5 6/6/6
f 6/6/6 7/7/7 4/4/4
f 8/8/8 9/9/9 10/10/10
f 10/10/10 11/11/11 8/8/8
f 3/3/3 12/12/12 1/1/1
