# Exported using wow.export v0.1.64
o wetlandshrub06
mtllib wetlandshrub06.mtl
v 0.25286024808883667 -0.31894880533218384 -0.8756779432296753
v -0.46885979175567627 -0.31894880533218384 -0.19400949776172638
v -0.9401344656944275 2.4198310375213623 -0.3899245262145996
v -0.2980710566043854 -0.07510733604431152 -0.06816660612821579
v -0.33962109684944153 2.851292610168457 0.9587012529373169
v -0.7164717316627502 2.851292610168457 -0.20112594962120056
v -0.08763398975133896 -0.07510733604431152 0.5794919729232788
v 0.6310389637947083 2.4507429599761963 0.834812581539154
v 0.3876897394657135 -0.07510733604431152 0.4771048128604889
v 1.0078893899917603 2.851292610168457 -0.325014591217041
v 0.5981267094612122 -0.07510733604431152 -0.1705537736415863
v 0.27013611793518066 2.4507429599761963 -0.9179386496543884
v 0.25286024808883667 -0.07510733604431152 -0.4684416353702545
v -0.7164717316627502 2.851292610168457 -0.20112594962120056
v -0.2980710566043854 -0.07510733604431152 -0.06816660612821579
v -0.46885979175567627 -0.31894880533218384 -0.19400949776172638
v -0.47909966111183167 2.4198310375213623 1.4546700716018677
v -0.9401344656944275 2.4198310375213623 -0.3899245262145996
v -0.19318726658821106 -0.31894880533218384 0.9089531302452087
v 0.969880223274231 1.9298040866851807 0.9510082602500916
v 0.6909726858139038 -0.31894880533218384 0.42795896530151367
v 1.169429063796997 2.4198310375213623 -0.5869575142860413
v 0.7051593065261841 -0.31894880533218384 -0.36837485432624817
v 0.2668701410293579 1.9298040866851807 -1.5299468040466309
vn -0.1813536137342453 -0.15588052570819855 -0.9709851145744324
vn -0.9800930619239807 -0.17278818786144257 -0.09778435528278351
vn -0.7839703559875488 -0.16674602031707764 -0.5979851484298706
vn -0.9866036772727966 -0.14449939131736755 -0.07571692019701004
vn -0.7406335473060608 -0.1486836075782776 0.6552519798278809
vn -0.8506674766540527 -0.14858809113502502 -0.504268229007721
vn -0.2761681079864502 -0.16716507077217102 0.9464602470397949
vn 0.4811774790287018 -0.15844494104385376 0.8621852993965149
vn 0.7983796000480652 -0.15244552493095398 0.5825378894805908
vn 0.9873550534248352 -0.14540249109268188 -0.06315115094184875
vn 0.8761084675788879 -0.14985351264476776 -0.45823344588279724
vn 0.2888124883174896 -0.16810685396194458 -0.942511260509491
vn -0.22844891250133514 -0.16144919395446777 -0.9600756764411926
vn -0.8506674766540527 -0.14858809113502502 -0.504268229007721
vn -0.9866036772727966 -0.14449939131736755 -0.07571692019701004
vn -0.9800930619239807 -0.17278818786144257 -0.09778435528278351
vn -0.6222832202911377 -0.15541861951351166 0.7672083377838135
vn -0.7839703559875488 -0.16674602031707764 -0.5979851484298706
vn -0.1200922280550003 -0.16578857600688934 0.9788217544555664
vn 0.516684889793396 -0.15564611554145813 0.8419091701507568
vn 0.8527655601501465 -0.18717356026172638 0.4876032769680023
vn 0.9461206197738647 -0.16670405864715576 -0.277606725692749
vn 0.7629533410072327 -0.1641925424337387 -0.6252543330192566
vn 0.22778642177581787 -0.16381333768367767 -0.9598325490951538
vt 0.9809079766273499 0.0004994869232177734
vt 1.346825361251831 0.0004994869232177734
vt 1.346825361251831 0.5002251863479614
vt -0.2442365288734436 0.4954923391342163
vt 0.03216025233268738 0.9883191585540771
vt -0.2442365288734436 0.9883191585540771
vt 0.03216025233268738 0.4954923391342163
vt 0.31255394220352173 0.9883191585540771
vt 0.31255394220352173 0.4954923391342163
vt 0.5889506340026855 0.9883191585540771
vt 0.5889506340026855 0.4954923391342163
vt 0.9071396589279175 0.9883191585540771
vt 0.9071396589279175 0.4954923391342163
vt 1.2253286838531494 0.9883191585540771
vt 1.2253286838531494 0.4954923391342163
vt -0.3431745767593384 0.0004994869232177734
vt -0.025318283587694168 0.5002251863479614
vt -0.3431745767593384 0.5002251863479614
vt -0.025318283587694168 0.0004994869232177734
vt 0.2971344590187073 0.5002251863479614
vt 0.2971344590187073 0.0004994869232177734
vt 0.6149906516075134 0.5002251863479614
vt 0.6149906516075134 0.0004994869232177734
vt 0.9809079766273499 0.5002251863479614
g Geoset0
s 1
usemtl mat_wetlandstallgrassfull
f 1/1/1 2/2/2 3/3/3
f 4/4/4 5/5/5 6/6/6
f 4/4/4 7/7/7 5/5/5
f 7/7/7 8/8/8 5/5/5
f 7/7/7 9/9/9 8/8/8
f 9/9/9 10/10/10 8/8/8
f 9/9/9 11/11/11 10/10/10
f 11/11/11 12/12/12 10/10/10
f 11/11/11 13/13/13 12/12/12
f 13/13/13 14/14/14 12/12/12
f 13/13/13 15/15/15 14/14/14
f 16/16/16 17/17/17 18/18/18
f 16/16/16 19/19/19 17/17/17
f 19/19/19 20/20/20 17/17/17
f 19/19/19 21/21/21 20/20/20
f 21/21/21 22/22/22 20/20/20
f 21/21/21 23/23/23 22/22/22
f 23/23/23 24/24/24 22/22/22
f 23/23/23 1/1/1 24/24/24
f 1/1/1 3/3/3 24/24/24
