# Exported using wow.export v0.1.64
o wetlandshrub01
mtllib wetlandshrub01.mtl
v -0.40359410643577576 1.2127891778945923 -0.7240239381790161
v -0.05092989280819893 1.5493799448013306 0.010665621608495712
v -0.05092999339103699 -0.22369509935379028 0.010665733367204666
v -0.40673771500587463 1.2127894163131714 0.746813952922821
v 0.6889795660972595 1.2127892971038818 0.010665628127753735
v 0.3663232922554016 1.2474170923233032 -0.799637496471405
v -0.07672524452209473 1.5594078302383423 -0.04898112267255783
v 0.4226321280002594 1.6876189708709717 -0.9579187035560608
v 0.7797386646270752 1.1593990325927734 0.0023454013280570507
v -0.07672524452209473 1.5594078302383423 -0.04898112267255783
v 1.0237270593643188 1.4692670106887817 -0.06052623316645622
v -0.8739221692085266 1.1593992710113525 0.002345433458685875
v -1.2041975259780884 1.7512156963348389 0.07348570972681046
v -0.46050718426704407 1.159399151802063 -0.7996378540992737
v -0.598543643951416 1.5116565227508545 -0.961908221244812
v 0.366323322057724 1.159399151802063 0.8043283224105835
v 0.5284522175788879 1.7401835918426514 1.0310066938400269
v 0.5636125206947327 -0.23946145176887512 0.010790909640491009
v -0.3348475396633148 -0.23946161568164825 -0.5397109389305115
v -0.0509256087243557 0.5223167538642883 0.010791026055812836
v -0.33967021107673645 -0.23946161568164825 0.5612930655479431
v -0.3348475396633148 -0.23946161568164825 -0.5397109389305115
v -0.8739221692085266 1.1593992710113525 0.002345433458685875
v -0.4605071246623993 1.2474173307418823 0.8043281435966492
v -0.07672524452209473 1.5594078302383423 -0.04898112267255783
v -0.46050718426704407 1.159399151802063 -0.7996378540992737
v 0.3663232922554016 1.2474170923233032 -0.799637496471405
v 1.0878217220306396 0.8011952638626099 0.006079646293073893
v 0.5214428901672363 0.601020097732544 -0.9749172925949097
v 0.7797386646270752 1.1593990325927734 0.0023454013280570507
v 0.366323322057724 1.159399151802063 0.8043283224105835
v -0.6113149523735046 0.8011953234672546 -0.9749176502227783
v -1.1776936054229736 0.6010201573371887 0.006079705897718668
v -0.6113149523735046 0.801195502281189 0.987076461315155
v 0.5214428901672363 0.6010201573371887 0.9870765805244446
v -0.4605071246623993 1.2474173307418823 0.8043281435966492
v -0.5477569699287415 1.5067411661148071 1.045066475868225
vn 0.9015167951583862 -5.834190375253456e-8 -0.43274417519569397
vn 0.8748701810836792 -6.075669745086998e-8 -0.4843575358390808
vn 0.8748701810836792 -6.075669745086998e-8 -0.4843575358390808
vn 0.9003476500511169 -2.521543640554569e-9 0.43517136573791504
vn -3.576689877604622e-8 -6.426981258300657e-8 -1
vn 0.22519971430301666 0.7012822031974792 -0.6763788461685181
vn 0.01632058434188366 0.9994844794273376 -0.027648093178868294
vn -0.8708242177963257 -0.06386961787939072 -0.4874277710914612
vn 0.6877537965774536 0.7231076955795288 -0.06410921365022659
vn 0.01632058434188366 0.9994844794273376 -0.027648093178868294
vn -0.025045245885849 -0.17980603873729706 -0.9833831787109375
vn -0.7132557034492493 0.6922980546951294 0.10949758440256119
vn 0.09675334393978119 -0.06538888812065125 0.9931581616401672
vn -0.4938814043998718 0.6602492928504944 -0.5658197999000549
vn -0.8606563806533813 -0.10803884267807007 0.49759235978126526
vn 0.5274243950843811 0.6457844376564026 0.5520742535591125
vn 0.8749852776527405 -0.05658980458974838 -0.4808308780193329
vn 0.7783120274543762 0.6278762817382812 0.0013000264298170805
vn -0.3872148096561432 0.6304718255996704 -0.6727331876754761
vn 0.022370414808392525 0.9997472763061523 -0.002212207531556487
vn -0.3901049792766571 0.6318636536598206 0.669750988483429
vn -0.3872148096561432 0.6304718255996704 -0.6727331876754761
vn -0.7132557034492493 0.6922980546951294 0.10949758440256119
vn -0.2480955719947815 0.7339069247245789 0.6323205232620239
vn 0.01632058434188366 0.9994844794273376 -0.027648093178868294
vn -0.4938814043998718 0.6602492928504944 -0.5658197999000549
vn 0.22519971430301666 0.7012822031974792 -0.6763788461685181
vn 0.81245356798172 0.5696111917495728 -0.12434755265712738
vn 0.3054238557815552 0.3665337860584259 -0.8788453936576843
vn 0.6877537965774536 0.7231076955795288 -0.06410921365022659
vn 0.5274243950843811 0.6457844376564026 0.5520742535591125
vn -0.5700905323028564 0.5183940529823303 -0.6373887062072754
vn -0.8722677826881409 0.4704623818397522 0.13346926867961884
vn -0.274492084980011 0.42907053232192993 0.8605536222457886
vn 0.5643182396888733 0.4630067050457001 0.6834981441497803
vn -0.2480955719947815 0.7339069247245789 0.6323205232620239
vn 0.9180386066436768 -0.055566832423210144 0.3925778865814209
vt 0.8971754312515259 1.3099685907363892
vt 1.0169687271118164 0.29475492238998413
vt -0.011105179786682129 0.29974043369293213
vt 0.8971755504608154 1.3099684119224548
vt 0.8971754312515259 1.3099684119224548
vt 0.6428255438804626 0.37604033946990967
vt 0.01912449300289154 0.9816167950630188
vt 0.8596470355987549 0.556679368019104
vt 0.6406369209289551 0.37689805030822754
vt 0.01643700897693634 0.9840235114097595
vt 0.8555265665054321 0.5547413229942322
vt 0.6360985040664673 0.38094866275787354
vt 0.857387900352478 0.5568427443504333
vt 0.6391838788986206 0.3754544258117676
vt 0.8533178567886353 0.5574212670326233
vt 0.6375514268875122 0.372730553150177
vt 0.854831337928772 0.5544669032096863
vt 0.49624869227409363 0.993253231048584
vt 0.9945405721664429 0.9932531118392944
vt 0.9938188791275024 0.46809959411621094
vt 0.9928328394889832 0.9932531118392944
vt 0.49917837977409363 0.9932531714439392
vt 0.6201796531677246 0.39689719676971436
vt 0.0028117746114730835 0.2646258473396301
vt 0.004363223910331726 0.9907369017601013
vt 0.003463849425315857 0.26516789197921753
vt 0.6203111410140991 0.3940519094467163
vt 0.004469271749258041 0.010889828205108643
vt 0.9930843114852905 0.012623369693756104
vt 0.004916980862617493 0.2666115164756775
vt 0.6216325759887695 0.38867902755737305
vt 0.002199198817834258 0.01276540756225586
vt 0.9930652379989624 0.014310479164123535
vt 0.0024764498230069876 0.010161399841308594
vt 0.9933614730834961 0.019681334495544434
vt 0.6436160206794739 0.37873148918151855
vt 0.8602128028869629 0.5539767742156982
g Geoset0
s 1
usemtl mat_wetlandsshrubbbranch
f 1/1/1 2/2/2 3/3/3
f 2/2/2 4/4/4 3/3/3
f 3/3/3 2/2/2 5/5/5
g Geoset1
s 1
usemtl mat_leaves
f 6/6/6 7/7/7 8/8/8
f 9/9/9 10/10/10 11/11/11
f 12/12/12 10/10/10 13/13/13
f 14/14/14 10/10/10 15/15/15
f 16/16/16 10/10/10 17/17/17
f 18/18/18 19/19/19 20/20/20
f 21/21/21 18/18/18 20/20/20
f 22/22/22 21/21/21 20/20/20
f 23/23/23 24/24/24 25/25/25
f 26/26/26 23/23/23 25/25/25
f 27/27/27 26/26/26 25/25/25
f 28/28/28 29/29/29 27/27/27
f 27/27/27 30/30/30 28/28/28
f 30/30/30 27/27/27 25/25/25
f 31/31/31 30/30/30 25/25/25
f 24/24/24 31/31/31 25/25/25
f 26/26/26 27/27/27 29/29/29
f 29/29/29 32/32/32 26/26/26
f 23/23/23 26/26/26 32/32/32
f 32/32/32 33/33/33 23/23/23
f 24/24/24 23/23/23 33/33/33
f 33/33/33 34/34/34 24/24/24
f 31/31/31 24/24/24 34/34/34
f 34/34/34 35/35/35 31/31/31
f 30/30/30 31/31/31 35/35/35
f 35/35/35 28/28/28 30/30/30
f 36/36/36 7/7/7 37/37/37
