# Exported using wow.export v0.1.64
o wetlandsshurb08
mtllib wetlandsshurb08.mtl
v 1.8877007961273193 -0.137637659907341 1.127886414527893
v -0.6940283179283142 -0.13763785362243652 -7.934311866760254
v -0.9533287882804871 3.6394054889678955 -7.864832401275635
v -0.5172196626663208 -0.13763754069805145 10.205628395080566
v 0.2684487998485565 3.6394054889678955 2.9892611503601074
v -0.24877119064331055 3.6394054889678955 10.205628395080566
v 7.161941084632417e-7 -0.13763804733753204 2.9892609119415283
v -0.7864092588424683 3.639404296875 -1.2438907623291016
v 7.161941084632417e-7 -0.13763804733753204 2.9892609119415283
v -1.0548568964004517 -0.13763780891895294 -1.2438911199569702
v 0.2684487998485565 3.6394054889678955 2.9892611503601074
v 2.156148910522461 3.639404773712158 1.1278866529464722
v 1.8877007961273193 -0.137637659907341 1.127886414527893
v -0.6940283179283142 -0.13763785362243652 -7.934311866760254
v -0.4339708089828491 -0.13763757050037384 -11.039420127868652
v -0.6932712197303772 3.639403820037842 -10.969941139221191
v -0.9533287882804871 3.6394054889678955 -7.864832401275635
v -3.2584662437438965 3.639404773712158 -9.174209594726562
v -2.9991657733917236 -0.13763763010501862 -9.243688583374023
v 1.4454851150512695 -0.13763730227947235 11.439473152160645
v 1.6918213367462158 2.7862658500671387 6.597445011138916
v 1.713932752609253 2.663233518600464 11.439473152160645
v 1.4233733415603638 -0.13763807713985443 6.597445011138916
v -0.5172196626663208 -0.13763754069805145 10.205628395080566
v 0.2684487998485565 3.6394054889678955 2.9892611503601074
v 7.161941084632417e-7 -0.13763804733753204 2.9892609119415283
v -1.5399881601333618 -0.1376381814479828 5.727320671081543
v -1.2715401649475098 2.7862656116485596 5.727320671081543
v -0.24877119064331055 3.6394054889678955 10.205628395080566
v -0.9533287882804871 3.6394054889678955 -7.864832401275635
v -0.7864092588424683 3.639404296875 -1.2438907623291016
v -1.0548568964004517 -0.13763780891895294 -1.2438911199569702
v 1.8877007961273193 -0.137637659907341 1.127886414527893
v -0.6940283179283142 -0.13763785362243652 -7.934311866760254
v 1.5021491050720215 -0.13763804733753204 -5.688128471374512
v 1.2428486347198486 2.7862656116485596 -5.618649005889893
v 2.156148910522461 3.639404773712158 1.1278866529464722
v 2.156148910522461 3.639404773712158 1.1278866529464722
vn 0.9525367021560669 -0.018033530563116074 -0.3038891553878784
vn 0.8913843631744385 0.06855375319719315 -0.44803386926651
vn 0.9084954857826233 0.03410658612847328 -0.4165005385875702
vn 0.9832145571708679 -0.07562293112277985 0.1660432070493698
vn 0.9852139353752136 -0.07425782084465027 0.15439976751804352
vn 0.982852041721344 -0.06906289607286453 0.17097409069538116
vn 0.9707727432250977 -0.06810985505580902 0.23013323545455933
vn 0.8659719228744507 -0.06194934993982315 -0.4962407946586609
vn 0.9707727432250977 -0.06810985505580902 0.23013323545455933
vn 0.9564751386642456 -0.03112258017063141 -0.29014936089515686
vn 0.9852139353752136 -0.07425782084465027 0.15439976751804352
vn 0.9952543377876282 -0.07011383771896362 0.06747516244649887
vn 0.9525367021560669 -0.018033530563116074 -0.3038891553878784
vn 0.8913843631744385 0.06855375319719315 -0.44803386926651
vn 0.9886788129806519 0.06565859913825989 0.1349191963672638
vn 0.9886788129806519 0.06565859913825989 0.1349191963672638
vn 0.9084954857826233 0.03410658612847328 -0.4165005385875702
vn 0.40425097942352295 0.042758554220199585 -0.9136481285095215
vn 0.4042509198188782 0.04275854304432869 -0.9136481285095215
vn 0.9953562021255493 -0.09266309440135956 0.026068925857543945
vn 0.981963574886322 -0.08634136617183685 0.16820445656776428
vn 0.9952079653739929 -0.09464408457279205 0.024568334221839905
vn 0.9939020276069641 -0.08556260913610458 -0.06955433636903763
vn 0.9832145571708679 -0.07562293112277985 0.1660432070493698
vn 0.9852139353752136 -0.07425782084465027 0.15439976751804352
vn 0.9707727432250977 -0.06810985505580902 0.23013323545455933
vn 0.9401336908340454 -0.0789635106921196 0.33153191208839417
vn 0.9957519769668579 -0.08348974585533142 0.0388253778219223
vn 0.982852041721344 -0.06906289607286453 0.17097409069538116
vn 0.9084954857826233 0.03410658612847328 -0.4165005385875702
vn 0.8659719228744507 -0.06194934993982315 -0.4962407946586609
vn 0.9564751386642456 -0.03112258017063141 -0.29014936089515686
vn 0.9525367021560669 -0.018033530563116074 -0.3038891553878784
vn 0.8913843631744385 0.06855375319719315 -0.44803386926651
vn 0.8165497779846191 0.07850764691829681 -0.5719117522239685
vn 0.9409000277519226 0.03419500216841698 -0.3369538187980652
vn 0.9952543377876282 -0.07011383771896362 0.06747516244649887
vn 0.9952543377876282 -0.07011383771896362 0.06747516244649887
vt 0.7894740104675293 0.5
vt 2.4118740558624268 0.5
vt 2.4118740558624268 1
vt 0.7894740104675293 0.5
vt 2.4118740558624268 1
vt 0.7894740104675293 1
vt 2.4118740558624268 0.5
vt 0.9951691031455994 1
vt 0.4975845217704773 0.5
vt 0.9951691031455994 0.5
vt 0.4975845217704773 1
vt 0 1
vt 0 0.5
vt 0.4975845217704773 0.5
vt 0.9951691031455994 0.5
vt 0.9951691031455994 1
vt 0.4975845217704773 1
vt 0 1
vt 0 0.5
vt -0.016996711492538452 0.4980844259262085
vt 0.7933930158615112 0.9995002746582031
vt -0.016996413469314575 0.9995003938674927
vt 0.7933926582336426 0.49808424711227417
vt -0.016996711492538452 0.4980844259262085
vt 1.603782296180725 0.9995000958442688
vt 1.6037819385528564 0.4980841279029846
vt 0.7933926582336426 0.49808424711227417
vt 0.7933930158615112 0.9995002746582031
vt -0.016996413469314575 0.9995003938674927
vt 1.603782296180725 0.9995000958442688
vt 0.7933930158615112 0.9995002746582031
vt 0.7933926582336426 0.49808424711227417
vt -0.016996711492538452 0.4980844259262085
vt 1.6037819385528564 0.4980841279029846
vt 0.7933926582336426 0.49808424711227417
vt 0.7933930158615112 0.9995002746582031
vt -0.016996413469314575 0.9995003938674927
vt 0.7894740104675293 1
g Geoset0
s 1
usemtl mat_wetlandstallgrassfull
f 1/1/1 2/2/2 3/3/3
f 4/4/4 5/5/5 6/6/6
f 5/5/5 4/4/4 7/7/7
f 8/8/8 9/9/9 10/10/10
f 9/9/9 8/8/8 11/11/11
f 9/9/9 12/12/12 11/11/11
f 12/12/12 9/9/9 13/13/13
f 14/14/14 15/15/15 16/16/16
f 16/16/16 17/17/17 14/14/14
f 18/18/18 17/17/17 14/14/14
f 14/14/14 19/19/19 18/18/18
f 20/20/20 21/21/21 22/22/22
f 21/21/21 20/20/20 23/23/23
f 21/21/21 24/24/24 23/23/23
f 23/23/23 25/25/25 21/21/21
f 25/25/25 23/23/23 26/26/26
f 25/25/25 27/27/27 26/26/26
f 27/27/27 25/25/25 28/28/28
f 28/28/28 24/24/24 27/27/27
f 24/24/24 28/28/28 29/29/29
f 24/24/24 21/21/21 29/29/29
f 30/30/30 31/31/31 32/32/32
f 33/33/33 32/32/32 31/31/31
f 32/32/32 34/34/34 30/30/30
f 35/35/35 34/34/34 30/30/30
f 30/30/30 36/36/36 35/35/35
f 33/33/33 35/35/35 36/36/36
f 36/36/36 37/37/37 33/33/33
f 31/31/31 37/37/37 33/33/33
f 3/3/3 38/38/38 1/1/1
