# Exported using wow.export v0.1.64
o wetlandshrub02
mtllib wetlandshrub02.mtl
v 0.12108615785837173 -0.03748937323689461 -0.2619256377220154
v -0.09242841601371765 -0.03748937323689461 -0.2590758800506592
v -0.26327386498451233 1.9110018014907837 -0.7419027090072632
v -0.2416820228099823 0.3731054365634918 -0.4884098470211029
v -0.6028712391853333 0.3731054365634918 -0.0025502012576907873
v -1.1507524251937866 1.2616058588027954 0.14902710914611816
v -0.5683687329292297 1.471140742301941 -0.891926109790802
v 0.38102951645851135 0.3731054365634918 -0.32405024766921997
v 0.9967001676559448 1.2616056203842163 -0.7221271991729736
v 0.38102951645851135 0.3731054365634918 0.1551874727010727
v 0.9967002868652344 1.4711405038833618 0.553264319896698
v 0.010432050563395023 0.37310531735420227 0.3948064148426056
v 0.010432138107717037 1.3664476871490479 1.190960168838501
v -0.6028712391853333 0.3731054365634918 -0.0025502012576907873
v -1.1507524251937866 1.2616058588027954 0.14902710914611816
v -0.6236048936843872 -0.09446146339178085 -0.04946976900100708
v 0.010432098060846329 -0.09446147829294205 0.4810691475868225
v 0.4477371275424957 -0.09446150809526443 0.19831886887550354
v 0.44773706793785095 -0.09446150809526443 -0.367181658744812
v -0.14069585502147675 -0.09446147829294205 -0.5508320927619934
v -0.6236048936843872 -0.09446146339178085 -0.04946976900100708
v -0.09242841601371765 -0.03748937323689461 -0.2590758800506592
v -0.6909210085868835 1.9110018014907837 0.32563430070877075
v -0.26327386498451233 1.9110018014907837 -0.7419027090072632
v -0.16566455364227295 -0.03748937323689461 0.02004493586719036
v -0.00381871429271996 1.6888477802276611 0.8929134011268616
v 0.011037647724151611 -0.03748937323689461 0.16593220829963684
v 0.6832836270332336 1.7442084550857544 0.3256341814994812
v 0.18773983418941498 -0.03748937323689461 0.020044898614287376
v 0.4613327383995056 2.1538760662078857 -0.7562912106513977
vn 0.35862183570861816 -0.5232099890708923 -0.7730728983879089
vn -0.6677739024162292 -0.4886413514614105 -0.5615226626396179
vn -0.3101441562175751 -0.49439123272895813 -0.8120270371437073
vn -0.41663071513175964 -0.15106599032878876 -0.8964362144470215
vn -0.9696057438850403 -0.23058749735355377 0.08181757479906082
vn -0.9337552189826965 -0.3457202911376953 -0.09262092411518097
vn -0.23501329123973846 -0.41058456897735596 -0.881015956401825
vn 0.8437979817390442 -0.15446659922599792 -0.5139504671096802
vn 0.8308006525039673 -0.47197189927101135 -0.29497936367988586
vn 0.9211734533309937 -0.15617404878139496 0.35643959045410156
vn 0.7985393404960632 -0.4320752024650574 0.419101357460022
vn -0.037402547895908356 -0.29908594489097595 0.9534928798675537
vn -0.3107084035873413 -0.5769854784011841 0.7553462982177734
vn -0.9696057438850403 -0.23058749735355377 0.08181757479906082
vn -0.9337552189826965 -0.3457202911376953 -0.09262092411518097
vn -0.9543190002441406 0.054696641862392426 0.29374048113822937
vn 0.2920873463153839 0.1735190749168396 0.9405190944671631
vn 0.9694828391075134 0.10525631904602051 0.22141404449939728
vn 0.7475623488426208 0.1456659734249115 -0.6480215787887573
vn -0.632091224193573 0.07371488958597183 -0.771379828453064
vn -0.9543190002441406 0.054696641862392426 0.29374048113822937
vn -0.6677739024162292 -0.4886413514614105 -0.5615226626396179
vn -0.8638406991958618 -0.5033504366874695 0.020434856414794922
vn -0.3101441562175751 -0.49439123272895813 -0.8120270371437073
vn -0.7213999032974243 -0.5807285308837891 0.37727513909339905
vn -0.21643215417861938 -0.6603619456291199 0.7190821766853333
vn 0.20798490941524506 -0.6573323011398315 0.7243317365646362
vn 0.7154940962791443 -0.5825021266937256 0.3856934905052185
vn 0.8482397794723511 -0.524262011051178 0.075090691447258
vn 0.692858099937439 -0.49834057688713074 -0.5211567282676697
vt 0.9825419783592224 0.0004994869232177734
vt 1.382971167564392 0.0004994869232177734
vt 1.3819248676300049 1.0054761171340942
vt 1.2422531843185425 0.29885101318359375
vt 1.6300930976867676 0.29885101318359375
vt 1.6325689554214478 1.001063346862793
vt 1.2446156740188599 1.0019158124923706
vt 0.8528637290000916 0.29885101318359375
vt 0.8497152328491211 1.0010631084442139
vt 0.4618953466415405 0.29885101318359375
vt 0.46280157566070557 1.001915693283081
vt 0.04766199365258217 0.298850953578949
vt 0.04940361902117729 1.0003293752670288
vt -0.36523741483688354 0.29885101318359375
vt -0.36406072974205017 1.001063346862793
vt -0.36299407482147217 0.0004994869232177734
vt 0.044920746237039566 0.0004994869232177734
vt 0.4657337963581085 0.0004994869232177734
vt 0.8533509373664856 0.0004994869232177734
vt 1.2455984354019165 0.0004994869232177734
vt 1.6323363780975342 0.0004994869232177734
vt -0.6112361550331116 0.0004994869232177734
vt -0.19378156960010529 1.0054761171340942
vt -0.6122824549674988 1.0054761171340942
vt -0.19588211178779602 0.0004994869232177734
vt 0.20583254098892212 1.0032342672348022
vt 0.20583246648311615 0.0004994869232177734
vt 0.6087014675140381 1.0043174028396606
vt 0.6075472235679626 0.0004994869232177734
vt 0.9835034608840942 1.0050865411758423
g Geoset0
s 1
usemtl mat_leaves2
f 1/1/1 2/2/2 3/3/3
f 4/4/4 5/5/5 6/6/6
f 4/4/4 6/6/6 7/7/7
f 8/8/8 4/4/4 7/7/7
f 8/8/8 7/7/7 9/9/9
f 10/10/10 8/8/8 9/9/9
f 10/10/10 9/9/9 11/11/11
f 12/12/12 10/10/10 11/11/11
f 12/12/12 11/11/11 13/13/13
f 14/14/14 12/12/12 13/13/13
f 14/14/14 13/13/13 15/15/15
f 16/16/16 12/12/12 14/14/14
f 16/16/16 17/17/17 12/12/12
f 17/17/17 10/10/10 12/12/12
f 17/17/17 18/18/18 10/10/10
f 18/18/18 8/8/8 10/10/10
f 18/18/18 19/19/19 8/8/8
f 19/19/19 4/4/4 8/8/8
f 19/19/19 20/20/20 4/4/4
f 20/20/20 5/5/5 4/4/4
f 20/20/20 21/21/21 5/5/5
f 22/22/22 23/23/23 24/24/24
f 22/22/22 25/25/25 23/23/23
f 25/25/25 26/26/26 23/23/23
f 25/25/25 27/27/27 26/26/26
f 27/27/27 28/28/28 26/26/26
f 27/27/27 29/29/29 28/28/28
f 29/29/29 30/30/30 28/28/28
f 29/29/29 1/1/1 30/30/30
f 1/1/1 3/3/3 30/30/30
