# Exported using wow.export v0.1.64
o fishskel02
mtllib fishskel02.mtl
v 0.07667379081249237 0.04578963667154312 0.2784031629562378
v 0.028936326503753662 0.08310244977474213 0.2333570271730423
v 0.06504885852336884 0.015480435453355312 0.22592070698738098
v -0.010557000525295734 0.12686307728290558 0.09697558730840683
v 0.09556068480014801 0.09058430045843124 0.1349451094865799
v 0.025555532425642014 0.05924106389284134 0.08953926712274551
v 0.06166806444525719 -0.008380945771932602 0.0821029469370842
v -0.07300448417663574 -0.0003359437978360802 0.13892929255962372
v 0.05988674238324165 0.03551997244358063 0.11219680309295654
v 0.052067164331674576 0.026878466829657555 0.1000789999961853
v 0.06427019834518433 0.022388672456145287 0.051776815205812454
v 0.11088163405656815 0.0677318125963211 0.09027782827615738
v 0.07262919843196869 0.0460478775203228 0.11723778396844864
v 0.09790022671222687 0.04839795082807541 0.05573023855686188
v 0.027500035241246223 0.09606435894966125 0.12077844142913818
v 0.04388538748025894 0.09976878762245178 0.1251092404127121
v 0.08020497113466263 0.12516029179096222 0.09686301648616791
v 0.054212648421525955 0.13034409284591675 0.06204672530293465
v 0.013653133995831013 0.11734651029109955 0.05883070454001427
v 0.014650626108050346 0.09687283635139465 0.10909456759691238
v 0.009170682169497013 0.02599187009036541 -0.24576862156391144
v -0.05538904666900635 -0.014137998223304749 -0.2690516412258148
v -0.022658614441752434 0.02668314427137375 -0.16379427909851074
v 0.02145402878522873 0.049857672303915024 -0.16405971348285675
v 0.110524483025074 0.06640050560235977 -0.28964415192604065
v -0.0055090561509132385 0.03709115833044052 -0.15523405373096466
v 0.028936326503753662 0.08310244977474213 0.2333570271730423
v -0.010557000525295734 0.12686307728290558 0.09697558730840683
v -0.07300448417663574 -0.0003359437978360802 0.13892929255962372
v 0.013954982161521912 0.010578026063740253 0.2824290990829468
v 0.06166806444525719 -0.008380945771932602 0.0821029469370842
v 0.06504885852336884 0.015480435453355312 0.22592070698738098
v 0.09556068480014801 0.09058430045843124 0.1349451094865799
v 0.07667379081249237 0.04578963667154312 0.2784031629562378
v -0.01914038509130478 0.04040451720356941 -0.04618709161877632
v 0.02596437744796276 0.041557300835847855 -0.16320499777793884
v -0.0055090561509132385 0.03709115833044052 -0.15523405373096466
v 0.04704558849334717 0.03401370719075203 -0.0703054890036583
v -0.017821500077843666 0.039893727749586105 0.04574863612651825
v 0.12185013294219971 0.05871426314115524 0.010882521979510784
v 0.09378276765346527 0.062061555683612823 0.11733529716730118
v 0.017239773645997047 0.058134231716394424 -0.16598720848560333
v -0.022658614441752434 0.02668314427137375 -0.16379427909851074
v -0.06358630210161209 0.016330119222402573 -0.058522239327430725
v 0.01391109824180603 0.09663509577512741 -0.07448342442512512
v -0.09866385906934738 -0.002847741823643446 0.04050536826252937
v 0.06905737519264221 0.10828123986721039 0.1239347979426384
v 0.0746404156088829 0.14751867949962616 0.012905867770314217
v 0.003440854139626026 0.03868964686989784 0.15008769929409027
v -0.06841882318258286 0.0024515509139746428 0.13694003224372864
v 0.013954982161521912 0.010578026063740253 0.2824290990829468
vn 0.5713167786598206 0.042366787791252136 0.8196353912353516
vn -0.2707405686378479 0.6997625827789307 0.6610838770866394
vn 0.5198372006416321 -0.7765798568725586 0.3559395670890808
vn -0.24605831503868103 0.7961165904998779 -0.5528596043586731
vn 0.8492075800895691 0.4442213177680969 -0.2855064272880554
vn 0.011995829641819 0.1156296506524086 -0.9932199716567993
vn 0.4496268033981323 -0.5189481377601624 -0.7269997000694275
vn -0.8295977711677551 -0.46344873309135437 -0.3114207088947296
vn 0.5761083364486694 -0.7905164361000061 0.2078050822019577
vn 0.5550159215927124 -0.8035973906517029 0.21491512656211853
vn 0.5685800313949585 -0.7943357825279236 0.2138863503932953
vn 0.5835742354393005 -0.7866114974021912 0.2017013132572174
vn 0.5807738900184631 -0.7923561930656433 0.18674401938915253
vn 0.584108829498291 -0.7827637791633606 0.2147037833929062
vn -0.3013286590576172 0.8768558502197266 0.37459954619407654
vn -0.3005481958389282 0.8684702515602112 0.3942464292049408
vn -0.3086169958114624 0.8717731237411499 0.38048282265663147
vn -0.31329575181007385 0.8752933740615845 0.3683846890926361
vn -0.29400601983070374 0.8818390965461731 0.3686735928058624
vn -0.2779421806335449 0.8876886963844299 0.3670925498008728
vn -0.45368728041648865 0.8716076612472534 -0.18565557897090912
vn -0.4682946503162384 0.8630977272987366 -0.18910951912403107
vn -0.4634495973587036 0.8755401372909546 -0.1365428864955902
vn -0.45149749517440796 0.8724656701087952 -0.18695884943008423
vn -0.43400028347969055 0.8802459239959717 -0.19186165928840637
vn -0.460036039352417 0.8792030811309814 -0.12397076189517975
vn -0.2707405686378479 0.6997625827789307 0.6610838770866394
vn -0.24605831503868103 0.7961165904998779 -0.5528596043586731
vn -0.8295977711677551 -0.46344873309135437 -0.3114207088947296
vn 0.022679800167679787 -0.21283873915672302 0.9768241047859192
vn 0.4496268033981323 -0.5189481377601624 -0.7269997000694275
vn 0.5198372006416321 -0.7765798568725586 0.3559395670890808
vn 0.8492075800895691 0.4442213177680969 -0.2855064272880554
vn 0.5713167786598206 0.042366787791252136 0.8196353912353516
vn -0.46440446376800537 0.8838646411895752 -0.05578351020812988
vn -0.01866002380847931 0.9998223781585693 0.0026569650508463383
vn -0.460036039352417 0.8792030811309814 -0.12397076189517975
vn 0.015537403523921967 0.9994739294052124 -0.028469262644648552
vn -0.4691779911518097 0.881737470626831 0.049102168530225754
vn -0.15892399847507477 0.9814934134483337 -0.10683532059192657
vn -0.19092941284179688 0.9815835356712341 -0.0063008214347064495
vn -0.8066191673278809 0.5687862634658813 -0.16077210009098053
vn -0.4634495973587036 0.8755401372909546 -0.1365428864955902
vn -0.4676665663719177 0.8835738301277161 -0.024192027747631073
vn -0.840455949306488 0.5413488149642944 -0.023984331637620926
vn -0.4694102108478546 0.8814215660095215 0.05244087800383568
vn -0.7016209363937378 0.6905748248100281 0.17559757828712463
vn -0.7235614061355591 0.6710138916969299 0.16186177730560303
vn -0.4730472266674042 0.8745776414871216 0.10649075359106064
vn -0.4665554463863373 0.87860506772995 0.1018783301115036
vn 0.022679800167679787 -0.21283873915672302 0.9768241047859192
vt 0.78125 0.1328125
vt 0.984375 0.21875
vt 0.984375 0.015625
vt 0.796875 0.6171875
vt 0.984375 0.3046875
vt 0.984375 0.6171875
vt 0.796875 0.6171875
vt 0.984375 0.3046875
vt 0.0004994869232177734 0.6179227232933044
vt 0.04125646874308586 0.4864346981048584
vt 0.7102308869361877 0.29916906356811523
vt 0.7089501619338989 0.2976009249687195
vt 0.03038848750293255 0.48661184310913086
vt 0.7355450987815857 0.6179227232933044
vt 0.0004994869232177734 0.6179227232933044
vt 0.03038848750293255 0.48661184310913086
vt 0.7089501619338989 0.2976009249687195
vt 0.7355450987815857 0.6179227232933044
vt 0.7102308869361877 0.29916906356811523
vt 0.04125646874308586 0.4864346981048584
vt 0.7015806436538696 0.6231883764266968
vt 0.7525126338005066 0.3086792826652527
vt 0.022037556394934654 0.4883762001991272
vt 0.023152953013777733 0.4807649850845337
vt 0.7525126338005066 0.3072627782821655
vt 0.0004993081092834473 0.6231883764266968
vt 0.515625 0.109375
vt 0.03125 0.1875
vt 0.15625 0.3984375
vt 0.7241076231002808 0.23761534690856934
vt 0.03125 0.1875
vt 0.515625 0.109375
vt 0.140625 0.0234375
vt 0.71875 0.0859375
vt 2 0.6299999952316284
vt 3.7522125244140625 0.9919999837875366
vt 3.7522125244140625 0.6299999952316284
vt 2 0.9919999837875366
vt 1 0.6299999952316284
vt 1 0.9919999837875366
vt 0 0.9919999837875366
vt 3.7522125244140625 0.9919999837875366
vt 3.7522125244140625 0.9919999837875366
vt 2 0.9919999837875366
vt 2 0.9919999837875366
vt 1 0.9919999837875366
vt 0 0.9919999837875366
vt 1 0.9919999837875366
vt 0 0.6299999952316284
vt 0 0.9919999837875366
vt 0.78125 0.1328125
g Geoset0
s 1
usemtl mat_fishskel02
f 1/1/1 2/2/2 3/3/3
f 4/4/4 5/5/5 6/6/6
f 5/5/5 7/7/7 6/6/6
f 8/8/8 6/6/6 7/7/7
f 8/8/8 4/4/4 6/6/6
f 9/9/9 10/10/10 11/11/11
f 12/12/12 13/13/13 9/9/9
f 9/9/9 14/14/14 12/12/12
f 11/11/11 14/14/14 9/9/9
f 15/15/15 16/16/16 17/17/17
f 17/17/17 18/18/18 15/15/15
f 15/15/15 18/18/18 19/19/19
f 19/19/19 20/20/20 15/15/15
f 21/21/21 22/22/22 23/23/23
f 24/24/24 25/25/25 21/21/21
f 21/21/21 26/26/26 24/24/24
f 23/23/23 26/26/26 21/21/21
f 27/27/27 28/28/28 29/29/29
f 29/29/29 30/30/30 27/27/27
f 29/29/29 31/31/31 32/32/32
f 32/32/32 30/30/30 29/29/29
f 33/33/33 34/34/34 32/32/32
f 32/32/32 31/31/31 33/33/33
f 27/27/27 34/34/34 33/33/33
f 33/33/33 28/28/28 27/27/27
f 35/35/35 36/36/36 37/37/37
f 35/35/35 38/38/38 36/36/36
f 35/35/35 39/39/39 38/38/38
f 39/39/39 40/40/40 38/38/38
f 39/39/39 41/41/41 40/40/40
f 42/42/42 37/37/37 35/35/35
f 35/35/35 37/37/37 43/43/43
f 43/43/43 44/44/44 35/35/35
f 35/35/35 45/45/45 42/42/42
f 45/45/45 35/35/35 39/39/39
f 39/39/39 35/35/35 44/44/44
f 44/44/44 46/46/46 39/39/39
f 47/47/47 48/48/48 39/39/39
f 39/39/39 48/48/48 45/45/45
f 49/49/49 41/41/41 39/39/39
f 39/39/39 46/46/46 50/50/50
f 50/50/50 49/49/49 39/39/39
f 39/39/39 49/49/49 47/47/47
f 2/2/2 51/51/51 3/3/3
