# Exported using wow.export v0.1.64
o fishskel01
mtllib fishskel01.mtl
v 0.018207352608442307 0.11924485117197037 0.06111972779035568
v 0.019204849377274513 0.09877118468284607 0.11138363927602768
v 0.03205426037311554 0.09796271473169327 0.12306751310825348
v 0.06444097310304642 0.037418317049741745 0.11448587477207184
v 0.11543586850166321 0.06963016092777252 0.09256687015295029
v 0.07718341797590256 0.047946225851774216 0.11952684074640274
v 0.06882443279027939 0.024287015199661255 0.05406583473086357
v 0.05662139132618904 0.02877681516110897 0.10236804187297821
v 0.10245446115732193 0.050296299159526825 0.058019254356622696
v 0.021454034373164177 0.04985766485333443 -0.16405974328517914
v 0.009170693345367908 0.025991855189204216 -0.2457686811685562
v -0.005509048700332642 0.03709115460515022 -0.15523409843444824
v 0.1105244904756546 0.06640048325061798 -0.2896442413330078
v -0.022658606991171837 0.026683134958148003 -0.16379432380199432
v -0.055389031767845154 -0.01413801684975624 -0.2690517008304596
v 0.013958637602627277 0.010579092428088188 0.28242912888526917
v 0.07667719572782516 0.04579104483127594 0.27840229868888855
v -0.010556252673268318 0.12686334550380707 0.09697547554969788
v -0.07300250232219696 -0.0003358700196258724 0.13893038034439087
v 0.09556208550930023 0.09058531373739243 0.13494384288787842
v 0.06166939064860344 -0.008380304090678692 0.08210241049528122
v -0.017821500077843666 0.039893731474876404 0.045748643577098846
v 0.06905736029148102 0.10828125476837158 0.12393482774496078
v 0.07464040815830231 0.14751867949962616 0.012905871495604515
v 0.01391109824180603 0.09663509577512741 -0.07448343932628632
v -0.01914038136601448 0.04040451720356941 -0.04618709906935692
v 0.017239779233932495 0.05813421681523323 -0.16598725318908691
v -0.005509048700332642 0.03709115460515022 -0.15523409843444824
v -0.09866385161876678 -0.002847737167030573 0.04050537943840027
v -0.06841883063316345 0.002451561391353607 0.13694006204605103
v -0.0635862946510315 0.016330117359757423 -0.05852225050330162
v -0.022658606991171837 0.026683134958148003 -0.16379432380199432
v 0.00344084738753736 0.03868965432047844 0.15008774399757385
v 0.09378276020288467 0.06206156313419342 0.11733530461788177
v 0.02596438303589821 0.04155729338526726 -0.16320504248142242
v 0.04704558849334717 0.034013696014881134 -0.0703054815530777
v 0.12185013294219971 0.05871426314115524 0.010882516391575336
v 0.058766867965459824 0.13224244117736816 0.06433575600385666
v 0.0847591981291771 0.12705864012241364 0.09915206581354141
v 0.04843960702419281 0.1016671434044838 0.1273983120918274
vn -0.2940059006214142 0.8818392157554626 0.3686734139919281
vn -0.2779419720172882 0.8876888155937195 0.3670923411846161
vn -0.3013286292552948 0.8768559694290161 0.3745993375778198
vn 0.5761081576347351 -0.7905166149139404 0.20780497789382935
vn 0.583574116230011 -0.7866116166114807 0.20170125365257263
vn 0.5807738304138184 -0.7923562526702881 0.18674397468566895
vn 0.5685797929763794 -0.7943360209465027 0.21388623118400574
vn 0.5550156831741333 -0.803597629070282 0.21491500735282898
vn 0.5841086506843567 -0.7827639579772949 0.21470367908477783
vn -0.4514973759651184 0.8724657893180847 -0.18695880472660065
vn -0.4536871314048767 0.8716077208518982 -0.18565553426742554
vn -0.46003589034080505 0.879203200340271 -0.12397073209285736
vn -0.4340001344680786 0.8802459836006165 -0.1918616145849228
vn -0.4634494483470917 0.8755401968955994 -0.13654285669326782
vn -0.46829453110694885 0.8630978465080261 -0.18910947442054749
vn -0.4452410936355591 -0.38295120000839233 0.8093878626823425
vn 0.7286004424095154 0.29228654503822327 0.6194432973861694
vn -0.34880244731903076 0.8124138712882996 0.4672479033470154
vn -0.7404544353485107 -0.4661542773246765 0.4841771125793457
vn 0.859465479850769 0.44475653767585754 0.25201335549354553
vn 0.5396363735198975 -0.8337167501449585 0.11708506941795349
vn -0.46917787194252014 0.8817375302314758 0.04910215362906456
vn -0.7016207575798035 0.6905749440193176 0.17559756338596344
vn -0.7235612869262695 0.6710140705108643 0.16186176240444183
vn -0.8404558897018433 0.541348934173584 -0.023984331637620926
vn -0.46440428495407104 0.88386470079422 -0.05578349530696869
vn -0.8066190481185913 0.5687864422798157 -0.16077208518981934
vn -0.46003589034080505 0.879203200340271 -0.12397073209285736
vn -0.46941009163856506 0.881421685218811 0.052440863102674484
vn -0.46655529737472534 0.8786051273345947 0.10187830775976181
vn -0.4676664173603058 0.8835738897323608 -0.024192020297050476
vn -0.4634494483470917 0.8755401968955994 -0.13654285669326782
vn -0.47304707765579224 0.8745777010917664 0.10649072378873825
vn -0.1909293234348297 0.9815835356712341 -0.0063008195720613
vn -0.01866001822054386 0.9998223781585693 0.0026569748297333717
vn 0.015537395142018795 0.9994739294052124 -0.028469273820519447
vn -0.15892396867275238 0.9814934730529785 -0.10683531314134598
vn -0.31329575181007385 0.8752934336662292 0.36838456988334656
vn -0.3086169362068176 0.8717731833457947 0.38048264384269714
vn -0.30054816603660583 0.868470311164856 0.39424630999565125
vt 0.9652756452560425 0.29916906356811523
vt 0.04232701659202576 0.4864346981048584
vt 0.0004994869232177734 0.6179227232933044
vt 0.0004994869232177734 0.6179227232933044
vt 0.9635441303253174 0.2976009249687195
vt 0.046128712594509125 0.48661184310913086
vt 0.9652756452560425 0.29916906356811523
vt 0.04232701659202576 0.4864346981048584
vt 0.9995003938674927 0.6179227232933044
vt 0.036745473742485046 0.4807649850845337
vt 0.9322700500488281 0.6231883764266968
vt 0.0004993081092834473 0.6231883764266968
vt 0.9995002746582031 0.3072627782821655
vt 0.035273149609565735 0.4883762001991272
vt 0.9995002746582031 0.3086792826652527
vt 0.9464213252067566 0.24723052978515625
vt 0.9630144834518433 0.07458680868148804
vt 0.012830919586122036 0.2217419147491455
vt 0.16742028295993805 0.4149593114852905
vt 0.0723816454410553 0.008000016212463379
vt 0.012830919586122036 0.2217419147491455
vt 1 0.6299999952316284
vt 0 0.9919999837875366
vt 1 0.9919999837875366
vt 2 0.9919999837875366
vt 2 0.6299999952316284
vt 3.7522125244140625 0.9919999837875366
vt 3.7522125244140625 0.6299999952316284
vt 1 0.9919999837875366
vt 0 0.9919999837875366
vt 2 0.9919999837875366
vt 3.7522125244140625 0.9919999837875366
vt 0 0.6299999952316284
vt 0 0.9919999837875366
vt 3.7522125244140625 0.9919999837875366
vt 2 0.9919999837875366
vt 1 0.9919999837875366
vt 0.9995003938674927 0.6179227232933044
vt 0.9635441303253174 0.2976009249687195
vt 0.046128712594509125 0.48661184310913086
g Geoset0
s 1
usemtl mat_fishskel01
f 1/1/1 2/2/2 3/3/3
f 4/4/4 5/5/5 6/6/6
f 7/7/7 4/4/4 8/8/8
f 4/4/4 7/7/7 9/9/9
f 5/5/5 4/4/4 9/9/9
f 10/10/10 11/11/11 12/12/12
f 11/11/11 10/10/10 13/13/13
f 14/14/14 11/11/11 15/15/15
f 11/11/11 14/14/14 12/12/12
f 16/16/16 17/17/17 18/18/18
f 16/16/16 18/18/18 19/19/19
f 17/17/17 20/20/20 18/18/18
f 17/17/17 21/21/21 20/20/20
f 17/17/17 16/16/16 21/21/21
f 21/21/21 16/16/16 19/19/19
f 22/22/22 23/23/23 24/24/24
f 22/22/22 24/24/24 25/25/25
f 25/25/25 26/26/26 22/22/22
f 25/25/25 27/27/27 26/26/26
f 28/28/28 26/26/26 27/27/27
f 22/22/22 29/29/29 30/30/30
f 22/22/22 31/31/31 29/29/29
f 31/31/31 22/22/22 26/26/26
f 32/32/32 31/31/31 26/26/26
f 26/26/26 28/28/28 32/32/32
f 30/30/30 33/33/33 22/22/22
f 33/33/33 34/34/34 22/22/22
f 23/23/23 22/22/22 33/33/33
f 26/26/26 35/35/35 28/28/28
f 26/26/26 36/36/36 35/35/35
f 26/26/26 22/22/22 36/36/36
f 22/22/22 37/37/37 36/36/36
f 22/22/22 34/34/34 37/37/37
f 3/3/3 38/38/38 1/1/1
f 39/39/39 38/38/38 3/3/3
f 3/3/3 40/40/40 39/39/39
