# Exported using wow.export v0.1.64
o stranglethornfern02
mtllib stranglethornfern02.mtl
v 0.1387310028076172 0.0962069034576416 0.19575199484825134
v 0.08667109906673431 0.2042119950056076 0.06349439918994904
v -0.2151300013065338 -0.05019810050725937 0.2816689908504486
v 0.011797499842941761 0.2810809910297394 0.317658007144928
v 0.08348420262336731 0.17990200221538544 0.20791900157928467
v -0.231564000248909 -0.050197798758745193 0.17691700160503387
v 0.3222169876098633 0.22946900129318237 0.45342200994491577
v -0.00529417023062706 0.18938499689102173 0.42606401443481445
v -0.24355199933052063 0.043808601796627045 0.4774940013885498
v -0.12830999493598938 0.12061599642038345 0.5017859935760498
v -0.12171600013971329 -0.050197798758745193 0.09424000233411789
v -0.10597500205039978 -0.04384329915046692 0.8062670230865479
v 0.0018252800218760967 0.037964701652526855 0.4726499915122986
v -0.3041220009326935 0.20009900629520416 0.3907940089702606
v -0.21910099685192108 0.12170899659395218 0.45451098680496216
v -0.03832779824733734 -0.050197798758745193 0.13809099793434143
v -0.48296698927879333 -0.04384329915046692 0.7322999835014343
v -0.3859750032424927 0.12170899659395218 0.3214249908924103
v -0.3374220132827759 0.13434700667858124 0.24715100228786469
v -0.007763329893350601 -0.05019810050725937 0.27529001235961914
v -0.35425299406051636 0.1689240038394928 0.1190359964966774
v -0.6501669883728027 0.22019100189208984 0.0011483300477266312
v -0.24931600689888 0.08880169689655304 0.029065299779176712
v -0.26074498891830444 0.09694109857082367 -0.024814199656248093
v -0.12163499742746353 -0.05019810050725937 0.3463059961795807
v -0.11867599934339523 0.1649799942970276 -0.03851670026779175
v -0.1073329970240593 -0.04384329915046692 -0.3873920142650604
v -0.01140000019222498 0.09293080121278763 -0.014203899540007114
v -0.016392499208450317 0.0962069034576416 -0.04326000064611435
v 0.26464900374412537 -0.06934530287981033 -0.09324000030755997
v -0.4884609878063202 -0.25229400396347046 0.0463205985724926
v -0.4884609878063202 0.6262170076370239 0.0463205985724926
v -0.07259389758110046 0.6262170076370239 0.20595699548721313
v -0.14826899766921997 0.7289190292358398 0.1496810019016266
v -0.14826899766921997 0.7289190292358398 0.5951330065727234
v -0.14826899766921997 -0.14958900213241577 0.5951330065727234
v -0.14826899766921997 -0.14958900213241577 0.1496810019016266
v -0.14826899766921997 0.7289190292358398 0.1496810019016266
v -0.14826899766921997 -0.14958900213241577 0.1496810019016266
v -0.14826899766921997 -0.14958900213241577 0.5951330065727234
v -0.14826899766921997 0.7289190292358398 0.5951330065727234
v -0.07259389758110046 0.6262170076370239 0.20595699548721313
v -0.4884609878063202 0.6262170076370239 0.0463205985724926
v -0.4884609878063202 -0.25229400396347046 0.0463205985724926
v -0.02234029956161976 -0.25229400396347046 0.20595699548721313
v -0.02234029956161976 -0.25229400396347046 0.20595699548721313
vn 0.43990299105644226 0.7726100087165833 0.4577769935131073
vn 0.09198799729347229 0.9944429993629456 -0.05119260028004646
vn -0.4625459909439087 0.8256769776344299 0.3229680061340332
vn -0.3433600068092346 0.9312989711761475 -0.12159799784421921
vn 0.004679279867559671 0.7367140054702759 -0.6761890053749084
vn -0.7113170027732849 0.6430709958076477 -0.28370401263237
vn 0.12975099682807922 0.9883880019187927 0.07908380031585693
vn -0.5320349931716919 0.6859790086746216 0.4963580071926117
vn -0.5601710081100464 0.8273329734802246 0.041579000651836395
vn -0.00815504975616932 0.9994419813156128 0.03238390013575554
vn -0.010669900104403496 0.9221540093421936 -0.38667500019073486
vn -0.0038032999727874994 0.8797339797019958 0.4754509925842285
vn 0.5381150245666504 0.8427749872207642 0.012760800309479237
vn 0.039955999702215195 0.9992009997367859 0.0012117699952796102
vn 0.48433399200439453 0.804593026638031 0.3435850143432617
vn 0.37103599309921265 0.8247939944267273 -0.42667001485824585
vn -0.31213799118995667 0.8427649736404419 0.4385409951210022
vn -0.4587419927120209 0.8073750138282776 -0.37108099460601807
vn 0.27468401193618774 0.936788022518158 0.21673999726772308
vn 0.5193560123443604 0.8533700108528137 0.045042600482702255
vn 0.37122398614883423 0.9283930063247681 -0.016735000535845757
vn 0.20161400735378265 0.9760609865188599 -0.08159489929676056
vn 0.4439469873905182 0.8608260154724121 -0.24877600371837616
vn -0.43285301327705383 0.9013829827308655 -0.012108299881219864
vn 0.0433242991566658 0.8718569874763489 0.4878399968147278
vn 0.07548250257968903 0.9971370100975037 0.004587570205330849
vn 0.08885080367326736 0.855912983417511 -0.5094289779663086
vn 0.5543479919433594 0.8320500254631042 0.019767900928854942
vn -0.28783300518989563 0.7980070114135742 -0.5294690132141113
vn 0.6311540007591248 0.6516649723052979 -0.4206869900226593
vn 0.34123000502586365 0.009267359972000122 -0.9399340152740479
vn 0.35836800932884216 -2.5724800067905562e-9 -0.9335799813270569
vn 0.34123000502586365 0.009267359972000122 -0.9399340152740479
vn 1 9.95692985839014e-8 3.1222899821159444e-8
vn 1 1.0274700201762244e-7 3.1222899821159444e-8
vn 1 9.95692985839014e-8 3.1222899821159444e-8
vn 1 9.639170173159073e-8 3.1222899821159444e-8
vn -1 -9.95692985839014e-8 -3.1222899821159444e-8
vn -1 -9.639170173159073e-8 -3.1222899821159444e-8
vn -1 -9.95692985839014e-8 -3.1222899821159444e-8
vn -1 -1.0274700201762244e-7 -3.1222899821159444e-8
vn -0.34123000502586365 -0.009267359972000122 0.9399340152740479
vn -0.35836800932884216 2.5724800067905562e-9 0.9335799813270569
vn -0.34123000502586365 -0.009267359972000122 0.9399340152740479
vn -0.3239479959011078 -0.018530799075961113 0.9458929896354675
vn 0.3239479959011078 0.018530799075961113 -0.9458929896354675
vt -0.35249099135398865 0.6336419880390167
vt 0.9720929861068726 0.6391009986400604
vt 0.9777920246124268 1.275184988975525
vt 0.9729909896850586 0.607010006904602
vt -0.23055200278759003 0.6225099861621857
vt 0.9732249975204468 1.3291699886322021
vt 0.9714879989624023 -0.13794004917144775
vt -0.22982999682426453 0.6224330067634583
vt -0.5794100165367126 0.6161310076713562
vt 0.9750069975852966 0.6136780083179474
vt 0.9740639925003052 1.1785449981689453
vt 0.9644709825515747 -0.22061002254486084
vt -0.5794100165367126 0.6147150099277496
vt 0.9828029870986938 0.7238950133323669
vt -0.2731209993362427 0.7275600135326385
vt 0.9788690209388733 1.2380429953336716
vt 0.9793829917907715 -0.2718600034713745
vt -0.27056699991226196 0.7290520071983337
vt -0.2664639949798584 0.6744740009307861
vt 0.9761409759521484 1.2073190063238144
vt 0.9818530082702637 0.6568799912929535
vt 0.9837120175361633 -0.20934998989105225
vt -0.26440298557281494 0.6740840077400208
vt -0.3401719927787781 0.6933499872684479
vt 0.9807209968566895 1.2599579989910126
vt 0.9751899838447571 0.6111109852790833
vt 0.9758179783821106 -0.17563998699188232
vt -0.3264380097389221 0.6919330060482025
vt -0.3502050042152405 0.6351340115070343
vt 0.9804970026016235 -0.1332399845123291
vt 0.0004995469935238361 0.000500023365020752
vt 0.0005000230157747865 0.9995005130185746
vt 0.9995009899139404 0.999500393983908
vt 0.9995009899139404 0.999500393983908
vt 0.0005000230157747865 0.9995005130185746
vt 0.0004995469935238361 0.000500023365020752
vt 0.9994999766349792 0.0004990100860595703
vt 0.9995009899139404 0.999500393983908
vt 0.9994999766349792 0.0004990100860595703
vt 0.0004995469935238361 0.000500023365020752
vt 0.0005000230157747865 0.9995005130185746
vt 0.9995009899139404 0.999500393983908
vt 0.0005000230157747865 0.9995005130185746
vt 0.0004995469935238361 0.000500023365020752
vt 0.9994999766349792 0.0004990100860595703
vt 0.9994999766349792 0.0004990100860595703
g Geoset0
s 1
usemtl mat_leaf2a
f 1/1/1 2/2/2 3/3/3
f 4/4/4 5/5/5 6/6/6
f 4/4/4 7/7/7 5/5/5
f 7/7/7 4/4/4 8/8/8
f 8/8/8 4/4/4 6/6/6
f 9/9/9 10/10/10 11/11/11
f 12/12/12 10/10/10 9/9/9
f 10/10/10 12/12/12 13/13/13
f 10/10/10 13/13/13 11/11/11
f 14/14/14 15/15/15 16/16/16
f 14/14/14 17/17/17 15/15/15
f 17/17/17 14/14/14 18/18/18
f 18/18/18 14/14/14 16/16/16
f 19/19/19 20/20/20 21/21/21
f 21/21/21 22/22/22 19/19/19
f 22/22/22 21/21/21 23/23/23
f 23/23/23 21/21/21 20/20/20
f 24/24/24 25/25/25 26/26/26
f 26/26/26 27/27/27 24/24/24
f 27/27/27 26/26/26 28/28/28
f 28/28/28 26/26/26 25/25/25
f 3/3/3 2/2/2 29/29/29
f 2/2/2 30/30/30 29/29/29
f 30/30/30 2/2/2 1/1/1
g Geoset1
s 1
usemtl mat_flower1
f 31/31/31 32/32/32 33/33/33
f 34/34/34 35/35/35 36/36/36
f 36/36/36 37/37/37 34/34/34
f 38/38/38 39/39/39 40/40/40
f 40/40/40 41/41/41 38/38/38
f 42/42/42 43/43/43 44/44/44
f 44/44/44 45/45/45 42/42/42
f 33/33/33 46/46/46 31/31/31
