# Exported using wow.export v0.1.64
o nox_portal_bottom
mtllib nox_portal_bottom.mtl
v -3.852287769317627 3.8585574626922607 -1.595664620399475
v -4.1696858406066895 3.8585574626922607 0.0000034583997603476746
v -4.169685363769531 3.9131288528442383 0.0000034583997603476746
v -3.8522872924804688 3.9131288528442383 -1.595664620399475
v -0.000003917943558917614 3.8585574626922607 4.169684410095215
v 1.595664143562317 3.8585574626922607 3.8522865772247314
v 1.5956640243530273 3.9131288528442383 3.8522865772247314
v -0.000003973654656874714 3.9131288528442383 4.169684410095215
v -1.5956721305847168 3.8585574626922607 3.8522865772247314
v -1.5956718921661377 3.9131288528442383 3.8522865772247314
v -2.9484140872955322 3.8585574626922607 2.948413610458374
v -2.9484140872955322 3.9131288528442383 2.9484140872955322
v -3.852287769317627 3.8585574626922607 1.5956714153289795
v -3.8522872924804688 3.9131288528442383 1.5956714153289795
v 3.8522789478302 3.8585574626922607 -1.5956653356552124
v 2.9484052658081055 3.8585574626922607 -2.9484074115753174
v 2.9484052658081055 3.9131288528442383 -2.9484074115753174
v 3.852278470993042 3.9131288528442383 -1.5956653356552124
v 4.169677257537842 3.8585574626922607 0.000002729349262153846
v 4.169677257537842 3.9131288528442383 0.000002729349716901197
v 3.8522791862487793 3.8585574626922607 1.5956708192825317
v 3.8522791862487793 3.9131288528442383 1.5956708192825317
v 2.9484059810638428 3.8585574626922607 2.9484128952026367
v 2.9484057426452637 3.9131288528442383 2.948413133621216
v -2.9484143257141113 3.8585574626922607 -2.948406934738159
v -3.852287769317627 3.8585574626922607 -1.595664620399475
v -3.8522872924804688 3.9131288528442383 -1.595664620399475
v -2.9484143257141113 3.9131288528442383 -2.948406457901001
v -1.5956722497940063 3.8585574626922607 -3.8522801399230957
v -1.5956721305847168 3.9131288528442383 -3.8522796630859375
v -0.0000042824685806408525 3.8585574626922607 -4.169678211212158
v -0.000004338180133345304 3.9131288528442383 -4.169678211212158
v 1.5956631898880005 3.8585574626922607 -3.852280616760254
v 1.5956631898880005 3.9131288528442383 -3.8522801399230957
v -2.1243793964385986 3.8553929328918457 -0.8799415230751038
v -2.2994110584259033 3.9247028827667236 0.0000033766475553420605
v -2.1243793964385986 3.9247028827667236 -0.8799413442611694
v -1.6259304285049438 3.8553929328918457 -1.6259227991104126
v -2.1243793964385986 3.8553929328918457 -0.8799415230751038
v -2.1243793964385986 3.9247028827667236 -0.8799413442611694
v -1.6259304285049438 3.9247028827667236 -1.625922679901123
v -0.8799493312835693 3.8553929328918457 -2.1243717670440674
v -0.879949152469635 3.9247028827667236 -2.12437105178833
v -0.000004392592018120922 3.8553929328918457 -2.299403429031372
v -0.000004379520305519691 3.9247028827667236 -2.299403429031372
v 0.8799402117729187 3.8553929328918457 -2.1243717670440674
v 0.8799402117729187 3.9247028827667236 -2.124371290206909
v 1.6259214878082275 3.8553929328918457 -1.6259232759475708
v 1.6259214878082275 3.9247028827667236 -1.6259227991104126
v 2.1243703365325928 3.8553929328918457 -0.8799419403076172
v 2.1243698596954346 3.9247028827667236 -0.8799418807029724
v 2.2994024753570557 3.8553929328918457 0.0000029746063319180394
v 2.2994022369384766 3.9247028827667236 0.0000029746063319180394
v 2.124370574951172 3.8553929328918457 0.8799479603767395
v 2.124370574951172 3.9247028827667236 0.87994784116745
v 1.6259219646453857 3.8553929328918457 1.6259294748306274
v 1.6259219646453857 3.9247028827667236 1.6259291172027588
v 0.8799407482147217 3.8553929328918457 2.124378204345703
v 0.8799408078193665 3.9247028827667236 2.124377965927124
v -0.0000041915714064089116 3.8553929328918457 2.299410104751587
v -0.00000417849969380768 3.9247028827667236 2.299409866333008
v -0.879949152469635 3.8553929328918457 2.124378204345703
v -0.8799489736557007 3.9247028827667236 2.124377965927124
v -1.6259304285049438 3.8553929328918457 1.625929594039917
v -1.6259303092956543 3.9247028827667236 1.6259294748306274
v -2.1243793964385986 3.8553929328918457 0.8799483180046082
v -2.1243793964385986 3.9247028827667236 0.8799482583999634
v -2.2994110584259033 3.8553929328918457 0.0000033766475553420605
v -5.560068607330322 3.8488476276397705 -2.3030505180358887
v -6.018215179443359 3.8862011432647705 -0.000012609787518158555
v -5.560110092163086 3.8862059116363525 -2.3030662536621094
v -6.018174648284912 3.8488430976867676 0.0000035793398183159297
v -5.560110092163086 3.886185646057129 2.303041458129883
v -5.560068607330322 3.848827362060547 2.303057909011841
v -4.255533695220947 3.8861613273620605 4.255476474761963
v -4.255492687225342 3.8488032817840576 4.255492687225342
v -2.303098440170288 3.8861324787139893 5.560051441192627
v -2.303057909011841 3.848773956298828 5.560067653656006
v -0.000044597523810807616 3.8861029148101807 6.0181565284729
v -0.0000035172831758245593 3.8487446308135986 6.018173694610596
v 2.3030099868774414 3.886077880859375 5.5600504875183105
v 2.3030505180358887 3.848719358444214 5.560067653656006
v 4.255444526672363 3.8860604763031006 4.2554755210876465
v 4.255485534667969 3.8487019538879395 4.255491733551025
v 5.560019016265869 3.8860538005828857 2.3030405044555664
v 5.560060977935791 3.8486950397491455 2.3030567169189453
v 6.018125534057617 3.8860583305358887 -0.000013742314877163153
v 6.018166542053223 3.8486998081207275 0.0000024468092760798754
v 5.560018062591553 3.8860740661621094 -2.303067684173584
v 5.560060024261475 3.8487155437469482 -2.303051710128784
v 4.255443096160889 3.8860981464385986 -4.255502223968506
v 4.255484104156494 3.8487396240234375 -4.255486965179443
v 2.3030083179473877 3.88612699508667 -5.560076713562012
v 2.303049087524414 3.848768949508667 -5.560061454772949
v -0.00004520394213614054 3.8861563205718994 -6.01818323135376
v -0.0000041237017285311595 3.8487980365753174 -6.018167018890381
v -2.3030989170074463 3.8861818313598633 -5.560075759887695
v -2.30305814743042 3.8488235473632812 -5.560060977935791
v -4.2555341720581055 3.8861992359161377 -4.2555012702941895
v -4.2554931640625 3.8488409519195557 -4.255486011505127
v -5.560110092163086 3.8862059116363525 -2.3030662536621094
v -5.560068607330322 3.8488476276397705 -2.3030505180358887
vn -0.9238795638084412 1.0573244502154466e-9 -0.3826833665370941
vn -1 1.1444397651771965e-9 -4.764718841698823e-9
vn -1 1.1444397651771965e-9 -6.7222680755207875e-9
vn -0.9238795638084412 9.387717270215035e-10 -0.38268330693244934
vn 8.325343969772803e-9 3.486683511355615e-11 1
vn 0.38268354535102844 -1.8936888515619366e-11 0.9238795042037964
vn 0.38268354535102844 2.189792097651022e-10 0.9238795042037964
vn -1.731824461614906e-8 9.301702463826445e-11 1
vn -0.38268330693244934 1.6082894738200793e-10 0.9238795638084412
vn -0.38268330693244934 -2.576635571571728e-10 0.9238795638084412
vn -0.7071066498756409 -3.325989761382431e-10 0.70710688829422
vn -0.7071066498756409 -2.1323560972508204e-10 0.70710688829422
vn -0.9238795042037964 4.613188719915229e-10 0.38268348574638367
vn -0.9238795638084412 1.057324561237749e-9 0.38268330693244934
vn 0.9238795042037964 1.4997065811428456e-9 -0.38268354535102844
vn 0.7071066498756409 3.5727945602026523e-10 -0.70710688829422
vn 0.7071067094802856 8.339220425312988e-10 -0.70710688829422
vn 0.9238795042037964 1.448834274775379e-9 -0.38268354535102844
vn 1 8.847943488987653e-10 -2.3057759790390264e-7
vn 1 4.214396887025629e-10 -2.9785610422550235e-7
vn 0.9238795638084412 6.358850668242155e-10 0.38268330693244934
vn 0.9238795638084412 8.18598411278515e-10 0.38268330693244934
vn 0.70710688829422 2.387266495595952e-10 0.7071066498756409
vn 0.70710688829422 2.3791635328507255e-10 0.7071066498756409
vn -0.7071067690849304 9.27794341354371e-10 -0.7071067690849304
vn -0.9238795638084412 1.0573244502154466e-9 -0.3826833665370941
vn -0.9238795638084412 9.387717270215035e-10 -0.38268330693244934
vn -0.7071068286895752 9.2860447109544e-10 -0.7071067690849304
vn -0.3826833665370941 1.1569408764344757e-9 -0.9238795638084412
vn -0.38268348574638367 8.129494855069197e-10 -0.9238795042037964
vn -7.829804360426351e-8 4.853985546837691e-10 -1
vn -9.285229651823101e-8 4.272483755674017e-10 -1
vn 0.38268330693244934 6.52120524247124e-10 -0.9238795638084412
vn 0.3826833665370941 7.000454660399669e-10 -0.9238795638084412
vn -0.9238795638084412 2.752335304112563e-10 -0.3826833665370941
vn -1 4.744408754753238e-10 -4.5265949211170664e-8
vn -0.9238795638084412 5.719498763490094e-10 -0.3826833665370941
vn -0.7071067690849304 2.0099355513281125e-9 -0.7071068286895752
vn -0.9238795638084412 2.752335304112563e-10 -0.3826833665370941
vn -0.9238795638084412 5.719498763490094e-10 -0.3826833665370941
vn -0.7071065306663513 4.557757282697139e-9 -0.7071070075035095
vn -0.3826833963394165 5.572113881413543e-9 -0.9238795638084412
vn -0.3826834559440613 5.248030898741263e-9 -0.9238795042037964
vn -9.072807927168469e-8 4.6702153255751e-9 -1
vn -2.2300946511677466e-7 3.908911416772298e-9 -1
vn 0.38268327713012695 3.874442988660576e-9 -0.9238795638084412
vn 0.3826833665370941 3.9830068132573615e-9 -0.9238795638084412
vn 0.7071066498756409 2.856576752918727e-9 -0.70710688829422
vn 0.7071066498756409 2.855338632201665e-9 -0.70710688829422
vn 0.9238795042037964 2.7872952834684384e-9 -0.38268351554870605
vn 0.9238794445991516 2.6240158934598412e-9 -0.38268357515335083
vn 1 2.3418031958044594e-9 -2.0499702202414483e-7
vn 1 1.698005958061799e-9 -2.73082804369551e-7
vn 0.9238795638084412 1.7582157951778754e-9 0.38268327713012695
vn 0.9238795638084412 1.4588008578897416e-9 0.38268327713012695
vn 0.70710688829422 1.5188397206600257e-9 0.7071066498756409
vn 0.70710688829422 9.730544148212061e-10 0.7071066498756409
vn 0.38268351554870605 1.3792902375797667e-9 0.9238795042037964
vn 0.38268351554870605 1.9047761146140374e-9 0.9238795042037964
vn -1.1556656076550098e-8 2.573517177140161e-9 1
vn -8.429883280314243e-8 2.755053296610299e-9 1
vn -0.38268327713012695 2.6611832737444274e-9 0.9238795638084412
vn -0.38268327713012695 2.1348927070619084e-9 0.9238795638084412
vn -0.7071066498756409 2.310791336057605e-9 0.70710688829422
vn -0.7071065306663513 1.0368811365069064e-9 0.7071070075035095
vn -0.9238795042037964 7.696134007861843e-11 0.38268351554870605
vn -0.9238795042037964 2.661580678076092e-11 0.38268351554870605
vn -1 4.104114825764782e-10 -4.47709140871666e-8
vn -0.9238795638084412 6.457957724137486e-9 -0.3826833665370941
vn -1 7.44361461357812e-9 -6.670700258837314e-8
vn -0.9238795638084412 6.315280742796858e-9 -0.38268330693244934
vn -1 7.406936397558184e-9 -5.7665179298282965e-8
vn -0.9238795042037964 6.273013664070959e-9 0.38268351554870605
vn -0.9238795042037964 5.989205575929191e-9 0.38268351554870605
vn -0.7071065902709961 5.31601251907432e-9 0.7071069478988647
vn -0.7071067094802856 5.837565097976949e-9 0.70710688829422
vn -0.3826832175254822 3.846757579140103e-9 0.9238796234130859
vn -0.3826833665370941 4.2605035055487406e-9 0.9238795638084412
vn -1.514781011735522e-8 2.0289958602148772e-9 1
vn -1.006847938356259e-7 1.896137469259429e-9 1
vn 0.3826836049556732 -1.3688662425792586e-9 0.9238794445991516
vn 0.3826834559440613 -1.7065632240687023e-9 0.9238795042037964
vn 0.7071070075035095 -4.199532277482376e-9 0.7071065306663513
vn 0.7071068286895752 -3.57423401986523e-9 0.7071067690849304
vn 0.9238795638084412 -4.579603807286503e-9 0.3826833665370941
vn 0.9238795638084412 -4.464232983281136e-9 0.3826833665370941
vn 1 -5.385846435501662e-9 -3.0719138521817513e-7
vn 1 -5.017052107092468e-9 -2.5588988705749216e-7
vn 0.9238795042037964 -3.762931743978015e-9 -0.38268354535102844
vn 0.9238795042037964 -3.6132523639764713e-9 -0.38268354535102844
vn 0.7071067690849304 -2.6514772599739445e-9 -0.7071068286895752
vn 0.7071065902709961 -2.963415290935245e-9 -0.7071069478988647
vn 0.3826834559440613 2.381473629409214e-10 -0.9238795042037964
vn 0.38268324732780457 2.0482682216993453e-10 -0.9238796234130859
vn -1.5523833951647248e-7 2.640738960835165e-9 -1
vn -2.0616458584754582e-7 3.105713686224476e-9 -1
vn -0.3826833665370941 6.350548975575521e-9 -0.9238795638084412
vn -0.3826834261417389 6.4317449144368766e-9 -0.9238795638084412
vn -0.7071066498756409 7.281874658815468e-9 -0.7071069478988647
vn -0.7071067690849304 6.030572929915934e-9 -0.7071068286895752
vn -0.9238795638084412 6.315280742796858e-9 -0.38268330693244934
vn -0.9238795638084412 6.457957724137486e-9 -0.3826833665370941
vt 0.04999999701976776 0.040744900703430176
vt 0.5224133729934692 0.040744900703430176
vt 0.5224133729934692 0.8914252519607544
vt 0.04999999701976776 0.8914252519607544
vt 2.511522054672241 0.040744900703430176
vt 3.0087995529174805 0.040744900703430176
vt 3.0087995529174805 0.8914252519607544
vt 2.511522054672241 0.8914252519607544
vt 2.01424503326416 0.040744900703430176
vt 2.01424503326416 0.8914252519607544
vt 1.5169677734375 0.040744900703430176
vt 1.5169677734375 0.8914252519607544
vt 1.0196903944015503 0.040744900703430176
vt 1.0196903944015503 0.8914252519607544
vt 4.997908115386963 0.040744900703430176
vt 5.495184898376465 0.040744900703430176
vt 5.495184898376465 0.8914252519607544
vt 4.997908115386963 0.8914252519607544
vt 4.500631332397461 0.040744900703430176
vt 4.500631332397461 0.8914252519607544
vt 4.003353595733643 0.040744900703430176
vt 4.003353595733643 0.8914252519607544
vt 3.5060768127441406 0.040744900703430176
vt 3.5060768127441406 0.8914252519607544
vt 7.484294414520264 0.040744900703430176
vt 7.956707954406738 0.040744900703430176
vt 7.956707954406738 0.8914252519607544
vt 7.484294414520264 0.8914252519607544
vt 6.987016201019287 0.040744900703430176
vt 6.987016201019287 0.8914252519607544
vt 6.489739894866943 0.040744900703430176
vt 6.489739894866943 0.8914252519607544
vt 5.992462635040283 0.040744900703430176
vt 5.992462635040283 0.8914252519607544
vt 0.04999998211860657 0.02078711986541748
vt 1.000288963317871 0.931027352809906
vt 0.04999998211860657 0.931027352809906
vt 15.004547119140625 0.02078711986541748
vt 15.954833984375 0.02078711986541748
vt 15.954833984375 0.931027352809906
vt 15.004547119140625 0.931027352809906
vt 14.004242897033691 0.02078711986541748
vt 14.004242897033691 0.931027352809906
vt 13.003938674926758 0.02078711986541748
vt 13.003938674926758 0.931027352809906
vt 12.003634452819824 0.02078711986541748
vt 12.003634452819824 0.931027352809906
vt 11.003331184387207 0.02078711986541748
vt 11.003331184387207 0.931027352809906
vt 10.003026008605957 0.02078711986541748
vt 10.003026008605957 0.931027352809906
vt 9.002721786499023 0.02078711986541748
vt 9.002721786499023 0.931027352809906
vt 8.00241756439209 0.02078711986541748
vt 8.00241756439209 0.931027352809906
vt 7.0021138191223145 0.02078711986541748
vt 7.0021138191223145 0.931027352809906
vt 6.001809597015381 0.02078711986541748
vt 6.001809597015381 0.931027352809906
vt 5.0015058517456055 0.02078711986541748
vt 5.0015058517456055 0.931027352809906
vt 4.001201152801514 0.02078711986541748
vt 4.001201152801514 0.931027352809906
vt 3.0008974075317383 0.02078711986541748
vt 3.0008974075317383 0.931027352809906
vt 2.0005929470062256 0.02078711986541748
vt 2.0005929470062256 0.931027352809906
vt 1.000288963317871 0.02078711986541748
vt 0.04999998211860657 0.02078711986541748
vt 1.000288963317871 0.931027352809906
vt 0.04999998211860657 0.931027352809906
vt 1.000288963317871 0.02078711986541748
vt 2.0005929470062256 0.931027352809906
vt 2.0005929470062256 0.02078711986541748
vt 3.0008974075317383 0.931027352809906
vt 3.0008974075317383 0.02078711986541748
vt 4.001201152801514 0.931027352809906
vt 4.001201152801514 0.02078711986541748
vt 5.0015058517456055 0.931027352809906
vt 5.0015058517456055 0.02078711986541748
vt 6.001809597015381 0.931027352809906
vt 6.001809597015381 0.02078711986541748
vt 7.0021138191223145 0.931027352809906
vt 7.0021138191223145 0.02078711986541748
vt 8.00241756439209 0.931027352809906
vt 8.00241756439209 0.02078711986541748
vt 9.002721786499023 0.931027352809906
vt 9.002721786499023 0.02078711986541748
vt 10.003026008605957 0.931027352809906
vt 10.003026008605957 0.02078711986541748
vt 11.003331184387207 0.931027352809906
vt 11.003331184387207 0.02078711986541748
vt 12.003634452819824 0.931027352809906
vt 12.003634452819824 0.02078711986541748
vt 13.003938674926758 0.931027352809906
vt 13.003938674926758 0.02078711986541748
vt 14.004242897033691 0.931027352809906
vt 14.004242897033691 0.02078711986541748
vt 15.004547119140625 0.931027352809906
vt 15.004547119140625 0.02078711986541748
vt 15.954833984375 0.931027352809906
vt 15.954833984375 0.02078711986541748
g Geoset0
s 1
usemtl mat_lightshaft_green_clear
f 1/1/1 2/2/2 3/3/3
f 1/1/1 3/3/3 4/4/4
f 5/5/5 6/6/6 7/7/7
f 5/5/5 7/7/7 8/8/8
f 9/9/9 5/5/5 8/8/8
f 9/9/9 8/8/8 10/10/10
f 11/11/11 9/9/9 10/10/10
f 11/11/11 10/10/10 12/12/12
f 13/13/13 11/11/11 12/12/12
f 13/13/13 12/12/12 14/14/14
f 2/2/2 13/13/13 14/14/14
f 2/2/2 14/14/14 3/3/3
f 15/15/15 16/16/16 17/17/17
f 15/15/15 17/17/17 18/18/18
f 19/19/19 15/15/15 18/18/18
f 19/19/19 18/18/18 20/20/20
f 21/21/21 19/19/19 20/20/20
f 21/21/21 20/20/20 22/22/22
f 23/23/23 21/21/21 22/22/22
f 23/23/23 22/22/22 24/24/24
f 6/6/6 23/23/23 24/24/24
f 6/6/6 24/24/24 7/7/7
f 25/25/25 26/26/26 27/27/27
f 25/25/25 27/27/27 28/28/28
f 29/29/29 25/25/25 28/28/28
f 29/29/29 28/28/28 30/30/30
f 31/31/31 29/29/29 30/30/30
f 31/31/31 30/30/30 32/32/32
f 33/33/33 31/31/31 32/32/32
f 33/33/33 32/32/32 34/34/34
f 16/16/16 33/33/33 34/34/34
f 16/16/16 34/34/34 17/17/17
f 69/69/69 70/70/70 71/71/71
f 69/69/69 72/72/72 70/70/70
f 72/72/72 73/73/73 70/70/70
f 72/72/72 74/74/74 73/73/73
f 74/74/74 75/75/75 73/73/73
f 74/74/74 76/76/76 75/75/75
f 76/76/76 77/77/77 75/75/75
f 76/76/76 78/78/78 77/77/77
f 78/78/78 79/79/79 77/77/77
f 78/78/78 80/80/80 79/79/79
f 80/80/80 81/81/81 79/79/79
f 80/80/80 82/82/82 81/81/81
f 82/82/82 83/83/83 81/81/81
f 82/82/82 84/84/84 83/83/83
f 84/84/84 85/85/85 83/83/83
f 84/84/84 86/86/86 85/85/85
f 86/86/86 87/87/87 85/85/85
f 86/86/86 88/88/88 87/87/87
f 88/88/88 89/89/89 87/87/87
f 88/88/88 90/90/90 89/89/89
f 90/90/90 91/91/91 89/89/89
f 90/90/90 92/92/92 91/91/91
f 92/92/92 93/93/93 91/91/91
f 92/92/92 94/94/94 93/93/93
f 94/94/94 95/95/95 93/93/93
f 94/94/94 96/96/96 95/95/95
f 96/96/96 97/97/97 95/95/95
f 96/96/96 98/98/98 97/97/97
f 98/98/98 99/99/99 97/97/97
f 98/98/98 100/100/100 99/99/99
f 100/100/100 101/101/101 99/99/99
f 100/100/100 102/102/102 101/101/101
f 35/35/35 36/36/36 37/37/37
f 38/38/38 39/39/39 40/40/40
f 38/38/38 40/40/40 41/41/41
f 42/42/42 38/38/38 41/41/41
f 42/42/42 41/41/41 43/43/43
f 44/44/44 42/42/42 43/43/43
f 44/44/44 43/43/43 45/45/45
f 46/46/46 44/44/44 45/45/45
f 46/46/46 45/45/45 47/47/47
f 48/48/48 46/46/46 47/47/47
f 48/48/48 47/47/47 49/49/49
f 50/50/50 48/48/48 49/49/49
f 50/50/50 49/49/49 51/51/51
f 52/52/52 50/50/50 51/51/51
f 52/52/52 51/51/51 53/53/53
f 54/54/54 52/52/52 53/53/53
f 54/54/54 53/53/53 55/55/55
f 56/56/56 54/54/54 55/55/55
f 56/56/56 55/55/55 57/57/57
f 58/58/58 56/56/56 57/57/57
f 58/58/58 57/57/57 59/59/59
f 60/60/60 58/58/58 59/59/59
f 60/60/60 59/59/59 61/61/61
f 62/62/62 60/60/60 61/61/61
f 62/62/62 61/61/61 63/63/63
f 64/64/64 62/62/62 63/63/63
f 64/64/64 63/63/63 65/65/65
f 66/66/66 64/64/64 65/65/65
f 66/66/66 65/65/65 67/67/67
f 68/68/68 66/66/66 67/67/67
f 68/68/68 67/67/67 36/36/36
f 35/35/35 68/68/68 36/36/36
