# Exported using wow.export v0.1.64
o deadminevalvewaterdrip
mtllib deadminevalvewaterdrip.mtl
v 0.4070951044559479 0.3041911721229553 0.04824652150273323
v 0.40709513425827026 0.19559793174266815 0.017107922583818436
v 0.40709513425827026 0.27686136960983276 -0.06136728823184967
v 0.004317738581448793 0.2504540979862213 0.29755786061286926
v 0.22756192088127136 0.4526298940181732 0.11672625690698624
v 0.004317738581448793 0.5081467032432556 0.14877891540527344
v 0.22756192088127136 0.2504540979862213 0.23345251381397247
v 0.004317738581448793 -0.007238548714667559 0.14877888560295105
v 0.22756192088127136 0.2504540979862213 0.23345251381397247
v 0.004317738581448793 0.2504540979862213 0.29755786061286926
v 0.22756192088127136 0.048278290778398514 0.11672625690698624
v 0.004317738581448793 -0.007238548714667559 -0.14877890050411224
v 0.22756192088127136 0.048278290778398514 0.11672625690698624
v 0.004317738581448793 -0.007238548714667559 0.14877888560295105
v 0.22756192088127136 0.048278290778398514 -0.11672625690698624
v 0.004317738581448793 0.2504540979862213 -0.2975577712059021
v 0.22756192088127136 0.048278290778398514 -0.11672625690698624
v 0.004317738581448793 -0.007238548714667559 -0.14877890050411224
v 0.22756192088127136 0.2504541277885437 -0.23345251381397247
v 0.004317738581448793 0.5081467032432556 -0.14877888560295105
v 0.22756192088127136 0.2504541277885437 -0.23345251381397247
v 0.004317738581448793 0.2504540979862213 -0.2975577712059021
v 0.22756192088127136 0.4526298940181732 -0.11672625690698624
v 0.004317738581448793 0.5081467032432556 0.14877891540527344
v 0.22756192088127136 0.4526298940181732 -0.11672625690698624
v 0.004317738581448793 0.5081467032432556 -0.14877888560295105
v 0.22756192088127136 0.4526298940181732 0.11672625690698624
v 0.22756192088127136 0.4526298940181732 0.11672625690698624
v 0.22756192088127136 0.2504541277885437 -0.23345251381397247
v 0.22756192088127136 0.4526298940181732 -0.11672625690698624
v 0.22756192088127136 0.048278290778398514 -0.11672625690698624
v 0.22756192088127136 0.048278290778398514 0.11672625690698624
v 0.22756192088127136 0.2504540979862213 0.23345251381397247
v 0.21041318774223328 0.3041911721229553 0.04824652150273323
v 0.40709513425827026 0.27686136960983276 -0.06136728823184967
v 0.21041318774223328 0.27686136960983276 -0.06136729195713997
v 0.4070951044559479 0.3041911721229553 0.04824652150273323
v 0.21041318774223328 0.19559794664382935 0.01710791327059269
v 0.40709513425827026 0.19559793174266815 0.017107922583818436
v 0.21041318774223328 0.27686136960983276 -0.06136729195713997
v 0.40709513425827026 0.19559793174266815 0.017107922583818436
v 0.21041318774223328 0.19559794664382935 0.01710791327059269
v 0.40709513425827026 0.27686136960983276 -0.06136728823184967
v 0.34214475750923157 0.21699805557727814 0.01209727581590414
v 0.44712576270103455 0.1916370689868927 0.21840791404247284
v 0.3993454873561859 0.16265851259231567 0.20469410717487335
v 0.3882271349430084 0.2501189708709717 0.021594544872641563
v 0.40344133973121643 0.2286483198404312 0.22411955893039703
v 0.34214475750923157 0.2832399308681488 0.03109181858599186
v 0.3882271349430084 0.24234755337238312 -0.014717906713485718
v 0.4305065870285034 0.12772782146930695 -0.1865433007478714
v 0.34214475750923157 0.2671329081058502 -0.03865284472703934
v 0.47200092673301697 0.09902046620845795 -0.1588866263628006
v 0.34214475750923157 0.21756218373775482 0.009217028506100178
v 0.4220305383205414 0.07834574580192566 -0.1392321139574051
v 0.3882271349430084 0.27944251894950867 -0.0067228595726192
v 0.4475347697734833 0.4855390787124634 -0.021998103708028793
v 0.34214475750923157 0.2877781093120575 0.026709353551268578
v 0.49545717239379883 0.4732188284397125 -0.05136536434292793
v 0.34214475750923157 0.27110692858695984 -0.0401550717651844
v 0.45191490650177 0.46893131732940674 -0.08873472362756729
v 0.44257718324661255 0.45533233880996704 0.20666109025478363
v 0.4133092761039734 0.1867433488368988 0.271579772233963
v 0.47109174728393555 0.19923244416713715 0.19846077263355255
v 0.39149215817451477 0.4027229845523834 0.1425967663526535
v 0.37028270959854126 0.2080857753753662 0.18964113295078278
v 0.49230119585990906 0.39386966824531555 0.15141642093658447
v 0.37028270959854126 0.2080857753753662 0.18964113295078278
v 0.41397106647491455 -0.005546100437641144 0.07099205255508423
v 0.4133092761039734 0.1867433488368988 0.271579772233963
v 0.37076225876808167 0.06874021142721176 0.04428201913833618
v 0.47109174728393555 0.19923244416713715 0.19846077263355255
v 0.47157129645347595 0.0598868653178215 0.05310164391994476
v 0.37076225876808167 0.06874021142721176 0.04428201913833618
v 0.4439007043838501 0.07075347006320953 -0.1945144385099411
v 0.41397106647491455 -0.005546100437641144 0.07099205255508423
v 0.3924512267112732 0.12403186410665512 -0.1481214314699173
v 0.49326029419898987 0.11517850309610367 -0.13930177688598633
v 0.3924512267112732 0.12403186410665512 -0.1481214314699173
v 0.4136606752872467 0.3186691105365753 -0.19516578316688538
v 0.47316858172416687 0.33934250473976135 -0.25943318009376526
v 0.49326029419898987 0.11517850309610367 -0.13930177688598633
v 0.5144697427749634 0.30981579422950745 -0.1863461136817932
v 0.4439007043838501 0.07075347006320953 -0.1945144385099411
v 0.4725068509578705 0.5316318869590759 -0.058845408260822296
v 0.44257718324661255 0.45533233880996704 0.20666109025478363
v 0.49230119585990906 0.39386966824531555 0.15141642093658447
v 0.4131811261177063 0.45801469683647156 -0.04980664327740669
v 0.39149215817451477 0.4027229845523834 0.1425967663526535
v 0.5139902234077454 0.4491613209247589 -0.04098700359463692
v 0.4136606752872467 0.3186691105365753 -0.19516578316688538
v 0.4725068509578705 0.5316318869590759 -0.058845408260822296
v 0.47316858172416687 0.33934250473976135 -0.25943318009376526
v 0.4131811261177063 0.45801469683647156 -0.04980664327740669
v 0.5144697427749634 0.30981579422950745 -0.1863461136817932
vn 0.4999999403953552 0.20951053500175476 0.8403007984161377
vn 0.5 -0.8324770331382751 -0.23870888352394104
vn 0.5 0.6229666471481323 -0.6015917062759399
vn 0.2713957726955414 0.18188929557800293 0.9451246857643127
vn 0.8786119222640991 0.360983669757843 0.31262099742889404
vn 0.2713956832885742 0.909446656703949 0.31504154205322266
vn 0.5574495196342468 -0.15689513087272644 0.815250813961029
vn 0.271395742893219 -0.7275573015213013 0.6300830841064453
vn 0.5574495196342468 -0.15689513087272644 0.815250813961029
vn 0.2713957726955414 0.18188929557800293 0.9451246857643127
vn 0.7276945114135742 -0.648115873336792 0.2245139330625534
vn 0.271395742893219 -0.9094465970993042 -0.3150416314601898
vn 0.7276945114135742 -0.648115873336792 0.2245139330625534
vn 0.271395742893219 -0.7275573015213013 0.6300830841064453
vn 0.7276944518089294 -0.5184926986694336 -0.4490279257297516
vn 0.27139556407928467 -0.18188928067684174 -0.9451247453689575
vn 0.7276944518089294 -0.5184926986694336 -0.4490279257297516
vn 0.271395742893219 -0.9094465970993042 -0.3150416314601898
vn 0.7276943922042847 0.1296231746673584 -0.6735419034957886
vn 0.27139562368392944 0.7275573015213013 -0.6300832033157349
vn 0.7276943922042847 0.1296231746673584 -0.6735419034957886
vn 0.27139556407928467 -0.18188928067684174 -0.9451247453689575
vn 0.5574495196342468 0.7844755053520203 -0.2717503011226654
vn 0.2713956832885742 0.909446656703949 0.31504154205322266
vn 0.5574495196342468 0.7844755053520203 -0.2717503011226654
vn 0.27139562368392944 0.7275573015213013 -0.6300832033157349
vn 0.8786119222640991 0.360983669757843 0.31262099742889404
vn 0.8786119222640991 0.360983669757843 0.31262099742889404
vn 0.7276943922042847 0.1296231746673584 -0.6735419034957886
vn 0.5574495196342468 0.7844755053520203 -0.2717503011226654
vn 0.7276944518089294 -0.5184926986694336 -0.4490279257297516
vn 0.7276945114135742 -0.648115873336792 0.2245139330625534
vn 0.5574495196342468 -0.15689513087272644 0.815250813961029
vn 1.3536533671754114e-8 0.9612616896629333 0.27563735842704773
vn 0.5 0.6229666471481323 -0.6015917062759399
vn 4.561808353287233e-8 -0.24192197620868683 -0.9702957272529602
vn 0.4999999403953552 0.20951053500175476 0.8403007984161377
vn -8.307422305620094e-9 -0.7193397879600525 0.6946583986282349
vn 0.5 -0.8324770331382751 -0.23870888352394104
vn 4.561808353287233e-8 -0.24192197620868683 -0.9702957272529602
vn 0.5 -0.8324770331382751 -0.23870888352394104
vn -8.307422305620094e-9 -0.7193397879600525 0.6946583986282349
vn 0.5 0.6229666471481323 -0.6015917062759399
vn 0.573386549949646 -0.7253410220146179 -0.3809307813644409
vn 0.8727249503135681 -0.33535948395729065 -0.3548029959201813
vn 0.5570495128631592 -0.7412112951278687 -0.3745685815811157
vn 0.894241988658905 0.4203920066356659 -0.15362896025180817
vn 0.6190806031227112 0.7844713926315308 0.03665868937969208
vn 0.5887335538864136 0.8072685599327087 0.041355278342962265
vn 0.8688477873802185 0.49372291564941406 0.03662222996354103
vn 0.6242271661758423 0.7120680809020996 -0.3214024007320404
vn 0.5781117677688599 0.7372838258743286 -0.3495701849460602
vn 0.8303056955337524 -0.09111338108778 0.5498097538948059
vn 0.5348088145256042 -0.4384554326534271 0.7223132252693176
vn 0.4871695637702942 -0.4907417893409729 0.7223837971687317
vn 0.8090567588806152 -0.32240748405456543 0.49140670895576477
vn 0.5389693379402161 -0.09304863214492798 0.8371702432632446
vn 0.5716177225112915 -0.10416990518569946 0.8138806819915771
vn 0.8278820514678955 -0.5147172212600708 -0.22288449108600616
vn 0.5841462016105652 -0.47943100333213806 -0.6549192070960999
vn 0.5958245396614075 -0.48736944794654846 -0.6383292078971863
vn 0.00730718020349741 0.6927499175071716 0.7211408615112305
vn -0.10580746829509735 -0.286281019449234 0.952285647392273
vn 0.929563045501709 0.2967269718647003 -0.21878211200237274
vn -0.9038852453231812 -0.396805077791214 -0.15980355441570282
vn -0.8467744588851929 -0.10916820913553238 -0.5206297039985657
vn 0.9037135243415833 -0.14925514161586761 -0.4012789726257324
vn -0.8467744588851929 -0.10916820913553238 -0.5206297039985657
vn -0.10245143622159958 -0.9696998000144958 0.2217792421579361
vn -0.10580746829509735 -0.286281019449234 0.952285647392273
vn -0.8129532337188721 0.3466514050960541 -0.46791011095046997
vn 0.929563045501709 0.2967269718647003 -0.21878211200237274
vn 0.8945851922035217 0.3551275134086609 0.2712964117527008
vn -0.8129532337188721 0.3466514050960541 -0.46791011095046997
vn 0.011941793374717236 -0.694258987903595 -0.7196261882781982
vn -0.10245143622159958 -0.9696998000144958 0.2217792421579361
vn -0.8355324268341064 0.548089325428009 -0.03851904720067978
vn 0.8341330885887146 -0.04834660142660141 0.5494402050971985
vn -0.8355324268341064 0.548089325428009 -0.03851904720067978
vn -0.8963742256164551 0.26174384355545044 0.3577756881713867
vn 0.124051034450531 0.2571953237056732 -0.9583641886711121
vn 0.8341330885887146 -0.04834660142660141 0.5494402050971985
vn 0.8123534321784973 -0.47478634119033813 0.3386145234107971
vn 0.011941793374717236 -0.694258987903595 -0.7196261882781982
vn 0.12277442961931229 0.9609652161598206 -0.24793604016304016
vn 0.00730718020349741 0.6927499175071716 0.7211408615112305
vn 0.9037135243415833 -0.14925514161586761 -0.4012789726257324
vn -0.9306432604789734 -0.22544869780540466 0.2882290780544281
vn -0.9038852453231812 -0.396805077791214 -0.15980355441570282
vn 0.8466978073120117 -0.518319308757782 -0.12019961327314377
vn -0.8963742256164551 0.26174384355545044 0.3577756881713867
vn 0.12277442961931229 0.9609652161598206 -0.24793604016304016
vn 0.124051034450531 0.2571953237056732 -0.9583641886711121
vn -0.9306432604789734 -0.22544869780540466 0.2882290780544281
vn 0.8123534321784973 -0.47478634119033813 0.3386145234107971
vt 0.5600413680076599 0.1777803897857666
vt 0.5587785840034485 0.045184195041656494
vt 0.6164730191230774 0.10445177555084229
vt 0.07438936829566956 0.9995006322860718
vt 0.7367810010910034 0.22658663988113403
vt 0.931199848651886 0.9995003342628479
vt 0.2889857888221741 0.22658681869506836
vt 0.07337301224470139 0.9995002746582031
vt 0.7225812673568726 0.2196548581123352
vt 0.9370375275611877 0.9995005130767822
vt 0.2855491042137146 0.21965467929840088
vt 0.9473986625671387 0.9994998574256897
vt 0.28867053985595703 0.21731150150299072
vt 0.07083708047866821 0.9995003938674927
vt 0.7191446423530579 0.2173110842704773
vt 0.9370374083518982 0.9994994401931763
vt 0.2855490446090698 0.21965432167053223
vt 0.073372982442379 0.9994997382164001
vt 0.722581148147583 0.21965408325195312
vt 0.9425140619277954 0.9883403182029724
vt 0.2857312262058258 0.223688006401062
vt 0.07146237790584564 0.9883400201797485
vt 0.7305102944374084 0.2236882448196411
vt 0.07083702087402344 0.9995003938674927
vt 0.7191446423530579 0.2173110842704773
vt 0.9473985433578491 0.9994998574256897
vt 0.28867053985595703 0.21731150150299072
vt 0.07413583993911743 0.989530086517334
vt 0.7187356352806091 0.23603451251983643
vt 0.27759620547294617 0.23324573040008545
vt 0.9233182072639465 0.9888758659362793
vt 0.7198578715324402 0.23081225156784058
vt 0.27871841192245483 0.23425531387329102
vt 0.7293530702590942 0.21200793981552124
vt 0.2832256555557251 0.01552283763885498
vt 0.7293528318405151 0.01552194356918335
vt 0.2832258641719818 0.21200883388519287
vt 0.7293531894683838 0.02000516653060913
vt 0.283225953578949 0.020006120204925537
vt 0.2908390462398529 0.23838937282562256
vt 0.7250480055809021 0.0004995465278625488
vt 0.29083889722824097 0.0005002617835998535
vt 0.7250481247901917 0.23838865756988525
vt 0.29787319898605347 0.007179141044616699
vt 0.49228206276893616 0.23873984813690186
vt 0.30024656653404236 0.2380884885787964
vt 0.49237170815467834 0.0054149627685546875
vt 0.7212625741958618 0.23697566986083984
vt 0.7188891768455505 0.0036507248878479004
vt 0.4973408877849579 0.01549607515335083
vt 0.2996049225330353 0.24766004085540771
vt 0.29902321100234985 0.015173733234405518
vt 0.49545976519584656 0.24798238277435303
vt 0.7202885746955872 0.015818417072296143
vt 0.7208704948425293 0.2483048439025879
vt 0.494629830121994 0.0035633444786071777
vt 0.29961156845092773 0.24857044219970703
vt 0.2993311583995819 0.003310680389404297
vt 0.49244701862335205 0.2464076280593872
vt 0.7194844484329224 0.001400589942932129
vt 0.7197650074958801 0.24666035175323486
vt 0.7293208241462708 0.23683977127075195
vt 0.28505152463912964 0.2368401288986206
vt 0.2847900688648224 0.0004998445510864258
vt 0.7293094992637634 0.0023987293243408203
vt 0.2847900688648224 0.0023990869522094727
vt 0.7293094992637634 0.0004994869232177734
vt 0.7291454672813416 0.001916050910949707
vt 0.2845728397369385 0.2290862798690796
vt 0.7297945618629456 0.2290865182876587
vt 0.2846587002277374 0.0019158124923706055
vt 0.7291454672813416 0.000499725341796875
vt 0.2846587002277374 0.0004994869232177734
vt 0.2852942943572998 0.003944873809814453
vt 0.7254922389984131 0.2261873483657837
vt 0.28571760654449463 0.22618800401687622
vt 0.726307213306427 0.003944516181945801
vt 0.7263070940971375 0.0004995465278625488
vt 0.28551220893859863 0.003606736660003662
vt 0.7275545001029968 0.0036063790321350098
vt 0.7266743183135986 0.2449554204940796
vt 0.28551220893859863 0.0004997849464416504
vt 0.7275545001029968 0.0004994869232177734
vt 0.28582602739334106 0.24495583772659302
vt 0.7294196486473083 0.2413080930709839
vt 0.2819283604621887 0.24130874872207642
vt 0.2829177975654602 0.0004999637603759766
vt 0.72996985912323 0.005055546760559082
vt 0.28291791677474976 0.005056023597717285
vt 0.7304185628890991 0.000499725341796875
vt 0.2832675874233246 0.0012636184692382812
vt 0.7304064035415649 0.2428784966468811
vt 0.2825203835964203 0.242878258228302
vt 0.7304185628890991 0.0012638568878173828
vt 0.2832675874233246 0.0004994869232177734
g Geoset0
s 1
usemtl mat_metalbolts
f 1/1/1 2/2/2 3/3/3
f 4/4/4 5/5/5 6/6/6
f 4/4/4 7/7/7 5/5/5
f 8/8/8 9/9/9 10/10/10
f 8/8/8 11/11/11 9/9/9
f 12/12/12 13/13/13 14/14/14
f 12/12/12 15/15/15 13/13/13
f 16/16/16 17/17/17 18/18/18
f 16/16/16 19/19/19 17/17/17
f 20/20/20 21/21/21 22/22/22
f 20/20/20 23/23/23 21/21/21
f 24/24/24 25/25/25 26/26/26
f 24/24/24 27/27/27 25/25/25
f 28/28/28 29/29/29 30/30/30
f 28/28/28 31/31/31 29/29/29
f 28/28/28 32/32/32 31/31/31
f 28/28/28 33/33/33 32/32/32
f 34/34/34 35/35/35 36/36/36
f 34/34/34 37/37/37 35/35/35
f 38/38/38 37/37/37 34/34/34
f 38/38/38 39/39/39 37/37/37
f 40/40/40 41/41/41 42/42/42
f 40/40/40 43/43/43 41/41/41
f 44/44/44 45/45/45 46/46/46
f 44/44/44 47/47/47 45/45/45
f 47/47/47 48/48/48 45/45/45
f 47/47/47 49/49/49 48/48/48
f 50/50/50 51/51/51 52/52/52
f 50/50/50 53/53/53 51/51/51
f 54/54/54 53/53/53 50/50/50
f 54/54/54 55/55/55 53/53/53
f 56/56/56 57/57/57 58/58/58
f 56/56/56 59/59/59 57/57/57
f 60/60/60 59/59/59 56/56/56
f 60/60/60 61/61/61 59/59/59
f 62/62/62 63/63/63 64/64/64
f 65/65/65 63/63/63 62/62/62
f 65/65/65 66/66/66 63/63/63
f 67/67/67 66/66/66 65/65/65
f 67/67/67 64/64/64 66/66/66
f 62/62/62 64/64/64 67/67/67
f 68/68/68 69/69/69 70/70/70
f 68/68/68 71/71/71 69/69/69
f 72/72/72 71/71/71 68/68/68
f 72/72/72 73/73/73 71/71/71
f 70/70/70 73/73/73 72/72/72
f 70/70/70 69/69/69 73/73/73
f 74/74/74 75/75/75 76/76/76
f 74/74/74 77/77/77 75/75/75
f 73/73/73 77/77/77 74/74/74
f 73/73/73 78/78/78 77/77/77
f 76/76/76 78/78/78 73/73/73
f 76/76/76 75/75/75 78/78/78
f 79/79/79 80/80/80 81/81/81
f 82/82/82 80/80/80 79/79/79
f 82/82/82 83/83/83 80/80/80
f 84/84/84 83/83/83 82/82/82
f 84/84/84 81/81/81 83/83/83
f 79/79/79 81/81/81 84/84/84
f 85/85/85 86/86/86 87/87/87
f 88/88/88 86/86/86 85/85/85
f 88/88/88 89/89/89 86/86/86
f 85/85/85 87/87/87 90/90/90
f 90/90/90 89/89/89 88/88/88
f 90/90/90 87/87/87 89/89/89
f 91/91/91 92/92/92 93/93/93
f 93/93/93 92/92/92 90/90/90
f 91/91/91 94/94/94 92/92/92
f 95/95/95 94/94/94 91/91/91
f 95/95/95 90/90/90 94/94/94
f 93/93/93 90/90/90 95/95/95
