# Exported using wow.export v0.1.64
o darkironwoodplanks06
mtllib darkironwoodplanks06.mtl
v -0.9657280445098877 0.018078280612826347 -0.4283231794834137
v -3.2255125045776367 0.017510443925857544 -2.0011143684387207
v -3.1266932487487793 0.2065689116716385 -2.0112380981445312
v -0.6274481415748596 0.3387612998485565 2.0691864490509033
v 1.351702332496643 -0.013730514794588089 -1.261725664138794
v 1.3291587829589844 0.2157488763332367 -1.2474911212921143
v -0.585217297077179 0.5244048237800598 1.9731600284576416
v -1.0145723819732666 0.5233743190765381 1.2739187479019165
v 0.8639290928840637 0.21567301452159882 -1.715104103088379
v 0.894531786441803 -0.01379234716296196 -1.7253904342651367
v -1.048744559288025 0.33777227997779846 1.3738933801651
v -1.9186123609542847 -0.0009050235967151821 1.6479651927947998
v 0.4310511350631714 -0.01373040210455656 1.4227861166000366
v 0.4049035906791687 0.21574898064136505 1.4279963970184326
v -1.8447734117507935 0.18473851680755615 1.573451280593872
v -1.995023488998413 0.1837080419063568 0.7667854428291321
v 0.22133390605449677 0.21567313373088837 0.6315212249755859
v 0.25359031558036804 -0.013792253099381924 0.6328850984573364
v -2.062753915786743 -0.0018940019654110074 0.8478735089302063
v -3.6905734539031982 0.005741771310567856 -1.3344029188156128
v -1.209808349609375 0.014390061609447002 0.5329869389533997
v -1.2398115396499634 0.24290019273757935 0.5170319080352783
v -3.59210467338562 0.1948729008436203 -1.3355598449707031
v -1.048744559288025 0.33777227997779846 1.3738933801651
v 0.894531786441803 -0.01379234716296196 -1.7253904342651367
v 1.351702332496643 -0.013730514794588089 -1.261725664138794
v -0.6274481415748596 0.3387612998485565 2.0691864490509033
v -0.585217297077179 0.5244048237800598 1.9731600284576416
v -1.0145723819732666 0.5233743190765381 1.2739187479019165
v 1.3291587829589844 0.2157488763332367 -1.2474911212921143
v 0.8639290928840637 0.21567301452159882 -1.715104103088379
v -1.209808349609375 0.014390061609447002 0.5329869389533997
v -3.6905734539031982 0.005741771310567856 -1.3344029188156128
v -3.2255125045776367 0.017510443925857544 -2.0011143684387207
v -0.9657280445098877 0.018078280612826347 -0.4283231794834137
v -3.59210467338562 0.1948729008436203 -1.3355598449707031
v -3.1266932487487793 0.2065689116716385 -2.0112380981445312
v -1.2398115396499634 0.24290019273757935 0.5170319080352783
v -0.9953821301460266 0.24654309451580048 -0.4532454311847687
v -2.062753915786743 -0.0018940019654110074 0.8478735089302063
v 0.25359031558036804 -0.013792253099381924 0.6328850984573364
v 0.4310511350631714 -0.01373040210455656 1.4227861166000366
v -1.9186123609542847 -0.0009050235967151821 1.6479651927947998
v -1.8447734117507935 0.18473851680755615 1.573451280593872
v -1.995023488998413 0.1837080419063568 0.7667854428291321
v 0.4049035906791687 0.21574898064136505 1.4279963970184326
v 0.22133390605449677 0.21567313373088837 0.6315212249755859
v -0.9953821301460266 0.24654309451580048 -0.4532454311847687
vn 0.9412164092063904 -0.20633311569690704 -0.2674664258956909
vn -0.3185320198535919 -0.5068228244781494 -0.801041841506958
vn -0.11159290373325348 0.5212429165840149 -0.8460808992385864
vn 0.7837507724761963 -0.24419182538986206 0.571056067943573
vn 0.9461727142333984 -0.2937704920768738 -0.135853111743927
vn 0.9569532871246338 0.28544074296951294 0.05257406830787659
vn -0.7410619854927063 0.45766907930374146 0.49129024147987366
vn -0.9440879225730896 0.3043382465839386 -0.12679189443588257
vn 0.4433431625366211 0.2879776060581207 -0.8488319516181946
vn -0.6321879625320435 -0.2917829751968384 -0.7177751064300537
vn -0.9755591154098511 -0.2042618691921234 0.08100324124097824
vn -0.25379428267478943 -0.11202997714281082 0.960748553276062
vn 0.9454159736633301 -0.2849443852901459 0.15809908509254456
vn 0.38750505447387695 0.4988034665584564 0.7752644419670105
vn -0.8964641690254211 0.30976977944374084 0.3168512284755707
vn -0.8008306622505188 0.3261508643627167 -0.5022906064987183
vn 0.8772935271263123 0.1731642335653305 -0.44762736558914185
vn 0.5595835447311401 -0.2977750301361084 -0.7734315395355225
vn -0.8590990304946899 -0.3672911822795868 -0.35643520951271057
vn -0.9635887742042542 -0.04479191079735756 0.263610303401947
vn 0.8723021149635315 -0.3616959750652313 0.32903650403022766
vn -0.6463011503219604 0.494306743144989 0.5813395380973816
vn -0.9675630331039429 0.24941733479499817 -0.04015941172838211
vn -0.9755591154098511 -0.2042618691921234 0.08100324124097824
vn -0.6321879625320435 -0.2917829751968384 -0.7177751064300537
vn 0.9461727142333984 -0.2937704920768738 -0.135853111743927
vn 0.7837507724761963 -0.24419182538986206 0.571056067943573
vn -0.7410619854927063 0.45766907930374146 0.49129024147987366
vn -0.9440879225730896 0.3043382465839386 -0.12679189443588257
vn 0.9569532871246338 0.28544074296951294 0.05257406830787659
vn 0.4433431625366211 0.2879776060581207 -0.8488319516181946
vn 0.8723021149635315 -0.3616959750652313 0.32903650403022766
vn -0.9635887742042542 -0.04479191079735756 0.263610303401947
vn -0.3185320198535919 -0.5068228244781494 -0.801041841506958
vn 0.9412164092063904 -0.20633311569690704 -0.2674664258956909
vn -0.9675630331039429 0.24941733479499817 -0.04015941172838211
vn -0.11159290373325348 0.5212429165840149 -0.8460808992385864
vn -0.6463011503219604 0.494306743144989 0.5813395380973816
vn 0.9920912981033325 0.11326199024915695 -0.054098136723041534
vn -0.8590990304946899 -0.3672911822795868 -0.35643520951271057
vn 0.5595835447311401 -0.2977750301361084 -0.7734315395355225
vn 0.9454159736633301 -0.2849443852901459 0.15809908509254456
vn -0.25379428267478943 -0.11202997714281082 0.960748553276062
vn -0.8964641690254211 0.30976977944374084 0.3168512284755707
vn -0.8008306622505188 0.3261508643627167 -0.5022906064987183
vn 0.38750505447387695 0.4988034665584564 0.7752644419670105
vn 0.8772935271263123 0.1731642335653305 -0.44762736558914185
vn 0.9920912981033325 0.11326199024915695 -0.054098136723041534
vt 0.8698166608810425 1
vt 0.026742324233055115 1
vt 0.034665681421756744 0
vt 0.010426697321236134 1
vt 0.8846136927604675 1
vt 0.8693722486495972 0
vt 0.05262535810470581 0
vt 0.034665681421756744 0
vt 0.8538761138916016 0
vt 0.8698166608810425 1
vt 0.026742324233055115 1
vt 0.010426697321236134 1
vt 0.8846136927604675 1
vt 0.8693722486495972 0
vt 0.05262535810470581 0
vt 0.034665681421756744 0
vt 0.8538761138916016 0
vt 0.8698166608810425 1
vt 0.026742324233055115 1
vt 0.010426697321236134 1
vt 0.8846136927604675 1
vt 0.8693722486495972 0
vt 0.05262535810470581 0
vt 0.9950978755950928 0
vt 0.0016094261081889272 0
vt 0.0009686063858680427 1
vt 0.9940342307090759 1
vt 0.8834877014160156 1
vt 0.8813185095787048 0
vt 0.033871740102767944 1
vt 0.031215958297252655 0
vt 0.0009686063858680427 1
vt 0.9940342307090759 1
vt 0.9950978755950928 0
vt 0.0016094261081889272 0
vt 0.8834877014160156 1
vt 0.8813185095787048 0
vt 0.033871740102767944 1
vt 0.031215958297252655 0
vt 0.9950978755950928 0
vt 0.0016094261081889272 0
vt 0.0009686063858680427 1
vt 0.9940342307090759 1
vt 0.8834877014160156 1
vt 0.8813185095787048 0
vt 0.033871740102767944 1
vt 0.031215958297252655 0
vt 0.8538761138916016 0
g Geoset0
s 1
usemtl mat_darkirondwarfboard01
f 1/1/1 2/2/2 3/3/3
f 4/4/4 5/5/5 6/6/6
f 6/6/6 7/7/7 4/4/4
f 8/8/8 9/9/9 10/10/10
f 10/10/10 11/11/11 8/8/8
f 12/12/12 13/13/13 14/14/14
f 14/14/14 15/15/15 12/12/12
f 16/16/16 17/17/17 18/18/18
f 18/18/18 19/19/19 16/16/16
f 20/20/20 21/21/21 22/22/22
f 22/22/22 23/23/23 20/20/20
f 24/24/24 25/25/25 26/26/26
f 26/26/26 27/27/27 24/24/24
f 24/24/24 27/27/27 28/28/28
f 28/28/28 29/29/29 24/24/24
f 29/29/29 28/28/28 30/30/30
f 30/30/30 31/31/31 29/29/29
f 31/31/31 30/30/30 26/26/26
f 26/26/26 25/25/25 31/31/31
f 32/32/32 33/33/33 34/34/34
f 34/34/34 35/35/35 32/32/32
f 34/34/34 33/33/33 36/36/36
f 36/36/36 37/37/37 34/34/34
f 37/37/37 36/36/36 38/38/38
f 38/38/38 39/39/39 37/37/37
f 39/39/39 38/38/38 32/32/32
f 32/32/32 35/35/35 39/39/39
f 40/40/40 41/41/41 42/42/42
f 42/42/42 43/43/43 40/40/40
f 40/40/40 43/43/43 44/44/44
f 44/44/44 45/45/45 40/40/40
f 45/45/45 44/44/44 46/46/46
f 46/46/46 47/47/47 45/45/45
f 47/47/47 46/46/46 42/42/42
f 42/42/42 41/41/41 47/47/47
f 3/3/3 48/48/48 1/1/1
