# Exported using wow.export v0.1.64
o gnomesteelplate03
mtllib gnomesteelplate03.mtl
v -0.444791316986084 -0.2937394976615906 1.156097173690796
v -0.3649681806564331 -0.0591668039560318 1.0835634469985962
v -0.3845738470554352 -0.0612940713763237 0.4341886043548584
v 1.1594053506851196 -0.2937394976615906 -0.5739886164665222
v 1.1907879114151 -0.059166789054870605 -0.5360413193702698
v 1.3793598413467407 -0.0591668039560318 0.0015775663778185844
v 1.3720041513442993 -0.2937394976615906 0.05026810243725777
v 1.1907879114151 -0.059166789054870605 -0.5360413193702698
v -0.030159035697579384 0.2937394678592682 -0.22453567385673523
v 0.09324278682470322 0.23006555438041687 0.31727102398872375
v 1.3793598413467407 -0.0591668039560318 0.0015775663778185844
v -0.030159035697579384 0.2937394678592682 -0.22453567385673523
v -1.3187689781188965 0.05266527831554413 0.1296592652797699
v -1.0925496816635132 0.05266527831554413 0.562167227268219
v 0.09324278682470322 0.23006555438041687 0.31727102398872375
v -1.3187689781188965 0.05266527831554413 0.1296592652797699
v -1.3793598413467407 -0.11148801445960999 0.09981222450733185
v -1.129113793373108 -0.11148801445960999 0.6189579367637634
v -1.0925496816635132 0.05266527831554413 0.562167227268219
v -1.3793598413467407 -0.11148801445960999 0.09981222450733185
v -0.06019049882888794 0.03398580104112625 -0.2794167697429657
v 0.1081494465470314 0.10060543566942215 0.3798605501651764
v -1.129113793373108 -0.11148801445960999 0.6189579367637634
v -0.06019049882888794 0.03398580104112625 -0.2794167697429657
v 1.1594053506851196 -0.2937394976615906 -0.5739886164665222
v 1.3720041513442993 -0.2937394976615906 0.05026810243725777
v 0.1081494465470314 0.10060543566942215 0.3798605501651764
v -1.3187689781188965 0.05266527831554413 0.1296592652797699
v -0.030159035697579384 0.2937394678592682 -0.22453567385673523
v -0.06019049882888794 0.03398580104112625 -0.2794167697429657
v -1.3793598413467407 -0.11148801445960999 0.09981222450733185
v -0.030159035697579384 0.2937394678592682 -0.22453567385673523
v 1.1907879114151 -0.059166789054870605 -0.5360413193702698
v 1.1594053506851196 -0.2937394976615906 -0.5739886164665222
v -0.06019049882888794 0.03398580104112625 -0.2794167697429657
v -1.0925496816635132 0.05266527831554413 0.562167227268219
v -1.129113793373108 -0.11148801445960999 0.6189579367637634
v 0.1081494465470314 0.10060543566942215 0.3798605501651764
v 0.09324278682470322 0.23006555438041687 0.31727102398872375
v 0.09324278682470322 0.23006555438041687 0.31727102398872375
v 0.1081494465470314 0.10060543566942215 0.3798605501651764
v 1.3720041513442993 -0.2937394976615906 0.05026810243725777
v 1.3793598413467407 -0.0591668039560318 0.0015775663778185844
v 0.4228913187980652 -0.2937394976615906 1.3132482767105103
v 0.342364102602005 -0.059166789054870605 1.2063287496566772
v -0.3649681806564331 -0.0591668039560318 1.0835634469985962
v -0.444791316986084 -0.2937394976615906 1.156097173690796
v 0.342364102602005 -0.059166789054870605 1.2063287496566772
v 0.2657548785209656 0.002379833720624447 0.40300241112709045
v -0.3845738470554352 -0.0612940713763237 0.4341886043548584
v -0.3649681806564331 -0.0591668039560318 1.0835634469985962
v 0.2657548785209656 0.002379833720624447 0.40300241112709045
v 0.4070987105369568 0.05266527831554413 -1.2628376483917236
v -0.46350109577178955 0.05266527831554413 -1.1604286432266235
v -0.3845738470554352 -0.0612940713763237 0.4341886043548584
v 0.4070987105369568 0.05266527831554413 -1.2628376483917236
v 0.45205244421958923 -0.11148801445960999 -1.3132485151290894
v -0.5084550380706787 -0.11148801445960999 -1.2108396291732788
v -0.46350109577178955 0.05266527831554413 -1.1604286432266235
v 0.45205244421958923 -0.11148801445960999 -1.3132485151290894
v 0.3266655504703522 -0.2573738694190979 0.3887295424938202
v -0.44887059926986694 -0.19075419008731842 0.43182680010795593
v -0.5084550380706787 -0.11148801445960999 -1.2108396291732788
v 0.3266655504703522 -0.2573738694190979 0.3887295424938202
v 0.4228913187980652 -0.2937394976615906 1.3132482767105103
v -0.444791316986084 -0.2937394976615906 1.156097173690796
v -0.44887059926986694 -0.19075419008731842 0.43182680010795593
v 0.4070987105369568 0.05266527831554413 -1.2628376483917236
v 0.2657548785209656 0.002379833720624447 0.40300241112709045
v 0.3266655504703522 -0.2573738694190979 0.3887295424938202
v 0.45205244421958923 -0.11148801445960999 -1.3132485151290894
v 0.2657548785209656 0.002379833720624447 0.40300241112709045
v 0.342364102602005 -0.059166789054870605 1.2063287496566772
v 0.4228913187980652 -0.2937394976615906 1.3132482767105103
v 0.3266655504703522 -0.2573738694190979 0.3887295424938202
v -0.46350109577178955 0.05266527831554413 -1.1604286432266235
v -0.5084550380706787 -0.11148801445960999 -1.2108396291732788
v -0.44887059926986694 -0.19075419008731842 0.43182680010795593
v -0.3845738470554352 -0.0612940713763237 0.4341886043548584
v -0.44887059926986694 -0.19075419008731842 0.43182680010795593
vn -0.9208304286003113 0.38702189922332764 0.04780574515461922
vn -0.9437171816825867 0.3296155631542206 0.02741256356239319
vn -0.9122051000595093 0.4057222008705139 0.05719531327486038
vn 0.941764235496521 -0.08433804661035538 -0.32552608847618103
vn 0.9411523938179016 -0.07250971347093582 -0.3301129639148712
vn 0.941764235496521 -0.08433804661035538 -0.32552608847618103
vn 0.9422241449356079 -0.09615278244018555 -0.3208867609500885
vn 0.24596954882144928 0.9692015051841736 -0.012142936699092388
vn 0.0033598099835217 0.995655357837677 0.09305445849895477
vn 0.1267673820257187 0.9911202192306519 0.040133487433195114
vn 0.2022489756345749 0.9767614603042603 -0.07093959301710129
vn 0.0033598099835217 0.995655357837677 0.09305445849895477
vn -0.16084828972816467 0.9833869934082031 0.08413021266460419
vn -0.1393381953239441 0.9837432503700256 0.11328737437725067
vn 0.1267673820257187 0.9911202192306519 0.040133487433195114
vn -0.8548299670219421 0.29165998101234436 0.4291854500770569
vn -0.8731775879859924 0.24576979875564575 0.42090150713920593
vn -0.8548299670219421 0.29165998101234436 0.4291854500770569
vn -0.8343358039855957 0.3368177115917206 0.43639159202575684
vn 0.1418277472257614 -0.989884614944458 -0.0036495181266218424
vn -0.1244494765996933 -0.9866253137588501 0.10527495294809341
vn 0.009414023719727993 -0.9985710978507996 0.052604131400585175
vn 0.15449054539203644 -0.9851837158203125 -0.07446973770856857
vn -0.1244494765996933 -0.9866253137588501 0.10527495294809341
vn -0.24016819894313812 -0.967279314994812 0.081792451441288
vn -0.2479521632194519 -0.9610902070999146 0.12175941467285156
vn 0.009414023719727993 -0.9985710978507996 0.052604131400585175
vn -0.2956985533237457 0.25256234407424927 -0.9212896227836609
vn -0.22144706547260284 0.2119460254907608 -0.9518613815307617
vn -0.25494450330734253 0.24306106567382812 -0.9359084367752075
vn -0.2935185432434082 0.27481910586357117 -0.9155988693237305
vn -0.22144706547260284 0.2119460254907608 -0.9518613815307617
vn -0.19341884553432465 0.18184374272823334 -0.9641172289848328
vn -0.18273568153381348 0.20229113101959229 -0.9621257781982422
vn -0.25494450330734253 0.24306106567382812 -0.9359084367752075
vn 0.12484221160411835 0.3716204762458801 0.9199525117874146
vn 0.13167086243629456 0.2977813184261322 0.9455099701881409
vn 0.20240914821624756 0.39732927083969116 0.8950753808021545
vn 0.2511746883392334 0.36155012249946594 0.8978824019432068
vn 0.2511746883392334 0.36155012249946594 0.8978824019432068
vn 0.20240914821624756 0.39732927083969116 0.8950753808021545
vn 0.3164982199668884 0.31691476702690125 0.8940883278846741
vn 0.27368268370628357 0.18724437057971954 0.9434179067611694
vn -0.16336816549301147 0.35325369238853455 0.9211528897285461
vn -0.15929624438285828 0.36365798115730286 0.9178112745285034
vn -0.16336816549301147 0.35325369238853455 0.9211528897285461
vn -0.16741782426834106 0.3428013026714325 0.9243692755699158
vn -0.046340640634298325 0.9980889558792114 0.04087799787521362
vn -0.06109822541475296 0.9960951805114746 0.06372929364442825
vn -0.062131259590387344 0.9966872334480286 0.052480846643447876
vn 0.0005715336301364005 0.9999943971633911 -0.003293112153187394
vn -0.06109822541475296 0.9960951805114746 0.06372929364442825
vn 0.0035849250853061676 0.9995290637016296 0.030476195737719536
vn -0.04506005719304085 0.9975718855857849 0.0531034991145134
vn -0.062131259590387344 0.9966872334480286 0.052480846643447876
vn -0.10649073868989944 0.2929626703262329 -0.9501750469207764
vn -0.10218894481658936 0.2663503587245941 -0.9584439992904663
vn -0.10649073868989944 0.2929626703262329 -0.9501750469207764
vn -0.1107078567147255 0.3193419873714447 -0.9411506056785583
vn -0.04775497689843178 -0.9964092969894409 -0.06991396099328995
vn -0.05860447883605957 -0.9941585659980774 -0.09063242375850677
vn -0.06271310895681381 -0.993665337562561 -0.09325363487005234
vn -0.005119087640196085 -0.9988335967063904 -0.0480126217007637
vn -0.05860447883605957 -0.9941585659980774 -0.09063242375850677
vn 0.007254977244883776 -0.9991710782051086 -0.04005718603730202
vn -0.042704179883003235 -0.9950180649757385 -0.09008575975894928
vn -0.06271310895681381 -0.993665337562561 -0.09325363487005234
vn 0.9690456986427307 0.22976432740688324 0.09032595157623291
vn 0.9676359295845032 0.2512376010417938 -0.02367173321545124
vn 0.9724030494689941 0.23139989376068115 0.02977299876511097
vn 0.9672434329986572 0.2367662638425827 0.09155260026454926
vn 0.9676359295845032 0.2512376010417938 -0.02367173321545124
vn 0.9527526497840881 0.2959960401058197 -0.0681815892457962
vn 0.9611428380012512 0.2642146944999695 -0.07996905595064163
vn 0.9724030494689941 0.23139989376068115 0.02977299876511097
vn -0.9353556632995605 0.34826159477233887 0.06183578819036484
vn -0.9670095443725586 0.2503373324871063 0.04715626314282417
vn -0.9226327538490295 0.38033705949783325 0.06397286802530289
vn -0.9122051000595093 0.4057222008705139 0.05719531327486038
vn -0.9226327538490295 0.38033705949783325 0.06397286802530289
vt 0.0007238090038299561 0.1585443615913391
vt 0.06017652153968811 0.15533888339996338
vt 0.06017652153968811 0.3344910740852356
vt 0.057237256318330765 0.013228237628936768
vt 0.0595366545021534 0.15533888339996338
vt 0.2413359433412552 0.15533888339996338
vt 0.24226970970630646 0.018059194087982178
vt 0.0595366545021534 0.15533888339996338
vt 0.0595366545021534 0.3344910740852356
vt 0.2413359433412552 0.3344910740852356
vt 0.2413359433412552 0.15533888339996338
vt 0.05953662097454071 0.6927955150604248
vt 0.05953662097454071 0.8719477653503418
vt 0.2413359433412552 0.8719477653503418
vt 0.2413359433412552 0.6927955150604248
vt 0.06195208057761192 0.15455645322799683
vt 0.05965268611907959 0.016473829746246338
vt 0.2471005618572235 0.021304786205291748
vt 0.2437514066696167 0.15455645322799683
vt 0.058645036071538925 0.8723236918449402
vt 0.058645036071538925 0.6947854161262512
vt 0.24177393317222595 0.6947854161262512
vt 0.24177393317222595 0.8723236918449402
vt 0.058645062148571014 0.33970892429351807
vt 0.058645062148571014 0.16217070817947388
vt 0.24177399277687073 0.16217076778411865
vt 0.24177399277687073 0.33970892429351807
vt 0.05953662097454071 0.8719477653503418
vt 0.05953662097454071 0.6927955150604248
vt 0.0016816705465316772 0.7107107639312744
vt 0.0016816705465316772 0.8665736317634583
vt 0.0595366545021534 0.3344910740852356
vt 0.0595366545021534 0.15533888339996338
vt 0.001681700348854065 0.1585443615913391
vt 0.001681700348854065 0.31657588481903076
vt 0.06017652153968811 0.8719477653503418
vt 0.0007237493991851807 0.8665736317634583
vt 0.0007237493991851807 0.7107107639312744
vt 0.06017652153968811 0.6927955150604248
vt 0.06017652153968811 0.3344910740852356
vt 0.0007238090038299561 0.31657588481903076
vt 0.0007238090038299561 0.1585443615913391
vt 0.06017652153968811 0.15533888339996338
vt 0.057237256318330765 0.013228237628936768
vt 0.0595366545021534 0.15533888339996338
vt 0.2413359433412552 0.15533888339996338
vt 0.24226970970630646 0.018059194087982178
vt 0.0595366545021534 0.15533888339996338
vt 0.0595366545021534 0.3344910740852356
vt 0.2413359433412552 0.3344910740852356
vt 0.2413359433412552 0.15533888339996338
vt 0.05953662097454071 0.6927955150604248
vt 0.05953662097454071 0.8719477653503418
vt 0.2413359433412552 0.8719477653503418
vt 0.2413359433412552 0.6927955150604248
vt 0.06195208057761192 0.15455645322799683
vt 0.05965268611907959 0.016473829746246338
vt 0.2471005618572235 0.021304786205291748
vt 0.2437514066696167 0.15455645322799683
vt 0.058645036071538925 0.8723236918449402
vt 0.058645036071538925 0.6947854161262512
vt 0.24177393317222595 0.6947854161262512
vt 0.24177393317222595 0.8723236918449402
vt 0.058645062148571014 0.33970892429351807
vt 0.058645062148571014 0.16217070817947388
vt 0.24177399277687073 0.16217076778411865
vt 0.24177399277687073 0.33970892429351807
vt 0.05953662097454071 0.8719477653503418
vt 0.05953662097454071 0.6927955150604248
vt 0.0016816705465316772 0.7107107639312744
vt 0.0016816705465316772 0.8665736317634583
vt 0.0595366545021534 0.3344910740852356
vt 0.0595366545021534 0.15533888339996338
vt 0.001681700348854065 0.1585443615913391
vt 0.001681700348854065 0.31657588481903076
vt 0.06017652153968811 0.8719477653503418
vt 0.0007237493991851807 0.8665736317634583
vt 0.0007237493991851807 0.7107107639312744
vt 0.06017652153968811 0.6927955150604248
vt 0.0007238090038299561 0.31657588481903076
g Geoset0
s 1
usemtl mat_tj_gnomemetalbits
f 1/1/1 2/2/2 3/3/3
f 4/4/4 5/5/5 6/6/6
f 6/6/6 7/7/7 4/4/4
f 8/8/8 9/9/9 10/10/10
f 10/10/10 11/11/11 8/8/8
f 12/12/12 13/13/13 14/14/14
f 14/14/14 15/15/15 12/12/12
f 16/16/16 17/17/17 18/18/18
f 18/18/18 19/19/19 16/16/16
f 20/20/20 21/21/21 22/22/22
f 22/22/22 23/23/23 20/20/20
f 24/24/24 25/25/25 26/26/26
f 26/26/26 27/27/27 24/24/24
f 28/28/28 29/29/29 30/30/30
f 30/30/30 31/31/31 28/28/28
f 32/32/32 33/33/33 34/34/34
f 34/34/34 35/35/35 32/32/32
f 36/36/36 37/37/37 38/38/38
f 38/38/38 39/39/39 36/36/36
f 40/40/40 41/41/41 42/42/42
f 42/42/42 43/43/43 40/40/40
f 44/44/44 45/45/45 46/46/46
f 46/46/46 47/47/47 44/44/44
f 48/48/48 49/49/49 50/50/50
f 50/50/50 51/51/51 48/48/48
f 52/52/52 53/53/53 54/54/54
f 54/54/54 55/55/55 52/52/52
f 56/56/56 57/57/57 58/58/58
f 58/58/58 59/59/59 56/56/56
f 60/60/60 61/61/61 62/62/62
f 62/62/62 63/63/63 60/60/60
f 64/64/64 65/65/65 66/66/66
f 66/66/66 67/67/67 64/64/64
f 68/68/68 69/69/69 70/70/70
f 70/70/70 71/71/71 68/68/68
f 72/72/72 73/73/73 74/74/74
f 74/74/74 75/75/75 72/72/72
f 76/76/76 77/77/77 78/78/78
f 78/78/78 79/79/79 76/76/76
f 3/3/3 80/80/80 1/1/1
