# Exported using wow.export v0.1.64
o ogrewalltorch
mtllib ogrewalltorch.mtl
v -1.1346367597579956 5.380229949951172 2.512089729309082
v -1.1346354484558105 0.11703576147556305 2.512089252471924
v -1.1346379518508911 5.38023042678833 -2.51440167427063
v -1.1346365213394165 0.11703618615865707 -2.514402151107788
v -0.6246063113212585 2.076965570449829 0.2613544464111328
v -0.5130544304847717 1.9523696899414062 0.183978870511055
v -0.5849037170410156 2.0436511039733887 0.21643683314323425
v -0.4611892104148865 2.269192934036255 -0.09293124824762344
v -0.3889172375202179 2.0467731952667236 0.033128026872873306
v -0.4191505014896393 2.0190694332122803 -0.08399724215269089
v -0.500208854675293 2.282846212387085 -0.1122279018163681
v -0.4611652195453644 2.2860496044158936 -0.0688978061079979
v -0.49513426423072815 2.302522897720337 -0.08191744983196259
v -0.47994524240493774 2.2201733589172363 0.002214528154581785
v -0.5361732840538025 2.1964621543884277 -0.14926351606845856
v -0.7903580665588379 2.1310439109802246 -0.07936685532331467
v -0.8132289052009583 2.0157504081726074 0.002214526990428567
v -0.8634657263755798 2.1559031009674072 0.01014537364244461
v -0.7702348828315735 2.0505659580230713 -0.14926353096961975
v -0.7135874032974243 2.160348653793335 -0.11994193494319916
v -0.6664382219314575 2.1346189975738525 -0.2120077759027481
v -0.6430701017379761 2.2920162677764893 -0.08781146258115768
v -0.5361732840538025 2.1964621543884277 -0.14926351606845856
v -0.555676281452179 2.3103671073913574 -0.0017970831831917167
v -0.47994524240493774 2.2201733589172363 0.002214528154581785
v -0.6376040577888489 2.3041045665740967 0.08771515637636185
v -0.5361732840538025 2.1964621543884277 0.13641659915447235
v -0.7848919034004211 2.143132448196411 0.09615975618362427
v -0.5849037170410156 2.0436511039733887 0.21643683314323425
v -0.7227442860603333 2.306708335876465 0.12829022109508514
v -0.644281268119812 2.0125350952148438 0.18824459612369537
v -0.3889172375202179 2.0467731952667236 0.033128026872873306
v -0.4191504716873169 2.0190694332122803 0.1502533257007599
v -0.5130544304847717 1.9523696899414062 0.183978870511055
v -0.16166825592517853 1.6286112070083618 0.050248365849256516
v 0.5545170903205872 1.3613255023956299 0.10056722164154053
v -0.12156348675489426 1.6875799894332886 0.07927065342664719
v 0.5343461632728577 1.3199689388275146 0.08324048668146133
v -0.17828018963336945 1.6041855812072754 -0.019817667081952095
v 0.5259910225868225 1.3028384447097778 0.04141003265976906
v -0.08145862072706223 1.7465490102767944 0.05024835094809532
v 0.574688196182251 1.4026823043823242 0.08324048668146133
v -0.5438500046730042 1.9269509315490723 0.16504263877868652
v -0.5953627824783325 1.8576008081436157 0.033128030598163605
v -0.5651295781135559 1.885304570198059 -0.08399724960327148
v -0.4921399652957916 1.952187180519104 -0.13251212239265442
v -0.4191505014896393 2.0190694332122803 -0.08399724215269089
v -0.16166825592517853 1.6286112070083618 -0.08988368511199951
v -0.12156348675489426 1.6875799894332886 -0.11890596896409988
v -0.08145862072706223 1.7465490102767944 -0.08988368511199951
v -0.06484656780958176 1.7709747552871704 -0.019817667081952095
v 0.5343461632728577 1.3199689388275146 -0.000420417170971632
v 0.5545170903205872 1.3613255023956299 -0.01774715818464756
v 0.574688196182251 1.4026823043823242 -0.000420417170971632
v 0.5830432176589966 1.419812798500061 0.04141003265976906
v -0.6296788454055786 2.0448415279388428 0.26272955536842346
v -0.644281268119812 2.0125350952148438 0.18824459612369537
v -0.5438500046730042 1.9269509315490723 0.16504263877868652
v -0.6463190913200378 2.063859701156616 0.24698297679424286
v -0.6167053580284119 2.0540239810943604 0.271028995513916
vn 1 2.5628978050917794e-7 -2.0503192388332536e-7
vn 1 2.5628978050917794e-7 -2.0503192388332536e-7
vn 1 2.5628978050917794e-7 -2.0503192388332536e-7
vn 1 2.5628978050917794e-7 -2.0503192388332536e-7
vn -0.03694171458482742 0.918587863445282 0.39348646998405457
vn 0.17189504206180573 -0.5351948738098145 0.8270541429519653
vn 0.6187053918838501 0.7842970490455627 -0.045627325773239136
vn 0.7377841472625732 0.3311070203781128 -0.588253915309906
vn 0.9665101766586304 0.22491978108882904 -0.12356828153133392
vn 0.8874058723449707 0.13818709552288055 -0.43978992104530334
vn -0.21300123631954193 0.6220529675483704 -0.7534458041191101
vn 0.6531273126602173 0.7364608645439148 0.17621034383773804
vn -0.31984347105026245 0.946130096912384 0.050378307700157166
vn 0.2659744620323181 0.5791666507720947 0.7705994844436646
vn 0.19471195340156555 0.27022892236709595 -0.9429016709327698
vn -0.7208184599876404 0.3977329432964325 -0.5676524043083191
vn -0.8319963812828064 -0.5485374331474304 0.08299809694290161
vn -0.9394827485084534 0.34130027890205383 0.029771314933896065
vn -0.6781473755836487 -0.25271180272102356 -0.6901108026504517
vn -0.6573969125747681 0.6120496392250061 -0.43957316875457764
vn -0.2195730358362198 0.17388667166233063 -0.9599745273590088
vn -0.4869902431964874 0.8685039281845093 -0.09241984039545059
vn 0.40728363394737244 0.4383109211921692 -0.801251232624054
vn 0.3111151456832886 0.9502522945404053 0.015096581541001797
vn 0.7580289840698242 0.6232203841209412 0.19232366979122162
vn 0.31859639286994934 0.8421438336372375 0.4350747764110565
vn 0.5102668404579163 0.542024552822113 0.6677103638648987
vn -0.7412188649177551 0.16920769214630127 0.649587094783783
vn 0.0525503046810627 0.20866329967975616 0.9765746593475342
vn -0.5571020245552063 0.7764226794242859 0.2946271300315857
vn -0.5848348140716553 -0.3374950885772705 0.7376078367233276
vn 0.7155093550682068 0.6819694638252258 0.1515389233827591
vn 0.5657315254211426 0.3594227135181427 0.742134153842926
vn 0.185238778591156 -0.2018730193376541 0.9617348313331604
vn -0.3041157126426697 -0.6662976741790771 0.6808531880378723
vn -0.026645276695489883 0.013096094131469727 0.9995591640472412
vn 0.06905760616064072 -0.07052420824766159 0.9951167702674866
vn -0.3034929931163788 -0.6014445424079895 0.7390239834785461
vn -0.45523929595947266 -0.8901550769805908 -0.019522089511156082
vn -0.3933091163635254 -0.91912841796875 0.022603055462241173
vn 0.4324136972427368 0.5549692511558533 0.7106528878211975
vn 0.28528937697410583 0.6112940907478333 0.7381933927536011
vn -0.37006571888923645 -0.6585634350776672 0.6552446484565735
vn -0.5558900237083435 -0.8177562952041626 0.14920097589492798
vn -0.3942839205265045 -0.6746748685836792 -0.6239823698997498
vn 0.10233313590288162 -0.1623774915933609 -0.981407880783081
vn 0.5016375780105591 0.4026382565498352 -0.7656645178794861
vn -0.3011724054813385 -0.6427847146987915 -0.7043599486351013
vn 0.056370846927165985 -0.057465340942144394 -0.9967547655105591
vn 0.40620774030685425 0.5509321689605713 -0.7290192246437073
vn 0.5673567652702332 0.8229447603225708 -0.02946622110903263
vn -0.20197559893131256 -0.6685741543769836 -0.7156915664672852
vn 0.12004341185092926 -0.05697900056838989 -0.9911321401596069
vn 0.39715346693992615 0.5749800801277161 -0.7153090834617615
vn 0.47641637921333313 0.8789647221565247 0.021176379173994064
vn -0.531816840171814 -0.41749563813209534 0.7367959022521973
vn -0.8557740449905396 -0.4903643727302551 0.16490471363067627
vn -0.12241621315479279 -0.6886192560195923 0.7147151827812195
vn -0.866341233253479 0.49944421648979187 0.0028803579043596983
vn 0.20059187710285187 0.06301924586296082 0.9776458740234375
vt 0 1
vt 0 0
vt 1 1
vt 1 0
vt 0.25227150321006775 0.9977594017982483
vt 0.18632623553276062 0.5853859782218933
vt 0.34582778811454773 0.7482559084892273
vt 0.7910594344139099 0.7889061570167542
vt 0.8998193740844727 0.7079896926879883
vt 0.8313196897506714 0.6749254465103149
vt 0.5923364758491516 0.7999085783958435
vt 0.8101810812950134 0.8587985038757324
vt 0.6364637613296509 0.8742659687995911
vt 0.6530715227127075 0.7081792950630188
vt 0.4934796392917633 0.675973117351532
vt 0.2521466910839081 0.9298828840255737
vt 0.038717903196811676 0.8524029850959778
vt 0.01698547601699829 0.9753796458244324
vt 0.16907574236392975 0.8526843786239624
vt 0.4225180745124817 0.9105230569839478
vt 0.49545010924339294 0.8533637523651123
vt 0.805398166179657 0.9560509920120239
vt 0.8107286095619202 0.8278385400772095
vt 0.9669071435928345 0.9249409437179565
vt 0.940369188785553 0.8150176405906677
vt 0.8391441702842712 0.9607175588607788
vt 0.8107287883758545 0.8278385996818542
vt 0.34869465231895447 0.9345494508743286
vt 0.4816116690635681 0.7590110301971436
vt 0.7260638475418091 1.003404140472412
vt 0.26249390840530396 0.7688771486282349
vt 0.9697364568710327 0.682436466217041
vt 0.7457354664802551 0.6814312934875488
vt 0.45270463824272156 0.6909289956092834
vt 0.1368808150291443 0.3441314697265625
vt 0.4497760832309723 0.026957213878631592
vt 0.44933974742889404 0.3443448543548584
vt 0.14060989022254944 0.027057409286499023
vt 0.05074986070394516 0.3464585542678833
vt 0.05565756559371948 0.0295143723487854
vt 0.7366774082183838 0.3445582389831543
vt 0.7401014566421509 0.026857078075408936
vt 0.27174845337867737 0.6917316317558289
vt 0.04079606384038925 0.6804033517837524
vt 0.11793718487024307 0.676577627658844
vt 0.48521777987480164 0.679004430770874
vt 0.7457354664802551 0.6814312934875488
vt 0.1368808150291443 0.3441314697265625
vt 0.44933953881263733 0.3443448543548584
vt 0.7366774082183838 0.3445582389831543
vt 0.9730501770973206 0.3446465730667114
vt 0.14060989022254944 0.027057349681854248
vt 0.4497758746147156 0.026957213878631592
vt 0.7401014566421509 0.026857078075408936
vt 0.9690152406692505 0.02681565284729004
vt 0.11639831960201263 0.8302549719810486
vt 0.05969160422682762 0.7722136974334717
vt 0.09969006478786469 0.5886626243591309
vt 0.0787537544965744 0.9989480376243591
vt 0.21462783217430115 0.8348734378814697
g Geoset0
s 1
usemtl mat_genericglow_alpha_128
f 1/1/1 2/2/2 3/3/3
f 4/4/4 3/3/3 2/2/2
g Geoset1
s 1
usemtl mat_ogretorch03
f 5/5/5 6/6/6 7/7/7
f 8/8/8 9/9/9 10/10/10
f 11/11/11 8/8/8 10/10/10
f 12/12/12 13/13/13 14/14/14
f 13/13/13 15/15/15 14/14/14
f 11/11/11 10/10/10 15/15/15
f 13/13/13 11/11/11 15/15/15
f 13/13/13 8/8/8 11/11/11
f 13/13/13 12/12/12 8/8/8
f 8/8/8 12/12/12 9/9/9
f 12/12/12 14/14/14 9/9/9
f 16/16/16 17/17/17 18/18/18
f 16/16/16 19/19/19 17/17/17
f 20/20/20 19/19/19 16/16/16
f 20/20/20 21/21/21 19/19/19
f 22/22/22 21/21/21 20/20/20
f 22/22/22 23/23/23 21/21/21
f 24/24/24 23/23/23 22/22/22
f 24/24/24 25/25/25 23/23/23
f 26/26/26 25/25/25 24/24/24
f 26/26/26 27/27/27 25/25/25
f 24/24/24 16/16/16 18/18/18
f 24/24/24 20/20/20 16/16/16
f 24/24/24 22/22/22 20/20/20
f 28/28/28 29/29/29 30/30/30
f 28/28/28 31/31/31 29/29/29
f 18/18/18 31/31/31 28/28/28
f 18/18/18 17/17/17 31/31/31
f 24/24/24 18/18/18 28/28/28
f 24/24/24 28/28/28 30/30/30
f 24/24/24 30/30/30 26/26/26
f 30/30/30 27/27/27 26/26/26
f 30/30/30 29/29/29 27/27/27
f 27/27/27 32/32/32 25/25/25
f 27/27/27 33/33/33 32/32/32
f 29/29/29 33/33/33 27/27/27
f 29/29/29 34/34/34 33/33/33
f 35/35/35 36/36/36 37/37/37
f 35/35/35 38/38/38 36/36/36
f 39/39/39 38/38/38 35/35/35
f 39/39/39 40/40/40 38/38/38
f 34/34/34 41/41/41 33/33/33
f 34/34/34 37/37/37 41/41/41
f 37/37/37 42/42/42 41/41/41
f 37/37/37 36/36/36 42/42/42
f 43/43/43 37/37/37 34/34/34
f 43/43/43 35/35/35 37/37/37
f 44/44/44 35/35/35 43/43/43
f 44/44/44 39/39/39 35/35/35
f 17/17/17 43/43/43 31/31/31
f 17/17/17 44/44/44 43/43/43
f 19/19/19 44/44/44 17/17/17
f 19/19/19 45/45/45 44/44/44
f 21/21/21 45/45/45 19/19/19
f 21/21/21 46/46/46 45/45/45
f 23/23/23 46/46/46 21/21/21
f 23/23/23 47/47/47 46/46/46
f 45/45/45 39/39/39 44/44/44
f 45/45/45 48/48/48 39/39/39
f 46/46/46 48/48/48 45/45/45
f 46/46/46 49/49/49 48/48/48
f 47/47/47 49/49/49 46/46/46
f 47/47/47 50/50/50 49/49/49
f 32/32/32 50/50/50 47/47/47
f 32/32/32 51/51/51 50/50/50
f 33/33/33 51/51/51 32/32/32
f 33/33/33 41/41/41 51/51/51
f 48/48/48 40/40/40 39/39/39
f 48/48/48 52/52/52 40/40/40
f 49/49/49 52/52/52 48/48/48
f 49/49/49 53/53/53 52/52/52
f 50/50/50 53/53/53 49/49/49
f 50/50/50 54/54/54 53/53/53
f 51/51/51 54/54/54 50/50/50
f 51/51/51 55/55/55 54/54/54
f 41/41/41 55/55/55 51/51/51
f 41/41/41 42/42/42 55/55/55
f 56/56/56 57/57/57 58/58/58
f 56/56/56 59/59/59 57/57/57
f 59/59/59 56/56/56 60/60/60
f 60/60/60 56/56/56 58/58/58
f 60/60/60 58/58/58 6/6/6
f 5/5/5 60/60/60 6/6/6
f 59/59/59 60/60/60 5/5/5
f 59/59/59 5/5/5 7/7/7
f 59/59/59 7/7/7 57/57/57
