# Exported using wow.export v0.1.64
o bloodymeat02
mtllib bloodymeat02.mtl
v 0.14415676891803741 0.0022287368774414062 0.6352083683013916
v 0.1885950118303299 0.0022287368774414062 0.7376352548599243
v 0.18936552107334137 0.03393976017832756 0.7065731883049011
v 0.3163478672504425 0.044849079102277756 0.1397344321012497
v 0.2522313892841339 0.044849079102277756 0.2707781195640564
v 0.3836649954319 0.044849079102277756 0.2436506748199463
v 0.18528863787651062 0.06596025079488754 0.17993688583374023
v 0.16062217950820923 0.0017824172973632812 0.17009766399860382
v 0.33933892846107483 0.0017824172973632812 0.10608233511447906
v 0.4111737310886383 0.0017824172973632812 0.2560024857521057
v 0.22923660278320312 0.0017824172973632812 0.35570475459098816
v -0.012477451004087925 0.1413266956806183 0.5118398666381836
v -0.007431878242641687 0.1413266956806183 0.30400562286376953
v -0.144082173705101 0.1413266956806183 0.41686248779296875
v 0.1169051080942154 0.11669964343309402 0.38224804401397705
v 0.15035904943943024 0.0012802548008039594 0.38043010234832764
v -0.02126259356737137 0.0012802548008039594 0.5690686702728271
v -0.18211227655410767 0.0012802548008039594 0.41710197925567627
v -0.02545960806310177 0.0012802548008039594 0.1802801638841629
v -0.323787659406662 0.044849079102277756 0.4995846152305603
v -0.3182377815246582 0.044849079102277756 0.3932391405105591
v -0.39661163091659546 0.044849079102277756 0.448957234621048
v -0.24928562343120575 0.06596025079488754 0.4351872503757477
v -0.2304351031780243 0.0017824172973632812 0.4347632825374603
v -0.3294779360294342 0.0017824172973632812 0.5287556052207947
v -0.41801682114601135 0.0017824172973632812 0.44850361347198486
v -0.32676962018013 0.0017824172973632812 0.32961219549179077
v -0.2680005133152008 0.5960596203804016 0.2560907006263733
v -0.2873826324939728 0.6259726881980896 0.24780221283435822
v -0.2605544626712799 0.6212234497070312 0.3035777509212494
v -0.2729405164718628 0.6478703022003174 0.2892068922519684
v -0.46730348467826843 0.11544638127088547 0.287188857793808
v -0.4636017382144928 0.1293262392282486 0.18975730240345
v -0.4095894396305084 0.1416892558336258 0.20120801031589508
v -0.3889114260673523 0.14868612587451935 0.29913657903671265
v -0.024410460144281387 0.07705339044332504 -0.018933454528450966
v 0.16880099475383759 0.07705339044332504 -0.03418223187327385
v 0.049643199890851974 0.07705339044332504 -0.16236612200737
v 0.1094885915517807 0.11547565460205078 0.10020218789577484
v 0.11473168432712555 -0.0013279385166242719 0.13411585986614227
v -0.07839923352003098 -0.0013279385166242719 -0.02227131463587284
v 0.04537688568234444 -0.0013279385166242719 -0.2010980248451233
v 0.28158441185951233 -0.0013279385166242719 -0.06469239294528961
v -0.38374295830726624 0.06548121571540833 0.25525543093681335
v -0.45448675751686096 0.07144740223884583 0.26097774505615234
v -0.33793511986732483 0.4347686171531677 0.41894465684890747
v -0.4059871733188629 0.4530109763145447 0.4288548231124878
v -0.446709543466568 0.0074043008498847485 0.389224112033844
v -0.39549678564071655 0.44076430797576904 0.5102146863937378
v -0.3764761686325073 0.010146909393370152 0.38528111577033997
v -0.3558535873889923 0.40802887082099915 0.4966515600681305
v -0.1244668960571289 0.7555598020553589 0.5435271263122559
v -0.13674868643283844 0.735314667224884 0.573330819606781
v -0.10184293240308762 0.7458311319351196 0.5389414429664612
v -0.10340176522731781 0.7415707111358643 0.5738287568092346
v 0.03673434257507324 0.00013807085633743554 -0.48368874192237854
v -0.17132003605365753 0.09092066437005997 -0.21932603418827057
v -0.1158498153090477 0.00013807085633743554 -0.1497875303030014
v -0.40178871154785156 0.00013807085633743554 -0.2926396429538727
v -0.363323837518692 0.09092066437005997 -0.34465301036834717
v -0.014763355255126953 0.09092066437005997 -0.43006595969200134
v -0.2908717691898346 0.00013807085633743554 -0.5604663491249084
v -0.2480609118938446 0.09092066437005997 -0.5309318900108337
v -0.12348726391792297 0.18351894617080688 -0.38685479760169983
v -0.1773609071969986 0.22891034185886383 -0.25107240676879883
v -0.3107773959636688 0.18351894617080688 -0.3481956720352173
v -0.24283435940742493 0.18351894617080688 -0.4944605827331543
v 0.052749358117580414 0.045122623443603516 0.5651041865348816
v -0.09968597441911697 0.06810034811496735 0.7012636661529541
v 0.081329844892025 0.04603274539113045 0.5890572667121887
v -0.10194549709558487 0.052194807678461075 0.6494073867797852
v -0.34803804755210876 0.09358702600002289 0.6779683232307434
v -0.32692715525627136 0.06297408044338226 0.6294193863868713
v -0.3515366017818451 0.01859569549560547 0.7085217237472534
v -0.33042585849761963 0.0015693770255893469 0.6599728465080261
v -0.13706745207309723 -0.004158867988735437 0.6789026260375977
v 0.039511822164058685 -0.0036245451774448156 0.5859469175338745
v 0.056166622787714005 0.006301244255155325 0.6125912070274353
v -0.1185707375407219 0.0042705535888671875 0.7140138745307922
v -0.2996200919151306 0.07315344363451004 0.1499304324388504
v -0.33530193567276 0.15417194366455078 0.15149052441120148
v -0.30488744378089905 0.11054658889770508 0.4577575922012329
v -0.3288031816482544 0.2164938747882843 0.3983216881752014
v -0.3041933476924896 0.15417194366455078 -0.02376551181077957
v -0.4122017025947571 0.1915651559829712 -0.05565245822072029
v -0.4047400653362274 0.2788158059120178 0.2277461737394333
v -0.39872267842292786 0.2788158059120178 0.4562934935092926
v -0.4870249330997467 0.16040420532226562 0.5184856653213501
v -0.21776427328586578 0.004599359352141619 0.5025918483734131
v -0.5296264886856079 0.1479397863149643 0.23320691287517548
v -0.48356539011001587 0.16040420532226562 -0.05253203585743904
v -0.3051561415195465 0.11054658889770508 -0.06033314764499664
v -0.5897085666656494 0.004599359352141619 0.5720083117485046
v -0.6395604610443115 0.004599359352141619 0.12818485498428345
v -0.5730017423629761 0.004599359352141619 -0.11992470175027847
v -0.19448477029800415 0.004599359352141619 -0.10233376175165176
v -0.2282564342021942 0.004599359352141619 0.14680995047092438
v 0.30439504981040955 0.0022287368774414062 0.6825482249259949
v 0.23879572749137878 0.03393976017832756 0.6059616208076477
v 0.2785751521587372 0.03393976017832756 0.6853340268135071
v 0.23397156596183777 0.0022287368774414062 0.5884462594985962
v 0.16612796485424042 0.03393976017832756 0.6299269795417786
v 0.19487710297107697 0.0821404978632927 0.6967219114303589
v 0.1809840202331543 0.06628497689962387 0.6407771706581116
v 0.23200538754463196 0.06628497689962387 0.6168941855430603
v 0.23978011310100555 0.06628497689962387 0.6724848747253418
v 0.026756618171930313 0.10716897994279861 0.09587650746107101
v 0.026756618171930313 0.10716897994279861 0.13312311470508575
v 0.026756618171930313 0.14441557228565216 0.13312311470508575
v 0.026756618171930313 0.14441557228565216 0.09587650746107101
v -0.09514439105987549 0.22440868616104126 0.3759620189666748
v -0.09514439105987549 0.22440868616104126 0.3367721140384674
v -0.09514439105987549 0.18521876633167267 0.3367721140384674
v -0.09514439105987549 0.18521876633167267 0.3759620189666748
v -0.09514439105987549 0.3406713306903839 0.11459370702505112
v -0.09514439105987549 0.3406713306903839 0.07929040491580963
v -0.09514439105987549 0.3053680658340454 0.07929040491580963
v -0.09514439105987549 0.3053680658340454 0.11459370702505112
v 0.02077784761786461 0.43008604645729065 0.11459370702505112
v 0.02077784761786461 0.43008607625961304 0.07929040491580963
v 0.02077784761786461 0.39478278160095215 0.07929040491580963
v 0.02077784761786461 0.39478275179862976 0.11459370702505112
vn -0.8404581546783447 0.4895845651626587 -0.23224355280399323
vn -0.20464058220386505 0.6874844431877136 0.6967692375183105
vn -0.4230252206325531 0.5279393196105957 0.7364304065704346
vn 0.18691466748714447 0.8466909527778625 -0.49817395210266113
vn -0.14548243582248688 0.9238137602806091 0.35412293672561646
vn 0.5465313196182251 0.7901801466941833 0.2773425877094269
vn -0.6096845865249634 0.7784697413444519 -0.14922970533370972
vn -0.8109092116355896 0.5127426981925964 -0.28199490904808044
vn 0.3264240026473999 0.6210620999336243 -0.7125512361526489
vn 0.684581995010376 0.6646065711975098 0.2994087040424347
vn -0.14390185475349426 0.8977680206298828 0.4162989556789398
vn 0.05873705819249153 0.9714919924736023 0.22968076169490814
vn 0.010950240306556225 0.9900004863739014 -0.14063841104507446
vn -0.32155635952949524 0.9468149542808533 -0.011956380680203438
vn 0.3330841362476349 0.9418264627456665 -0.04492040351033211
vn 0.43476277589797974 0.9002119898796082 -0.024487895891070366
vn 0.011735519394278526 0.9087687134742737 0.4171351194381714
vn -0.44193020462989807 0.897029459476471 0.005989104509353638
vn -0.01999252289533615 0.9823307394981384 -0.1860824078321457
vn 0.009473933838307858 0.7913066744804382 0.6113460659980774
vn -0.021273300051689148 0.8741903305053711 -0.48511725664138794
vn -0.6713401079177856 0.7401310801506042 -0.0388394258916378
vn 0.6233657598495483 0.7759286761283875 -0.09669433534145355
vn 0.9085586667060852 0.414113849401474 -0.05505363270640373
vn -0.019075432792305946 0.4895049035549164 0.8717918992042542
vn -0.8364203572273254 0.5480718016624451 -0.004280107095837593
vn -0.03707413002848625 0.8298642039299011 -0.5567323565483093
vn 0.8458229899406433 0.00853028055280447 -0.5333954691886902
vn -0.21122553944587708 0.7210768461227417 -0.6598726511001587
vn 0.6131472587585449 0.3250274360179901 0.7200052738189697
vn 0.08752836287021637 0.9758701920509338 0.20004023611545563
vn -0.8355120420455933 0.29404449462890625 0.46417391300201416
vn -0.7624763250350952 0.34446656703948975 -0.5476976037025452
vn 0.5876781940460205 -0.09492611140012741 -0.8035069108009338
vn 0.5378403067588806 -0.1661507785320282 0.826511800289154
vn -0.6048793792724609 0.7913066148757935 0.08918938040733337
vn 0.4781903624534607 0.8741902709007263 -0.08441167324781418
vn -0.04912012070417404 0.7401310205459595 -0.6706663370132446
vn 0.17723248898983002 0.7759286761283875 0.6054117679595947
vn 0.17317306995391846 0.4141137897968292 0.8935999274253845
vn -0.8668234944343567 0.4895048439502716 0.09487917274236679
vn -0.10493102669715881 0.5480717420578003 -0.82982337474823
vn 0.5471303462982178 0.8298641443252563 -0.10942495614290237
vn 0.6805620193481445 0.2573484480381012 -0.686008095741272
vn -0.7459475994110107 0.346784770488739 -0.5685970187187195
vn 0.6668136119842529 0.029398370534181595 -0.7446444630622864
vn -0.731536328792572 0.500240683555603 -0.4632642865180969
vn -0.6375888586044312 -0.1405346691608429 0.7574499249458313
vn -0.6361643671989441 0.12097746133804321 0.7620100975036621
vn 0.7053266167640686 -0.22706468403339386 0.6715325117111206
vn 0.5819052457809448 -0.40151023864746094 0.7072311043739319
vn -0.07548119872808456 0.9842552542686462 -0.15982560813426971
vn -0.37227457761764526 0.4740326404571533 0.7979377508163452
vn 0.8242329955101013 0.4024796187877655 -0.3983090817928314
vn 0.6880794167518616 0.3643074929714203 0.6275562047958374
vn 0.719348132610321 0.6102541089057922 -0.3318557143211365
vn 0.14931225776672363 0.5279392600059509 0.8360537886619568
vn 0.29111090302467346 0.6874843835830688 0.6652966737747192
vn -0.7931115627288818 0.4895845055580139 0.3623272478580475
vn -0.8842483162879944 0.4531899094581604 0.11279978603124619
vn 0.7948466539382935 0.6042081713676453 -0.056136637926101685
vn -0.439890056848526 0.39899176359176636 -0.8045510053634644
vn -0.2010684758424759 0.4620372951030731 -0.8637667298316956
vn 0.5297734141349792 0.8383685350418091 -0.12836787104606628
vn 0.2128867655992508 0.7866466045379639 0.5795397758483887
vn -0.6469075083732605 0.7535412311553955 0.1169881820678711
vn -0.1093633696436882 0.7124021649360657 -0.69319748878479
vn 0.21345648169517517 0.3372490406036377 -0.916896641254425
vn 0.27789291739463806 0.7524858117103577 0.5971102118492126
vn 0.9453951716423035 0.30955806374549866 -0.10198887437582016
vn -0.20057018101215363 0.5214763879776001 -0.8293575644493103
vn -0.638019323348999 0.7558050751686096 0.14727546274662018
vn -0.391031414270401 0.22515012323856354 -0.8924134969711304
vn -0.8171178698539734 0.2164362221956253 0.5342974066734314
vn -0.5479121804237366 -0.34742486476898193 -0.7609784603118896
vn -0.10734283179044724 -0.4013397991657257 -0.9096174240112305
vn 0.12749949097633362 -0.4097881317138672 -0.9032261967658997
vn 0.8878291845321655 -0.1552528738975525 0.4331926107406616
vn 0.2145606279373169 0.1394239366054535 0.9667081832885742
vn 0.8244050741195679 0.564300000667572 0.04383792728185654
vn 0.8537189364433289 0.5186780095100403 -0.04622891917824745
vn 0.7237915396690369 0.5524084568023682 0.4134860634803772
vn 0.8661611676216125 0.4873753488063812 0.1105898916721344
vn 0.7647238969802856 0.6032708287239075 -0.22641034424304962
vn 0.04016796872019768 0.709867537021637 -0.7031888961791992
vn 0.06190883740782738 0.9874173402786255 -0.1455138623714447
vn 0.04093362018465996 0.8660708069801331 0.49824270606040955
vn -0.36359870433807373 0.5964565873146057 0.7155665755271912
vn 0.6488208770751953 0.6367658972740173 0.4166061580181122
vn -0.7775909900665283 0.6287612318992615 -0.003409114433452487
vn -0.4867902398109436 0.640973687171936 -0.5934543013572693
vn 0.5434321761131287 0.559963047504425 -0.6253981590270996
vn -0.5456025004386902 0.5704718232154846 0.6139054298400879
vn -0.7543336749076843 0.6496098637580872 -0.09480372816324234
vn -0.5191087126731873 0.609588623046875 -0.5991058945655823
vn 0.5600700378417969 0.7290644645690918 -0.3934292197227478
vn 0.6961899399757385 0.7164789438247681 0.04446883127093315
vn 0.7643653154373169 0.6102541089057922 0.20817187428474426
vn 0.40119123458862305 0.4620373547077179 -0.7909280061721802
vn 0.6449717283248901 0.60420823097229 0.4679144024848938
vn 0.1801801323890686 0.39899182319641113 -0.8990776538848877
vn -0.7498797178268433 0.45319002866744995 -0.4819742441177368
vn -0.20944026112556458 0.7866466641426086 0.580794095993042
vn -0.5707583427429199 0.7535413503646851 -0.3262059688568115
vn 0.36180153489112854 0.7124022841453552 -0.6013174057006836
vn 0.488343209028244 0.8383685946464539 0.24219627678394318
vn -1 0 5.960464477539063e-8
vn -1 0 5.960464477539063e-8
vn -1 0 5.960464477539063e-8
vn -1 0 5.960464477539063e-8
vn -1 0 5.960464477539063e-8
vn -1 0 5.960464477539063e-8
vn -1 0 5.960464477539063e-8
vn -1 0 5.960464477539063e-8
vn -1 0 5.960464477539063e-8
vn -1 0 5.960464477539063e-8
vn -1 0 5.960464477539063e-8
vn -1 0 5.960464477539063e-8
vn -1 0 5.960464477539063e-8
vn -1 0 5.960464477539063e-8
vn -1 0 5.960464477539063e-8
vn -1 0 5.960464477539063e-8
vt 0.533552885055542 0.47346705198287964
vt 0.10188107192516327 0.5678114891052246
vt 0.20273758471012115 0.4915350675582886
vt 0.5123584270477295 0.11723041534423828
vt 0.7988620400428772 0.2706233859062195
vt 0.4695436358451843 0.33130550384521484
vt 0.8529449105262756 0.08698761463165283
vt 0.9008929133415222 0.04124093055725098
vt 0.4279256761074066 0.061323344707489014
vt 0.41735023260116577 0.38549649715423584
vt 0.8768368363380432 0.38070809841156006
vt 0.5123584270477295 0.11723041534423828
vt 0.7988620400428772 0.2706233859062195
vt 0.4695436358451843 0.33130550384521484
vt 0.8529449105262756 0.08698761463165283
vt 0.9008929133415222 0.04124093055725098
vt 0.4279256761074066 0.061323344707489014
vt 0.41735023260116577 0.38549649715423584
vt 0.8768368363380432 0.38070809841156006
vt 0.6084592342376709 0.32994264364242554
vt 0.8025728464126587 0.15410900115966797
vt 0.8248549103736877 0.3993428945541382
vt 0.6091248393058777 0.07913243770599365
vt 0.5789650678634644 0.04023170471191406
vt 0.5620607137680054 0.3866305351257324
vt 0.8608888983726501 0.4420686364173889
vt 0.9381842613220215 0.07295358180999756
vt 0.6931161880493164 0.884785532951355
vt 0.6138786673545837 0.9817847013473511
vt 0.8166667222976685 0.9104025363922119
vt 0.7329798936843872 0.9820308685302734
vt 0.9375436305999756 -0.17010843753814697
vt 0.6379801034927368 -0.03453338146209717
vt 0.5560398101806641 0.023877084255218506
vt 0.8542153835296631 -0.08371198177337646
vt 0.6084592342376709 0.32994264364242554
vt 0.8025728464126587 0.15410900115966797
vt 0.8248549103736877 0.3993428945541382
vt 0.6091248393058777 0.07913243770599365
vt 0.5789650678634644 0.04023170471191406
vt 0.5620607137680054 0.3866305351257324
vt 0.8608888983726501 0.4420686364173889
vt 0.9381842613220215 0.07295358180999756
vt 0.0004993081092834473 -0.3863978385925293
vt 0.14115774631500244 -0.3716282844543457
vt 0.20220133662223816 0.5625224709510803
vt 0.3468562662601471 0.5942796468734741
vt 0.9397933483123779 -0.4217696189880371
vt 0.9995002746582031 0.599205732345581
vt 0.7991344928741455 -0.42462122440338135
vt 0.8987024426460266 0.549674391746521
vt 0.34993574023246765 0.9995005130767822
vt 0.8334221243858337 0.9819081425666809
vt 0.2991056740283966 0.9838000535964966
vt 0.7738990187644958 0.9876745939254761
vt 0.039354369044303894 0.04968369007110596
vt 0.20273758471012115 0.4915350675582886
vt 0.10188107192516327 0.5678114891052246
vt 0.533552885055542 0.47346705198287964
vt 0.5046309232711792 0.3874282240867615
vt 0.084628626704216 0.14267802238464355
vt 0.49837440252304077 0.06202894449234009
vt 0.4304106831550598 0.08744597434997559
vt 0.20885692536830902 0.2419869303703308
vt 0.22361285984516144 0.4497220516204834
vt 0.43749529123306274 0.3634684681892395
vt 0.4086648225784302 0.13610321283340454
vt 0.4868690073490143 0.9364627599716187
vt 0.7048742175102234 0.8679478764533997
vt 0.5326875448226929 0.9920828938484192
vt 0.4637739360332489 0.8148654103279114
vt 0.6911470890045166 0.06544780731201172
vt 0.43217259645462036 0.07458090782165527
vt 0.7993706464767456 0.08449012041091919
vt 0.5403962731361389 0.09362286329269409
vt 0.6754330992698669 0.7528424263000488
vt 0.641848623752594 0.9219686985015869
vt 0.7116739153862 0.9884873628616333
vt 0.7717466950416565 0.8317591547966003
vt 0.46506834030151367 0.0928422212600708
vt 0.45364809036254883 0.12887001037597656
vt 0.8869866132736206 0.09641653299331665
vt 0.7960405349731445 0.12090694904327393
vt 0.22895650565624237 0.13226228952407837
vt 0.1391402631998062 0.2077089548110962
vt 0.5322574973106384 0.19856619834899902
vt 0.8492874503135681 0.19119298458099365
vt 0.901356041431427 0.280020534992218
vt 0.9818600416183472 0.008172869682312012
vt 0.49228692054748535 0.3246634006500244
vt 0.11630003154277802 0.27976447343826294
vt 0.17340072989463806 0.0996255874633789
vt 0.9505093097686768 0.3544362187385559
vt 0.4652723968029022 0.4193776845932007
vt 0.028128093108534813 0.34390223026275635
vt 0.027210325002670288 0.009831070899963379
vt 0.48790863156318665 0.020786702632904053
vt 0.039354369044303894 0.04968369007110596
vt 0.4304106831550598 0.08744597434997559
vt 0.084628626704216 0.14267802238464355
vt 0.49837440252304077 0.06202894449234009
vt 0.5046309232711792 0.3874282240867615
vt 0.22361285984516144 0.4497220516204834
vt 0.43749529123306274 0.3634684681892395
vt 0.4086648225784302 0.13610321283340454
vt 0.20885692536830902 0.2419869303703308
vt 0.9975845813751221 0
vt -0.0024154484272003174 0
vt -0.0024154484272003174 0.9999999403953552
vt 0.9975844621658325 1
vt -0.0024154484272003174 0.9999999403953552
vt 0.9975844621658325 1
vt 0.9975845813751221 0
vt -0.0024154484272003174 0
vt -0.0024154484272003174 0.9999999403953552
vt 0.9975844621658325 1
vt 0.9975845813751221 0
vt -0.0024154484272003174 0
vt -0.0024154484272003174 0.9999999403953552
vt 0.9975844621658325 1
vt 0.9975845813751221 0
vt -0.0024154484272003174 0
g Geoset0
s 1
usemtl mat_meat03
f 1/1/1 2/2/2 3/3/3
f 4/4/4 5/5/5 6/6/6
f 4/4/4 7/7/7 5/5/5
f 5/5/5 7/7/7 8/8/8
f 7/7/7 9/9/9 8/8/8
f 7/7/7 4/4/4 9/9/9
f 6/6/6 9/9/9 4/4/4
f 6/6/6 10/10/10 9/9/9
f 5/5/5 10/10/10 6/6/6
f 5/5/5 11/11/11 10/10/10
f 5/5/5 8/8/8 11/11/11
f 12/12/12 13/13/13 14/14/14
f 12/12/12 15/15/15 13/13/13
f 13/13/13 15/15/15 16/16/16
f 15/15/15 17/17/17 16/16/16
f 15/15/15 12/12/12 17/17/17
f 14/14/14 17/17/17 12/12/12
f 14/14/14 18/18/18 17/17/17
f 13/13/13 18/18/18 14/14/14
f 13/13/13 19/19/19 18/18/18
f 13/13/13 16/16/16 19/19/19
f 20/20/20 21/21/21 22/22/22
f 20/20/20 23/23/23 21/21/21
f 21/21/21 23/23/23 24/24/24
f 23/23/23 25/25/25 24/24/24
f 23/23/23 20/20/20 25/25/25
f 22/22/22 25/25/25 20/20/20
f 22/22/22 26/26/26 25/25/25
f 21/21/21 26/26/26 22/22/22
f 21/21/21 27/27/27 26/26/26
f 21/21/21 24/24/24 27/27/27
f 28/28/28 29/29/29 30/30/30
f 29/29/29 31/31/31 30/30/30
f 31/31/31 32/32/32 30/30/30
f 33/33/33 32/32/32 31/31/31
f 29/29/29 33/33/33 31/31/31
f 34/34/34 33/33/33 29/29/29
f 28/28/28 34/34/34 29/29/29
f 35/35/35 34/34/34 28/28/28
f 30/30/30 35/35/35 28/28/28
f 32/32/32 35/35/35 30/30/30
f 36/36/36 37/37/37 38/38/38
f 36/36/36 39/39/39 37/37/37
f 37/37/37 39/39/39 40/40/40
f 39/39/39 41/41/41 40/40/40
f 39/39/39 36/36/36 41/41/41
f 38/38/38 41/41/41 36/36/36
f 38/38/38 42/42/42 41/41/41
f 37/37/37 42/42/42 38/38/38
f 37/37/37 43/43/43 42/42/42
f 37/37/37 40/40/40 43/43/43
f 44/44/44 45/45/45 46/46/46
f 45/45/45 47/47/47 46/46/46
f 45/45/45 48/48/48 47/47/47
f 48/48/48 49/49/49 47/47/47
f 48/48/48 50/50/50 49/49/49
f 50/50/50 51/51/51 49/49/49
f 52/52/52 53/53/53 54/54/54
f 53/53/53 55/55/55 54/54/54
f 46/46/46 54/54/54 55/55/55
f 51/51/51 46/46/46 55/55/55
f 44/44/44 46/46/46 51/51/51
f 50/50/50 44/44/44 51/51/51
f 51/51/51 55/55/55 53/53/53
f 49/49/49 51/51/51 53/53/53
f 49/49/49 53/53/53 52/52/52
f 47/47/47 49/49/49 52/52/52
f 47/47/47 52/52/52 54/54/54
f 46/46/46 47/47/47 54/54/54
f 56/56/56 57/57/57 58/58/58
f 59/59/59 58/58/58 57/57/57
f 59/59/59 57/57/57 60/60/60
f 56/56/56 61/61/61 57/57/57
f 56/56/56 62/62/62 63/63/63
f 56/56/56 63/63/63 61/61/61
f 64/64/64 61/61/61 63/63/63
f 64/64/64 57/57/57 61/61/61
f 64/64/64 65/65/65 57/57/57
f 65/65/65 60/60/60 57/57/57
f 65/65/65 66/66/66 60/60/60
f 67/67/67 60/60/60 66/66/66
f 62/62/62 59/59/59 60/60/60
f 62/62/62 60/60/60 63/63/63
f 67/67/67 63/63/63 60/60/60
f 64/64/64 63/63/63 67/67/67
f 66/66/66 64/64/64 67/67/67
f 66/66/66 65/65/65 64/64/64
f 68/68/68 69/69/69 70/70/70
f 68/68/68 71/71/71 69/69/69
f 71/71/71 72/72/72 69/69/69
f 71/71/71 73/73/73 72/72/72
f 73/73/73 74/74/74 72/72/72
f 73/73/73 75/75/75 74/74/74
f 76/76/76 75/75/75 73/73/73
f 76/76/76 73/73/73 71/71/71
f 77/77/77 76/76/76 71/71/71
f 77/77/77 71/71/71 68/68/68
f 68/68/68 78/78/78 77/77/77
f 68/68/68 70/70/70 78/78/78
f 70/70/70 79/79/79 78/78/78
f 70/70/70 69/69/69 79/79/79
f 69/69/69 74/74/74 79/79/79
f 69/69/69 72/72/72 74/74/74
f 80/80/80 81/81/81 82/82/82
f 81/81/81 83/83/83 82/82/82
f 84/84/84 85/85/85 81/81/81
f 85/85/85 86/86/86 81/81/81
f 81/81/81 86/86/86 83/83/83
f 86/86/86 87/87/87 83/83/83
f 83/83/83 87/87/87 82/82/82
f 82/82/82 88/88/88 89/89/89
f 87/87/87 88/88/88 82/82/82
f 90/90/90 88/88/88 87/87/87
f 86/86/86 90/90/90 87/87/87
f 91/91/91 90/90/90 86/86/86
f 85/85/85 91/91/91 86/86/86
f 91/91/91 85/85/85 92/92/92
f 85/85/85 84/84/84 92/92/92
f 92/92/92 84/84/84 80/80/80
f 84/84/84 81/81/81 80/80/80
f 88/88/88 93/93/93 89/89/89
f 94/94/94 93/93/93 88/88/88
f 90/90/90 94/94/94 88/88/88
f 95/95/95 94/94/94 90/90/90
f 91/91/91 95/95/95 90/90/90
f 95/95/95 91/91/91 96/96/96
f 91/91/91 92/92/92 96/96/96
f 96/96/96 92/92/92 97/97/97
f 92/92/92 80/80/80 97/97/97
f 97/97/97 80/80/80 89/89/89
f 80/80/80 82/82/82 89/89/89
f 98/98/98 99/99/99 100/100/100
f 98/98/98 101/101/101 99/99/99
f 101/101/101 102/102/102 99/99/99
f 103/103/103 104/104/104 102/102/102
f 105/105/105 102/102/102 104/104/104
f 105/105/105 99/99/99 102/102/102
f 106/106/106 99/99/99 105/105/105
f 106/106/106 100/100/100 99/99/99
f 106/106/106 3/3/3 100/100/100
f 98/98/98 100/100/100 3/3/3
f 98/98/98 3/3/3 2/2/2
f 104/104/104 106/106/106 105/105/105
f 104/104/104 103/103/103 106/106/106
f 106/106/106 103/103/103 3/3/3
f 103/103/103 102/102/102 3/3/3
f 1/1/1 3/3/3 102/102/102
f 101/101/101 1/1/1 102/102/102
g Geoset1
s 1
usemtl mat_fly
f 107/107/107 108/108/108 109/109/109
f 109/109/109 110/110/110 107/107/107
f 119/119/119 120/120/120 121/121/121
f 121/121/121 122/122/122 119/119/119
f 115/115/115 116/116/116 117/117/117
f 117/117/117 118/118/118 115/115/115
f 111/111/111 112/112/112 113/113/113
f 113/113/113 114/114/114 111/111/111
