# Exported using wow.export v0.1.64
o nd_crashednecropolis_debri_01
mtllib nd_crashednecropolis_debri_01.mtl
v 4.965497016906738 1.4374574422836304 22.427040100097656
v -2.7629153728485107 5.161814212799072 11.839713096618652
v -3.596797466278076 -3.9928696155548096 -3.694182872772217
v -3.8476948738098145 5.215089321136475 -28.664167404174805
v 0.42137646675109863 -0.8356326222419739 -33.76655197143555
v -9.092418670654297 3.6506717205047607 -30.3022403717041
v -27.886024475097656 1.4847244024276733 -11.422863006591797
v -29.322731018066406 -8.946867942810059 14.794171333312988
v -28.332656860351562 -10.6127290725708 22.451120376586914
v -14.673239707946777 -4.195520877838135 23.921844482421875
v 19.875286102294922 -10.844236373901367 -17.99271583557129
v 17.10430908203125 -7.103859901428223 8.462712287902832
v 9.996771812438965 0.12192068248987198 23.518095016479492
v 1.2871171236038208 3.425008535385132 -34.317359924316406
v 5.6631951332092285 17.373973846435547 -21.314069747924805
v 20.741037368774414 -6.583592414855957 -18.543527603149414
v 17.970060348510742 -2.843219518661499 7.911893367767334
v 8.807713508605957 7.368564128875732 9.702225685119629
v 10.862523078918457 4.382558345794678 22.967275619506836
v -2.981935501098633 9.475741386413574 -29.214990615844727
v 5.6631951332092285 17.373973846435547 -21.314069747924805
v 1.2871171236038208 3.425008535385132 -34.317359924316406
v 5.831254959106445 5.698092937469482 21.8762264251709
v 10.862523078918457 4.382558345794678 22.967275619506836
v 8.807713508605957 7.368564128875732 9.702225685119629
v -1.897169589996338 9.422453880310059 11.288895606994629
v -4.008921146392822 20.00339698791504 -20.0158748626709
v -8.226675033569336 7.91131591796875 -30.85305404663086
v -27.466907501220703 -6.352084159851074 21.90028190612793
v -28.456974029541016 -4.686232089996338 14.243366241455078
v -29.32272720336914 -8.94686508178711 14.794171333312988
v -28.332651138305664 -10.612725257873535 22.451122283935547
v -14.673234939575195 -4.195517063140869 23.921846389770508
v -13.807479858398438 0.06512759625911713 23.37102699279785
v -27.466907501220703 -6.352084159851074 21.90028190612793
v -28.456974029541016 -4.686232089996338 14.243366241455078
v -27.466907501220703 -6.352084159851074 21.90028190612793
v -13.807479858398438 0.06512759625911713 23.37102699279785
v -1.897169589996338 9.422453880310059 11.288893699645996
v -27.020263671875 5.7453718185424805 -11.973670959472656
v -4.008921146392822 20.00339698791504 -20.0158748626709
v -8.22667121887207 7.911317825317383 -30.85305404663086
v -27.886018753051758 1.4847255945205688 -11.422857284545898
v -29.32272720336914 -8.94686508178711 14.794171333312988
v -28.456974029541016 -4.686232089996338 14.243366241455078
v -27.020263671875 5.7453718185424805 -11.973670959472656
v -9.092411041259766 3.650672197341919 -30.302236557006836
v -8.22667121887207 7.911317825317383 -30.85305404663086
v -3.847686290740967 5.215090274810791 -28.66416358947754
v -2.9819304943084717 9.475741386413574 -29.21498680114746
v -1.897169589996338 9.422453880310059 11.288893699645996
v -13.807479858398438 0.06512759625911713 23.37102699279785
v -14.673234939575195 -4.195517063140869 23.921846389770508
v -2.7629079818725586 5.161818981170654 11.839712142944336
v 5.831258773803711 5.698094844818115 21.8762264251709
v 4.965505123138428 1.4374624490737915 22.427038192749023
v 10.862527847290039 4.382559299468994 22.96727752685547
v 9.996779441833496 0.1219257265329361 23.518098831176758
v 17.970064163208008 -2.8432183265686035 7.911892414093018
v 17.104318618774414 -7.103856086730957 8.462712287902832
v 20.741037368774414 -6.583593845367432 -18.54352378845215
v 19.87529182434082 -10.844237327575684 -17.992712020874023
v 1.287122368812561 3.4250082969665527 -34.31735610961914
v 0.4213849604129791 -0.8356326222419739 -33.76654815673828
v -2.9819304943084717 9.475741386413574 -29.21498680114746
v -3.847686290740967 5.215090274810791 -28.66416358947754
v -28.332651138305664 -10.612725257873535 22.451122283935547
vn -0.41255468130111694 -0.8554450273513794 0.31306934356689453
vn -0.09257878363132477 -0.8556379675865173 0.5092276334762573
vn -0.13807645440101624 -0.9901303052902222 -0.02401837147772312
vn -0.35761958360671997 -0.8773521184921265 -0.31993988156318665
vn -0.6453762054443359 -0.7459315061569214 -0.16454695165157318
vn 0.13982276618480682 -0.9436504244804382 -0.2999558448791504
vn -0.11267762631177902 -0.9427081346511841 -0.3140145540237427
vn -0.004105308558791876 -0.964474081993103 -0.26414552330970764
vn 0.23168060183525085 -0.9724165797233582 -0.02701997198164463
vn 0.5083930492401123 -0.83810955286026 0.19775965809822083
vn -0.2977356016635895 -0.954126238822937 -0.031570322811603546
vn -0.2686363756656647 -0.938411295413971 0.21729879081249237
vn -0.3033244013786316 -0.9080591797828674 0.2888301908969879
vn 0.6923880577087402 0.3636942505836487 -0.6231575012207031
vn 0.825722873210907 0.48669880628585815 -0.28514206409454346
vn 0.8248173594474792 0.5386367440223694 -0.17189180850982666
vn 0.7442260384559631 0.6679270267486572 -0.00104348617605865
vn 0.7736840844154358 0.632583737373352 0.03536572679877281
vn 0.7468313574790955 0.6641530990600586 0.03381583094596863
vn 0.055851180106401443 0.6640848517417908 -0.7455682158470154
vn 0.2073284238576889 0.9392982125282288 -0.2733748257160187
vn 0.06456826627254486 0.6695412397384644 -0.739963173866272
vn 0.21130533516407013 0.9600598812103271 0.18339857459068298
vn 0.21126273274421692 0.9600709676742554 0.18338964879512787
vn 0.21619409322738647 0.9487208724021912 0.23062710464000702
vn 0.2248324155807495 0.9438906311988831 0.24191084504127502
vn 0.21343834698200226 0.9383624196052551 -0.27188244462013245
vn 0.03769969940185547 0.6596099734306335 -0.7506620287895203
vn -0.6291525959968567 0.47795769572257996 0.6129628419876099
vn -0.7992390990257263 0.5697572231292725 0.19129429757595062
vn -0.969818651676178 0.21251843869686127 0.1195313036441803
vn -0.7503836750984192 0.2324729859828949 0.6187735199928284
vn 0.08114069700241089 0.11155755817890167 0.9904398322105408
vn 0.13563068211078644 0.5507726669311523 0.8235616683959961
vn -0.6291525959968567 0.47795769572257996 0.6129628419876099
vn -0.7992390990257263 0.5697572231292725 0.19129429757595062
vn -0.6291525959968567 0.47795769572257996 0.6129628419876099
vn 0.13563068211078644 0.5507726669311523 0.8235616683959961
vn -0.4028937518596649 0.6730777621269226 0.6201958656311035
vn -0.804164707660675 0.556149959564209 -0.20980064570903778
vn -0.5490310192108154 0.8298278450965881 -0.09975332021713257
vn -0.2756132185459137 0.1578177958726883 -0.9482251405715942
vn -0.9502005577087402 0.15838110446929932 -0.26839205622673035
vn -0.969818651676178 0.21251843869686127 0.1195313036441803
vn -0.7992390990257263 0.5697572231292725 0.19129429757595062
vn -0.804164707660675 0.556149959564209 -0.20980064570903778
vn -0.36893606185913086 -0.04505361616611481 -0.9283621907234192
vn -0.2756132185459137 0.1578177958726883 -0.9482251405715942
vn -0.2472596913576126 -0.07465168088674545 -0.966069221496582
vn -0.2078176587820053 -0.0837663933634758 -0.9745742678642273
vn -0.4028937518596649 0.6730777621269226 0.6201958656311035
vn 0.13563068211078644 0.5507726669311523 0.8235616683959961
vn 0.08114069700241089 0.11155755817890167 0.9904398322105408
vn 0.12165935337543488 0.10290908068418503 0.9872227311134338
vn -0.5160120725631714 0.21214181184768677 0.8298960328102112
vn -0.45080649852752686 0.20394934713840485 0.8690098524093628
vn 0.3769374489784241 0.04302370175719261 0.9252389669418335
vn 0.49558332562446594 0.011578098870813847 0.8684832453727722
vn 0.9375649690628052 -0.14993725717067719 0.31383243203163147
vn 0.9439797401428223 -0.1540863811969757 0.291821151971817
vn 0.8640725612640381 -0.2332434058189392 -0.4460674226284027
vn 0.9124733209609985 -0.22922289371490479 -0.3388943076133728
vn -0.317704439163208 -0.05779770389199257 -0.9464266300201416
vn 0.10813764482736588 -0.14904136955738068 -0.9829002618789673
vn -0.2078176587820053 -0.0837663933634758 -0.9745742678642273
vn -0.2472596913576126 -0.07465168088674545 -0.966069221496582
vn -0.7503836750984192 0.2324729859828949 0.6187735199928284
vt 0.8682393431663513 1.0160036087036133
vt 0.6868017315864563 1.0518605709075928
vt 0.520219624042511 0.5040599703788757
vt 0.2001519501209259 -0.16877412796020508
vt 0.33535170555114746 -0.3059966564178467
vt 0.08093419671058655 -0.13850617408752441
vt -0.1893128752708435 0.5599226951599121
vt 0.11552014946937561 1.290927529335022
vt 0.2212541401386261 1.479306936264038
vt 0.4804694354534149 1.3164937496185303
vt 1.0498199462890625 -0.07812666893005371
vt 1.1506385803222656 0.5842516422271729
vt 1.0133302211761475 0.9929766654968262
vt 1.525920033454895 1.4974548816680908
vt 2.506885290145874 1.4974550008773804
vt 2.101161003112793 0.2544369697570801
vt 0.7319689989089966 0.7487852573394775
vt 0.7896940112113953 1.4974550008773804
vt 0.0863981693983078 1.4974550008773804
vt 0.654584527015686 0.34199756383895874
vt 0.4942718744277954 0.13628923892974854
vt 0.49427172541618347 0.4422452449798584
vt 0.6092365384101868 0.8777758479118347
vt 0.4942716360092163 0.9096793532371521
vt 0.4942716360092163 0.6718689799308777
vt 0.7663835883140564 0.6746627688407898
vt 0.7663835883140564 0.13628923892974854
vt 0.7663835883140564 0.3971560001373291
vt 0.7153091430664062 -0.12845933437347412
vt 0.1058240607380867 -0.1633460521697998
vt 0.21746422350406647 -0.4694567918777466
vt 0.21746422350406647 -0.4694567918777466
vt 0.6784266829490662 -0.35958051681518555
vt 0.7153091430664062 -0.12845933437347412
vt 0.1058240607380867 -0.1633460521697998
vt 0.483401358127594 1.0015908479690552
vt 0.7660728693008423 1.0015908479690552
vt 0.8083803653717041 0.4445154666900635
vt 0.483401358127594 -0.10922837257385254
vt -0.4715971052646637 0.8670848608016968
vt -0.4715971052646637 -0.10922837257385254
vt -0.008856356143951416 -0.10922837257385254
vt 0.21746422350406647 -0.4694567918777466
vt 0.6784266829490662 -0.35958051681518555
vt 0.7153091430664062 -0.12845933437347412
vt 0.1058240607380867 -0.1633460521697998
vt 0.6784266829490662 -0.35958051681518555
vt 0.7153091430664062 -0.12845933437347412
vt 0.21746422350406647 -0.4694567918777466
vt 0.1058240607380867 -0.1633460521697998
vt 0.7153091430664062 -0.12845933437347412
vt 0.1058240607380867 -0.1633460521697998
vt 0.21746422350406647 -0.4694567918777466
vt 0.6784266829490662 -0.35958051681518555
vt 0.1058240607380867 -0.1633460521697998
vt 0.21746422350406647 -0.4694567918777466
vt 0.7153091430664062 -0.12845933437347412
vt 0.6784266829490662 -0.35958051681518555
vt 0.1058240607380867 -0.1633460521697998
vt 0.21746422350406647 -0.4694567918777466
vt 0.7153091430664062 -0.12845933437347412
vt 0.6784266829490662 -0.35958051681518555
vt 0.1058240607380867 -0.1633460521697998
vt 0.21746422350406647 -0.4694567918777466
vt 0.7153091430664062 -0.12845933437347412
vt 0.6784266829490662 -0.35958051681518555
vt 0.6784266829490662 -0.35958051681518555
g Geoset0
s 1
usemtl mat_jlo_udercity_rock
f 1/1/1 2/2/2 3/3/3
f 4/4/4 5/5/5 3/3/3
f 6/6/6 4/4/4 3/3/3
f 7/7/7 6/6/6 3/3/3
f 8/8/8 7/7/7 3/3/3
f 9/9/9 8/8/8 3/3/3
f 10/10/10 9/9/9 3/3/3
f 2/2/2 10/10/10 3/3/3
f 5/5/5 11/11/11 3/3/3
f 11/11/11 12/12/12 3/3/3
f 12/12/12 13/13/13 3/3/3
f 13/13/13 1/1/1 3/3/3
g Geoset1
s 1
usemtl mat_jlo_udercity_stonewall01
f 14/14/14 15/15/15 16/16/16
f 17/17/17 18/18/18 19/19/19
f 18/18/18 17/17/17 16/16/16
f 16/16/16 15/15/15 18/18/18
g Geoset2
s 1
usemtl mat_jlo_udercity_trim_04
f 20/20/20 21/21/21 22/22/22
f 23/23/23 24/24/24 25/25/25
f 25/25/25 26/26/26 23/23/23
f 26/26/26 25/25/25 21/21/21
f 21/21/21 27/27/27 26/26/26
f 20/20/20 27/27/27 21/21/21
f 20/20/20 28/28/28 27/27/27
g Geoset3
s 1
usemtl mat_jlo_undeadzigg_wall01
f 29/29/29 30/30/30 31/31/31
f 32/32/32 33/33/33 34/34/34
f 34/34/34 35/35/35 32/32/32
f 36/36/36 37/37/37 38/38/38
f 38/38/38 39/39/39 36/36/36
f 40/40/40 36/36/36 39/39/39
f 39/39/39 41/41/41 40/40/40
f 40/40/40 41/41/41 42/42/42
f 43/43/43 44/44/44 45/45/45
f 45/45/45 46/46/46 43/43/43
f 47/47/47 43/43/43 46/46/46
f 46/46/46 48/48/48 47/47/47
f 49/49/49 47/47/47 48/48/48
f 48/48/48 50/50/50 49/49/49
f 51/51/51 52/52/52 53/53/53
f 53/53/53 54/54/54 51/51/51
f 55/55/55 51/51/51 54/54/54
f 54/54/54 56/56/56 55/55/55
f 57/57/57 55/55/55 56/56/56
f 56/56/56 58/58/58 57/57/57
f 59/59/59 57/57/57 58/58/58
f 58/58/58 60/60/60 59/59/59
f 61/61/61 59/59/59 60/60/60
f 60/60/60 62/62/62 61/61/61
f 63/63/63 61/61/61 62/62/62
f 62/62/62 64/64/64 63/63/63
f 65/65/65 63/63/63 64/64/64
f 64/64/64 66/66/66 65/65/65
f 31/31/31 67/67/67 29/29/29
