# Exported using wow.export v0.1.64
o be_barrel_broken_01
mtllib be_barrel_broken_01.mtl
v -0.040595170110464096 -0.03165615350008011 -0.3387017846107483
v -0.3324267268180847 -0.03165615350008011 -0.17021270096302032
v -0.37293994426727295 0.04578624293208122 -0.19360299408435822
v -0.370769202709198 0.052592188119888306 -0.5222685933113098
v -0.39650455117225647 -0.03428877145051956 -0.5598476529121399
v -0.8083905577659607 0.08771742135286331 -0.33849915862083435
v -0.7538734674453735 0.1660728007555008 -0.27284786105155945
v -0.7538734674453735 0.1660728007555008 -0.27284786105155945
v -0.8083905577659607 0.08771742135286331 -0.33849915862083435
v -0.8083905577659607 0.0877174362540245 0.15753263235092163
v -0.7538734674453735 0.16607283055782318 0.09188136458396912
v -0.7538734674453735 0.16607283055782318 0.09188136458396912
v -0.8083905577659607 0.0877174362540245 0.15753263235092163
v -0.39650455117225647 -0.034288760274648666 0.37669363617897034
v -0.3707692325115204 0.052592191845178604 0.34522974491119385
v -0.04059511795639992 0.04578624293208122 0.38203486800193787
v 0.29174959659576416 0.04578624293208122 0.19015558063983917
v 0.2917494475841522 0.04578624665737152 -0.19360308349132538
v -0.3729398250579834 0.04578624665737152 0.19015559554100037
v -0.04059514030814171 0.04578624293208122 -0.3854823112487793
v -0.37293994426727295 0.04578624293208122 -0.19360299408435822
v 0.2512364089488983 -0.03165615350008011 -0.1702127456665039
v -0.04059514030814171 0.04578624293208122 -0.3854823112487793
v 0.2917494475841522 0.04578624665737152 -0.19360308349132538
v -0.040595170110464096 -0.03165615350008011 -0.3387017846107483
v 0.2512364685535431 -0.03165615350008011 0.16676531732082367
v 0.2917494475841522 0.04578624665737152 -0.19360308349132538
v 0.29174959659576416 0.04578624293208122 0.19015558063983917
v 0.2512364089488983 -0.03165615350008011 -0.1702127456665039
v -0.04059511795639992 -0.03165615350008011 0.33525437116622925
v 0.29174959659576416 0.04578624293208122 0.19015558063983917
v -0.04059511795639992 0.04578624293208122 0.38203486800193787
v 0.2512364685535431 -0.03165615350008011 0.16676531732082367
v -0.3324267268180847 -0.03165615350008011 0.16676536202430725
v -0.04059511795639992 0.04578624293208122 0.38203486800193787
v -0.3729398250579834 0.04578624665737152 0.19015559554100037
v -0.04059511795639992 -0.03165615350008011 0.33525437116622925
v -0.3324267268180847 -0.03165615350008011 -0.17021270096302032
v -0.3729398250579834 0.04578624665737152 0.19015559554100037
v -0.37293994426727295 0.04578624293208122 -0.19360299408435822
v -0.3324267268180847 -0.03165615350008011 0.16676536202430725
v 0.6880847215652466 0.24616819620132446 1.002947449684143
v 0.42413318157196045 -0.02284321002662182 0.5022180080413818
v 0.6777610182762146 0.3023124635219574 0.9367316365242004
v 0.41526341438293457 0.05280106142163277 0.4868551790714264
v 0.207137331366539 -0.0032111152540892363 0.22551046311855316
v 0.41021910309791565 0.21392256021499634 1.0961731672286987
v 0.17393215000629425 0.014978857710957527 0.6364298462867737
v 0.03330228477716446 -0.003211183473467827 0.3258742690086365
v -0.35576844215393066 0.1378011852502823 1.275661826133728
v -0.10370650142431259 -0.009168880060315132 0.6871728301048279
v -0.3479628264904022 0.17524056136608124 1.2523332834243774
v -0.09712078422307968 0.07933487743139267 0.6674902439117432
v -0.05502229556441307 -0.003211117582395673 0.3347680866718292
v -0.7339555025100708 0.10091770440340042 1.1294056177139282
v -0.5387569069862366 0.03508293628692627 0.5719769597053528
v -0.3719576895236969 -0.0032112097833305597 0.27107635140419006
v -1.3684438467025757 0.13780120015144348 -0.03558885678648949
v -0.7393481731414795 -0.009168894030153751 0.08312594145536423
v -1.3439786434173584 0.17524053156375885 -0.03301750123500824
v -0.7187066674232483 0.07933486998081207 0.08529543876647949
v -0.3847595453262329 -0.0032111306209117174 0.05438179522752762
v -1.332439661026001 0.10091765969991684 -0.2948566973209381
v -0.6943208575248718 0.03508295118808746 -0.2460004836320877
v -0.3637778162956238 -0.0032111634500324726 -0.19682443141937256
v -0.3977290689945221 0.1378011703491211 -1.2788705825805664
v -0.29302918910980225 -0.009168867953121662 -0.6707513928413391
v -0.39177781343460083 0.17524053156375885 -1.2550016641616821
v -0.2880080044269562 0.07933491468429565 -0.6506127119064331
v -0.27595269680023193 -0.003211114788427949 -0.3188822269439697
v -0.1740909218788147 0.10091765969991684 -1.321953535079956
v -0.0800856277346611 0.035082925111055374 -0.7173675894737244
v -0.042234718799591064 -0.003211184171959758 -0.3771548569202423
v 0.5556523203849792 0.13780124485492706 -1.2005224227905273
v 0.15114544332027435 -0.009168874472379684 -0.7043082118034363
v 0.5417188405990601 0.17524057626724243 -1.1802490949630737
v 0.13938957452774048 0.07933489233255386 -0.6872032880783081
v 0.007211357355117798 -0.0032111224718391895 -0.37897413969039917
v 0.8404665589332581 0.10091791301965714 -0.9746577143669128
v 0.5070870518684387 0.035083044320344925 -0.4220476448535919
v 0.2912984788417816 -0.003211102681234479 -0.17723795771598816
v 0.614539623260498 0.07933488488197327 -0.17686231434345245
v 0.2856534421443939 -0.0032111734617501497 0.0895165428519249
v 0.6249173879623413 0.03508295863866806 0.15516768395900726
v 1.2466623783111572 0.18157373368740082 -0.13744346797466278
v 1.2610533237457275 0.09461603313684464 0.23268797993659973
v 1.2754441499710083 0.1377696841955185 -0.13744349777698517
v 0.6352947950363159 -0.009168867021799088 -0.17686232924461365
v 0.28565332293510437 -0.0032111271284520626 -0.18375897407531738
v -0.04059514030814171 0.04578624293208122 -0.3854823112487793
vn -1.034249379472385e-7 -0.5170542001724243 -0.8559526801109314
vn -0.7412765026092529 -0.5170547366142273 -0.4279761016368866
vn -0.7932056784629822 0.401372492313385 -0.45795726776123047
vn -0.3031497001647949 0.492203950881958 -0.8159874677658081
vn -0.3138267695903778 0.45371899008750916 -0.8340574502944946
vn -0.5083990693092346 0.7148786187171936 -0.48008227348327637
vn -0.6447912454605103 0.7019957304000854 -0.30240076780319214
vn -0.6447912454605103 0.7019957304000854 -0.30240076780319214
vn -0.5083990693092346 0.7148786187171936 -0.48008227348327637
vn -0.46620264649391174 0.7358475923538208 0.49110427498817444
vn -0.6426778435707092 0.6913518905639648 0.33014804124832153
vn -0.6426778435707092 0.6913518905639648 0.33014804124832153
vn -0.46620264649391174 0.7358475923538208 0.49110427498817444
vn -0.3762449622154236 0.4666866362094879 0.8004019856452942
vn -0.4127734899520874 0.41575855016708374 0.8104090690612793
vn -2.8765800408336872e-8 0.4013729393482208 0.9159147143363953
vn 0.7932056188583374 0.4013727903366089 0.4579571485519409
vn 0.7932052612304688 0.40137284994125366 -0.4579576551914215
vn -0.7932053804397583 0.40137284994125366 0.4579574465751648
vn 6.99922750868609e-8 0.40137284994125366 -0.91591477394104
vn -0.7932056784629822 0.401372492313385 -0.45795726776123047
vn 0.7412770986557007 -0.5170538425445557 -0.42797619104385376
vn 6.99922750868609e-8 0.40137284994125366 -0.91591477394104
vn 0.7932052612304688 0.40137284994125366 -0.4579576551914215
vn -1.034249379472385e-7 -0.5170542001724243 -0.8559526801109314
vn 0.7412768602371216 -0.5170540809631348 0.42797622084617615
vn 0.7932052612304688 0.40137284994125366 -0.4579576551914215
vn 0.7932056188583374 0.4013727903366089 0.4579571485519409
vn 0.7412770986557007 -0.5170538425445557 -0.42797619104385376
vn -2.953143729556018e-9 -0.5170537233352661 0.8559529185295105
vn 0.7932056188583374 0.4013727903366089 0.4579571485519409
vn -2.8765800408336872e-8 0.4013729393482208 0.9159147143363953
vn 0.7412768602371216 -0.5170540809631348 0.42797622084617615
vn -0.7412769198417664 -0.5170537829399109 0.42797645926475525
vn -2.8765800408336872e-8 0.4013729393482208 0.9159147143363953
vn -0.7932053804397583 0.40137284994125366 0.4579574465751648
vn -2.953143729556018e-9 -0.5170537233352661 0.8559529185295105
vn -0.7412765026092529 -0.5170547366142273 -0.4279761016368866
vn -0.7932053804397583 0.40137284994125366 0.4579574465751648
vn -0.7932056784629822 0.401372492313385 -0.45795726776123047
vn -0.7412769198417664 -0.5170537829399109 0.42797645926475525
vn 0.7086805105209351 0.5887770652770996 0.3887332081794739
vn 0.8320079445838928 -0.029260803014039993 -0.5539915561676025
vn 0.6092182397842407 0.7793866991996765 -0.14631985127925873
vn 0.49391424655914307 0.6532057523727417 -0.5739085078239441
vn 0.01779909059405327 0.9746416211128235 -0.2230626493692398
vn -0.34984469413757324 0.9342548251152039 -0.06911273300647736
vn -0.26051732897758484 0.9557787179946899 -0.1364469975233078
vn -0.11314820498228073 0.9906501173973083 -0.07622215896844864
vn 0.2760158181190491 0.4661886692047119 0.8405256867408752
vn 0.9608219265937805 -0.009208405390381813 0.2770133912563324
vn 0.3756801187992096 0.7831476926803589 0.4955241084098816
vn 0.7121591567993164 0.6992427110671997 0.062361087650060654
vn 0.2013770043849945 0.9563448429107666 -0.21178258955478668
vn -0.1551973670721054 0.9821280241012573 -0.10648155212402344
vn -0.07664074748754501 0.9823941588401794 -0.17037567496299744
vn -0.017856456339359283 0.9812430143356323 -0.19194619357585907
vn -0.7693319916725159 0.47325438261032104 0.4291370213031769
vn -0.06248720362782478 -0.009208335541188717 0.9980033040046692
vn -0.39603349566459656 0.8018063306808472 0.4475087523460388
vn 0.09041754901409149 0.7055460214614868 0.7028723359107971
vn 0.2510930001735687 0.9535976648330688 0.16614387929439545
vn 0.03182976692914963 0.961876630783081 -0.27162525057792664
vn 0.1458112597465515 0.979454517364502 -0.13931229710578918
vn 0.18825170397758484 0.9808395504951477 -0.05015048012137413
vn -0.6557119488716125 0.4772280156612396 -0.5850600004196167
vn -0.9928610324859619 0.030738629400730133 0.11524795740842819
vn -0.5367477536201477 0.8164229989051819 -0.2129678726196289
vn -0.5788258910179138 0.7946094274520874 0.18318422138690948
vn -0.12835942208766937 0.961277425289154 0.24386374652385712
vn 0.3079909682273865 0.9499070644378662 -0.05308612436056137
vn 0.2493550330400467 0.9641037583351135 0.09124719351530075
vn 0.12311352789402008 0.9752355813980103 0.18373531103134155
vn -0.01987178437411785 0.470346063375473 -0.8822582960128784
vn -0.8472462296485901 -0.009208363480865955 -0.5311205387115479
vn -0.21346376836299896 0.7837226390838623 -0.5832769870758057
vn -0.6723079681396484 0.6922586560249329 -0.26225927472114563
vn -0.2711210250854492 0.9524827003479004 0.1388167440891266
vn 0.1507319062948227 0.9793137907981873 0.13499772548675537
vn 0.01752414181828499 0.9851573705673218 0.17075656354427338
vn -0.054510850459337234 0.9829956889152527 0.17535120248794556
vn -0.10220253467559814 0.7418410181999207 -0.6627416610717773
vn -0.19208836555480957 0.9791386127471924 0.06625453382730484
vn -0.14463680982589722 0.9775756597518921 0.15305554866790771
vn 0.3379914164543152 0.7934531569480896 -0.5061560273170471
vn -0.03706572204828262 0.9725037813186646 0.22991864383220673
vn 0.7119778990745544 0.46781036257743835 -0.5236801505088806
vn 0.04146479442715645 0.010321076959371567 -0.9990866780281067
vn -0.23671269416809082 0.9570942521095276 -0.16714562475681305
vn 6.99922750868609e-8 0.40137284994125366 -0.91591477394104
vt 0.6474182605743408 0.36103856563568115
vt 0.8515413403511047 0.36069077253341675
vt 0.8534365296363831 0.42188072204589844
vt 0.4717862010002136 0.4247795343399048
vt 0.4915217161178589 0.36515045166015625
vt 0.006338493898510933 0.36138641834259033
vt 0.028662387281656265 0.42108815908432007
vt 0.4717862010002136 0.4247795343399048
vt 0.4915217161178589 0.36515045166015625
vt 0.006338493898510933 0.36138641834259033
vt 0.028662387281656265 0.42108815908432007
vt 0.4717862010002136 0.4247795343399048
vt 0.4915217161178589 0.36515045166015625
vt 0.006338493898510933 0.36138641834259033
vt 0.028662387281656265 0.42108815908432007
vt 0.6479066610336304 0.9647362232208252
vt 0.8704207539558411 0.9647362232208252
vt 0.9885860681533813 0.7679588198661804
vt 0.5197715163230896 0.7679588198661804
vt 0.8704207539558411 0.9647362232208252
vt 0.6479066610336304 0.9647362232208252
vt 0.6474182605743408 0.36103856563568115
vt 0.8534365296363831 0.42188072204589844
vt 0.6757602691650391 0.42758023738861084
vt 0.8515413403511047 0.36069077253341675
vt 0.6474182605743408 0.36103856563568115
vt 0.8534365296363831 0.42188072204589844
vt 0.6757602691650391 0.42758023738861084
vt 0.8515413403511047 0.36069077253341675
vt 0.6474182605743408 0.36103856563568115
vt 0.8534365296363831 0.42188072204589844
vt 0.6757602691650391 0.42758023738861084
vt 0.8515413403511047 0.36069077253341675
vt 0.6474182605743408 0.36103856563568115
vt 0.8534365296363831 0.42188072204589844
vt 0.6757602691650391 0.42758023738861084
vt 0.8515413403511047 0.36069077253341675
vt 0.6474182605743408 0.36103856563568115
vt 0.8534365296363831 0.42188072204589844
vt 0.6757602691650391 0.42758023738861084
vt 0.8515413403511047 0.36069077253341675
vt 0.9938759803771973 0.5940172076225281
vt 0.9938759803771973 0.36530601978302
vt 0.9938759803771973 0.5940172076225281
vt 0.9938759803771973 0.36530601978302
vt 0.9938759803771973 0.13176393508911133
vt 0.5138759613037109 0.5939445495605469
vt 0.5138759613037109 0.36536359786987305
vt 0.5138759613037109 0.13187134265899658
vt 0.9938759803771973 0.5940172076225281
vt 0.9938759803771973 0.36530601978302
vt 0.9938759803771973 0.5940172076225281
vt 0.9938759803771973 0.36530601978302
vt 0.9938759803771973 0.13176393508911133
vt 0.5138759613037109 0.5939445495605469
vt 0.5138759613037109 0.36536359786987305
vt 0.5138759613037109 0.13187134265899658
vt 0.9938759803771973 0.5940172076225281
vt 0.9938759803771973 0.36530601978302
vt 0.9938759803771973 0.5940172076225281
vt 0.9938759803771973 0.36530601978302
vt 0.9938759803771973 0.13176393508911133
vt 0.5138759613037109 0.5939445495605469
vt 0.5138759613037109 0.36536359786987305
vt 0.5138759613037109 0.13187134265899658
vt 0.9938759803771973 0.5940172076225281
vt 0.9938759803771973 0.36530601978302
vt 0.9938759803771973 0.5940172076225281
vt 0.9938759803771973 0.36530601978302
vt 0.9938759803771973 0.13176393508911133
vt 0.5138759613037109 0.5939445495605469
vt 0.5138759613037109 0.36536359786987305
vt 0.5138759613037109 0.13187134265899658
vt 0.9938759803771973 0.5940172076225281
vt 0.9938759803771973 0.36530601978302
vt 0.9938759803771973 0.5940172076225281
vt 0.9938759803771973 0.36530601978302
vt 0.9938759803771973 0.13176393508911133
vt 0.5138759613037109 0.5939445495605469
vt 0.5138759613037109 0.36536359786987305
vt 0.5138759613037109 0.13187134265899658
vt 0.9938759803771973 0.36530601978302
vt 0.5138759613037109 0.13187134265899658
vt 0.5138759613037109 0.36536359786987305
vt 0.9938759803771973 0.5940172076225281
vt 0.5138759613037109 0.5939445495605469
vt 0.9938759803771973 0.5940172076225281
vt 0.9938759803771973 0.36530601978302
vt 0.9938759803771973 0.13176393508911133
vt 0.6757602691650391 0.42758023738861084
g Geoset0
s 1
usemtl mat_be_barrel_01
f 1/1/1 2/2/2 3/3/3
f 4/4/4 5/5/5 6/6/6
f 7/7/7 4/4/4 6/6/6
f 8/8/8 9/9/9 10/10/10
f 11/11/11 8/8/8 10/10/10
f 12/12/12 13/13/13 14/14/14
f 15/15/15 12/12/12 14/14/14
f 16/16/16 17/17/17 18/18/18
f 19/19/19 16/16/16 18/18/18
f 18/18/18 20/20/20 19/19/19
f 20/20/20 21/21/21 19/19/19
f 22/22/22 23/23/23 24/24/24
f 22/22/22 25/25/25 23/23/23
f 26/26/26 27/27/27 28/28/28
f 26/26/26 29/29/29 27/27/27
f 30/30/30 31/31/31 32/32/32
f 30/30/30 33/33/33 31/31/31
f 34/34/34 35/35/35 36/36/36
f 34/34/34 37/37/37 35/35/35
f 38/38/38 39/39/39 40/40/40
f 38/38/38 41/41/41 39/39/39
f 42/42/42 43/43/43 44/44/44
f 45/45/45 44/44/44 43/43/43
f 43/43/43 46/46/46 45/45/45
f 44/44/44 47/47/47 42/42/42
f 44/44/44 48/48/48 47/47/47
f 45/45/45 48/48/48 44/44/44
f 45/45/45 49/49/49 48/48/48
f 46/46/46 49/49/49 45/45/45
f 50/50/50 51/51/51 52/52/52
f 53/53/53 52/52/52 51/51/51
f 51/51/51 54/54/54 53/53/53
f 52/52/52 55/55/55 50/50/50
f 52/52/52 56/56/56 55/55/55
f 53/53/53 56/56/56 52/52/52
f 53/53/53 57/57/57 56/56/56
f 54/54/54 57/57/57 53/53/53
f 58/58/58 59/59/59 60/60/60
f 61/61/61 60/60/60 59/59/59
f 59/59/59 62/62/62 61/61/61
f 60/60/60 63/63/63 58/58/58
f 60/60/60 64/64/64 63/63/63
f 61/61/61 64/64/64 60/60/60
f 61/61/61 65/65/65 64/64/64
f 62/62/62 65/65/65 61/61/61
f 66/66/66 67/67/67 68/68/68
f 69/69/69 68/68/68 67/67/67
f 67/67/67 70/70/70 69/69/69
f 68/68/68 71/71/71 66/66/66
f 68/68/68 72/72/72 71/71/71
f 69/69/69 72/72/72 68/68/68
f 69/69/69 73/73/73 72/72/72
f 70/70/70 73/73/73 69/69/69
f 74/74/74 75/75/75 76/76/76
f 77/77/77 76/76/76 75/75/75
f 75/75/75 78/78/78 77/77/77
f 76/76/76 79/79/79 74/74/74
f 76/76/76 80/80/80 79/79/79
f 77/77/77 80/80/80 76/76/76
f 77/77/77 81/81/81 80/80/80
f 78/78/78 81/81/81 77/77/77
f 82/82/82 83/83/83 84/84/84
f 82/82/82 84/84/84 85/85/85
f 85/85/85 84/84/84 86/86/86
f 85/85/85 86/86/86 87/87/87
f 87/87/87 88/88/88 85/85/85
f 82/82/82 85/85/85 88/88/88
f 88/88/88 89/89/89 82/82/82
f 89/89/89 83/83/83 82/82/82
f 1/1/1 3/3/3 90/90/90
