# Exported using wow.export v0.1.64
o elwynnreeds01
mtllib elwynnreeds01.mtl
v -0.006242807023227215 -0.04555324837565422 -0.9531387686729431
v -0.3007794916629791 -0.04555324837565422 -0.37782150506973267
v -0.5063193440437317 1.304638385772705 -0.48927775025367737
v 0.46557775139808655 -0.06587117910385132 -0.5984190702438354
v -0.003403234062716365 1.325103521347046 -1.6398204565048218
v 0.6809214353561401 0.9227957129478455 -0.8171167969703674
v -0.006242816336452961 -0.07183701545000076 -1.5269430875778198
v -0.006242816336452961 -0.07183701545000076 -1.5269430875778198
v -0.7987451553344727 1.5323415994644165 -0.8171168565750122
v -0.003403234062716365 1.325103521347046 -1.6398204565048218
v -0.5130787491798401 -0.07183699309825897 -0.5984190702438354
v -0.006242765579372644 -0.07183698564767838 1.4626667499542236
v 0.4177841544151306 1.0798518657684326 0.9782736897468567
v -0.003403186099603772 1.0996218919754028 1.8041504621505737
v 0.48604026436805725 -0.06587117165327072 0.6165199875831604
v -0.38914045691490173 -0.07183701545000076 0.6165200471878052
v -0.003403186099603772 1.0996218919754028 1.8041504621505737
v -0.5946858525276184 1.3251032829284668 0.9782738089561462
v -0.006242765579372644 -0.07183698564767838 1.4626667499542236
v 0.28829383850097656 -0.040964141488075256 -0.37782150506973267
v -0.005531733389943838 1.1181237697601318 -1.2297109365463257
v 0.5409238934516907 0.7560469508171082 -0.48927775025367737
v -0.006242807023227215 -0.04555324837565422 -0.9531387686729431
v 0.28829386830329895 -0.040964141488075256 0.368503212928772
v 0.5409238934516907 0.7560469508171082 -0.48927775025367737
v 0.5409238934516907 0.8973975777626038 0.4712422788143158
v 0.28829383850097656 -0.040964141488075256 -0.37782150506973267
v -0.00624276977032423 -0.04555324837565422 0.806547999382019
v 0.5409238934516907 0.8973975777626038 0.4712422788143158
v -0.005531680304557085 0.9151903986930847 1.035005807876587
v 0.28829386830329895 -0.040964141488075256 0.368503212928772
v -0.30077946186065674 -0.04555324837565422 0.36850324273109436
v -0.005531680304557085 0.9151903986930847 1.035005807876587
v -0.5063193440437317 1.1181237697601318 0.4712422788143158
v -0.00624276977032423 -0.04555324837565422 0.806547999382019
v -0.3007794916629791 -0.04555324837565422 -0.37782150506973267
v -0.5063193440437317 1.1181237697601318 0.4712422788143158
v -0.5063193440437317 1.304638385772705 -0.48927775025367737
v -0.30077946186065674 -0.04555324837565422 0.36850324273109436
v -0.005531733389943838 1.1181237697601318 -1.2297109365463257
vn -0.48545220494270325 -0.23743844032287598 -0.841403067111969
vn -0.9718912243843079 -0.16962319612503052 -0.16326473653316498
vn -0.9252057671546936 -0.1540534943342209 -0.34678781032562256
vn 0.7923213839530945 -0.17126914858818054 -0.5855712890625
vn 0.4028703570365906 -0.1900636851787567 -0.8953051567077637
vn 0.6579591631889343 -0.29644080996513367 -0.6922518610954285
vn -0.388815701007843 -0.1738271713256836 -0.9047687649726868
vn -0.388815701007843 -0.1738271713256836 -0.9047687649726868
vn -0.8000608682632446 -0.13678577542304993 -0.5841166377067566
vn 0.4028703570365906 -0.1900636851787567 -0.8953051567077637
vn -0.8569556474685669 -0.2163747251033783 -0.4677702784538269
vn 0.5107882022857666 -0.21846166253089905 0.8314865827560425
vn 0.8710010051727295 -0.1203499361872673 0.4763120114803314
vn -0.49715718626976013 -0.29863640666007996 0.8146477937698364
vn 0.8597696423530579 -0.1064797043800354 0.499457985162735
vn -0.865435779094696 -0.18647433817386627 0.4650249779224396
vn -0.49715718626976013 -0.29863640666007996 0.8146477937698364
vn -0.817912220954895 -0.2540298402309418 0.5162251591682434
vn 0.5107882022857666 -0.21846166253089905 0.8314865827560425
vn 0.885736882686615 -0.25250211358070374 -0.3895033597946167
vn 0.39093494415283203 -0.289130300283432 -0.8738269209861755
vn 0.9246425032615662 -0.3109305500984192 -0.21990561485290527
vn -0.48545220494270325 -0.23743844032287598 -0.841403067111969
vn 0.9365415573120117 -0.28947916626930237 0.19771628081798553
vn 0.9246425032615662 -0.3109305500984192 -0.21990561485290527
vn 0.8631008863449097 -0.2453775554895401 0.44141441583633423
vn 0.885736882686615 -0.25250211358070374 -0.3895033597946167
vn 0.3434765636920929 -0.28644344210624695 0.894412636756897
vn 0.8631008863449097 -0.2453775554895401 0.44141441583633423
vn -0.4186224639415741 -0.22964388132095337 0.8786460757255554
vn 0.9365415573120117 -0.28947916626930237 0.19771628081798553
vn -0.8972665667533875 -0.17233557999134064 0.40646418929100037
vn -0.4186224639415741 -0.22964388132095337 0.8786460757255554
vn -0.9618626236915588 -0.18129462003707886 0.2048233449459076
vn 0.3434765636920929 -0.28644344210624695 0.894412636756897
vn -0.9718912243843079 -0.16962319612503052 -0.16326473653316498
vn -0.9618626236915588 -0.18129462003707886 0.2048233449459076
vn -0.9252057671546936 -0.1540534943342209 -0.34678781032562256
vn -0.8972665667533875 -0.17233557999134064 0.40646418929100037
vn 0.39093494415283203 -0.289130300283432 -0.8738269209861755
vt 0 0
vt 1 0
vt 1 1
vt 0 0
vt 1 1
vt 0 1
vt 1 0
vt 0 0
vt 1 1
vt 0 1
vt 1 0
vt 0 0
vt 1 1
vt 0 1
vt 1 0
vt 0 0
vt 1 1
vt 0 1
vt 1 0
vt 0 0
vt 1 1
vt 0 1
vt 1 0
vt 0 0
vt 1 1
vt 0 1
vt 1 0
vt 0 0
vt 1 1
vt 0 1
vt 1 0
vt 0 0
vt 1 1
vt 0 1
vt 1 0
vt 0 0
vt 1 1
vt 0 1
vt 1 0
vt 0 1
g Geoset0
s 1
usemtl mat_elwynnflower03a
f 1/1/1 2/2/2 3/3/3
f 4/4/4 5/5/5 6/6/6
f 4/4/4 7/7/7 5/5/5
f 8/8/8 9/9/9 10/10/10
f 8/8/8 11/11/11 9/9/9
f 12/12/12 13/13/13 14/14/14
f 12/12/12 15/15/15 13/13/13
f 16/16/16 17/17/17 18/18/18
f 16/16/16 19/19/19 17/17/17
f 20/20/20 21/21/21 22/22/22
f 20/20/20 23/23/23 21/21/21
f 24/24/24 25/25/25 26/26/26
f 24/24/24 27/27/27 25/25/25
f 28/28/28 29/29/29 30/30/30
f 28/28/28 31/31/31 29/29/29
f 32/32/32 33/33/33 34/34/34
f 32/32/32 35/35/35 33/33/33
f 36/36/36 37/37/37 38/38/38
f 36/36/36 39/39/39 37/37/37
f 1/1/1 3/3/3 40/40/40
