# Exported using wow.export v0.1.64
o burntoutpost05
mtllib burntoutpost05.mtl
v 0.9757689833641052 -0.7121999859809875 -0.5862389802932739
v 1.182479977607727 -0.5359439849853516 -0.8270279765129089
v 2.251889944076538 1.9248100519180298 2.4778499603271484
v -0.49550798535346985 -0.8274890184402466 -0.040443599224090576
v -0.18037499487400055 -0.15874800086021423 -0.5352830290794373
v -0.6930390000343323 1.945289969444275 1.7720199823379517
v -0.8106439709663391 -0.15874800086021423 -0.5352830290794373
v -0.9323170185089111 1.4375300407409668 2.147749900817871
v -0.8106439709663391 -0.15874800086021423 -0.5352830290794373
v -1.171589970588684 1.945289969444275 1.7720199823379517
v -1.115839958190918 2.888469934463501 3.1038100719451904
v -1.171589970588684 1.945289969444275 1.7720199823379517
v 0.5094689726829529 1.383810043334961 1.4076199531555176
v 0.4223310053348541 0.8921639919281006 1.8954999446868896
v 0.969802975654602 1.919100046157837 2.6110498905181885
v 0.9803609848022461 0.963371992111206 1.5046900510787964
v 0.5094689726829529 1.383810043334961 1.4076199531555176
v -0.18037499487400055 -0.15874800086021423 -0.5352830290794373
v -0.49550798535346985 -0.8274890184402466 -0.040443599224090576
v 0.39911898970603943 -0.676144003868103 -0.4158329963684082
v -0.18037499487400055 -0.15874800086021423 -0.5352830290794373
v 2.0757100582122803 2.16402006149292 2.1897599697113037
v 1.0448299646377563 -0.2576510012149811 -1.015120029449463
v 1.6466000080108643 2.210050106048584 2.167030096054077
v 0.642346978187561 -0.1097560003399849 -0.9787470102310181
v 1.4282200336456299 2.0013599395751953 2.450670003890991
v 0.4356360137462616 -0.2860110104084015 -0.7379559874534607
v 1.6044000387191772 1.7621500492095947 2.738759994506836
v 0.6314060091972351 -0.6101639866828918 -0.5335419774055481
v 2.016239881515503 1.7238800525665283 2.7523601055145264
v 0.9757689833641052 -0.7121999859809875 -0.5862389802932739
v 2.417799949645996 3.4902501106262207 4.260119915008545
v 2.016239881515503 1.7238800525665283 2.7523601055145264
vn 0.5254949927330017 -0.7569050192832947 0.38852301239967346
vn 0.9665430188179016 -0.10700500011444092 -0.2331169992685318
vn 0.9564819931983948 -0.2917430102825165 0.005309210158884525
vn 0.2936989963054657 -0.6440960168838501 0.7063149809837341
vn -0.11460799723863602 0.861499011516571 -0.4946559965610504
vn 0.9298380017280579 0.36456000804901123 -0.04996410012245178
vn -0.9799699783325195 0.044697199016809464 -0.19406400620937347
vn -0.4793350100517273 -0.6086210012435913 0.632311999797821
vn -0.9799699783325195 0.044697199016809464 -0.19406400620937347
vn -0.631426990032196 0.5737220048904419 -0.5216739773750305
vn -0.0601079985499382 0.9930049777030945 0.10162299871444702
vn -0.631426990032196 0.5737220048904419 -0.5216739773750305
vn -0.02149830013513565 0.8437269926071167 -0.5363420248031616
vn -0.7906339764595032 -0.14794999361038208 0.5941449999809265
vn 0.4613189995288849 0.6517549753189087 0.6019970178604126
vn 0.9044659733772278 -0.391292005777359 0.16979800164699554
vn -0.02149830013513565 0.8437269926071167 -0.5363420248031616
vn -0.11460799723863602 0.861499011516571 -0.4946559965610504
vn 0.2936989963054657 -0.6440960168838501 0.7063149809837341
vn 0.8985769748687744 0.16005000472068787 -0.4085870087146759
vn -0.11460799723863602 0.861499011516571 -0.4946559965610504
vn 0.6752880215644836 0.5078409910202026 -0.5348680019378662
vn 0.461544007062912 0.6330379843711853 -0.6214820146560669
vn -0.2560029923915863 0.8350690007209778 -0.4869529902935028
vn -0.5193219780921936 0.7594630122184753 -0.39181798696517944
vn -0.9242069721221924 0.3703950047492981 0.09299919754266739
vn -0.9669529795646667 0.07408949732780457 0.24395300447940826
vn -0.6475750207901001 -0.43474799394607544 0.6258119940757751
vn -0.4074839949607849 -0.6763569712638855 0.6135939955711365
vn 0.28930801153182983 -0.7589889764785767 0.5832980275154114
vn 0.5254949927330017 -0.7569050192832947 0.38852301239967346
vn 0.14066199958324432 0.6831269860267639 0.7166249752044678
vn 0.28930801153182983 -0.7589889764785767 0.5832980275154114
vt 0.48541900515556335 0.13306498527526855
vt 0.58023601770401 0.13306498527526855
vt 0.580062985420227 0.8665730059146881
vt 0.39796000719070435 0.14784300327301025
vt 0.30996501445770264 0.14784300327301025
vt 0.3110310137271881 0.8543049991130829
vt 0.47777798771858215 0.14784300327301025
vt 0.39796000719070435 0.8543049991130829
vt 0.23598699271678925 0.14784300327301025
vt 0.23491999506950378 0.8543049991130829
vt 0.35179999470710754 0.9995005130185746
vt 0.4767110049724579 0.8543049991130829
vt 0.24965800344944 0.8567200005054474
vt 0.17090600728988647 0.8567200005054474
vt 0.12474700063467026 0.9995005130185746
vt 0.08397799730300903 0.8567200005054474
vt 0.007867099717259407 0.8567200005054474
vt 0.25072500109672546 0.14784300327301025
vt 0.17090600728988647 0.14784300327301025
vt 0.0829114019870758 0.14784300327301025
vt 0.00893372017890215 0.14784300327301025
vt 0.6584489941596985 0.8665730059146881
vt 0.6594740152359009 0.13306498527526855
vt 0.7368350028991699 0.8665730059146881
vt 0.7387120127677917 0.13306498527526855
vt 0.6530100107192993 0.8665730059146881
vt 0.6539750099182129 0.13306498527526855
vt 0.5746240019798279 0.8665730059146881
vt 0.574737012386322 0.13306498527526855
vt 0.49623700976371765 0.8665730059146881
vt 0.49549901485443115 0.13306498527526855
vt 0.604744017124176 0.9886552998796105
vt 0.48626598715782166 0.8665730059146881
g Geoset0
s 1
usemtl mat_outpostburntwood01
f 1/1/1 2/2/2 3/3/3
f 4/4/4 5/5/5 6/6/6
f 7/7/7 4/4/4 8/8/8
f 6/6/6 8/8/8 4/4/4
f 5/5/5 9/9/9 10/10/10
f 10/10/10 6/6/6 5/5/5
f 11/11/11 6/6/6 10/10/10
f 8/8/8 6/6/6 11/11/11
f 12/12/12 8/8/8 11/11/11
f 8/8/8 12/12/12 7/7/7
f 13/13/13 14/14/14 15/15/15
f 14/14/14 16/16/16 15/15/15
f 15/15/15 16/16/16 17/17/17
f 14/14/14 13/13/13 18/18/18
f 18/18/18 19/19/19 14/14/14
f 16/16/16 14/14/14 19/19/19
f 19/19/19 20/20/20 16/16/16
f 17/17/17 16/16/16 20/20/20
f 20/20/20 21/21/21 17/17/17
f 2/2/2 22/22/22 3/3/3
f 2/2/2 23/23/23 22/22/22
f 23/23/23 24/24/24 22/22/22
f 23/23/23 25/25/25 24/24/24
f 25/25/25 26/26/26 24/24/24
f 25/25/25 27/27/27 26/26/26
f 27/27/27 28/28/28 26/26/26
f 27/27/27 29/29/29 28/28/28
f 29/29/29 30/30/30 28/28/28
f 29/29/29 31/31/31 30/30/30
f 32/32/32 28/28/28 30/30/30
f 32/32/32 26/26/26 28/28/28
f 32/32/32 24/24/24 26/26/26
f 32/32/32 22/22/22 24/24/24
f 32/32/32 3/3/3 22/22/22
f 32/32/32 33/33/33 3/3/3
f 1/1/1 3/3/3 33/33/33
