# Exported using wow.export v0.1.64
o burntoutpost04
mtllib burntoutpost04.mtl
v -2.540649890899658 -0.25130799412727356 -0.6378499865531921
v -2.5719099044799805 -0.4771359860897064 -0.4546779990196228
v -4.046919822692871 1.817870020866394 1.6234400272369385
v 2.630340099334717 2.617959976196289 1.2905900478363037
v 2.660550117492676 1.5514899492263794 1.0770900249481201
v 2.6779699325561523 1.774899959564209 0.5682500004768372
v 2.224410057067871 1.6599400043487549 0.7678139805793762
v 2.6779699325561523 1.774899959564209 0.5682500004768372
v 2.524590015411377 -0.03108140081167221 -0.3912169933319092
v 1.966439962387085 -0.17255400121212006 -0.14562900364398956
v 2.625890016555786 -0.4424000084400177 0.1767140030860901
v 2.524590015411377 -0.03108140081167221 -0.3912169933319092
v 4.266280174255371 2.2268199920654297 1.6057599782943726
v 3.6867499351501465 1.2096600532531738 1.2626899480819702
v 3.961970090866089 1.3761099576950073 0.8314669728279114
v 3.609839916229248 1.5219700336456299 0.8314669728279114
v 3.961970090866089 1.3761099576950073 0.8314669728279114
v 2.9883599281311035 -0.2231770008802414 -0.3912169933319092
v 2.524590015411377 -0.03108140081167221 -0.3912169933319092
v 2.625890016555786 -0.4424000084400177 0.1767140030860901
v 2.9883599281311035 -0.2231770008802414 -0.3912169933319092
v -1.5452799797058105 2.9282000064849854 1.9280200004577637
v -1.2644699811935425 1.5627000331878662 0.9359809756278992
v -1.6474000215530396 1.7951600551605225 0.867097020149231
v -1.6446199417114258 1.440850019454956 1.2133100032806396
v -1.6474000215530396 1.7951600551605225 0.867097020149231
v -1.1704599857330322 -0.2549949884414673 -0.22262999415397644
v -1.583840012550354 -0.004057500045746565 -0.29698100686073303
v -1.7008600234985352 -0.44910600781440735 0.011039700359106064
v -1.583840012550354 -0.004057500045746565 -0.29698100686073303
v -2.515850067138672 1.5096399784088135 2.3512799739837646
v -1.7900400161743164 0.8964030146598816 0.9585610032081604
v -2.597830057144165 0.8052060008049011 0.9585610032081604
v -2.101789951324463 0.3287000060081482 1.3514800071716309
v -2.597830057144165 0.8052060008049011 0.9585610032081604
v -1.583840012550354 -0.004057500045746565 -0.29698100686073303
v -1.9695899486541748 -0.075552798807621 -0.29698100686073303
v -1.7008600234985352 -0.44910600781440735 0.011039700359106064
v -1.9695899486541748 -0.075552798807621 -0.29698100686073303
v 0.7358440160751343 1.7232799530029297 2.20947003364563
v 0.7447190284729004 0.9201470017433167 1.2797600030899048
v 0.3490059971809387 1.2734500169754028 1.1981899738311768
v 0.27578499913215637 0.8603060245513916 1.6081700325012207
v 0.3490059971809387 1.2734500169754028 1.1981899738311768
v 0.25628000497817993 -0.45759400725364685 -0.3341220021247864
v -0.23069000244140625 -0.022809699177742004 -0.4345029890537262
v -0.49550798535346985 -0.5847749710083008 -0.01867000013589859
v -0.23069000244140625 -0.022809699177742004 -0.4345029890537262
v -0.760325014591217 -0.022809699177742004 -0.4345029890537262
v -0.49550798535346985 -0.5847749710083008 -0.01867000013589859
v -0.8625749945640564 0.8603249788284302 1.8201500177383423
v -0.6615030169487 1.2870099544525146 1.5044100284576416
v -0.23069000244140625 -0.022809699177742004 -0.4345029890537262
v -1.0636500120162964 1.2870099544525146 1.5044100284576416
v -1.0167900323867798 1.8540400266647339 2.623569965362549
v -1.0636500120162964 1.2870099544525146 1.5044100284576416
v -0.760325014591217 -0.022809699177742004 -0.4345029890537262
v 0.9757689833641052 -0.7121999859809875 -0.5862389802932739
v 2.251889944076538 1.9248100519180298 2.4778499603271484
v 2.016239881515503 1.7238800525665283 2.7523601055145264
v 1.182479977607727 -0.5359439849853516 -0.8270279765129089
v 2.417799949645996 3.4902501106262207 4.260119915008545
v 2.0757100582122803 2.16402006149292 2.1897599697113037
v 1.6466000080108643 2.210050106048584 2.167030096054077
v 1.6044000387191772 1.7621500492095947 2.738759994506836
v 2.016239881515503 1.7238800525665283 2.7523601055145264
v 1.4282200336456299 2.0013599395751953 2.450670003890991
v 1.0448299646377563 -0.2576510012149811 -1.015120029449463
v 0.642346978187561 -0.1097560003399849 -0.9787470102310181
v 0.4356360137462616 -0.2860110104084015 -0.7379559874534607
v 0.6314060091972351 -0.6101639866828918 -0.5335419774055481
v 0.9757689833641052 -0.7121999859809875 -0.5862389802932739
v -3.780669927597046 1.6916699409484863 1.7794300317764282
v -2.3608100414276123 -0.5395529866218567 -0.26214799284935
v -3.46205997467041 1.8228100538253784 1.7293299436569214
v -2.0637800693511963 -0.36396899819374084 -0.22844700515270233
v -3.4431400299072266 2.080349922180176 1.5177899599075317
v -2.032520055770874 -0.13814499974250793 -0.4116170108318329
v -3.7093899250030518 2.206549882888794 1.361799955368042
v -2.2982900142669678 -0.08790060132741928 -0.6284890174865723
v -4.011280059814453 2.075309991836548 1.414620041847229
v -2.540649890899658 -0.25130799412727356 -0.6378499865531921
v -4.511020183563232 3.2166800498962402 2.8473498821258545
v -4.011280059814453 2.075309991836548 1.414620041847229
vn -0.7918140292167664 0.037291400134563446 -0.6096230149269104
vn -0.7687060236930847 -0.6234449744224548 0.14285500347614288
vn -0.9028890132904053 -0.42766299843788147 -0.043532900512218475
vn -0.10761299729347229 0.9456850290298462 0.30675700306892395
vn 0.7651529908180237 -0.21878300607204437 0.6055359840393066
vn 0.23961900174617767 0.5223129987716675 -0.8183959722518921
vn -0.9490939974784851 0.07216800004243851 0.3066140115261078
vn 0.23961900174617767 0.5223129987716675 -0.8183959722518921
vn 0.3597570061683655 0.5781970024108887 -0.7322999835014343
vn -0.8334270119667053 0.3360249996185303 -0.4387339949607849
vn -0.4189949929714203 -0.2239689975976944 0.8799329996109009
vn 0.3597570061683655 0.5781970024108887 -0.7322999835014343
vn 0.4181089997291565 0.8965470194816589 -0.14624899625778198
vn 0.27681899070739746 -0.574874997138977 0.7699940204620361
vn 0.7470970153808594 0.1514340043067932 -0.6472359895706177
vn -0.7084450125694275 0.6910549998283386 -0.14334699511528015
vn 0.7470970153808594 0.1514340043067932 -0.6472359895706177
vn 0.897059977054596 -0.39570000767707825 -0.19673599302768707
vn 0.3597570061683655 0.5781970024108887 -0.7322999835014343
vn -0.4189949929714203 -0.2239689975976944 0.8799329996109009
vn 0.897059977054596 -0.39570000767707825 -0.19673599302768707
vn 0.34447699785232544 0.8986420035362244 0.2716209888458252
vn 0.9666429758071899 -0.0651945024728775 0.2476930022239685
vn -0.23774799704551697 0.5831620097160339 -0.7767869830131531
vn -0.7841640114784241 -0.2949469983577728 0.5459790229797363
vn -0.23774799704551697 0.5831620097160339 -0.7767869830131531
vn 0.827003002166748 0.3319709897041321 -0.45371899008750916
vn -0.27241000533103943 0.7102360129356384 -0.6491199731826782
vn 0.4209679961204529 -0.5825719833374023 0.6952670216560364
vn -0.27241000533103943 0.7102360129356384 -0.6491199731826782
vn -0.04508860036730766 0.5086550116539001 0.8597890138626099
vn 0.8953539729118347 0.44425299763679504 0.031316399574279785
vn -0.7251700162887573 0.49225398898124695 -0.4814710021018982
vn -0.22892199456691742 -0.8125399947166443 0.5360730290412903
vn -0.7251700162887573 0.49225398898124695 -0.4814710021018982
vn -0.27241000533103943 0.7102360129356384 -0.6491199731826782
vn -0.9389230012893677 -0.24395500123500824 -0.24271099269390106
vn 0.4209679961204529 -0.5825719833374023 0.6952670216560364
vn -0.9389230012893677 -0.24395500123500824 -0.24271099269390106
vn 0.4613189995288849 0.6517549753189087 0.6019970178604126
vn 0.9044659733772278 -0.391292005777359 0.16979800164699554
vn -0.02149830013513565 0.8437269926071167 -0.5363420248031616
vn -0.7906339764595032 -0.14794999361038208 0.5941449999809265
vn -0.02149830013513565 0.8437269926071167 -0.5363420248031616
vn 0.8985769748687744 0.16005000472068787 -0.4085870087146759
vn -0.11110500246286392 0.9009550213813782 -0.41944798827171326
vn 0.30139100551605225 -0.6760420203208923 0.6724069714546204
vn -0.11110500246286392 0.9009550213813782 -0.41944798827171326
vn -0.9802029728889465 0.054694898426532745 -0.19029000401496887
vn 0.30139100551605225 -0.6760420203208923 0.6724069714546204
vn -0.47574201226234436 -0.6874799728393555 0.5486720204353333
vn 0.9189730286598206 0.3942359983921051 0.00814054999500513
vn -0.11110500246286392 0.9009550213813782 -0.41944798827171326
vn -0.6322759985923767 0.6410819888114929 -0.43501800298690796
vn -0.04318920150399208 0.9690409898757935 0.24309100210666656
vn -0.6322759985923767 0.6410819888114929 -0.43501800298690796
vn -0.9802029728889465 0.054694898426532745 -0.19029000401496887
vn 0.5254949927330017 -0.7569050192832947 0.38852301239967346
vn 0.9564819931983948 -0.2917430102825165 0.005309210158884525
vn 0.28930801153182983 -0.7589889764785767 0.5832980275154114
vn 0.9665430188179016 -0.10700500011444092 -0.2331169992685318
vn 0.14066199958324432 0.6831269860267639 0.7166249752044678
vn 0.6752880215644836 0.5078409910202026 -0.5348680019378662
vn -0.2560029923915863 0.8350690007209778 -0.4869529902935028
vn -0.6475750207901001 -0.43474799394607544 0.6258119940757751
vn 0.28930801153182983 -0.7589889764785767 0.5832980275154114
vn -0.9242069721221924 0.3703950047492981 0.09299919754266739
vn 0.461544007062912 0.6330379843711853 -0.6214820146560669
vn -0.5193219780921936 0.7594630122184753 -0.39181798696517944
vn -0.9669529795646667 0.07408949732780457 0.24395300447940826
vn -0.4074839949607849 -0.6763569712638855 0.6135939955711365
vn 0.5254949927330017 -0.7569050192832947 0.38852301239967346
vn -0.2502169907093048 -0.6973310112953186 0.6716560125350952
vn 0.00144447002094239 -0.6712009906768799 0.7412739992141724
vn 0.6153119802474976 -0.2276100069284439 0.754709005355835
vn 0.7883859872817993 -0.04249100014567375 0.6137109994888306
vn 0.8492019772529602 0.5128999948501587 0.12565800547599792
vn 0.7572550177574158 0.6292229890823364 -0.1750510036945343
vn 0.20250099897384644 0.7771109938621521 -0.5958960056304932
vn -0.05474869906902313 0.6362550258636475 -0.7695339918136597
vn -0.6696109771728516 0.3103249967098236 -0.6747739911079407
vn -0.7918140292167664 0.037291400134563446 -0.6096230149269104
vn -0.2847520112991333 0.6743460297584534 0.6813030242919922
vn -0.6696109771728516 0.3103249967098236 -0.6747739911079407
vt 0.48541900515556335 0.13306498527526855
vt 0.58023601770401 0.13306498527526855
vt 0.580062985420227 0.8665730059146881
vt 0.12474700063467026 0.9995005130185746
vt 0.17090600728988647 0.8567200005054474
vt 0.24965800344944 0.8567200005054474
vt 0.08397799730300903 0.8567200005054474
vt 0.007867099717259407 0.8567200005054474
vt 0.00893372017890215 0.14784300327301025
vt 0.0829114019870758 0.14784300327301025
vt 0.17090600728988647 0.14784300327301025
vt 0.25072500109672546 0.14784300327301025
vt 0.35179999470710754 0.9995005130185746
vt 0.39796000719070435 0.8543049991130829
vt 0.4767110049724579 0.8543049991130829
vt 0.3110310137271881 0.8543049991130829
vt 0.23491999506950378 0.8543049991130829
vt 0.23598699271678925 0.14784300327301025
vt 0.30996501445770264 0.14784300327301025
vt 0.39796000719070435 0.14784300327301025
vt 0.47777798771858215 0.14784300327301025
vt 0.6247469782829285 0.9995005130185746
vt 0.583977997303009 0.8567200005054474
vt 0.5078669786453247 0.8567200005054474
vt 0.6709060072898865 0.8567200005054474
vt 0.7496579885482788 0.8567200005054474
vt 0.5829110145568848 0.14784300327301025
vt 0.5089340209960938 0.14784300327301025
vt 0.6709060072898865 0.14784300327301025
vt 0.7507249712944031 0.14784300327301025
vt 0.35421499609947205 0.9995005130185746
vt 0.3134469985961914 0.8543049991130829
vt 0.23733599483966827 0.8543049991130829
vt 0.40037500858306885 0.8543049991130829
vt 0.4791269898414612 0.8543049991130829
vt 0.31237998604774475 0.14784300327301025
vt 0.23840199410915375 0.14784300327301025
vt 0.40037500858306885 0.14784300327301025
vt 0.48019400238990784 0.14784300327301025
vt 0.12474700063467026 0.9995005130185746
vt 0.08397799730300903 0.8567200005054474
vt 0.007867099717259407 0.8567200005054474
vt 0.17090600728988647 0.8567200005054474
vt 0.24965800344944 0.8567200005054474
vt 0.0829114019870758 0.14784300327301025
vt 0.00893372017890215 0.14784300327301025
vt 0.17090600728988647 0.14784300327301025
vt 0.25072500109672546 0.14784300327301025
vt 0.47777798771858215 0.14784300327301025
vt 0.39796000719070435 0.14784300327301025
vt 0.39796000719070435 0.8543049991130829
vt 0.3110310137271881 0.8543049991130829
vt 0.30996501445770264 0.14784300327301025
vt 0.4767110049724579 0.8543049991130829
vt 0.35179999470710754 0.9995005130185746
vt 0.23491999506950378 0.8543049991130829
vt 0.23598699271678925 0.14784300327301025
vt 0.48541900515556335 0.13306498527526855
vt 0.580062985420227 0.8665730059146881
vt 0.48626598715782166 0.8665730059146881
vt 0.58023601770401 0.13306498527526855
vt 0.604744017124176 0.9886552998796105
vt 0.6584489941596985 0.8665730059146881
vt 0.7368350028991699 0.8665730059146881
vt 0.5746240019798279 0.8665730059146881
vt 0.49623700976371765 0.8665730059146881
vt 0.6530100107192993 0.8665730059146881
vt 0.6594740152359009 0.13306498527526855
vt 0.7387120127677917 0.13306498527526855
vt 0.6539750099182129 0.13306498527526855
vt 0.574737012386322 0.13306498527526855
vt 0.49549901485443115 0.13306498527526855
vt 0.6584489941596985 0.8665730059146881
vt 0.6594740152359009 0.13306498527526855
vt 0.7368350028991699 0.8665730059146881
vt 0.7387120127677917 0.13306498527526855
vt 0.6530100107192993 0.8665730059146881
vt 0.6539750099182129 0.13306498527526855
vt 0.5746240019798279 0.8665730059146881
vt 0.574737012386322 0.13306498527526855
vt 0.49623700976371765 0.8665730059146881
vt 0.49549901485443115 0.13306498527526855
vt 0.604744017124176 0.9886552998796105
vt 0.48626598715782166 0.8665730059146881
g Geoset0
s 1
usemtl mat_outpostburntwood01
f 1/1/1 2/2/2 3/3/3
f 4/4/4 5/5/5 6/6/6
f 4/4/4 7/7/7 5/5/5
f 8/8/8 7/7/7 4/4/4
f 8/8/8 9/9/9 10/10/10
f 10/10/10 7/7/7 8/8/8
f 7/7/7 10/10/10 11/11/11
f 11/11/11 5/5/5 7/7/7
f 5/5/5 11/11/11 12/12/12
f 12/12/12 6/6/6 5/5/5
f 13/13/13 14/14/14 15/15/15
f 13/13/13 16/16/16 14/14/14
f 17/17/17 16/16/16 13/13/13
f 17/17/17 18/18/18 19/19/19
f 19/19/19 16/16/16 17/17/17
f 16/16/16 19/19/19 20/20/20
f 20/20/20 14/14/14 16/16/16
f 14/14/14 20/20/20 21/21/21
f 21/21/21 15/15/15 14/14/14
f 22/22/22 23/23/23 24/24/24
f 25/25/25 23/23/23 22/22/22
f 26/26/26 25/25/25 22/22/22
f 27/27/27 28/28/28 24/24/24
f 24/24/24 23/23/23 27/27/27
f 29/29/29 27/27/27 23/23/23
f 23/23/23 25/25/25 29/29/29
f 30/30/30 29/29/29 25/25/25
f 25/25/25 26/26/26 30/30/30
f 31/31/31 32/32/32 33/33/33
f 34/34/34 32/32/32 31/31/31
f 35/35/35 34/34/34 31/31/31
f 36/36/36 37/37/37 33/33/33
f 33/33/33 32/32/32 36/36/36
f 38/38/38 36/36/36 32/32/32
f 32/32/32 34/34/34 38/38/38
f 39/39/39 38/38/38 34/34/34
f 34/34/34 35/35/35 39/39/39
f 40/40/40 41/41/41 42/42/42
f 43/43/43 41/41/41 40/40/40
f 44/44/44 43/43/43 40/40/40
f 45/45/45 46/46/46 42/42/42
f 42/42/42 41/41/41 45/45/45
f 47/47/47 45/45/45 41/41/41
f 41/41/41 43/43/43 47/47/47
f 48/48/48 47/47/47 43/43/43
f 43/43/43 44/44/44 48/48/48
f 49/49/49 50/50/50 51/51/51
f 52/52/52 51/51/51 50/50/50
f 50/50/50 53/53/53 52/52/52
f 51/51/51 54/54/54 49/49/49
f 54/54/54 51/51/51 55/55/55
f 51/51/51 52/52/52 55/55/55
f 55/55/55 52/52/52 56/56/56
f 56/56/56 52/52/52 53/53/53
f 53/53/53 57/57/57 56/56/56
f 58/58/58 59/59/59 60/60/60
f 58/58/58 61/61/61 59/59/59
f 62/62/62 59/59/59 63/63/63
f 62/62/62 60/60/60 59/59/59
f 62/62/62 63/63/63 64/64/64
f 62/62/62 65/65/65 66/66/66
f 62/62/62 67/67/67 65/65/65
f 62/62/62 64/64/64 67/67/67
f 61/61/61 63/63/63 59/59/59
f 61/61/61 68/68/68 63/63/63
f 68/68/68 64/64/64 63/63/63
f 68/68/68 69/69/69 64/64/64
f 69/69/69 67/67/67 64/64/64
f 69/69/69 70/70/70 67/67/67
f 70/70/70 65/65/65 67/67/67
f 70/70/70 71/71/71 65/65/65
f 71/71/71 66/66/66 65/65/65
f 71/71/71 72/72/72 66/66/66
f 2/2/2 73/73/73 3/3/3
f 2/2/2 74/74/74 73/73/73
f 74/74/74 75/75/75 73/73/73
f 74/74/74 76/76/76 75/75/75
f 76/76/76 77/77/77 75/75/75
f 76/76/76 78/78/78 77/77/77
f 78/78/78 79/79/79 77/77/77
f 78/78/78 80/80/80 79/79/79
f 80/80/80 81/81/81 79/79/79
f 80/80/80 82/82/82 81/81/81
f 83/83/83 79/79/79 81/81/81
f 83/83/83 77/77/77 79/79/79
f 83/83/83 75/75/75 77/77/77
f 83/83/83 73/73/73 75/75/75
f 83/83/83 3/3/3 73/73/73
f 83/83/83 84/84/84 3/3/3
f 1/1/1 3/3/3 84/84/84
