# Exported using wow.export v0.1.64
o burntoutpost06
mtllib burntoutpost06.mtl
v 0.018713299185037613 -0.6673920154571533 -0.2885279953479767
v 0.29394200444221497 -0.5070919990539551 -0.46267199516296387
v 0.19882099330425262 2.2751400470733643 2.757780075073242
v 0.12891100347042084 2.4815800189971924 2.4059998989105225
v 0.2269749939441681 -0.251473993062973 -0.7115690112113953
v -0.2679919898509979 2.511620044708252 2.2376699447631836
v -0.164559006690979 -0.11384899914264679 -0.8253440260887146
v -0.5685250163078308 2.3225300312042236 2.4512600898742676
v -0.4397920072078705 -0.2741529941558838 -0.6512029767036438
v -0.49861401319503784 2.1160900592803955 2.8030500411987305
v -0.3234890103340149 -0.5720810294151306 -0.3632830083370209
v -0.11494400352239609 2.092400074005127 2.9563100337982178
v 0.018713299185037613 -0.6673920154571533 -0.2885279953479767
v -0.23972100019454956 3.9997100830078125 4.335179805755615
v -0.11494400352239609 2.092400074005127 2.9563100337982178
vn 0.36566200852394104 -0.7015050053596497 0.6117039918899536
vn 0.9889199733734131 -0.09665100276470184 0.1126750037074089
vn 0.8998469710350037 -0.259319007396698 0.3507539927959442
vn 0.8150969743728638 0.4787839949131012 -0.32616400718688965
vn 0.6425250172615051 0.5887410044670105 -0.4904539883136749
vn -0.07877050340175629 0.7790380120277405 -0.6220080256462097
vn -0.35874301195144653 0.7039510011672974 -0.6129900217056274
vn -0.902239978313446 0.3475230038166046 -0.2553260028362274
vn -0.9929230213165283 0.06485249847173691 -0.09948860108852386
vn -0.8193320035934448 -0.3969239890575409 0.4136990010738373
vn -0.588932991027832 -0.630843997001648 0.5051670074462891
vn 0.07800500094890594 -0.6935380101203918 0.7161840200424194
vn 0.36566200852394104 -0.7015050053596497 0.6117039918899536
vn -0.10661999881267548 0.7492290139198303 0.653672993183136
vn 0.07800500094890594 -0.6935380101203918 0.7161840200424194
vt -0.0025032199919223785 0.13306498527526855
vt 0.09231279790401459 0.13306498527526855
vt 0.0921403020620346 0.8665730059146881
vt 0.17052699625492096 0.8665730059146881
vt 0.17155100405216217 0.13306498527526855
vt 0.2489130049943924 0.8665730059146881
vt 0.25078898668289185 0.13306498527526855
vt 0.1650869995355606 0.8665730059146881
vt 0.16605299711227417 0.13306498527526855
vt 0.08670079708099365 0.8665730059146881
vt 0.08681429922580719 0.13306498527526855
vt 0.008314610458910465 0.8665730059146881
vt 0.007576049771159887 0.13306498527526855
vt 0.11682099848985672 0.9886552998796105
vt -0.001656319946050644 0.8665730059146881
g Geoset0
s 1
usemtl mat_outpostburntwood01
f 1/1/1 2/2/2 3/3/3
f 2/2/2 4/4/4 3/3/3
f 2/2/2 5/5/5 4/4/4
f 5/5/5 6/6/6 4/4/4
f 5/5/5 7/7/7 6/6/6
f 7/7/7 8/8/8 6/6/6
f 7/7/7 9/9/9 8/8/8
f 9/9/9 10/10/10 8/8/8
f 9/9/9 11/11/11 10/10/10
f 11/11/11 12/12/12 10/10/10
f 11/11/11 13/13/13 12/12/12
f 14/14/14 10/10/10 12/12/12
f 14/14/14 8/8/8 10/10/10
f 14/14/14 6/6/6 8/8/8
f 14/14/14 4/4/4 6/6/6
f 14/14/14 3/3/3 4/4/4
f 14/14/14 15/15/15 3/3/3
f 1/1/1 3/3/3 15/15/15
