# Exported using wow.export v0.1.64
o battlefieldbanneralliance_static_wall
mtllib battlefieldbanneralliance_static_wall.mtl
v 0.3350130617618561 0.11438722163438797 -0.13822276890277863
v 0.2635037899017334 -0.14457140862941742 -0.10518467426300049
v -0.21667905151844025 -0.13996917009353638 -0.14661236107349396
v -0.21667905151844025 -0.13996917009353638 0.18158647418022156
v -0.21667905151844025 -0.13996917009353638 -0.14661236107349396
v 0.2635037899017334 -0.14457140862941742 -0.10518467426300049
v 0.2635037899017334 -0.14457140862941742 0.13920481503009796
v -0.21874167025089264 0.16120974719524384 -0.13951155543327332
v -0.21874167025089264 0.16120974719524384 0.1719629466533661
v 0.3350130617618561 0.11438722163438797 0.17224285006523132
v 0.3350130617618561 0.11438722163438797 -0.13822276890277863
v -0.21874167025089264 0.16120974719524384 0.1719629466533661
v -0.21667905151844025 -0.13996917009353638 0.18158647418022156
v 0.2635037899017334 -0.14457140862941742 0.13920481503009796
v 0.3350130617618561 0.11438722163438797 0.17224285006523132
v 0.3350130617618561 0.11438722163438797 0.17224285006523132
v 0.2635037899017334 -0.14457140862941742 0.13920481503009796
v 0.4275016486644745 -0.07116207480430603 0.01523330993950367
v 0.3350130617618561 0.11438722163438797 -0.13822276890277863
v 0.2635037899017334 -0.14457140862941742 -0.10518467426300049
v 0.268219918012619 0.0939709022641182 1.0837856531143188
v 0.10337783396244049 0.1475314199924469 1.083785891532898
v 0.1489390730857849 0.007308298721909523 1.2124519348144531
v 0.268219918012619 -0.07935440540313721 1.083785057067871
v 0.0014998121187090874 0.007308296859264374 1.0837846994400024
v 0.1033778116106987 -0.13291475176811218 1.0837852954864502
v 0.14893898367881775 0.007308220025151968 -1.1899805068969727
v 0.0014996990794315934 0.007308228872716427 -1.0629745721817017
v 0.10337775945663452 0.14753130078315735 -1.0629746913909912
v 0.10337773710489273 -0.13291485607624054 -1.0629745721817017
v 0.26821988821029663 -0.0793544128537178 -1.0629745721817017
v 0.26821988821029663 0.09397086501121521 -1.0629748106002808
v 0.24465306103229523 0.0768485739827156 0.994873583316803
v 0.10337783396244049 0.1475314199924469 1.083785891532898
v 0.268219918012619 0.0939709022641182 1.0837856531143188
v 0.11237956583499908 0.1198267936706543 0.994873583316803
v 0.24465304613113403 0.07684855908155441 -0.9771810173988342
v 0.1123795285820961 0.11982680857181549 -0.9771810173988342
v 0.26821988821029663 0.09397086501121521 -1.0629748106002808
v 0.10337775945663452 0.14753130078315735 -1.0629746913909912
v 0.0014998121187090874 0.007308296859264374 1.0837846994400024
v 0.03063003160059452 0.0073083615861833096 0.9948734641075134
v 0.030630018562078476 0.007308288477361202 -0.9771810173988342
v 0.0014996990794315934 0.007308228872716427 -1.0629745721817017
v 0.1033778116106987 -0.13291475176811218 1.0837852954864502
v 0.11237955093383789 -0.10521026700735092 0.9948734641075134
v 0.1123795136809349 -0.10521023720502853 -0.9771810173988342
v 0.10337773710489273 -0.13291485607624054 -1.0629745721817017
v 0.268219918012619 -0.07935440540313721 1.083785057067871
v 0.24465304613113403 -0.06223203241825104 0.9948734641075134
v 0.24465304613113403 -0.06223207712173462 -0.9771808981895447
v 0.26821988821029663 -0.0793544128537178 -1.0629745721817017
v -0.21874167025089264 0.16120974719524384 -0.13951155543327332
v 0.23458640277385712 -2.6384739875793457 0.670564591884613
v 0.23458583652973175 -2.8657994270324707 -0.34934452176094055
v 0.2345862090587616 -2.865861415863037 0.3533487617969513
v 0.24683907628059387 -3.0932505130767822 0.001964996801689267
v 0.24683910608291626 -2.8657987117767334 -0.34934425354003906
v 0.24683921039104462 -2.865861177444458 0.35334888100624084
v 0.24683935940265656 -2.6384730339050293 0.6705650687217712
v 0.24683894217014313 -2.6383471488952637 -0.6665245890617371
v 0.2468392550945282 -2.3384006023406982 0.904679000377655
v 0.24683883786201477 -2.3381495475769043 -0.9004798531532288
v 0.24683935940265656 -1.792523980140686 0.94434654712677
v 0.24683888256549835 -1.7920223474502563 -0.9398801922798157
v 0.2468387633562088 -1.0479778051376343 0.0031974543817341328
v 0.24683839082717896 -1.0469746589660645 -0.9576185941696167
v 0.24683836102485657 -0.3758266866207123 -0.26303353905677795
v 0.24802088737487793 0.08095787465572357 0.2702232897281647
v 0.1113661676645279 0.12535960972309113 0.9769077301025391
v 0.24802112579345703 0.08095777034759521 0.9830287098884583
v 0.11136603355407715 0.12535974383354187 0.27022334933280945
v 0.02690863236784935 0.009114056825637817 0.9830288290977478
v 0.02690860815346241 0.00911407545208931 0.2702232897281647
v 0.11136601120233536 -0.10713157802820206 0.9830290675163269
v 0.11136577278375626 -0.10713156312704086 0.27022334933280945
v 0.24802112579345703 -0.062256116420030594 0.9830288290977478
v 0.2480209618806839 -0.06234675645828247 0.27022331953048706
v 0.2468385398387909 -0.37633851170539856 0.2694492042064667
v 0.24683897197246552 -1.0481057167053223 0.9642073512077332
v 0.24802051484584808 -0.06207714602351189 -0.9760995507240295
v 0.2480207085609436 0.08095768839120865 -0.26322677731513977
v 0.24802067875862122 -0.062346816062927246 -0.2632267475128174
v 0.24802044034004211 0.08095771819353104 -0.9760571718215942
v 0.11136534810066223 -0.1071317121386528 -0.9760571718215942
v 0.11136558651924133 -0.10713163763284683 -0.2632268965244293
v 0.026908177882432938 0.009113943204283714 -0.9760571718215942
v 0.026908421888947487 0.009114108048379421 -0.26322683691978455
v 0.11136560887098312 0.12535952031612396 -0.9760571718215942
v 0.11136574298143387 0.1253596842288971 -0.2648550271987915
v 0.23576787114143372 -0.06234678998589516 0.27022281289100647
v 0.23458541929721832 -0.3763386309146881 0.2694486975669861
v 0.23576800525188446 -0.06225614994764328 0.9830284118652344
v 0.23607826232910156 -1.0479779243469238 0.004689870867878199
v 0.23632724583148956 -1.0481058359146118 0.965948760509491
v 0.2363280951976776 -1.7925240993499756 0.9460879564285278
v 0.234585240483284 -0.3758268356323242 -0.26303380727767944
v 0.2345861941576004 -2.638347625732422 -0.6665247082710266
v 0.23458629846572876 -2.3384010791778564 0.9046785831451416
v 0.2345857322216034 -2.3381500244140625 -0.9004798531532288
v 0.23690761625766754 -1.792022466659546 -0.9375581741333008
v 0.2357463538646698 -1.046974778175354 -0.956457793712616
v 0.2357674241065979 -0.062077172100543976 -0.9760996699333191
v 0.23576755821704865 -0.06234685704112053 -0.2632269561290741
v 0.2345859706401825 -3.0932507514953613 0.0019645546562969685
vn 0.48002803325653076 0.6883642077445984 -0.5438085794448853
vn 0.3177780508995056 -0.8304428458213806 -0.45758259296417236
vn 0.06610208004713058 -0.8373121023178101 -0.5427144169807434
vn 0.109971784055233 -0.8171688914299011 0.5658102035522461
vn 0.06610208004713058 -0.8373121023178101 -0.5427144169807434
vn 0.3177780508995056 -0.8304428458213806 -0.45758259296417236
vn 0.3042673170566559 -0.8187113404273987 0.4869632124900818
vn 0.025237038731575012 0.8320710062980652 -0.5540947318077087
vn 0.06404485553503036 0.8149515986442566 0.5759792923927307
vn 0.46745631098747253 0.6797762513160706 0.565144956111908
vn 0.48002803325653076 0.6883642077445984 -0.5438085794448853
vn 0.06404485553503036 0.8149515986442566 0.5759792923927307
vn 0.109971784055233 -0.8171688914299011 0.5658102035522461
vn 0.3042673170566559 -0.8187113404273987 0.4869632124900818
vn 0.46745631098747253 0.6797762513160706 0.565144956111908
vn 0.46745631098747253 0.6797762513160706 0.565144956111908
vn 0.3042673170566559 -0.8187113404273987 0.4869632124900818
vn 0.889915406703949 -0.4560997188091278 -0.004861668683588505
vn 0.48002803325653076 0.6883642077445984 -0.5438085794448853
vn 0.3177780508995056 -0.8304428458213806 -0.45758259296417236
vn 0.5545901656150818 0.8164231777191162 0.16088168323040009
vn -0.15720359981060028 0.9803227782249451 0.11939149349927902
vn -5.101066449242353e-7 -0.000001959477685886668 1
vn 0.5545896291732788 -0.8164238929748535 0.16088005900382996
vn -0.9735490679740906 -9.213695193466265e-7 0.22847813367843628
vn -0.15720392763614655 -0.9803227782249451 0.11939101666212082
vn -1.2941453064740926e-7 -4.3326338072802173e-7 -1
vn -0.9747002124786377 -2.9499298648261174e-7 -0.2235160917043686
vn -0.1572544127702713 0.9806389808654785 -0.11669700592756271
vn -0.15725447237491608 -0.9806390404701233 -0.11669644713401794
vn 0.5549147129058838 -0.8169019818305969 -0.15729226171970367
vn 0.5549148321151733 0.8169018030166626 -0.15729275345802307
vn 0.5466433763504028 0.8047252893447876 -0.23151281476020813
vn -0.15720359981060028 0.9803227782249451 0.11939149349927902
vn 0.5545901656150818 0.8164231777191162 0.16088168323040009
vn -0.15595096349716187 0.972511887550354 -0.172915980219841
vn 0.5456185340881348 0.803217351436615 0.23904448747634888
vn -0.15578776597976685 0.9714938402175903 0.17868931591510773
vn 0.5549148321151733 0.8169018030166626 -0.15729275345802307
vn -0.1572544127702713 0.9806389808654785 -0.11669700592756271
vn -0.9735490679740906 -9.213695193466265e-7 0.22847813367843628
vn -0.9460107684135437 0.0000014543725228577387 -0.3241351842880249
vn -0.9425446391105652 8.758224794291891e-7 0.334080308675766
vn -0.9747002124786377 -2.9499298648261174e-7 -0.2235160917043686
vn -0.15720392763614655 -0.9803227782249451 0.11939101666212082
vn -0.15595123171806335 -0.9725118279457092 -0.17291589081287384
vn -0.15578807890415192 -0.9714936017990112 0.17869023978710175
vn -0.15725447237491608 -0.9806390404701233 -0.11669644713401794
vn 0.5545896291732788 -0.8164238929748535 0.16088005900382996
vn 0.5466433763504028 -0.8047249913215637 -0.23151391744613647
vn 0.5456186532974243 -0.8032171726226807 0.23904499411582947
vn 0.5549147129058838 -0.8169019818305969 -0.15729226171970367
vn 0.025237038731575012 0.8320710062980652 -0.5540947318077087
vn -1 4.331684806402336e-7 4.0726527572587656e-7
vn -1 0.0000014092466926740599 2.9312153060345736e-7
vn -1 -4.885979478785885e-7 5.995351557430695e-7
vn 1 2.880107103919727e-7 -2.050444010137653e-7
vn 1 3.0713348309063804e-8 -2.2427872181651765e-7
vn 1 -1.0326940014238062e-7 -1.7526987505789293e-7
vn 1 -1.453095421766193e-7 -2.0443535220238118e-7
vn 1 -3.8711238659061564e-8 -2.1457532284330227e-7
vn 1 1.1675600575244971e-7 -2.1963553820114612e-7
vn 1 1.6729984508856433e-7 -2.3647253044600802e-7
vn 1 4.420594450493809e-7 -2.2740471194993006e-7
vn 1 6.1851733335061e-7 -3.0386470939447463e-7
vn 1 -0.00020214343385305256 -0.00017155114619527012
vn 0.9999998211860657 -0.0004448592371772975 0.0004300507134757936
vn 0.9999986290931702 -0.0015902131563052535 0.00046386985923163593
vn 0.7183660268783569 0.6956653594970703 -1.254341839285189e-7
vn -0.23683582246303558 0.9715496897697449 1.372061433357885e-7
vn 0.7238132953643799 0.6899958848953247 -8.460410327870704e-8
vn -0.23683595657348633 0.9715496301651001 6.83011762703245e-8
vn -0.9999505281448364 -0.009949137456715107 8.752820690460794e-8
vn -1 7.537342980867834e-7 1.1352945250564517e-7
vn -0.2356453686952591 -0.9718391299247742 -4.4025380674383996e-8
vn -0.23583555221557617 -0.971792995929718 0.00006371390190906823
vn 0.8759114146232605 -0.48247185349464417 -0.00024866496096365154
vn 0.8762577772140503 -0.48184263706207275 0.00006109628884587437
vn 0.999998927116394 -0.0005677056615240872 -0.0013574868207797408
vn 0.9999997615814209 -0.000798758352175355 -3.087868662987603e-7
vn 0.8760370016098022 -0.4822438955307007 0.00019479864567983896
vn 0.7198071479797363 0.69417405128479 -1.5163146827035234e-7
vn 0.8762124180793762 -0.4819251298904419 -0.00003118778840871528
vn 0.7184035778045654 0.6956265568733215 -3.654298552646651e-7
vn -0.2352704107761383 -0.9719299077987671 -0.00018895711400546134
vn -0.23587356507778168 -0.9717837572097778 2.465206989654689e-7
vn -1 9.97718643702683e-7 3.02257774364989e-7
vn -0.999996542930603 -0.0026263082399964333 2.790456790080498e-7
vn -0.2368360459804535 0.9715496301651001 -1.3840275414622738e-7
vn -0.23683586716651917 0.9715496897697449 -9.71319948916971e-8
vn -0.9999874234199524 0.005019224714487791 -4.898656698060222e-7
vn -0.999998927116394 0.0005677060689777136 0.001357486005872488
vn -0.999997615814209 0.002081617945805192 0.0006867755437269807
vn -1 0.000202058712602593 0.00017154797387775034
vn -0.9999997615814209 0.0007983575924299657 3.0868710609865957e-7
vn -1 -7.467256750715023e-7 4.715517150088999e-7
vn -0.9999986290931702 0.0015902124578133225 -0.00046387017937377095
vn -1 -2.2693787116168096e-7 1.7920285699801752e-7
vn -1 -2.654581976457848e-7 1.0358545665667407e-7
vn -1 -8.21522519345308e-7 4.4951005406801414e-7
vn -1 -4.908558821625775e-7 3.146479059523699e-7
vn -0.9999998211860657 0.00044512070599012077 -0.0004302572051528841
vn -0.9999957084655762 0.0027480374556034803 -0.001000688993372023
vn -0.9999873638153076 0.005026943050324917 0.000002050010607490549
vn -1 -2.8801014195778407e-7 2.0504441522462002e-7
vt 0.5064041018486023 0.35276365280151367
vt 0.5071582198143005 0.9887336492538452
vt 0.9904462695121765 0.9887337684631348
vt 0.9876813292503357 0.5548626184463501
vt 0.5050723552703857 0.5548624992370605
vt 0.5050724148750305 0.23897600173950195
vt 0.9876813888549805 0.23897600173950195
vt 0.5050723552703857 0.5548624992370605
vt 0.9876813292503357 0.5548626184463501
vt 0.9876813888549805 0.11663013696670532
vt 0.5050724744796753 0.11663001775741577
vt 0.9904465079307556 0.35205161571502686
vt 0.9904464483261108 0.98873370885849
vt 0.5071583390235901 0.9887336492538452
vt 0.5064042806625366 0.3527635335922241
vt 0.2517486810684204 0.6206571459770203
vt 0.2517833709716797 0.372647762298584
vt 0.37933549284935 0.49496233463287354
vt 0.5006124973297119 0.6206571459770203
vt 0.5005776882171631 0.37264764308929443
vt 0.25163933634757996 0.41173458099365234
vt 0.4185086786746979 0.36016905307769775
vt 0.38118261098861694 0.4984675645828247
vt 0.25163936614990234 0.5786040425300598
vt 0.5216395854949951 0.4951692819595337
vt 0.41850870847702026 0.6301693916320801
vt 0.3789837658405304 0.5000000596046448
vt 0.5189259052276611 0.5000000596046448
vt 0.4176700711250305 0.367454469203949
vt 0.4176701009273529 0.6325456500053406
vt 0.2538347542285919 0.5819177627563477
vt 0.25383472442626953 0.4180823564529419
vt 0.6380859613418579 2.7498555183410645
vt 0.8849164843559265 3.199221611022949
vt 0.6380277276039124 3.199221134185791
vt 0.885168731212616 2.7498555183410645
vt 0.6383169889450073 -1.7535254955291748
vt 0.885128915309906 -1.753525733947754
vt 0.6380277276039124 -2.1927995681762695
vt 0.8849164247512817 -2.1927990913391113
vt 0.9941798448562622 3.199216604232788
vt 0.9945651292800903 2.74985408782959
vt 0.9947980642318726 -1.753525733947754
vt 0.9941798448562622 -2.1927990913391113
vt 0.7559667825698853 3.19921875
vt 0.757155179977417 2.74985408782959
vt 0.7577271461486816 -1.753525733947754
vt 0.7582002282142639 -2.1927990913391113
vt 0.5088403224945068 3.1992173194885254
vt 0.5080729722976685 2.749854803085327
vt 0.5081931948661804 -1.7535254955291748
vt 0.5088401436805725 -2.1927990913391113
vt 0.9904463291168213 0.3520517349243164
vt 0.167234405875206 0.14243018627166748
vt 0.6778740286827087 0.07195734977722168
vt 0.32605549693107605 0.0719379186630249
vt 0.5019834041595459 0.0014452934265136719
vt 0.6778740286827087 0.07195734977722168
vt 0.32605549693107605 0.0719379186630249
vt 0.167234405875206 0.14243018627166748
vt 0.8366772532463074 0.14246928691864014
vt 0.05002008378505707 0.23545527458190918
vt 0.9538119435310364 0.23553311824798584
vt 0.03015969507396221 0.4046818017959595
vt 0.9735386967658997 0.40483736991882324
vt 0.501366376876831 0.6354976892471313
vt 0.9824197888374329 0.6358085870742798
vt 0.6375191807746887 0.8410117626190186
vt 0.3633863925933838 0.9807623624801636
vt 0.012681372463703156 0.9947291612625122
vt 0.010792655870318413 0.980762243270874
vt 0.36338645219802856 0.9947291612625122
vt 0.010792715474963188 0.9489130973815918
vt 0.36338645219802856 0.9489130973815918
vt 0.010792715474963188 0.8973798751831055
vt 0.36338645219802856 0.8973799347877502
vt 0.010792655870318413 0.917273759841919
vt 0.3633863925933838 0.9172335863113403
vt 0.36377382278442383 0.8408530950546265
vt 0.020215971395373344 0.6354579925537109
vt 0.9916726350784302 0.9173531532287598
vt 0.6376160383224487 0.980762243270874
vt 0.6376160383224487 0.9172335863113403
vt 0.9916514754295349 0.980762243270874
vt 0.9916514754295349 0.8973798751831055
vt 0.6376160979270935 0.8973798751831055
vt 0.9916514754295349 0.9489129781723022
vt 0.6376161575317383 0.9489130973815918
vt 0.9916514754295349 0.9947291612625122
vt 0.6384313106536865 0.9947291612625122
vt 0.3633863925933838 0.9172335863113403
vt 0.36377382278442383 0.8408530950546265
vt 0.010792655870318413 0.917273759841919
vt 0.501366376876831 0.6354976892471313
vt 0.020215971395373344 0.6354579925537109
vt 0.03015969507396221 0.4046818017959595
vt 0.6375191807746887 0.8410117626190186
vt 0.8366772532463074 0.14246928691864014
vt 0.05002008378505707 0.23545527458190918
vt 0.9538119435310364 0.23553311824798584
vt 0.9735386967658997 0.40483736991882324
vt 0.9824197888374329 0.6358085870742798
vt 0.9916726350784302 0.9173531532287598
vt 0.6376160383224487 0.9172335863113403
vt 0.5019834041595459 0.0014452934265136719
g Geoset0
s 1
usemtl mat_battlefieldbanner01
f 1/1/1 2/2/2 3/3/3
f 4/4/4 5/5/5 6/6/6
f 6/6/6 7/7/7 4/4/4
f 8/8/8 9/9/9 10/10/10
f 10/10/10 11/11/11 8/8/8
f 12/12/12 13/13/13 14/14/14
f 14/14/14 15/15/15 12/12/12
f 16/16/16 17/17/17 18/18/18
f 19/19/19 16/16/16 18/18/18
f 20/20/20 19/19/19 18/18/18
f 17/17/17 20/20/20 18/18/18
f 21/21/21 22/22/22 23/23/23
f 24/24/24 21/21/21 23/23/23
f 22/22/22 25/25/25 23/23/23
f 25/25/25 26/26/26 23/23/23
f 26/26/26 24/24/24 23/23/23
f 27/27/27 28/28/28 29/29/29
f 27/27/27 30/30/30 28/28/28
f 27/27/27 31/31/31 30/30/30
f 27/27/27 32/32/32 31/31/31
f 27/27/27 29/29/29 32/32/32
f 33/33/33 34/34/34 35/35/35
f 33/33/33 36/36/36 34/34/34
f 37/37/37 36/36/36 33/33/33
f 37/37/37 38/38/38 36/36/36
f 39/39/39 38/38/38 37/37/37
f 39/39/39 40/40/40 38/38/38
f 36/36/36 41/41/41 34/34/34
f 36/36/36 42/42/42 41/41/41
f 38/38/38 42/42/42 36/36/36
f 38/38/38 43/43/43 42/42/42
f 40/40/40 43/43/43 38/38/38
f 40/40/40 44/44/44 43/43/43
f 42/42/42 45/45/45 41/41/41
f 42/42/42 46/46/46 45/45/45
f 43/43/43 46/46/46 42/42/42
f 43/43/43 47/47/47 46/46/46
f 44/44/44 47/47/47 43/43/43
f 44/44/44 48/48/48 47/47/47
f 46/46/46 49/49/49 45/45/45
f 46/46/46 50/50/50 49/49/49
f 47/47/47 50/50/50 46/46/46
f 47/47/47 51/51/51 50/50/50
f 48/48/48 51/51/51 47/47/47
f 48/48/48 52/52/52 51/51/51
f 50/50/50 35/35/35 49/49/49
f 50/50/50 33/33/33 35/35/35
f 51/51/51 33/33/33 50/50/50
f 51/51/51 37/37/37 33/33/33
f 52/52/52 37/37/37 51/51/51
f 52/52/52 39/39/39 37/37/37
f 3/3/3 53/53/53 1/1/1
g Geoset1
s 1
usemtl mat_battlealliancelogo01
f 54/54/54 55/55/55 56/56/56
f 57/57/57 58/58/58 59/59/59
f 58/58/58 60/60/60 59/59/59
f 58/58/58 61/61/61 60/60/60
f 61/61/61 62/62/62 60/60/60
f 61/61/61 63/63/63 62/62/62
f 63/63/63 64/64/64 62/62/62
f 63/63/63 65/65/65 64/64/64
f 65/65/65 66/66/66 64/64/64
f 65/65/65 67/67/67 66/66/66
f 67/67/67 68/68/68 66/66/66
f 69/69/69 70/70/70 71/71/71
f 69/69/69 72/72/72 70/70/70
f 72/72/72 73/73/73 70/70/70
f 72/72/72 74/74/74 73/73/73
f 74/74/74 75/75/75 73/73/73
f 74/74/74 76/76/76 75/75/75
f 76/76/76 77/77/77 75/75/75
f 76/76/76 78/78/78 77/77/77
f 78/78/78 69/69/69 71/71/71
f 78/78/78 71/71/71 77/77/77
f 79/79/79 78/78/78 77/77/77
f 66/66/66 79/79/79 77/77/77
f 66/66/66 77/77/77 80/80/80
f 64/64/64 66/66/66 80/80/80
f 66/66/66 68/68/68 79/79/79
f 81/81/81 82/82/82 83/83/83
f 81/81/81 84/84/84 82/82/82
f 67/67/67 81/81/81 68/68/68
f 81/81/81 83/83/83 68/68/68
f 85/85/85 81/81/81 83/83/83
f 85/85/85 83/83/83 86/86/86
f 87/87/87 85/85/85 86/86/86
f 87/87/87 86/86/86 88/88/88
f 89/89/89 87/87/87 88/88/88
f 89/89/89 88/88/88 90/90/90
f 84/84/84 89/89/89 90/90/90
f 84/84/84 90/90/90 82/82/82
f 91/91/91 92/92/92 93/93/93
f 92/92/92 94/94/94 93/93/93
f 93/93/93 94/94/94 95/95/95
f 94/94/94 96/96/96 95/95/95
f 97/97/97 94/94/94 92/92/92
f 98/98/98 55/55/55 54/54/54
f 99/99/99 98/98/98 54/54/54
f 100/100/100 98/98/98 99/99/99
f 96/96/96 100/100/100 99/99/99
f 101/101/101 100/100/100 96/96/96
f 94/94/94 101/101/101 96/96/96
f 102/102/102 101/101/101 94/94/94
f 97/97/97 102/102/102 94/94/94
f 103/103/103 102/102/102 97/97/97
f 104/104/104 103/103/103 97/97/97
f 55/55/55 105/105/105 56/56/56
