# Exported using wow.export v0.1.64
o jarorc04
mtllib jarorc04.mtl
v -0.15525700151920319 0 0.08951939642429352
v -0.15525700151920319 0 -0.08926939964294434
v -0.00041944399708881974 0 -0.17866399884223938
v -0.00041944399708881974 0.039586398750543594 0.00011111100320704281
v 0.11233899742364883 0.3392530083656311 0.06522750109434128
v 0.11233899742364883 0.3392530083656311 -0.0649774968624115
v -0.00041944399708881974 0.3392530083656311 0.13032999634742737
v -0.11318200081586838 0.3392530083656311 0.06522750109434128
v -0.11318200081586838 0.3392530083656311 -0.0649774968624115
v -0.00041944399708881974 0.3392530083656311 -0.13007999956607819
v -0.2079010009765625 0.2558790147304535 0.11991400271654129
v -0.00041944399708881974 0.3392530083656311 0.13032999634742737
v -0.11318200081586838 0.3392530083656311 0.06522750109434128
v -0.2079010009765625 0.2558790147304535 -0.11966300010681152
v -0.11318200081586838 0.3392530083656311 -0.0649774968624115
v -0.00041944399708881974 0.2558790147304535 -0.23945200443267822
v -0.00041944399708881974 0.3392530083656311 -0.13007999956607819
v 0.20705899596214294 0.2558790147304535 -0.11966300010681152
v 0.11233899742364883 0.3392530083656311 -0.0649774968624115
v 0.20705899596214294 0.2558790147304535 0.11991400271654129
v 0.11233899742364883 0.3392530083656311 0.06522750109434128
v -0.00041944399708881974 0.2558790147304535 0.2397029995918274
v -0.15525700151920319 0 0.08951939642429352
v -0.15525700151920319 0 -0.08926939964294434
v -0.00041944399708881974 0 -0.17866399884223938
v 0.15441499650478363 0 -0.08926939964294434
v 0.15441499650478363 0 0.08951939642429352
v -0.00041944399708881974 0 0.17891399562358856
v 0.15441499650478363 0 0.08951939642429352
v -0.00041944399708881974 0 0.17891399562358856
v 0.15441499650478363 0 -0.08926939964294434
vn 1.2368500033167014e-15 -1 7.114830058590235e-16
vn 5.047089861928006e-15 -1 3.088130083275147e-15
vn 2.5824399788195417e-15 -1 1.6651600481506004e-15
vn -5.641539857492717e-8 1 5.641539857492717e-8
vn -0.7942889928817749 0.39850500226020813 -0.4585829973220825
vn -0.7942889928817749 0.39850500226020813 0.4585829973220825
vn -8.43067979872103e-8 0.39850500226020813 -0.917165994644165
vn 0.7942889928817749 0.39850500226020813 -0.4585829973220825
vn 0.7942889928817749 0.39850500226020813 0.4585829973220825
vn 0 0.39850500226020813 0.917165994644165
vn -0.8247129917144775 0.36034101247787476 0.4358929991722107
vn -0.11588700115680695 0.7899129986763 0.6021689772605896
vn -0.5794379711151123 0.7899129986763 0.20072300732135773
vn -0.7898510098457336 0.36034101247787476 -0.49627599120140076
vn -0.46355000138282776 0.7899129986763 -0.40144601464271545
vn 0.03486249968409538 0.36034101247787476 -0.9321690201759338
vn 0.11588700115680695 0.7899129986763 -0.6021689772605896
vn 0.8247129917144775 0.36034101247787476 -0.4358929991722107
vn 0.5794370174407959 0.7899129986763 -0.20072300732135773
vn 0.7898510098457336 0.36034101247787476 0.49627599120140076
vn 0.46355000138282776 0.7899129986763 0.40144601464271545
vn -0.03486249968409538 0.36034101247787476 0.9321690201759338
vn -0.7361630201339722 -0.22718499600887299 0.6375359892845154
vn -0.9202029705047607 -0.22718499600887299 -0.3187679946422577
vn -0.18404099345207214 -0.22718499600887299 -0.9563030004501343
vn 0.736162006855011 -0.22718499600887299 -0.6375359892845154
vn 0.9202029705047607 -0.22718499600887299 0.3187679946422577
vn 0.18404099345207214 -0.22718499600887299 0.9563030004501343
vn -1.0875300193514788e-16 -1 -2.421949893446191e-16
vn -1.0875300193514788e-16 -1 -3.341889878146425e-16
vn 4.521769997221631e-18 -1 4.5997601422497646e-17
vt 0.35662999749183655 0.0004990100860595703
vt 0.6433699727058411 0.0004990100860595703
vt 0.8727620244026184 0.0004990100860595703
vt 0.5 0.11706900596618652
vt 0.3955889940261841 0.9995005130185746
vt 0.6044110059738159 0.9995005130185746
vt 0.22853200137615204 0.9995005130185746
vt 0.3955889940261841 0.9995004530064762
vt 0.6044110059738159 0.9995004530064762
vt 0.7714679837226868 0.9995005130185746
vt 0.30788400769233704 0.7539819926023483
vt 0.22853200137615204 0.9995005130185746
vt 0.3955889940261841 0.9995004530064762
vt 0.6921160221099854 0.7539819926023483
vt 0.6044110059738159 0.9995004530064762
vt 0.9995009899139404 0.7539819926023483
vt 0.7714679837226868 0.9995005130185746
vt 0.6921160221099854 0.7539819926023483
vt 0.6044110059738159 0.9995005130185746
vt 0.30788400769233704 0.7539819926023483
vt 0.3955889940261841 0.9995005130185746
vt 0.0004995170165784657 0.7539819926023483
vt 0.35662999749183655 0.0004990100860595703
vt 0.6433699727058411 0.0004990100860595703
vt 0.8727620244026184 0.0004990100860595703
vt 0.6433699727058411 0.000500023365020752
vt 0.35662999749183655 0.000500023365020752
vt 0.12723800539970398 0.0004990100860595703
vt 0.35662999749183655 0.000500023365020752
vt 0.12723800539970398 0.0004990100860595703
vt 0.6433699727058411 0.000500023365020752
g Geoset0
s 1
usemtl mat_pottery01b
f 1/1/1 2/2/2 3/3/3
f 4/4/4 5/5/5 6/6/6
f 4/4/4 7/7/7 5/5/5
f 4/4/4 8/8/8 7/7/7
f 4/4/4 9/9/9 8/8/8
f 4/4/4 10/10/10 9/9/9
f 4/4/4 6/6/6 10/10/10
f 11/11/11 12/12/12 13/13/13
f 14/14/14 11/11/11 13/13/13
f 14/14/14 13/13/13 15/15/15
f 16/16/16 14/14/14 15/15/15
f 16/16/16 15/15/15 17/17/17
f 18/18/18 16/16/16 17/17/17
f 18/18/18 17/17/17 19/19/19
f 20/20/20 18/18/18 19/19/19
f 20/20/20 19/19/19 21/21/21
f 22/22/22 20/20/20 21/21/21
f 22/22/22 21/21/21 12/12/12
f 11/11/11 22/22/22 12/12/12
f 23/23/23 22/22/22 11/11/11
f 24/24/24 23/23/23 11/11/11
f 24/24/24 11/11/11 14/14/14
f 25/25/25 24/24/24 14/14/14
f 25/25/25 14/14/14 16/16/16
f 26/26/26 25/25/25 16/16/16
f 26/26/26 16/16/16 18/18/18
f 27/27/27 26/26/26 18/18/18
f 27/27/27 18/18/18 20/20/20
f 28/28/28 27/27/27 20/20/20
f 28/28/28 20/20/20 22/22/22
f 23/23/23 28/28/28 22/22/22
f 1/1/1 29/29/29 30/30/30
f 1/1/1 31/31/31 29/29/29
f 1/1/1 3/3/3 31/31/31
