# Exported using wow.export v0.1.64
o o_egg_05
mtllib o_egg_05.mtl
v -0.1411038488149643 0.1790778636932373 0.14132554829120636
v -0.1411038637161255 0.319611132144928 0.0007922975928522646
v -0.09994260966777802 0.319611132144928 0.10016432404518127
v 0.13996262848377228 0.03854459896683693 0.0007922730874270201
v -0.0005706039373762906 -0.019666168838739395 0.0007922914228402078
v 0.09880141913890839 0.03854459896683693 0.10016428679227829
v -0.0005705917137674987 0.03854459896683693 0.14132554829120636
v -0.09994260966777802 0.03854459896683693 0.10016430914402008
v -0.1993146389722824 0.1790778636932373 0.0007923001539893448
v -0.099942646920681 0.319611132144928 -0.09857970476150513
v -0.0005706039373762906 0.3778218626976013 0.0007922914228402078
v -0.000570628559216857 0.319611132144928 -0.1397409737110138
v 0.09880140423774719 0.319611132144928 -0.09857974201440811
v -0.14110390841960907 0.1790778636932373 -0.1397409439086914
v -0.0005706387455575168 0.1790778636932373 -0.19795174896717072
v -0.1411038488149643 0.03854459896683693 0.0007922975928522646
v -0.0999426320195198 0.03854459896683693 -0.09857970476150513
v -0.000570628559216857 0.03854459896683693 -0.1397409588098526
v 0.0988013967871666 0.03854459896683693 -0.09857974201440811
v 0.13996262848377228 0.1790778636932373 -0.13974100351333618
v 0.19817344844341278 0.1790778636932373 0.0007922653458081186
v 0.13996267318725586 0.1790778636932373 0.14132554829120636
v -0.0005705865914933383 0.1790778636932373 0.19953632354736328
v -0.0005705917137674987 0.319611132144928 0.14132554829120636
v 0.09880141913890839 0.319611132144928 0.10016430169343948
v 0.13996264338493347 0.319611132144928 0.0007922730874270201
v -0.0005706039373762906 0.39333492517471313 0.0007922914228402078
v 0.1065579354763031 0.330580472946167 0.107920803129673
v 0.15093201398849487 0.330580472946167 0.0007922715740278363
v 0.058220114558935165 0.18287011981010437 -0.031686026602983475
v -0.0005642552860081196 0.15758036077022552 -0.0153041398152709
v -0.02167365700006485 0.18880511820316315 -0.004262028262019157
v -0.009265581145882607 0.1293400079011917 -0.01717597246170044
v -0.05719747766852379 0.12459781765937805 0.01137931365519762
v 0.01177720446139574 0.10815206170082092 -0.04238342121243477
v -0.0486636757850647 0.06439220905303955 -0.004636542405933142
v 0.03191318362951279 0.07751470059156418 -0.03987540304660797
v 0.0006402951548807323 0.033370491117239 -0.01935470849275589
v 0.03958684206008911 0.04601616784930229 -0.014369376935064793
v -0.004584452137351036 0.19013598561286926 0.02464432455599308
v 0.01652495376765728 0.15891121327877045 0.013602209277451038
v -0.03283340483903885 0.12649521231651306 0.05259110406041145
v 0.015098492614924908 0.13123741745948792 0.02403581514954567
v -0.012277756817638874 0.06722584366798401 0.05691017210483551
v 0.048163123428821564 0.11098568886518478 0.01916329376399517
v 0.025652525946497917 0.035318370908498764 0.02295343391597271
v 0.056925415992736816 0.07946258038282394 0.0024327398277819157
v 0.058220114558935165 0.18287011981010437 -0.031686026602983475
v 0.01652495376765728 0.15891121327877045 0.013602209277451038
v -0.0005642552860081196 0.15758036077022552 -0.0153041398152709
v 0.015098492614924908 0.13123741745948792 0.02403581514954567
v -0.009265581145882607 0.1293400079011917 -0.01717597246170044
v 0.048163123428821564 0.11098568886518478 0.01916329376399517
v 0.01177720446139574 0.10815206170082092 -0.04238342121243477
v 0.056925415992736816 0.07946258038282394 0.0024327398277819157
v 0.03191318362951279 0.07751470059156418 -0.03987540304660797
v 0.03958684206008911 0.04601616784930229 -0.014369376935064793
v 0.0006402951548807323 0.033370491117239 -0.01935470849275589
v 0.025652525946497917 0.035318370908498764 0.02295343391597271
v -0.012277756817638874 0.06722584366798401 0.05691017210483551
v -0.0486636757850647 0.06439220905303955 -0.004636542405933142
v -0.03283340483903885 0.12649521231651306 0.05259110406041145
v -0.05719747766852379 0.12459781765937805 0.01137931365519762
v -0.004584452137351036 0.19013598561286926 0.02464432455599308
v -0.02167365700006485 0.18880511820316315 -0.004262028262019157
v -0.0005706039373762906 -0.03517917916178703 0.0007922914228402078
v -0.10769914090633392 0.027575241401791573 -0.10633620619773865
v -0.0005706304800696671 0.027575241401791573 -0.1507102996110916
v 0.10655789077281952 0.027575241401791573 -0.10633623600006104
v 0.15093199908733368 0.027575241401791573 0.0007922715740278363
v 0.21368643641471863 0.1790778636932373 0.0007922633667476475
v 0.15093202888965607 0.1790778636932373 0.15229488909244537
v -0.0005705907242372632 0.330580472946167 0.15229490399360657
v -0.0005706039373762906 0.39333492517471313 0.0007922914228402078
v -0.0005706039373762906 0.39333492517471313 0.0007922914228402078
v -0.10769912600517273 0.330580472946167 0.1079208180308342
v -0.1520732194185257 0.330580472946167 0.000792298058513552
v -0.10769914090633392 0.330580472946167 -0.10633621364831924
v -0.0005705853109247983 0.1790778636932373 0.21504934132099152
v -0.1520732194185257 0.1790778636932373 0.15229493379592896
v 0.1065579354763031 0.027575241401791573 0.107920803129673
v -0.0005705907242372632 0.027575241401791573 0.15229488909244537
v -0.10769911110401154 0.027575241401791573 0.1079208180308342
v -0.1520732194185257 0.027575241401791573 0.000792298058513552
v -0.21482764184474945 0.1790778636932373 0.0007923008524812758
v -0.15207324922084808 0.1790778636932373 -0.1507102996110916
v -0.0005706414231099188 0.1790778636932373 -0.21346476674079895
v 0.15093198418617249 0.1790778636932373 -0.1507103443145752
v -0.0005706039373762906 0.39333492517471313 0.0007922914228402078
v -0.0005706304800696671 0.330580472946167 -0.1507103145122528
v 0.10655791312456131 0.330580472946167 -0.10633625835180283
v -0.0005706039373762906 0.39333492517471313 0.0007922914228402078
v -0.0005706039373762906 0.39333492517471313 0.0007922914228402078
vn 0.7071067094802856 3.921446989352262e-8 -0.7071068286895752
vn 0.7486158013343811 -0.6630040407180786 -6.460788881668122e-8
vn 0.5293512344360352 -0.6630041003227234 -0.5293512940406799
vn -0.7486157417297363 0.6630041599273682 1.0218541035555972e-7
vn -3.96920851741811e-9 1 -3.0726587940677064e-9
vn -0.5293512940406799 0.6630041003227234 -0.5293512344360352
vn -6.9917447831358e-8 0.6630041599273682 -0.7486157417297363
vn 0.5293512344360352 0.6630041003227234 -0.5293512940406799
vn 1 4.7759929344692864e-8 -7.68230137282444e-8
vn 0.5293514132499695 -0.6630041003227234 0.5293511748313904
vn -4.827659605410872e-9 -1 -3.861118980097444e-9
vn 1.3079291250051028e-7 -0.6630040407180786 0.7486158013343811
vn -0.5293512344360352 -0.6630040407180786 0.5293513536453247
vn 0.70710688829422 4.87927316328296e-8 0.7071067094802856
vn 1.7705518473576376e-7 7.56699805037897e-8 1
vn 0.7486157417297363 0.6630041003227234 -5.763394383961895e-8
vn 0.5293512940406799 0.6630041003227234 0.5293512344360352
vn 1.14894994851511e-7 0.6630041003227234 0.7486157417297363
vn -0.5293512344360352 0.6630041599273682 0.5293512940406799
vn -0.7071066498756409 7.382548261603006e-8 0.70710688829422
vn -1 4.912469719897672e-8 1.2710763996892638e-7
vn -0.7071068286895752 5.740802322407035e-8 -0.7071067094802856
vn -9.804282541381326e-8 5.4735423304919095e-8 -1
vn -5.59535457966831e-8 -0.6630040407180786 -0.7486158013343811
vn -0.5293513536453247 -0.6630040407180786 -0.5293512344360352
vn -0.7486158013343811 -0.6630040407180786 8.25588557518131e-8
vn 4.827659605410872e-9 1 3.861118980097444e-9
vn 0.5293513536453247 0.6630040407180786 0.5293512344360352
vn 0.7486158013343811 0.6630041003227234 -7.761840237208162e-8
vn 0.8453846573829651 0.16675467789173126 -0.5074619650840759
vn 0.15624427795410156 -0.20975039899349213 -0.9651904106140137
vn -0.5824369788169861 0.72062087059021 -0.376128613948822
vn -0.01128928642719984 0.4582325518131256 -0.8887606263160706
vn -0.9798281192779541 0.16769050061702728 -0.10870465636253357
vn 0.10392339527606964 0.40735653042793274 -0.9073370695114136
vn -0.8455778360366821 -0.4608658254146576 -0.2694453001022339
vn 0.42489537596702576 -0.05900171026587486 -0.9033176302909851
vn -0.24290622770786285 -0.8387466073036194 -0.48734042048454285
vn 0.6702888607978821 -0.6452481746673584 -0.3665619194507599
vn 0.023900073021650314 0.7551986575126648 0.6550601720809937
vn 0.8919249773025513 -0.17691850662231445 0.41613665223121643
vn -0.36098867654800415 0.21316029131412506 0.9078820943832397
vn 0.7360522747039795 0.4821205139160156 0.4751703441143036
vn -0.15948857367038727 -0.3892613649368286 0.9072149395942688
vn 0.8068714737892151 0.492262601852417 0.3265516459941864
vn 0.33453822135925293 -0.8054563999176025 0.4892076551914215
vn 0.9993420839309692 -0.015470528975129128 0.032803867012262344
vn 0.8453846573829651 0.16675467789173126 -0.5074619650840759
vn 0.8919249773025513 -0.17691850662231445 0.41613665223121643
vn 0.15624427795410156 -0.20975039899349213 -0.9651904106140137
vn 0.7360522747039795 0.4821205139160156 0.4751703441143036
vn -0.01128928642719984 0.4582325518131256 -0.8887606263160706
vn 0.8068714737892151 0.492262601852417 0.3265516459941864
vn 0.10392339527606964 0.40735653042793274 -0.9073370695114136
vn 0.9993420839309692 -0.015470528975129128 0.032803867012262344
vn 0.42489537596702576 -0.05900171026587486 -0.9033176302909851
vn 0.6702888607978821 -0.6452481746673584 -0.3665619194507599
vn -0.24290622770786285 -0.8387466073036194 -0.48734042048454285
vn 0.33453822135925293 -0.8054563999176025 0.4892076551914215
vn -0.15948857367038727 -0.3892613649368286 0.9072149395942688
vn -0.8455778360366821 -0.4608658254146576 -0.2694453001022339
vn -0.36098867654800415 0.21316029131412506 0.9078820943832397
vn -0.9798281192779541 0.16769050061702728 -0.10870465636253357
vn 0.023900073021650314 0.7551986575126648 0.6550601720809937
vn -0.5824369788169861 0.72062087059021 -0.376128613948822
vn 3.96920851741811e-9 -1 3.0726587940677064e-9
vn -0.5293512940406799 -0.6630041003227234 -0.5293512344360352
vn -1.14894994851511e-7 -0.6630041003227234 -0.7486157417297363
vn 0.5293512344360352 -0.6630041599273682 -0.5293512940406799
vn 0.7486157417297363 -0.6630041599273682 -1.1368975094683265e-7
vn 1 -4.912469719897672e-8 -1.2710763996892638e-7
vn 0.7071068286895752 -4.527898411765818e-8 0.7071067094802856
vn 5.59535457966831e-8 0.6630041003227234 0.7486158013343811
vn 4.827659605410872e-9 1 3.861118980097444e-9
vn 4.827659605410872e-9 1 3.861118980097444e-9
vn -0.5293512344360352 0.6630041003227234 0.5293512940406799
vn -0.7486158013343811 0.6630041003227234 5.4726978504504586e-8
vn -0.5293514132499695 0.6630041003227234 -0.5293511748313904
vn 9.804283251924062e-8 -4.952669740987403e-8 1
vn -0.7071067094802856 -5.134349834179375e-8 0.7071068286895752
vn 0.5293512940406799 -0.6630041003227234 0.5293512344360352
vn 5.841310724008508e-8 -0.6630041599273682 0.7486157417297363
vn -0.5293512344360352 -0.6630041003227234 0.5293512940406799
vn -0.7486157417297363 -0.6630041003227234 5.475785513908704e-8
vn -1 -4.7759929344692864e-8 8.031725684531921e-8
vn -0.70710688829422 -4.87927316328296e-8 -0.7071067094802856
vn -1.7705518473576376e-7 -7.56699805037897e-8 -1
vn 0.7071066498756409 -7.382548261603006e-8 -0.70710688829422
vn 4.827659605410872e-9 1 3.861118980097444e-9
vn -1.30792926711365e-7 0.6630041003227234 -0.7486158013343811
vn 0.5293512344360352 0.6630040407180786 -0.5293513536453247
vn 4.827659605410872e-9 1 3.861118980097444e-9
vn 4.827659605410872e-9 1 3.861118980097444e-9
vt 0.14679986238479614 0.5
vt 0.5000000596046448 0.8532001972198486
vt 0.25024980306625366 0.8532001972198486
vt 0.4999999403953552 0.14679980278015137
vt 0.4999999701976776 0.0004995465278625488
vt 0.2502497434616089 0.14679980278015137
vt 0.14679983258247375 0.14679980278015137
vt 0.25024980306625366 0.14679980278015137
vt 0.5000000596046448 0.5
vt 0.7497502565383911 0.8532001972198486
vt 0.4999999701976776 0.9995005130767822
vt 0.8532001972198486 0.8532001972198486
vt 0.7497501969337463 0.8532001972198486
vt 0.8532001972198486 0.5
vt 0.9995004534721375 0.5
vt 0.5000000596046448 0.14679980278015137
vt 0.7497501969337463 0.14679980278015137
vt 0.8532001376152039 0.14679980278015137
vt 0.7497501373291016 0.14679980278015137
vt 0.8532001376152039 0.5
vt 0.4999999403953552 0.5
vt 0.14679977297782898 0.5
vt 0.0004995167255401611 0.5
vt 0.14679980278015137 0.8532001972198486
vt 0.2502497434616089 0.8532001972198486
vt 0.4999999403953552 0.8532001972198486
vt 0.8113627433776855 0.8358529806137085
vt 0.7431007027626038 0.7849395871162415
vt 0.6710208058357239 0.7849395871162415
vt 1.1413100957870483 0.5903186798095703
vt 1.0925660133361816 0.6190457940101624
vt 1.0998481512069702 0.6569132208824158
vt 1.0706394910812378 0.6061328053474426
vt 1.0366573333740234 0.6451762318611145
vt 1.0741945505142212 0.5695772767066956
vt 1.0061126947402954 0.5953657031059265
vt 1.0627270936965942 0.5376337170600891
vt 1.0131405591964722 0.5376337170600891
vt 1.0379338264465332 0.5217159390449524
vt 1.0998481512069702 0.6569132208824158
vt 1.0925660133361816 0.6190457940101624
vt 1.0366573333740234 0.6451762318611145
vt 1.0706394910812378 0.6061328053474426
vt 1.0061126947402954 0.5953657031059265
vt 1.0741945505142212 0.5695773363113403
vt 1.0131405591964722 0.5376337170600891
vt 1.0627270936965942 0.5376337170600891
vt 0.08077474683523178 0.6625479459762573
vt 0.04276687279343605 0.6283963322639465
vt 0.11878261715173721 0.6283963322639465
vt 0.026586931198835373 0.6005712151527405
vt 0.1349625587463379 0.6005712151527405
vt -0.00015071872621774673 0.5241588950157166
vt 0.16170012950897217 0.5241588950157166
vt 0.02514532580971718 0.49393296241760254
vt 0.13640405237674713 0.49393296241760254
vt 0.07224182039499283 0.4747837781906128
vt 0.13640405237674713 0.4948020577430725
vt 0.025145310908555984 0.4948020577430725
vt -0.0001507345587015152 0.5236609578132629
vt 0.16170012950897217 0.5236609578132629
vt 0.02658691629767418 0.5997828245162964
vt 0.1349625587463379 0.5997828245162964
vt 0.042766887694597244 0.6277601718902588
vt 0.118782639503479 0.6277601718902588
vt 0.8120425343513489 0.4644356966018677
vt 0.88898104429245 0.5192506909370422
vt 0.8162289261817932 0.5192506909370422
vt 0.743772029876709 0.5192506909370422
vt 0.6710208058357239 0.5192506909370422
vt 0.6290685534477234 0.6520951390266418
vt 0.719889223575592 0.6520951390266418
vt 0.8161466121673584 0.7849395871162415
vt 0.812013566493988 0.8358529806137085
vt 0.8126624822616577 0.8358529806137085
vt 0.8888970017433167 0.7849395871162415
vt 0.9616533517837524 0.7849395871162415
vt 0.88898104429245 0.7849395871162415
vt 0.811927080154419 0.6520951390266418
vt 0.903592586517334 0.6520951390266418
vt 0.7431007027626038 0.5192506909370422
vt 0.8161466121673584 0.5192506909370422
vt 0.8888970017433167 0.5192506909370422
vt 0.9616533517837524 0.5192506909370422
vt 0.9952656030654907 0.6135104894638062
vt 0.9036984443664551 0.6520951390266418
vt 0.8120307922363281 0.6520951390266418
vt 0.7207351326942444 0.6520951390266418
vt 0.8120142817497253 0.8358529806137085
vt 0.8162289261817932 0.7849395871162415
vt 0.743772029876709 0.7849395871162415
vt 0.8113687634468079 0.8358529806137085
vt 0.8107205629348755 0.8358529806137085
g Geoset0
s 1
usemtl mat_hellfirecrystalenviro_02
f 1/1/1 2/2/2 3/3/3
f 4/4/4 5/5/5 6/6/6
f 6/6/6 5/5/5 7/7/7
f 7/7/7 5/5/5 8/8/8
f 8/8/8 1/1/1 7/7/7
f 8/8/8 9/9/9 1/1/1
f 9/9/9 2/2/2 1/1/1
f 9/9/9 10/10/10 2/2/2
f 10/10/10 11/11/11 2/2/2
f 12/12/12 11/11/11 10/10/10
f 13/13/13 11/11/11 12/12/12
f 14/14/14 10/10/10 9/9/9
f 14/14/14 12/12/12 10/10/10
f 15/15/15 12/12/12 14/14/14
f 15/15/15 13/13/13 12/12/12
f 16/16/16 9/9/9 8/8/8
f 16/16/16 14/14/14 9/9/9
f 17/17/17 14/14/14 16/16/16
f 17/17/17 15/15/15 14/14/14
f 8/8/8 5/5/5 16/16/16
f 16/16/16 5/5/5 17/17/17
f 17/17/17 5/5/5 18/18/18
f 18/18/18 5/5/5 19/19/19
f 19/19/19 5/5/5 4/4/4
f 18/18/18 15/15/15 17/17/17
f 18/18/18 20/20/20 15/15/15
f 19/19/19 20/20/20 18/18/18
f 19/19/19 21/21/21 20/20/20
f 4/4/4 21/21/21 19/19/19
f 4/4/4 22/22/22 21/21/21
f 6/6/6 22/22/22 4/4/4
f 6/6/6 23/23/23 22/22/22
f 7/7/7 23/23/23 6/6/6
f 7/7/7 1/1/1 23/23/23
f 3/3/3 11/11/11 24/24/24
f 2/2/2 11/11/11 3/3/3
f 24/24/24 11/11/11 25/25/25
f 25/25/25 11/11/11 26/26/26
f 26/26/26 11/11/11 13/13/13
f 20/20/20 13/13/13 15/15/15
f 20/20/20 26/26/26 13/13/13
f 21/21/21 26/26/26 20/20/20
f 21/21/21 25/25/25 26/26/26
f 22/22/22 25/25/25 21/21/21
f 22/22/22 24/24/24 25/25/25
f 23/23/23 24/24/24 22/22/22
f 23/23/23 3/3/3 24/24/24
f 1/1/1 3/3/3 23/23/23
g Geoset1
s 1
usemtl mat_o_eggs_01
f 27/27/27 28/28/28 29/29/29
f 30/30/30 31/31/31 32/32/32
f 32/32/32 31/31/31 33/33/33
f 33/33/33 34/34/34 32/32/32
f 34/34/34 33/33/33 35/35/35
f 35/35/35 36/36/36 34/34/34
f 36/36/36 35/35/35 37/37/37
f 37/37/37 38/38/38 36/36/36
f 37/37/37 39/39/39 38/38/38
f 30/30/30 40/40/40 41/41/41
f 41/41/41 40/40/40 42/42/42
f 42/42/42 43/43/43 41/41/41
f 43/43/43 42/42/42 44/44/44
f 44/44/44 45/45/45 43/43/43
f 45/45/45 44/44/44 46/46/46
f 46/46/46 47/47/47 45/45/45
f 46/46/46 39/39/39 47/47/47
f 48/48/48 49/49/49 50/50/50
f 50/50/50 49/49/49 51/51/51
f 51/51/51 52/52/52 50/50/50
f 52/52/52 51/51/51 53/53/53
f 53/53/53 54/54/54 52/52/52
f 54/54/54 53/53/53 55/55/55
f 55/55/55 56/56/56 54/54/54
f 55/55/55 57/57/57 56/56/56
f 58/58/58 57/57/57 59/59/59
f 58/58/58 59/59/59 60/60/60
f 60/60/60 61/61/61 58/58/58
f 61/61/61 60/60/60 62/62/62
f 62/62/62 63/63/63 61/61/61
f 63/63/63 62/62/62 64/64/64
f 64/64/64 65/65/65 63/63/63
f 48/48/48 65/65/65 64/64/64
f 66/66/66 67/67/67 68/68/68
f 66/66/66 68/68/68 69/69/69
f 66/66/66 69/69/69 70/70/70
f 71/71/71 70/70/70 69/69/69
f 72/72/72 70/70/70 71/71/71
f 28/28/28 72/72/72 71/71/71
f 73/73/73 72/72/72 28/28/28
f 74/74/74 73/73/73 28/28/28
f 75/75/75 76/76/76 73/73/73
f 75/75/75 77/77/77 76/76/76
f 75/75/75 78/78/78 77/77/77
f 73/73/73 79/79/79 72/72/72
f 76/76/76 79/79/79 73/73/73
f 76/76/76 80/80/80 79/79/79
f 77/77/77 80/80/80 76/76/76
f 72/72/72 81/81/81 70/70/70
f 79/79/79 81/81/81 72/72/72
f 79/79/79 82/82/82 81/81/81
f 80/80/80 82/82/82 79/79/79
f 66/66/66 70/70/70 81/81/81
f 66/66/66 81/81/81 82/82/82
f 66/66/66 82/82/82 83/83/83
f 66/66/66 84/84/84 67/67/67
f 66/66/66 83/83/83 84/84/84
f 80/80/80 83/83/83 82/82/82
f 85/85/85 83/83/83 80/80/80
f 85/85/85 84/84/84 83/83/83
f 86/86/86 84/84/84 85/85/85
f 86/86/86 67/67/67 84/84/84
f 87/87/87 67/67/67 86/86/86
f 87/87/87 68/68/68 67/67/67
f 88/88/88 68/68/68 87/87/87
f 88/88/88 69/69/69 68/68/68
f 71/71/71 69/69/69 88/88/88
f 89/89/89 90/90/90 78/78/78
f 77/77/77 85/85/85 80/80/80
f 78/78/78 85/85/85 77/77/77
f 78/78/78 86/86/86 85/85/85
f 90/90/90 86/86/86 78/78/78
f 90/90/90 87/87/87 86/86/86
f 91/91/91 87/87/87 90/90/90
f 91/91/91 88/88/88 87/87/87
f 29/29/29 88/88/88 91/91/91
f 29/29/29 71/71/71 88/88/88
f 28/28/28 71/71/71 29/29/29
f 92/92/92 91/91/91 90/90/90
f 93/93/93 29/29/29 91/91/91
