# Exported using wow.export v0.1.64
o o_hanger_extension
mtllib o_hanger_extension.mtl
v 0.0353696309030056 -7.750373840332031 0.09936178475618362
v -0.04900398105382919 -7.750372886657715 -0.09479597210884094
v -0.008480807766318321 -0.007068424019962549 -0.09130065143108368
v -0.0723138153553009 -7.896917819976807 -0.12848249077796936
v -0.06900791823863983 -7.683009624481201 -0.12889094650745392
v 0.03357629105448723 -7.689796447753906 -0.02292887680232525
v -0.014741475693881512 -7.83782434463501 -0.0021843856666237116
v 0.04209703579545021 -7.914802551269531 -0.027416398748755455
v 0.04736468568444252 -7.904436111450195 0.1339906007051468
v 0.04715730622410774 -7.684090614318848 0.12599995732307434
v -0.014275033958256245 -7.743557453155518 -0.001469604903832078
v -0.07127261161804199 -7.680237770080566 0.025043131783604622
v -0.08353296667337418 -7.9148077964782715 0.030170831829309464
v -0.04900398105382919 -7.750372886657715 -0.09479597210884094
v -0.03523882105946541 -0.007068421225994825 0.005075874738395214
v -0.008480807766318321 -0.007068424019962549 -0.09130065143108368
v -0.025371447205543518 -7.750372409820557 0.01034597773104906
v -0.007570594549179077 -0.007068418897688389 0.10119489580392838
vn 0.4827691316604614 -0.047069139778614044 0.8744817972183228
vn -0.31125375628471375 -0.029411083087325096 -0.9498715996742249
vn 0.13244187831878662 0.03742275759577751 -0.9904840588569641
vn -0.1396077573299408 -0.5246080160140991 -0.839819073677063
vn -0.11097273975610733 0.5583652853965759 -0.8221394419670105
vn 0.42562317848205566 0.7503751516342163 -0.505748987197876
vn -0.028072474524378777 -0.9994738698005676 0.016244297847151756
vn 0.4008621871471405 -0.7601127624511719 -0.5114079713821411
vn 0.16820482909679413 -0.5541367530822754 0.8152543306350708
vn 0.18880750238895416 0.590054988861084 0.7849757075309753
vn 0.007775411941111088 0.9999468922615051 0.006766739301383495
vn -0.4407876133918762 0.7656118869781494 0.4685560166835785
vn -0.4715915024280548 -0.7457916140556335 0.47052767872810364
vn -0.31125375628471375 -0.029411083087325096 -0.9498715996742249
vn -0.9999752640724182 0.00211848015896976 0.006703178398311138
vn 0.13244187831878662 0.03742275759577751 -0.9904840588569641
vn -0.9175984859466553 -0.0029427914414554834 0.39749768376350403
vn 0.13989156484603882 0.016124514862895012 0.9900355339050293
vt 0.253360390663147 -1.8876590728759766
vt 0.37080106139183044 -1.8876590728759766
vt 0.37080106139183044 0.9995004534721375
vt 0.252427875995636 0.4105614423751831
vt 0.3729104995727539 0.4107809066772461
vt 0.3729104697704315 0.5203636288642883
vt 0.2669294774532318 0.5202751755714417
vt 0.25241369009017944 0.5202942490577698
vt 0.25239476561546326 0.6174638867378235
vt 0.3729011118412018 0.6177960634231567
vt 0.3573538661003113 0.5203187465667725
vt 0.37291398644447327 0.5203620791435242
vt 0.25241702795028687 0.5202919840812683
vt 0.3732154369354248 -1.8876590728759766
vt 0.3135843276977539 0.9995003938674927
vt 0.3732154369354248 0.9995004534721375
vt 0.3135843276977539 -1.8876590728759766
vt 0.253360390663147 0.9995003938674927
g Geoset0
s 1
usemtl mat_o_lamppost
f 1/1/1 2/2/2 3/3/3
f 4/4/4 5/5/5 6/6/6
f 7/7/7 8/8/8 9/9/9
f 8/8/8 10/10/10 9/9/9
f 8/8/8 6/6/6 10/10/10
f 11/11/11 10/10/10 6/6/6
f 11/11/11 6/6/6 5/5/5
f 11/11/11 5/5/5 12/12/12
f 4/4/4 12/12/12 5/5/5
f 13/13/13 12/12/12 4/4/4
f 4/4/4 6/6/6 8/8/8
f 7/7/7 4/4/4 8/8/8
f 7/7/7 13/13/13 4/4/4
f 7/7/7 9/9/9 13/13/13
f 9/9/9 12/12/12 13/13/13
f 9/9/9 10/10/10 12/12/12
f 11/11/11 12/12/12 10/10/10
f 14/14/14 15/15/15 16/16/16
f 14/14/14 17/17/17 15/15/15
f 17/17/17 18/18/18 15/15/15
f 17/17/17 1/1/1 18/18/18
f 1/1/1 3/3/3 18/18/18
