# Exported using wow.export v0.1.64
o o_surfboard03
mtllib o_surfboard03.mtl
v 0.04332505166530609 2.860995292663574 -0.1264151632785797
v -0.08277802914381027 2.8761332035064697 -0.2626672685146332
v -0.023323416709899902 2.865689992904663 0.01027135830372572
v -0.10162977129220963 2.6521475315093994 0.018435105681419373
v -0.11331932991743088 2.5186245441436768 0.031143473461270332
v -0.09667020291090012 2.657088279724121 0.07490718364715576
v -0.10658930242061615 2.6472067832946777 -0.038036979734897614
v -0.08994019776582718 2.785670518875122 0.005726727191358805
v 0.45751380920410156 2.850255012512207 -0.04800264164805412
v 0.3686832785606384 2.710833787918091 0.019262541085481644
v 0.4437859356403351 2.6859145164489746 -0.032419104129076004
v 0.3285304307937622 2.792769193649292 -0.03164561092853546
v 0.3605068624019623 2.702688694000244 -0.07383892685174942
v 0.3605068624019623 2.702688694000244 -0.07383892685174942
v 0.4437859356403351 2.6859145164489746 -0.032419104129076004
v 0.19908307492733002 2.5308473110198975 0.0026380422059446573
v 0.1937248259782791 2.6347877979278564 -0.06793460994958878
v 0.3285304307937622 2.792769193649292 -0.03164561092853546
v 0.19908304512500763 2.7644550800323486 -0.01779998652637005
v 0.3686832785606384 2.710833787918091 0.019262541085481644
v 0.20444129407405853 2.645463705062866 0.05408939719200134
v -0.09667020291090012 2.657088279724121 0.07490718364715576
v -0.11331932991743088 2.5186245441436768 0.031143473461270332
v -0.10658930242061615 2.6472067832946777 -0.038036979734897614
v -0.08994019776582718 2.785670518875122 0.005726727191358805
v -0.023323416709899902 2.865689992904663 0.01027135830372572
v -0.08277802914381027 2.8761332035064697 -0.2626672685146332
v -0.11852158606052399 2.316481113433838 -0.27148568630218506
v -0.08272449672222137 2.8719406127929688 -0.307832270860672
v -0.11884643137454987 2.3161115646362305 0.29274943470954895
v -0.08338097482919693 2.8594393730163574 0.32837504148483276
v -0.08335386961698532 2.8814194202423096 0.26995912194252014
v -0.0589546374976635 2.316296100616455 0.010631962679326534
v -0.0588773638010025 2.293220281600952 0.010008865967392921
v -0.11852133274078369 2.2994227409362793 -0.2934841513633728
v -0.04711351543664932 1.727953553199768 0.01712004467844963
v -0.10673820972442627 1.7186243534088135 -0.3036426603794098
v -0.047106754034757614 1.7013237476348877 0.01954917050898075
v -0.11869197338819504 2.287017822265625 0.31350186467170715
v -0.1069474145770073 1.7372825145721436 0.33788275718688965
v -0.023238470777869225 -0.14051717519760132 0.04084400832653046
v -0.050946690142154694 0.6256354451179504 0.04142412170767784
v -0.08280698955059052 0.13787411153316498 -0.2928890287876129
v -0.08316247165203094 0.1405155509710312 0.38268759846687317
v -0.10689407587051392 1.7089382410049438 0.3598327338695526
v -0.023341631516814232 1.136224627494812 0.03541146218776703
v -0.08335139602422714 1.1446644067764282 0.39402249455451965
v -0.023310471326112747 1.0964702367782593 0.04515530914068222
v -0.08334404230117798 1.104397177696228 0.4301702380180359
v -0.050990212708711624 0.6637721061706543 0.04706086963415146
v -0.11091534048318863 0.6684119701385498 0.449562132358551
v -0.11068893224000931 0.6314437389373779 0.4895378649234772
v -0.10677815228700638 1.693709373474121 -0.32073453068733215
v -0.0827905535697937 1.1277852058410645 -0.3059588372707367
v -0.08273563534021378 1.0885430574417114 -0.3398597836494446
v -0.1105237752199173 0.6591323614120483 -0.375354528427124
v -0.11066310852766037 0.6198272705078125 -0.40668970346450806
v -0.10689407587051392 1.7089382410049438 0.3598327338695526
v 0.09605572372674942 1.7250094413757324 0.18931852281093597
v 0.05051098391413689 1.7413984537124634 0.16772842407226562
v -0.1069474145770073 1.7372825145721436 0.33788275718688965
v 0.07448242604732513 2.311343193054199 0.1594253033399582
v -0.11869197338819504 2.287017822265625 0.31350186467170715
v 0.050834257155656815 2.3277599811553955 0.1641407459974289
v -0.11884643137454987 2.3161115646362305 0.29274943470954895
v 0.09743392467498779 2.8619346618652344 0.19041398167610168
v -0.08338097482919693 2.8594393730163574 0.32837504148483276
v 0.05010812357068062 2.8791744709014893 0.14299561083316803
v -0.0833539143204689 2.8814194202423096 0.26995912194252014
v -0.08316247165203094 0.1405155509710312 0.38268759846687317
v 0.06025504320859909 0.1398344486951828 0.1900346428155899
v 0.14589890837669373 0.6243391036987305 0.2536591589450836
v -0.11068893224000931 0.6314437389373779 0.4895378649234772
v 0.10823788493871689 0.6650136113166809 0.21549826860427856
v -0.11091534048318863 0.6684119701385498 0.449562132358551
v 0.11001487821340561 1.1161830425262451 0.21486687660217285
v -0.08334404230117798 1.104397177696228 0.4301702380180359
v 0.07752293348312378 1.1535251140594482 0.20245343446731567
v -0.08335139602422714 1.1446644067764282 0.39402249455451965
v 0.16062191128730774 0.6115343570709229 -0.2085033655166626
v -0.11066310852766037 0.6198272705078125 -0.40668970346450806
v -0.1105237752199173 0.6591323614120483 -0.375354528427124
v -0.08280698955059052 0.13787411153316498 -0.2928890287876129
v 0.10026126354932785 0.13602128624916077 -0.11427018791437149
v -0.023238470777869225 -0.14051717519760132 0.04084400832653046
v 0.11402390897274017 0.6506589651107788 -0.13974423706531525
v 0.07601000368595123 1.1436986923217773 -0.13388200104236603
v 0.1241777092218399 1.085902452468872 -0.15332742035388947
v -0.08273563534021378 1.0885430574417114 -0.3398597836494446
v -0.0827905535697937 1.1277852058410645 -0.3059588372707367
v 0.03608008474111557 1.7366468906402588 -0.14418314397335052
v 0.08535275608301163 1.706403136253357 -0.15207993984222412
v -0.10677815228700638 1.693709373474121 -0.32073453068733215
v -0.10673820972442627 1.7186243534088135 -0.3036426603794098
v 0.09180640429258347 2.2948200702667236 -0.13976414501667023
v 0.03432090952992439 2.31947660446167 -0.1339714080095291
v -0.08277807384729385 2.8761329650878906 -0.26266729831695557
v 0.09559852629899979 2.8428432941436768 -0.1566106528043747
v -0.08272449672222137 2.8719406127929688 -0.307832270860672
v -0.11852158606052399 2.316481113433838 -0.27148568630218506
v -0.11852133274078369 2.2994227409362793 -0.2934841513633728
v -0.08335386961698532 2.8814194202423096 0.26995912194252014
v -0.07286683470010757 2.8468925952911377 0.15665477514266968
v -0.10708638280630112 2.4751744270324707 0.15665479004383087
v -0.07390474528074265 2.8468925952911377 0.010553996078670025
v -0.1159602701663971 2.4751744270324707 -0.1355467587709427
v -0.0731586441397667 2.8468925952911377 -0.1355467587709427
v -0.11557284742593765 2.47517466545105 0.010553997941315174
vn 0.20073263347148895 0.9778891801834106 -0.05864483863115311
vn -0.9699246287345886 0.222296342253685 0.09914892911911011
vn -0.6830675005912781 0.7290975451469421 -0.042843129485845566
vn -0.9924038648605347 0.09439143538475037 0.07889778912067413
vn -0.9924038648605347 0.09439143538475037 0.07889778912067413
vn -0.9924038052558899 0.09439145773649216 0.07889800518751144
vn -0.9924038648605347 0.09439141303300858 0.07889756560325623
vn -0.9924038648605347 0.09439144283533096 0.07889778912067413
vn 0.5638473629951477 0.8169679045677185 -0.12099414318799973
vn 0.298807829618454 0.2534961700439453 0.9200291037559509
vn 0.9927415251731873 -0.09044373035430908 -0.07927263528108597
vn -0.41129785776138306 0.9104608297348022 -0.043533843010663986
vn 0.13127849996089935 0.08660408109426498 -0.9875553846359253
vn 0.08901700377464294 -0.2344895899295807 -0.9680343866348267
vn 0.5181206464767456 -0.8545321226119995 0.03641309216618538
vn 0.24396026134490967 -0.9668923616409302 0.07485043257474899
vn -0.01461389847099781 -0.16243508458137512 -0.986611008644104
vn -0.22197461128234863 0.9727751016616821 -0.06660261005163193
vn -0.0989968329668045 0.9916428923606873 -0.08272834867238998
vn 0.2506559193134308 -0.11563768982887268 0.9611449241638184
vn 0.16438481211662292 -0.006399503443390131 0.9863755106925964
vn 0.09034055471420288 0.05903438851237297 0.9941596984863281
vn 0.00668228417634964 -0.9950801134109497 0.09884798526763916
vn -0.09232279658317566 -0.09212609380483627 -0.9914581775665283
vn 0.04010993614792824 0.9942892789840698 -0.09889402985572815
vn -0.6830675005912781 0.7290975451469421 -0.042843129485845566
vn -0.9699246287345886 0.222296342253685 0.09914892911911011
vn -0.7903784513473511 0.3406866490840912 -0.5091508030891418
vn -0.32332178950309753 0.530063271522522 -0.7838979363441467
vn -0.7262542247772217 0.24616476893424988 0.641839325428009
vn -0.3544437289237976 0.44802936911582947 0.8207553625106812
vn -0.9626203775405884 0.24368174374103546 -0.1182423084974289
vn -0.999424397945404 0.03381476551294327 -0.002725148107856512
vn -0.9999069571495056 -0.013512328267097473 0.0018730568699538708
vn -0.5042612552642822 0.36402636766433716 -0.7830743193626404
vn -0.9999480843544006 -0.009241356514394283 0.004297793842852116
vn -0.6511945724487305 0.3038109838962555 -0.6954455375671387
vn -0.9997603297233582 -0.02162826992571354 -0.0033876935485750437
vn -0.5128867626190186 0.2548176348209381 0.8197652697563171
vn -0.6281363368034363 0.2937827408313751 0.720511257648468
vn -0.14181557297706604 -0.9886893033981323 0.04880380257964134
vn -0.9998353719711304 -0.01735844276845455 0.005281625781208277
vn -0.455538272857666 -0.502180278301239 -0.7350509166717529
vn -0.3931948244571686 -0.525549590587616 0.7544504404067993
vn -0.4862338900566101 0.32157352566719055 0.8125066757202148
vn -0.9997714757919312 -0.016082488000392914 0.014085094444453716
vn -0.6184037327766418 0.33954688906669617 0.7087204456329346
vn -0.9995498061180115 0.027352556586265564 -0.012328771874308586
vn -0.3804815709590912 0.33761972188949585 0.8609568476676941
vn -0.9993790984153748 0.03362468257546425 -0.010527516715228558
vn -0.6592445969581604 0.41494420170783997 0.6270708441734314
vn -0.4149928092956543 0.252070814371109 0.874208927154541
vn -0.47655242681503296 0.2045152634382248 -0.8550270795822144
vn -0.6558524966239929 0.35703322291374207 -0.6651201248168945
vn -0.4235268235206604 0.3332699239253998 -0.8423515558242798
vn -0.6511262059211731 0.41559380292892456 -0.6350720524787903
vn -0.4725499749183655 0.17670945823192596 -0.863406240940094
vn -0.4862338900566101 0.32157352566719055 0.8125066757202148
vn 0.800323486328125 0.5121456980705261 0.31175169348716736
vn 0.7363280057907104 0.6208564639091492 0.2689950168132782
vn -0.6281363368034363 0.2937827408313751 0.720511257648468
vn 0.8602220416069031 0.3925513029098511 0.325455904006958
vn -0.5128867626190186 0.2548176348209381 0.8197652697563171
vn 0.8179001212120056 0.3546069264411926 0.4530930817127228
vn -0.7262542247772217 0.24616476893424988 0.641839325428009
vn 0.8048384189605713 0.4740964472293854 0.35702618956565857
vn -0.3544437289237976 0.44802936911582947 0.8207553625106812
vn 0.17823132872581482 0.9839844703674316 -0.002856143983080983
vn 0.333761990070343 0.8933753967285156 0.30080446600914
vn -0.3931948244571686 -0.525549590587616 0.7544504404067993
vn 0.8794417977333069 -0.3288195729255676 0.3441798985004425
vn 0.8738583326339722 0.31092730164527893 0.37375903129577637
vn -0.4149928092956543 0.252070814371109 0.874208927154541
vn 0.8588300347328186 0.43604081869125366 0.2688482105731964
vn -0.6592445969581604 0.41494420170783997 0.6270708441734314
vn 0.885931134223938 0.33733075857162476 0.31832993030548096
vn -0.3804815709590912 0.33761972188949585 0.8609568476676941
vn 0.8801308274269104 0.36846455931663513 0.2993386387825012
vn -0.6184037327766418 0.33954688906669617 0.7087204456329346
vn 0.8517277836799622 0.345787912607193 -0.39368829131126404
vn -0.4725499749183655 0.17670945823192596 -0.863406240940094
vn -0.6511262059211731 0.41559380292892456 -0.6350720524787903
vn -0.455538272857666 -0.502180278301239 -0.7350509166717529
vn 0.8848462104797363 -0.3601653277873993 -0.2955133616924286
vn -0.14181557297706604 -0.9886893033981323 0.04880380257964134
vn 0.8215340971946716 0.5185779929161072 -0.23697808384895325
vn 0.8620036244392395 0.3768915832042694 -0.33897268772125244
vn 0.8887609839439392 0.29698657989501953 -0.34914591908454895
vn -0.4235268235206604 0.3332699239253998 -0.8423515558242798
vn -0.6558524966239929 0.35703322291374207 -0.6651201248168945
vn 0.8010559678077698 0.480839341878891 -0.35651490092277527
vn 0.8397078514099121 0.40527960658073425 -0.36144042015075684
vn -0.47655242681503296 0.2045152634382248 -0.8550270795822144
vn -0.6511945724487305 0.3038109838962555 -0.6954455375671387
vn 0.8459440469741821 0.42337566614151 -0.32424023747444153
vn 0.7504420876502991 0.544609010219574 -0.37448328733444214
vn 0.2340967357158661 0.9677153825759888 -0.09341098368167877
vn 0.8340527415275574 0.4313575327396393 -0.34392839670181274
vn -0.32332178950309753 0.530063271522522 -0.7838979363441467
vn -0.7903784513473511 0.3406866490840912 -0.5091508030891418
vn -0.5042612552642822 0.36402636766433716 -0.7830743193626404
vn -0.9626203775405884 0.24368174374103546 -0.1182423084974289
vn 0.9957644939422607 -0.09166783094406128 -0.0070740035735070705
vn 0.9932506680488586 -0.10661552101373672 -0.04567575454711914
vn 0.9945652484893799 -0.10387865453958511 -0.007014200557023287
vn 0.9934325218200684 -0.1143890991806984 -0.0026342261116951704
vn 0.9936908483505249 -0.11210694164037704 0.003247127402573824
vn 0.9932240843772888 -0.1124950721859932 -0.029168756678700447
vt 0.7881378531455994 0.9963465332984924
vt 0.7422618865966797 0.996421217918396
vt 0.835671067237854 0.996378481388092
vt 0.24684959650039673 0.9987697601318359
vt 0.19542637467384338 0.9948832988739014
vt 0.24616755545139313 0.9824432134628296
vt 0.24617403745651245 0.9824324250221252
vt 0.3036957383155823 0.9947431087493896
vt 0.24617205560207367 0.8512905836105347
vt 0.24450354278087616 0.8979173898696899
vt 0.19870051741600037 0.8863298892974854
vt 0.2970828115940094 0.8822532892227173
vt 0.2442876100540161 0.8981008529663086
vt 0.2442876100540161 0.8981008529663086
vt 0.19870051741600037 0.8863298892974854
vt 0.19505801796913147 0.9303346276283264
vt 0.24422886967658997 0.9363663196563721
vt 0.2970828115940094 0.8822532892227173
vt 0.30307772755622864 0.9356299638748169
vt 0.24450354278087616 0.8979173898696899
vt 0.24422891438007355 0.9363663196563721
vt 0.24616755545139313 0.982284665107727
vt 0.19542637467384338 0.9948832988739014
vt 0.24617403745651245 0.9822738766670227
vt 0.3036957383155823 0.9947431087493896
vt 0.6854366660118103 0.996378481388092
vt 0.5060324668884277 0.996421217918396
vt 0.5060027837753296 0.8208585381507874
vt 0.5059164762496948 0.9701623320579529
vt 0.506027102470398 0.8210611343383789
vt 0.5059288740158081 0.9670191407203674
vt 0.5060784816741943 0.9964765906333923
vt 0.6853869557380676 0.82096266746521
vt 0.6853704452514648 0.8130453824996948
vt 0.5059460401535034 0.8131878972053528
vt 0.6854404807090759 0.6239144206047058
vt 0.5059099197387695 0.6238885521888733
vt 0.685488760471344 0.6033403277397156
vt 0.5059744119644165 0.8128970861434937
vt 0.5059213638305664 0.6239400506019592
vt 0.6856806874275208 0.0004994869232177734
vt 0.6858126521110535 0.2713280916213989
vt 0.505730390548706 0.10873663425445557
vt 0.5056495666503906 0.10758674144744873
vt 0.5058655738830566 0.6038727164268494
vt 0.6857401132583618 0.46252381801605225
vt 0.5057883262634277 0.4624726176261902
vt 0.6859428882598877 0.4441145658493042
vt 0.505696177482605 0.443936824798584
vt 0.6859382390975952 0.2841861844062805
vt 0.5056519508361816 0.2847302556037903
vt 0.5055500268936157 0.27148836851119995
vt 0.5058656930923462 0.6028012633323669
vt 0.5058929920196533 0.46236664056777954
vt 0.5058053731918335 0.4432260990142822
vt 0.5057089328765869 0.2836211323738098
vt 0.5056278705596924 0.27116572856903076
vt 0.9540301561355591 0.6038727164268494
vt 0.89387047290802 0.603496253490448
vt 0.8868257999420166 0.6239317059516907
vt 0.946541965007782 0.6239400506019592
vt 0.8850272297859192 0.8130756616592407
vt 0.9394404292106628 0.8128970861434937
vt 0.8868646025657654 0.8211811780929565
vt 0.932366669178009 0.8210611343383789
vt 0.8967095613479614 0.967488169670105
vt 0.9455331563949585 0.9670191407203674
vt 0.8807961344718933 0.996458888053894
vt 0.9254871606826782 0.9964765906333923
vt 0.9829729795455933 0.10758674144744873
vt 0.9014652371406555 0.10801064968109131
vt 0.91322922706604 0.271342396736145
vt 0.9963305592536926 0.27148836851119995
vt 0.9004774689674377 0.284381628036499
vt 0.9826619625091553 0.2847302556037903
vt 0.9012280702590942 0.44439178705215454
vt 0.9767305254936218 0.443936824798584
vt 0.8972864151000977 0.46303045749664307
vt 0.9643843173980713 0.4624726176261902
vt 0.7541177272796631 0.2710655927658081
vt 0.6880264282226562 0.27116572856903076
vt 0.6988893151283264 0.2836211323738098
vt 0.7017636895179749 0.10873663425445557
vt 0.7744070887565613 0.10768848657608032
vt 0.8396007418632507 0.0004994869232177734
vt 0.7782082557678223 0.2832235097885132
vt 0.7815859317779541 0.46256542205810547
vt 0.7744054794311523 0.4431731104850769
vt 0.7118213772773743 0.4432260990142822
vt 0.7235682010650635 0.46236664056777954
vt 0.7796357274055481 0.6239040493965149
vt 0.7764792442321777 0.6030779480934143
vt 0.7198988795280457 0.6028012633323669
vt 0.725831925868988 0.6238885521888733
vt 0.7819463610649109 0.8130620718002319
vt 0.7844293713569641 0.8210448026657104
vt 0.7422618865966797 0.996421217918396
vt 0.7773147225379944 0.9709885716438293
vt 0.7267168760299683 0.9701623320579529
vt 0.7382829785346985 0.8208585381507874
vt 0.7306790351867676 0.8131878972053528
vt 0.9254871606826782 0.9964765906333923
vt 0 1
vt 0 0
vt 0.5 1
vt 1 0
vt 1 1
vt 0.5 0
g Geoset0
s 1
usemtl mat_o_surfboards
f 1/1/1 2/2/2 3/3/3
f 4/4/4 5/5/5 6/6/6
f 4/4/4 7/7/7 5/5/5
f 4/4/4 8/8/8 7/7/7
f 4/4/4 6/6/6 8/8/8
f 9/9/9 10/10/10 11/11/11
f 9/9/9 12/12/12 10/10/10
f 9/9/9 13/13/13 12/12/12
f 9/9/9 11/11/11 13/13/13
f 14/14/14 15/15/15 16/16/16
f 14/14/14 16/16/16 17/17/17
f 18/18/18 14/14/14 17/17/17
f 18/18/18 17/17/17 19/19/19
f 20/20/20 18/18/18 19/19/19
f 20/20/20 19/19/19 21/21/21
f 16/16/16 22/22/22 23/23/23
f 16/16/16 21/21/21 22/22/22
f 15/15/15 21/21/21 16/16/16
f 15/15/15 20/20/20 21/21/21
f 17/17/17 16/16/16 23/23/23
f 17/17/17 23/23/23 24/24/24
f 19/19/19 17/17/17 24/24/24
f 19/19/19 24/24/24 25/25/25
f 21/21/21 19/19/19 25/25/25
f 21/21/21 25/25/25 22/22/22
f 26/26/26 27/27/27 28/28/28
f 27/27/27 29/29/29 28/28/28
f 30/30/30 31/31/31 32/32/32
f 30/30/30 32/32/32 26/26/26
f 26/26/26 33/33/33 30/30/30
f 28/28/28 33/33/33 26/26/26
f 34/34/34 33/33/33 28/28/28
f 28/28/28 35/35/35 34/34/34
f 36/36/36 34/34/34 35/35/35
f 35/35/35 37/37/37 36/36/36
f 38/38/38 36/36/36 37/37/37
f 30/30/30 33/33/33 34/34/34
f 34/34/34 39/39/39 30/30/30
f 39/39/39 34/34/34 36/36/36
f 36/36/36 40/40/40 39/39/39
f 40/40/40 36/36/36 38/38/38
f 41/41/41 42/42/42 43/43/43
f 44/44/44 42/42/42 41/41/41
f 38/38/38 45/45/45 40/40/40
f 45/45/45 38/38/38 46/46/46
f 46/46/46 47/47/47 45/45/45
f 47/47/47 46/46/46 48/48/48
f 48/48/48 49/49/49 47/47/47
f 49/49/49 48/48/48 50/50/50
f 50/50/50 51/51/51 49/49/49
f 51/51/51 50/50/50 42/42/42
f 42/42/42 52/52/52 51/51/51
f 44/44/44 52/52/52 42/42/42
f 37/37/37 53/53/53 38/38/38
f 46/46/46 38/38/38 53/53/53
f 53/53/53 54/54/54 46/46/46
f 48/48/48 46/46/46 54/54/54
f 54/54/54 55/55/55 48/48/48
f 50/50/50 48/48/48 55/55/55
f 55/55/55 56/56/56 50/50/50
f 42/42/42 50/50/50 56/56/56
f 56/56/56 57/57/57 42/42/42
f 43/43/43 42/42/42 57/57/57
f 58/58/58 59/59/59 60/60/60
f 60/60/60 61/61/61 58/58/58
f 61/61/61 60/60/60 62/62/62
f 62/62/62 63/63/63 61/61/61
f 63/63/63 62/62/62 64/64/64
f 64/64/64 65/65/65 63/63/63
f 65/65/65 64/64/64 66/66/66
f 66/66/66 67/67/67 65/65/65
f 67/67/67 66/66/66 68/68/68
f 68/68/68 69/69/69 67/67/67
f 70/70/70 71/71/71 72/72/72
f 72/72/72 73/73/73 70/70/70
f 73/73/73 72/72/72 74/74/74
f 74/74/74 75/75/75 73/73/73
f 75/75/75 74/74/74 76/76/76
f 76/76/76 77/77/77 75/75/75
f 77/77/77 76/76/76 78/78/78
f 78/78/78 79/79/79 77/77/77
f 79/79/79 78/78/78 59/59/59
f 59/59/59 58/58/58 79/79/79
f 80/80/80 81/81/81 82/82/82
f 83/83/83 81/81/81 80/80/80
f 80/80/80 84/84/84 83/83/83
f 84/84/84 85/85/85 83/83/83
f 71/71/71 85/85/85 84/84/84
f 71/71/71 70/70/70 85/85/85
f 72/72/72 71/71/71 84/84/84
f 84/84/84 80/80/80 72/72/72
f 72/72/72 80/80/80 86/86/86
f 86/86/86 74/74/74 72/72/72
f 76/76/76 74/74/74 86/86/86
f 82/82/82 86/86/86 80/80/80
f 59/59/59 78/78/78 87/87/87
f 87/87/87 78/78/78 76/76/76
f 76/76/76 88/88/88 87/87/87
f 86/86/86 88/88/88 76/76/76
f 89/89/89 88/88/88 86/86/86
f 86/86/86 82/82/82 89/89/89
f 90/90/90 87/87/87 88/88/88
f 88/88/88 89/89/89 90/90/90
f 62/62/62 60/60/60 91/91/91
f 91/91/91 60/60/60 59/59/59
f 59/59/59 92/92/92 91/91/91
f 87/87/87 92/92/92 59/59/59
f 93/93/93 92/92/92 87/87/87
f 87/87/87 90/90/90 93/93/93
f 92/92/92 93/93/93 94/94/94
f 94/94/94 91/91/91 92/92/92
f 95/95/95 91/91/91 94/94/94
f 91/91/91 95/95/95 62/62/62
f 62/62/62 95/95/95 96/96/96
f 96/96/96 64/64/64 62/62/62
f 66/66/66 64/64/64 96/96/96
f 97/97/97 1/1/1 98/98/98
f 98/98/98 99/99/99 97/97/97
f 99/99/99 98/98/98 96/96/96
f 96/96/96 100/100/100 99/99/99
f 100/100/100 96/96/96 95/95/95
f 95/95/95 101/101/101 100/100/100
f 94/94/94 101/101/101 95/95/95
f 68/68/68 3/3/3 102/102/102
f 68/68/68 1/1/1 3/3/3
f 1/1/1 68/68/68 66/66/66
f 66/66/66 98/98/98 1/1/1
f 96/96/96 98/98/98 66/66/66
g Geoset1
s 1
usemtl mat_glowball02
f 103/103/103 104/104/104 105/105/105
f 106/106/106 107/107/107 108/108/108
f 105/105/105 108/108/108 107/107/107
f 108/108/108 105/105/105 104/104/104
