# Exported using wow.export v0.1.64
o booksmall01
mtllib booksmall01.mtl
v 0.05476830154657364 0.4205330014228821 -0.1661279946565628
v 0.05476830154657364 0.4205330014228821 0.17186200618743896
v 0.05476830154657364 0.000994444009847939 0.17186200618743896
v 0.0335782989859581 0.020169399678707123 -0.14013199508190155
v 0.0335782989859581 0.020169399678707123 0.14599600434303284
v -0.041973598301410675 0.020169399678707123 0.14599600434303284
v -0.041973598301410675 0.020169399678707123 -0.14013199508190155
v 0.05476830154657364 0.4205330014228821 -0.1661279946565628
v 0.05476830154657364 0.000994444009847939 -0.1661279946565628
v 0.0335782989859581 0.020169399678707123 -0.14013199508190155
v 0.0335782989859581 0.40136098861694336 -0.14013199508190155
v 0.0335782989859581 0.40136098861694336 -0.14013199508190155
v 0.0335782989859581 0.020169399678707123 -0.14013199508190155
v -0.041973598301410675 0.020169399678707123 -0.14013199508190155
v -0.041973598301410675 0.40136098861694336 -0.14013199508190155
v -0.041973598301410675 0.40136098861694336 -0.14013199508190155
v -0.041973598301410675 0.020169399678707123 -0.14013199508190155
v -0.06316360086202621 0.000994444009847939 -0.1661279946565628
v -0.06316360086202621 0.4205330014228821 -0.1661279946565628
v 0.05476830154657364 0.4205330014228821 0.17186200618743896
v 0.05476830154657364 0.4205330014228821 -0.1661279946565628
v 0.0335782989859581 0.40136098861694336 -0.14013199508190155
v 0.0335782989859581 0.40136098861694336 0.14599600434303284
v 0.05476830154657364 0.4205330014228821 0.17186200618743896
v 0.0335782989859581 0.40136098861694336 0.14599600434303284
v -0.041973598301410675 0.40136098861694336 0.14599600434303284
v -0.06316360086202621 0.4205330014228821 0.17186200618743896
v 0.0335782989859581 0.40136098861694336 0.14599600434303284
v 0.0335782989859581 0.40136098861694336 -0.14013199508190155
v -0.041973598301410675 0.40136098861694336 -0.14013199508190155
v -0.041973598301410675 0.40136098861694336 0.14599600434303284
v -0.041973598301410675 0.40136098861694336 0.14599600434303284
v -0.041973598301410675 0.40136098861694336 -0.14013199508190155
v -0.06316360086202621 0.4205330014228821 -0.1661279946565628
v -0.06316360086202621 0.4205330014228821 0.17186200618743896
v 0.0335782989859581 0.020169399678707123 0.14599600434303284
v 0.0335782989859581 0.020169399678707123 -0.14013199508190155
v 0.05476830154657364 0.000994444009847939 -0.1661279946565628
v -0.06316360086202621 0.000994444009847939 0.17186200618743896
v -0.06316360086202621 0.000994444009847939 -0.1661279946565628
v -0.041973598301410675 0.020169399678707123 -0.14013199508190155
v 0.05476830154657364 0.000994444009847939 0.17186200618743896
v -0.041973598301410675 0.020169399678707123 0.14599600434303284
v 0.05476830154657364 0.000994444009847939 0.17186200618743896
v 0.05476830154657364 0.4205330014228821 0.17186200618743896
v -0.06316360086202621 0.4205330014228821 0.17186200618743896
v -0.06316360086202621 0.000994444009847939 0.17186200618743896
v -0.06316360086202621 0.4205330014228821 -0.1661279946565628
v -0.06316360086202621 0.000994444009847939 -0.1661279946565628
v 0.05476830154657364 0.000994444009847939 -0.1661279946565628
vn 1 1.1920899822825959e-7 0
vn 0.5257359743118286 0.8446999788284302 -0.10042300075292587
vn 0.7071070075035095 8.429370268459024e-8 0.7071070075035095
vn -2.3141899418988032e-7 -1 0
vn -2.3141899418988032e-7 -1 0
vn -2.3141899418988032e-7 -1 0
vn -2.3141899418988032e-7 -1 0
vn -0.8347640037536621 0.2786639928817749 -0.4748840034008026
vn -0.7956159710884094 -0.557328999042511 -0.2374420017004013
vn -0.6819970011711121 -0.22766700387001038 -0.6950160264968872
vn -0.5739060044288635 0.4020189940929413 -0.7134510278701782
vn -0.5739060044288635 0.4020189940929413 -0.7134510278701782
vn -0.6819970011711121 -0.22766700387001038 -0.6950160264968872
vn 0.5739049911499023 -0.40202000737190247 -0.7134510278701782
vn 0.6819970011711121 0.22766700387001038 -0.6950160264968872
vn 0.6819970011711121 0.22766700387001038 -0.6950160264968872
vn 0.5739049911499023 -0.40202000737190247 -0.7134510278701782
vn 0.8347640037536621 -0.2786639928817749 -0.4748849868774414
vn 0.7956169843673706 0.557328999042511 -0.2374420017004013
vn -0.6709610223770142 0.7414929866790771 0
vn -0.8347640037536621 0.2786639928817749 -0.4748840034008026
vn -0.5739060044288635 0.4020189940929413 -0.7134510278701782
vn -0.6709610223770142 0.7414929866790771 0
vn 0.5257359743118286 0.8446999788284302 -0.10042300075292587
vn 2.2636700691691658e-7 0.978173017501831 -0.20779100060462952
vn 4.923619911778587e-8 0.909555971622467 -0.41558098793029785
vn -0.5257359743118286 0.4223499894142151 0.7383919954299927
vn 2.2636700691691658e-7 0.978173017501831 -0.20779100060462952
vn 2.3141799943005026e-7 1 0
vn 2.3141799943005026e-7 1 0
vn 4.923619911778587e-8 0.909555971622467 -0.41558098793029785
vn 0.6709589958190918 0.7414939999580383 6.573550148658569e-9
vn 0.6819970011711121 0.22766700387001038 -0.6950160264968872
vn 0.7956169843673706 0.557328999042511 -0.2374420017004013
vn 0.6709589958190918 0.7414939999580383 1.3147100297317138e-8
vn -0.37558498978614807 -0.8647630214691162 -0.33334898948669434
vn -0.6819970011711121 -0.22766700387001038 -0.6950160264968872
vn -0.7956159710884094 -0.557328999042511 -0.2374420017004013
vn 0.37558498978614807 -0.864762008190155 -0.33334898948669434
vn 0.8347640037536621 -0.2786639928817749 -0.4748849868774414
vn 0.5739049911499023 -0.40202000737190247 -0.7134510278701782
vn -0.37558498978614807 -0.8647630214691162 -0.33334800601005554
vn 0.37558498978614807 -0.864762008190155 -0.33334898948669434
vn 0.7071070075035095 8.429370268459024e-8 0.7071070075035095
vn 0.5257359743118286 0.8446999788284302 -0.10042300075292587
vn -0.5257359743118286 0.4223499894142151 0.7383919954299927
vn -0.8944270014762878 -9.250489796386319e-8 0.4472140073776245
vn -1 -1.034240000308273e-7 -9.797229694186171e-9
vn -1 -9.553070157153343e-8 0
vn 1 1.1920899822825959e-7 0
vt 0.46397098898887634 0.999675572005799
vt 0.29423800110816956 0.9992311000241898
vt 0.29423800110816956 0.7782829999923706
vt 0.2485789954662323 0.06365102529525757
vt 0.0020236200653016567 0.06365102529525757
vt 0.0020236200653016567 0.1247209906578064
vt 0.2485789954662323 0.1247209906578064
vt 0.3027540147304535 0.7512339949607849
vt 0.45824000239372253 0.7512339949607849
vt 0.4542660117149353 0.7577439993619919
vt 0.30485600233078003 0.7577439993619919
vt -0.000009829989721765742 0.0007830262184143066
vt 0.25099900364875793 0.0007830262184143066
vt 0.25099900364875793 0.0623210072517395
vt -0.000009829989721765742 0.0623210072517395
vt 0.30485600233078003 0.7780490070581436
vt 0.4542660117149353 0.7780490070581436
vt 0.46396100521087646 0.78472700715065
vt 0.3027540147304535 0.78472700715065
vt 0.4639660120010376 0.9996981619915459
vt 0.4639660120010376 0.7848860025405884
vt 0.4691379964351654 0.7905479967594147
vt 0.4691379964351654 0.9854525001719594
vt 0.4639660120010376 0.9996981619915459
vt 0.4691379964351654 0.9854525001719594
vt 0.49442899227142334 0.9854525001719594
vt 0.5000770092010498 0.9996981619915459
vt 0.001699369982816279 0.06365299224853516
vt 0.2484080046415329 0.06365299224853516
vt 0.2484080046415329 0.12462800741195679
vt 0.001699369982816279 0.12462800741195679
vt 0.49442899227142334 0.9854525001719594
vt 0.49442899227142334 0.7905479967594147
vt 0.5000770092010498 0.7869260013103485
vt 0.5000770092010498 0.9996981619915459
vt 0.46913599967956543 0.9852141002193093
vt 0.46913599967956543 0.7904220074415207
vt 0.4639660120010376 0.7847689986228943
vt 0.500095009803772 0.9996433260093909
vt 0.500095009803772 0.7864580005407333
vt 0.49449801445007324 0.7904220074415207
vt 0.4639660120010376 0.9996433260093909
vt 0.49449801445007324 0.9852141002193093
vt 0.2517479956150055 0.7778950035572052
vt 0.2517479956150055 0.9994899029843509
vt 0.2942430078983307 0.9992553589981981
vt 0.29423999786376953 0.778330996632576
vt 0.46397098898887634 0.999671875993954
vt 0.46397098898887634 0.7781530022621155
vt 0.46397098898887634 0.7782829999923706
g Geoset0
s 1
usemtl mat_books
f 1/1/1 2/2/2 3/3/3
f 4/4/4 5/5/5 6/6/6
f 6/6/6 7/7/7 4/4/4
f 8/8/8 9/9/9 10/10/10
f 10/10/10 11/11/11 8/8/8
f 12/12/12 13/13/13 14/14/14
f 14/14/14 15/15/15 12/12/12
f 16/16/16 17/17/17 18/18/18
f 18/18/18 19/19/19 16/16/16
f 20/20/20 21/21/21 22/22/22
f 22/22/22 23/23/23 20/20/20
f 24/24/24 25/25/25 26/26/26
f 26/26/26 27/27/27 24/24/24
f 28/28/28 29/29/29 30/30/30
f 30/30/30 31/31/31 28/28/28
f 32/32/32 33/33/33 34/34/34
f 34/34/34 35/35/35 32/32/32
f 36/36/36 37/37/37 38/38/38
f 39/39/39 40/40/40 41/41/41
f 38/38/38 42/42/42 36/36/36
f 36/36/36 42/42/42 39/39/39
f 39/39/39 43/43/43 36/36/36
f 41/41/41 43/43/43 39/39/39
f 44/44/44 45/45/45 46/46/46
f 46/46/46 47/47/47 44/44/44
f 47/47/47 46/46/46 48/48/48
f 48/48/48 49/49/49 47/47/47
f 3/3/3 50/50/50 1/1/1
