# Exported using wow.export v0.1.64
o bookmedium02
mtllib bookmedium02.mtl
v 0.09840810298919678 0.6039000153541565 -0.22554199397563934
v 0.09840810298919678 0.6039000153541565 0.22214199602603912
v 0.09840810298919678 0.0000555555998289492 0.22214199602603912
v 0.07721830159425735 0.019230300560593605 -0.1995459944009781
v 0.07721830159425735 0.019230300560593605 0.196275994181633
v -0.09263189882040024 0.019230300560593605 0.196275994181633
v -0.09263189882040024 0.019230300560593605 -0.1995459944009781
v 0.09840810298919678 0.6039000153541565 -0.22554199397563934
v 0.09840810298919678 0.0000555555998289492 -0.22554199397563934
v 0.07721830159425735 0.019230300560593605 -0.1995459944009781
v 0.07721830159425735 0.584725022315979 -0.1995459944009781
v 0.07721830159425735 0.584725022315979 -0.1995459944009781
v 0.07721830159425735 0.019230300560593605 -0.1995459944009781
v -0.09263189882040024 0.019230300560593605 -0.1995459944009781
v -0.09263189882040024 0.584725022315979 -0.1995459944009781
v -0.09263189882040024 0.584725022315979 -0.1995459944009781
v -0.09263189882040024 0.019230300560593605 -0.1995459944009781
v -0.11382199823856354 0.0000555555998289492 -0.22554199397563934
v -0.11382199823856354 0.6039000153541565 -0.22554199397563934
v 0.09840810298919678 0.6039000153541565 0.22214199602603912
v 0.09840810298919678 0.6039000153541565 -0.22554199397563934
v 0.07721830159425735 0.584725022315979 -0.1995459944009781
v 0.07721830159425735 0.584725022315979 0.196275994181633
v 0.09840810298919678 0.6039000153541565 0.22214199602603912
v 0.07721830159425735 0.584725022315979 0.196275994181633
v -0.09263189882040024 0.584725022315979 0.196275994181633
v -0.11382199823856354 0.6039000153541565 0.22214199602603912
v 0.07721830159425735 0.584725022315979 0.196275994181633
v 0.07721830159425735 0.584725022315979 -0.1995459944009781
v -0.09263189882040024 0.584725022315979 -0.1995459944009781
v -0.09263189882040024 0.584725022315979 0.196275994181633
v -0.09263189882040024 0.584725022315979 0.196275994181633
v -0.09263189882040024 0.584725022315979 -0.1995459944009781
v -0.11382199823856354 0.6039000153541565 -0.22554199397563934
v -0.11382199823856354 0.6039000153541565 0.22214199602603912
v 0.07721830159425735 0.019230300560593605 0.196275994181633
v 0.07721830159425735 0.019230300560593605 -0.1995459944009781
v 0.09840810298919678 0.0000555555998289492 -0.22554199397563934
v -0.11382199823856354 0.0000555555998289492 0.22214199602603912
v -0.11382199823856354 0.0000555555998289492 -0.22554199397563934
v -0.09263189882040024 0.019230300560593605 -0.1995459944009781
v 0.09840810298919678 0.0000555555998289492 0.22214199602603912
v -0.09263189882040024 0.019230300560593605 0.196275994181633
v 0.09840810298919678 0.0000555555998289492 0.22214199602603912
v 0.09840810298919678 0.6039000153541565 0.22214199602603912
v -0.11382199823856354 0.6039000153541565 0.22214199602603912
v -0.11382199823856354 0.0000555555998289492 0.22214199602603912
v -0.11382199823856354 0.6039000153541565 -0.22554199397563934
v -0.11382199823856354 0.0000555555998289492 -0.22554199397563934
v 0.09840810298919678 0.0000555555998289492 -0.22554199397563934
vn 1 1.1920899822825959e-7 0
vn 0.5257359743118286 0.8446990251541138 -0.10042399913072586
vn 0.7071070075035095 6.87832013568368e-8 0.7071070075035095
vn -3.675659954183175e-8 -1 -6.692639686889379e-8
vn -3.675659954183175e-8 -1 -6.692639686889379e-8
vn -3.675659954183175e-8 -1 -6.692639686889379e-8
vn -3.675659954183175e-8 -1 -6.692639686889379e-8
vn -0.8347640037536621 0.2786639928817749 -0.4748840034008026
vn -0.7956159710884094 -0.557328999042511 -0.2374420017004013
vn -0.6819970011711121 -0.22766700387001038 -0.6950160264968872
vn -0.5739060044288635 0.4020189940929413 -0.7134510278701782
vn -0.5739060044288635 0.4020189940929413 -0.7134510278701782
vn -0.6819970011711121 -0.22766700387001038 -0.6950160264968872
vn 0.5739049911499023 -0.40202000737190247 -0.7134510278701782
vn 0.6819970011711121 0.22766700387001038 -0.6950160264968872
vn 0.6819970011711121 0.22766700387001038 -0.6950160264968872
vn 0.5739049911499023 -0.40202000737190247 -0.7134510278701782
vn 0.8347640037536621 -0.2786639928817749 -0.4748849868774414
vn 0.7956169843673706 0.557328999042511 -0.2374420017004013
vn -0.6709610223770142 0.7414929866790771 2.4812699450649234e-8
vn -0.8347640037536621 0.2786639928817749 -0.4748840034008026
vn -0.5739060044288635 0.4020189940929413 -0.7134510278701782
vn -0.6709610223770142 0.741491973400116 4.962539890129847e-8
vn 0.5257359743118286 0.8446990251541138 -0.10042399913072586
vn 3.5954300869889266e-8 0.978173017501831 -0.20779100060462952
vn -1.9339500667570064e-8 0.909555971622467 -0.41558098793029785
vn -0.5257359743118286 0.4223499894142151 0.7383919954299927
vn 3.5954300869889266e-8 0.978173017501831 -0.20779100060462952
vn 3.675659954183175e-8 1 6.692639686889379e-8
vn 3.675659954183175e-8 1 6.692639686889379e-8
vn -1.9339500667570064e-8 0.909555971622467 -0.41558098793029785
vn 0.670960009098053 0.7414939999580383 1.919960013196942e-8
vn 0.6819970011711121 0.22766700387001038 -0.6950160264968872
vn 0.7956169843673706 0.557328999042511 -0.2374420017004013
vn 0.670960009098053 0.7414939999580383 0
vn -0.37558498978614807 -0.8647630214691162 -0.33334800601005554
vn -0.6819970011711121 -0.22766700387001038 -0.6950160264968872
vn -0.7956159710884094 -0.557328999042511 -0.2374420017004013
vn 0.37558498978614807 -0.8647630214691162 -0.33334800601005554
vn 0.8347640037536621 -0.2786639928817749 -0.4748849868774414
vn 0.5739049911499023 -0.40202000737190247 -0.7134510278701782
vn -0.3755840063095093 -0.8647630214691162 -0.33334800601005554
vn 0.37558498978614807 -0.8647630214691162 -0.33334898948669434
vn 0.7071070075035095 6.87832013568368e-8 0.7071070075035095
vn 0.5257359743118286 0.8446990251541138 -0.10042399913072586
vn -0.5257359743118286 0.4223499894142151 0.7383919954299927
vn -0.8944270014762878 -9.681429702368405e-8 0.4472140073776245
vn -1 -1.0824199847547789e-7 0
vn -1 -1.0824199847547789e-7 0
vn 1 1.1920899822825959e-7 0
vt 0.9645119905471802 0.999675572005799
vt 0.7896999716758728 0.9992311000241898
vt 0.7896999716758728 0.7782829999923706
vt 0.2485789954662323 0.06365102529525757
vt 0.0020236200653016567 0.06365102529525757
vt 0.0020236200653016567 0.1247209906578064
vt 0.2485789954662323 0.1247209906578064
vt 0.7996659874916077 0.7512339949607849
vt 0.9551510214805603 0.7512339949607849
vt 0.9511780142784119 0.7577439993619919
vt 0.8017680048942566 0.7577439993619919
vt -0.000009829989721765742 0.0007830262184143066
vt 0.25099900364875793 0.0007830262184143066
vt 0.25099900364875793 0.0623210072517395
vt -0.000009829989721765742 0.0623210072517395
vt 0.8032370209693909 0.7772040069103241
vt 0.9526469707489014 0.7772040069103241
vt 0.9566199779510498 0.7864170074462891
vt 0.8011350035667419 0.7864170074462891
vt 0.9582669734954834 0.9996981619915459
vt 0.958266019821167 0.7865760028362274
vt 0.966251015663147 0.7905479967594147
vt 0.966251015663147 0.9837627001106739
vt 0.9582669734954834 0.9996981619915459
vt 0.966251015663147 0.9837627001106739
vt 0.9892129898071289 0.9837627001106739
vt 0.9967280030250549 0.9996981619915459
vt 0.001699369982816279 0.06365299224853516
vt 0.2484080046415329 0.06365299224853516
vt 0.2484080046415329 0.12462800741195679
vt 0.001699369982816279 0.12462800741195679
vt 0.9892129898071289 0.9837627001106739
vt 0.9892129898071289 0.7905479967594147
vt 0.9967280030250549 0.7869260013103485
vt 0.9967280030250549 0.9996981619915459
vt 0.9662489891052246 0.9835243001580238
vt 0.9662489891052246 0.7904220074415207
vt 0.9582700133323669 0.7864580005407333
vt 0.9967460036277771 0.9996433260093909
vt 0.9967460036277771 0.7864580005407333
vt 0.9892809987068176 0.7904220074415207
vt 0.9582710266113281 0.9996433260093909
vt 0.9892809987068176 0.9835243001580238
vt 0.7508100271224976 0.7778950035572052
vt 0.7508100271224976 0.9994899029843509
vt 0.7897530198097229 0.9992553589981981
vt 0.7897160053253174 0.778330996632576
vt 0.9645119905471802 0.999671875993954
vt 0.9645190238952637 0.7781530022621155
vt 0.9645119905471802 0.7782829999923706
g Geoset0
s 1
usemtl mat_books
f 1/1/1 2/2/2 3/3/3
f 4/4/4 5/5/5 6/6/6
f 6/6/6 7/7/7 4/4/4
f 8/8/8 9/9/9 10/10/10
f 10/10/10 11/11/11 8/8/8
f 12/12/12 13/13/13 14/14/14
f 14/14/14 15/15/15 12/12/12
f 16/16/16 17/17/17 18/18/18
f 18/18/18 19/19/19 16/16/16
f 20/20/20 21/21/21 22/22/22
f 22/22/22 23/23/23 20/20/20
f 24/24/24 25/25/25 26/26/26
f 26/26/26 27/27/27 24/24/24
f 28/28/28 29/29/29 30/30/30
f 30/30/30 31/31/31 28/28/28
f 32/32/32 33/33/33 34/34/34
f 34/34/34 35/35/35 32/32/32
f 36/36/36 37/37/37 38/38/38
f 39/39/39 40/40/40 41/41/41
f 38/38/38 42/42/42 36/36/36
f 36/36/36 42/42/42 39/39/39
f 39/39/39 43/43/43 36/36/36
f 41/41/41 43/43/43 39/39/39
f 44/44/44 45/45/45 46/46/46
f 46/46/46 47/47/47 44/44/44
f 47/47/47 46/46/46 48/48/48
f 48/48/48 49/49/49 47/47/47
f 3/3/3 50/50/50 1/1/1
