# Exported using wow.export v0.1.64
o booksmallopen05
mtllib booksmallopen05.mtl
v 0.2008492797613144 0.0003397597174625844 -0.00925579946488142
v 0.20502781867980957 0.00033973323297686875 0.3012171983718872
v -0.21700496971607208 0.00033971999073401093 -0.00925579946488142
v -0.20265249907970428 0.033634595572948456 0.27793166041374207
v -0.22118353843688965 0.0003397133550606668 0.3012171983718872
v 0.18649691343307495 0.03363460674881935 0.27793166041374207
v 0.20502781867980957 0.00033973323297686875 0.3012171983718872
v -0.20265252888202667 0.08817834407091141 0.2591437101364136
v -0.20265249907970428 0.033634595572948456 0.27793166041374207
v 0.18649686872959137 0.0881783738732338 0.2591437101364136
v 0.18649691343307495 0.03363460674881935 0.27793166041374207
v -0.20265249907970428 0.033634595572948456 -0.29644328355789185
v -0.20265252888202667 0.08817834407091141 -0.27765530347824097
v 0.18649688363075256 0.03363460674881935 -0.29644328355789185
v 0.18649686872959137 0.0881783738732338 -0.27765530347824097
v -0.22118349373340607 0.0003397133550606668 -0.3197287917137146
v -0.20265249907970428 0.033634595572948456 -0.29644328355789185
v 0.20502780377864838 0.00033973323297686875 -0.3197287917137146
v 0.18649688363075256 0.03363460674881935 -0.29644328355789185
v -0.21700496971607208 0.00033971999073401093 -0.00925579946488142
v -0.22118349373340607 0.0003397133550606668 -0.3197287917137146
v 0.2008492797613144 0.0003397597174625844 -0.00925579946488142
v 0.20502780377864838 0.00033973323297686875 -0.3197287917137146
v 0.18649686872959137 0.0881783738732338 0.2591437101364136
v 0.18649685382843018 0.12949664890766144 0.0595678836107254
v -0.20265252888202667 0.08817834407091141 0.2591437101364136
v -0.20265249907970428 0.12949663400650024 0.0595678836107254
v 0.17723141610622406 0.06211664900183678 -0.009255798533558846
v -0.1933870017528534 0.06211662292480469 -0.009255798533558846
v -0.20265252888202667 0.08817834407091141 -0.27765530347824097
v -0.2026524841785431 0.12949663400650024 -0.07807949185371399
v 0.18649686872959137 0.0881783738732338 -0.27765530347824097
v 0.18649686872959137 0.12949664890766144 -0.07807949185371399
v -0.1933870017528534 0.06211662292480469 -0.009255798533558846
v 0.17723141610622406 0.06211664900183678 -0.009255798533558846
v -0.2026524841785431 0.12949663400650024 -0.07807949185371399
v -0.20265252888202667 0.08817834407091141 -0.27765530347824097
v -0.2007259726524353 0.018572235479950905 -0.00925579946488142
v -0.20265249907970428 0.033634595572948456 -0.29644328355789185
v -0.1933870017528534 0.06211662292480469 -0.009255798533558846
v -0.20265249907970428 0.12949663400650024 0.0595678836107254
v -0.20265249907970428 0.033634595572948456 0.27793166041374207
v -0.20265252888202667 0.08817834407091141 0.2591437101364136
v -0.22118349373340607 0.0003397133550606668 -0.3197287917137146
v -0.21700496971607208 0.00033971999073401093 -0.00925579946488142
v -0.20265249907970428 0.033634595572948456 -0.29644328355789185
v -0.2007259726524353 0.018572235479950905 -0.00925579946488142
v -0.22118353843688965 0.0003397133550606668 0.3012171983718872
v -0.20265249907970428 0.033634595572948456 0.27793166041374207
v 0.17723141610622406 0.06211664900183678 -0.009255798533558846
v 0.18457041680812836 0.018572239205241203 -0.00925579946488142
v 0.18649686872959137 0.12949664890766144 -0.07807949185371399
v 0.18649685382843018 0.12949664890766144 0.0595678836107254
v 0.18649691343307495 0.03363460674881935 0.27793166041374207
v 0.18649686872959137 0.0881783738732338 0.2591437101364136
v 0.18649688363075256 0.03363460674881935 -0.29644328355789185
v 0.18649686872959137 0.0881783738732338 -0.27765530347824097
v 0.20502780377864838 0.00033973323297686875 -0.3197287917137146
v 0.18649688363075256 0.03363460674881935 -0.29644328355789185
v 0.2008492797613144 0.0003397597174625844 -0.00925579946488142
v 0.18457041680812836 0.018572239205241203 -0.00925579946488142
v 0.20502781867980957 0.00033973323297686875 0.3012171983718872
v 0.18649691343307495 0.03363460674881935 0.27793166041374207
v -0.22118353843688965 0.0003397133550606668 0.3012171983718872
vn 8.056078826257362e-8 -1 -1.3517997388134972e-8
vn 7.535162183103239e-8 -1 -5.976487926773189e-8
vn 8.056078826257362e-8 -1 -1.3517992947242874e-8
vn -1.467211152572645e-8 0.4687025845050812 0.8833560347557068
vn -1.122788528817864e-8 0.5731171369552612 0.8194734454154968
vn -1.7089687887050786e-8 0.4687025547027588 0.8833560347557068
vn -2.6716360679301943e-8 0.5731172561645508 0.819473385810852
vn -2.217016081829115e-8 0.32567742466926575 0.9454809427261353
vn -1.467211152572645e-8 0.4687025845050812 0.8833560347557068
vn -7.100421139938362e-9 0.3256773054599762 0.94548100233078
vn -1.7089687887050786e-8 0.4687025547027588 0.8833560347557068
vn -1.7089684334337107e-8 0.4687025547027588 -0.8833560347557068
vn -7.1004260249196705e-9 0.32567736506462097 -0.9454809427261353
vn -1.467211152572645e-8 0.4687025547027588 -0.8833560347557068
vn -2.2170151936506954e-8 0.3256772756576538 -0.94548100233078
vn -2.6716357126588264e-8 0.5731171369552612 -0.8194734454154968
vn -1.7089684334337107e-8 0.4687025547027588 -0.8833560347557068
vn -1.122788617635706e-8 0.5731172561645508 -0.819473385810852
vn -1.467211152572645e-8 0.4687025547027588 -0.8833560347557068
vn 8.056078826257362e-8 -1 -1.3517992947242874e-8
vn 7.535162183103239e-8 -1 4.689075794317432e-8
vn 8.056078826257362e-8 -1 -1.3517997388134972e-8
vn 4.661588093313185e-8 -1 8.595189626703359e-8
vn -6.666039809033464e-8 0.9792343974113464 0.20273131132125854
vn -3.66477941327048e-8 0.9641556739807129 -0.2653372883796692
vn -3.202046983119544e-8 0.9792343974113464 0.2027314007282257
vn -3.4162933815196084e-8 0.9641556739807129 -0.2653372287750244
vn -4.830482680517889e-8 1 -2.5203917175531387e-8
vn -4.830482325246521e-8 1 -2.285917233280088e-8
vn -6.666039098490728e-8 0.9792343974113464 -0.2027314305305481
vn -3.66477941327048e-8 0.9641556739807129 0.2653372585773468
vn -3.202046983119544e-8 0.9792343974113464 -0.20273135602474213
vn -3.4162933815196084e-8 0.9641556739807129 0.2653373181819916
vn -4.830482325246521e-8 1 -2.285917233280088e-8
vn -4.830482680517889e-8 1 -2.5203917175531387e-8
vn -0.9993374347686768 0.005011097993701696 0.03605015575885773
vn -0.9999697804450989 -0.005122235510498285 0.005849430337548256
vn -0.9225343465805054 0.3858450949192047 0.007344572339206934
vn -0.9508188962936401 0.309557169675827 0.010852181352674961
vn -0.9860928058624268 0.1661955565214157 6.419418774328278e-9
vn -0.9992482662200928 0.007878527045249939 -0.037958089262247086
vn -0.9549040198326111 0.29622340202331543 -0.020249459892511368
vn -1 -0.0000011444213896538713 -5.024027700528677e-7
vn -0.8772048950195312 0.4799710512161255 0.011805917136371136
vn -0.7521052360534668 0.6588982939720154 0.013809527270495892
vn -0.9508188962936401 0.309557169675827 0.010852181352674961
vn -0.9225343465805054 0.3858450949192047 0.007344572339206934
vn -0.8735712170600891 0.48582977056503296 -0.029030729085206985
vn -0.9549040198326111 0.29622340202331543 -0.020249459892511368
vn 0.9860926270484924 0.16619664430618286 3.896794886770749e-9
vn 0.9225349426269531 0.3858436644077301 0.007344470825046301
vn 0.9993374347686768 0.005011680535972118 0.036049939692020416
vn 0.9992482662200928 0.007879376411437988 -0.0379580520093441
vn 0.9549043774604797 0.29622215032577515 -0.020249105989933014
vn 1 7.844664082767849e-7 1.6240845468473708e-7
vn 0.9508190751075745 0.3095565736293793 0.010852115228772163
vn 0.9999697804450989 -0.00512113468721509 0.005849221255630255
vn 0.8772056698799133 0.4799695909023285 0.011805934831500053
vn 0.9508190751075745 0.3095565736293793 0.010852115228772163
vn 0.7521077990531921 0.6588954329490662 0.013809422962367535
vn 0.9225349426269531 0.3858436644077301 0.007344470825046301
vn 0.873572826385498 0.48582687973976135 -0.02903049997985363
vn 0.9549043774604797 0.29622215032577515 -0.020249105989933014
vn 4.661587738041817e-8 -1 -2.07037356148021e-8
vt 0.019930925220251083 0.7791371941566467
vt 0.21127936244010925 0.7791371941566467
vt 0.019930925220251083 1
vt 0.05487477779388428 0.7821660041809082
vt 0.05487477779388428 0.7871693968772888
vt 0.21664860844612122 0.7821660041809082
vt 0.216648668050766 0.7871693968772888
vt 0.00030392594635486603 0.0623774528503418
vt 0.00030392594635486603 0.0014507174491882324
vt 0.2484966218471527 0.0623774528503418
vt 0.2484966218471527 0.0014507174491882324
vt 0.00030392594635486603 0.0014507174491882324
vt 0.00030392594635486603 0.06234538555145264
vt 0.2484966218471527 0.0014507174491882324
vt 0.2484966218471527 0.06234538555145264
vt 0.05487477779388428 0.7871693968772888
vt 0.05487477779388428 0.7821660041809082
vt 0.216648668050766 0.7871693968772888
vt 0.21664860844612122 0.7821660041809082
vt 0.019830193370580673 1
vt 0.2111453115940094 1
vt 0.019830193370580673 0.7791371941566467
vt 0.2111453115940094 0.7791371941566467
vt 0.8110879063606262 0.5052143335342407
vt 0.7271336913108826 0.5052143335342407
vt 0.8110879063606262 0.7528047561645508
vt 0.7271336913108826 0.7528047561645508
vt 0.6896193623542786 0.5052143335342407
vt 0.6896193623542786 0.7528047561645508
vt 0.8104338645935059 0.498987078666687
vt 0.7265660762786865 0.498987078666687
vt 0.8104338645935059 0.25139665603637695
vt 0.7265660762786865 0.25139665603637695
vt 0.6891603469848633 0.498987078666687
vt 0.6891603469848633 0.25139665603637695
vt 0.04963299259543419 0.12407594919204712
vt 0.24930986762046814 0.12407588958740234
vt 0.0003119558095932007 0.06327372789382935
vt 0.24924451112747192 0.06330245733261108
vt 0.00007273256778717041 0.12407565116882324
vt 0.049420084804296494 0.12407594919204712
vt 0.24903160333633423 0.06330245733261108
vt 0.24909695982933044 0.12407588958740234
vt 0.21129105985164642 0.7892386317253113
vt 0.21129104495048523 0.9955970644950867
vt 0.21899273991584778 0.7892386317253113
vt 0.21899272501468658 0.9955971837043762
vt 0.21129105985164642 0.7892792224884033
vt 0.21899273991584778 0.7892792224884033
vt 0.00007273256778717041 0.12407565116882324
vt 0.0003119558095932007 0.0632738471031189
vt 0.049633052200078964 0.12407594919204712
vt 0.04942002519965172 0.12407594919204712
vt 0.24903160333633423 0.06330257654190063
vt 0.24909690022468567 0.12408512830734253
vt 0.24924451112747192 0.06330251693725586
vt 0.24930986762046814 0.12407588958740234
vt 0.21129105985164642 0.7892792224884033
vt 0.21899273991584778 0.7892792224884033
vt 0.21129104495048523 0.9957199692726135
vt 0.21899272501468658 0.9957199692726135
vt 0.21129105985164642 0.7892386317253113
vt 0.21899273991584778 0.7892386317253113
vt 0.21127936244010925 1
g Geoset0
s 1
usemtl mat_books
f 1/1/1 2/2/2 3/3/3
f 4/4/4 5/5/5 6/6/6
f 7/7/7 6/6/6 5/5/5
f 8/8/8 9/9/9 10/10/10
f 11/11/11 10/10/10 9/9/9
f 12/12/12 13/13/13 14/14/14
f 15/15/15 14/14/14 13/13/13
f 16/16/16 17/17/17 18/18/18
f 19/19/19 18/18/18 17/17/17
f 20/20/20 21/21/21 22/22/22
f 23/23/23 22/22/22 21/21/21
f 24/24/24 25/25/25 26/26/26
f 27/27/27 26/26/26 25/25/25
f 25/25/25 28/28/28 27/27/27
f 29/29/29 27/27/27 28/28/28
f 30/30/30 31/31/31 32/32/32
f 33/33/33 32/32/32 31/31/31
f 31/31/31 34/34/34 33/33/33
f 35/35/35 33/33/33 34/34/34
f 36/36/36 37/37/37 38/38/38
f 39/39/39 38/38/38 37/37/37
f 40/40/40 36/36/36 38/38/38
f 41/41/41 40/40/40 38/38/38
f 38/38/38 42/42/42 41/41/41
f 43/43/43 41/41/41 42/42/42
f 44/44/44 45/45/45 46/46/46
f 47/47/47 46/46/46 45/45/45
f 45/45/45 48/48/48 47/47/47
f 49/49/49 47/47/47 48/48/48
f 50/50/50 51/51/51 52/52/52
f 53/53/53 51/51/51 50/50/50
f 51/51/51 53/53/53 54/54/54
f 55/55/55 54/54/54 53/53/53
f 56/56/56 57/57/57 51/51/51
f 52/52/52 51/51/51 57/57/57
f 58/58/58 59/59/59 60/60/60
f 61/61/61 60/60/60 59/59/59
f 60/60/60 61/61/61 62/62/62
f 63/63/63 62/62/62 61/61/61
f 64/64/64 3/3/3 2/2/2
