# Exported using wow.export v0.1.64
o cavekoboldspidereggssack
mtllib cavekoboldspidereggssack.mtl
v -0.20727412402629852 4.113200664520264 0.43475455045700073
v 0.09686321020126343 3.7681705951690674 0.11708082258701324
v 0.28621163964271545 4.113200664520264 0.4347546398639679
v -0.32287827134132385 2.0377416610717773 -0.5654511451721191
v 0.2751515507698059 2.538496732711792 -0.30531996488571167
v 0.3943359851837158 2.101168394088745 -0.4520396292209625
v 0.3540460467338562 2.5328590869903564 0.09948916733264923
v 0.11781451851129532 3.2675819396972656 -0.005555469077080488
v 0.07796245813369751 2.5384974479675293 0.332411527633667
v 0.07232339680194855 3.3855462074279785 0.061556119471788406
v -0.21446911990642548 2.5153517723083496 0.2264055758714676
v 0.009181325323879719 3.3017263412475586 0.06621997803449631
v -0.25122085213661194 2.5554120540618896 -0.01593274064362049
v -0.05412595346570015 3.2241127490997314 0.0037723679561167955
v 0.019055714830756187 3.392263650894165 -0.06639478355646133
v -0.17378027737140656 2.503875255584717 -0.2592296600341797
v 0.06423240900039673 3.467066526412964 -0.0710587278008461
v -0.6060775518417358 2.0377416610717773 0.017389463260769844
v -0.2994517385959625 2.0377414226531982 0.5566562414169312
v 0.2968124449253082 2.0852267742156982 0.5378254055976868
v 0.5713452100753784 2.076862335205078 0.1462584137916565
v 0.4602784216403961 1.6192851066589355 0.5500149726867676
v -0.33905577659606934 1.619285225868225 0.5500150322914124
v -0.6555424928665161 1.6192842721939087 -0.003236117772758007
v 0.0922725722193718 1.1245051622390747 0.4470047950744629
v -0.4684886038303375 1.165389895439148 -0.03278471529483795
v -0.3390556275844574 1.6192842721939087 -0.5934357047080994
v 0.09227265417575836 1.1245051622390747 -0.3967561423778534
v 0.41414013504981995 1.1385709047317505 -0.032784637063741684
v -0.12854184210300446 0.9949176907539368 -0.05845068022608757
v 0.41493716835975647 1.6192842721939087 -0.548012375831604
v 0.6675252318382263 1.5768400430679321 0.032061878591775894
v 0.07232339680194855 3.3855462074279785 0.061556119471788406
v 0.11781451851129532 3.2675819396972656 -0.005555469077080488
v -0.017925864085555077 3.7681710720062256 0.11708082258701324
v -0.45401662588119507 4.1132001876831055 0.007383378688246012
v 0.009181325323879719 3.3017263412475586 0.06621997803449631
v -0.07532067596912384 3.7681710720062256 0.017670385539531708
v -0.017925985157489777 3.7681710720062256 -0.08174007385969162
v -0.20727384090423584 4.113200664520264 -0.41998764872550964
v 0.09686341881752014 3.7681710720062256 -0.08174007385969162
v 0.28621163964271545 4.113200664520264 -0.41998764872550964
v 0.1542578935623169 3.7681710720062256 0.017670385539531708
v 0.5329542756080627 4.1132001876831055 0.007383457385003567
v -0.05412595346570015 3.2241127490997314 0.0037723679561167955
v 0.019055714830756187 3.392263650894165 -0.06639478355646133
v 0.06423240900039673 3.467066526412964 -0.0710587278008461
v -0.00898422859609127 2.8092877864837646 -0.008733092807233334
v -0.00898422859609127 2.8092877864837646 -0.1704699546098709
v -0.00898422859609127 2.971024751663208 -0.1704699546098709
v -0.00898422859609127 2.971024751663208 -0.008733092807233334
v 0.19470079243183136 2.452631950378418 0.3886677324771881
v 0.19470079243183136 2.5768227577209473 0.2644769251346588
v 0.19470079243183136 2.5768227577209473 0.3886677324771881
v 0.19470079243183136 2.452631950378418 0.2644769251346588
v -0.3759482502937317 2.231149435043335 -0.10625779628753662
v -0.3759482502937317 2.3636839389801025 -0.23879215121269226
v -0.3759482502937317 2.3636839389801025 -0.10625779628753662
v -0.3759482502937317 2.231149435043335 -0.23879215121269226
v 0.2093825787305832 2.9547271728515625 0.048492588102817535
v 0.2093825787305832 3.0445809364318848 -0.04136122390627861
v 0.2093825787305832 3.0445809364318848 0.048492588102817535
v 0.2093825787305832 2.9547271728515625 -0.04136122390627861
vn -0.22463257610797882 -0.7238843441009521 0.6523278951644897
vn 0.41896238923072815 -0.4655991792678833 0.779543399810791
vn 0.44926515221595764 -0.7259688973426819 0.5207014083862305
vn -0.48522093892097473 0.3356627821922302 -0.807397723197937
vn 0.5919938683509827 0.42768844962120056 -0.683100163936615
vn 0.6256648302078247 0.28430768847465515 -0.7264383435249329
vn 0.8750595450401306 0.4213365316390991 0.23821477591991425
vn 0.9885473251342773 0.08880909532308578 0.12201271951198578
vn 0.27799850702285767 0.4456273913383484 0.8509600758552551
vn 0.22900918126106262 0.05908204987645149 0.9716296195983887
vn -0.6368128061294556 0.44846323132514954 0.6271763443946838
vn -0.6532337665557861 0.10708793997764587 0.7495450973510742
vn -0.9225207567214966 0.3858839273452759 -0.007001921534538269
vn -0.9860745668411255 0.14339134097099304 0.0842370018362999
vn -0.7301034927368164 0.1259811520576477 -0.6716231107711792
vn -0.601632297039032 0.4352092444896698 -0.6697995662689209
vn 0.18504579365253448 0.1213773563504219 -0.9752054214477539
vn -0.9106481075286865 0.4131661057472229 -0.0037157200276851654
vn -0.5383703112602234 0.30107077956199646 0.7870919704437256
vn 0.39576947689056396 0.31290626525878906 0.8633980751037598
vn 0.9539535045623779 0.2836584448814392 0.09752208739519119
vn 0.6425913572311401 -0.18064755201339722 0.7446091771125793
vn -0.42554759979248047 -0.21091707050800323 0.8800131678581238
vn -0.9977231621742249 -0.0647684708237648 0.018802952021360397
vn -0.003096443833783269 -0.7841927409172058 0.6205095648765564
vn -0.7020083069801331 -0.7111920714378357 -0.03728567436337471
vn -0.38505011796951294 -0.19419141113758087 -0.9022339582443237
vn 0.019553476944565773 -0.7495654821395874 -0.6616412997245789
vn 0.649584174156189 -0.759492814540863 -0.03480061516165733
vn -0.08344541490077972 -0.9945780634880066 -0.06205935776233673
vn 0.6905453205108643 -0.1545846313238144 -0.7065767645835876
vn 0.9862634539604187 -0.1647871881723404 -0.011384702287614346
vn 0.22900918126106262 0.05908204987645149 0.9716296195983887
vn 0.9885473251342773 0.08880909532308578 0.12201271951198578
vn -0.3868151605129242 -0.4787881374359131 0.7881218194961548
vn -0.6735249161720276 -0.7391588687896729 0.0028942024800926447
vn -0.6532337665557861 0.10708793997764587 0.7495450973510742
vn -0.9352556467056274 -0.3539620637893677 0.0027820344548672438
vn -0.42610684037208557 -0.453113317489624 -0.7830206155776978
vn -0.2206604778766632 -0.741858720779419 -0.6332097053527832
vn 0.41072311997413635 -0.4429730772972107 -0.7969199419021606
vn 0.44132107496261597 -0.7399149537086487 -0.5077022910118103
vn 0.8270381093025208 -0.5621428489685059 0.001822040881961584
vn 0.6735246777534485 -0.7391590476036072 0.0028945060912519693
vn -0.9860745668411255 0.14339134097099304 0.0842370018362999
vn -0.7301034927368164 0.1259811520576477 -0.6716231107711792
vn 0.18504579365253448 0.1213773563504219 -0.9752054214477539
vn 1 0 0
vn 1 0 0
vn 1 0 0
vn 1 0 0
vn 1 0 0
vn 1 0 0
vn 1 0 0
vn 1 0 0
vn 1 0 0
vn 1 0 0
vn 1 0 0
vn 1 0 0
vn 1 0 0
vn 1 0 0
vn 1 0 0
vn 1 0 0
vt 0.3266315162181854 0.9772095680236816
vt 0.47686395049095154 0.8957694172859192
vt 0.5478931665420532 0.9792422652244568
vt 0.3863638639450073 0.2520453929901123
vt 0.6326230764389038 0.3754030466079712
vt 0.7242910861968994 0.270423948764801
vt 0.8421827554702759 0.43190228939056396
vt 0.6757274866104126 0.7120237350463867
vt 0.5192573070526123 0.3756656050682068
vt 0.5342373847961426 0.6198008060455322
vt 0.3361916244029999 0.3708001375198364
vt 0.45224130153656006 0.6351814270019531
vt 0.2706766128540039 0.3752843141555786
vt 0.35501036047935486 0.6955630779266357
vt 0.43745681643486023 0.6423328518867493
vt 0.38412824273109436 0.36806654930114746
vt 0.5072669982910156 0.6256494522094727
vt 0.17974317073822021 0.25730884075164795
vt 0.3998320400714874 0.25201427936553955
vt 0.6690678596496582 0.26690882444381714
vt 0.9119374752044678 0.2767600417137146
vt 0.7995496988296509 0.14083600044250488
vt 0.3834240436553955 0.13948392868041992
vt 0.15654142200946808 0.14966142177581787
vt 0.5549626350402832 0.04993939399719238
vt 0.14357566833496094 0.050371408462524414
vt 0.38342416286468506 0.13948369026184082
vt 0.5549626350402832 0.04993939399719238
vt 0.944511890411377 0.04306530952453613
vt 0.3914552927017212 0.030266404151916504
vt 0.7734826803207397 0.14089608192443848
vt 0.967540979385376 0.13714969158172607
vt 0.6198990345001221 0.6838295459747314
vt 0.4879753291606903 0.6412162780761719
vt 0.3830188810825348 0.8998107314109802
vt 0.11021924018859863 0.9275401830673218
vt 0.4300311207771301 0.6989837884902954
vt 0.30636000633239746 0.8173524737358093
vt 0.3945938050746918 0.9216740727424622
vt 0.29268866777420044 0.971690833568573
vt 0.5042275190353394 0.9103864431381226
vt 0.5139504671096802 0.9737235903739929
vt 0.5216797590255737 0.8406708240509033
vt 0.663261890411377 0.8374026417732239
vt 0.3514791429042816 0.7053911089897156
vt 0.4197903871536255 0.645789623260498
vt 0.5570149421691895 0.6402824521064758
vt 0.0004995167255401611 0.0004994869232177734
vt 0.9995005130767822 0.0004994869232177734
vt 0.9995005130767822 0.9995005130767822
vt 0.0004995167255401611 0.9995005130767822
vt 0.0004995167255401611 0.0004994869232177734
vt 0.9995005130767822 0.9995005130767822
vt 0.0004995167255401611 0.9995005130767822
vt 0.9995005130767822 0.0004994869232177734
vt 0.0004995167255401611 0.0004994869232177734
vt 0.9995005130767822 0.9995005130767822
vt 0.0004995167255401611 0.9995005130767822
vt 0.9995005130767822 0.0004994869232177734
vt 0.0004995167255401611 0.0004994869232177734
vt 0.9995005130767822 0.9995005130767822
vt 0.0004995167255401611 0.9995005130767822
vt 0.9995005130767822 0.0004994869232177734
g Geoset0
s 1
usemtl mat_spidereggsack
f 1/1/1 2/2/2 3/3/3
f 4/4/4 5/5/5 6/6/6
f 6/6/6 5/5/5 7/7/7
f 5/5/5 8/8/8 7/7/7
f 9/9/9 7/7/7 8/8/8
f 9/9/9 8/8/8 10/10/10
f 11/11/11 9/9/9 10/10/10
f 11/11/11 10/10/10 12/12/12
f 13/13/13 11/11/11 12/12/12
f 13/13/13 12/12/12 14/14/14
f 13/13/13 14/14/14 15/15/15
f 16/16/16 15/15/15 17/17/17
f 13/13/13 15/15/15 16/16/16
f 18/18/18 13/13/13 16/16/16
f 18/18/18 11/11/11 13/13/13
f 18/18/18 19/19/19 11/11/11
f 19/19/19 9/9/9 11/11/11
f 19/19/19 20/20/20 9/9/9
f 20/20/20 7/7/7 9/9/9
f 20/20/20 21/21/21 7/7/7
f 22/22/22 21/21/21 20/20/20
f 23/23/23 22/22/22 20/20/20
f 23/23/23 20/20/20 19/19/19
f 24/24/24 23/23/23 19/19/19
f 24/24/24 19/19/19 18/18/18
f 24/24/24 18/18/18 4/4/4
f 18/18/18 16/16/16 4/4/4
f 4/4/4 16/16/16 5/5/5
f 16/16/16 17/17/17 5/5/5
f 5/5/5 17/17/17 8/8/8
f 25/25/25 22/22/22 23/23/23
f 26/26/26 25/25/25 23/23/23
f 26/26/26 23/23/23 24/24/24
f 26/26/26 24/24/24 27/27/27
f 24/24/24 4/4/4 27/27/27
f 27/27/27 4/4/4 6/6/6
f 28/28/28 29/29/29 30/30/30
f 28/28/28 31/31/31 29/29/29
f 29/29/29 31/31/31 32/32/32
f 31/31/31 21/21/21 32/32/32
f 22/22/22 32/32/32 21/21/21
f 6/6/6 7/7/7 21/21/21
f 31/31/31 6/6/6 21/21/21
f 27/27/27 6/6/6 31/31/31
f 28/28/28 27/27/27 31/31/31
f 26/26/26 27/27/27 28/28/28
f 26/26/26 28/28/28 30/30/30
f 26/26/26 30/30/30 25/25/25
f 25/25/25 30/30/30 29/29/29
f 25/25/25 29/29/29 22/22/22
f 29/29/29 32/32/32 22/22/22
f 2/2/2 33/33/33 34/34/34
f 35/35/35 33/33/33 2/2/2
f 1/1/1 35/35/35 2/2/2
f 36/36/36 35/35/35 1/1/1
f 35/35/35 37/37/37 33/33/33
f 38/38/38 37/37/37 35/35/35
f 36/36/36 38/38/38 35/35/35
f 36/36/36 39/39/39 38/38/38
f 36/36/36 40/40/40 39/39/39
f 40/40/40 41/41/41 39/39/39
f 40/40/40 42/42/42 41/41/41
f 42/42/42 43/43/43 41/41/41
f 42/42/42 44/44/44 43/43/43
f 3/3/3 43/43/43 44/44/44
f 38/38/38 45/45/45 37/37/37
f 38/38/38 46/46/46 45/45/45
f 38/38/38 39/39/39 46/46/46
f 39/39/39 47/47/47 46/46/46
f 39/39/39 41/41/41 47/47/47
f 41/41/41 34/34/34 47/47/47
f 41/41/41 43/43/43 34/34/34
f 2/2/2 34/34/34 43/43/43
f 3/3/3 2/2/2 43/43/43
g Geoset1
s 1
usemtl mat_spidereggs01
f 48/48/48 49/49/49 50/50/50
f 48/48/48 50/50/50 51/51/51
f 60/60/60 61/61/61 62/62/62
f 60/60/60 63/63/63 61/61/61
f 56/56/56 57/57/57 58/58/58
f 56/56/56 59/59/59 57/57/57
f 52/52/52 53/53/53 54/54/54
f 52/52/52 55/55/55 53/53/53
