# Exported using wow.export v0.1.64
o sholazar_vine02
mtllib sholazar_vine02.mtl
v 1.8623381853103638 26.052282333374023 3.5963923931121826
v 1.862337589263916 34.416744232177734 6.492940902709961
v 4.598867893218994 34.416744232177734 11.02293872833252
v 0.04654914513230324 24.75298500061035 9.818004608154297
v 0.04654882848262787 18.42522621154785 0.16998043656349182
v 3.8221168518066406 13.117544174194336 0.16998064517974854
v 3.8221168518066406 20.333566665649414 14.237421989440918
v 0.046549782156944275 34.40100860595703 13.814345359802246
v 3.822117328643799 34.40100860595703 20.06434440612793
v 0.04654882848262787 5.92522668838501 0.16998107731342316
v 0.04654882848262787 15.914152145385742 18.65683937072754
v 0.04654946178197861 34.40100860595703 26.31434440612793
v -1.9167025089263916 24.75298309326172 -9.234915733337402
v -2.610661506652832 34.40100860595703 -13.17054557800293
v 0.02224666066467762 34.401004791259766 -19.98121452331543
v 1.034082055091858 20.33356475830078 -14.242813110351562
v 0.04654882848262787 18.42522621154785 0.16998043656349182
v 3.8221168518066406 13.117544174194336 0.16998064517974854
v -4.781261920928955 34.40100860595703 -25.480640411376953
v -3.451550245285034 15.914149284362793 -17.939468383789062
v 0.04654882848262787 5.92522668838501 0.16998107731342316
v 4.5988688468933105 16.977313995361328 -3.396491289138794
v 1.8623381853103638 20.82431983947754 -3.396491765975952
v -0.2867499887943268 26.052282333374023 -10.447712898254395
v 1.8519777059555054 22.849088668823242 -14.077434539794922
v -0.7897297143936157 34.41674041748047 -13.300254821777344
v 1.1186002492904663 34.41674041748047 -18.236623764038086
v 1.862338662147522 11.764325141906738 -3.396491050720215
v -1.399206519126892 19.645896911621094 -16.75676918029785
v -2.3629813194274902 34.4167366027832 -22.222606658935547
v 4.598867893218994 34.416744232177734 11.02293872833252
v 1.862337589263916 34.416744232177734 6.492940902709961
v 1.8623381853103638 26.052282333374023 3.5963923931121826
v 4.5988688468933105 22.849092483520508 6.799585819244385
v 1.8623381853103638 20.82431983947754 -3.396491765975952
v 4.5988688468933105 16.977313995361328 -3.396491289138794
v 1.8623379468917847 34.416744232177734 15.552932739257812
v 1.8623387813568115 19.645898818969727 10.002778053283691
v 1.862338662147522 11.764325141906738 -3.396491050720215
v 3.822117328643799 34.40100860595703 20.06434440612793
v 0.04654946178197861 34.40100860595703 26.31434440612793
v 0.04654882848262787 15.914152145385742 18.65683937072754
v 3.8221168518066406 20.333566665649414 14.237421989440918
v 0.046549782156944275 34.40100860595703 13.814345359802246
v 0.04654914513230324 24.75298500061035 9.818004608154297
v 0.04654882848262787 5.92522668838501 0.16998107731342316
v 3.8221168518066406 13.117544174194336 0.16998064517974854
v 0.04654882848262787 18.42522621154785 0.16998043656349182
v 3.8221168518066406 13.117544174194336 0.16998064517974854
v 0.04654882848262787 5.92522668838501 0.16998107731342316
v -3.451550245285034 15.914149284362793 -17.939468383789062
v 1.034082055091858 20.33356475830078 -14.242813110351562
v 0.04654882848262787 18.42522621154785 0.16998043656349182
v -1.9167025089263916 24.75298309326172 -9.234915733337402
v -4.781261920928955 34.40100860595703 -25.480640411376953
v 0.02224666066467762 34.401004791259766 -19.98121452331543
v -2.610661506652832 34.40100860595703 -13.17054557800293
v -1.399206519126892 19.645896911621094 -16.75676918029785
v -2.3629813194274902 34.4167366027832 -22.222606658935547
v 1.1186002492904663 34.41674041748047 -18.236623764038086
v 1.8519777059555054 22.849088668823242 -14.077434539794922
v -0.7897297143936157 34.41674041748047 -13.300254821777344
v -0.2867499887943268 26.052282333374023 -10.447712898254395
v 1.862338662147522 11.764325141906738 -3.396491050720215
v 4.5988688468933105 16.977313995361328 -3.396491289138794
v 1.8623381853103638 20.82431983947754 -3.396491765975952
v 1.8623387813568115 19.645898818969727 10.002778053283691
v 1.862338662147522 11.764325141906738 -3.396491050720215
v 4.5988688468933105 16.977313995361328 -3.396491289138794
v 4.5988688468933105 22.849092483520508 6.799585819244385
v 1.8623379468917847 34.416744232177734 15.552932739257812
v 1.8623381853103638 20.82431983947754 -3.396491765975952
vn 0.8536847829818726 0.2974277436733246 -0.4275032579898834
vn 0.8425441980361938 0.1762535274028778 -0.5089734196662903
vn 0.9928081035614014 -0.0436832569539547 0.11146239936351776
vn -0.8470871448516846 -0.35059189796447754 0.3994103968143463
vn -0.8203631043434143 -0.5612287521362305 0.10966618359088898
vn -0.9906812906265259 0.09320098161697388 0.09931871294975281
vn -0.9935397505760193 0.06998314708471298 -0.08933702111244202
vn -0.8369631171226501 -0.20942705869674683 0.505601704120636
vn -0.9904890060424805 0.0526541993021965 -0.12711834907531738
vn -0.879933774471283 0.4658817946910858 0.09311684966087341
vn -0.8557230830192566 0.34945598244667053 -0.38159993290901184
vn -0.8369630575180054 0.2094271332025528 -0.5056017637252808
vn -0.9113956689834595 -0.3301851153373718 -0.2456332892179489
vn -0.9120444655418396 -0.20942723751068115 -0.35258346796035767
vn -0.953367292881012 0.052654165774583817 0.29718396067619324
vn -0.9642807841300964 0.07195807993412018 0.25492075085639954
vn -0.8203631043434143 -0.5612287521362305 0.10966618359088898
vn -0.9906812906265259 0.09320098161697388 0.09931871294975281
vn -0.7364507913589478 0.209427148103714 0.643257737159729
vn -0.7803957462310791 0.3444930911064148 0.5218304395675659
vn -0.879933774471283 0.4658817946910858 0.09311684966087341
vn -0.9896154999732971 0.10044308006763458 0.1028219535946846
vn -0.8240970969200134 -0.5629801750183105 0.06258784979581833
vn -0.9052919745445251 -0.3464793562889099 -0.245760977268219
vn -0.9549886584281921 0.0465196892619133 0.29297202825546265
vn -0.9148588180541992 -0.18480688333511353 -0.3589983284473419
vn -0.9572371244430542 0.04517759010195732 0.2857552170753479
vn -0.8790132999420166 0.463636577129364 0.11125077307224274
vn -0.7708384394645691 0.31800153851509094 0.5519811511039734
vn -0.7393278479576111 0.19072258472442627 0.645770251750946
vn -0.9928081035614014 0.043683264404535294 -0.11146240681409836
vn -0.8425441980361938 -0.1762535274028778 0.5089734196662903
vn -0.8536847829818726 -0.2974277436733246 0.4275032579898834
vn -0.9945098757743835 0.06662756949663162 -0.08068995177745819
vn -0.8240970969200134 -0.5629801750183105 0.06258784979581833
vn -0.9896154999732971 0.10044308006763458 0.1028219535946846
vn -0.8390056490898132 0.18792490661144257 -0.5106405019760132
vn -0.8562134504318237 0.33847302198410034 -0.39030060172080994
vn -0.8790132999420166 0.463636577129364 0.11125077307224274
vn 0.9904890060424805 -0.052654191851615906 0.12711834907531738
vn 0.8369630575180054 -0.2094271332025528 0.5056017637252808
vn 0.8557230830192566 -0.34945598244667053 0.38159993290901184
vn 0.9935397505760193 -0.06998314708471298 0.08933699876070023
vn 0.8369630575180054 0.20942705869674683 -0.5056017637252808
vn 0.8470871448516846 0.35059189796447754 -0.3994103968143463
vn 0.879933774471283 -0.4658817946910858 -0.09311683475971222
vn 0.9906812906265259 -0.09320101141929626 -0.09931871294975281
vn 0.8203631043434143 0.5612287521362305 -0.10966617614030838
vn 0.9906812906265259 -0.09320101141929626 -0.09931871294975281
vn 0.879933774471283 -0.4658817946910858 -0.09311683475971222
vn 0.7803957462310791 -0.3444931209087372 -0.5218304395675659
vn 0.9642807841300964 -0.07195808738470078 -0.25492075085639954
vn 0.8203631043434143 0.5612287521362305 -0.10966617614030838
vn 0.9113956689834595 0.3301851153373718 0.2456332892179489
vn 0.736450731754303 -0.209427148103714 -0.6432577967643738
vn 0.953367292881012 -0.052654165774583817 -0.29718393087387085
vn 0.9120444655418396 0.20942723751068115 0.35258346796035767
vn 0.7708383798599243 -0.31800150871276855 -0.5519811511039734
vn 0.7393278479576111 -0.19072258472442627 -0.645770251750946
vn 0.9572371244430542 -0.04517759382724762 -0.2857552468776703
vn 0.9549886584281921 -0.046519685536623 -0.29297199845314026
vn 0.9148588180541992 0.18480688333511353 0.35899829864501953
vn 0.9052919745445251 0.3464793562889099 0.245760977268219
vn 0.8790132999420166 -0.463636577129364 -0.11125075817108154
vn 0.9896154999732971 -0.10044310241937637 -0.1028219684958458
vn 0.8240970969200134 0.5629801750183105 -0.06258786469697952
vn 0.8562134504318237 -0.33847302198410034 0.39030060172080994
vn 0.8790132999420166 -0.463636577129364 -0.11125075817108154
vn 0.9896154999732971 -0.10044310241937637 -0.1028219684958458
vn 0.9945098757743835 -0.06662757694721222 0.08068995177745819
vn 0.8390056490898132 -0.18792490661144257 0.5106405019760132
vn 0.8240970969200134 0.5629801750183105 -0.06258786469697952
vt 0.0005004405975341797 0.5855411291122437
vt 0.0005007386207580566 0.33579087257385254
vt 0.5000005960464478 0.33579087257385254
vt 0.9995001554489136 0.7497501969337463
vt 0.9994998574256897 0.49976539611816406
vt 0.5 0.49976539611816406
vt 0.5000002980232239 0.7497501969337463
vt 0.9995004534721375 0.9995003938674927
vt 0.5000005960464478 0.9995003938674927
vt 0.0005001425743103027 0.49976539611816406
vt 0.0005004405975341797 0.7497502565383911
vt 0.0005007386207580566 0.9995003938674927
vt 0.9994995594024658 0.5855411291122437
vt 0.9994992613792419 0.33579087257385254
vt 0.49999940395355225 0.33579087257385254
vt 0.4999997019767761 0.5855411887168884
vt 0.9994998574256897 0.83529132604599
vt 0.5 0.83529132604599
vt 0.0004995465278625488 0.33579087257385254
vt 0.0004998445510864258 0.5855411887168884
vt 0.0005001425743103027 0.83529132604599
vt 0.5 0.49976539611816406
vt 0.0005001425743103027 0.49976539611816406
vt 0.0004998445510864258 0.7497501969337463
vt 0.4999997019767761 0.7497501969337463
vt 0.0004995465278625488 0.9995003938674927
vt 0.49999940395355225 0.9995003938674927
vt 0.9994998574256897 0.49976539611816406
vt 0.9994995594024658 0.7497502565383911
vt 0.9994992613792419 0.9995003938674927
vt 0.5000005960464478 0.33579087257385254
vt 0.0005007386207580566 0.33579087257385254
vt 0.0005004405975341797 0.5855411291122437
vt 0.5000002980232239 0.5855411887168884
vt 0.0005001425743103027 0.83529132604599
vt 0.5 0.83529132604599
vt 0.9995004534721375 0.33579087257385254
vt 0.9995001554489136 0.5855411887168884
vt 0.9994998574256897 0.83529132604599
vt 0.5000005960464478 0.9995003938674927
vt 0.0005007386207580566 0.9995003938674927
vt 0.0005004405975341797 0.7497502565383911
vt 0.5000002980232239 0.7497501969337463
vt 0.9995004534721375 0.9995003938674927
vt 0.9995001554489136 0.7497501969337463
vt 0.0005001425743103027 0.49976539611816406
vt 0.5 0.49976539611816406
vt 0.9994998574256897 0.49976539611816406
vt 0.5 0.83529132604599
vt 0.0005001425743103027 0.83529132604599
vt 0.0004998445510864258 0.5855411887168884
vt 0.4999997019767761 0.5855411887168884
vt 0.9994998574256897 0.83529132604599
vt 0.9994995594024658 0.5855411291122437
vt 0.0004995465278625488 0.33579087257385254
vt 0.49999940395355225 0.33579087257385254
vt 0.9994992613792419 0.33579087257385254
vt 0.9994995594024658 0.7497502565383911
vt 0.9994992613792419 0.9995003938674927
vt 0.49999940395355225 0.9995003938674927
vt 0.4999997019767761 0.7497501969337463
vt 0.0004995465278625488 0.9995003938674927
vt 0.0004998445510864258 0.7497501969337463
vt 0.9994998574256897 0.49976539611816406
vt 0.5 0.49976539611816406
vt 0.0005001425743103027 0.49976539611816406
vt 0.9995001554489136 0.5855411887168884
vt 0.9994998574256897 0.83529132604599
vt 0.5 0.83529132604599
vt 0.5000002980232239 0.5855411887168884
vt 0.9995004534721375 0.33579087257385254
vt 0.0005001425743103027 0.83529132604599
g Geoset0
s 1
usemtl mat_sholazar_vine01
f 1/1/1 2/2/2 3/3/3
f 4/4/4 5/5/5 6/6/6
f 6/6/6 7/7/7 4/4/4
f 8/8/8 4/4/4 7/7/7
f 7/7/7 9/9/9 8/8/8
f 7/7/7 6/6/6 10/10/10
f 10/10/10 11/11/11 7/7/7
f 9/9/9 7/7/7 11/11/11
f 11/11/11 12/12/12 9/9/9
f 13/13/13 14/14/14 15/15/15
f 15/15/15 16/16/16 13/13/13
f 17/17/17 13/13/13 16/16/16
f 16/16/16 18/18/18 17/17/17
f 16/16/16 15/15/15 19/19/19
f 19/19/19 20/20/20 16/16/16
f 18/18/18 16/16/16 20/20/20
f 20/20/20 21/21/21 18/18/18
f 22/22/22 23/23/23 24/24/24
f 24/24/24 25/25/25 22/22/22
f 25/25/25 24/24/24 26/26/26
f 26/26/26 27/27/27 25/25/25
f 28/28/28 22/22/22 25/25/25
f 25/25/25 29/29/29 28/28/28
f 29/29/29 25/25/25 27/27/27
f 27/27/27 30/30/30 29/29/29
f 31/31/31 32/32/32 33/33/33
f 33/33/33 34/34/34 31/31/31
f 34/34/34 33/33/33 35/35/35
f 35/35/35 36/36/36 34/34/34
f 37/37/37 31/31/31 34/34/34
f 34/34/34 38/38/38 37/37/37
f 38/38/38 34/34/34 36/36/36
f 36/36/36 39/39/39 38/38/38
f 40/40/40 41/41/41 42/42/42
f 42/42/42 43/43/43 40/40/40
f 44/44/44 40/40/40 43/43/43
f 43/43/43 45/45/45 44/44/44
f 43/43/43 42/42/42 46/46/46
f 46/46/46 47/47/47 43/43/43
f 45/45/45 43/43/43 47/47/47
f 47/47/47 48/48/48 45/45/45
f 49/49/49 50/50/50 51/51/51
f 51/51/51 52/52/52 49/49/49
f 53/53/53 49/49/49 52/52/52
f 52/52/52 54/54/54 53/53/53
f 52/52/52 51/51/51 55/55/55
f 55/55/55 56/56/56 52/52/52
f 54/54/54 52/52/52 56/56/56
f 56/56/56 57/57/57 54/54/54
f 58/58/58 59/59/59 60/60/60
f 60/60/60 61/61/61 58/58/58
f 61/61/61 60/60/60 62/62/62
f 62/62/62 63/63/63 61/61/61
f 64/64/64 58/58/58 61/61/61
f 61/61/61 65/65/65 64/64/64
f 65/65/65 61/61/61 63/63/63
f 63/63/63 66/66/66 65/65/65
f 67/67/67 68/68/68 69/69/69
f 69/69/69 70/70/70 67/67/67
f 71/71/71 67/67/67 70/70/70
f 70/70/70 3/3/3 71/71/71
f 70/70/70 69/69/69 72/72/72
f 72/72/72 1/1/1 70/70/70
f 3/3/3 70/70/70 1/1/1
