# Exported using wow.export v0.1.64
o sholazar_root02
mtllib sholazar_root02.mtl
v 4.945559501647949 -0.6204617619514465 0.21094055473804474
v 4.946264743804932 -0.6187065839767456 -0.5729391574859619
v 5.170847415924072 -0.6205191612243652 -0.18285444378852844
v -4.399718761444092 -0.6119521260261536 -0.6267058253288269
v -2.4911186695098877 -0.6335757374763489 0.8401790261268616
v -3.868912935256958 -0.6341331601142883 0.6575881242752075
v -2.067624092102051 -0.6222065091133118 0.289327472448349
v -2.174933910369873 -0.5886560678482056 -1.545818567276001
v -1.6441292762756348 -0.6108368039131165 -0.2615240812301636
v -3.9762234687805176 -0.6005828976631165 -1.1775574684143066
v -3.5527291297912598 -0.5892132520675659 -1.7284091711044312
v -3.5527291297912598 -0.5892132520675659 -1.7284091711044312
v -3.9762234687805176 -0.6005828976631165 -1.1775574684143066
v -2.2693464756011963 1.158448576927185 0.069402314722538
v -4.399718761444092 -0.6119521260261536 -0.6267058253288269
v -2.42029070854187 1.2262555360794067 0.5883718132972717
v -2.2311952114105225 0.5804896950721741 1.3198076486587524
v 0.334423691034317 0.93352210521698 1.809874176979065
v 0.18580827116966248 -0.12432048469781876 1.1953997611999512
v 1.7724363803863525 -0.3379150927066803 0.0806550458073616
v 0.07763922214508057 -0.09380453079938889 0.7116014361381531
v 1.655890941619873 -0.29914501309394836 -0.3660198748111725
v 1.539345383644104 -0.260375052690506 -0.8126947283744812
v 0.026737913489341736 1.5830717086791992 1.1649420261383057
v 0.08422284573316574 1.506255865097046 0.6843903064727783
v -2.1108992099761963 1.0808792114257812 -0.4742901623249054
v -1.7022669315338135 0.08888529986143112 -0.9971737265586853
v -2.174933910369873 -0.5886560678482056 -1.545818567276001
v -1.2258330583572388 -0.6194472312927246 0.07387515902519226
v -1.6441292762756348 -0.6108368039131165 -0.2615240812301636
v -2.067624092102051 -0.6222065091133118 0.289327472448349
v 0.15068510174751282 1.433712363243103 0.20145229995250702
v 0.639251708984375 0.6376859545707703 -0.12486505508422852
v -0.020666366443037987 -0.06558961421251297 0.2140657901763916
v -1.3845146894454956 -0.5969553589820862 0.6699866652488708
v -1.5335693359375 -0.565912127494812 1.2195919752120972
v -2.4911186695098877 -0.6335757374763489 0.8401790261268616
v -3.868912935256958 -0.6341331601142883 0.6575881242752075
v 1.5101380348205566 0.5746600031852722 -1.2130444049835205
v 4.271111488342285 -0.6167793273925781 -0.17543382942676544
v 4.495693206787109 -0.618591845035553 0.21465085446834564
v 3.1192283630371094 0.5002899169921875 0.051476527005434036
v 3.653883695602417 0.9666817784309387 -0.13897845149040222
v 1.947114109992981 1.254615306854248 0.17330512404441833
v 3.7772505283355713 0.9732742309570312 -0.4848836362361908
v 1.8305683135986328 1.2933851480484009 -0.2733699083328247
v 1.7140231132507324 1.3321552276611328 -0.7200448513031006
v 4.49639892578125 -0.6168367862701416 -0.5692287087440491
v 4.383754730224609 -0.6168079972267151 -0.3723311722278595
v 2.9546732902526855 0.05367540940642357 -0.7957819104194641
v 2.831305980682373 0.04708293452858925 -0.44987720251083374
v 1.9763215780258179 0.41958001255989075 0.5736545920372009
v 4.946264743804932 -0.6187065839767456 -0.5729391574859619
v 3.6126954555511475 0.5266596674919128 -1.3321423530578613
v 3.9006173610687256 0.9798668026924133 -0.8307884931564331
v 3.07804012298584 0.06026788428425789 -1.1416869163513184
v 5.058204650878906 -0.6204904317855835 0.014042879454791546
v 5.170847415924072 -0.6205191612243652 -0.18285444378852844
v 4.945559501647949 -0.6204617619514465 0.21094055473804474
v 4.383754730224609 -0.6168079972267151 -0.3723311722278595
v 4.49639892578125 -0.6168367862701416 -0.5692287087440491
v 4.271111488342285 -0.6167793273925781 -0.17543382942676544
v 4.495693206787109 -0.618591845035553 0.21465085446834564
vn -0.004177876748144627 -0.9999887347221375 -0.002244369126856327
vn -0.004174978006631136 -0.9999887943267822 -0.0022426226641982794
vn -0.004180344752967358 -0.9999887347221375 -0.002245691604912281
vn 0.0028490836266428232 -0.9998258352279663 -0.018445506691932678
vn 0.002849068259820342 -0.9998258352279663 -0.01844552531838417
vn 0.0028490193653851748 -0.9998258352279663 -0.018445445224642754
vn 0.0028492589481174946 -0.9998258352279663 -0.018445570021867752
vn 0.0028492107521742582 -0.9998257756233215 -0.018445666879415512
vn 0.002849849406629801 -0.9998257756233215 -0.018445609137415886
vn 0.002849115524441004 -0.9998257756233215 -0.018445642665028572
vn 0.0028489907272160053 -0.9998257756233215 -0.018446214497089386
vn -0.31202971935272217 0.7464455962181091 -0.5877554416656494
vn -0.5146761536598206 0.7686654925346375 -0.3798181116580963
vn -0.3487376868724823 0.9072511792182922 -0.23511120676994324
vn -0.6294734477996826 0.7717623114585876 -0.09025538712739944
vn -0.48396289348602295 0.8391895890235901 0.24807405471801758
vn -0.3671010136604309 0.27994149923324585 0.8870567083358765
vn 0.2549261152744293 0.18645022809505463 0.9488145112991333
vn 0.1860315501689911 -0.7950727939605713 0.5772793889045715
vn 0.25758096575737 -0.9152612686157227 0.30975621938705444
vn 0.09243743866682053 -0.992428719997406 -0.08087379485368729
vn 0.03818337991833687 -0.9960694909095764 -0.07992254197597504
vn -0.2709263563156128 -0.7808712720870972 -0.5628844499588013
vn 0.044595543295145035 0.9197746515274048 0.3899049162864685
vn -0.03329760581254959 0.9868150949478149 -0.15838941931724548
vn -0.18074247241020203 0.8113293647766113 -0.5559468269348145
vn 0.46545112133026123 0.17014293372631073 -0.8685658574104309
vn 0.3570198714733124 0.3841935396194458 -0.8514294624328613
vn 0.32441121339797974 -0.9250841736793518 -0.1974249631166458
vn -0.007269503548741341 -0.999835729598999 -0.016601670533418655
vn 0.02626090869307518 -0.9993466734886169 0.024830501526594162
vn -0.057525716722011566 0.8692501783370972 -0.49101418256759644
vn -0.45282700657844543 -0.08133814483880997 -0.8878805041313171
vn 0.14988194406032562 -0.8938104510307312 -0.42265626788139343
vn 0.1643286794424057 -0.9841615557670593 0.06649898737668991
vn 0.04043786600232124 -0.7137860655784607 0.6991954445838928
vn -0.004677535500377417 -0.982349693775177 0.18699519336223602
vn -0.6523194313049316 0.5624696612358093 0.508042573928833
vn -0.39546456933021545 0.05001799762248993 -0.9171183109283447
vn -0.5166019201278687 -0.8421958088874817 0.1543654054403305
vn -0.21294134855270386 -0.07005327194929123 0.9745504260063171
vn 0.09469283372163773 -0.18903808295726776 0.977393388748169
vn 0.3616276979446411 0.7276695966720581 0.582857072353363
vn 0.32669663429260254 0.8139911890029907 0.48029956221580505
vn 0.4649222195148468 0.8669495582580566 0.1795712262392044
vn 0.14581656455993652 0.9887391328811646 0.03365170210599899
vn -0.06221611797809601 0.882942795753479 -0.4653398394584656
vn -0.1341591775417328 -0.7376874089241028 -0.6616786122322083
vn -0.3641919493675232 -0.9077492356300354 -0.208219975233078
vn -0.05017580837011337 -0.9979501962661743 -0.03972142934799194
vn 0.04820745810866356 -0.9435837864875793 0.3276060223579407
vn 0.4991854131221771 -0.1472446471452713 0.8538928031921387
vn 0.687877357006073 0.2080049365758896 -0.6953838467597961
vn 0.2469789981842041 0.15757359564304352 -0.956123411655426
vn 0.5255804657936096 0.7910926938056946 -0.3129497468471527
vn -0.062336619943380356 -0.7165300250053406 -0.6947653293609619
vn 0.6657349467277527 0.6506294012069702 0.36534687876701355
vn 0.7701511979103088 0.6351326107978821 0.05893754959106445
vn 0.5037775635719299 0.5557883977890015 0.6612921953201294
vn -0.004174904897809029 -0.9999887943267822 -0.0022426447831094265
vn -0.004174864385277033 -0.9999887943267822 -0.002242359798401594
vn -0.004174872301518917 -0.9999887943267822 -0.0022427577059715986
vn -0.004174886271357536 -0.9999887943267822 -0.0022427383810281754
vt 0.05032184720039368 1.0840644836425781
vt 0.1480092704296112 1.0853159427642822
vt 0.0959378182888031 1.1094167232513428
vt 0.2976566553115845 0.05849093198776245
vt 0.08523565530776978 0.2661949396133423
vt 0.1290196180343628 0.11510276794433594
vt 0.14766216278076172 0.3134351968765259
vt 0.37872573733329773 0.30406367778778076
vt 0.21008870005607605 0.3606754541397095
vt 0.3600831627845764 0.10573118925094604
vt 0.42250972986221313 0.15297138690948486
vt 0.10314919054508209 0.9919503927230835
vt 0.007276253774762154 0.9919503927230835
vt 0.007276253774762154 0.824968695640564
vt 0.10314919054508209 0.9919503927230835
vt 0.10314919054508209 0.824968695640564
vt 0.22542507946491241 0.824968695640564
vt 0.2250862866640091 0.6607600450515747
vt 0.33012688159942627 0.6607600450515747
vt 0.3184610605239868 0.4564879536628723
vt 0.4136686623096466 0.6607600450515747
vt 0.3930519223213196 0.4564879536628723
vt 0.3184610605239868 0.4564879536628723
vt 0.11272470653057098 0.6607600450515747
vt 0.024625198915600777 0.6607600450515747
vt 0.10314919054508209 0.824968695640564
vt 0.22542507946491241 0.824968695640564
vt 0.22542507946491241 0.9919503927230835
vt 0.33973395824432373 0.824968695640564
vt 0.33973395824432373 0.9919503927230835
vt 0.430647075176239 0.9919503927230835
vt 0.11272470653057098 0.6607600450515747
vt 0.2250862866640091 0.6607600450515747
vt 0.33012688159942627 0.6607600450515747
vt 0.430647075176239 0.824968695640564
vt 0.33973395824432373 0.824968695640564
vt 0.33973395824432373 0.9919503927230835
vt 0.22542507946491241 0.9919503927230835
vt 0.22467483580112457 0.4564879536628723
vt 0.29840087890625 0.010702133178710938
vt 0.22396738827228546 0.010702133178710938
vt 0.22410346567630768 0.23395490646362305
vt 0.14050106704235077 0.23395490646362305
vt 0.12435202300548553 0.4564879536628723
vt 0.07495082914829254 0.23395490646362305
vt 0.04569174349308014 0.4564879536628723
vt 0.12435202300548553 0.4564879536628723
vt 0.29840087890625 0.010702133178710938
vt 0.35759997367858887 0.010702133178710938
vt 0.3644176721572876 0.23395490646362305
vt 0.3022586405277252 0.23395490646362305
vt 0.22467483580112457 0.4564879536628723
vt 0.22396738827228546 0.010702133178710938
vt 0.22410346567630768 0.23395490646362305
vt 0.14050106704235077 0.23395490646362305
vt 0.3022586405277252 0.23395490646362305
vt 0.08191733062267303 0.010702133178710938
vt 0.14434607326984406 0.010702133178710938
vt 0.14434607326984406 0.010702133178710938
vt 0.1316567063331604 1.0231869220733643
vt 0.1544646918773651 1.0358631610870361
vt 0.10884872078895569 1.0105106830596924
vt 0.05677726864814758 1.034611701965332
g Geoset0
s 1
usemtl mat_sholazarhugecanopy_tree01
f 1/1/1 2/2/2 3/3/3
f 4/4/4 5/5/5 6/6/6
f 4/4/4 7/7/7 5/5/5
f 4/4/4 8/8/8 7/7/7
f 8/8/8 9/9/9 7/7/7
f 4/4/4 10/10/10 8/8/8
f 10/10/10 11/11/11 8/8/8
f 12/12/12 13/13/13 14/14/14
f 14/14/14 13/13/13 15/15/15
f 15/15/15 16/16/16 14/14/14
f 17/17/17 16/16/16 15/15/15
f 16/16/16 17/17/17 18/18/18
f 19/19/19 18/18/18 17/17/17
f 18/18/18 19/19/19 20/20/20
f 20/20/20 19/19/19 21/21/21
f 21/21/21 22/22/22 20/20/20
f 23/23/23 22/22/22 21/21/21
f 18/18/18 24/24/24 16/16/16
f 16/16/16 24/24/24 25/25/25
f 25/25/25 14/14/14 16/16/16
f 26/26/26 14/14/14 25/25/25
f 14/14/14 26/26/26 12/12/12
f 12/12/12 26/26/26 27/27/27
f 27/27/27 28/28/28 12/12/12
f 28/28/28 27/27/27 29/29/29
f 29/29/29 30/30/30 28/28/28
f 31/31/31 30/30/30 29/29/29
f 25/25/25 32/32/32 26/26/26
f 26/26/26 32/32/32 33/33/33
f 33/33/33 27/27/27 26/26/26
f 27/27/27 33/33/33 34/34/34
f 34/34/34 29/29/29 27/27/27
f 35/35/35 29/29/29 34/34/34
f 29/29/29 35/35/35 31/31/31
f 31/31/31 35/35/35 36/36/36
f 36/36/36 37/37/37 31/31/31
f 38/38/38 37/37/37 36/36/36
f 39/39/39 33/33/33 32/32/32
f 33/33/33 39/39/39 23/23/23
f 23/23/23 34/34/34 33/33/33
f 21/21/21 34/34/34 23/23/23
f 34/34/34 21/21/21 35/35/35
f 35/35/35 21/21/21 19/19/19
f 19/19/19 36/36/36 35/35/35
f 17/17/17 36/36/36 19/19/19
f 36/36/36 17/17/17 38/38/38
f 15/15/15 38/38/38 17/17/17
f 40/40/40 41/41/41 42/42/42
f 43/43/43 42/42/42 41/41/41
f 42/42/42 43/43/43 44/44/44
f 44/44/44 43/43/43 45/45/45
f 45/45/45 46/46/46 44/44/44
f 47/47/47 46/46/46 45/45/45
f 46/46/46 47/47/47 32/32/32
f 32/32/32 47/47/47 39/39/39
f 48/48/48 49/49/49 50/50/50
f 50/50/50 49/49/49 40/40/40
f 40/40/40 51/51/51 50/50/50
f 42/42/42 51/51/51 40/40/40
f 51/51/51 42/42/42 52/52/52
f 44/44/44 52/52/52 42/42/42
f 52/52/52 44/44/44 24/24/24
f 24/24/24 44/44/44 46/46/46
f 46/46/46 25/25/25 24/24/24
f 32/32/32 25/25/25 46/46/46
f 53/53/53 54/54/54 55/55/55
f 54/54/54 53/53/53 48/48/48
f 48/48/48 56/56/56 54/54/54
f 50/50/50 56/56/56 48/48/48
f 56/56/56 50/50/50 22/22/22
f 22/22/22 50/50/50 51/51/51
f 51/51/51 20/20/20 22/22/22
f 52/52/52 20/20/20 51/51/51
f 20/20/20 52/52/52 18/18/18
f 24/24/24 18/18/18 52/52/52
f 57/57/57 58/58/58 55/55/55
f 55/55/55 58/58/58 53/53/53
f 22/22/22 23/23/23 56/56/56
f 56/56/56 23/23/23 39/39/39
f 39/39/39 54/54/54 56/56/56
f 54/54/54 39/39/39 47/47/47
f 47/47/47 55/55/55 54/54/54
f 45/45/45 55/55/55 47/47/47
f 55/55/55 45/45/45 57/57/57
f 57/57/57 45/45/45 43/43/43
f 43/43/43 59/59/59 57/57/57
f 41/41/41 59/59/59 43/43/43
f 60/60/60 61/61/61 2/2/2
f 1/1/1 60/60/60 2/2/2
f 1/1/1 62/62/62 60/60/60
f 1/1/1 63/63/63 62/62/62
