# Exported using wow.export v0.1.64
o sholazar_root06
mtllib sholazar_root06.mtl
v 2.6107890605926514 2.7619314193725586 0.2786916494369507
v -1.159933090209961 2.2747371196746826 2.5312798023223877
v -1.159933090209961 4.950869560241699 2.5312798023223877
v 5.733334541320801 3.334700584411621 -3.4828646183013916
v 7.638556003570557 -0.32869115471839905 -1.598770260810852
v 7.59901762008667 -0.32869094610214233 -3.6225743293762207
v 5.997854709625244 -0.3286910653114319 -5.029093265533447
v 4.464257717132568 3.0065131187438965 -4.710658073425293
v 3.7732996940612793 -0.32869115471839905 -4.993793487548828
v 5.8555707931518555 3.0065131187438965 -1.8017442226409912
v 6.093014240264893 -0.32869115471839905 -0.14381177723407745
v 2.878272294998169 6.556040287017822 -2.5265934467315674
v 4.759113311767578 1.957965612411499 -0.6525937914848328
v 2.7924318313598633 -0.4019726812839508 -1.677466630935669
v 3.787365436553955 5.690598964691162 -1.1407030820846558
v 2.7919962406158447 2.214197874069214 -4.765377998352051
v 2.1864147186279297 1.4442529678344727 -2.0708343982696533
v 3.6331515312194824 4.346213340759277 -0.12526629865169525
v 0.7002701759338379 7.1993889808654785 1.844491958618164
v -0.4256927967071533 8.02736759185791 0.4356235861778259
v -3.443950891494751 7.054199695587158 2.4291622638702393
v -1.5516554117202759 7.013929843902588 -0.9732455015182495
v 1.4388266801834106 5.989706516265869 -3.4706854820251465
v 0.31265679001808167 4.46030330657959 -3.4195263385772705
v 1.2553256750106812 2.8054914474487305 -1.1746329069137573
v 1.1662571430206299 5.287967681884766 2.427560806274414
v -2.201016902923584 6.074737071990967 3.4576494693756104
v -2.01764178276062 5.40286111831665 -1.5563139915466309
v -0.42569226026535034 3.5648324489593506 0.43562355637550354
v -1.13546621799469 4.732367515563965 3.5192606449127197
v -4.135827541351318 6.517938137054443 1.0367048978805542
v -3.871009111404419 5.223287105560303 0.09639432281255722
v -1.746209979057312 3.495800733566284 1.3078161478042603
v -3.8959720134735107 2.975985527038574 4.399808883666992
v -5.335184574127197 3.668084144592285 4.167659759521484
v -6.415698051452637 -0.3286910653114319 4.149872779846191
v -7.377281188964844 -0.32869088649749756 3.0302858352661133
v -6.268766403198242 4.1964898109436035 2.965345859527588
v -6.149691104888916 3.909813404083252 1.4976423978805542
v -5.047567367553711 3.2177140712738037 0.6247899532318115
v -3.0090551376342773 2.430056095123291 2.0907065868377686
v -4.866007328033447 -0.3286909759044647 4.322853088378906
v -7.187336444854736 -0.32869091629981995 1.6203830242156982
v -5.956992149353027 -0.32869091629981995 0.7465199828147888
v -3.9575352668762207 -0.365331768989563 2.214538812637329
v 2.6107890605926514 4.90144157409668 0.2786915898323059
vn -0.5128467082977295 -2.7845723948871637e-8 -0.8584802150726318
vn -0.5128467082977295 8.216696656404565e-9 -0.8584802150726318
vn -0.5128467082977295 -7.603915719300858e-9 -0.8584802150726318
vn 0.7478475570678711 0.5705878734588623 -0.3393428325653076
vn 0.8332123160362244 0.45733198523521423 0.31081297993659973
vn 0.8340909481048584 0.4388066530227661 -0.3342769145965576
vn 0.41542622447013855 0.27696681022644043 -0.8664354681968689
vn 0.2809840738773346 0.3947441875934601 -0.8747714161872864
vn -0.5059700012207031 -0.10812599211931229 -0.8557471036911011
vn 0.7803232669830322 0.49824705719947815 0.3779490292072296
vn 0.25442156195640564 0.2929530441761017 0.9216551184654236
vn 0.41300734877586365 0.8529070615768433 -0.3193344175815582
vn 0.05453566089272499 0.11639115959405899 0.991705060005188
vn -0.8535745143890381 -0.19176901876926422 0.48439157009124756
vn 0.7521824240684509 0.6131142973899841 0.2414797991514206
vn -0.5219781994819641 -0.11400700360536575 -0.8453053832054138
vn -0.8175051212310791 -0.4921393394470215 0.29913926124572754
vn 0.6401820182800293 -0.12043806910514832 0.7587236762046814
vn 0.44612395763397217 0.725651204586029 0.5238355994224548
vn 0.01538122072815895 0.9996173977851868 -0.022988062351942062
vn -0.36199304461479187 0.8559015989303589 0.36931484937667847
vn -0.4280479848384857 0.7286780476570129 -0.5346056818962097
vn -0.15080773830413818 0.6220565438270569 -0.7683115601539612
vn -0.6802593469619751 -0.17860986292362213 -0.7108767032623291
vn -0.3824416697025299 -0.8643321990966797 0.32660096883773804
vn 0.6018213033676147 -0.20565806329250336 0.7716967463493347
vn 0.045232418924570084 0.5156660676002502 0.8555948734283447
vn -0.6781128644943237 -0.17922726273536682 -0.712769627571106
vn -0.1046222448348999 -0.9909163117408752 0.08449283987283707
vn 0.4660811424255371 -0.301886647939682 0.8316446542739868
vn -0.6300065517425537 0.7117335796356201 -0.3106880486011505
vn -0.5403780937194824 -0.055193666368722916 -0.8396100997924805
vn 0.2521151602268219 -0.9499836564064026 -0.1843067705631256
vn 0.3869374990463257 -0.07054771482944489 0.9194032549858093
vn -0.39838477969169617 0.3748055696487427 0.837144136428833
vn -0.5336032509803772 0.13413231074810028 0.8350306153297424
vn -0.9384363293647766 0.23582740128040314 0.2524334788322449
vn -0.8098823428153992 0.5058205723762512 0.2970457375049591
vn -0.8282685875892639 0.32665491104125977 -0.4552666246891022
vn -0.17012794315814972 -0.13472989201545715 -0.9761682152748108
vn 0.7884507179260254 -0.5894408226013184 -0.17579826712608337
vn 0.4266376197338104 -0.15263530611991882 0.8914498090744019
vn -0.8669999241828918 0.19861330091953278 -0.45701631903648376
vn -0.09385362267494202 -0.031835783272981644 -0.9950768947601318
vn 0.9113819003105164 -0.32173964381217957 -0.25664496421813965
vn -0.5128467082977295 -4.6480977289320435e-8 -0.8584802150726318
vt 0.5060267448425293 0.6357377171516418
vt 0.5060267448425293 0.9958704710006714
vt 0.6652902364730835 0.9371334314346313
vt 0.007260836660861969 0.5962469577789307
vt 0.1521776020526886 0.8311782479286194
vt 0.006144970655441284 0.8311782479286194
vt 0.1521776020526886 0.8311782479286194
vt 0.1521776020526886 0.5962469577789307
vt 0.3114292323589325 0.8311782479286194
vt 0.1521776020526886 0.5962469577789307
vt 0.3114292323589325 0.8311782479286194
vt 0.006171226501464844 0.76220703125
vt 0.3114292323589325 0.5962469577789307
vt 0.4968331456184387 0.8311782479286194
vt 0.1521776020526886 0.76220703125
vt 0.3114292323589325 0.5962469577789307
vt 0.4968331456184387 0.5962469577789307
vt 0.3114292323589325 0.76220703125
vt 0.1521776020526886 0.9877703785896301
vt 0.007138669490814209 0.9877703785896301
vt 0.005837816745042801 0.76220703125
vt 0.1521776020526886 0.9877703785896301
vt 0.1521776020526886 0.76220703125
vt 0.3114292323589325 0.76220703125
vt 0.4968331456184387 0.76220703125
vt 0.3114292323589325 0.9877703785896301
vt 0.1521776020526886 0.76220703125
vt 0.3114292323589325 0.9877703785896301
vt 0.4968331456184387 0.9877703785896301
vt 0.3114292323589325 0.76220703125
vt 0.1521776020526886 0.76220703125
vt 0.3114292323589325 0.76220703125
vt 0.4968331456184387 0.76220703125
vt 0.3114292323589325 0.5962469577789307
vt 0.1521776020526886 0.5962469577789307
vt 0.1521776020526886 0.8311782479286194
vt 0.00545748695731163 0.8311782479286194
vt 0.006682287901639938 0.5962469577789307
vt 0.1521776020526886 0.5962469577789307
vt 0.3114292323589325 0.5962469577789307
vt 0.4968331456184387 0.5962469577789307
vt 0.3114292323589325 0.8311782479286194
vt 0.1521776020526886 0.8311782479286194
vt 0.3114292323589325 0.8311782479286194
vt 0.4968331456184387 0.8311782479286194
vt 0.6652902364730835 0.6724485754966736
g Geoset0
s 1
usemtl mat_sholazarhugecanopy_tree01
f 1/1/1 2/2/2 3/3/3
f 4/4/4 5/5/5 6/6/6
f 4/4/4 6/6/6 7/7/7
f 4/4/4 7/7/7 8/8/8
f 8/8/8 7/7/7 9/9/9
f 10/10/10 11/11/11 5/5/5
f 4/4/4 10/10/10 5/5/5
f 12/12/12 10/10/10 4/4/4
f 12/12/12 4/4/4 8/8/8
f 13/13/13 14/14/14 11/11/11
f 10/10/10 13/13/13 11/11/11
f 15/15/15 13/13/13 10/10/10
f 12/12/12 15/15/15 10/10/10
f 8/8/8 9/9/9 16/16/16
f 16/16/16 9/9/9 14/14/14
f 16/16/16 14/14/14 17/17/17
f 13/13/13 17/17/17 14/14/14
f 18/18/18 17/17/17 13/13/13
f 15/15/15 18/18/18 13/13/13
f 19/19/19 18/18/18 15/15/15
f 20/20/20 19/19/19 15/15/15
f 21/21/21 19/19/19 20/20/20
f 21/21/21 20/20/20 22/22/22
f 12/12/12 8/8/8 23/23/23
f 23/23/23 8/8/8 16/16/16
f 23/23/23 16/16/16 24/24/24
f 24/24/24 16/16/16 17/17/17
f 24/24/24 17/17/17 25/25/25
f 18/18/18 25/25/25 17/17/17
f 26/26/26 25/25/25 18/18/18
f 19/19/19 26/26/26 18/18/18
f 27/27/27 26/26/26 19/19/19
f 21/21/21 27/27/27 19/19/19
f 20/20/20 15/15/15 12/12/12
f 20/20/20 12/12/12 23/23/23
f 20/20/20 23/23/23 22/22/22
f 22/22/22 23/23/23 24/24/24
f 22/22/22 24/24/24 28/28/28
f 28/28/28 24/24/24 25/25/25
f 28/28/28 25/25/25 29/29/29
f 26/26/26 29/29/29 25/25/25
f 30/30/30 29/29/29 26/26/26
f 27/27/27 30/30/30 26/26/26
f 21/21/21 22/22/22 31/31/31
f 31/31/31 22/22/22 28/28/28
f 31/31/31 28/28/28 32/32/32
f 32/32/32 28/28/28 29/29/29
f 32/32/32 29/29/29 33/33/33
f 30/30/30 33/33/33 29/29/29
f 34/34/34 33/33/33 30/30/30
f 35/35/35 34/34/34 30/30/30
f 36/36/36 34/34/34 35/35/35
f 37/37/37 36/36/36 35/35/35
f 38/38/38 27/27/27 21/21/21
f 38/38/38 21/21/21 31/31/31
f 38/38/38 31/31/31 39/39/39
f 39/39/39 31/31/31 32/32/32
f 39/39/39 32/32/32 40/40/40
f 40/40/40 32/32/32 33/33/33
f 40/40/40 33/33/33 41/41/41
f 34/34/34 41/41/41 33/33/33
f 42/42/42 41/41/41 34/34/34
f 36/36/36 42/42/42 34/34/34
f 35/35/35 30/30/30 27/27/27
f 38/38/38 35/35/35 27/27/27
f 37/37/37 35/35/35 38/38/38
f 37/37/37 38/38/38 39/39/39
f 37/37/37 39/39/39 43/43/43
f 43/43/43 39/39/39 40/40/40
f 43/43/43 40/40/40 44/44/44
f 44/44/44 40/40/40 41/41/41
f 44/44/44 41/41/41 45/45/45
f 42/42/42 45/45/45 41/41/41
f 3/3/3 46/46/46 1/1/1
