# Exported using wow.export v0.1.64
o sholazar_branch_medium01
mtllib sholazar_branch_medium01.mtl
v -5.5745649337768555 7.591669082641602 6.000873565673828
v -6.30251932144165 3.1473000049591064 -10.749889373779297
v -1.6263824701309204 -8.12741756439209 -6.94503116607666
v -1.1140366792678833 53.2521858215332 45.60853958129883
v -1.8803569078445435 53.69810104370117 44.33234405517578
v -2.7096734046936035 41.4018440246582 42.1304817199707
v -1.1140366792678833 64.39961242675781 50.99351501464844
v -0.3477162718772888 53.69810104370117 44.332340240478516
v -1.8803569078445435 53.69810104370117 44.33234405517578
v 0.48159945011138916 41.4018440246582 42.1304817199707
v -2.7096734046936035 41.4018440246582 42.1304817199707
v 1.087741732597351 36.78620147705078 34.53740310668945
v -3.315814733505249 36.78620147705078 34.53740310668945
v 1.6407973766326904 28.247228622436523 31.293649673461914
v -3.868870735168457 28.247224807739258 31.293649673461914
v 1.6570929288864136 24.018869400024414 24.805070877075195
v -3.885167121887207 24.018869400024414 24.805068969726562
v 2.329000949859619 14.357857704162598 15.474265098571777
v -4.8466105461120605 14.352425575256348 15.765759468078613
v -5.5745649337768555 7.591669082641602 6.000873565673828
v -1.1140369176864624 20.351058959960938 28.06096839904785
v -1.114037036895752 25.71210289001465 35.052513122558594
v -1.1140366792678833 34.32381057739258 37.280494689941406
v -1.1140366792678833 39.68930435180664 44.6395378112793
v -1.5252476930618286 1.0834633111953735 10.087634086608887
v -1.4241129159927368 9.598517417907715 19.984272003173828
v -4.8466105461120605 14.352425575256348 15.765759468078613
v -3.885167121887207 24.018869400024414 24.805068969726562
v -3.868870735168457 28.247224807739258 31.293649673461914
v -3.315814733505249 36.78620147705078 34.53740310668945
v -6.30251932144165 3.1473000049591064 -10.749889373779297
v 3.008185625076294 7.630795001983643 5.636620998382568
v 3.687371253967285 3.351733922958374 -10.825284004211426
v 8.788520812988281 48.24601364135742 59.71397018432617
v -0.7465823292732239 36.92013168334961 35.48971939086914
v -18.927698135375977 58.28867721557617 61.68138885498047
v -16.13595199584961 34.880943298339844 60.20370101928711
v -2.7470955848693848 28.54012680053711 35.43429183959961
v -1.4625625610351562 57.13132095336914 60.75701141357422
v 17.690584182739258 35.1551513671875 49.645015716552734
v -6.169164657592773 59.48280334472656 33.01696014404297
v -1.3766404390335083 14.619033813476562 45.626399993896484
v -1.114623785018921 16.104204177856445 19.954296112060547
v 22.179832458496094 22.225500106811523 47.16200637817383
v 24.48293113708496 7.518208026885986 24.951112747192383
v 9.972677230834961 35.917808532714844 28.683671951293945
v 17.806467056274414 45.532962799072266 55.98378372192383
v 24.76589584350586 18.99239730834961 70.54859161376953
v -0.11496713757514954 25.685144424438477 31.41530418395996
v -10.457076072692871 12.9285249710083 61.10089874267578
v 27.797922134399414 10.032361030578613 37.55339813232422
v -18.140329360961914 9.518067359924316 40.93040084838867
v -1.2560700178146362 18.216062545776367 23.592636108398438
v -4.343321323394775 17.8164119720459 59.79581832885742
v 15.600415229797363 10.161993980407715 43.715087890625
v -4.008327007293701 35.39611053466797 40.59205627441406
v -13.923235893249512 54.63772964477539 58.76102828979492
v -0.010073222219944 33.179141998291016 37.24912643432617
v -19.17240333557129 35.80723571777344 81.155029296875
v -29.124921798706055 18.699247360229492 49.92641067504883
v 14.765419960021973 27.70974349975586 69.04783630371094
v 0.9453352689743042 33.07020568847656 73.06553649902344
v -38.754547119140625 51.747413635253906 66.1420669555664
v -0.53352952003479 24.928844451904297 27.899450302124023
v -15.158052444458008 62.24663543701172 30.7988224029541
v -42.071678161621094 21.750694274902344 38.31705093383789
v -18.64585304260254 34.984561920166016 7.94645357131958
v -1.4850077629089355 16.467744827270508 19.015710830688477
v -0.9297927021980286 53.700279235839844 22.87553596496582
v -4.76271390914917 35.716224670410156 45.286617279052734
v 21.89719009399414 34.627506256103516 11.18336009979248
v -12.896317481994629 60.5057373046875 38.785282135009766
v -25.06492805480957 32.537296295166016 48.48832321166992
vn -0.8938174247741699 0.4316748380661011 -0.1214381754398346
vn -0.8207094073295593 0.5604692697525024 -0.11095183342695236
vn -0.02073805406689644 -0.9182888269424438 0.3953675627708435
vn 0.0007586073479615152 -0.2469361573457718 0.9690314531326294
vn -0.8166841268539429 0.25089922547340393 -0.5196890234947205
vn -0.9476065039634705 0.2389746606349945 -0.21197402477264404
vn 0.0000013400183433986967 0.8672425746917725 0.4978858530521393
vn 0.8171471953392029 0.2494664043188095 -0.5196508765220642
vn -0.8166841268539429 0.25089922547340393 -0.5196890234947205
vn 0.9491141438484192 0.22995415329933167 -0.215182363986969
vn -0.9476065039634705 0.2389746606349945 -0.21197402477264404
vn 0.7925816178321838 0.4208658039569855 -0.4412327706813812
vn -0.7924448847770691 0.416220098733902 -0.44586092233657837
vn 0.9407814741134644 0.24252745509147644 -0.2368769496679306
vn -0.9436240792274475 0.22686144709587097 -0.24105486273765564
vn 0.8324145674705505 0.4408738911151886 -0.3357323706150055
vn -0.8314403295516968 0.4541695713996887 -0.32005774974823
vn 0.8816988468170166 0.3872298300266266 -0.26955562829971313
vn -0.8885682225227356 0.38600629568099976 -0.24788238108158112
vn -0.8938174247741699 0.4316748380661011 -0.1214381754398346
vn 0.00008741827332414687 -0.7110363245010376 0.7031552791595459
vn -0.005302957724779844 -0.5621464848518372 0.8270207047462463
vn -0.00007515755714848638 -0.5322085022926331 0.8466132879257202
vn 0.002629313850775361 -0.4938638210296631 0.8695352673530579
vn -0.016591595485806465 -0.8243438601493835 0.5658461451530457
vn -0.014921761117875576 -0.6861807107925415 0.7272781133651733
vn -0.8885682225227356 0.38600629568099976 -0.24788238108158112
vn -0.8314403295516968 0.4541695713996887 -0.32005774974823
vn -0.9436240792274475 0.22686144709587097 -0.24105486273765564
vn -0.7924448847770691 0.416220098733902 -0.44586092233657837
vn -0.8207094073295593 0.5604692697525024 -0.11095183342695236
vn 0.892491340637207 0.435455322265625 -0.11763449013233185
vn 0.8184177279472351 0.5634636878967285 -0.1126989871263504
vn 0.265469491481781 0.829063892364502 -0.49211689829826355
vn -0.8709543943405151 -0.41103866696357727 -0.2692315876483917
vn -0.8709543943405151 -0.41103866696357727 -0.2692315876483917
vn 0.7127808332443237 -0.48270905017852783 0.508857011795044
vn 0.7127808332443237 -0.48270905017852783 0.508857011795044
vn 0.7127808332443237 -0.48270902037620544 0.5088570713996887
vn -0.2989804744720459 -0.6251319646835327 0.7209859490394592
vn -0.9826430082321167 -0.09628692269325256 0.15856090188026428
vn 0.3099230229854584 -0.9493517875671387 -0.05175839737057686
vn 0.3099230229854584 -0.9493517875671387 -0.05175839737057686
vn 0.3099230229854584 -0.9493517875671387 -0.05175839737057686
vn -0.3617067039012909 -0.7941524386405945 0.48835450410842896
vn -0.7673948407173157 0.15535059571266174 0.6220701932907104
vn 0.8349393010139465 -0.0798795148730278 -0.5445141196250916
vn 0.5110333561897278 0.8402422666549683 -0.1812121719121933
vn 0.5110333561897278 0.8402422666549683 -0.1812121421098709
vn 0.24162741005420685 -0.9192366003990173 -0.3108380138874054
vn 0.5110333561897278 0.8402422666549683 -0.1812121421098709
vn 0.4831359386444092 -0.8749770522117615 0.031540773808956146
vn 0.4831359386444092 -0.8749770522117615 0.031540773808956146
vn 0.4831359386444092 -0.8749770522117615 0.031540773808956146
vn -0.3881971538066864 -0.9205601811408997 -0.04326595738530159
vn -0.9935434460639954 -0.0745183527469635 -0.08554772287607193
vn -0.901942789554596 -0.20231254398822784 -0.3815348148345947
vn -0.901942789554596 -0.20231254398822784 -0.3815348148345947
vn -0.901942789554596 -0.20231254398822784 -0.3815348148345947
vn -0.5216630101203918 0.8072753548622131 -0.27599668502807617
vn 0.24886874854564667 0.9672081470489502 0.050721682608127594
vn -0.4438263773918152 -0.8792508840560913 0.17302021384239197
vn 0.2275615930557251 -0.6756340861320496 0.7012377381324768
vn 0.2275615930557251 -0.6756340861320496 0.7012377381324768
vn -0.7674674987792969 -0.2550673186779022 -0.5881617665290833
vn 0.2275615930557251 -0.6756340861320496 0.7012377381324768
vn -0.5957419276237488 -0.07402580231428146 0.7997573018074036
vn -0.5957419276237488 -0.07402580231428146 0.7997573018074036
vn -0.5957419276237488 -0.07402580231428146 0.7997573018074036
vn -0.9889499545097351 0.029802212491631508 -0.1452232003211975
vn -0.3855341672897339 0.10083024948835373 -0.9171677231788635
vn -0.8709543943405151 -0.41103866696357727 -0.2692315876483917
vn -0.4782327115535736 0.4880446791648865 -0.7301409840583801
vt 0.6785377264022827 0.22403371334075928
vt 0.6785377264022827 0.08899545669555664
vt 0.7815274000167847 0.08899545669555664
vt 0.7815274000167847 0.693257212638855
vt 0.6785377264022827 0.693257212638855
vt 0.6785377264022827 0.6138107180595398
vt 0.8320126533508301 0.8658323884010315
vt 0.8845171928405762 0.693257212638855
vt 0.9903577566146851 0.693257212638855
vt 0.8845171928405762 0.6138107180595398
vt 0.9903577566146851 0.6138107180595398
vt 0.8845171928405762 0.5367296934127808
vt 0.9903577566146851 0.5367296934127808
vt 0.8845171928405762 0.4627567529678345
vt 0.9903577566146851 0.4627567529678345
vt 0.8845171928405762 0.40447545051574707
vt 0.9903577566146851 0.40447545051574707
vt 0.8845171928405762 0.32989931106567383
vt 0.9903577566146851 0.32989931106567383
vt 0.9903577566146851 0.22403371334075928
vt 0.7815274000167847 0.40447545051574707
vt 0.7815274000167847 0.4627567529678345
vt 0.7815274000167847 0.5367296934127808
vt 0.7815274000167847 0.6138107180595398
vt 0.7815274000167847 0.22403371334075928
vt 0.7815274000167847 0.32989931106567383
vt 0.6785377264022827 0.32989931106567383
vt 0.6785377264022827 0.40447545051574707
vt 0.6785377264022827 0.4627567529678345
vt 0.6785377264022827 0.5367296934127808
vt 0.9903577566146851 0.08899545669555664
vt 0.8845171928405762 0.22403371334075928
vt 0.8845171928405762 0.08899545669555664
vt 0.9995002746582031 0.9995004534721375
vt 0.9995005130767822 0.0004997849464416504
vt 0.0004994869232177734 0.9995002150535583
vt 0.9995002746582031 0.9995004534721375
vt 0.9995005130767822 0.0004997849464416504
vt 0.0004994869232177734 0.9995002150535583
vt 0.000499725341796875 0.0004995465278625488
vt 0.9995002746582031 0.9995004534721375
vt 0.9995002746582031 0.9995004534721375
vt 0.9995005130767822 0.0004997849464416504
vt 0.0004994869232177734 0.9995002150535583
vt 0.000499725341796875 0.0004995465278625488
vt 0.9995002746582031 0.9995004534721375
vt 0.000499725341796875 0.0004995465278625488
vt 0.0004994869232177734 0.9995002150535583
vt 0.9995005130767822 0.0004997849464416504
vt 0.9995002746582031 0.9995004534721375
vt 0.9995002746582031 0.9995004534721375
vt 0.9995002746582031 0.9995004534721375
vt 0.9995005130767822 0.0004997849464416504
vt 0.0004994869232177734 0.9995002150535583
vt 0.000499725341796875 0.0004995465278625488
vt 0.9995002746582031 0.9995004534721375
vt 0.9995002746582031 0.9995004534721375
vt 0.9995005130767822 0.0004997849464416504
vt 0.0004994869232177734 0.9995002150535583
vt 0.000499725341796875 0.0004995465278625488
vt 0.9995002746582031 0.9995004534721375
vt 0.000499725341796875 0.0004995465278625488
vt 0.0004994869232177734 0.9995002150535583
vt 0.9995005130767822 0.0004997849464416504
vt 0.9995002746582031 0.9995004534721375
vt 0.9995002746582031 0.9995004534721375
vt 0.9995002746582031 0.9995004534721375
vt 0.9995005130767822 0.0004997849464416504
vt 0.0004994869232177734 0.9995002150535583
vt 0.000499725341796875 0.0004995465278625488
vt 0.9995002746582031 0.9995004534721375
vt 0.9995002746582031 0.9995004534721375
vt 0.000499725341796875 0.0004995465278625488
g Geoset0
s 1
usemtl mat_sholazarhugecanopy_trunk_03
f 1/1/1 2/2/2 3/3/3
f 4/4/4 5/5/5 6/6/6
f 5/5/5 4/4/4 7/7/7
f 4/4/4 8/8/8 7/7/7
f 8/8/8 9/9/9 7/7/7
f 9/9/9 8/8/8 10/10/10
f 10/10/10 11/11/11 9/9/9
f 11/11/11 10/10/10 12/12/12
f 12/12/12 13/13/13 11/11/11
f 13/13/13 12/12/12 14/14/14
f 14/14/14 15/15/15 13/13/13
f 15/15/15 14/14/14 16/16/16
f 16/16/16 17/17/17 15/15/15
f 17/17/17 16/16/16 18/18/18
f 18/18/18 19/19/19 17/17/17
f 20/20/20 19/19/19 18/18/18
f 18/18/18 16/16/16 21/21/21
f 21/21/21 16/16/16 14/14/14
f 14/14/14 22/22/22 21/21/21
f 22/22/22 14/14/14 12/12/12
f 12/12/12 23/23/23 22/22/22
f 23/23/23 12/12/12 10/10/10
f 10/10/10 24/24/24 23/23/23
f 24/24/24 10/10/10 8/8/8
f 8/8/8 4/4/4 24/24/24
f 25/25/25 26/26/26 27/27/27
f 27/27/27 26/26/26 21/21/21
f 21/21/21 28/28/28 27/27/27
f 28/28/28 21/21/21 22/22/22
f 22/22/22 29/29/29 28/28/28
f 29/29/29 22/22/22 23/23/23
f 23/23/23 30/30/30 29/29/29
f 30/30/30 23/23/23 24/24/24
f 24/24/24 6/6/6 30/30/30
f 6/6/6 24/24/24 4/4/4
f 21/21/21 26/26/26 18/18/18
f 31/31/31 20/20/20 32/32/32
f 18/18/18 32/32/32 20/20/20
f 25/25/25 32/32/32 18/18/18
f 18/18/18 26/26/26 25/25/25
f 32/32/32 33/33/33 31/31/31
f 3/3/3 33/33/33 32/32/32
f 32/32/32 25/25/25 3/3/3
f 3/3/3 25/25/25 1/1/1
f 27/27/27 1/1/1 25/25/25
g Geoset1
s 1
usemtl mat_sholazarleaves_new01
f 34/34/34 35/35/35 36/36/36
f 37/37/37 38/38/38 39/39/39
f 40/40/40 39/39/39 38/38/38
f 41/41/41 38/38/38 39/39/39
f 42/42/42 43/43/43 44/44/44
f 45/45/45 44/44/44 43/43/43
f 46/46/46 43/43/43 44/44/44
f 47/47/47 48/48/48 49/49/49
f 50/50/50 49/49/49 48/48/48
f 51/51/51 49/49/49 48/48/48
f 52/52/52 53/53/53 54/54/54
f 55/55/55 54/54/54 53/53/53
f 56/56/56 53/53/53 54/54/54
f 57/57/57 58/58/58 59/59/59
f 60/60/60 59/59/59 58/58/58
f 61/61/61 58/58/58 59/59/59
f 62/62/62 63/63/63 64/64/64
f 65/65/65 64/64/64 63/63/63
f 66/66/66 64/64/64 63/63/63
f 67/67/67 68/68/68 69/69/69
f 70/70/70 69/69/69 68/68/68
f 71/71/71 68/68/68 69/69/69
f 72/72/72 35/35/35 36/36/36
f 73/73/73 36/36/36 35/35/35
