# Exported using wow.export v0.1.64
o genericseaweed06
mtllib genericseaweed06.mtl
v -0.6112978458404541 0.002386464038863778 -0.017048349604010582
v 0.6777945756912231 0.0023863581009209156 -0.005798540078103542
v 0.6777947545051575 1.2915278673171997 -0.005798540078103542
v -0.43337929248809814 1.2915278673171997 0.4277675449848175
v 0.4781816303730011 1.2915278673171997 -0.483793169260025
v 0.4781816303730011 0.002386517124250531 -0.483793169260025
v -0.43337929248809814 0.002386410953477025 0.4277675449848175
v 0.4813724160194397 1.2915278673171997 0.4804612696170807
v -0.4221990406513214 1.2915278673171997 -0.4390198290348053
v -0.4221990406513214 0.002386410953477025 -0.4390198290348053
v 0.4813724160194397 0.002386517124250531 0.4804612696170807
v 0.0010020998306572437 1.2915281057357788 0.605991005897522
v 0.0010020998306572437 1.2915281057357788 -0.683150589466095
v 0.0010020998306572437 0.002386410953477025 -0.683150589466095
v 0.0010020998306572437 0.002386410953477025 0.605991005897522
v -0.6112978458404541 1.2915278673171997 -0.017048349604010582
vn -0.008726589381694794 5.37975941572455e-10 0.9999619126319885
vn -0.008726590313017368 1.07595188314491e-9 0.9999619126319885
vn -0.008726589381694794 5.37975941572455e-10 0.9999619126319885
vn -0.7071067094802856 0 -0.70710688829422
vn -0.7071067094802856 0 -0.70710688829422
vn -0.7071067094802856 0 -0.70710688829422
vn -0.7071067094802856 0 -0.70710688829422
vn -0.7132505178451538 0 0.7009091973304749
vn -0.7132505178451538 0 0.7009091973304749
vn -0.7132505178451538 0 0.7009091973304749
vn -0.7132505178451538 0 0.7009091973304749
vn -1 0 0
vn -1 0 0
vn -1 0 0
vn -1 0 0
vn -0.008726588450372219 0 0.9999619126319885
vt 0.0004995465278625488 0.0004995465278625488
vt 0.9995002150535583 0.0004995465278625488
vt 0.9995002150535583 0.9995005130767822
vt 0.0004997849464416504 0.9995004534721375
vt 0.9995004534721375 0.9995004534721375
vt 0.9995004534721375 0.0004994869232177734
vt 0.0004997849464416504 0.0004994869232177734
vt 0.9995002150535583 0.9995005130767822
vt 0.0004995465278625488 0.9995005130767822
vt 0.0004995465278625488 0.0004995465278625488
vt 0.9995002150535583 0.0004995465278625488
vt 0.0004997849464416504 0.9995004534721375
vt 0.9995004534721375 0.9995004534721375
vt 0.9995004534721375 0.0004994869232177734
vt 0.0004997849464416504 0.0004994869232177734
vt 0.0004995465278625488 0.9995005130767822
g Geoset0
s 1
usemtl mat_seaweed07
f 1/1/1 2/2/2 3/3/3
f 4/4/4 5/5/5 6/6/6
f 6/6/6 7/7/7 4/4/4
f 8/8/8 9/9/9 10/10/10
f 10/10/10 11/11/11 8/8/8
f 12/12/12 13/13/13 14/14/14
f 14/14/14 15/15/15 12/12/12
f 3/3/3 16/16/16 1/1/1
