# Exported using wow.export v0.1.64
o genericseaweed10
mtllib genericseaweed10.mtl
v -0.07711437344551086 -0.2115742415189743 0.5538803339004517
v -0.07711416482925415 -0.2115742415189743 -0.5190284252166748
v 0.5378947257995605 -0.17657682299613953 0.11056350916624069
v -0.5350140929222107 -0.17657677829265594 0.11056331545114517
v -0.7189695239067078 21.857389450073242 0.1277932971715927
v -0.06516136229038239 21.83341407775879 0.0928531140089035
v 0.7509154081344604 21.857389450073242 0.12779366970062256
v -0.09164660423994064 21.8094425201416 -0.7347491383552551
v -0.06516136229038239 21.83341407775879 0.0928531140089035
v -0.09164699167013168 21.8094425201416 0.7351357340812683
v -0.09282505512237549 4.186923503875732 -0.7522380948066711
v -0.03819585591554642 4.211422443389893 0.09657952934503555
v -0.03819585591554642 4.211422443389893 0.09657952934503555
v -0.09282535314559937 4.186923503875732 0.7498339414596558
v 0.7681873440742493 4.235921382904053 0.12919092178344727
v -0.03819585591554642 4.211422443389893 0.09657952934503555
v -0.7338849902153015 4.235921382904053 0.12919063866138458
v 0.7681873440742493 4.235921382904053 0.12919092178344727
v -0.03819585591554642 4.211422443389893 0.09657952934503555
v -0.09282505512237549 4.186923503875732 -0.7522380948066711
v -0.7338849902153015 4.235921382904053 0.12919063866138458
v -0.09282535314559937 4.186923503875732 0.7498339414596558
v -0.07711421698331833 8.599421501159668 -0.5190293192863464
v -0.05393344908952713 8.616921424865723 0.06884481012821198
v -0.07711441814899445 8.599422454833984 0.55387943983078
v -0.5350141525268555 8.634419441223145 0.11056295782327652
v -0.05393344908952713 8.616921424865723 0.06884481012821198
v 0.5378946661949158 8.634419441223145 0.11056314408779144
v -0.07711421698331833 8.599421501159668 -0.5190293192863464
v -0.05393344908952713 8.616921424865723 0.06884481012821198
v 0.5378946661949158 8.634419441223145 0.11056314408779144
v -0.05393344908952713 8.616921424865723 0.06884481012821198
v -0.7139979004859924 13.046219825744629 0.12732763588428497
v -0.06519008427858353 13.022419929504395 0.08539845049381256
v -0.09125402569770813 12.998621940612793 -0.7289181351661682
v -0.06519008427858353 13.022419929504395 0.08539845049381256
v -0.09125429391860962 12.998621940612793 0.7302375435829163
v 0.7451580762863159 13.046219825744629 0.12732790410518646
v -0.09125402569770813 12.998621940612793 -0.7289181351661682
v -0.06519008427858353 13.022419929504395 0.08539845049381256
v -0.09125429391860962 12.998621940612793 0.7302375435829163
v -0.7139979004859924 13.046219825744629 0.12732763588428497
v -0.06519008427858353 13.022419929504395 0.08539845049381256
v 0.7451580762863159 13.046219825744629 0.12732790410518646
v -0.5350142121315002 17.445417404174805 0.11056272685527802
v -0.058091793209314346 17.42791748046875 0.09105054289102554
v -0.5350142121315002 17.445417404174805 0.11056272685527802
v 0.537894606590271 17.445417404174805 0.11056288331747055
v -0.07711423933506012 17.410417556762695 -0.5190301537513733
v -0.058091793209314346 17.42791748046875 0.09105054289102554
v -0.07711447775363922 17.410417556762695 0.553878664970398
v -0.058091793209314346 17.42791748046875 0.09105054289102554
v -0.07711447775363922 17.410417556762695 0.553878664970398
vn 0.9998572468757629 -0.004482626914978027 0.016290806233882904
vn 0.999911904335022 -0.004323605448007584 -0.012548708356916904
vn -0.05163383483886719 0.001374908722937107 0.9986651539802551
vn 0.059813227504491806 0.0013778193388134241 0.9982086420059204
vn 0.13549573719501495 -0.004263900686055422 0.9907687306404114
vn 0.9316340684890747 0.0007046170067042112 0.36339709162712097
vn -0.096228688955307 -0.0035780256148427725 0.9953528046607971
vn 0.9999223351478577 0.001694838865660131 -0.012348799034953117
vn 0.9316340684890747 0.0007046170067042112 0.36339709162712097
vn 0.9998688101768494 0.0016018170863389969 0.016116764396429062
vn 0.9996846318244934 -7.239578270201719e-9 -0.025112757459282875
vn 0.9302545189857483 0.0019412145484238863 0.3669096827507019
vn 0.9302545189857483 0.0019412145484238863 0.3669096827507019
vn 0.9996082782745361 0.0008327742689289153 0.027974450960755348
vn -0.10305940359830856 -2.607741222959703e-8 0.9946752190589905
vn 0.9302545189857483 0.0019412145484238863 0.3669096827507019
vn 0.15233507752418518 0.003921265713870525 0.9883211255073547
vn -0.10305940359830856 -2.607741222959703e-8 0.9946752190589905
vn 0.9302545189857483 0.0019412145484238863 0.3669096827507019
vn 0.9996846318244934 -7.239578270201719e-9 -0.025112757459282875
vn 0.15233507752418518 0.003921265713870525 0.9883211255073547
vn 0.9996082782745361 0.0008327742689289153 0.027974450960755348
vn 0.9998250007629395 0.0014988115290179849 -0.01864621974527836
vn 0.9308724999427795 0.0026162820868194103 0.3653348386287689
vn 0.9998429417610168 0.0008419078658334911 0.01770416833460331
vn 0.19904877245426178 -0.003691287711262703 0.9799826145172119
vn 0.9308724999427795 0.0026162820868194103 0.3653348386287689
vn -0.15322250127792358 0.0064835017547011375 0.9881704449653625
vn 0.9998250007629395 0.0014988115290179849 -0.01864621974527836
vn 0.9308724999427795 0.0026162820868194103 0.3653348386287689
vn -0.15322250127792358 0.0064835017547011375 0.9881704449653625
vn 0.9308724999427795 0.0026162820868194103 0.3653348386287689
vn 0.14375470578670502 -0.0003524120256770402 0.9896132946014404
vn 0.932600200176239 -0.0012571970000863075 0.3609089255332947
vn 0.9999090433120728 0.0007739722495898604 -0.01346656121313572
vn 0.932600200176239 -0.0012571970000863075 0.3609089255332947
vn 0.9998741745948792 -0.0005452580517157912 0.01585521176457405
vn -0.14686259627342224 -0.0025351622607558966 0.9891536831855774
vn 0.9999090433120728 0.0007739722495898604 -0.01346656121313572
vn 0.932600200176239 -0.0012571970000863075 0.3609089255332947
vn 0.9998741745948792 -0.0005452580517157912 0.01585521176457405
vn 0.14375470578670502 -0.0003524120256770402 0.9896132946014404
vn 0.932600200176239 -0.0012571970000863075 0.3609089255332947
vn -0.14686259627342224 -0.0025351622607558966 0.9891536831855774
vn 0.11474902182817459 0.00010511078289709985 0.9933944940567017
vn 0.9317821264266968 -0.0005128263728693128 0.36301764845848083
vn 0.11474902182817459 0.00010511078289709985 0.9933944940567017
vn -0.09953637421131134 -0.001862471573986113 0.9950321912765503
vn 0.9999246001243591 -0.0004945809487253428 -0.012271258980035782
vn 0.9317821264266968 -0.0005128263728693128 0.36301764845848083
vn 0.999870777130127 0.0005417719366960227 0.016066020354628563
vn 0.9317821264266968 -0.0005128263728693128 0.36301764845848083
vn 0.999870777130127 0.0005417719366960227 0.016066020354628563
vt 0.5022993087768555 -2.88127064704895
vt 0.7496836185455322 -2.8812708854675293
vt 0.7496836185455322 -1.984755039215088
vt 0.5022993087768555 -1.984755039215088
vt 0.5001744031906128 2.984755277633667
vt 0.6114715933799744 2.984755277633667
vt 0.7458774447441101 2.984755277633667
vt 0.7458774447441101 2.0882396697998047
vt 0.6109488606452942 2.0882396697998047
vt 0.5001744031906128 2.0882396697998047
vt 0.7509545087814331 -1.8873686790466309
vt 0.6149954199790955 -1.8873686790466309
vt 0.6137248277664185 -1.8873686790466309
vt 0.5007476806640625 -1.8873684406280518
vt 0.7509545087814331 -0.9908530712127686
vt 0.6257315874099731 -0.9908528327941895
vt 0.5007476806640625 -0.9908528327941895
vt 0.7496839761734009 -0.9908530712127686
vt 0.6244610548019409 -0.9908528327941895
vt 0.7496839761734009 -1.8873686790466309
vt 0.5022997260093689 -0.9908528327941895
vt 0.5022997260093689 -1.8873684406280518
vt 0.7496469616889954 -0.8934667110443115
vt 0.6222811341285706 -0.893466591835022
vt 0.5000288486480713 -0.8934664726257324
vt 0.5000288486480713 0.003049135208129883
vt 0.6170360445976257 0.0030490756034851074
vt 0.7496469616889954 0.003049015998840332
vt 0.7509549260139465 -0.8934667110443115
vt 0.6235890984535217 -0.893466591835022
vt 0.7509549260139465 0.003049015998840332
vt 0.6183440685272217 0.0030490756034851074
vt 0.5019792914390564 0.996951162815094
vt 0.6121278405189514 0.9969509840011597
vt 0.7466118931770325 0.10043513774871826
vt 0.6141678094863892 0.10043531656265259
vt 0.5019792914390564 0.10043549537658691
vt 0.7466118931770325 0.9969508051872253
vt 0.749647319316864 0.10043513774871826
vt 0.6172032356262207 0.10043531656265259
vt 0.5000292062759399 0.10043549537658691
vt 0.5000292062759399 0.996951162815094
vt 0.6151632070541382 0.9969509840011597
vt 0.749647319316864 0.9969508051872253
vt 0.501979649066925 1.990852952003479
vt 0.6113266348838806 1.990852952003479
vt 0.5001739859580994 1.990852952003479
vt 0.7458770871162415 1.990852952003479
vt 0.7458770871162415 1.0943372249603271
vt 0.6081539988517761 1.0943372249603271
vt 0.5001739859580994 1.0943372249603271
vt 0.6088892817497253 1.0943372249603271
vt 0.501979649066925 1.0943372249603271
g Geoset0
s 1
usemtl mat_seeweed01
f 45/45/45 33/33/33 46/46/46
f 5/5/5 47/47/47 6/6/6
f 46/46/46 7/7/7 6/6/6
f 6/6/6 47/47/47 46/46/46
f 48/48/48 7/7/7 46/46/46
f 46/46/46 33/33/33 34/34/34
f 34/34/34 48/48/48 46/46/46
f 49/49/49 8/8/8 50/50/50
f 50/50/50 8/8/8 9/9/9
f 9/9/9 51/51/51 50/50/50
f 10/10/10 51/51/51 9/9/9
f 35/35/35 49/49/49 36/36/36
f 36/36/36 49/49/49 52/52/52
f 52/52/52 37/37/37 36/36/36
f 53/53/53 37/37/37 52/52/52
f 38/38/38 48/48/48 34/34/34
f 23/23/23 39/39/39 24/24/24
f 40/40/40 25/25/25 24/24/24
f 41/41/41 25/25/25 40/40/40
f 24/24/24 39/39/39 40/40/40
f 42/42/42 26/26/26 43/43/43
f 43/43/43 26/26/26 27/27/27
f 27/27/27 44/44/44 43/43/43
f 28/28/28 44/44/44 27/27/27
f 11/11/11 29/29/29 12/12/12
f 13/13/13 1/1/1 2/2/2
f 30/30/30 14/14/14 12/12/12
f 15/15/15 31/31/31 16/16/16
f 16/16/16 31/31/31 32/32/32
f 32/32/32 17/17/17 16/16/16
f 26/26/26 17/17/17 32/32/32
f 12/12/12 29/29/29 30/30/30
f 25/25/25 14/14/14 30/30/30
f 3/3/3 18/18/18 19/19/19
f 2/2/2 20/20/20 13/13/13
f 19/19/19 4/4/4 3/3/3
f 21/21/21 4/4/4 19/19/19
f 22/22/22 1/1/1 13/13/13
