# Exported using wow.export v0.1.64
o northrendtorch_01
mtllib northrendtorch_01.mtl
v -0.1777280569076538 2.876452684402466 -0.14209437370300293
v -0.06746513396501541 2.877286672592163 -0.27899232506752014
v -0.10253880172967911 2.8501031398773193 -0.37000778317451477
v 0.07140978425741196 3.1382968425750732 0.08845914155244827
v 0.05832215026021004 2.8791890144348145 0.04850583150982857
v 0.16868308186531067 2.880066394805908 -0.08726757764816284
v -0.11437869071960449 2.877403736114502 0.021310031414031982
v -0.14768342673778534 3.1360061168670654 0.05573784559965134
v -0.1777280569076538 2.876452684402466 -0.14209437370300293
v -0.23241765797138214 3.134552001953125 -0.15304915606975555
v -0.09022870659828186 3.1354432106018066 -0.3324548602104187
v -0.06746513396501541 2.877286672592163 -0.27899232506752014
v -0.00836973637342453 3.2095320224761963 -0.11959293484687805
v 0.21255846321582794 3.139375925064087 -0.08249776065349579
v 0.1356605440378189 3.137979507446289 -0.2946118116378784
v 0.10626133531332016 2.879115581512451 -0.251322478055954
v -0.06746513396501541 2.877286672592163 -0.27899232506752014
v -0.09022870659828186 3.1354432106018066 -0.3324548602104187
v -0.1014566421508789 2.551267385482788 -0.03747952729463577
v -0.1014566421508789 2.551267385482788 -0.15724410116672516
v -0.11546137928962708 1.2259376049041748 -0.1185750812292099
v -0.11546137928962708 1.2285003662109375 0.017148766666650772
v -0.17106683552265167 0.5206791162490845 -0.12422577291727066
v -0.17106683552265167 0.5244520306587219 0.07560553401708603
v 0.0022625152487307787 -0.18208813667297363 0.0020929400343447924
v 0.0022625247947871685 0.5263387560844421 0.17552120983600616
v 0.17559188604354858 0.5244518518447876 0.07560553401708603
v 0.1755918264389038 0.5206791162490845 -0.12422581762075424
v 0.00226250640116632 0.518792450428009 -0.22414135932922363
v 0.11998642981052399 1.2259376049041748 -0.1185750961303711
v 0.11998644471168518 1.228500247001648 0.017148757353425026
v 0.002262531081214547 1.2297817468643188 0.08501068502664566
v 0.0022625187411904335 1.224656343460083 -0.1864369660615921
v 0.0022625133860856295 2.551267385482788 -0.21712639927864075
v 0.10598167032003403 2.551267385482788 -0.15724413096904755
v 0.10598168522119522 2.551267385482788 -0.03747955337166786
v 0.0022625236306339502 2.551267385482788 0.02240275777876377
v 0.09910193830728531 2.119814157485962 -0.03236401826143265
v 0.09910193830728531 2.1262757778167725 -0.14418523013591766
v 0.20969882607460022 2.1773741245269775 -0.20769377052783966
v 0.2096988707780838 2.1688756942749023 0.032398343086242676
v 0.002183877397328615 2.1165835857391357 0.02354658953845501
v 0.0016053694998845458 2.164626359939575 0.15244443714618683
v -0.09473419189453125 2.119814157485962 -0.032364003360271454
v -0.20648811757564545 2.1688756942749023 0.03239838406443596
v -0.09473421424627304 2.1262757778167725 -0.14418523013591766
v -0.20648816227912903 2.1773741245269775 -0.20769374072551727
v 0.0021838678512722254 2.129506826400757 -0.20009581744670868
v 0.0016053484287112951 2.181623697280884 -0.3277398347854614
v -0.09477194398641586 2.4664649963378906 -0.14757807552814484
v 0.0007077206391841173 2.4697537422180176 -0.20265889167785645
v 0.0016053484287112951 2.4193267822265625 -0.3169175982475281
v -0.20648816227912903 2.4150776863098145 -0.19687147438526154
v -0.09477194398641586 2.4598872661590576 -0.03741646930575371
v -0.20648811757564545 2.406578779220581 0.043220628052949905
v 0.0007077284972183406 2.4565985202789307 0.01766432635486126
v 0.0016053694998845458 2.402329444885254 0.16326668858528137
v 0.09618739783763885 2.4598872661590576 -0.037416476756334305
v 0.2096988707780838 2.406578779220581 0.04322058707475662
v 0.09618739783763885 2.4664649963378906 -0.14757810533046722
v 0.20969882607460022 2.4150776863098145 -0.1968715339899063
v 0.0007077206391841173 2.4697537422180176 -0.20265889167785645
v 0.0016053484287112951 2.4193267822265625 -0.3169175982475281
v 0.0021838678512722254 2.129506826400757 -0.20009581744670868
v 0.0016053484287112951 2.181623697280884 -0.3277398347854614
v 0.09325820952653885 2.5423219203948975 -0.09487293660640717
v 0.05975853279232979 2.5429208278656006 -0.1820678412914276
v 0.17317001521587372 2.5754647254943848 -0.3261382281780243
v 0.272137314081192 2.5795750617980957 -0.06839334964752197
v 0.03455843776464462 2.5412967205047607 -0.02229326404631138
v 0.09836859256029129 2.579482078552246 0.14623630046844482
v -0.05764101818203926 2.540869951248169 -0.03690847381949425
v -0.17436730861663818 2.5752785205841064 0.1031210869550705
v -0.09114069491624832 2.541468858718872 -0.12410338968038559
v -0.2733345031738281 2.5711681842803955 -0.1546238213777542
v -0.0324409082531929 2.542494773864746 -0.19668307900428772
v -0.09956584125757217 2.571261167526245 -0.3692534565925598
v -0.0324409082531929 2.542494773864746 -0.19668307900428772
v -0.09956584125757217 2.571261167526245 -0.3692534565925598
v -0.10253880172967911 2.8501031398773193 -0.37000778317451477
v 0.17019708454608917 2.854306936264038 -0.3268924951553345
v -0.06746513396501541 2.877286672592163 -0.27899232506752014
v 0.10626133531332016 2.879115581512451 -0.251322478055954
v 0.16868308186531067 2.880066394805908 -0.08726757764816284
v 0.2691642940044403 2.85841703414917 -0.06914759427309036
v 0.05832215026021004 2.8791890144348145 0.04850583150982857
v 0.09539561718702316 2.8583242893218994 0.14548204839229584
v -0.1773402839899063 2.8541207313537598 0.10236681252717972
v -0.27630749344825745 2.8500101566314697 -0.1553780734539032
v -0.11437869071960449 2.877403736114502 0.021310031414031982
vn -0.25423088669776917 0.9660568237304688 -0.045835815370082855
vn -0.10389523208141327 0.9632604718208313 -0.2476591169834137
vn -0.31018081307411194 0.5226808190345764 -0.7940986156463623
vn 0.31651172041893005 0.4477478861808777 0.836266815662384
vn 0.3544020354747772 -0.15996304154396057 0.9213094115257263
vn 0.9729310870170593 -0.16549573838710785 0.16129545867443085
vn -0.6127590537071228 -0.17921698093414307 0.7696802020072937
vn -0.5636025071144104 0.434309184551239 0.7026576399803162
vn -0.9678422808647156 -0.20679928362369537 -0.14323191344738007
vn -0.8979030847549438 0.41970983147621155 -0.1327168047428131
vn -0.329484224319458 0.4186064302921295 -0.846291184425354
vn -0.3492608368396759 -0.21520937979221344 -0.9119768738746643
vn -0.008315595798194408 0.9999654293060303 0.000060863174439873546
vn 0.882276177406311 0.4468846917152405 0.14792844653129578
vn 0.5711542963981628 0.4323866367340088 -0.697728157043457
vn 0.625491201877594 -0.19308334589004517 -0.7559626698493958
vn -0.3492608368396759 -0.21520937979221344 -0.9119768738746643
vn -0.329484224319458 0.4186064302921295 -0.846291184425354
vn -0.499966561794281 0.011564541608095169 0.8659675121307373
vn -0.9999955892562866 0.002976426389068365 0
vn -0.8654496073722839 0.009528419002890587 -0.5009053945541382
vn -0.8662420511245728 0.019728651270270348 0.4992348849773407
vn -0.8661973476409912 -0.031525611877441406 -0.4987066686153412
vn -0.8651272654533386 -0.020606311038136482 0.5011289119720459
vn 0.000008851474376569968 -0.9992784857749939 0.037979856133461
vn 1.1344351236175498e-8 -0.015144778415560722 0.9998853206634521
vn 0.8651273250579834 -0.02060636878013611 0.5011287927627563
vn 0.8661971688270569 -0.03152558580040932 -0.49870696663856506
vn -1.1721979120693504e-7 -0.03697684034705162 -0.9993160963058472
vn 0.8654507398605347 0.009523537941277027 -0.5009035468101501
vn 0.8662403225898743 0.01972929760813713 0.49923789501190186
vn 0.000002264538125018589 0.024817319586873055 0.9996920228004456
vn -0.0000037646532291546464 0.004417356103658676 -0.9999902248382568
vn 0.49997738003730774 -0.0056295436806976795 -0.866020143032074
vn 0.4999920129776001 -0.005628999322652817 -0.8660117387771606
vn 0.9999955296516418 0.00298219732940197 -1.5628796745659201e-7
vn 0.49996671080589294 0.011556188575923443 0.8659675121307373
vn 0.39743852615356445 -0.899154782295227 0.18320290744304657
vn 0.370883971452713 -0.8893672227859497 -0.2673405706882477
vn 0.7773544192314148 -0.41739243268966675 -0.47064176201820374
vn 0.7849113345146179 -0.4442794620990753 0.43189117312431335
vn -0.005446263123303652 -0.903150200843811 0.429290235042572
vn -0.0010146829299628735 -0.4595653712749481 0.8881433606147766
vn -0.4048767387866974 -0.8961073160171509 0.18184205889701843
vn -0.7839984893798828 -0.4476514160633087 0.4300634264945984
vn -0.3791673481464386 -0.886555552482605 -0.26504984498023987
vn -0.7764579057693481 -0.42074519395828247 -0.4691339135169983
vn -0.005618080496788025 -0.8838504552841187 -0.46773582696914673
vn -0.0009699584334157407 -0.40576761960983276 -0.9139757752418518
vn -0.4233958423137665 0.8771907687187195 -0.22643394768238068
vn -0.008983987383544445 0.871278703212738 -0.49070632457733154
vn -0.0004778580041602254 0.4388725161552429 -0.8985491991043091
vn -0.7913797497749329 0.4361255168914795 -0.4283837378025055
vn -0.3834027051925659 0.8916789293289185 0.24064715206623077
vn -0.7723773121833801 0.42473727464675903 0.47226211428642273
vn -0.008297307416796684 0.9001452326774597 0.4355108439922333
vn -0.0005458808736875653 0.4166427254676819 0.9090701341629028
vn 0.36506587266921997 0.8985701203346252 0.2435130625963211
vn 0.7727126479148865 0.42352020740509033 0.47280627489089966
vn 0.40907561779022217 0.884458065032959 -0.22447948157787323
vn 0.7914549112319946 0.4350360929965973 -0.4293515086174011
vn -0.008983987383544445 0.871278703212738 -0.49070632457733154
vn -0.0004778580041602254 0.4388725161552429 -0.8985491991043091
vn -0.005618080496788025 -0.8838504552841187 -0.46773582696914673
vn -0.0009699584334157407 -0.40576761960983276 -0.9139757752418518
vn 0.19380789995193481 -0.9804887175559998 0.032869696617126465
vn 0.11275623738765717 -0.985041081905365 -0.13030758500099182
vn 0.5291330218315125 -0.5535752177238464 -0.6430962085723877
vn 0.8302283883094788 -0.5411767363548279 0.1335986852645874
vn 0.07682871073484421 -0.978824257850647 0.1897376924753189
vn 0.30524852871894836 -0.5424302816390991 0.7826830148696899
vn -0.11366716027259827 -0.9821040034294128 0.15017159283161163
vn -0.5176962018013 -0.5561220645904541 0.6501683592796326
vn -0.16239888966083527 -0.9864453673362732 -0.023496557027101517
vn -0.8130091428756714 -0.5683867335319519 -0.12630389630794525
vn -0.0525224395096302 -0.9877232313156128 -0.1471196860074997
vn -0.291115403175354 -0.5670977234840393 -0.7704881429672241
vn -0.0525224395096302 -0.9877232313156128 -0.1471196860074997
vn -0.291115403175354 -0.5670977234840393 -0.7704881429672241
vn -0.31018081307411194 0.5226808190345764 -0.7940986156463623
vn 0.5259259939193726 0.5372576713562012 -0.6593602895736694
vn -0.10389523208141327 0.9632604718208313 -0.2476591169834137
vn 0.14312675595283508 0.9695239663124084 -0.19884172081947327
vn 0.20871588587760925 0.977663516998291 0.024732016026973724
vn 0.8233526349067688 0.5528034567832947 0.1284475326538086
vn 0.06364801526069641 0.9798763990402222 0.18918544054031372
vn 0.2938299775123596 0.5538513660430908 0.7790459394454956
vn -0.534704864025116 0.540138840675354 0.6498774886131287
vn -0.8407274484634399 0.5245773792266846 -0.1341490000486374
vn -0.1537242978811264 0.9744607210159302 0.1636921465396881
vt 0.051166411489248276 0.5514431595802307
vt 0.05151040107011795 0.45393848419189453
vt 0.12402346730232239 0.45393848419189453
vt 0.033848099410533905 0.2706482410430908
vt 0.034403637051582336 0.10619819164276123
vt 0.17741666734218597 0.1139562726020813
vt 0.19355183839797974 0.11429852247238159
vt 0.1956079602241516 0.2651098966598511
vt 0.31917232275009155 0.11290442943572998
vt 0.32097864151000977 0.2668255567550659
vt 0.4707125425338745 0.2748669385910034
vt 0.4715901017189026 0.10217404365539551
vt 0.26651066541671753 0.43631505966186523
vt 0.17899936437606812 0.26330721378326416
vt 0.30421072244644165 0.26498401165008545
vt 0.30196601152420044 0.11258280277252197
vt 0.45345059037208557 0.10217404365539551
vt 0.4540189802646637 0.2748669385910034
vt 0.6690086126327515 3.072014570236206
vt 0.8408784866333008 3.072014570236206
vt 0.8408784866333008 1.3525270223617554
vt 0.6690086126327515 1.3569386005401611
vt 0.7974604964256287 0.1671619415283203
vt 0.712358832359314 0.16798651218414307
vt 0.7576141357421875 -0.7464226484298706
vt 0.6351712346076965 0.16820049285888672
vt 0.712358832359314 0.16798651218414307
vt 0.7974604964256287 0.1671619415283203
vt 0.8769832253456116 0.16694802045822144
vt 0.8408784866333008 1.3525270223617554
vt 0.6690086126327515 1.356938362121582
vt 0.5146331787109375 1.3591444492340088
vt 1 1.3503212928771973
vt 1 3.072014570236206
vt 0.8408784866333008 3.072014570236206
vt 0.6690086126327515 3.072014570236206
vt 0.5146331787109375 3.072014570236206
vt 0.4976716935634613 0.818597137928009
vt 0.4976716935634613 0.8973783850669861
vt 0.37810903787612915 0.8983227014541626
vt 0.37810903787612915 0.8192570209503174
vt 0.4976716935634613 0.7252575755119324
vt 0.37810903787612915 0.7248560786247253
vt 0.4976716935634613 0.6314449906349182
vt 0.37810903787612915 0.6304550766944885
vt 0.4976716935634613 0.5500615239143372
vt 0.37810903787612915 0.5487875938415527
vt 0.4976716935634613 0.45393848419189453
vt 0.37810900807380676 0.45393848419189453
vt 0.01554312463849783 0.5514694452285767
vt 0.01554312463849783 0.45393848419189453
vt 0.12402346730232239 0.45393848419189453
vt 0.12402346730232239 0.5513894557952881
vt 0.01554312463849783 0.6291606426239014
vt 0.12402346730232239 0.6304551362991333
vt 0.01554312463849783 0.725271463394165
vt 0.12402348220348358 0.7248561382293701
vt 0.01554312463849783 0.8208685517311096
vt 0.12402348220348358 0.8192570805549622
vt 0.01554312463849783 0.8996323347091675
vt 0.12402348220348358 0.8983227610588074
vt 0.01554312463849783 0.9925212860107422
vt 0.12402348220348358 0.9925212860107422
vt 0.4976716935634613 0.9925212860107422
vt 0.37810903787612915 0.9925212860107422
vt 0.4976716935634613 0.818597137928009
vt 0.4976716935634613 0.8973783850669861
vt 0.37810903787612915 0.8983227014541626
vt 0.37810903787612915 0.8192570209503174
vt 0.4976716935634613 0.7252575755119324
vt 0.37810903787612915 0.7248560786247253
vt 0.4976716935634613 0.6314449906349182
vt 0.37810903787612915 0.6304550766944885
vt 0.4976716935634613 0.5500615239143372
vt 0.37810903787612915 0.5487875938415527
vt 0.4976716935634613 0.45393848419189453
vt 0.37810900807380676 0.45393848419189453
vt 0.4976716935634613 0.9925212860107422
vt 0.37810903787612915 0.9925212860107422
vt 0.12402348220348358 0.9925212860107422
vt 0.12402348220348358 0.8983227610588074
vt 0.05151040852069855 0.9925212860107422
vt 0.05136595666408539 0.899199903011322
vt 0.05090600997209549 0.8203431963920593
vt 0.12402348220348358 0.8192570805549622
vt 0.05059299245476723 0.7251372933387756
vt 0.12402348220348358 0.7248561382293701
vt 0.12402346730232239 0.6304551362991333
vt 0.12402346730232239 0.5513894557952881
vt 0.050707440823316574 0.6295802593231201
g Geoset0
s 1
usemtl mat_nr_torch
f 1/1/1 2/2/2 3/3/3
f 4/4/4 5/5/5 6/6/6
f 7/7/7 5/5/5 4/4/4
f 4/4/4 8/8/8 7/7/7
f 9/9/9 7/7/7 8/8/8
f 10/10/10 11/11/11 12/12/12
f 10/10/10 13/13/13 11/11/11
f 6/6/6 14/14/14 4/4/4
f 14/14/14 13/13/13 4/4/4
f 4/4/4 13/13/13 8/8/8
f 8/8/8 13/13/13 10/10/10
f 8/8/8 10/10/10 9/9/9
f 12/12/12 9/9/9 10/10/10
f 15/15/15 16/16/16 17/17/17
f 17/17/17 18/18/18 15/15/15
f 14/14/14 6/6/6 16/16/16
f 16/16/16 15/15/15 14/14/14
f 15/15/15 13/13/13 14/14/14
f 18/18/18 13/13/13 15/15/15
f 19/19/19 20/20/20 21/21/21
f 21/21/21 22/22/22 19/19/19
f 22/22/22 21/21/21 23/23/23
f 23/23/23 24/24/24 22/22/22
f 25/25/25 24/24/24 23/23/23
f 25/25/25 26/26/26 24/24/24
f 25/25/25 27/27/27 26/26/26
f 25/25/25 28/28/28 27/27/27
f 25/25/25 23/23/23 29/29/29
f 25/25/25 29/29/29 28/28/28
f 30/30/30 28/28/28 29/29/29
f 27/27/27 28/28/28 30/30/30
f 30/30/30 31/31/31 27/27/27
f 26/26/26 27/27/27 31/31/31
f 31/31/31 32/32/32 26/26/26
f 24/24/24 26/26/26 32/32/32
f 32/32/32 22/22/22 24/24/24
f 23/23/23 21/21/21 33/33/33
f 33/33/33 29/29/29 23/23/23
f 29/29/29 33/33/33 30/30/30
f 33/33/33 21/21/21 20/20/20
f 20/20/20 34/34/34 33/33/33
f 30/30/30 33/33/33 34/34/34
f 34/34/34 35/35/35 30/30/30
f 31/31/31 30/30/30 35/35/35
f 35/35/35 36/36/36 31/31/31
f 32/32/32 31/31/31 36/36/36
f 36/36/36 37/37/37 32/32/32
f 22/22/22 32/32/32 37/37/37
f 37/37/37 19/19/19 22/22/22
f 38/38/38 39/39/39 40/40/40
f 40/40/40 41/41/41 38/38/38
f 42/42/42 38/38/38 41/41/41
f 41/41/41 43/43/43 42/42/42
f 44/44/44 42/42/42 43/43/43
f 43/43/43 45/45/45 44/44/44
f 46/46/46 44/44/44 45/45/45
f 45/45/45 47/47/47 46/46/46
f 48/48/48 46/46/46 47/47/47
f 47/47/47 49/49/49 48/48/48
f 50/50/50 51/51/51 52/52/52
f 52/52/52 53/53/53 50/50/50
f 54/54/54 50/50/50 53/53/53
f 53/53/53 55/55/55 54/54/54
f 56/56/56 54/54/54 55/55/55
f 55/55/55 57/57/57 56/56/56
f 58/58/58 56/56/56 57/57/57
f 57/57/57 59/59/59 58/58/58
f 60/60/60 58/58/58 59/59/59
f 59/59/59 61/61/61 60/60/60
f 62/62/62 60/60/60 61/61/61
f 61/61/61 63/63/63 62/62/62
f 39/39/39 64/64/64 65/65/65
f 65/65/65 40/40/40 39/39/39
f 40/40/40 65/65/65 63/63/63
f 63/63/63 61/61/61 40/40/40
f 41/41/41 40/40/40 61/61/61
f 61/61/61 59/59/59 41/41/41
f 43/43/43 41/41/41 59/59/59
f 59/59/59 57/57/57 43/43/43
f 45/45/45 43/43/43 57/57/57
f 57/57/57 55/55/55 45/45/45
f 47/47/47 45/45/45 55/55/55
f 55/55/55 53/53/53 47/47/47
f 49/49/49 47/47/47 53/53/53
f 53/53/53 52/52/52 49/49/49
f 66/66/66 67/67/67 68/68/68
f 68/68/68 69/69/69 66/66/66
f 70/70/70 66/66/66 69/69/69
f 69/69/69 71/71/71 70/70/70
f 72/72/72 70/70/70 71/71/71
f 71/71/71 73/73/73 72/72/72
f 74/74/74 72/72/72 73/73/73
f 73/73/73 75/75/75 74/74/74
f 76/76/76 74/74/74 75/75/75
f 75/75/75 77/77/77 76/76/76
f 67/67/67 78/78/78 79/79/79
f 79/79/79 68/68/68 67/67/67
f 68/68/68 79/79/79 80/80/80
f 80/80/80 81/81/81 68/68/68
f 80/80/80 82/82/82 83/83/83
f 83/83/83 81/81/81 80/80/80
f 81/81/81 83/83/83 84/84/84
f 84/84/84 85/85/85 81/81/81
f 85/85/85 84/84/84 86/86/86
f 86/86/86 87/87/87 85/85/85
f 88/88/88 87/87/87 86/86/86
f 69/69/69 68/68/68 81/81/81
f 81/81/81 85/85/85 69/69/69
f 71/71/71 69/69/69 85/85/85
f 85/85/85 87/87/87 71/71/71
f 73/73/73 71/71/71 87/87/87
f 87/87/87 88/88/88 73/73/73
f 75/75/75 73/73/73 88/88/88
f 88/88/88 89/89/89 75/75/75
f 77/77/77 75/75/75 89/89/89
f 89/89/89 3/3/3 77/77/77
f 86/86/86 90/90/90 88/88/88
f 89/89/89 88/88/88 90/90/90
f 90/90/90 1/1/1 89/89/89
f 3/3/3 89/89/89 1/1/1
