# Exported using wow.export v0.1.64
o metalbars01iron
mtllib metalbars01iron.mtl
v -0.4207373261451721 -3.1062155070316066e-9 -0.18308885395526886
v 0.4093018174171448 -3.1062157290762116e-9 -0.18308885395526886
v 0.4093018174171448 -3.1062155070316066e-9 0.18308885395526886
v -0.4207373261451721 -3.1062157290762116e-9 0.18308885395526886
v 0.34385016560554504 0.20725615322589874 0.13277466595172882
v 0.34385019540786743 0.1996329128742218 -0.13277466595172882
v -0.35528564453125 0.1996328979730606 -0.13277466595172882
v -0.3552857041358948 0.20725615322589874 0.13277466595172882
vn -0.6472572684288025 -0.43331754207611084 -0.6271315217018127
vn 0.6488499045372009 -0.43247729539871216 -0.6260648369789124
vn 0.648445188999176 -0.43650349974632263 0.6236854195594788
vn -0.646885871887207 -0.43730711936950684 0.6247408986091614
vn 0.47997644543647766 0.7217639088630676 0.49867773056030273
vn 0.4788525700569153 0.7117692232131958 -0.5138918161392212
vn -0.4762480556964874 0.7125158905982971 -0.5152755975723267
vn -0.47754690051078796 0.7224907875061035 0.4999559819698334
vt 0.9995005130767822 0.9995003938674927
vt 0.9994998574256897 0.0004994869232177734
vt 0.0004994869232177734 0.0004996061325073242
vt 0.0005001425743103027 0.9995005130767822
vt 0.2412613481283188 0.12435221672058105
vt 0.7587382793426514 0.12435215711593628
vt 0.75873863697052 0.8701674938201904
vt 0.24126173555850983 0.87016761302948
g Geoset0
s 1
usemtl mat_metalbarsiron
f 1/1/1 2/2/2 3/3/3
f 4/4/4 3/3/3 5/5/5
f 6/6/6 5/5/5 3/3/3
f 3/3/3 2/2/2 6/6/6
f 7/7/7 6/6/6 2/2/2
f 2/2/2 1/1/1 7/7/7
f 8/8/8 7/7/7 1/1/1
f 5/5/5 6/6/6 7/7/7
f 7/7/7 8/8/8 5/5/5
f 5/5/5 8/8/8 4/4/4
f 1/1/1 4/4/4 8/8/8
f 3/3/3 4/4/4 1/1/1
