# Exported using wow.export v0.1.64
o terokkarweb03
mtllib terokkarweb03.mtl
v -0.09923354536294937 0.18212097883224487 -6.348086833953857
v -1.6963707208633423 -1.0505492687225342 -0.01860552467405796
v -2.1829769611358643 -2.692094564437866 -6.357157230377197
v -0.09832218289375305 0.1816873997449875 6.160698890686035
v 1.1745229959487915 1.8642126321792603 -0.018603896722197533
v 2.9360954761505127 2.349860668182373 6.160698890686035
v -0.7526577115058899 0.8360230922698975 -0.018605541437864304
v 2.7625114917755127 2.090463161468506 -6.34013557434082
v -2.1772196292877197 -2.566880226135254 6.160696983337402
vn 0.6996709108352661 -0.7038177847862244 0.12288693338632584
vn 0.8824312090873718 -0.4685533344745636 0.04210685193538666
vn 0.8062315583229065 -0.5847829580307007 0.08955203741788864
vn 0.6811712384223938 -0.7204638123512268 -0.13014495372772217
vn 0.48878586292266846 -0.8720988631248474 -0.02306520938873291
vn 0.5783796310424805 -0.8094580769538879 -0.10126479715108871
vn 0.7112540602684021 -0.70290607213974 0.006377511192113161
vn 0.5321098566055298 -0.8366571664810181 0.1298609972000122
vn 0.814527690410614 -0.5666571259498596 -0.12427520751953125
vt 0.9907845854759216 0.5332556962966919
vt 0.4836369752883911 0.021281778812408447
vt 0.989997148513794 0.018791139125823975
vt 0.007843137718737125 0.4991062879562378
vt 0.5060225129127502 0.9842519760131836
vt 0.007843137718737125 0.9842519760131836
vt 0.4947464168071747 0.49918246269226074
vt 0.9914748668670654 0.9842519760131836
vt 0.007843137718737125 0.02362203598022461
g Geoset0
s 1
usemtl mat_terokkarweb01
f 1/1/1 2/2/2 3/3/3
f 4/4/4 5/5/5 6/6/6
f 7/7/7 5/5/5 4/4/4
f 5/5/5 7/7/7 8/8/8
f 7/7/7 1/1/1 8/8/8
f 9/9/9 7/7/7 4/4/4
f 2/2/2 7/7/7 9/9/9
f 7/7/7 2/2/2 1/1/1
