# Exported using wow.export v0.1.64
o blastedlandsskull01
mtllib blastedlandsskull01.mtl
v -0.08746249973773956 -0.05942250043153763 0.05718639865517616
v -0.16942499577999115 0.05411110073328018 -0.032579999417066574
v -0.059606101363897324 -0.034147799015045166 -0.050876401364803314
v -0.11266600340604782 0.2466769963502884 0.030366400256752968
v -0.09914059937000275 0.15049399435520172 -0.14190100133419037
v -0.16332900524139404 0.1429460048675537 0.06605830043554306
v -0.08587919920682907 0.07728060334920883 0.1533460021018982
v 0.009136670269072056 -0.015083299949765205 0.10210800170898438
v 0.032923899590969086 0.1871200054883957 0.1520020067691803
v 0.2472119927406311 0.09001609683036804 0.03632190078496933
v 0.2112870067358017 0.21693900227546692 0.035537801682949066
v 0.30884701013565063 0.00713361008092761 -0.059379998594522476
v 0.31189200282096863 0.07528749853372574 -0.15080299973487854
v 0.19957000017166138 0.28276699781417847 -0.11443399637937546
v 0.1536329984664917 0.3048189878463745 0.04502579942345619
v 0.09526749700307846 0.34588900208473206 -0.07400940358638763
v 0.051928598433732986 0.2813830077648163 -0.1813109964132309
v 0.1032869964838028 0.1869879961013794 -0.20480799674987793
v 0.31189200282096863 0.07528749853372574 -0.15080299973487854
v 0.2508789896965027 -0.008943329565227032 -0.1883929967880249
v 0.1361439973115921 0.059772200882434845 -0.2108519971370697
vn -0.717170000076294 -0.576225996017456 0.39195799827575684
vn -0.9321669936180115 -0.2007710039615631 -0.30125901103019714
vn -0.5273079872131348 -0.5673360228538513 -0.6325160264968872
vn -0.6547279953956604 0.7277680039405823 0.20416800677776337
vn -0.5991219878196716 0.01700649969279766 -0.8004770278930664
vn -0.9140250086784363 0.04845169931650162 0.402754008769989
vn -0.38563498854637146 -0.04839739948511124 0.9213809967041016
vn 0.17157499492168427 -0.37704500555992126 0.9101639986038208
vn 0.19641999900341034 0.218983992934227 0.9557539820671082
vn 0.6484140157699585 0.05315360054373741 0.7594299912452698
vn 0.8154870271682739 0.34749698638916016 0.4628460109233856
vn 0.9081799983978271 0.2826460003852844 0.3087399899959564
vn 0.80240398645401 0.41175898909568787 -0.43197500705718994
vn 0.6444799900054932 0.6668050289154053 -0.37418898940086365
vn 0.35071900486946106 0.7923870086669922 0.49911800026893616
vn 0.011920399963855743 0.9927819967269897 -0.11934100091457367
vn -0.20758800208568573 0.6508499979972839 -0.7302749752998352
vn 0.13782399892807007 0.1962510049343109 -0.9708189964294434
vn 0.80240398645401 0.41175898909568787 -0.43197500705718994
vn 0.29406899213790894 0.14233200252056122 -0.945127010345459
vn -0.16211700439453125 -0.14156299829483032 -0.9765639901161194
vt 0.0004994869814254344 0.5653150081634521
vt 0.14698100090026855 0.7506159991025925
vt 0.15068699419498444 0.2605460286140442
vt 0.4354960024356842 0.9801768995821476
vt 0.42456600069999695 0.7122029960155487
vt 0.12799899280071259 0.9798687994480133
vt 0.14698100090026855 0.7506159991025925
vt 0.15068699419498444 0.2605460286140442
vt 0.42456600069999695 0.7122029960155487
vt 0.6719070076942444 0.18672502040863037
vt 0.7534949779510498 0.4247499704360962
vt 0.7500060200691223 -0.0025800466537475586
vt 0.9800260066986084 0.008059024810791016
vt 0.9837120175361633 0.4207260012626648
vt 0.7723860144615173 0.6999799907207489
vt 0.9841179847717285 0.9802420996129513
vt 0.7723860144615173 0.6999799907207489
vt 0.7534949779510498 0.4247499704360962
vt 0.9779800176620483 0.007432997226715088
vt 0.7500060200691223 -0.0025800466537475586
vt 0.6719070076942444 0.18672502040863037
g Geoset0
s 1
usemtl mat_skull03
f 1/1/1 2/2/2 3/3/3
f 4/4/4 5/5/5 2/2/2
f 4/4/4 2/2/2 6/6/6
f 6/6/6 2/2/2 1/1/1
f 6/6/6 1/1/1 7/7/7
f 1/1/1 8/8/8 7/7/7
f 9/9/9 7/7/7 8/8/8
f 8/8/8 10/10/10 9/9/9
f 9/9/9 10/10/10 11/11/11
f 11/11/11 10/10/10 12/12/12
f 12/12/12 13/13/13 11/11/11
f 11/11/11 13/13/13 14/14/14
f 15/15/15 11/11/11 14/14/14
f 15/15/15 9/9/9 11/11/11
f 9/9/9 15/15/15 4/4/4
f 4/4/4 7/7/7 9/9/9
f 4/4/4 6/6/6 7/7/7
f 16/16/16 15/15/15 14/14/14
f 4/4/4 15/15/15 16/16/16
f 4/4/4 16/16/16 17/17/17
f 16/16/16 14/14/14 17/17/17
f 18/18/18 14/14/14 19/19/19
f 17/17/17 14/14/14 18/18/18
f 17/17/17 18/18/18 5/5/5
f 5/5/5 4/4/4 17/17/17
f 20/20/20 18/18/18 19/19/19
f 18/18/18 20/20/20 21/21/21
f 5/5/5 18/18/18 21/21/21
f 3/3/3 5/5/5 21/21/21
f 5/5/5 3/3/3 2/2/2
