# Exported using wow.export v0.1.64
o catapultball01
mtllib catapultball01.mtl
v -0.8850970268249512 0.8777390122413635 0.0060372198931872845
v -0.8850970268249512 0 0.883774995803833
v -0.628017008304596 0.8777390122413635 0.6266890168190002
v -0.007361109834164381 -1.2413100004196167 0.0060372198931872845
v 0.8703749775886536 -0.8777390122413635 0.0060372198931872845
v 0.6132919788360596 -0.8777390122413635 0.6266890168190002
v -0.007361109834164381 -0.8777390122413635 0.883774995803833
v -0.628017008304596 -0.8777390122413635 0.6266890168190002
v -1.248669981956482 0 0.0060372198931872845
v -0.628017008304596 0.8777390122413635 -0.6146140098571777
v -0.007361109834164381 1.2413100004196167 0.0060372198931872845
v -0.007361670024693012 0.8777390122413635 -0.8716999888420105
v 0.6132919788360596 0.8777390122413635 -0.6146140098571777
v -0.8850970268249512 0 -0.8716999888420105
v -0.007361670024693012 0 -1.2352700233459473
v -0.8850970268249512 -0.8777390122413635 0.0060372198931872845
v -0.628017008304596 -0.8777390122413635 -0.6146140098571777
v -0.007361670024693012 -0.8777390122413635 -0.8716999888420105
v 0.6132919788360596 -0.8777390122413635 -0.6146140098571777
v 0.8703749775886536 0 -0.8716999888420105
v 1.2339500188827515 0 0.0060372198931872845
v 0.8703749775886536 0 0.883774995803833
v -0.007361109834164381 0 1.2473499774932861
v -0.007361109834164381 0.8777390122413635 0.883774995803833
v 0.6132919788360596 0.8777390122413635 0.6266890168190002
v 0.8703749775886536 0.8777390122413635 0.0060372198931872845
vn -0.7533890008926392 0.6526280045509338 0.08051030337810516
vn -0.7071070075035095 -1.7269600860458922e-8 0.7071070075035095
vn -0.47579699754714966 0.6526280045509338 0.5896559953689575
vn -8.165139675497812e-9 -1 -1.0206400169465724e-8
vn 0.7533890008926392 -0.6526280045509338 0.08051010221242905
vn 0.47579699754714966 -0.6526280045509338 0.5896559953689575
vn -0.0805101990699768 -0.6526280045509338 0.7533890008926392
vn -0.5896559953689575 -0.6526280045509338 0.47579699754714966
vn -1 -2.878259941496708e-8 6.907829686042533e-8
vn -0.5896559953689575 0.6526280045509338 -0.47579699754714966
vn -4.082569837748906e-9 1 1.8371599352917656e-8
vn -0.08051030337810516 0.6526280045509338 -0.7533890008926392
vn 0.47579699754714966 0.6526280045509338 -0.5896559953689575
vn -0.7071070075035095 -3.4539201720917845e-8 -0.7071070075035095
vn -1.4967000083743187e-7 -4.0295699221815084e-8 -1
vn -0.7533890008926392 -0.6526280045509338 -0.08051010221242905
vn -0.47579699754714966 -0.6526280045509338 -0.5896559953689575
vn 0.08051010221242905 -0.6526280045509338 -0.7533890008926392
vn 0.5896559953689575 -0.6526280045509338 -0.47579699754714966
vn 0.7071070075035095 -2.878259941496708e-8 -0.7071070075035095
vn 1 -1.1513099806848004e-8 -1.381570058356374e-7
vn 0.7071070075035095 -4.6052200275426e-8 0.7071070075035095
vn 7.483480146674992e-8 -2.3026100137713e-8 1
vn 0.08051030337810516 0.6526280045509338 0.7533890008926392
vn 0.5896559953689575 0.6526280045509338 0.47579699754714966
vn 0.7533890008926392 0.6526280045509338 -0.08051030337810516
vt 0.5 0.7704109996557236
vt 0.2495030015707016 0.5
vt 0.2502500116825104 0.7048560082912445
vt 0.5 0.0004990100860595703
vt 0.5 0.22958898544311523
vt 0.2502500116825104 0.2951430082321167
vt 0.0019877799786627293 0.1988610029220581
vt 0.2502500116825104 0.2951430082321167
vt 0.5 0.5
vt 0.749750018119812 0.7048560082912445
vt 0.5 0.9995005130185746
vt 0.9980120062828064 0.8011389970779419
vt 0.749750018119812 0.7048560082912445
vt 0.7504969835281372 0.5
vt 0.9995009899139404 0.5
vt 0.5 0.22958898544311523
vt 0.749750018119812 0.2951430082321167
vt 0.9980120062828064 0.1988610029220581
vt 0.749750018119812 0.2951430082321167
vt 0.7504969835281372 0.5
vt 0.5 0.5
vt 0.2495030015707016 0.5
vt 0.0004995170165784657 0.5
vt 0.0019877299200743437 0.8011389970779419
vt 0.2502500116825104 0.7048560082912445
vt 0.5 0.7704109996557236
g Geoset0
s 1
usemtl mat_catapultball
f 1/1/1 2/2/2 3/3/3
f 4/4/4 5/5/5 6/6/6
f 4/4/4 6/6/6 7/7/7
f 4/4/4 7/7/7 8/8/8
f 2/2/2 8/8/8 7/7/7
f 9/9/9 8/8/8 2/2/2
f 1/1/1 9/9/9 2/2/2
f 10/10/10 9/9/9 1/1/1
f 11/11/11 10/10/10 1/1/1
f 11/11/11 12/12/12 10/10/10
f 11/11/11 13/13/13 12/12/12
f 10/10/10 14/14/14 9/9/9
f 12/12/12 14/14/14 10/10/10
f 12/12/12 15/15/15 14/14/14
f 13/13/13 15/15/15 12/12/12
f 9/9/9 16/16/16 8/8/8
f 14/14/14 16/16/16 9/9/9
f 14/14/14 17/17/17 16/16/16
f 15/15/15 17/17/17 14/14/14
f 4/4/4 8/8/8 16/16/16
f 4/4/4 16/16/16 17/17/17
f 4/4/4 17/17/17 18/18/18
f 4/4/4 18/18/18 19/19/19
f 4/4/4 19/19/19 5/5/5
f 15/15/15 18/18/18 17/17/17
f 20/20/20 18/18/18 15/15/15
f 20/20/20 19/19/19 18/18/18
f 21/21/21 19/19/19 20/20/20
f 21/21/21 5/5/5 19/19/19
f 22/22/22 5/5/5 21/21/21
f 22/22/22 6/6/6 5/5/5
f 23/23/23 6/6/6 22/22/22
f 23/23/23 7/7/7 6/6/6
f 2/2/2 7/7/7 23/23/23
f 11/11/11 3/3/3 24/24/24
f 11/11/11 1/1/1 3/3/3
f 11/11/11 24/24/24 25/25/25
f 11/11/11 25/25/25 26/26/26
f 11/11/11 26/26/26 13/13/13
f 13/13/13 20/20/20 15/15/15
f 26/26/26 20/20/20 13/13/13
f 26/26/26 21/21/21 20/20/20
f 25/25/25 21/21/21 26/26/26
f 25/25/25 22/22/22 21/21/21
f 24/24/24 22/22/22 25/25/25
f 24/24/24 23/23/23 22/22/22
f 3/3/3 23/23/23 24/24/24
f 3/3/3 2/2/2 23/23/23
