# Exported using wow.export v0.1.64
o catapultbeam
mtllib catapultbeam.mtl
v -2.013744592666626 0.6340059638023376 -1.5118248462677002
v -2.013744592666626 0.02289496548473835 -1.5118248462677002
v -2.739633560180664 0.02289496548473835 -1.5118248462677002
v -2.1155779361724854 -0.03371212258934975 1.5520126819610596
v -2.6378002166748047 0.6580703854560852 1.5520126819610596
v -2.6378002166748047 -0.03371212258934975 1.5520126819610596
v -2.1155779361724854 0.65807044506073 1.5520126819610596
v -2.739633560180664 0.5788410305976868 -1.5118248462677002
v -2.6378002166748047 -0.03371212258934975 1.5520126819610596
v -2.739633560180664 0.02289496548473835 -1.5118248462677002
v -2.013744592666626 0.02289496548473835 -1.5118248462677002
v -2.1155779361724854 0.65807044506073 1.5520126819610596
v -2.1155779361724854 -0.03371212258934975 1.5520126819610596
v -2.013744592666626 0.02289496548473835 -1.5118248462677002
v -2.013744592666626 0.6340059638023376 -1.5118248462677002
v -2.6378002166748047 0.6580703854560852 1.5520126819610596
v -2.1155779361724854 0.65807044506073 1.5520126819610596
v -2.013744592666626 0.6340059638023376 -1.5118248462677002
v -2.739633560180664 0.5788410305976868 -1.5118248462677002
v -2.6378002166748047 0.6580703854560852 1.5520126819610596
v -2.739633560180664 0.5788410305976868 -1.5118248462677002
v -2.739633560180664 0.02289496548473835 -1.5118248462677002
v -2.6378002166748047 -0.03371212258934975 1.5520126819610596
v -2.013744592666626 0.02289496548473835 -1.5118248462677002
v -2.1155779361724854 -0.03371212258934975 1.5520126819610596
vn 0 0 -1
vn 0 0 -1
vn 0 0 -1
vn 0 0 1
vn 0 0 1
vn 0 0 1
vn 0 0 1
vn 0 0 -1
vn -0.4470765292644501 -0.8944941759109497 -0.001666997792199254
vn -0.8941530585289001 -0.44724705815315247 0.021455852314829826
vn 0.7069334983825684 -0.7072031497955322 0.010430282913148403
vn 0.8940268754959106 0.4472464919090271 0.02620210498571396
vn 0.7069334983825684 -0.7072031497955322 0.010430281981825829
vn 0.7069334983825684 -0.7072031497955322 0.010430282913148403
vn 0.41983702778816223 0.9075989723205566 0.000956535863224417
vn -0.7204378247261047 0.6934109926223755 0.012266273610293865
vn 0.8940268754959106 0.4472464919090271 0.02620210498571396
vn 0.41983702778816223 0.9075989723205566 0.000956535863224417
vn -0.7333035469055176 0.6798674464225769 0.006791894324123859
vn -0.7204378247261047 0.6934109926223755 0.012266273610293865
vn -0.7333035469055176 0.6798674464225769 0.006791894324123859
vn -0.8941530585289001 -0.44724705815315247 0.021455852314829826
vn -0.4470765292644501 -0.8944941759109497 -0.001666997792199254
vn 0.7069334983825684 -0.7072031497955322 0.010430282913148403
vn 0.7069334983825684 -0.7072031497955322 0.010430281981825829
vt -0.004350606352090836 1.003663182258606
vt -0.004350606352090836 0.007117629051208496
vt 0.9324623942375183 0.007117629051208496
vt 0.010255813598632812 0.002372145652770996
vt 0.9759406447410583 1.0064045190811157
vt 0.9758463501930237 0.002372145652770996
vt 0.010142147541046143 1.0064045190811157
vt 0.9324623942375183 1.003663182258606
vt 0.9855082035064697 0.9532644748687744
vt 0.017388522624969482 0.9532641768455505
vt 0.01738852448761463 0.05050760507583618
vt 0.01738852448761463 0.9532644152641296
vt 0.0175021905452013 0.050681352615356445
vt 0.9875551462173462 0.05050760507583618
vt 0.987298846244812 0.9529788494110107
vt 0.01738852448761463 0.9532644748687744
vt 0.01738852448761463 0.05050760507583618
vt 0.987298846244812 0.05050760507583618
vt 0.9855327010154724 0.9532641768455505
vt 0.9856024980545044 0.9532644152641296
vt 0.01747272163629532 0.9529385566711426
vt 0.017388522624969482 0.050595879554748535
vt 0.9855082035064697 0.050681352615356445
vt 0.198015034198761 0.05050760507583618
vt 0.9855082035064697 0.05050760507583618
g Geoset0
s 1
usemtl mat_catapultwheel01
f 1/1/1 2/2/2 3/3/3
f 4/4/4 5/5/5 6/6/6
f 4/4/4 7/7/7 5/5/5
f 3/3/3 8/8/8 1/1/1
g Geoset1
s 1
usemtl mat_catapultbeam03
f 9/9/9 10/10/10 11/11/11
f 12/12/12 13/13/13 14/14/14
f 14/14/14 15/15/15 12/12/12
f 16/16/16 17/17/17 18/18/18
f 19/19/19 16/16/16 18/18/18
f 20/20/20 21/21/21 22/22/22
f 22/22/22 23/23/23 20/20/20
f 9/9/9 24/24/24 25/25/25
