# Exported using wow.export v0.1.64
o catapultwheel01
mtllib catapultwheel01.mtl
v -1.0471649169921875 0.03971650451421738 -0.7734977602958679
v -0.3301115334033966 0.019913071766495705 -1.2830966711044312
v 0.009889441542327404 -0.03516525402665138 -0.04259556531906128
v 0.08037225902080536 1.3715351819992065 0.0016329415375366807
v -0.25903427600860596 1.4284995794296265 -1.2378225326538086
v -0.9760876893997192 1.4483028650283813 -0.7282236218452454
v 0.6168311238288879 1.3820418119430542 -1.167466402053833
v 1.241681694984436 1.3306680917739868 -0.5500755906105042
v 0.08037228882312775 1.3715349435806274 0.0016329396748915315
v 1.3231425285339355 1.2984158992767334 0.3254658281803131
v 1.241681694984436 1.3306676149368286 -0.5500755906105042
v 0.8230975270271301 1.3003774881362915 1.049481987953186
v -0.024476854130625725 1.3356342315673828 1.2831982374191284
v 0.0803723856806755 1.3715345859527588 0.0016329024219885468
v -0.8229911923408508 1.3876891136169434 0.9172558188438416
v -0.024476805701851845 1.3356339931488037 1.2831981182098389
v -1.198811650276184 1.4321852922439575 0.12288318574428558
v -0.9760875701904297 1.4483022689819336 -0.7282237410545349
v 0.7520200610160828 -0.10820857435464859 1.0042082071304321
v -0.09555426985025406 -0.0729517862200737 1.2379242181777954
v 1.2520649433135986 -0.11017004400491714 0.28019195795059204
v 1.1706041097640991 -0.07791843265295029 -0.5953494310379028
v -0.09555426985025406 -0.0729517862200737 1.2379242181777954
v -0.8940685987472534 -0.02089671976864338 0.8719819188117981
v -1.269888997077942 0.023599453270435333 0.07760929316282272
v -1.0471649169921875 0.03971650451421738 -0.7734977602958679
v 0.5457539558410645 -0.0265446025878191 -1.212740421295166
v 1.1706041097640991 -0.07791843265295029 -0.5953494310379028
v 0.8230976462364197 1.3003772497177124 1.049481987953186
v -0.024476805701851845 1.3356339931488037 1.2831981182098389
v -0.09555421024560928 -0.0729517862200737 1.2379242181777954
v 0.616831362247467 1.382041335105896 -1.167466402053833
v 1.1706043481826782 -0.07791844010353088 -0.5953494906425476
v 0.5457538962364197 -0.026544587686657906 -1.2127403020858765
v 1.241681694984436 1.330667495727539 -0.5500755906105042
v -0.2590341567993164 1.4284988641738892 -1.2378226518630981
v 0.5457538962364197 -0.026544587686657906 -1.2127403020858765
v -0.33011165261268616 0.0199130829423666 -1.2830965518951416
v 0.616831362247467 1.382041335105896 -1.167466402053833
v -0.9760875701904297 1.4483022689819336 -0.7282237410545349
v -0.33011165261268616 0.0199130829423666 -1.2830965518951416
v -1.047165036201477 0.039716508239507675 -0.7734976410865784
v -0.2590341567993164 1.4284988641738892 -1.2378226518630981
v -1.198811650276184 1.4321852922439575 0.12288318574428558
v -1.047165036201477 0.039716508239507675 -0.7734976410865784
v -1.2698891162872314 0.023599455133080482 0.07760932296514511
v -0.9760875701904297 1.4483022689819336 -0.7282237410545349
v -0.8229911923408508 1.387689232826233 0.9172558188438416
v -1.2698891162872314 0.023599455133080482 0.07760932296514511
v -0.8940685987472534 -0.020896730944514275 0.8719819784164429
v -1.198811650276184 1.4321852922439575 0.12288318574428558
v -0.024476805701851845 1.3356339931488037 1.2831981182098389
v -0.8940685987472534 -0.020896730944514275 0.8719819784164429
v -0.09555421024560928 -0.0729517862200737 1.2379242181777954
v -0.8229911923408508 1.387689232826233 0.9172558188438416
v 1.241681694984436 1.330667495727539 -0.5500755906105042
v 1.2520650625228882 -0.11017004400491714 0.28019192814826965
v 1.1706043481826782 -0.07791844010353088 -0.5953494906425476
v 1.3231425285339355 1.2984157800674438 0.3254658281803131
v 0.7520201802253723 -0.10820857435464859 1.0042080879211426
v 0.8230976462364197 1.3003772497177124 1.049481987953186
v 0.7520201802253723 -0.10820857435464859 1.0042080879211426
v 0.16624756157398224 3.036687135696411 0.3012087941169739
v -0.050898030400276184 2.663025140762329 0.027414977550506592
v 0.009012853726744652 2.677035331726074 0.1952166110277176
v 0.12274525314569473 1.9855248928070068 0.3835829496383667
v 0.019094623625278473 1.2906543016433716 0.5393365621566772
v 0.5079052448272705 1.3124672174453735 -0.06977599859237671
v 0.4049423635005951 1.9981179237365723 0.031933825463056564
v 0.009012853726744652 2.677035331726074 0.1952166110277176
v 0.12531493604183197 2.682225465774536 0.0502912737429142
v 0.16624756157398224 3.036687135696411 0.3012087941169739
v 0.16624756157398224 3.036687135696411 0.3012087941169739
v 0.12531493604183197 2.682225465774536 0.0502912737429142
v -0.050898030400276184 2.663025140762329 0.027414977550506592
v -0.024815591052174568 1.9932223558425903 -0.023839671164751053
v 0.4049423635005951 1.9981179237365723 0.031933825463056564
v -0.24810276925563812 1.3536916971206665 -0.17391231656074524
v 0.5079052448272705 1.3124672174453735 -0.06977599859237671
v -0.024815591052174568 1.9932223558425903 -0.023839671164751053
v -0.24810276925563812 1.3536916971206665 -0.17391231656074524
v 0.019094623625278473 1.2906543016433716 0.5393365621566772
v 0.12274525314569473 1.9855248928070068 0.3835829496383667
vn -0.04912841320037842 -0.9983042478561401 -0.03122626431286335
vn -0.04997122660279274 -0.998280942440033 -0.030627416446805
vn -0.05037042126059532 -0.9982150793075562 -0.0320846289396286
vn 0.05037008970975876 0.9982151389122009 0.03208399564027786
vn 0.05037008970975876 0.9982151389122009 0.03208399564027786
vn 0.05037008970975876 0.9982151389122009 0.03208399564027786
vn 0.05037008970975876 0.9982151389122009 0.03208399564027786
vn 0.05037008970975876 0.9982151389122009 0.03208399564027786
vn 0.05037008970975876 0.9982151389122009 0.03208399564027786
vn 0.05037008970975876 0.9982151389122009 0.03208399564027786
vn 0.05037008970975876 0.9982151389122009 0.03208399564027786
vn 0.05037008970975876 0.9982151389122009 0.03208399564027786
vn 0.05037008970975876 0.9982151389122009 0.03208399564027786
vn 0.05037008970975876 0.9982151389122009 0.03208399564027786
vn 0.05037008970975876 0.9982151389122009 0.03208399564027786
vn 0.05037008970975876 0.9982151389122009 0.03208399564027786
vn 0.05037008970975876 0.9982151389122009 0.03208399564027786
vn 0.05037008970975876 0.9982151389122009 0.03208399564027786
vn -0.05124427378177643 -0.9981302618980408 -0.03331739082932472
vn -0.05024673044681549 -0.9981717467308044 -0.03359231352806091
vn -0.05183245986700058 -0.9981279373168945 -0.032465141266584396
vn -0.05173595994710922 -0.9981659054756165 -0.031435202807188034
vn -0.05024673044681549 -0.9981717467308044 -0.03359231352806091
vn -0.049307409673929214 -0.9982330203056335 -0.0331612154841423
vn -0.04886605590581894 -0.9982852935791016 -0.03222665190696716
vn -0.04912841320037842 -0.9983042478561401 -0.03122626431286335
vn -0.05100075528025627 -0.9982263445854187 -0.03070973791182041
vn -0.05173595994710922 -0.9981659054756165 -0.031435202807188034
vn 0.4750390648841858 -0.05220401659607887 0.8784148097038269
vn -0.20080186426639557 -0.021346762776374817 0.9793992638587952
vn 0.038970351219177246 -0.03406476601958275 0.9986595511436462
vn 0.5233029127120972 0.0009831998031586409 -0.8521461486816406
vn 0.8447823524475098 -0.0254481453448534 -0.5345045924186707
vn 0.30470597743988037 0.015233509242534637 -0.952324628829956
vn 0.9476649165153503 -0.03762919455766678 -0.31704139709472656
vn -0.1459183394908905 0.03913552686572075 -0.9885222315788269
vn 0.30470597743988037 0.015233509242534637 -0.952324628829956
vn -0.37794581055641174 0.04878723621368408 -0.9245413541793823
vn 0.5233029127120972 0.0009831998031586409 -0.8521461486816406
vn -0.7468628883361816 0.058975908905267715 -0.6623576879501343
vn -0.37794581055641174 0.04878723621368408 -0.9245413541793823
vn -0.8837525248527527 0.059512872248888016 -0.46415483951568604
vn -0.1459183394908905 0.03913552686572075 -0.9885222315788269
vn -0.9983417987823486 0.05122080445289612 -0.026268605142831802
vn -0.8837525248527527 0.059512872248888016 -0.46415483951568604
vn -0.9760414958000183 0.04239176958799362 0.21341483294963837
vn -0.7468628883361816 0.058975908905267715 -0.6623576879501343
vn -0.7826855182647705 0.0194989126175642 0.6221118569374084
vn -0.9760414958000183 0.04239176958799362 0.21341483294963837
vn -0.6116297245025635 0.00543506583198905 0.791125476360321
vn -0.9983417987823486 0.05122080445289612 -0.026268605142831802
vn -0.20080186426639557 -0.021346762776374817 0.9793992638587952
vn -0.6116297245025635 0.00543506583198905 0.791125476360321
vn 0.038970351219177246 -0.03406476601958275 0.9986595511436462
vn -0.7826855182647705 0.0194989126175642 0.6221118569374084
vn 0.9476649165153503 -0.03762919455766678 -0.31704139709472656
vn 0.9895756840705872 -0.05422235652804375 0.133416086435318
vn 0.8447823524475098 -0.0254481453448534 -0.5345045924186707
vn 0.928604006767273 -0.05863447114825249 0.36641037464141846
vn 0.6713356971740723 -0.05762530118227005 0.7389097809791565
vn 0.4750390648841858 -0.05220401659607887 0.8784148097038269
vn 0.6713356971740723 -0.05762530118227005 0.7389097809791565
vn -0.3623964190483093 0.9306043386459351 0.05142364278435707
vn -0.911631166934967 0.2917477786540985 -0.2895028293132782
vn 0.13925997912883759 0.1451675146818161 0.9795575737953186
vn -0.16768388450145721 0.14370881021022797 0.9753101468086243
vn -0.596646785736084 0.2677426040172577 0.7565226554870605
vn 0.9794764518737793 0.12345137447118759 0.1593288779258728
vn 0.8699820637702942 0.3365309238433838 -0.36038610339164734
vn 0.13925997912883759 0.1451675146818161 0.9795575737953186
vn 0.7058285474777222 0.22603648900985718 -0.6713520288467407
vn -0.3623964190483093 0.9306043386459351 0.05142364278435707
vn -0.3623964190483093 0.9306043386459351 0.05142364278435707
vn 0.7058285474777222 0.22603648900985718 -0.6713520288467407
vn -0.911631166934967 0.2917477786540985 -0.2895028293132782
vn -0.758678138256073 0.23039564490318298 -0.6093646883964539
vn 0.8699820637702942 0.3365309238433838 -0.36038610339164734
vn -0.3515133559703827 0.3220517337322235 -0.8790455460548401
vn 0.9794764518737793 0.12345137447118759 0.1593288779258728
vn -0.758678138256073 0.23039564490318298 -0.6093646883964539
vn -0.3515133559703827 0.3220517337322235 -0.8790455460548401
vn -0.596646785736084 0.2677426040172577 0.7565226554870605
vn -0.16768388450145721 0.14370881021022797 0.9753101468086243
vt 0.0034036741126328707 0.9952024817466736
vt 0.6262851357460022 0.9952653050422668
vt 0.0035472374875098467 0.004342019557952881
vt 0.010794879868626595 0.004476010799407959
vt 0.6262695789337158 0.9976764917373657
vt 0.01063039992004633 0.9976224899291992
vt 0.9949412941932678 0.6342490315437317
vt 0.9949526190757751 0.004118561744689941
vt 0.010796873830258846 0.004471123218536377
vt 0.6264809966087341 0.9976884126663208
vt 0.010654604993760586 0.9976399540901184
vt 0.9949340224266052 0.6336634159088135
vt 0.9949504733085632 0.004092872142791748
vt 0.010800175368785858 0.004479169845581055
vt 0.6260026097297668 0.9976877570152283
vt 0.010716548189520836 0.9976162910461426
vt 0.9949404001235962 0.6339155435562134
vt 0.9949526786804199 0.004141569137573242
vt 0.994845449924469 0.6337268352508545
vt 0.9950094819068909 0.00422978401184082
vt 0.6264557838439941 0.9952763915061951
vt 0.0034189647994935513 0.9952158331871033
vt 0.003458094783127308 0.9951977133750916
vt 0.6260696649551392 0.9952757954597473
vt 0.9948992729187012 0.6339370012283325
vt 0.9950283765792847 0.004242122173309326
vt 0.9949069023132324 0.6342151165008545
vt 0.9950281381607056 0.004236280918121338
vt 0.011052890680730343 0.007499992847442627
vt 0.9884231090545654 0.007499992847442627
vt 0.9884231090545654 0.997330904006958
vt 0.9884231090545654 0.007499992847442627
vt 0.011052890680730343 0.997330904006958
vt 0.9884231090545654 0.997330904006958
vt 0.011052890680730343 0.007499992847442627
vt 0.9975000023841858 0.9975000023841858
vt 0.002499997615814209 0.002499997615814209
vt 0.9975000023841858 0.002499997615814209
vt 0.002499997615814209 0.9975000023841858
vt 0.011447101831436157 0.007499992847442627
vt 0.9885529279708862 0.997330904006958
vt 0.011447101831436157 0.997330904006958
vt 0.9885529279708862 0.007499992847442627
vt 0.011052890680730343 0.007499992847442627
vt 0.9884231090545654 0.997330904006958
vt 0.011052890680730343 0.997330904006958
vt 0.9884231090545654 0.007499992847442627
vt 0.011052890680730343 0.007499992847442627
vt 0.9884231090545654 0.997330904006958
vt 0.011052890680730343 0.997330904006958
vt 0.9884231090545654 0.007499992847442627
vt 0.011052890680730343 0.007499992847442627
vt 0.9884231090545654 0.997330904006958
vt 0.011052890680730343 0.997330904006958
vt 0.9884231090545654 0.007499992847442627
vt 0.9884231090545654 0.007499992847442627
vt 0.011052890680730343 0.997330904006958
vt 0.9884231090545654 0.997330904006958
vt 0.011052890680730343 0.007499992847442627
vt 0.9884231090545654 0.997330904006958
vt 0.9884231090545654 0.007499992847442627
vt 0.011052890680730343 0.997330904006958
vt 0.9709601402282715 0.023935258388519287
vt 0.6329126358032227 0.021894633769989014
vt 0.6331766843795776 0.3488965630531311
vt 0.32657021284103394 0.011908888816833496
vt 0.0009495019912719727 0.021920442581176758
vt 0.007672523148357868 0.9827622175216675
vt 0.3276016116142273 0.6486619710922241
vt 0.633108377456665 0.010437607765197754
vt 0.6411940455436707 0.34513258934020996
vt 0.9699689745903015 0.013083696365356445
vt 0.9773417711257935 0.018685340881347656
vt 0.6347447633743286 0.015887200832366943
vt 0.635695219039917 0.3526648283004761
vt 0.3262622654438019 0.6542953252792358
vt 0.32808879017829895 0.020606160163879395
vt 0.008003681898117065 0.9750752449035645
vt 0.006898045539855957 0.03262019157409668
vt 0.3262860178947449 0.022811174392700195
vt 0.0030245590023696423 0.0242193341255188
vt 0.004455932416021824 0.9812553524971008
vt 0.32613518834114075 0.6613895893096924
g Geoset0
s 1
usemtl mat_wheel02
f 1/1/1 2/2/2 3/3/3
f 4/4/4 5/5/5 6/6/6
f 4/4/4 7/7/7 5/5/5
f 4/4/4 8/8/8 7/7/7
f 9/9/9 10/10/10 11/11/11
f 9/9/9 12/12/12 10/10/10
f 9/9/9 13/13/13 12/12/12
f 14/14/14 15/15/15 16/16/16
f 14/14/14 17/17/17 15/15/15
f 14/14/14 18/18/18 17/17/17
f 19/19/19 20/20/20 3/3/3
f 21/21/21 19/19/19 3/3/3
f 22/22/22 21/21/21 3/3/3
f 23/23/23 24/24/24 3/3/3
f 24/24/24 25/25/25 3/3/3
f 25/25/25 26/26/26 3/3/3
f 27/27/27 28/28/28 3/3/3
f 2/2/2 27/27/27 3/3/3
g Geoset1
s 1
usemtl mat_catapultwheel01
f 29/29/29 30/30/30 31/31/31
f 32/32/32 33/33/33 34/34/34
f 32/32/32 35/35/35 33/33/33
f 36/36/36 37/37/37 38/38/38
f 36/36/36 39/39/39 37/37/37
f 40/40/40 41/41/41 42/42/42
f 40/40/40 43/43/43 41/41/41
f 44/44/44 45/45/45 46/46/46
f 44/44/44 47/47/47 45/45/45
f 48/48/48 49/49/49 50/50/50
f 48/48/48 51/51/51 49/49/49
f 52/52/52 53/53/53 54/54/54
f 52/52/52 55/55/55 53/53/53
f 56/56/56 57/57/57 58/58/58
f 56/56/56 59/59/59 57/57/57
f 59/59/59 60/60/60 57/57/57
f 59/59/59 61/61/61 60/60/60
f 29/29/29 31/31/31 62/62/62
g Geoset2
s 1
usemtl mat_catapulthorn02
f 63/63/63 64/64/64 65/65/65
f 66/66/66 67/67/67 68/68/68
f 69/69/69 66/66/66 68/68/68
f 70/70/70 66/66/66 69/69/69
f 71/71/71 70/70/70 69/69/69
f 72/72/72 70/70/70 71/71/71
f 73/73/73 74/74/74 75/75/75
f 75/75/75 74/74/74 76/76/76
f 74/74/74 77/77/77 76/76/76
f 76/76/76 77/77/77 78/78/78
f 77/77/77 79/79/79 78/78/78
f 80/80/80 81/81/81 82/82/82
f 83/83/83 80/80/80 82/82/82
f 64/64/64 80/80/80 83/83/83
f 65/65/65 64/64/64 83/83/83
