# Exported using wow.export v0.1.64
o catapultarm
mtllib catapultarm.mtl
v 2.776237964630127 0.110606849193573 -0.5548935532569885
v 2.7116763591766357 0.6319642066955566 -0.5552025437355042
v 2.7319188117980957 0.7040625214576721 0.007557777222245932
v -1.169341802597046 0.6738436818122864 0.0772213563323021
v -1.0945112705230713 0.28840330243110657 0.12148948758840561
v 0.24583056569099426 0.9410627484321594 0.1608203947544098
v 0.2460206151008606 0.49056705832481384 0.21852906048297882
v 1.4491689205169678 0.8489606380462646 -0.00006516079156426713
v 1.3520853519439697 0.351838618516922 0.06711599230766296
v 2.7319188117980957 0.7040625214576721 0.007557777222245932
v 2.796480417251587 0.18270522356033325 0.007866847328841686
v -1.18569815158844 0.6230691075325012 -0.31569746136665344
v -1.169341802597046 0.6738436818122864 0.0772213563323021
v 0.22963663935661316 0.8833840489387512 -0.28938791155815125
v 0.24583056569099426 0.9410627484321594 0.1608203947544098
v 1.4309507608413696 0.7840720415115356 -0.5065495371818542
v 1.4491689205169678 0.8489606380462646 -0.00006516079156426713
v 2.7116763591766357 0.6319642066955566 -0.5552025437355042
v 2.7319188117980957 0.7040625214576721 0.007557777222245932
v -1.1104472875595093 0.23832488059997559 -0.2663581669330597
v -1.18569815158844 0.6230691075325012 -0.31569746136665344
v 0.2298266589641571 0.4328884184360504 -0.23167923092842102
v 0.22963663935661316 0.8833840489387512 -0.28938791155815125
v 1.3338671922683716 0.28695008158683777 -0.4393683671951294
v 1.4309507608413696 0.7840720415115356 -0.5065495371818542
v 2.776237964630127 0.110606849193573 -0.5548935532569885
v 2.7116763591766357 0.6319642066955566 -0.5552025437355042
v -1.0945112705230713 0.28840330243110657 0.12148948758840561
v -1.1104472875595093 0.23832488059997559 -0.2663581669330597
v 0.2460206151008606 0.49056705832481384 0.21852906048297882
v 0.2298266589641571 0.4328884184360504 -0.23167923092842102
v 1.3520853519439697 0.351838618516922 0.06711599230766296
v 1.3338671922683716 0.28695008158683777 -0.4393683671951294
v 2.796480417251587 0.18270522356033325 0.007866847328841686
v 2.776237964630127 0.110606849193573 -0.5548935532569885
v 2.796480417251587 0.18270522356033325 0.007866847328841686
v -1.778887391090393 -0.15479782223701477 -0.19450554251670837
v -2.124323606491089 0.0019635423086583614 -0.5240064263343811
v -1.8987232446670532 0.07766912132501602 -0.5792163014411926
v -2.402130365371704 0.2606421113014221 -0.6697193384170532
v -1.954671025276184 0.7751234769821167 -0.8400568962097168
v -1.9330198764801025 0.3845044672489166 -0.8378956317901611
v -2.513296127319336 0.334297776222229 -0.7011075019836426
v -2.6301944255828857 -0.11144386231899261 -0.2792894244194031
v -2.513296127319336 0.334297776222229 -0.7011075019836426
v -2.402130365371704 0.2606421113014221 -0.6697193384170532
v -2.7850112915039062 0.2444547563791275 -0.27173876762390137
v -1.4462547302246094 0.07256494462490082 -0.253334105014801
v -1.0945112705230713 0.28840330243110657 0.12148948758840561
v -1.4270793199539185 0.04362013190984726 0.032545916736125946
v -1.1104472875595093 0.23832488059997559 -0.2663581669330597
v -2.124323606491089 0.0019635423086583614 -0.5240064263343811
v -1.9330198764801025 0.3845044672489166 -0.8378956317901611
v -1.8987232446670532 0.07766912132501602 -0.5792163014411926
v -2.402130365371704 0.2606421113014221 -0.6697193384170532
v -2.2511212825775146 -0.12863105535507202 -0.31752488017082214
v -2.402130365371704 0.2606421113014221 -0.6697193384170532
v -2.124323606491089 0.0019635423086583614 -0.5240064263343811
v -2.6301944255828857 -0.11144386231899261 -0.2792894244194031
v -2.255047082901001 -0.3022664189338684 0.08030889928340912
v -2.6301944255828857 -0.11144386231899261 -0.2792894244194031
v -2.2511212825775146 -0.12863105535507202 -0.31752488017082214
v -2.593134641647339 -0.1283164918422699 0.19181933999061584
v -1.4347100257873535 0.19585920870304108 -0.6915358304977417
v -1.18569815158844 0.6230691075325012 -0.31569746136665344
v -1.1104472875595093 0.23832488059997559 -0.2663581669330597
v -1.3707424402236938 0.5846239924430847 -0.7214578986167908
v -1.8987232446670532 0.07766912132501602 -0.5792163014411926
v -1.6264103651046753 0.08563600480556488 -0.48699989914894104
v -1.9330198764801025 0.3845044672489166 -0.8378956317901611
v -1.780059576034546 -0.16031764447689056 0.2948126494884491
v -2.0757882595062256 -0.25587835907936096 0.3103981912136078
v -2.3030080795288086 -0.05303904041647911 0.5640069246292114
v -1.864168405532837 0.2170545607805252 0.6977623105049133
v -2.4534590244293213 0.2994309961795807 0.6257864832878113
v -1.979380488395691 0.5833016633987427 0.7550211548805237
v -1.5419337749481201 -0.03750408813357353 0.23277218639850616
v -1.780059576034546 -0.16031764447689056 0.2948126494884491
v -1.864168405532837 0.2170545607805252 0.6977623105049133
v -1.4593732357025146 0.19706328213214874 0.5544636249542236
v -1.979380488395691 0.5833016633987427 0.7550211548805237
v -1.5249768495559692 0.5890714526176453 0.5647004246711731
v -2.2511212825775146 -0.12863105535507202 -0.31752488017082214
v -2.124323606491089 0.0019635423086583614 -0.5240064263343811
v -2.593134641647339 -0.1283164918422699 0.19181933999061584
v -2.7850112915039062 0.2444547563791275 -0.27173876762390137
v -2.6301944255828857 -0.11144386231899261 -0.2792894244194031
v -2.764885663986206 0.09101925790309906 0.2319851964712143
v -2.255047082901001 -0.3022664189338684 0.08030889928340912
v -2.2511212825775146 -0.12863105535507202 -0.31752488017082214
v -2.0757882595062256 -0.25587835907936096 0.3103981912136078
v -2.3030080795288086 -0.05303904041647911 0.5640069246292114
v -2.4534590244293213 0.2994309961795807 0.6257864832878113
v -1.9330198764801025 0.3845044672489166 -0.8378956317901611
v -1.3707424402236938 0.5846239924430847 -0.7214578986167908
v -1.4347100257873535 0.19585920870304108 -0.6915358304977417
v -1.954671025276184 0.7751234769821167 -0.8400568962097168
v -1.4270793199539185 0.04362013190984726 0.032545916736125946
v -1.4593732357025146 0.19706328213214874 0.5544636249542236
v -1.5419337749481201 -0.03750408813357353 0.23277218639850616
v -1.0945112705230713 0.28840330243110657 0.12148948758840561
v -1.5249768495559692 0.5890714526176453 0.5647004246711731
v -1.169341802597046 0.6738436818122864 0.0772213563323021
v -1.1104472875595093 0.23832488059997559 -0.2663581669330597
v -1.18569815158844 0.6230691075325012 -0.31569746136665344
v -1.6264103651046753 0.08563600480556488 -0.48699989914894104
v -1.4462547302246094 0.07256494462490082 -0.253334105014801
v -1.8987232446670532 0.07766912132501602 -0.5792163014411926
vn 0.6306898593902588 -0.3119432032108307 -0.7105785012245178
vn 0.4307502508163452 0.7642476558685303 -0.47997891902923584
vn 0.693669855594635 0.44255292415618896 0.568303644657135
vn 0.5292024612426758 0.7744203805923462 0.34672436118125916
vn 0.660044252872467 -0.45346784591674805 0.5989227294921875
vn -0.020798854529857635 0.7877585887908936 0.6156328916549683
vn 0.08765645325183868 -0.6128256320953369 0.7853413820266724
vn 0.13690835237503052 0.7838253378868103 0.605701208114624
vn -0.0285150408744812 -0.6277655363082886 0.7778800129890442
vn 0.693669855594635 0.44255292415618896 0.568303644657135
vn 0.34608978033065796 -0.784546971321106 0.514497697353363
vn 0.5454379916191101 0.2193082720041275 -0.8089507222175598
vn 0.5292024612426758 0.7744203805923462 0.34672436118125916
vn -0.15017250180244446 0.6104208827018738 -0.7777110934257507
vn -0.020798854529857635 0.7877585887908936 0.6156328916549683
vn -0.02018680050969124 0.63360995054245 -0.7733892202377319
vn 0.13690835237503052 0.7838253378868103 0.605701208114624
vn 0.4307502508163452 0.7642476558685303 -0.47997891902923584
vn 0.693669855594635 0.44255292415618896 0.568303644657135
vn 0.6652235388755798 -0.6821296811103821 -0.30360621213912964
vn 0.5454379916191101 0.2193082720041275 -0.8089507222175598
vn -0.044374413788318634 -0.7899638414382935 -0.6115456223487854
vn -0.15017250180244446 0.6104208827018738 -0.7777110934257507
vn -0.18943727016448975 -0.7764844298362732 -0.6009870767593384
vn -0.02018680050969124 0.63360995054245 -0.7733892202377319
vn 0.6306898593902588 -0.3119432032108307 -0.7105785012245178
vn 0.4307502508163452 0.7642476558685303 -0.47997891902923584
vn 0.660044252872467 -0.45346784591674805 0.5989227294921875
vn 0.6652235388755798 -0.6821296811103821 -0.30360621213912964
vn 0.08765645325183868 -0.6128256320953369 0.7853413820266724
vn -0.044374413788318634 -0.7899638414382935 -0.6115456223487854
vn -0.0285150408744812 -0.6277655363082886 0.7778800129890442
vn -0.18943727016448975 -0.7764844298362732 -0.6009870767593384
vn 0.34608978033065796 -0.784546971321106 0.514497697353363
vn 0.6306898593902588 -0.3119432032108307 -0.7105785012245178
vn 0.34608978033065796 -0.784546971321106 0.514497697353363
vn 0.3199339807033539 -0.9072593450546265 -0.272988498210907
vn -0.039936505258083344 -0.7445694208145142 -0.6663493514060974
vn 0.10445613414049149 -0.785500168800354 -0.6099823117256165
vn -0.18545931577682495 -0.5213695764541626 -0.8329337239265442
vn -0.03241150453686714 -0.12519410252571106 -0.9916027188301086
vn -0.0023853410966694355 -0.359584778547287 -0.9331094026565552
vn -0.3441373407840729 -0.4747478663921356 -0.8100517988204956
vn -0.4907527565956116 -0.7443357706069946 -0.45290836691856384
vn -0.3441373407840729 -0.4747478663921356 -0.8100517988204956
vn -0.18545931577682495 -0.5213695764541626 -0.8329337239265442
vn -0.8606945872306824 -0.45709171891212463 -0.22421416640281677
vn 0.503614068031311 -0.8439460396766663 -0.18473763763904572
vn 0.660044252872467 -0.45346784591674805 0.5989227294921875
vn 0.611288845539093 -0.7903808951377869 0.04029832407832146
vn 0.6652235388755798 -0.6821296811103821 -0.30360621213912964
vn -0.039936505258083344 -0.7445694208145142 -0.6663493514060974
vn -0.0023853410966694355 -0.359584778547287 -0.9331094026565552
vn 0.10445613414049149 -0.785500168800354 -0.6099823117256165
vn -0.18545931577682495 -0.5213695764541626 -0.8329337239265442
vn -0.07546166330575943 -0.8363514542579651 -0.5429748892784119
vn -0.18545931577682495 -0.5213695764541626 -0.8329337239265442
vn -0.039936505258083344 -0.7445694208145142 -0.6663493514060974
vn -0.4907527565956116 -0.7443357706069946 -0.45290836691856384
vn -0.11107653379440308 -0.9897945523262024 -0.08926776796579361
vn -0.4907527565956116 -0.7443357706069946 -0.45290836691856384
vn -0.07546166330575943 -0.8363514542579651 -0.5429748892784119
vn -0.6103853583335876 -0.7555621266365051 0.23781418800354004
vn 0.4936142563819885 -0.5553503036499023 -0.6692764759063721
vn 0.5454379916191101 0.2193082720041275 -0.8089507222175598
vn 0.6652235388755798 -0.6821296811103821 -0.30360621213912964
vn 0.4951661229133606 -0.10574045032262802 -0.8623395562171936
vn 0.10445613414049149 -0.785500168800354 -0.6099823117256165
vn 0.3200233280658722 -0.87010258436203 -0.3748420476913452
vn -0.0023853410966694355 -0.359584778547287 -0.9331094026565552
vn 0.3682056665420532 -0.8159353733062744 0.4457286596298218
vn 0.04887336120009422 -0.9410549998283386 0.3347042500972748
vn -0.22218070924282074 -0.622882068157196 0.7501024603843689
vn 0.1603960245847702 -0.46814805269241333 0.8689709305763245
vn -0.31514841318130493 -0.28136274218559265 0.9063754677772522
vn 0.1970897614955902 -0.06905429065227509 0.9779504537582397
vn 0.5156840682029724 -0.8044950366020203 0.2947162091732025
vn 0.3682056665420532 -0.8159353733062744 0.4457286596298218
vn 0.1603960245847702 -0.46814805269241333 0.8689709305763245
vn 0.5786990523338318 -0.41361886262893677 0.7028704285621643
vn 0.1970897614955902 -0.06905429065227509 0.9779504537582397
vn 0.653438150882721 0.12594512104988098 0.7464290857315063
vn -0.07546166330575943 -0.8363514542579651 -0.5429748892784119
vn -0.039936505258083344 -0.7445694208145142 -0.6663493514060974
vn -0.6103853583335876 -0.7555621266365051 0.23781418800354004
vn -0.8606945872306824 -0.45709171891212463 -0.22421416640281677
vn -0.4907527565956116 -0.7443357706069946 -0.45290836691856384
vn -0.7237293124198914 -0.5593617558479309 0.4041414260864258
vn -0.11107653379440308 -0.9897945523262024 -0.08926776796579361
vn -0.07546166330575943 -0.8363514542579651 -0.5429748892784119
vn 0.04887336120009422 -0.9410549998283386 0.3347042500972748
vn -0.22218070924282074 -0.622882068157196 0.7501024603843689
vn -0.31514841318130493 -0.28136274218559265 0.9063754677772522
vn -0.0023853410966694355 -0.359584778547287 -0.9331094026565552
vn 0.4951661229133606 -0.10574045032262802 -0.8623395562171936
vn 0.4936142563819885 -0.5553503036499023 -0.6692764759063721
vn -0.03241150453686714 -0.12519410252571106 -0.9916027188301086
vn 0.611288845539093 -0.7903808951377869 0.04029832407832146
vn 0.5786990523338318 -0.41361886262893677 0.7028704285621643
vn 0.5156840682029724 -0.8044950366020203 0.2947162091732025
vn 0.660044252872467 -0.45346784591674805 0.5989227294921875
vn 0.653438150882721 0.12594512104988098 0.7464290857315063
vn 0.5292024612426758 0.7744203805923462 0.34672436118125916
vn 0.6652235388755798 -0.6821296811103821 -0.30360621213912964
vn 0.5454379916191101 0.2193082720041275 -0.8089507222175598
vn 0.3200233280658722 -0.87010258436203 -0.3748420476913452
vn 0.503614068031311 -0.8439460396766663 -0.18473763763904572
vn 0.10445613414049149 -0.785500168800354 -0.6099823117256165
vt 1.0671333074569702 0.31450915336608887
vt 0.9181808233261108 0.6275196075439453
vt 0.483591228723526 0.6347661018371582
vt 0.7329499125480652 0.8633034229278564
vt 0.12847298383712769 0.8633174896240234
vt 0.7329500317573547 0.5392438769340515
vt 0.13568741083145142 0.5392788648605347
vt 0.7309194207191467 0.20076340436935425
vt 0.1343960165977478 0.2000296711921692
vt 0.7299962639808655 -0.12737560272216797
vt 0.13549578189849854 -0.12740671634674072
vt 1.3508613109588623 0.8661108016967773
vt 0.7379538416862488 0.8653744459152222
vt 1.3449640274047852 0.5354183912277222
vt 0.7342442274093628 0.5354211330413818
vt 1.3502254486083984 0.19975662231445312
vt 0.7288884520530701 0.19975972175598145
vt 1.3412017822265625 -0.12677335739135742
vt 0.7378755211830139 -0.12677013874053955
vt 1.9906575679779053 0.8641996383666992
vt 1.3693568706512451 0.8642834424972534
vt 1.9879724979400635 0.5377678871154785
vt 1.3708698749542236 0.5377523899078369
vt 1.9801676273345947 0.19969123601913452
vt 1.3586840629577637 0.20034343004226685
vt 1.9737443923950195 -0.12647461891174316
vt 1.3627688884735107 -0.12644338607788086
vt 0.15360328555107117 0.863012433052063
vt 1.9641919136047363 0.8635643720626831
vt 0.1486654281616211 0.5337928533554077
vt 1.9743571281433105 0.5337890386581421
vt 0.14617234468460083 0.19985640048980713
vt 1.961467981338501 0.1998523473739624
vt 0.14371976256370544 -0.12643098831176758
vt 1.9638900756835938 -0.12643563747406006
vt 0.4972778856754303 0.33624863624572754
vt 0.0430000014603138 0.9990000128746033
vt 0.36835777759552 0.6717958450317383
vt 0.3680086135864258 0.9990000128746033
vt 0.6909021139144897 0.34522879123687744
vt 0.9990000128746033 0.9990000128746033
vt 0.6909021139144897 0.9980000257492065
vt 0.9990000128746033 0.03100001811981201
vt 0.6909021139144897 0.34522879123687744
vt 0.9990000128746033 0.9990000128746033
vt 0.6909021139144897 0.9980000257492065
vt 0.9990000128746033 0.03100001811981201
vt 0.3678781986236572 0.9939126968383789
vt 0.6901628375053406 0.3470034599304199
vt 0.3676946461200714 0.6664454936981201
vt 0.6894840598106384 0.993963360786438
vt 0.3688334822654724 0.9972032308578491
vt 0.691571831703186 0.3352895975112915
vt 0.37036412954330444 0.6616272926330566
vt 0.689764678478241 0.9916743040084839
vt 0.3717699944972992 0.9937421679496765
vt 0.6905983090400696 0.34040313959121704
vt 0.3687790036201477 0.6612840890884399
vt 0.69061279296875 0.9985203146934509
vt 0.3694746196269989 1.0000815391540527
vt 0.6922340989112854 0.3436105251312256
vt 0.363974004983902 0.6678708791732788
vt 0.6900714635848999 0.9953764081001282
vt 0.6899120807647705 0.3404914140701294
vt 0.9996486902236938 0.9912412166595459
vt 0.6900914907455444 0.9929293990135193
vt 0.9994668960571289 0.035904526710510254
vt 0.36980345845222473 1.000138521194458
vt 0.3672240972518921 0.6612474918365479
vt 0.68836510181427 0.9916096925735474
vt 0.3680086135864258 0.9990000128746033
vt 0.36835777759552 0.6717958450317383
vt 0.6909021139144897 0.34522879123687744
vt 0.6909021139144897 0.9980000257492065
vt 0.9990000128746033 0.03100001811981201
vt 0.9990000128746033 0.9990000128746033
vt 0.3680086135864258 0.9990000128746033
vt 0.36835777759552 0.6717958450317383
vt 0.6909021139144897 0.34522879123687744
vt 0.6909021139144897 0.9980000257492065
vt 0.9990000128746033 0.03100001811981201
vt 0.9990000128746033 0.9990000128746033
vt 0.36835777759552 0.6717958450317383
vt 0.3680086135864258 0.9990000128746033
vt 0.6909021139144897 0.34522879123687744
vt 0.9990000128746033 0.9990000128746033
vt 0.6909021139144897 0.9980000257492065
vt 0.9990000128746033 0.03100001811981201
vt 0.36835777759552 0.6717958450317383
vt 0.3680086135864258 0.9990000128746033
vt 0.3680086135864258 0.9990000128746033
vt 0.6909021139144897 0.9980000257492065
vt 0.9990000128746033 0.9990000128746033
vt 0.6909021139144897 0.34522879123687744
vt 0.9990000128746033 0.9990000128746033
vt 0.6909021139144897 0.9980000257492065
vt 0.9990000128746033 0.03100001811981201
vt 0.3680086135864258 0.9990000128746033
vt 0.6909021139144897 0.34522879123687744
vt 0.36835777759552 0.6717958450317383
vt 0.6909021139144897 0.9980000257492065
vt 0.9990000128746033 0.03100001811981201
vt 0.9990000128746033 0.9990000128746033
vt 0.6909021139144897 0.34522879123687744
vt 0.9990000128746033 0.03100001811981201
vt 0.3680086135864258 0.9990000128746033
vt 0.36835777759552 0.6717958450317383
vt 0.36835777759552 0.6717958450317383
g Geoset0
s 1
usemtl mat_catapultbeam02
f 1/1/1 2/2/2 3/3/3
f 4/4/4 5/5/5 6/6/6
f 7/7/7 6/6/6 5/5/5
f 6/6/6 7/7/7 8/8/8
f 9/9/9 8/8/8 7/7/7
f 8/8/8 9/9/9 10/10/10
f 11/11/11 10/10/10 9/9/9
f 12/12/12 13/13/13 14/14/14
f 15/15/15 14/14/14 13/13/13
f 14/14/14 15/15/15 16/16/16
f 17/17/17 16/16/16 15/15/15
f 16/16/16 17/17/17 18/18/18
f 19/19/19 18/18/18 17/17/17
f 20/20/20 21/21/21 22/22/22
f 23/23/23 22/22/22 21/21/21
f 22/22/22 23/23/23 24/24/24
f 25/25/25 24/24/24 23/23/23
f 24/24/24 25/25/25 26/26/26
f 27/27/27 26/26/26 25/25/25
f 28/28/28 29/29/29 30/30/30
f 31/31/31 30/30/30 29/29/29
f 30/30/30 31/31/31 32/32/32
f 33/33/33 32/32/32 31/31/31
f 32/32/32 33/33/33 34/34/34
f 35/35/35 34/34/34 33/33/33
f 1/1/1 3/3/3 36/36/36
g Geoset1
s 1
usemtl mat_catapulthorn02
f 37/37/37 38/38/38 39/39/39
f 40/40/40 41/41/41 42/42/42
f 40/40/40 43/43/43 41/41/41
f 44/44/44 45/45/45 46/46/46
f 44/44/44 47/47/47 45/45/45
f 48/48/48 49/49/49 50/50/50
f 48/48/48 51/51/51 49/49/49
f 52/52/52 53/53/53 54/54/54
f 52/52/52 55/55/55 53/53/53
f 56/56/56 57/57/57 58/58/58
f 56/56/56 59/59/59 57/57/57
f 60/60/60 61/61/61 62/62/62
f 60/60/60 63/63/63 61/61/61
f 64/64/64 65/65/65 66/66/66
f 64/64/64 67/67/67 65/65/65
f 68/68/68 64/64/64 69/69/69
f 68/68/68 70/70/70 64/64/64
f 37/37/37 71/71/71 72/72/72
f 71/71/71 73/73/73 72/72/72
f 71/71/71 74/74/74 73/73/73
f 74/74/74 75/75/75 73/73/73
f 74/74/74 76/76/76 75/75/75
f 37/37/37 77/77/77 78/78/78
f 77/77/77 79/79/79 78/78/78
f 77/77/77 80/80/80 79/79/79
f 80/80/80 81/81/81 79/79/79
f 80/80/80 82/82/82 81/81/81
f 37/37/37 83/83/83 84/84/84
f 85/85/85 86/86/86 87/87/87
f 85/85/85 88/88/88 86/86/86
f 37/37/37 89/89/89 90/90/90
f 37/37/37 91/91/91 89/89/89
f 91/91/91 85/85/85 89/89/89
f 91/91/91 92/92/92 85/85/85
f 92/92/92 88/88/88 85/85/85
f 92/92/92 93/93/93 88/88/88
f 94/94/94 95/95/95 96/96/96
f 94/94/94 97/97/97 95/95/95
f 98/98/98 99/99/99 100/100/100
f 98/98/98 101/101/101 99/99/99
f 101/101/101 102/102/102 99/99/99
f 101/101/101 103/103/103 102/102/102
f 104/104/104 103/103/103 101/101/101
f 104/104/104 105/105/105 103/103/103
f 106/106/106 96/96/96 104/104/104
f 106/106/106 104/104/104 107/107/107
f 37/37/37 106/106/106 107/107/107
f 37/37/37 108/108/108 106/106/106
f 37/37/37 98/98/98 100/100/100
f 37/37/37 107/107/107 98/98/98
