# Exported using wow.export v0.1.64
o cavekoboldspidereggsground
mtllib cavekoboldspidereggsground.mtl
v -5.986213608144553e-11 0.1111111119389534 0.6666666865348816
v -0.9402387738227844 -0.01208413951098919 0.7608397603034973
v -0.1118970587849617 -0.01208413951098919 1.1426674127578735
v -0.0555555559694767 0.1111111119389534 -0.7222222089767456
v 0.9101382493972778 -0.011111114174127579 -0.653126060962677
v -0.021408239379525185 -0.01208413951098919 -1.1141520738601685
v 0.5773502588272095 0.1111111119389534 -0.3333333432674408
v 0.393295019865036 0.40097305178642273 -0.18656890094280243
v 0.40824830532073975 0.28986191749572754 0.2912578284740448
v -0.5773502588272095 0.1111111119389534 -0.3333333432674408
v -0.6884613633155823 0.1111111119389534 0.3888888955116272
v -0.8892330527305603 -0.01208413951098919 -0.6564426422119141
v -0.40824830532073975 0.34541746973991394 0.2357022762298584
v -0.42806386947631836 0.3055555522441864 -0.20931297540664673
v 0 0.42875081300735474 -0.3602933883666992
v 0 0.5 0.02777777798473835
v 0.02777777798473835 0.40097302198410034 0.4158489406108856
v 0.5773502588272095 0.1111111119389534 0.4166666567325592
v 0.8497399687767029 -0.01208413951098919 0.6406646370887756
v 0.4069535434246063 -0.01465095765888691 0.13189978897571564
v 0.4069535434246063 -0.01465095765888691 0.04900830239057541
v 0.4069535434246063 0.06824053078889847 0.04900830239057541
v 0.4069535434246063 0.06824053078889847 0.13189978897571564
v 0.25073879957199097 -0.0018965777708217502 -0.21038499474525452
v 0.25073879957199097 0.10843197256326675 -0.32071352005004883
v 0.25073879957199097 0.10843197256326675 -0.21038499474525452
v 0.25073879957199097 -0.0018965777708217502 -0.32071352005004883
v -0.4028450846672058 -0.021964915096759796 0.11328600347042084
v -0.4028450846672058 0.07555448263883591 0.015766620635986328
v -0.4028450846672058 0.07555448263883591 0.11328600347042084
v -0.4028450846672058 -0.021964915096759796 0.015766620635986328
v -0.4458419978618622 -0.009323512203991413 0.14397025108337402
v -0.4458419978618622 0.06291308254003525 0.07173366844654083
v -0.4458419978618622 0.06291308254003525 0.14397025108337402
v -0.4458419978618622 -0.009323512203991413 0.07173366844654083
vn 0.02237611636519432 0.8875682950019836 0.460132360458374
vn -0.21188142895698547 0.9646039009094238 0.15698890388011932
vn -0.006314561236649752 0.9684414863586426 0.24916096031665802
vn -0.03056075982749462 0.9076269865036011 -0.4186636507511139
vn 0.22835330665111542 0.9627965092658997 -0.14449115097522736
vn 0.0015119108138605952 0.954018235206604 -0.29974469542503357
vn 0.42920830845832825 0.8808577060699463 -0.19967468082904816
vn 0.5546413660049438 0.8057184219360352 -0.20782384276390076
vn 0.5217164158821106 0.7875001430511475 0.3281090557575226
vn -0.41686931252479553 0.8848180770874023 -0.20812731981277466
vn -0.4212890863418579 0.8977862596511841 0.12843401730060577
vn -0.23982630670070648 0.9582006335258484 -0.1559964269399643
vn -0.46121424436569214 0.8512258529663086 0.2503916323184967
vn -0.5628395080566406 0.7860164642333984 -0.2557142376899719
vn -0.04129096493124962 0.8802946209907532 -0.4726271629333496
vn -0.024096054956316948 0.9986662864685059 0.045661620795726776
vn 0.050076331943273544 0.8325824737548828 0.551632821559906
vn 0.3800322711467743 0.8949648141860962 0.23369520902633667
vn 0.26204249262809753 0.9482717514038086 0.17920497059822083
vn 1 0 0
vn 1 0 0
vn 1 0 0
vn 1 0 0
vn 1 0 0
vn 1 0 0
vn 1 0 0
vn 1 0 0
vn 1 0 0
vn 1 0 0
vn 1 0 0
vn 1 0 0
vn 1 0 0
vn 1 0 0
vn 1 0 0
vn 1 0 0
vt 0.21120542287826538 0.4918745756149292
vt 0.16951900720596313 0.9995003938674927
vt 0.0004995167255401611 0.5522868037223816
vt 0.8260092735290527 0.5218683481216431
vt 0.795423150062561 0.0004996061325073242
vt 0.9995004534721375 0.5034324526786804
vt 0.6538641452789307 0.18016862869262695
vt 0.5875393152236938 0.2823985815048218
vt 0.37281882762908936 0.27190184593200684
vt 0.6538642644882202 0.8035802841186523
vt 0.3341662585735321 0.8635681867599487
vt 0.796891450881958 0.9719628095626831
vt 0.40122562646865845 0.7148430347442627
vt 0.5960729122161865 0.7140880227088928
vt 0.6721879243850708 0.4853363037109375
vt 0.4940151870250702 0.4918745160102844
vt 0.32223206758499146 0.4768775701522827
vt 0.3218700587749481 0.1801687479019165
vt 0.2227153778076172 0.0331081748008728
vt 0.0004995167255401611 0.0004994869232177734
vt 0.9995005130767822 0.0004994869232177734
vt 0.9995005130767822 0.9995005130767822
vt 0.0004995167255401611 0.9995005130767822
vt 0.0004995167255401611 0.0004994869232177734
vt 0.9995005130767822 0.9995005130767822
vt 0.0004995167255401611 0.9995005130767822
vt 0.9995005130767822 0.0004994869232177734
vt 0.0004995167255401611 0.0004994869232177734
vt 0.9995005130767822 0.9995005130767822
vt 0.0004995167255401611 0.9995005130767822
vt 0.9995005130767822 0.0004994869232177734
vt 0.0004995167255401611 0.0004994869232177734
vt 0.9995005130767822 0.9995005130767822
vt 0.0004995167255401611 0.9995005130767822
vt 0.9995005130767822 0.0004994869232177734
g Geoset0
s 1
usemtl mat_spidereggground
f 1/1/1 2/2/2 3/3/3
f 4/4/4 5/5/5 6/6/6
f 5/5/5 4/4/4 7/7/7
f 7/7/7 4/4/4 8/8/8
f 9/9/9 7/7/7 8/8/8
f 10/10/10 2/2/2 11/11/11
f 2/2/2 10/10/10 12/12/12
f 10/10/10 4/4/4 12/12/12
f 12/12/12 4/4/4 6/6/6
f 2/2/2 1/1/1 11/11/11
f 1/1/1 13/13/13 11/11/11
f 10/10/10 11/11/11 13/13/13
f 10/10/10 13/13/13 14/14/14
f 14/14/14 4/4/4 10/10/10
f 4/4/4 14/14/14 15/15/15
f 8/8/8 4/4/4 15/15/15
f 16/16/16 8/8/8 15/15/15
f 16/16/16 9/9/9 8/8/8
f 16/16/16 17/17/17 9/9/9
f 16/16/16 15/15/15 14/14/14
f 16/16/16 14/14/14 13/13/13
f 16/16/16 13/13/13 17/17/17
f 13/13/13 1/1/1 17/17/17
f 1/1/1 9/9/9 17/17/17
f 9/9/9 1/1/1 18/18/18
f 7/7/7 9/9/9 18/18/18
f 7/7/7 18/18/18 19/19/19
f 7/7/7 19/19/19 5/5/5
f 1/1/1 19/19/19 18/18/18
f 19/19/19 1/1/1 3/3/3
g Geoset1
s 1
usemtl mat_spidereggs01
f 20/20/20 21/21/21 22/22/22
f 20/20/20 22/22/22 23/23/23
f 32/32/32 33/33/33 34/34/34
f 32/32/32 35/35/35 33/33/33
f 28/28/28 29/29/29 30/30/30
f 28/28/28 31/31/31 29/29/29
f 24/24/24 25/25/25 26/26/26
f 24/24/24 27/27/27 25/25/25
