# Exported using wow.export v0.1.64
o karazahnweb01
mtllib karazahnweb01.mtl
v -1.2852094173431396 -3.0033514499664307 -0.4759587347507477
v -0.43950632214546204 3.1550896167755127 1.89395010471344
v -0.9148786664009094 -3.012422800064087 1.9057960510253906
v 3.2386114597320557 9.202913284301758 0.9318037033081055
v 2.152679920196533 3.155089855194092 -0.8349918723106384
v 7.413512229919434 9.202913284301758 1.8409868478775024
v 0.5318630933761597 3.155089855194092 0.25165611505508423
v -0.9148790836334229 -2.995398998260498 -2.2319459915161133
v -0.4299077093601227 9.202911376953125 1.3335825204849243
vn 0.9713304042816162 -0.21957506239414215 0.09112630039453506
vn 0.8912737965583801 -0.11647822707891464 0.4382508397102356
vn 0.9852073788642883 -0.076231449842453 -0.15347681939601898
vn -0.028178229928016663 -0.22508488595485687 0.973931610584259
vn 0.4231286346912384 -0.363709032535553 0.8298661708831787
vn -0.20656651258468628 -0.24001291394233704 0.9485378861427307
vn 0.6782785058021545 -0.26599884033203125 0.6849692463874817
vn 0.8900192975997925 -0.3344668745994568 0.3098347783088684
vn 0.2610833942890167 -0.12960733473300934 0.956575870513916
vt 0.9907845854759216 0.5332556962966919
vt 0.4836369752883911 0.021281778812408447
vt 0.989997148513794 0.018791139125823975
vt 0.007843137718737125 0.4991062879562378
vt 0.5060225129127502 0.9842519760131836
vt 0.007843137718737125 0.9842519760131836
vt 0.4947464168071747 0.49918246269226074
vt 0.9914748668670654 0.9842519760131836
vt 0.007843137718737125 0.02362203598022461
g Geoset0
s 1
usemtl mat_treeweb01
f 1/1/1 2/2/2 3/3/3
f 4/4/4 5/5/5 6/6/6
f 7/7/7 5/5/5 4/4/4
f 5/5/5 7/7/7 8/8/8
f 7/7/7 1/1/1 8/8/8
f 9/9/9 7/7/7 4/4/4
f 2/2/2 7/7/7 9/9/9
f 7/7/7 2/2/2 1/1/1
