# Exported using wow.export v0.1.64
o deadminesteamgauge01
mtllib deadminesteamgauge01.mtl
v 0.08794191479682922 0.17717523872852325 -0.00862978771328926
v -0.0019301356514915824 0.17717523872852325 0.04325792193412781
v -0.04332079365849495 0.00033946020994335413 0.0432579405605793
v 0.2628117799758911 0.2654764652252197 -0.05162560194730759
v 0.313470721244812 0.36043477058410645 -0.1621927171945572
v 0.3376133143901825 0.2903120815753937 -0.052210889756679535
v 0.23866912722587585 0.3355991840362549 -0.16160745918750763
v 0.25574663281440735 0.28982406854629517 0.07857945561408997
v 0.3376133143901825 0.2903120815753937 -0.052210889756679535
v 0.3305481970310211 0.3146596848964691 0.07799418270587921
v 0.2628117799758911 0.2654764652252197 -0.05162560194730759
v 0.22161240875720978 0.39437949657440186 0.1527353972196579
v 0.3305481970310211 0.3146596848964691 0.07799418270587921
v 0.29641398787498474 0.4192150831222534 0.15215012431144714
v 0.25574663281440735 0.28982406854629517 0.07857945561408997
v 0.18040446937084198 0.5178955793380737 0.12740261852741241
v 0.29641398787498474 0.4192150831222534 0.15215012431144714
v 0.25520601868629456 0.5427311658859253 0.12681734561920166
v 0.22161240875720978 0.39437949657440186 0.1527353972196579
v 0.1562618464231491 0.5880182981491089 0.017420761287212372
v 0.25520601868629456 0.5427311658859253 0.12681734561920166
v 0.2310633659362793 0.6128539443016052 0.016835490241646767
v 0.18040446937084198 0.5178955793380737 0.12740261852741241
v 0.16332696378231049 0.5636707544326782 -0.11278431862592697
v 0.2310633659362793 0.6128539443016052 0.016835490241646767
v 0.23812852799892426 0.5885063409805298 -0.11336958408355713
v 0.1562618464231491 0.5880182981491089 0.017420761287212372
v 0.19746120274066925 0.45911529660224915 -0.1869402378797531
v 0.23812852799892426 0.5885063409805298 -0.11336958408355713
v 0.27226272225379944 0.4839508831501007 -0.18752549588680267
v 0.16332696378231049 0.5636707544326782 -0.11278431862592697
v 0.23866912722587585 0.3355991840362549 -0.16160745918750763
v 0.27226272225379944 0.4839508831501007 -0.18752549588680267
v 0.313470721244812 0.36043477058410645 -0.1621927171945572
v 0.19746120274066925 0.45911529660224915 -0.1869402378797531
v 0.21072699129581451 0.47432830929756165 0.043257806450128555
v 0.2107270509004593 0.47432830929756165 -0.06051747873425484
v 0.003696286119520664 0.33914679288864136 -0.060517389327287674
v 0.003696237225085497 0.33914679288864136 0.04325791075825691
v 0.003696237225085497 0.33914679288864136 0.04325791075825691
v -0.0019300930434837937 0.17717523872852325 -0.060517385601997375
v 0.046551261097192764 0.0003394617815501988 -0.008629764430224895
v -0.04332074522972107 0.00033946288749575615 -0.06051737070083618
v 0.08794191479682922 0.17717523872852325 -0.00862978771328926
v 0.22385655343532562 0.3926878571510315 -0.008629854768514633
v 0.21072699129581451 0.47432830929756165 0.043257806450128555
v 0.003696237225085497 0.33914679288864136 0.04325791075825691
v 0.07949355244636536 0.290858656167984 -0.008629784919321537
v 0.07949355244636536 0.290858656167984 -0.008629784919321537
v -0.0019301356514915824 0.17717523872852325 0.04325792193412781
v -0.04332074522972107 0.00033946288749575615 -0.06051737070083618
v -0.04332079365849495 0.00033946020994335413 0.0432579405605793
v -0.0019300930434837937 0.17717523872852325 -0.060517385601997375
v 0.2107270509004593 0.47432830929756165 -0.06051747873425484
v 0.22385655343532562 0.3926878571510315 -0.008629854768514633
v 0.07949355244636536 0.290858656167984 -0.008629784919321537
v 0.003696286119520664 0.33914679288864136 -0.060517389327287674
v 0.003696286119520664 0.33914679288864136 -0.060517389327287674
v 0.046551261097192764 0.0003394617815501988 -0.008629764430224895
v 0.20953680574893951 0.4267474114894867 -0.01710241660475731
v 0.25574663281440735 0.28982406854629517 0.07857945561408997
v 0.22161240875720978 0.39437949657440186 0.1527353972196579
v 0.2843383848667145 0.45158296823501587 -0.017687687650322914
v 0.313470721244812 0.36043477058410645 -0.1621927171945572
v 0.27226272225379944 0.4839508831501007 -0.18752549588680267
v 0.3376133143901825 0.2903120815753937 -0.052210889756679535
v 0.3305481970310211 0.3146596848964691 0.07799418270587921
v 0.23812852799892426 0.5885063409805298 -0.11336958408355713
v 0.2310633659362793 0.6128539443016052 0.016835490241646767
v 0.29641398787498474 0.4192150831222534 0.15215012431144714
v 0.25520601868629456 0.5427311658859253 0.12681734561920166
v 0.19746120274066925 0.45911529660224915 -0.1869402378797531
v 0.23866912722587585 0.3355991840362549 -0.16160745918750763
v 0.2628117799758911 0.2654764652252197 -0.05162560194730759
v 0.16332696378231049 0.5636707544326782 -0.11278431862592697
v 0.1562618464231491 0.5880182981491089 0.017420761287212372
v 0.18040446937084198 0.5178955793380737 0.12740261852741241
vn 0.9955843687057495 -0.09255318343639374 0.015673508867621422
vn -0.47451478242874146 0.13345307111740112 0.8700724244117737
vn 0.011356448754668236 -0.00265809940174222 0.9999319911003113
vn -0.28099876642227173 -0.9204802513122559 -0.27158015966415405
vn 0.6953131556510925 -0.3485919237136841 -0.6285087466239929
vn 0.7877142429351807 -0.6134185194969177 -0.05678016319870949
vn -0.4182262718677521 -0.5183472037315369 -0.7459242343902588
vn -0.28754010796546936 -0.8857945799827576 0.3642646074295044
vn 0.7877142429351807 -0.6134185194969177 -0.05678016319870949
vn 0.7270569801330566 -0.4165268540382385 0.5457962155342102
vn -0.28099876642227173 -0.9204802513122559 -0.27158015966415405
vn -0.43401840329170227 -0.4346088171005249 0.7891408205032349
vn 0.7270569801330566 -0.4165268540382385 0.5457962155342102
vn 0.5488737225532532 0.12674681842327118 0.8262401819229126
vn -0.28754010796546936 -0.8857945799827576 0.3642646074295044
vn -0.6346285939216614 0.16877895593643188 0.7541618943214417
vn 0.5488737225532532 0.12674681842327118 0.8262401819229126
vn 0.35754168033599854 0.6981604099273682 0.6202709078788757
vn -0.43401840329170227 -0.4346088171005249 0.7891408205032349
vn -0.7718559503555298 0.5709118247032166 0.2798178493976593
vn 0.35754168033599854 0.6981604099273682 0.6202709078788757
vn 0.2651406228542328 0.9629870653152466 0.0485425628721714
vn -0.6346285939216614 0.16877895593643188 0.7541618943214417
vn -0.7653146386146545 0.5362260937690735 -0.3560267686843872
vn 0.2651406228542328 0.9629870653152466 0.0485425628721714
vn 0.3257978558540344 0.7660952210426331 -0.5540342330932617
vn -0.7718559503555298 0.5709118247032166 0.2798178493976593
vn -0.6188364624977112 0.08504029363393784 -0.7809031009674072
vn 0.3257978558540344 0.7660952210426331 -0.5540342330932617
vn 0.5039811134338379 0.22282138466835022 -0.8344780802726746
vn -0.7653146386146545 0.5362260937690735 -0.3560267686843872
vn -0.4182262718677521 -0.5183472037315369 -0.7459242343902588
vn 0.5039811134338379 0.22282138466835022 -0.8344780802726746
vn 0.6953131556510925 -0.3485919237136841 -0.6285087466239929
vn -0.6188364624977112 0.08504029363393784 -0.7809031009674072
vn -0.47398465871810913 0.7259071469306946 0.49839478731155396
vn 0.04557356238365173 -0.04727613180875778 -0.9978416562080383
vn -0.24557344615459442 0.4406646192073822 -0.8634282350540161
vn -0.4812646806240082 -0.006752513349056244 0.8765493035316467
vn -0.4812646806240082 -0.006752513349056244 0.8765493035316467
vn -0.496456116437912 0.015938369557261467 -0.8679155111312866
vn 0.8487637639045715 -0.19866351783275604 -0.4900335371494293
vn -0.8432543873786926 0.19737400114536285 -0.4999655485153198
vn 0.9955843687057495 -0.09255318343639374 0.015673508867621422
vn 0.5043184161186218 -0.7337745428085327 0.4552338421344757
vn -0.47398465871810913 0.7259071469306946 0.49839478731155396
vn -0.4812646806240082 -0.006752513349056244 0.8765493035316467
vn 0.8935859203338623 -0.44825392961502075 0.0239285696297884
vn 0.8935859203338623 -0.44825392961502075 0.0239285696297884
vn -0.47451478242874146 0.13345307111740112 0.8700724244117737
vn -0.8432543873786926 0.19737400114536285 -0.4999655485153198
vn 0.011356448754668236 -0.00265809940174222 0.9999319911003113
vn -0.496456116437912 0.015938369557261467 -0.8679155111312866
vn 0.04557356238365173 -0.04727613180875778 -0.9978416562080383
vn 0.5043184161186218 -0.7337745428085327 0.4552338421344757
vn 0.8935859203338623 -0.44825392961502075 0.0239285696297884
vn -0.24557344615459442 0.4406646192073822 -0.8634282350540161
vn -0.24557344615459442 0.4406646192073822 -0.8634282350540161
vn 0.8487637639045715 -0.19866351783275604 -0.4900335371494293
vn -0.9490305781364441 -0.31509658694267273 0.007425367832183838
vn -0.28754010796546936 -0.8857945799827576 0.3642646074295044
vn -0.43401840329170227 -0.4346088171005249 0.7891408205032349
vn 0.9490305185317993 0.3150966763496399 -0.007425426039844751
vn 0.6953131556510925 -0.3485919237136841 -0.6285087466239929
vn 0.5039811134338379 0.22282138466835022 -0.8344780802726746
vn 0.7877142429351807 -0.6134185194969177 -0.05678016319870949
vn 0.7270569801330566 -0.4165268540382385 0.5457962155342102
vn 0.3257978558540344 0.7660952210426331 -0.5540342330932617
vn 0.2651406228542328 0.9629870653152466 0.0485425628721714
vn 0.5488737225532532 0.12674681842327118 0.8262401819229126
vn 0.35754168033599854 0.6981604099273682 0.6202709078788757
vn -0.6188364624977112 0.08504029363393784 -0.7809031009674072
vn -0.4182262718677521 -0.5183472037315369 -0.7459242343902588
vn -0.28099876642227173 -0.9204802513122559 -0.27158015966415405
vn -0.7653146386146545 0.5362260937690735 -0.3560267686843872
vn -0.7718559503555298 0.5709118247032166 0.2798178493976593
vn -0.6346285939216614 0.16877895593643188 0.7541618943214417
vt 0 0.7777777314186096
vt 0.9300000667572021 0.7777777314186096
vt 0.9300000667572021 1.0265700817108154
vt 0.005920529365539551 0.3236721158027649
vt 0.9940792322158813 0.997585117816925
vt 0.005920529365539551 0.997585117816925
vt 0.9940792322158813 0.3236721158027649
vt 0.005920529365539551 0.3236721158027649
vt 0.9940792322158813 0.997585117816925
vt 0.005920529365539551 0.997585117816925
vt 0.9940792322158813 0.3236721158027649
vt 0.005920529365539551 0.3236721158027649
vt 0.9940792322158813 0.997585117816925
vt 0.005920529365539551 0.997585117816925
vt 0.9940792322158813 0.3236721158027649
vt 0.005920529365539551 0.3236721158027649
vt 0.9940792322158813 0.997585117816925
vt 0.005920529365539551 0.997585117816925
vt 0.9940792322158813 0.3236721158027649
vt 0.005920529365539551 0.3236721158027649
vt 0.9940792322158813 0.997585117816925
vt 0.005920529365539551 0.997585117816925
vt 0.9940792322158813 0.3236721158027649
vt 0.005920529365539551 0.3236721158027649
vt 0.9940792322158813 0.997585117816925
vt 0.005920529365539551 0.997585117816925
vt 0.9940792322158813 0.3236721158027649
vt 0.005920529365539551 0.3236721158027649
vt 0.9940792322158813 0.997585117816925
vt 0.005920529365539551 0.997585117816925
vt 0.9940792322158813 0.3236721158027649
vt 0.005920529365539551 0.3236721158027649
vt 0.9940792322158813 0.997585117816925
vt 0.005920529365539551 0.997585117816925
vt 0.9940792322158813 0.3236721158027649
vt 1 0.7777777314186096
vt 0 0.7777777314186096
vt 0 1.0265700817108154
vt 1 1.0265700817108154
vt 0.9300000667572021 1.0265700817108154
vt 0 0.7777777314186096
vt 0.9300000667572021 1.0265700817108154
vt 0 1.0265700817108154
vt 0.9300000667572021 0.7777777314186096
vt 1 0.7777777314186096
vt 0 0.7777777314186096
vt 0 1.0265700817108154
vt 1 1.0265700817108154
vt 0.9300000667572021 1.0265700817108154
vt 0 0.7777777314186096
vt 0.9300000667572021 1.0265700817108154
vt 0 1.0265700817108154
vt 0.9300000667572021 0.7777777314186096
vt 1 0.7777777314186096
vt 0 0.7777777314186096
vt 0 1.0265700817108154
vt 1 1.0265700817108154
vt 0.9300000667572021 1.0265700817108154
vt 0 1.0265700817108154
vt 0.8710282444953918 0.8826179504394531
vt 0.8710282444953918 0.7827762961387634
vt 0.7981733679771423 0.8120192289352417
vt 0.5 0.48453181982040405
vt 0.9995003938674927 0.4845317006111145
vt 0.8532001972198486 0.8267943263053894
vt 0.8532000780105591 0.14226925373077393
vt 0.4999999403953552 0.0004994869232177734
vt 0.5000001192092896 0.9685642123222351
vt 0.14679992198944092 0.826794445514679
vt 0.14679980278015137 0.14226925373077393
vt 0.0004995465278625488 0.4845319390296936
vt 0.9438830614089966 0.9532166123390198
vt 0.9740605354309082 0.8826178908348083
vt 0.9438830614089966 0.8120192289352417
vt 0.8710283041000366 0.9824596047401428
vt 0.7981734275817871 0.9532166719436646
vt 0.7679959535598755 0.8826179504394531
g Geoset0
s 1
usemtl mat_steamwhistlevent
f 1/1/1 2/2/2 3/3/3
f 4/4/4 5/5/5 6/6/6
f 4/4/4 7/7/7 5/5/5
f 8/8/8 9/9/9 10/10/10
f 8/8/8 11/11/11 9/9/9
f 12/12/12 13/13/13 14/14/14
f 12/12/12 15/15/15 13/13/13
f 16/16/16 17/17/17 18/18/18
f 16/16/16 19/19/19 17/17/17
f 20/20/20 21/21/21 22/22/22
f 20/20/20 23/23/23 21/21/21
f 24/24/24 25/25/25 26/26/26
f 24/24/24 27/27/27 25/25/25
f 28/28/28 29/29/29 30/30/30
f 28/28/28 31/31/31 29/29/29
f 32/32/32 33/33/33 34/34/34
f 32/32/32 35/35/35 33/33/33
f 36/36/36 37/37/37 38/38/38
f 38/38/38 39/39/39 36/36/36
f 40/40/40 38/38/38 41/41/41
f 41/41/41 2/2/2 40/40/40
f 41/41/41 42/42/42 43/43/43
f 41/41/41 44/44/44 42/42/42
f 45/45/45 46/46/46 47/47/47
f 47/47/47 48/48/48 45/45/45
f 49/49/49 47/47/47 50/50/50
f 50/50/50 44/44/44 49/49/49
f 50/50/50 51/51/51 52/52/52
f 50/50/50 53/53/53 51/51/51
f 54/54/54 55/55/55 56/56/56
f 56/56/56 57/57/57 54/54/54
f 58/58/58 56/56/56 1/1/1
f 1/1/1 53/53/53 58/58/58
f 1/1/1 3/3/3 59/59/59
g Geoset1
s 1
usemtl mat_steamwhistlegauge01
f 60/60/60 61/61/61 62/62/62
f 63/63/63 64/64/64 65/65/65
f 63/63/63 66/66/66 64/64/64
f 63/63/63 67/67/67 66/66/66
f 63/63/63 65/65/65 68/68/68
f 63/63/63 68/68/68 69/69/69
f 63/63/63 70/70/70 67/67/67
f 63/63/63 71/71/71 70/70/70
f 63/63/63 69/69/69 71/71/71
f 60/60/60 72/72/72 73/73/73
f 60/60/60 73/73/73 74/74/74
f 60/60/60 74/74/74 61/61/61
f 60/60/60 75/75/75 72/72/72
f 60/60/60 76/76/76 75/75/75
f 60/60/60 77/77/77 76/76/76
f 60/60/60 62/62/62 77/77/77
