# Exported using wow.export v0.1.64
o waterfalls_set2_wide_tall_chop
mtllib waterfalls_set2_wide_tall_chop.mtl
v 0.8624040484428406 -42.425167083740234 -30.7272891998291
v 0.8680264353752136 -42.62379837036133 -18.294597625732422
v 0.9265022277832031 -59.98414611816406 -29.78843116760254
v 0.33251044154167175 1.0549856424331665 -24.046852111816406
v 0.3381327688694 0.8563564419746399 -12.547627449035645
v 0.790860652923584 -11.199031829833984 -27.319549560546875
v 0.7964828610420227 -11.397664070129395 -14.886857986450195
v 0.34375515580177307 0.6577269434928894 -0.11493787914514542
v 0.8031058311462402 -11.587262153625488 -0.31708258390426636
v 0.34937727451324463 0.4591105878353119 11.79369068145752
v 0.8327043056488037 -11.805421829223633 14.597758293151855
v 0.35499992966651917 0.26047244668006897 26.191329956054688
v 0.8383265733718872 -12.004048347473145 28.73147201538086
v 0.803617000579834 -24.855209350585938 -29.48870277404785
v 0.8092394471168518 -25.0538387298584 -17.05600929260254
v 0.8201727271080017 -25.241487503051758 -0.42450040578842163
v 0.8850139379501343 -25.489131927490234 15.510457038879395
v 0.8906363248825073 -25.687763214111328 29.644174575805664
v 0.8789598345756531 -42.81145095825195 -0.30632078647613525
v 0.9576545357704163 -43.067623138427734 15.484793663024902
v 0.9632771015167236 -43.26625442504883 29.61850929260254
v 1.022064208984375 -60.83620834350586 28.37992286682129
v 1.0164417028427124 -60.63758087158203 14.24620532989502
v 0.9377468824386597 -60.38140106201172 -0.6393364071846008
v 0.9321244359016418 -60.18277359008789 -17.355743408203125
vn 0.9992765784263611 -0.03791336715221405 -0.0029781514313071966
vn 0.9992760419845581 -0.037914857268333435 -0.003139340551570058
vn 0.9992783665657043 -0.03786656633019447 -0.0029753739945590496
vn 0.9996698498725891 -0.025598380714654922 -0.0022290649358183146
vn 0.9996698498725891 -0.025595104321837425 -0.0022423649206757545
vn 0.9994714260101318 -0.03240170329809189 -0.002650200854986906
vn 0.9994784593582153 -0.032181382179260254 -0.0026804276276379824
vn 0.999670684337616 -0.02556207962334156 -0.0022706673480570316
vn 0.9994800686836243 -0.03199749439954758 -0.003963760565966368
vn 0.9996806383132935 -0.025131870061159134 -0.002651043701916933
vn 0.9994948506355286 -0.03149786964058876 -0.004230502061545849
vn 0.999688982963562 -0.02483593486249447 -0.0022485998924821615
vn 0.9994972944259644 -0.03159918636083603 -0.00257921707816422
vn 0.9992586374282837 -0.03838195279240608 -0.003005838021636009
vn 0.9992586970329285 -0.038366202265024185 -0.003177130362018943
vn 0.9992514252662659 -0.038180090487003326 -0.006232700310647488
vn 0.9992649555206299 -0.037817686796188354 -0.006274927407503128
vn 0.9992833137512207 -0.03774377331137657 -0.0028831150848418474
vn 0.99925696849823 -0.03787427768111229 -0.007147707045078278
vn 0.9992604851722717 -0.03780117258429527 -0.007035748567432165
vn 0.9992802739143372 -0.037823230028152466 -0.002887059235945344
vn 0.9992750883102417 -0.03796021640300751 -0.0028938374016433954
vn 0.9992551207542419 -0.03788755461573601 -0.007331444416195154
vn 0.9992551803588867 -0.037901073694229126 -0.007249921094626188
vn 0.9992769360542297 -0.03790672868490219 -0.002941882237792015
vt 1.229750394821167 0.9994993209838867
vt 1.2297502756118774 0.7497493028640747
vt 1.4795005321502686 0.9994990825653076
vt 0.48049959540367126 0.999500036239624
vt 0.48049959540367126 0.749750018119812
vt 0.73024982213974 0.9994997978210449
vt 0.73024982213974 0.7497497797012329
vt 0.4804995656013489 0.5
vt 0.73024982213974 0.4999997615814209
vt 0.4804995656013489 0.250249981880188
vt 0.7302497625350952 0.25024980306625366
vt 0.4804995357990265 0.000500023365020752
vt 0.7302497625350952 0.0004997849464416504
vt 0.9800000786781311 0.9994995594024658
vt 0.9800000786781311 0.7497495412826538
vt 0.9800000190734863 0.4999995231628418
vt 0.9800000190734863 0.25024956464767456
vt 0.9800000190734863 0.0004995465278625488
vt 1.2297502756118774 0.49999934434890747
vt 1.2297502756118774 0.25024932622909546
vt 1.2297502756118774 0.0004993677139282227
vt 1.4795005321502686 0.0004991292953491211
vt 1.4795005321502686 0.25024908781051636
vt 1.4795005321502686 0.49999910593032837
vt 1.4795005321502686 0.7497491240501404
g Geoset0
s 1
usemtl mat_watercascade_soft_directionaflipl
f 1/1/1 2/2/2 3/3/3
f 4/4/4 5/5/5 6/6/6
f 7/7/7 6/6/6 5/5/5
f 5/5/5 8/8/8 7/7/7
f 9/9/9 7/7/7 8/8/8
f 8/8/8 10/10/10 9/9/9
f 11/11/11 9/9/9 10/10/10
f 10/10/10 12/12/12 11/11/11
f 13/13/13 11/11/11 12/12/12
f 6/6/6 7/7/7 14/14/14
f 15/15/15 14/14/14 7/7/7
f 7/7/7 9/9/9 15/15/15
f 16/16/16 15/15/15 9/9/9
f 9/9/9 11/11/11 16/16/16
f 17/17/17 16/16/16 11/11/11
f 11/11/11 13/13/13 17/17/17
f 18/18/18 17/17/17 13/13/13
f 14/14/14 15/15/15 1/1/1
f 2/2/2 1/1/1 15/15/15
f 15/15/15 16/16/16 2/2/2
f 19/19/19 2/2/2 16/16/16
f 16/16/16 17/17/17 19/19/19
f 20/20/20 19/19/19 17/17/17
f 17/17/17 18/18/18 20/20/20
f 21/21/21 20/20/20 18/18/18
f 22/22/22 23/23/23 21/21/21
f 20/20/20 21/21/21 23/23/23
f 23/23/23 24/24/24 20/20/20
f 19/19/19 20/20/20 24/24/24
f 24/24/24 25/25/25 19/19/19
f 2/2/2 19/19/19 25/25/25
f 25/25/25 3/3/3 2/2/2
