# Exported using wow.export v0.1.64
o waterfalls_set2_med_tall
mtllib waterfalls_set2_med_tall.mtl
v -0.9572708606719971 100.05619812011719 9.66350269317627
v 0.9573061466217041 -0.49185895919799805 9.66350269317627
v -0.9572708606719971 100.05619812011719 -9.676166534423828
v 0.9573061466217041 -0.49185895919799805 -9.676166534423828
v -0.9336519241333008 100.0594482421875 9.66350269317627
v 0.9809250235557556 -0.48861053586006165 9.66350269317627
v -0.9336519241333008 100.0594482421875 -9.676166534423828
v 0.9809250235557556 -0.48861053586006165 -9.676166534423828
vn 0.999818742275238 0.019037965685129166 0
vn 0.999818742275238 0.019037965685129166 0
vn 0.999818742275238 0.019037965685129166 0
vn 0.999818742275238 0.019037965685129166 0
vn 0.999818742275238 0.019037965685129166 0
vn 0.999818742275238 0.019037965685129166 0
vn 0.999818742275238 0.019037965685129166 0
vn 0.999818742275238 0.019037965685129166 0
vt -2.1603879928588867 0.0005009174346923828
vt 1.1605167388916016 0.0004994869232177734
vt -2.1603879928588867 0.9995014071464539
vt 1.1605167388916016 0.9994999170303345
vt -2.1603879928588867 0.0005009174346923828
vt 1.1605167388916016 0.0004994869232177734
vt -2.1603879928588867 0.9995014071464539
vt 1.1605167388916016 0.9994999170303345
g Geoset0
s 1
usemtl mat_waterchop5
f 1/1/1 2/2/2 3/3/3
f 4/4/4 3/3/3 2/2/2
g Geoset1
s 1
usemtl mat_waterchop
f 5/5/5 6/6/6 7/7/7
f 8/8/8 7/7/7 6/6/6
