# Exported using wow.export v0.1.64
o waterfalls_set2_med_chop
mtllib waterfalls_set2_med_chop.mtl
v 0.019212761893868446 -21.06693458557129 -10.46364688873291
v 0.02483472228050232 -21.163843154907227 -6.022794246673584
v 0.08331035822629929 -29.633466720581055 -10.128294944763184
v -0.5106796026229858 0.11792203038930893 -8.42790699005127
v -0.5050577521324158 0.021016988903284073 -4.320481300354004
v -0.05232967808842659 -5.83258581161499 -9.596888542175293
v -0.04670785367488861 -5.929491996765137 -5.156034469604492
v -0.4994356334209442 -0.04800756648182869 0.12037266790866852
v -0.04008539021015167 -6.021992206573486 0.04816850647330284
v -0.4938139319419861 -0.04753278195858002 4.3740363121032715
v -0.010487413965165615 -6.128424167633057 5.375625133514404
v -0.48819172382354736 -0.14444203674793243 9.516753196716309
v -0.004865592811256647 -6.22532844543457 10.424072265625
v -0.03957372158765793 -12.495051383972168 -10.196599006652832
v -0.03395170718431473 -12.591955184936523 -5.755746841430664
v -0.023018954321742058 -12.683505058288574 0.18489031493663788
v 0.04182177782058716 -12.804320335388184 5.876725196838379
v 0.04744372144341469 -12.901226997375488 10.9251708984375
v 0.035767585039138794 -21.255390167236328 0.0662374496459961
v 0.11446184664964676 -21.38037109375 6.042923927307129
v 0.12008389085531235 -21.477277755737305 11.091371536254883
v 0.17887046933174133 -30.049163818359375 10.648958206176758
v 0.17324838042259216 -29.95225715637207 5.600510597229004
v 0.09455414861440659 -29.82727813720703 0.10875651985406876
v 0.08893221616744995 -29.730371475219727 -5.687441349029541
vn 0.9963318705558777 -0.08552522957324982 -0.002861746121197939
vn 0.9963313341140747 -0.08552387356758118 -0.0030833836644887924
vn 0.9963449835777283 -0.08537284284830093 -0.002858263673260808
vn 0.9989040493965149 -0.04676419124007225 -0.0019530040444806218
vn 0.9989051222801208 -0.04673251882195473 -0.002163106808438897
vn 0.9976718425750732 -0.06815263628959656 -0.0024634867440909147
vn 0.9977108240127563 -0.06757760792970657 -0.002523386152461171
vn 0.9989025592803955 -0.046750444918870926 -0.002830879297107458
vn 0.9977295994758606 -0.0672217383980751 -0.004104787949472666
vn 0.998940646648407 -0.04591886326670647 -0.002998017007485032
vn 0.9978172779083252 -0.06589116156101227 -0.004363087005913258
vn 0.998971700668335 -0.04529470577836037 -0.0019941204227507114
vn 0.9978007674217224 -0.06624142825603485 -0.0023904500994831324
vn 0.9962040781974792 -0.08700033277273178 -0.0028953140135854483
vn 0.9962084293365479 -0.08694376051425934 -0.0030981639865785837
vn 0.9962416887283325 -0.08635324984788895 -0.0067506092600524426
vn 0.9963374137878418 -0.08524296432733536 -0.006741692312061787
vn 0.9963769912719727 -0.0850018709897995 -0.0027489601634442806
vn 0.9963142275810242 -0.08544604480266571 -0.007545365020632744
vn 0.9963339567184448 -0.08523055911064148 -0.007376942317932844
vn 0.996356189250946 -0.08524495363235474 -0.0027536186389625072
vn 0.9963202476501465 -0.08566424250602722 -0.002761631505563855
vn 0.9963126182556152 -0.08543779700994492 -0.007847149856388569
vn 0.9963080883026123 -0.08549883961677551 -0.007758153602480888
vn 0.9963338971138 -0.08550315350294113 -0.0028305419255048037
vt 1.229750394821167 0.9994993209838867
vt 1.2297502756118774 0.7497493028640747
vt 1.4795005321502686 0.9994990825653076
vt 0.48049959540367126 0.999500036239624
vt 0.48049959540367126 0.749750018119812
vt 0.73024982213974 0.9994997978210449
vt 0.73024982213974 0.7497497797012329
vt 0.4804995656013489 0.5
vt 0.73024982213974 0.4999997615814209
vt 0.4804995656013489 0.250249981880188
vt 0.7302497625350952 0.25024980306625366
vt 0.4804995357990265 0.000500023365020752
vt 0.7302497625350952 0.0004997849464416504
vt 0.9800000786781311 0.9994995594024658
vt 0.9800000786781311 0.7497495412826538
vt 0.9800000190734863 0.4999995231628418
vt 0.9800000190734863 0.25024956464767456
vt 0.9800000190734863 0.0004995465278625488
vt 1.2297502756118774 0.49999934434890747
vt 1.2297502756118774 0.25024932622909546
vt 1.2297502756118774 0.0004993677139282227
vt 1.4795005321502686 0.0004991292953491211
vt 1.4795005321502686 0.25024908781051636
vt 1.4795005321502686 0.49999910593032837
vt 1.4795005321502686 0.7497491240501404
g Geoset0
s 1
usemtl mat_watercascade_soft_directionaflipl
f 1/1/1 2/2/2 3/3/3
f 4/4/4 5/5/5 6/6/6
f 7/7/7 6/6/6 5/5/5
f 5/5/5 8/8/8 7/7/7
f 9/9/9 7/7/7 8/8/8
f 8/8/8 10/10/10 9/9/9
f 11/11/11 9/9/9 10/10/10
f 10/10/10 12/12/12 11/11/11
f 13/13/13 11/11/11 12/12/12
f 6/6/6 7/7/7 14/14/14
f 15/15/15 14/14/14 7/7/7
f 7/7/7 9/9/9 15/15/15
f 16/16/16 15/15/15 9/9/9
f 9/9/9 11/11/11 16/16/16
f 17/17/17 16/16/16 11/11/11
f 11/11/11 13/13/13 17/17/17
f 18/18/18 17/17/17 13/13/13
f 14/14/14 15/15/15 1/1/1
f 2/2/2 1/1/1 15/15/15
f 15/15/15 16/16/16 2/2/2
f 19/19/19 2/2/2 16/16/16
f 16/16/16 17/17/17 19/19/19
f 20/20/20 19/19/19 17/17/17
f 17/17/17 18/18/18 20/20/20
f 21/21/21 20/20/20 18/18/18
f 22/22/22 23/23/23 21/21/21
f 20/20/20 21/21/21 23/23/23
f 23/23/23 24/24/24 20/20/20
f 19/19/19 20/20/20 24/24/24
f 24/24/24 25/25/25 19/19/19
f 2/2/2 19/19/19 25/25/25
f 25/25/25 3/3/3 2/2/2
