# Exported using wow.export v0.1.64
o waterfalls_set2_med_top
mtllib waterfalls_set2_med_top.mtl
v 9.821024894714355 1.4860327243804932 -13.82408332824707
v 9.726670265197754 1.7895584106445312 -6.3880510330200195
v 23.187171936035156 1.4860302209854126 -13.434627532958984
v -29.454498291015625 1.4860358238220215 -22.256174087524414
v -29.462154388427734 1.789560079574585 -11.444446563720703
v -13.287505149841309 1.4860342741012573 -17.79546546936035
v -13.43498706817627 1.789559006690979 -8.813939094543457
v -29.443115234375 1.9463272094726562 0.10446156561374664
v -13.495237350463867 1.9463220834732056 0.2784358263015747
v -29.50360107421875 1.9463258981704712 13.243230819702148
v -13.436078071594238 1.9463274478912354 10.759231567382812
v -29.484188079833984 1.9463261365890503 24.811620712280273
v -13.534409523010254 1.9463244676589966 20.04555320739746
v -1.134899377822876 1.4860326051712036 -15.54052734375
v -0.9891222715377808 1.7895575761795044 -7.374757766723633
v -1.0835537910461426 1.9463255405426025 0.26623278856277466
v -1.290134072303772 1.9463247060775757 9.344324111938477
v -1.1837308406829834 1.9463258981704712 17.573978424072266
v 9.664509773254395 1.9463263750076294 0.4185645580291748
v 9.753037452697754 1.9463247060775757 8.111515045166016
v 9.881485939025879 1.9463268518447876 15.488950729370117
v 23.154157638549805 1.946323037147522 14.971930503845215
v 23.372129440307617 1.9463268518447876 7.605521202087402
v 23.35017204284668 1.9463236331939697 0.40893498063087463
v 23.171302795410156 1.7895545959472656 -5.979471206665039
vn 0.05450693145394325 0.9984943866729736 -0.006156735587865114
vn 0.05399322882294655 0.9985361695289612 -0.003201309824362397
vn 0.05395098030567169 0.9985236525535583 -0.006313655059784651
vn 0.05608639121055603 0.9984238743782043 -0.0020288105588406324
vn 0.055089354515075684 0.9984814524650574 -0.000011294979231024627
vn 0.05558343604207039 0.9984472990036011 -0.0036713117733597755
vn 0.05459188297390938 0.9985081553459167 -0.0010815693531185389
vn 0.05356163531541824 0.9985518455505371 0.0050385501235723495
vn 0.0534084253013134 0.9985622763633728 0.004570751916617155
vn 0.05318747088313103 0.9985558390617371 0.007572057656943798
vn 0.05318747088313103 0.9985558390617371 0.007572047412395477
vn 0.053187452256679535 0.9985558390617371 0.00757209025323391
vn 0.0531875304877758 0.9985558390617371 0.007572164759039879
vn 0.05531347915530205 0.9984567165374756 -0.004962904844433069
vn 0.05446233972907066 0.9985132217407227 -0.002269455697387457
vn 0.053404562175273895 0.9985648989677429 0.004009381867945194
vn 0.05318748578429222 0.9985558390617371 0.007572081405669451
vn 0.05318744108080864 0.9985558390617371 0.007572023663669825
vn 0.05336160212755203 0.9985686540603638 0.0036352507304400206
vn 0.05318745970726013 0.9985558390617371 0.007572058588266373
vn 0.05318744108080864 0.9985558390617371 0.007572019938379526
vn 0.05318756774067879 0.9985558390617371 0.007572238799184561
vn 0.05318747088313103 0.9985558390617371 0.007572060916572809
vn 0.053284402936697006 0.9985730051994324 0.003559631295502186
vn 0.05368279665708542 0.9985523819923401 -0.0033611583057790995
vt 1.229750394821167 0.9994993209838867
vt 1.2297502756118774 0.7497493028640747
vt 1.4795005321502686 0.9994990825653076
vt 0.48049959540367126 0.999500036239624
vt 0.48049959540367126 0.749750018119812
vt 0.73024982213974 0.9994997978210449
vt 0.73024982213974 0.7497497797012329
vt 0.4804995656013489 0.5
vt 0.73024982213974 0.4999997615814209
vt 0.4804995656013489 0.250249981880188
vt 0.7302497625350952 0.25024980306625366
vt 0.4804995357990265 0.000500023365020752
vt 0.7302497625350952 0.0004997849464416504
vt 0.9800000786781311 0.9994995594024658
vt 0.9800000786781311 0.7497495412826538
vt 0.9800000190734863 0.4999995231628418
vt 0.9800000190734863 0.25024956464767456
vt 0.9800000190734863 0.0004995465278625488
vt 1.2297502756118774 0.49999934434890747
vt 1.2297502756118774 0.25024932622909546
vt 1.2297502756118774 0.0004993677139282227
vt 1.4795005321502686 0.0004991292953491211
vt 1.4795005321502686 0.25024908781051636
vt 1.4795005321502686 0.49999910593032837
vt 1.4795005321502686 0.7497491240501404
g Geoset0
s 1
usemtl mat_waterfoamloop3
f 1/1/1 2/2/2 3/3/3
f 4/4/4 5/5/5 6/6/6
f 7/7/7 6/6/6 5/5/5
f 5/5/5 8/8/8 7/7/7
f 9/9/9 7/7/7 8/8/8
f 8/8/8 10/10/10 9/9/9
f 11/11/11 9/9/9 10/10/10
f 10/10/10 12/12/12 11/11/11
f 13/13/13 11/11/11 12/12/12
f 6/6/6 7/7/7 14/14/14
f 15/15/15 14/14/14 7/7/7
f 7/7/7 9/9/9 15/15/15
f 16/16/16 15/15/15 9/9/9
f 9/9/9 11/11/11 16/16/16
f 17/17/17 16/16/16 11/11/11
f 11/11/11 13/13/13 17/17/17
f 18/18/18 17/17/17 13/13/13
f 14/14/14 15/15/15 1/1/1
f 2/2/2 1/1/1 15/15/15
f 15/15/15 16/16/16 2/2/2
f 19/19/19 2/2/2 16/16/16
f 16/16/16 17/17/17 19/19/19
f 20/20/20 19/19/19 17/17/17
f 17/17/17 18/18/18 20/20/20
f 21/21/21 20/20/20 18/18/18
f 22/22/22 23/23/23 21/21/21
f 20/20/20 21/21/21 23/23/23
f 23/23/23 24/24/24 20/20/20
f 19/19/19 20/20/20 24/24/24
f 24/24/24 25/25/25 19/19/19
f 2/2/2 19/19/19 25/25/25
f 25/25/25 3/3/3 2/2/2
