# Exported using wow.export v0.1.64
o waterfalls_set2_med_doublewide_withchop
mtllib waterfalls_set2_med_doublewide_withchop.mtl
v -0.6468438506126404 50.144954681396484 18.27604103088379
v 0.646917998790741 0.019205179065465927 18.27604103088379
v -0.6468438506126404 50.144954681396484 -21.154155731201172
v 0.646917998790741 0.019205179065465927 -21.154155731201172
v -0.6139148473739624 50.15053176879883 19.678329467773438
v 0.679847002029419 0.024783113971352577 19.678329467773438
v -0.6139148473739624 50.15053176879883 -19.751867294311523
v 0.679847002029419 0.024783113971352577 -19.751867294311523
v 0.18563754856586456 31.40995979309082 -22.05846405029297
v 0.19125936925411224 31.31305694580078 -13.211216926574707
v 0.24973641335964203 22.843427658081055 -21.390361785888672
v -0.34425821900367737 52.59482192993164 -20.43952178955078
v -0.33863645792007446 52.49791717529297 -12.256543159484863
v 0.11409277468919754 46.644309997558594 -21.178003311157227
v 0.11971447616815567 46.54741287231445 -12.330756187438965
v -0.33301445841789246 52.42889404296875 -0.9725527167320251
v 0.12633678317070007 46.45491027832031 -1.1164008378982544
v -0.32739296555519104 52.42937088012695 10.09408187866211
v 0.15593460202217102 46.34847640991211 10.315065383911133
v -0.32177087664604187 52.33245849609375 20.339609146118164
v 0.16155624389648438 46.25157165527344 20.372785568237305
v 0.12684975564479828 39.98184585571289 -21.52644157409668
v 0.13247163593769073 39.88494110107422 -12.679194450378418
v 0.14340421557426453 39.79339599609375 -0.844018280506134
v 0.20824477076530457 39.672576904296875 10.4954833984375
v 0.21386654675006866 39.5756721496582 20.55320167541504
v 0.202192023396492 31.22150421142578 -1.0804033279418945
v 0.28088611364364624 31.09652328491211 10.826591491699219
v 0.2865079939365387 30.999616622924805 20.88431167602539
v 0.34529590606689453 22.427730560302734 20.002918243408203
v 0.3396739661693573 22.52463722229004 9.945199966430664
v 0.26097992062568665 22.649614334106445 -0.9956952333450317
v 0.25535812973976135 22.746524810791016 -12.54311466217041
vn 0.9996671080589294 0.02580166980624199 0
vn 0.9996671080589294 0.02580166980624199 0
vn 0.9996671080589294 0.02580166980624199 0
vn 0.9996671080589294 0.02580166980624199 0
vn 0.9996671080589294 0.02580166980624199 0
vn 0.9996671080589294 0.02580166980624199 0
vn 0.9996671080589294 0.02580166980624199 0
vn 0.9996671080589294 0.02580166980624199 0
vn 0.999071478843689 -0.04305330663919449 -0.0016273596556857228
vn 0.9990713000297546 -0.04305297136306763 -0.0017389263957738876
vn 0.9990747570991516 -0.04297617822885513 -0.0016257025999948382
vn 0.9997236132621765 -0.02347947470843792 -0.0011955040972679853
vn 0.9997236132621765 -0.023474255576729774 -0.0012942702742293477
vn 0.999423086643219 -0.03393321484327316 -0.0014308528043329716
vn 0.9994207620620728 -0.033999379724264145 -0.0014623567694798112
vn 0.9997227787971497 -0.023492975160479546 -0.0015738224610686302
vn 0.9994266033172607 -0.03378883749246597 -0.0021758428774774075
vn 0.9997332692146301 -0.02303563989698887 -0.001651119440793991
vn 0.9994503259658813 -0.0330694280564785 -0.0023481498938053846
vn 0.9997398853302002 -0.022774023935198784 -0.0012178451288491488
vn 0.9994556903839111 -0.03296072781085968 -0.0013965073740109801
vn 0.9990381598472595 -0.04381784424185753 -0.0016437110025435686
vn 0.9990397691726685 -0.04377852752804756 -0.001743318047374487
vn 0.9990493059158325 -0.04344794154167175 -0.003564269281923771
vn 0.9990743398666382 -0.04286648705601692 -0.003599482821300626
vn 0.9990832209587097 -0.04278116673231125 -0.001570792286656797
vn 0.9990662336349487 -0.043020978569984436 -0.0039850701577961445
vn 0.9990712404251099 -0.042911626398563385 -0.0039003898855298758
vn 0.9990776777267456 -0.042911287397146225 -0.0015731091843917966
vn 0.9990684986114502 -0.043123509734869 -0.0015768768498674035
vn 0.9990657567977905 -0.04301733151078224 -0.004136994946748018
vn 0.9990646243095398 -0.04304806515574455 -0.00409216433763504
vn 0.9990719556808472 -0.04304208233952522 -0.001611666171811521
vt -1.3027442693710327 0.048371076583862305
vt 0.3027675747871399 0.048370957374572754
vt -1.3027441501617432 0.9366093277931213
vt 0.30276763439178467 0.936609148979187
vt -1.3027442693710327 0.048371076583862305
vt 0.3027675747871399 0.048370957374572754
vt -1.3027441501617432 0.9366093277931213
vt 0.30276763439178467 0.936609148979187
vt 1.229750394821167 0.9994993209838867
vt 1.2297502756118774 0.7497493028640747
vt 1.4795005321502686 0.9994990825653076
vt 0.48049959540367126 0.999500036239624
vt 0.48049959540367126 0.749750018119812
vt 0.73024982213974 0.9994997978210449
vt 0.73024982213974 0.7497497797012329
vt 0.4804995656013489 0.5
vt 0.73024982213974 0.4999997615814209
vt 0.4804995656013489 0.250249981880188
vt 0.7302497625350952 0.25024980306625366
vt 0.4804995357990265 0.000500023365020752
vt 0.7302497625350952 0.0004997849464416504
vt 0.9800000786781311 0.9994995594024658
vt 0.9800000786781311 0.7497495412826538
vt 0.9800000190734863 0.4999995231628418
vt 0.9800000190734863 0.25024956464767456
vt 0.9800000190734863 0.0004995465278625488
vt 1.2297502756118774 0.49999934434890747
vt 1.2297502756118774 0.25024932622909546
vt 1.2297502756118774 0.0004993677139282227
vt 1.4795005321502686 0.0004991292953491211
vt 1.4795005321502686 0.25024908781051636
vt 1.4795005321502686 0.49999910593032837
vt 1.4795005321502686 0.7497491240501404
g Geoset0
s 1
usemtl mat_waterchop5
f 1/1/1 2/2/2 3/3/3
f 4/4/4 3/3/3 2/2/2
g Geoset1
s 1
usemtl mat_waterchop
f 5/5/5 6/6/6 7/7/7
f 8/8/8 7/7/7 6/6/6
g Geoset2
s 1
usemtl mat_watercascade_soft_directionaflipl
f 9/9/9 10/10/10 11/11/11
f 12/12/12 13/13/13 14/14/14
f 15/15/15 14/14/14 13/13/13
f 13/13/13 16/16/16 15/15/15
f 17/17/17 15/15/15 16/16/16
f 16/16/16 18/18/18 17/17/17
f 19/19/19 17/17/17 18/18/18
f 18/18/18 20/20/20 19/19/19
f 21/21/21 19/19/19 20/20/20
f 14/14/14 15/15/15 22/22/22
f 23/23/23 22/22/22 15/15/15
f 15/15/15 17/17/17 23/23/23
f 24/24/24 23/23/23 17/17/17
f 17/17/17 19/19/19 24/24/24
f 25/25/25 24/24/24 19/19/19
f 19/19/19 21/21/21 25/25/25
f 26/26/26 25/25/25 21/21/21
f 22/22/22 23/23/23 9/9/9
f 10/10/10 9/9/9 23/23/23
f 23/23/23 24/24/24 10/10/10
f 27/27/27 10/10/10 24/24/24
f 24/24/24 25/25/25 27/27/27
f 28/28/28 27/27/27 25/25/25
f 25/25/25 26/26/26 28/28/28
f 29/29/29 28/28/28 26/26/26
f 30/30/30 31/31/31 29/29/29
f 28/28/28 29/29/29 31/31/31
f 31/31/31 32/32/32 28/28/28
f 27/27/27 28/28/28 32/32/32
f 32/32/32 33/33/33 27/27/27
f 10/10/10 27/27/27 33/33/33
f 33/33/33 11/11/11 10/10/10
