# Exported using wow.export v0.1.64
o waterfalls_set2_rapids_short
mtllib waterfalls_set2_rapids_short.mtl
v 10.554777145385742 2.6224586963653564 -32.75325393676758
v 10.451200485229492 2.8353543281555176 -16.5368595123291
v 24.83935546875 2.6224546432495117 -32.69915771484375
v -32.559104919433594 2.622467279434204 -33.10185623168945
v -32.56751251220703 2.835362672805786 -16.4397029876709
v -17.6387882232666 2.6224634647369385 -33.09343338012695
v -17.800682067871094 2.8353590965270996 -16.25611686706543
v -32.54661560058594 2.9453206062316895 1.3585296869277954
v -17.8668212890625 2.9453141689300537 1.4811252355575562
v -32.613006591796875 2.945319890975952 21.606929779052734
v -17.8018798828125 2.9453189373016357 21.631929397583008
v -32.59170150756836 2.9453203678131104 39.435184478759766
v -17.909820556640625 2.945317268371582 39.63289260864258
v -3.5358238220214844 2.62246036529541 -32.91704177856445
v -3.375800132751465 2.8353564739227295 -16.29932403564453
v -3.4794604778289795 2.945314645767212 1.6322693824768066
v -3.706230640411377 2.9453139305114746 21.69126319885254
v -3.589428424835205 2.9453155994415283 39.46548843383789
v 10.382963180541992 2.9453132152557373 1.6503959894180298
v 10.480143547058105 2.945312261581421 21.762969970703125
v 10.62114429473877 2.9453136920928955 39.42095947265625
v 24.803115844726562 2.9453091621398926 39.82743453979492
v 25.042390823364258 2.9453115463256836 21.485225677490234
v 25.018287658691406 2.9453091621398926 1.6316471099853516
v 24.821937561035156 2.8353497982025146 -16.644161224365234
vn 0.18837477266788483 0.9820970892906189 -0.0005093960789963603
vn 0.18818902969360352 0.9821232557296753 0.004335423931479454
vn 0.18834884464740753 0.9821019172668457 -0.0007059042109176517
vn 0.18842577934265137 0.9820874333381653 -0.00008105878805508837
vn 0.1883702129125595 0.9820882081985474 0.00441066874191165
vn 0.18860377371311188 0.982053279876709 0.0000799617191660218
vn 0.18838590383529663 0.9820843935012817 0.004586748778820038
vn 0.1880665272474289 0.9820663332939148 0.013292632065713406
vn 0.18803216516971588 0.9820714592933655 0.013400321826338768
vn 0.18787682056427002 0.9820328950881958 0.017710009589791298
vn 0.18787679076194763 0.9820329546928406 0.017709994688630104
vn 0.18787670135498047 0.9820329546928406 0.017710048705339432
vn 0.187876895070076 0.9820328950881958 0.01771014742553234
vn 0.18852537870407104 0.9820683002471924 -0.00009817957470659167
vn 0.1882665455341339 0.9821076989173889 0.004493718966841698
vn 0.18800757825374603 0.9820753931999207 0.013455523177981377
vn 0.18787680566310883 0.9820328950881958 0.01771005056798458
vn 0.18787670135498047 0.9820329546928406 0.01770995371043682
vn 0.18799999356269836 0.9820761680603027 0.013506127521395683
vn 0.18787670135498047 0.9820329546928406 0.017710020765662193
vn 0.18787671625614166 0.9820329546928406 0.017710005864501
vn 0.18787698447704315 0.9820328950881958 0.017710240557789803
vn 0.18787677586078644 0.9820329546928406 0.017710035666823387
vn 0.1879991590976715 0.9820740222930908 0.013672033324837685
vn 0.1882045418024063 0.9821198582649231 0.004435670096427202
vt 1.229750394821167 0.9994993209838867
vt 1.2297502756118774 0.7497493028640747
vt 1.4795005321502686 0.9994990825653076
vt 0.48049959540367126 0.999500036239624
vt 0.48049959540367126 0.749750018119812
vt 0.73024982213974 0.9994997978210449
vt 0.73024982213974 0.7497497797012329
vt 0.4804995656013489 0.5
vt 0.73024982213974 0.4999997615814209
vt 0.4804995656013489 0.250249981880188
vt 0.7302497625350952 0.25024980306625366
vt 0.4804995357990265 0.000500023365020752
vt 0.7302497625350952 0.0004997849464416504
vt 0.9800000786781311 0.9994995594024658
vt 0.9800000786781311 0.7497495412826538
vt 0.9800000190734863 0.4999995231628418
vt 0.9800000190734863 0.25024956464767456
vt 0.9800000190734863 0.0004995465278625488
vt 1.2297502756118774 0.49999934434890747
vt 1.2297502756118774 0.25024932622909546
vt 1.2297502756118774 0.0004993677139282227
vt 1.4795005321502686 0.0004991292953491211
vt 1.4795005321502686 0.25024908781051636
vt 1.4795005321502686 0.49999910593032837
vt 1.4795005321502686 0.7497491240501404
g Geoset0
s 1
usemtl mat_waterfoamloop3
f 1/1/1 2/2/2 3/3/3
f 4/4/4 5/5/5 6/6/6
f 7/7/7 6/6/6 5/5/5
f 5/5/5 8/8/8 7/7/7
f 9/9/9 7/7/7 8/8/8
f 8/8/8 10/10/10 9/9/9
f 11/11/11 9/9/9 10/10/10
f 10/10/10 12/12/12 11/11/11
f 13/13/13 11/11/11 12/12/12
f 6/6/6 7/7/7 14/14/14
f 15/15/15 14/14/14 7/7/7
f 7/7/7 9/9/9 15/15/15
f 16/16/16 15/15/15 9/9/9
f 9/9/9 11/11/11 16/16/16
f 17/17/17 16/16/16 11/11/11
f 11/11/11 13/13/13 17/17/17
f 18/18/18 17/17/17 13/13/13
f 14/14/14 15/15/15 1/1/1
f 2/2/2 1/1/1 15/15/15
f 15/15/15 16/16/16 2/2/2
f 19/19/19 2/2/2 16/16/16
f 16/16/16 17/17/17 19/19/19
f 20/20/20 19/19/19 17/17/17
f 17/17/17 18/18/18 20/20/20
f 21/21/21 20/20/20 18/18/18
f 22/22/22 23/23/23 21/21/21
f 20/20/20 21/21/21 23/23/23
f 23/23/23 24/24/24 20/20/20
f 19/19/19 20/20/20 24/24/24
f 24/24/24 25/25/25 19/19/19
f 2/2/2 19/19/19 25/25/25
f 25/25/25 3/3/3 2/2/2
