# Exported using wow.export v0.1.64
o waterfalls_set1_low_ripples
mtllib waterfalls_set1_low_ripples.mtl
v -1.6044946908950806 0.05174310505390167 2.599231243133545
v -2.3489468097686768 0.051742713898420334 4.547103404998779
v -1.1758774518966675 0.0517430379986763 4.832695484161377
v -0.034839630126953125 0.051743850111961365 -2.5726656913757324
v -0.49859026074409485 0.05174359679222107 -0.5396016240119934
v -0.3510441184043884 0.05174363777041435 -0.4856571555137634
v -0.7137802839279175 0.05174361169338226 -2.639430522918701
v -0.6549330949783325 0.05174349993467331 -0.5549757480621338
v -1.3878729343414307 0.05174342170357704 -2.5344674587249756
v -0.8101599216461182 0.05174345523118973 -0.5308054089546204
v -1.965584635734558 0.05174339562654495 -4.538129806518555
v -0.7726275324821472 0.05174371972680092 -4.723885536193848
v -2.543297290802002 0.05174335837364197 -6.541791915893555
v -3.1210103034973145 0.05174333229660988 -8.545455932617188
v -0.831353485584259 0.05174388736486435 -6.808554172515869
v 0.4392738342285156 0.051744163036346436 -4.624212265014648
v 0.6058964133262634 0.05174403265118599 -2.338406562805176
v -0.22165341675281525 0.05174367502331734 -0.3965644836425781
v 1.1677932739257812 0.05174417793750763 -1.951509714126587
v -0.11862140148878098 0.051743701100349426 -0.27797234058380127
v 1.620941162109375 0.05174446105957031 -4.294775009155273
v 1.0015738010406494 0.051744405180215836 -6.8330206871032715
v -0.890031635761261 0.051743995398283005 -8.893310546875
v -3.698723316192627 0.05174329876899719 -10.549116134643555
v 1.6152206659317017 0.0517442412674427 -1.4365085363388062
v -0.048483531922101974 0.05174366012215614 -0.13740158081054688
v 2.641103982925415 0.051744669675827026 -3.6560113430023193
v 2.817187547683716 0.05174482613801956 -6.574280738830566
v 1.5491632223129272 0.051744699478149414 -9.015597343444824
v -0.9491687417030334 0.051744166761636734 -10.977250099182129
v 1.9198063611984253 0.051744312047958374 -0.8260612487792969
v -0.0156851876527071 0.05174366757273674 0.016234716400504112
v 3.4401581287384033 0.05174482613801956 -2.7012953758239746
v 4.33488655090332 0.051745135337114334 -5.753087043762207
v 4.018833637237549 0.05174517259001732 -8.863415718078613
v 1.9946855306625366 0.05174495652318001 -11.016152381896973
v 2.0622341632843018 0.05174430087208748 -0.15887747704982758
v -0.022308349609375 0.05174366384744644 0.1731923371553421
v 4.07807731628418 0.05174488201737404 -1.53843355178833
v 5.732889175415039 0.05174531787633896 -4.36857271194458
v 6.059764385223389 0.05174559727311134 -7.91276216506958
v 5.05329704284668 0.05174561217427254 -10.854413032531738
v 2.033473014831543 0.05174423009157181 0.522731363773346
v -0.06793212890625 0.05174364894628525 0.3235189616680145
v 4.395168781280518 0.051744867116212845 -0.33398905396461487
v 6.8868794441223145 0.05174531787633896 -2.5352747440338135
v 7.94720458984375 0.05174583941698074 -6.032127380371094
v 7.605216026306152 0.05174614116549492 -9.742619514465332
v 1.8353466987609863 0.051744114607572556 1.1755434274673462
v -0.1496632844209671 0.05174362659454346 0.45768144726753235
v 4.280287742614746 0.051744747906923294 0.8899939060211182
v 7.520545959472656 0.051745280623435974 -0.4655626118183136
v 9.618847846984863 0.051745831966400146 -3.4514291286468506
v 9.656782150268555 0.05174644663929939 -7.273550987243652
v 1.4804182052612305 0.0517440065741539 1.7581616640090942
v -0.2623189389705658 0.05174359679222107 0.5671725869178772
v 3.81187105178833 0.05174461379647255 2.0923025608062744
v 7.379594802856445 0.051745131611824036 1.6118539571762085
v 10.699217796325684 0.05174562335014343 -0.7113062739372253
v 11.74990177154541 0.051746390759944916 -4.082910537719727
v 0.9911952614784241 0.05174382030963898 2.2336409091949463
v -0.398755818605423 0.05174349993467331 0.6450485587120056
v 3.2156591415405273 0.051744360476732254 3.259688138961792
v 6.572202682495117 0.051744911819696426 3.754547119140625
v 10.483223915100098 0.0517454631626606 2.30141282081604
v 13.141226768493652 0.0517461784183979 -1.0421324968338013
v 0.3987019956111908 0.05174359306693077 2.5718271732330322
v -0.5503209233283997 0.05174346640706062 0.6863712668418884
v 2.374932050704956 0.051743995398283005 4.16365909576416
v 5.514589309692383 0.05174456164240837 5.678937911987305
v 9.298298835754395 0.05174516886472702 5.375454425811768
v 12.730423927307129 0.051745980978012085 2.610525131225586
v -0.2594888508319855 0.051743410527706146 2.7512762546539307
v -0.7074042558670044 0.05174347385764122 0.6885202527046204
v 1.2863837480545044 0.05174366384744644 4.681203842163086
v 4.192842483520508 0.05174411088228226 6.899443626403809
v 7.7670416831970215 0.05174475908279419 8.047146797180176
v 11.258859634399414 0.051745668053627014 6.322009086608887
v -0.9416406750679016 0.0517432875931263 2.760607957839966
v -0.8600434064865112 0.05174343287944794 0.6513591408729553
v 0.04743533581495285 0.05174335837364197 4.848749160766602
v 2.455427885055542 0.05174364149570465 7.36001443862915
v 5.978060245513916 0.05174417048692703 9.631922721862793
v 9.453038215637207 0.05174512416124344 9.512741088867188
v 0.49129191040992737 0.05174321308732033 7.22335147857666
v 3.63285756111145 0.05174361914396286 10.055794715881348
v 7.383203983306885 0.05174440145492554 11.678448677062988
v 4.550690650939941 0.05174367502331734 12.22619342803955
v 0.9123073220252991 0.05174313113093376 9.551725387573242
v 1.1748360395431519 0.05174308270215988 11.55935001373291
v -1.6439003944396973 0.05174260213971138 8.977783203125
v -1.8785879611968994 0.05174240469932556 11.048959732055664
v -3.83785080909729 0.05174199491739273 8.44284725189209
v -4.582302093505859 0.051741667091846466 10.390718460083008
v -3.0933985710144043 0.05174238234758377 6.494976043701172
v -1.4099265336990356 0.05174284055829048 6.905161380767822
vn -1.8500918486097362e-7 1 3.3011165356811034e-8
vn -1.8478554864032048e-7 1 3.211362553656727e-8
vn -1.771022368757258e-7 1 3.6275519477158014e-8
vn -2.0184302229608875e-7 1 2.7987695716547023e-8
vn -2.485449783762306e-7 1 2.782435615245049e-8
vn -1.8859554984373972e-7 1 2.4842114143552863e-8
vn -1.962971651892076e-7 1 2.5998968311569115e-8
vn -2.5424554905839614e-7 1 2.956514677521227e-8
vn -1.7448500955197233e-7 1 2.7313395989381206e-8
vn -1.7448500955197233e-7 1 2.7313395989381206e-8
vn -1.7448500955197233e-7 1 2.7313395989381206e-8
vn -1.9786570248925273e-7 1 3.254498537330619e-8
vn -1.8539549273555167e-7 1 3.2984566189497855e-8
vn -1.854818947322201e-7 1 2.976960189471356e-8
vn -1.865293342007135e-7 1 2.9984878580080476e-8
vn -1.937775095939287e-7 1 2.8365793269813366e-8
vn -1.8944155044664512e-7 1 2.852545044618182e-8
vn -1.9336214052145806e-7 1 2.1560051521873902e-8
vn -1.7672923036116117e-7 1 3.268437254178025e-8
vn -1.4653276991793973e-7 1 8.062523448870706e-8
vn -1.695053839512184e-7 1 2.47266083164277e-8
vn -1.728901111164305e-7 1 2.440228819011736e-8
vn -1.8421896186282538e-7 1 3.283782490370868e-8
vn -1.8726453276940447e-7 1 3.4557036343585423e-8
vn -1.7966122811685636e-7 1 2.6724844559566918e-8
vn -1.61060114578504e-7 1 6.155023157816686e-8
vn -1.6439878436358413e-7 1 2.3858394371245595e-8
vn -1.5775903250414558e-7 1 2.0455342308878244e-8
vn -1.645029072960824e-7 1 3.215728483496605e-8
vn -1.8439783389112563e-7 1 3.7246497441856263e-8
vn -1.8108826793650223e-7 1 2.7560419724181884e-8
vn -1.9378811089154624e-7 1 9.757412655631015e-9
vn -1.5799690800122335e-7 1 2.5137332215763308e-8
vn -1.5123822549867327e-7 1 2.042564162252347e-8
vn -1.5532813790741784e-7 1 3.175885865402961e-8
vn -1.6074710629254696e-7 1 3.647936708262023e-8
vn -1.7304881794188987e-7 1 3.8663348078671333e-8
vn -1.83293423106079e-7 1 7.58255591648549e-9
vn -1.4283085647548432e-7 1 2.8624841164059944e-8
vn -1.3375617413657892e-7 1 3.168590723134912e-8
vn -1.5702248390425666e-7 1 3.279007287915192e-8
vn -1.6153090598436393e-7 1 4.194230740495186e-8
vn -1.734360353111697e-7 1 4.022710697881848e-8
vn -1.7342850355817063e-7 1 1.0867323929630857e-8
vn -1.3857372493930598e-7 1 3.209318322205945e-8
vn -1.2362809798105445e-7 1 3.466076492486536e-8
vn -1.5215461246498307e-7 1 4.7013099191417496e-8
vn -1.6706803762644995e-7 1 4.210587434272384e-8
vn -1.722914646506979e-7 1 2.2695880730339013e-8
vn -1.690667943421431e-7 1 1.1589427195701774e-8
vn -1.414442323266485e-7 1 2.8359673720501632e-8
vn -1.147902040088411e-7 1 3.177666130227408e-8
vn -1.389943236063118e-7 1 5.718828788303654e-8
vn -1.694895104265015e-7 1 5.748583120634976e-8
vn -1.7912107352913154e-7 1 2.857059655525518e-8
vn -2.3165087270626827e-7 1 6.769304405906951e-8
vn -1.505816555891215e-7 1 2.8372729943271224e-8
vn -1.1532384291967901e-7 1 2.5436271755552298e-8
vn -1.3384681096795248e-7 1 4.064082759214216e-8
vn -1.530435440599831e-7 1 6.952251396796783e-8
vn -1.9258945371802838e-7 1 4.7002885139590944e-8
vn -2.220259887053544e-7 1 6.428373211520011e-8
vn -1.6643495825974242e-7 1 5.126582891534781e-8
vn -1.247635594836538e-7 1 3.3280098676868874e-8
vn -1.3875832394205645e-7 1 1.502241175899144e-8
vn -1.5436999944995478e-7 1 4.273937648235915e-8
vn -1.8154969438910484e-7 1 3.718554708598276e-8
vn -9.872020712009544e-8 1 1.6458578500078147e-8
vn -1.750482994111735e-7 1 5.379114043080335e-8
vn -1.4563012484813953e-7 1 4.584195423262827e-8
vn -1.4592284003356326e-7 1 1.4067173204068695e-8
vn -1.6275699010748212e-7 1 7.475645880106185e-9
vn -1.5460574331882526e-7 1 2.807477805788494e-8
vn -1.157646423166625e-7 1 1.8982280636237192e-8
vn -1.6570284344652464e-7 1 4.163818800861918e-8
vn -1.602968495717505e-7 1 5.2826496954594404e-8
vn -1.5924263152555795e-7 1 2.9803590706478644e-8
vn -1.6796458623957733e-7 1 2.1157975371721705e-9
vn -1.6670300340138056e-7 1 3.1585518200927254e-8
vn -1.8352912434238533e-7 1 2.6931770591431814e-8
vn -1.661584292378393e-7 1 3.9870261758778724e-8
vn -1.595701348833245e-7 1 4.8081613357453534e-8
vn -1.622504868237229e-7 1 3.6001718939360217e-8
vn -1.7137448082849005e-7 1 2.371322160854561e-8
vn -1.5420935994825413e-7 1 3.8952894243493574e-8
vn -1.5143507425818825e-7 1 3.3255663112186085e-8
vn -1.6950684766925406e-7 1 3.0366543057880335e-8
vn -1.5601503378093184e-7 1 2.9619691588322894e-8
vn -1.4913490531398566e-7 1 2.7954639492122624e-8
vn -1.4729167219229566e-7 1 2.2164222457377036e-8
vn -1.718630642244534e-7 1 3.33045448996927e-8
vn -1.718298676678387e-7 1 2.8224658166209338e-8
vn -1.8476355023722135e-7 1 3.210561771993525e-8
vn -1.8352911013153062e-7 1 2.693178124957285e-8
vn -1.8498714382531034e-7 1 3.302356788026373e-8
vn -1.6837827843119157e-7 1 3.354707089897602e-8
vt 1.3480548858642578 0.997289776802063
vt 0.7950456738471985 1.001054286956787
vt 0.7950456738471985 0.9343876838684082
vt 1.3234930038452148 0.13835561275482178
vt 2.0573742389678955 0.13891875743865967
vt 2.0527262687683105 0.20380574464797974
vt 1.3384047746658325 0.07216370105743408
vt 2.047427177429199 0.07547235488891602
vt 1.3634589910507202 0.00767284631729126
vt 2.022850751876831 0.014744281768798828
vt 0.7950456738471985 0.0010542869567871094
vt 0.7950456738471985 0.06772094964981079
vt 0.4000000059604645 0
vt 0.20000000298023224 0
vt 0.4000000059604645 0.06666666269302368
vt 0.7950456738471985 0.13438761234283447
vt 1.3186063766479492 0.2056434154510498
vt 2.033383846282959 0.2688804864883423
vt 1.3236677646636963 0.27344411611557007
vt 2.0059330463409424 0.33311301469802856
vt 0.7950456738471985 0.20105433464050293
vt 0.4000000059604645 0.13333332538604736
vt 0.20000000298023224 0.06666666269302368
vt 0 0
vt 1.347983956336975 0.34123873710632324
vt 1.9648017883300781 0.40649354457855225
vt 0.7950456738471985 0.26772093772888184
vt 0.4000000059604645 0.20000004768371582
vt 0.20000000298023224 0.13333332538604736
vt 0 0.06666666269302368
vt 1.3879486322402954 0.4065530300140381
vt 1.915452003479004 0.48334503173828125
vt 0.7950456738471985 0.3343876600265503
vt 0.4000000059604645 0.2666666507720947
vt 0.20000000298023224 0.20000004768371582
vt 0 0.13333332538604736
vt 1.427601933479309 0.47061944007873535
vt 1.899924635887146 0.5548952221870422
vt 0.7950456738471985 0.401054322719574
vt 0.4000000059604645 0.3333333730697632
vt 0.20000000298023224 0.2666666507720947
vt 0 0.20000004768371582
vt 1.4511834383010864 0.5356887578964233
vt 1.9031498432159424 0.622269868850708
vt 0.7950456738471985 0.46772098541259766
vt 0.4000000059604645 0.40000003576278687
vt 0.20000000298023224 0.3333333730697632
vt 0 0.2666666507720947
vt 1.4560633897781372 0.601995050907135
vt 1.9163051843643188 0.686834454536438
vt 0.7950456738471985 0.5343876481056213
vt 0.4000000059604645 0.46666669845581055
vt 0.20000000298023224 0.40000003576278687
vt 0 0.3333333730697632
vt 1.4505653381347656 0.6687689423561096
vt 1.939488410949707 0.7502628564834595
vt 0.7950456738471985 0.601054310798645
vt 0.4000000059604645 0.5333333611488342
vt 0.20000000298023224 0.46666669845581055
vt 0 0.40000003576278687
vt 1.4347323179244995 0.7353897094726562
vt 1.9577796459197998 0.8106643557548523
vt 0.7950456738471985 0.6677209734916687
vt 0.4000000059604645 0.6000000238418579
vt 0.20000000298023224 0.5333333611488342
vt 0 0.46666669845581055
vt 1.4085533618927002 0.8012466430664062
vt 1.975227952003479 0.8719382882118225
vt 0.7950456738471985 0.7343876361846924
vt 0.4000000059604645 0.6666666865348816
vt 0.20000000298023224 0.6000000238418579
vt 0 0.5333333611488342
vt 1.3773726224899292 0.8664798140525818
vt 1.992676019668579 0.9332124590873718
vt 0.7950456738471985 0.8010543584823608
vt 0.4000000059604645 0.7333333492279053
vt 0.20000000298023224 0.6666666865348816
vt 0 0.6000000238418579
vt 1.3549219369888306 0.9317107200622559
vt 2.004067897796631 0.9918054342269897
vt 0.7950456738471985 0.8677210211753845
vt 0.4000000059604645 0.8000000715255737
vt 0.20000000298023224 0.7333333492279053
vt 0 0.6666666865348816
vt 0.4000000059604645 0.8666667342185974
vt 0.20000000298023224 0.8000000715255737
vt 0 0.7333333492279053
vt 0 0.8000000715255737
vt 0.20000000298023224 0.8666667342185974
vt 0 0.8666667342185974
vt 0.20000000298023224 0.9333333969116211
vt 0 0.9333333969116211
vt 0.20000000298023224 1
vt 0 1
vt 0.4000000059604645 1
vt 0.4000000059604645 0.9333333969116211
g Geoset0
s 1
usemtl mat_waterfoamloop2
f 1/1/1 2/2/2 3/3/3
f 4/4/4 5/5/5 6/6/6
f 5/5/5 4/4/4 7/7/7
f 7/7/7 8/8/8 5/5/5
f 8/8/8 7/7/7 9/9/9
f 9/9/9 10/10/10 8/8/8
f 11/11/11 9/9/9 7/7/7
f 7/7/7 12/12/12 11/11/11
f 12/12/12 7/7/7 4/4/4
f 13/13/13 11/11/11 12/12/12
f 14/14/14 13/13/13 15/15/15
f 12/12/12 15/15/15 13/13/13
f 15/15/15 12/12/12 16/16/16
f 4/4/4 16/16/16 12/12/12
f 16/16/16 4/4/4 17/17/17
f 6/6/6 17/17/17 4/4/4
f 17/17/17 6/6/6 18/18/18
f 19/19/19 18/18/18 20/20/20
f 18/18/18 19/19/19 17/17/17
f 21/21/21 17/17/17 19/19/19
f 17/17/17 21/21/21 16/16/16
f 22/22/22 16/16/16 21/21/21
f 16/16/16 22/22/22 15/15/15
f 23/23/23 15/15/15 22/22/22
f 15/15/15 23/23/23 14/14/14
f 24/24/24 14/14/14 23/23/23
f 25/25/25 20/20/20 26/26/26
f 20/20/20 25/25/25 19/19/19
f 27/27/27 19/19/19 25/25/25
f 19/19/19 27/27/27 21/21/21
f 28/28/28 21/21/21 27/27/27
f 21/21/21 28/28/28 22/22/22
f 29/29/29 22/22/22 28/28/28
f 22/22/22 29/29/29 23/23/23
f 30/30/30 23/23/23 29/29/29
f 23/23/23 30/30/30 24/24/24
f 31/31/31 26/26/26 32/32/32
f 26/26/26 31/31/31 25/25/25
f 33/33/33 25/25/25 31/31/31
f 25/25/25 33/33/33 27/27/27
f 34/34/34 27/27/27 33/33/33
f 27/27/27 34/34/34 28/28/28
f 35/35/35 28/28/28 34/34/34
f 28/28/28 35/35/35 29/29/29
f 36/36/36 29/29/29 35/35/35
f 29/29/29 36/36/36 30/30/30
f 37/37/37 32/32/32 38/38/38
f 32/32/32 37/37/37 31/31/31
f 39/39/39 31/31/31 37/37/37
f 31/31/31 39/39/39 33/33/33
f 40/40/40 33/33/33 39/39/39
f 33/33/33 40/40/40 34/34/34
f 41/41/41 34/34/34 40/40/40
f 34/34/34 41/41/41 35/35/35
f 42/42/42 35/35/35 41/41/41
f 35/35/35 42/42/42 36/36/36
f 43/43/43 38/38/38 44/44/44
f 38/38/38 43/43/43 37/37/37
f 45/45/45 37/37/37 43/43/43
f 37/37/37 45/45/45 39/39/39
f 46/46/46 39/39/39 45/45/45
f 39/39/39 46/46/46 40/40/40
f 47/47/47 40/40/40 46/46/46
f 40/40/40 47/47/47 41/41/41
f 48/48/48 41/41/41 47/47/47
f 41/41/41 48/48/48 42/42/42
f 49/49/49 44/44/44 50/50/50
f 44/44/44 49/49/49 43/43/43
f 51/51/51 43/43/43 49/49/49
f 43/43/43 51/51/51 45/45/45
f 52/52/52 45/45/45 51/51/51
f 45/45/45 52/52/52 46/46/46
f 53/53/53 46/46/46 52/52/52
f 46/46/46 53/53/53 47/47/47
f 54/54/54 47/47/47 53/53/53
f 47/47/47 54/54/54 48/48/48
f 55/55/55 50/50/50 56/56/56
f 50/50/50 55/55/55 49/49/49
f 57/57/57 49/49/49 55/55/55
f 49/49/49 57/57/57 51/51/51
f 58/58/58 51/51/51 57/57/57
f 51/51/51 58/58/58 52/52/52
f 59/59/59 52/52/52 58/58/58
f 52/52/52 59/59/59 53/53/53
f 60/60/60 53/53/53 59/59/59
f 53/53/53 60/60/60 54/54/54
f 61/61/61 56/56/56 62/62/62
f 56/56/56 61/61/61 55/55/55
f 63/63/63 55/55/55 61/61/61
f 55/55/55 63/63/63 57/57/57
f 64/64/64 57/57/57 63/63/63
f 57/57/57 64/64/64 58/58/58
f 65/65/65 58/58/58 64/64/64
f 58/58/58 65/65/65 59/59/59
f 66/66/66 59/59/59 65/65/65
f 59/59/59 66/66/66 60/60/60
f 67/67/67 62/62/62 68/68/68
f 62/62/62 67/67/67 61/61/61
f 69/69/69 61/61/61 67/67/67
f 61/61/61 69/69/69 63/63/63
f 70/70/70 63/63/63 69/69/69
f 63/63/63 70/70/70 64/64/64
f 71/71/71 64/64/64 70/70/70
f 64/64/64 71/71/71 65/65/65
f 72/72/72 65/65/65 71/71/71
f 65/65/65 72/72/72 66/66/66
f 73/73/73 68/68/68 74/74/74
f 68/68/68 73/73/73 67/67/67
f 75/75/75 67/67/67 73/73/73
f 67/67/67 75/75/75 69/69/69
f 76/76/76 69/69/69 75/75/75
f 69/69/69 76/76/76 70/70/70
f 77/77/77 70/70/70 76/76/76
f 70/70/70 77/77/77 71/71/71
f 78/78/78 71/71/71 77/77/77
f 71/71/71 78/78/78 72/72/72
f 79/79/79 74/74/74 80/80/80
f 74/74/74 79/79/79 73/73/73
f 81/81/81 73/73/73 79/79/79
f 73/73/73 81/81/81 75/75/75
f 82/82/82 75/75/75 81/81/81
f 75/75/75 82/82/82 76/76/76
f 83/83/83 76/76/76 82/82/82
f 76/76/76 83/83/83 77/77/77
f 84/84/84 77/77/77 83/83/83
f 77/77/77 84/84/84 78/78/78
f 80/80/80 1/1/1 79/79/79
f 3/3/3 79/79/79 1/1/1
f 79/79/79 3/3/3 81/81/81
f 85/85/85 81/81/81 3/3/3
f 81/81/81 85/85/85 82/82/82
f 86/86/86 82/82/82 85/85/85
f 82/82/82 86/86/86 83/83/83
f 87/87/87 83/83/83 86/86/86
f 83/83/83 87/87/87 84/84/84
f 86/86/86 88/88/88 87/87/87
f 88/88/88 86/86/86 89/89/89
f 89/89/89 90/90/90 88/88/88
f 90/90/90 89/89/89 91/91/91
f 91/91/91 92/92/92 90/90/90
f 92/92/92 91/91/91 93/93/93
f 93/93/93 94/94/94 92/92/92
f 95/95/95 93/93/93 91/91/91
f 91/91/91 96/96/96 95/95/95
f 96/96/96 91/91/91 89/89/89
f 89/89/89 85/85/85 96/96/96
f 85/85/85 89/89/89 86/86/86
f 2/2/2 95/95/95 96/96/96
f 96/96/96 3/3/3 2/2/2
f 3/3/3 96/96/96 85/85/85
