# Exported using wow.export v0.1.64
o waterfalls_set2_rapids_long
mtllib waterfalls_set2_rapids_long.mtl
v 20.8381290435791 2.669288158416748 -22.290790557861328
v 20.640939712524414 2.851304292678833 -9.912240028381348
v 48.77145767211914 2.669285535812378 -21.642471313476562
v -61.24208068847656 2.66929292678833 -28.293046951293945
v -61.25809860229492 2.851308584213257 -14.047667503356934
v -32.83677673339844 2.669290781021118 -26.213714599609375
v -33.14499282836914 2.851306200027466 -12.554239273071289
v -61.21830368041992 2.945317268371582 1.1690046787261963
v -33.270912170410156 2.945312976837158 1.273818850517273
v -61.3447151184082 2.9453158378601074 18.480459213256836
v -33.147274017333984 2.9453158378601074 17.21344566345215
v -61.30414581298828 2.9453163146972656 33.72279739379883
v -33.35277557373047 2.9453139305114746 31.33646583557129
v -5.987556457519531 2.6692891120910645 -23.785892486572266
v -5.6829047203063965 2.851304769515991 -10.871065139770508
v -5.880255222320557 2.9453139305114746 1.2137802839279175
v -6.311980247497559 2.9453132152557373 15.571517944335938
v -6.089614391326904 2.9453139305114746 28.58738136291504
v 20.511030197143555 2.9453136920928955 1.418538212776184
v 20.696041107177734 2.9453125 14.224772453308105
v 20.964473724365234 2.9453134536743164 26.50577735900879
v 48.702457427978516 2.945310115814209 25.645111083984375
v 49.15798568725586 2.9453125 13.382458686828613
v 49.11211013793945 2.9453108310699463 1.402509093284607
v 48.7382926940918 2.8513004779815674 -9.232086181640625
vn 0.28907138109207153 0.9572941660881042 -0.005062434356659651
vn 0.2883119285106659 0.9575175046920776 0.006038646213710308
vn 0.2886945605278015 0.9574069380760193 -0.0052314745262265205
vn 0.29040080308914185 0.9569041132926941 0.001371239428408444
vn 0.2891939878463745 0.9571943879127502 0.01206980086863041
vn 0.2905472218990326 0.9568606019020081 -0.00022813939722254872
vn 0.28912559151649475 0.9572293758392334 0.010874631814658642
vn 0.2870922088623047 0.9572731852531433 0.034729305654764175
vn 0.28697866201400757 0.957332193851471 0.034034546464681625
vn 0.28634464740753174 0.9570176601409912 0.04608633369207382
vn 0.28634458780288696 0.9570176601409912 0.04608629643917084
vn 0.2863445281982422 0.9570176601409912 0.046086445450782776
vn 0.2863447070121765 0.9570176005363464 0.04608674719929695
vn 0.29028600454330444 0.956935465335846 -0.002922630636021495
vn 0.2888655662536621 0.95733642578125 0.007978563196957111
vn 0.2869259715080261 0.9574059247970581 0.03236370533704758
vn 0.28634458780288696 0.9570176601409912 0.046086423099040985
vn 0.2863444685935974 0.957017719745636 0.046086180955171585
vn 0.28695231676101685 0.9574256539344788 0.03153466805815697
vn 0.2863445580005646 0.9570176601409912 0.04608637094497681
vn 0.2863445281982422 0.957017719745636 0.046086229383945465
vn 0.2863447964191437 0.9570176005363464 0.04608704149723053
vn 0.28634458780288696 0.9570176601409912 0.046086385846138
vn 0.28677523136138916 0.9574874043464661 0.03127021715044975
vn 0.28797969222068787 0.9576196670532227 0.005683532450348139
vt 1.229750394821167 0.9994993209838867
vt 1.2297502756118774 0.7497493028640747
vt 1.4795005321502686 0.9994990825653076
vt 0.48049959540367126 0.999500036239624
vt 0.48049959540367126 0.749750018119812
vt 0.73024982213974 0.9994997978210449
vt 0.73024982213974 0.7497497797012329
vt 0.4804995656013489 0.5
vt 0.73024982213974 0.4999997615814209
vt 0.4804995656013489 0.250249981880188
vt 0.7302497625350952 0.25024980306625366
vt 0.4804995357990265 0.000500023365020752
vt 0.7302497625350952 0.0004997849464416504
vt 0.9800000786781311 0.9994995594024658
vt 0.9800000786781311 0.7497495412826538
vt 0.9800000190734863 0.4999995231628418
vt 0.9800000190734863 0.25024956464767456
vt 0.9800000190734863 0.0004995465278625488
vt 1.2297502756118774 0.49999934434890747
vt 1.2297502756118774 0.25024932622909546
vt 1.2297502756118774 0.0004993677139282227
vt 1.4795005321502686 0.0004991292953491211
vt 1.4795005321502686 0.25024908781051636
vt 1.4795005321502686 0.49999910593032837
vt 1.4795005321502686 0.7497491240501404
g Geoset0
s 1
usemtl mat_waterfoamloop3
f 1/1/1 2/2/2 3/3/3
f 4/4/4 5/5/5 6/6/6
f 7/7/7 6/6/6 5/5/5
f 5/5/5 8/8/8 7/7/7
f 9/9/9 7/7/7 8/8/8
f 8/8/8 10/10/10 9/9/9
f 11/11/11 9/9/9 10/10/10
f 10/10/10 12/12/12 11/11/11
f 13/13/13 11/11/11 12/12/12
f 6/6/6 7/7/7 14/14/14
f 15/15/15 14/14/14 7/7/7
f 7/7/7 9/9/9 15/15/15
f 16/16/16 15/15/15 9/9/9
f 9/9/9 11/11/11 16/16/16
f 17/17/17 16/16/16 11/11/11
f 11/11/11 13/13/13 17/17/17
f 18/18/18 17/17/17 13/13/13
f 14/14/14 15/15/15 1/1/1
f 2/2/2 1/1/1 15/15/15
f 15/15/15 16/16/16 2/2/2
f 19/19/19 2/2/2 16/16/16
f 16/16/16 17/17/17 19/19/19
f 20/20/20 19/19/19 17/17/17
f 17/17/17 18/18/18 20/20/20
f 21/21/21 20/20/20 18/18/18
f 22/22/22 23/23/23 21/21/21
f 20/20/20 21/21/21 23/23/23
f 23/23/23 24/24/24 20/20/20
f 19/19/19 20/20/20 24/24/24
f 24/24/24 25/25/25 19/19/19
f 2/2/2 19/19/19 25/25/25
f 25/25/25 3/3/3 2/2/2
