# Exported using wow.export v0.1.64
o waterfalls_set2_med_doublewide_short
mtllib waterfalls_set2_med_doublewide_short.mtl
v 0.09228155761957169 27.445253372192383 19.735858917236328
v 0.09228033572435379 -0.4361046850681305 19.735858917236328
v 0.09228155761957169 27.445253372192383 -19.588136672973633
v 0.09228033572435379 -0.4361046850681305 -19.588136672973633
v 0.11967142671346664 27.445253372192383 19.735858917236328
v 0.11967020481824875 -0.4361046850681305 19.735858917236328
v 0.11967142671346664 27.445253372192383 -19.588136672973633
v 0.11967020481824875 -0.4361046850681305 -19.588136672973633
vn 1 0 0
vn 1 0 0
vn 1 0 0
vn 1 0 0
vn 1 0 0
vn 1 0 0
vn 1 0 0
vn 1 0 0
vt -1.094672441482544 0.0243682861328125
vt 0.09461432695388794 0.0243682861328125
vt -1.0946723222732544 0.9325507879257202
vt 0.09461447596549988 0.9325507879257202
vt -1.094672441482544 0.0243682861328125
vt 0.09461432695388794 0.0243682861328125
vt -1.0946723222732544 0.9325507879257202
vt 0.09461447596549988 0.9325507879257202
g Geoset0
s 1
usemtl mat_waterchop5
f 1/1/1 2/2/2 3/3/3
f 4/4/4 3/3/3 2/2/2
g Geoset1
s 1
usemtl mat_waterchop
f 5/5/5 6/6/6 7/7/7
f 8/8/8 7/7/7 6/6/6
