# Exported using wow.export v0.1.64
o borean_redplant_burningpile_03
mtllib borean_redplant_burningpile_03.mtl
v -0.07351570576429367 0.01757192052900791 0.08710256218910217
v -0.18938708305358887 0.0464957095682621 0.00763665558770299
v -0.0424063540995121 -0.015063039027154446 -0.08096408098936081
v 0.2676238715648651 1.5261456966400146 -0.028211716562509537
v 0.2805209457874298 1.5294331312179565 -0.09901038557291031
v 0.24990516901016235 1.5348669290542603 -0.09020403772592545
v 0.23107054829597473 1.5484461784362793 -0.05027078837156296
v 0.4022473394870758 0.6089271306991577 0.41875720024108887
v 0.7890090942382812 0.30155113339424133 0.3919239044189453
v 0.7895618677139282 0.3530851900577545 -0.19043274223804474
v 0.4028001129627228 0.6604612469673157 -0.16359944641590118
v -0.07866822183132172 0.8228803277015686 0.43723395466804504
v -0.07811548560857773 0.8744143843650818 -0.1451227068901062
v -0.05009610578417778 0.5622164607048035 -0.7687085866928101
v -0.30771926045417786 0.1845734864473343 -0.9579195380210876
v -0.7299562096595764 0.2751685082912445 -0.5638333559036255
v -0.47233307361602783 0.6528114676475525 -0.37462231516838074
v 0.2755051851272583 0.8685767650604248 -0.49027666449546814
v -0.14673176407814026 0.959171712398529 -0.0961904302239418
v 0.39932534098625183 0.6739773750305176 -0.34933698177337646
v 0.659663736820221 0.38803473114967346 -0.5310128331184387
v 0.49647268652915955 0.4023405611515045 -0.7873790264129639
v 0.23613424599170685 0.6882831454277039 -0.6057031154632568
v 0.06445290148258209 0.8840983510017395 -0.12444715946912766
v -0.0987381562590599 0.8984041213989258 -0.38081327080726624
v 0.07349637895822525 0.6359911561012268 0.5545952320098877
v 0.08288620412349701 0.32456210255622864 0.8469464182853699
v 0.38652360439300537 0.34165918827056885 0.8554068207740784
v 0.3771337568759918 0.6530882120132446 0.5630556344985962
v 0.07051564753055573 0.8791316151618958 0.1702260971069336
v 0.3741530478000641 0.8962286114692688 0.17868651449680328
v -0.45405784249305725 0.6359910368919373 -0.3869304656982422
v -0.6981817483901978 0.32456210255622864 -0.5480545163154602
v -0.8803965449333191 0.34165918827056885 -0.3050215244293213
v -0.636272668838501 0.6530882120132446 -0.14389748871326447
v -0.13850241899490356 0.8791316151618958 -0.16744640469551086
v -0.3207171857357025 0.8962286114692688 0.07558657974004745
v -0.012527957558631897 1.0312939882278442 -0.032506223767995834
v -0.47060856223106384 0.6762715578079224 0.32984939217567444
v -0.10662633925676346 0.5634682774543762 0.7754455208778381
v -0.7976005673408508 0.5630306601524353 -0.08291587233543396
v -0.3519715368747711 0.5630303621292114 -0.4468187391757965
v 0.33896979689598083 0.5634673237800598 0.4114636480808258
v 0.0936577096581459 0.5630300641059875 -0.8107214570045471
v 0.7845661640167236 0.563467800617218 0.04748141020536423
v 0.420584112405777 0.5634675025939941 -0.3981146216392517
v 0.024366673082113266 0.5358657836914062 -0.031427569687366486
v 0.5576825141906738 0.12792366743087769 0.12920203804969788
v 0.7076597809791565 -0.0016940525965765119 -0.39857566356658936
v 0.41320616006851196 -0.002196909161284566 0.6101371049880981
v -0.1145273968577385 -0.002197257475927472 0.46009090542793274
v 0.17988231778144836 -0.0016951434081420302 -0.5485530495643616
v -0.6422609686851501 -0.0021976286079734564 0.31004443764686584
v -0.3478955030441284 -0.0016945863608270884 -0.6985304355621338
v -0.4978727400302887 -0.0016949577257037163 -0.17075294256210327
v -0.022563613951206207 0.6195064187049866 -0.012299278751015663
v 0.38978615403175354 0.21162977814674377 -0.5743499994277954
v -0.17018213868141174 0.08203288912773132 -0.9718186259269714
v -0.5676508545875549 0.08203180134296417 -0.4118506908416748
v -0.9651196599006653 0.08203236013650894 0.14811769127845764
v -0.40515169501304626 0.0820319876074791 0.5455862879753113
v 0.10172770172357559 0.0815293937921524 0.9168303608894348
v 0.8967912793159485 0.0815301164984703 -0.20294435322284698
v 0.4992596209049225 0.08152976632118225 0.3569430410861969
v -0.017466509714722633 1.0018459558486938 -0.03680533915758133
v -0.5133975148200989 0.4000529944896698 -0.5266886949539185
v -0.9882552027702332 0.20884199440479279 -0.030648328363895416
v -0.07204581052064896 0.20810016989707947 -0.9741312861442566
v 0.4239053428173065 0.20809966325759888 -0.49922317266464233
v -0.49221521615982056 0.20884037017822266 0.44420933723449707
v 0.9198563694953918 0.2080991119146347 -0.024314751848578453
v 0.003825209569185972 0.20884118974208832 0.9190672039985657
v 0.4786827266216278 0.20884065330028534 0.42302706837654114
v 0.18548882007598877 1.1062356233596802 -0.012736347503960133
v -0.36077430844306946 0.9483340382575989 -0.13034582138061523
v -0.4763576090335846 0.8748065829277039 0.2800693213939667
v -0.24615389108657837 0.9242632389068604 -0.5091419816017151
v 0.1582074910402298 0.8717764019966125 -0.3909943401813507
v -0.06288925558328629 0.8829810619354248 0.39797714352607727
v 0.2975192368030548 0.7805784344673157 0.4946276843547821
v 0.5591447949409485 0.7963968515396118 -0.2727763056755066
v 0.455953985452652 0.8376708626747131 0.10319914668798447
v -0.006806225050240755 1.052422285079956 0.001565112266689539
v 0.0027476989198476076 0.7202739119529724 0.6260366439819336
v 0.6472175121307373 0.5807579159736633 0.5578925013542175
v -0.603807270526886 0.711537778377533 0.6582247018814087
v -0.6494584083557129 0.7231022715568542 0.00950573943555355
v -0.6951093077659607 0.699201762676239 -0.6392133831977844
v -0.0971606969833374 0.7366087436676025 -0.6825352311134338
v 0.5437462329864502 0.6123724579811096 -0.6762178540229797
v 0.6014712452888489 0.6863052248954773 -0.09084609150886536
v -0.05248280242085457 0.7861431241035461 -0.11817741394042969
v 0.0129208043217659 0.741736888885498 -0.18617747724056244
v -0.0424063540995121 -0.015063039027154446 -0.08096408098936081
v -0.18938708305358887 0.0464957095682621 0.00763665558770299
v -0.006651503033936024 0.7131211757659912 -0.0628843754529953
v -0.07351570576429367 0.01757192052900791 0.08710256218910217
v 0.06695909798145294 0.6789496541023254 -0.10448145121335983
v -0.00721103698015213 -0.02519022673368454 0.01594667322933674
v 0.0129208043217659 0.741736888885498 -0.18617747724056244
v -0.0424063540995121 -0.015063039027154446 -0.08096408098936081
v 0.0939306691288948 1.0293426513671875 -0.022884055972099304
v 0.21181298792362213 1.087976336479187 -0.08967388421297073
v 0.15166516602039337 1.0247894525527954 0.030810965225100517
v 0.2196987122297287 1.0137591361999512 -0.01396482065320015
v 0.21181298792362213 1.087976336479187 -0.08967388421297073
v 0.24990516901016235 1.5348669290542603 -0.09020403772592545
v 0.2805209457874298 1.5294331312179565 -0.09901038557291031
v 0.2676238715648651 1.5261456966400146 -0.028211716562509537
v 0.23107054829597473 1.5484461784362793 -0.05027078837156296
v 0.24990516901016235 1.5348669290542603 -0.09020403772592545
v -0.00721103698015213 -0.02519022673368454 0.01594667322933674
vn -0.26770320534706116 -0.9629966020584106 0.03118491917848587
vn -0.20549838244915009 -0.976826012134552 0.05984433367848396
vn -0.283156156539917 -0.9587748050689697 0.02394648641347885
vn 0.29665476083755493 0.9242309927940369 0.24040181934833527
vn 0.06818494200706482 0.9348123073577881 0.34853509068489075
vn 0.19255705177783966 0.9366040229797363 0.2927365005016327
vn 0.4672336280345917 0.8726658225059509 0.14194037020206451
vn 0.6259069442749023 0.7768222689628601 0.06919323652982712
vn 0.7248259782791138 0.6862042546272278 0.06124543398618698
vn 0.7248260378837585 0.686204195022583 0.06124543398618698
vn 0.6259069442749023 0.7768222689628601 0.06919323652982712
vn 0.507448673248291 0.8582956790924072 0.07631774246692657
vn 0.507448673248291 0.8582956790924072 0.07631774246692657
vn -0.4829288125038147 0.6820732355117798 -0.549140989780426
vn -0.559087872505188 0.5840482711791992 -0.5884796977043152
vn -0.5590879321098328 0.5840482115745544 -0.58847975730896
vn -0.4829288125038147 0.6820732355117798 -0.549140989780426
vn -0.3952469825744629 0.7715569138526917 -0.4984774589538574
vn -0.3952469825744629 0.7715569138526917 -0.4984774589538574
vn 0.41911983489990234 0.8611600399017334 -0.2876490354537964
vn 0.496299147605896 0.7930243611335754 -0.35326969623565674
vn 0.496299147605896 0.7930243611335754 -0.3532697260379791
vn 0.41911983489990234 0.8611600399017334 -0.2876490354537964
vn 0.3386463522911072 0.9147845506668091 -0.22019954025745392
vn 0.3386463522911072 0.9147845506668091 -0.22019954025745392
vn -0.048534996807575226 0.7694652080535889 0.636841893196106
vn -0.046698424965143204 0.6827335357666016 0.7291736006736755
vn -0.046698424965143204 0.6827335357666016 0.7291736006736755
vn -0.048534996807575226 0.7694652080535889 0.636841893196106
vn -0.04959259182214737 0.8438518047332764 0.5342796444892883
vn -0.04959259182214737 0.8438518047332764 0.5342796444892883
vn -0.40275296568870544 0.804492712020874 -0.43655645847320557
vn -0.4742564558982849 0.7256785035133362 -0.49846914410591125
vn -0.4742564857006073 0.7256785035133362 -0.49846917390823364
vn -0.40275296568870544 0.804492712020874 -0.43655645847320557
vn -0.32762593030929565 0.8692448139190674 -0.3702360689640045
vn -0.32762593030929565 0.8692448139190674 -0.3702360689640045
vn 0.012266774661839008 0.9997308254241943 -0.019693942740559578
vn -0.2274208962917328 0.9576777815818787 0.17644545435905457
vn 0.039944037795066833 0.9593666195869446 0.27932098507881165
vn -0.2753235697746277 0.9558693766593933 -0.10252168029546738
vn -0.25097593665122986 0.9179065823554993 -0.30734121799468994
vn 0.23925535380840302 0.9257240891456604 0.29290229082107544
vn 0.03221258521080017 0.9591732621192932 -0.28097859025001526
vn 0.2760228216648102 0.9607491493225098 0.02779294177889824
vn 0.29437971115112305 0.9258267879486084 -0.237034410238266
vn -0.019231107085943222 0.9998145699501038 0.0009996416047215462
vn 0.23107483983039856 0.9702700972557068 0.07197451591491699
vn 0.1733343005180359 0.9714788198471069 -0.16181504726409912
vn 0.0617571659386158 0.968973696231842 0.23932410776615143
vn -0.09235098958015442 0.9412595629692078 0.32481029629707336
vn 0.08777132630348206 0.9470449686050415 -0.3088720738887787
vn -0.20917800068855286 0.9713405966758728 0.11288074404001236
vn -0.1134900227189064 0.9724670052528381 -0.2035386711359024
vn -0.30803346633911133 0.947120726108551 -0.08987610787153244
vn -0.006856913212686777 0.9997094869613647 0.023106582462787628
vn 0.17855578660964966 0.9545513391494751 -0.23864108324050903
vn -0.11664445698261261 0.9563564658164978 -0.26791122555732727
vn -0.3185855746269226 0.920525312423706 -0.22613367438316345
vn -0.28326305747032166 0.9578347206115723 0.048110976815223694
vn -0.22821570932865143 0.9206342697143555 0.3167809247970581
vn 0.04505442827939987 0.9561497569084167 0.2893919348716736
vn 0.30299219489097595 0.9526191353797913 0.026692217215895653
vn 0.3340286612510681 0.9122370481491089 0.2371675968170166
vn 0.014818406663835049 0.9998665452003479 0.006881975568830967
vn -0.145919531583786 0.9783325791358948 -0.14687682688236237
vn -0.1957385092973709 0.9792240262031555 0.05297844111919403
vn 0.04907945170998573 0.9773755073547363 -0.20573848485946655
vn 0.20138567686080933 0.9566681981086731 -0.21030865609645844
vn -0.19116517901420593 0.9610300064086914 0.19969287514686584
vn 0.2032661736011505 0.9791221022605896 -0.0016544709214940667
vn 0.004369361791759729 0.9799521565437317 0.19918513298034668
vn 0.19820308685302734 0.9610869288444519 0.19242513179779053
vn 0.30650269985198975 0.9514024257659912 0.029824916273355484
vn -0.39395391941070557 0.9181824326515198 -0.04172968491911888
vn -0.3157399594783783 0.8873902559280396 0.33592674136161804
vn -0.05339812487363815 0.8872483968734741 -0.45819091796875
vn 0.3544306457042694 0.6623825430870056 -0.6600214242935181
vn -0.0322171188890934 0.7824125289916992 0.6219266057014465
vn 0.412281334400177 0.6951069235801697 0.5889401435852051
vn 0.6589109897613525 0.6831026673316956 -0.31497153639793396
vn 0.7696380019187927 0.5793071985244751 0.2684409022331238
vn 0.06780495494604111 0.9976927638053894 0.003409577999264002
vn 0.1421632319688797 0.7811558246612549 0.6079351902008057
vn 0.5157084465026855 0.7799625992774963 0.354546457529068
vn -0.36839917302131653 0.8648527264595032 0.34104520082473755
vn -0.6263576745986938 0.7795305848121643 -0.0028578038327395916
vn -0.4030173122882843 0.85163414478302 -0.3351064920425415
vn 0.027747005224227905 0.8021295070648193 -0.5965051651000977
vn 0.42064985632896423 0.7874100804328918 -0.4505985975265503
vn 0.6617615818977356 0.745402455329895 -0.08029188960790634
vn -0.8138536810874939 0.5603943467140198 -0.15362410247325897
vn -0.005429115146398544 -0.09301885217428207 -0.995649516582489
vn 0.24791619181632996 -0.23345418274402618 -0.9402322769165039
vn -0.9011623859405518 0.42977818846702576 0.05654294788837433
vn -0.04774657264351845 0.12598305940628052 0.9908826947212219
vn 0.13612328469753265 0.1319856345653534 0.9818605780601501
vn 0.8513708114624023 -0.43186071515083313 0.2977651059627533
vn 0.8688029050827026 -0.2417614907026291 0.4321260452270508
vn -0.005429115146398544 -0.09301885217428207 -0.995649516582489
vn 0.24791619181632996 -0.23345418274402618 -0.9402322769165039
vn -0.7702266573905945 0.6210309863090515 0.1451597511768341
vn 0.19047220051288605 -0.12911522388458252 -0.9731647372245789
vn -0.014909232035279274 0.06769715249538422 0.9975945353507996
vn 0.7301754355430603 -0.37629562616348267 0.5703029632568359
vn 0.19047220051288605 -0.12911522388458252 -0.9731647372245789
vn -0.34702932834625244 -0.011460837908089161 -0.9377842545509338
vn 0.22827747464179993 -0.3020058274269104 -0.925571084022522
vn 0.19824478030204773 0.03126269951462746 0.9796538352966309
vn -0.9038434624671936 0.412248432636261 0.11453504860401154
vn -0.34702932834625244 -0.011460837908089161 -0.9377842545509338
vn -0.39780521392822266 -0.9169342517852783 -0.03134648874402046
vt 0.44135618209838867 0.5059727430343628
vt 0.42034271359443665 0.5059727430343628
vt 0.393184095621109 0.5059727430343628
vt 0.44135618209838867 0.9954404830932617
vt 0.4434514343738556 0.9462510347366333
vt 0.4150230884552002 0.9424740672111511
vt 0.4104299247264862 0.9972409605979919
vt 0.9970132112503052 0.7504202127456665
vt 0.9970132112503052 0.9979449510574341
vt 0.6859687566757202 0.9979450702667236
vt 0.6859687566757202 0.750420331954956
vt 0.9970130920410156 0.5028954744338989
vt 0.6859686374664307 0.5028955936431885
vt 0.9970132112503052 0.7504202127456665
vt 0.9970132112503052 0.9979449510574341
vt 0.6859687566757202 0.9979450702667236
vt 0.6859687566757202 0.750420331954956
vt 0.9970130920410156 0.5028954744338989
vt 0.6859686374664307 0.5028955936431885
vt 0.18387986719608307 0.7504202127456665
vt 0.18387986719608307 0.9979449510574341
vt 0.004085351247340441 0.9979450702667236
vt 0.004085351247340441 0.750420331954956
vt 0.1838798075914383 0.5028954744338989
vt 0.004085320048034191 0.5028955936431885
vt 0.18387986719608307 0.7504202127456665
vt 0.18387986719608307 0.9979449510574341
vt 0.004085351247340441 0.9979450702667236
vt 0.004085351247340441 0.750420331954956
vt 0.1838798075914383 0.5028954744338989
vt 0.004085320048034191 0.5028955936431885
vt 0.18387986719608307 0.7504202127456665
vt 0.18387986719608307 0.9979449510574341
vt 0.004085351247340441 0.9979450702667236
vt 0.004085351247340441 0.750420331954956
vt 0.1838798075914383 0.5028954744338989
vt 0.004085320048034191 0.5028955936431885
vt 0.7496296763420105 0.2494450807571411
vt 0.7496296763420105 0.4961315393447876
vt 0.5029431581497192 0.4961315393447876
vt 0.9963161945343018 0.4961315393447876
vt 0.9963161945343018 0.2494450807571411
vt 0.5029431581497192 0.2494450807571411
vt 0.9963161945343018 0.002758622169494629
vt 0.5029431581497192 0.002758622169494629
vt 0.7496296763420105 0.002758622169494629
vt 0.7496296763420105 0.2494450807571411
vt 0.7496296763420105 0.4961315393447876
vt 0.5029431581497192 0.4961315393447876
vt 0.9963161945343018 0.4961315393447876
vt 0.9963161945343018 0.2494450807571411
vt 0.5029431581497192 0.2494450807571411
vt 0.9963161945343018 0.002758622169494629
vt 0.5029431581497192 0.002758622169494629
vt 0.7496296763420105 0.002758622169494629
vt 0.7496296763420105 0.2494450807571411
vt 0.7496296763420105 0.4961315393447876
vt 0.5029431581497192 0.4961315393447876
vt 0.5029431581497192 0.2494450807571411
vt 0.5029431581497192 0.002758622169494629
vt 0.7496296763420105 0.002758622169494629
vt 0.9963161945343018 0.002758622169494629
vt 0.9963161945343018 0.4961315393447876
vt 0.9963161945343018 0.2494450807571411
vt 0.7496296763420105 0.2494450807571411
vt 0.7496296763420105 0.4961315393447876
vt 0.5029431581497192 0.4961315393447876
vt 0.9963161945343018 0.4961315393447876
vt 0.9963161945343018 0.2494450807571411
vt 0.5029431581497192 0.2494450807571411
vt 0.9963161945343018 0.002758622169494629
vt 0.5029431581497192 0.002758622169494629
vt 0.7496296763420105 0.002758622169494629
vt 0.7663291692733765 0.18755745887756348
vt 0.7496296763420105 0.4961315393447876
vt 0.5029431581497192 0.4961315393447876
vt 0.9963161945343018 0.4961315393447876
vt 0.9963161945343018 0.2494450807571411
vt 0.5029431581497192 0.2494450807571411
vt 0.5029431581497192 0.002758622169494629
vt 0.9963161945343018 0.002758622169494629
vt 0.7496296763420105 0.002758622169494629
vt 0.7496296763420105 0.2494450807571411
vt 0.7496296763420105 0.4961315393447876
vt 0.5029431581497192 0.4961315393447876
vt 0.9963161945343018 0.4961315393447876
vt 0.9963161945343018 0.2494450807571411
vt 0.9963161945343018 0.002758622169494629
vt 0.7496296763420105 0.002758622169494629
vt 0.5029431581497192 0.002758622169494629
vt 0.5029431581497192 0.2494450807571411
vt 0.4196653366088867 0.7317354083061218
vt 0.393184095621109 0.7443692088127136
vt 0.393184095621109 0.5059727430343628
vt 0.42034271359443665 0.5059727430343628
vt 0.44135618209838867 0.7263800501823425
vt 0.44135618209838867 0.5059727430343628
vt 0.46304696798324585 0.7317354083061218
vt 0.4623696208000183 0.5059727430343628
vt 0.48952820897102356 0.7443692088127136
vt 0.48952820897102356 0.5059727430343628
vt 0.42144766449928284 0.8684250712394714
vt 0.393184095621109 0.8675726056098938
vt 0.44135618209838867 0.8726839423179626
vt 0.4612646698951721 0.8684250712394714
vt 0.48952820897102356 0.8675726056098938
vt 0.48952820897102356 0.9895941019058228
vt 0.4794263541698456 0.9899362325668335
vt 0.44135618209838867 0.9954404830932617
vt 0.4104299247264862 0.9972409605979919
vt 0.401515930891037 0.988463819026947
vt 0.4623696208000183 0.5059727430343628
g Geoset0
s 1
usemtl mat_borean_redplant_dried_01
f 1/1/1 2/2/2 3/3/3
f 4/4/4 5/5/5 6/6/6
f 6/6/6 7/7/7 4/4/4
f 8/8/8 9/9/9 10/10/10
f 10/10/10 11/11/11 8/8/8
f 12/12/12 8/8/8 11/11/11
f 11/11/11 13/13/13 12/12/12
f 14/14/14 15/15/15 16/16/16
f 16/16/16 17/17/17 14/14/14
f 18/18/18 14/14/14 17/17/17
f 17/17/17 19/19/19 18/18/18
f 20/20/20 21/21/21 22/22/22
f 22/22/22 23/23/23 20/20/20
f 24/24/24 20/20/20 23/23/23
f 23/23/23 25/25/25 24/24/24
f 26/26/26 27/27/27 28/28/28
f 28/28/28 29/29/29 26/26/26
f 30/30/30 26/26/26 29/29/29
f 29/29/29 31/31/31 30/30/30
f 32/32/32 33/33/33 34/34/34
f 34/34/34 35/35/35 32/32/32
f 36/36/36 32/32/32 35/35/35
f 35/35/35 37/37/37 36/36/36
f 38/38/38 39/39/39 40/40/40
f 41/41/41 39/39/39 38/38/38
f 38/38/38 42/42/42 41/41/41
f 40/40/40 43/43/43 38/38/38
f 44/44/44 42/42/42 38/38/38
f 38/38/38 43/43/43 45/45/45
f 45/45/45 46/46/46 38/38/38
f 38/38/38 46/46/46 44/44/44
f 47/47/47 48/48/48 49/49/49
f 50/50/50 48/48/48 47/47/47
f 47/47/47 51/51/51 50/50/50
f 49/49/49 52/52/52 47/47/47
f 53/53/53 51/51/51 47/47/47
f 47/47/47 52/52/52 54/54/54
f 54/54/54 55/55/55 47/47/47
f 47/47/47 55/55/55 53/53/53
f 56/56/56 57/57/57 58/58/58
f 58/58/58 59/59/59 56/56/56
f 56/56/56 59/59/59 60/60/60
f 56/56/56 61/61/61 62/62/62
f 60/60/60 61/61/61 56/56/56
f 63/63/63 57/57/57 56/56/56
f 56/56/56 64/64/64 63/63/63
f 62/62/62 64/64/64 56/56/56
f 65/65/65 66/66/66 67/67/67
f 68/68/68 66/66/66 65/65/65
f 65/65/65 69/69/69 68/68/68
f 67/67/67 70/70/70 65/65/65
f 71/71/71 69/69/69 65/65/65
f 65/65/65 70/70/70 72/72/72
f 72/72/72 73/73/73 65/65/65
f 65/65/65 73/73/73 71/71/71
f 74/74/74 75/75/75 76/76/76
f 77/77/77 75/75/75 74/74/74
f 74/74/74 78/78/78 77/77/77
f 76/76/76 79/79/79 74/74/74
f 74/74/74 79/79/79 80/80/80
f 81/81/81 78/78/78 74/74/74
f 74/74/74 82/82/82 81/81/81
f 80/80/80 82/82/82 74/74/74
f 83/83/83 84/84/84 85/85/85
f 86/86/86 84/84/84 83/83/83
f 83/83/83 87/87/87 86/86/86
f 88/88/88 87/87/87 83/83/83
f 83/83/83 89/89/89 88/88/88
f 90/90/90 89/89/89 83/83/83
f 83/83/83 91/91/91 90/90/90
f 85/85/85 91/91/91 83/83/83
f 92/92/92 93/93/93 94/94/94
f 94/94/94 95/95/95 92/92/92
f 96/96/96 92/92/92 95/95/95
f 95/95/95 97/97/97 96/96/96
f 98/98/98 96/96/96 97/97/97
f 97/97/97 99/99/99 98/98/98
f 100/100/100 98/98/98 99/99/99
f 99/99/99 101/101/101 100/100/100
f 102/102/102 103/103/103 93/93/93
f 93/93/93 92/92/92 102/102/102
f 104/104/104 102/102/102 92/92/92
f 92/92/92 96/96/96 104/104/104
f 105/105/105 104/104/104 96/96/96
f 96/96/96 98/98/98 105/105/105
f 106/106/106 105/105/105 98/98/98
f 98/98/98 100/100/100 106/106/106
f 105/105/105 106/106/106 107/107/107
f 107/107/107 108/108/108 105/105/105
f 104/104/104 105/105/105 108/108/108
f 108/108/108 109/109/109 104/104/104
f 102/102/102 104/104/104 109/109/109
f 109/109/109 110/110/110 102/102/102
f 103/103/103 102/102/102 110/110/110
f 110/110/110 111/111/111 103/103/103
f 3/3/3 112/112/112 1/1/1
