# Exported using wow.export v0.1.64
o snobold_candle01
mtllib snobold_candle01.mtl
v 0.04051791504025459 0.30745330452919006 -0.032095491886138916
v 0.056605346500873566 0.3073694109916687 -0.0009803182911127806
v 0.06189566105604172 0.29840198159217834 -0.02285045012831688
v 0.0020489629823714495 0.3050389587879181 -0.005346597172319889
v -0.00020271715766284615 0.33727940917015076 -0.001359643880277872
v -0.0017208600183948874 0.30502134561538696 0.0011829053983092308
v 0.03237280622124672 0.04235466942191124 0.05065205320715904
v 0.04134451597929001 -0.0010621241526678205 0.0702400729060173
v 0.08234027028083801 -0.0008707050583325326 -0.0007664120639674366
v 0.06259512901306152 0.042495787143707275 -0.0016943670343607664
v 0.056605346500873566 0.3073694109916687 -0.0009803182911127806
v 0.002150489715859294 0.3064591884613037 -0.0009827605681493878
v 0.029377920553088188 0.3086465001106262 0.04618259146809578
v 0.056605346500873566 0.3073694109916687 -0.0009803182911127806
v 0.04051791504025459 0.30745330452919006 -0.032095491886138916
v 0.029377911239862442 0.3148804306983948 -0.04811951890587807
v -0.025076933205127716 0.3171548545360565 0.0462055429816246
v -0.05230436846613884 0.3248429000377655 -0.0009331958717666566
v -0.025076940655708313 0.31969153881073 -0.04810654744505882
v -0.05829416587948799 0.04249580577015877 -0.0016943506198003888
v -0.08164278417825699 -0.0008706990629434586 -0.000766388897318393
v -0.08917348831892014 -0.0010496150935068727 0.047618329524993896
v -0.07083592563867569 0.04373669996857643 0.0368436761200428
v -0.040647003799676895 -0.0010621210094541311 0.0702400878071785
v -0.05141925811767578 0.11317523568868637 0.014109817333519459
v -0.05602984502911568 0.11382012814283371 0.0285144355148077
v -0.04673133045434952 0.12668433785438538 0.023158172145485878
v -0.04130319133400917 0.11265221983194351 0.03157008811831474
v -0.028071830049157143 0.04235468804836273 0.05065205320715904
v 0.04503186047077179 0.0425865575671196 -0.035365764051675797
v 0.029377911239862442 0.3148804306983948 -0.04811951890587807
v 0.04051791504025459 0.30745330452919006 -0.032095491886138916
v 0.03237280622124672 0.042636919766664505 -0.054040759801864624
v 0.05856381729245186 -0.0007479534833692014 -0.04630018770694733
v 0.041344501078128815 -0.000679283170029521 -0.07177288085222244
v 0.03237280622124672 0.042636919766664505 -0.054040759801864624
v -0.025076940655708313 0.31969153881073 -0.04810654744505882
v -0.05230436846613884 0.3248429000377655 -0.0009331958717666566
v -0.02807183377444744 0.042636919766664505 -0.054040759801864624
v -0.04064702242612839 -0.0006792800850234926 -0.07177288085222244
v -0.02807183377444744 0.042636919766664505 -0.054040759801864624
v -0.08164278417825699 -0.0008706990629434586 -0.000766388897318393
v -0.05829416587948799 0.04249580577015877 -0.0016943506198003888
v -0.05141925811767578 0.11317523568868637 0.014109817333519459
v -0.04673133045434952 0.12668433785438538 0.023158172145485878
v -0.025076933205127716 0.3171548545360565 0.0462055429816246
v -0.04130319133400917 0.11265221983194351 0.03157008811831474
v -0.028071830049157143 0.04235468804836273 0.05065205320715904
v 0.029377920553088188 0.3086465001106262 0.04618259146809578
v -0.040647003799676895 -0.0010621210094541311 0.0702400878071785
v 0.03237280622124672 0.04235466942191124 0.05065205320715904
v 0.08321264386177063 0.058957889676094055 -0.035266999155282974
v 0.10288075357675552 -0.0007516705663874745 -0.04492197185754776
v 0.05856381729245186 -0.0007479534833692014 -0.04630018770694733
v 0.04503186047077179 0.0425865575671196 -0.035365764051675797
v 0.07741931080818176 0.1557297706604004 -0.03200196102261543
v 0.08234027028083801 -0.0008707050583325326 -0.0007664120639674366
v 0.06259512901306152 0.042495787143707275 -0.0016943670343607664
v 0.06406936794519424 0.18108661472797394 -0.024430006742477417
v 0.056605346500873566 0.3073694109916687 -0.0009803182911127806
v 0.06259512901306152 0.042495787143707275 -0.0016943670343607664
v 0.06189566105604172 0.29840198159217834 -0.02285045012831688
v 0.06259512901306152 0.042495787143707275 -0.0016943670343607664
v 0.04503186047077179 0.0425865575671196 -0.035365764051675797
v 0.04107581079006195 0.25224798917770386 -0.07031109929084778
v -0.025127137079834938 0.5165479779243469 0.07026110589504242
v -0.024590767920017242 0.25224798917770386 0.07051122188568115
v 0.040539439767599106 0.5165480375289917 -0.07056120038032532
vn 0.5594660639762878 0.7363250255584717 -0.3805564343929291
vn 0.693483829498291 0.6904986500740051 0.20564964413642883
vn 0.8397232294082642 0.346680223941803 -0.41794461011886597
vn 0.866025447845459 -0.0013479116605594754 0.49999815225601196
vn 0.866025447845459 -0.0013479116605594754 0.49999815225601196
vn 0.866025447845459 -0.0013479116605594754 0.49999815225601196
vn 0.49064165353775024 0.25478222966194153 0.8332807421684265
vn 0.4388396739959717 0.4433101713657379 0.7815982699394226
vn 0.8184149265289307 0.3173156678676605 0.47906967997550964
vn 0.8178815245628357 0.21651703119277954 0.5330949425697327
vn 0.693483829498291 0.6904986500740051 0.20564964413642883
vn 0.15501081943511963 0.9872506260871887 0.036163706332445145
vn 0.4273277521133423 0.6113724112510681 0.6660441160202026
vn 0.693483829498291 0.6904986500740051 0.20564964413642883
vn 0.5594660639762878 0.7363250255584717 -0.3805564343929291
vn 0.4305553436279297 0.6903833150863647 -0.5813716053962708
vn -0.3037697970867157 0.6719515323638916 0.6754295229911804
vn -0.6762036681175232 0.7366799116134644 0.007162618916481733
vn -0.32791534066200256 0.6830944418907166 -0.6525745391845703
vn -0.8960054516792297 0.2521824240684509 -0.3654836118221283
vn -0.8479791283607483 0.4505814015865326 -0.27911970019340515
vn -0.7885644435882568 0.4682489335536957 0.3986339271068573
vn -0.8412896394729614 0.3707428574562073 0.3934227526187897
vn -0.1861177533864975 0.41673406958580017 0.8897712826728821
vn -0.9871571063995361 0.14783522486686707 0.06054365634918213
vn -0.783054769039154 0.43261846899986267 0.4468405544757843
vn -0.8528760075569153 0.16444213688373566 0.49554142355918884
vn -0.5485152006149292 0.16929468512535095 0.8188225626945496
vn -0.15976831316947937 0.2731640636920929 0.9486071467399597
vn 0.4534781575202942 0.1972394436597824 -0.8691686391830444
vn 0.4305553436279297 0.6903833150863647 -0.5813716053962708
vn 0.5594660639762878 0.7363250255584717 -0.3805564343929291
vn 0.4564761519432068 0.239299476146698 -0.8569511771202087
vn 0.39319759607315063 0.3075099289417267 -0.8665063977241516
vn 0.4253339469432831 0.41693034768104553 -0.8032808303833008
vn 0.4564761519432068 0.239299476146698 -0.8569511771202087
vn -0.32791534066200256 0.6830944418907166 -0.6525745391845703
vn -0.6762036681175232 0.7366799116134644 0.007162618916481733
vn -0.47577375173568726 0.2586854100227356 -0.8406671285629272
vn -0.45646148920059204 0.44735798239707947 -0.7690992951393127
vn -0.47577375173568726 0.2586854100227356 -0.8406671285629272
vn -0.8479791283607483 0.4505814015865326 -0.27911970019340515
vn -0.8960054516792297 0.2521824240684509 -0.3654836118221283
vn -0.9871571063995361 0.14783522486686707 0.06054365634918213
vn -0.8528760075569153 0.16444213688373566 0.49554142355918884
vn -0.3037697970867157 0.6719515323638916 0.6754295229911804
vn -0.5485152006149292 0.16929468512535095 0.8188225626945496
vn -0.15976831316947937 0.2731640636920929 0.9486071467399597
vn 0.4273277521133423 0.6113724112510681 0.6660441160202026
vn -0.1861177533864975 0.41673406958580017 0.8897712826728821
vn 0.49064165353775024 0.25478222966194153 0.8332807421684265
vn 0.8358699083328247 0.25577038526535034 -0.48569852113723755
vn 0.8071808218955994 0.3435083031654358 -0.48006370663642883
vn 0.39319759607315063 0.3075099289417267 -0.8665063977241516
vn 0.4534781575202942 0.1972394436597824 -0.8691686391830444
vn 0.7897366285324097 0.4201588034629822 -0.44697049260139465
vn 0.8184149265289307 0.3173156678676605 0.47906967997550964
vn 0.8178815245628357 0.21651703119277954 0.5330949425697327
vn 0.8841152191162109 0.054895900189876556 -0.4640330374240875
vn 0.693483829498291 0.6904986500740051 0.20564964413642883
vn 0.8178815245628357 0.21651703119277954 0.5330949425697327
vn 0.8397232294082642 0.346680223941803 -0.41794461011886597
vn 0.8178815245628357 0.21651703119277954 0.5330949425697327
vn 0.4534781575202942 0.1972394436597824 -0.8691686391830444
vn 0.9277453422546387 0.0022919904440641403 0.3732067942619324
vn 0.9277453422546387 0.002291990676894784 0.3732067942619324
vn 0.9277453422546387 0.0022919904440641403 0.3732067942619324
vn 0.9277453422546387 0.0022919909097254276 0.3732067942619324
vt 0.5302507877349854 0.9937223792076111
vt 0.37702691555023193 0.9938439726829529
vt 0.4588811695575714 0.9726760983467102
vt 0.3060951232910156 0.19919466972351074
vt 0.18258050084114075 0.32017385959625244
vt 0.061324574053287506 0.19919484853744507
vt 0.1261812448501587 0.45604801177978516
vt 0.12645132839679718 0.37899988889694214
vt 0.2547297477722168 0.37899988889694214
vt 0.2550245523452759 0.45605313777923584
vt 0.2511526346206665 0.9986248016357422
vt 0.18799066543579102 0.1893886923789978
vt 0.09612848609685898 0.37281548976898193
vt 0.2798527777194977 0.37281548976898193
vt 0.3368402421474457 0.25792860984802246
vt 0.3717149794101715 0.1893886923789978
vt 0.004266310017555952 0.18938875198364258
vt 0.09612853080034256 0.37311291694641113
vt 0.27985286712646484 0.37311291694641113
vt 0.5119357705116272 0.46110957860946655
vt 0.5253736972808838 0.37823808193206787
vt 0.4465692639350891 0.3806115388870239
vt 0.44960907101631165 0.45402979850769043
vt 0.38028091192245483 0.37823808193206787
vt 0.5274540781974792 0.5978201031684875
vt 0.4598662853240967 0.6014896035194397
vt 0.45948368310928345 0.7040624618530273
vt 0.3829437494277954 0.5968468189239502
vt 0.3954419493675232 0.4599543809890747
vt 0.3410409390926361 0.46158015727996826
vt 0.37367838621139526 0.9986249208450317
vt 0.34065520763397217 0.9986248016357422
vt 0.37437891960144043 0.45605307817459106
vt 0.3742927312850952 0.3819987177848816
vt 0.3733821213245392 0.37899988889694214
vt 0.3410540223121643 0.46134936809539795
vt 0.2511526644229889 0.9986249208450317
vt 0.12456154823303223 0.9986249208450317
vt 0.25526440143585205 0.4560590982437134
vt 0.2547297775745392 0.37899988889694214
vt 0.2557274103164673 0.4543874263763428
vt 0.12645137310028076 0.37899988889694214
vt 0.1259266436100006 0.45532089471817017
vt 0.07612328231334686 0.5685519576072693
vt 0.05783109366893768 0.6356650590896606
vt 0.005718926899135113 0.9986249208450317
vt 0.04442951828241348 0.5608090758323669
vt 0.00529443146660924 0.45564156770706177
vt 0.12456151843070984 0.9986248016357422
vt 0.005133432801812887 0.3791559934616089
vt 0.12477034330368042 0.45606017112731934
vt 0.45555758476257324 0.48167097568511963
vt 0.4543962776660919 0.3839007616043091
vt 0.5304166674613953 0.3839007616043091
vt 0.5307829976081848 0.4728162884712219
vt 0.4567478597164154 0.6338599920272827
vt 0.3774663805961609 0.3839007616043091
vt 0.3774324059486389 0.47812849283218384
vt 0.456525593996048 0.7160251140594482
vt 0.3772163987159729 0.9934040307998657
vt 0.3773709535598755 0.47809135913848877
vt 0.4561358392238617 0.973006546497345
vt 0.3774104416370392 0.47815901041030884
vt 0.5308464765548706 0.47318243980407715
vt 0 0
vt 1 1
vt 1 0
vt 0 1
g Geoset0
s 1
usemtl mat_snoboldcandles_01
f 1/1/1 2/2/2 3/3/3
f 4/4/4 5/5/5 6/6/6
f 7/7/7 8/8/8 9/9/9
f 9/9/9 10/10/10 7/7/7
f 10/10/10 11/11/11 7/7/7
f 12/12/12 13/13/13 14/14/14
f 12/12/12 14/14/14 15/15/15
f 12/12/12 15/15/15 16/16/16
f 12/12/12 17/17/17 13/13/13
f 12/12/12 18/18/18 17/17/17
f 12/12/12 19/19/19 18/18/18
f 12/12/12 16/16/16 19/19/19
f 20/20/20 21/21/21 22/22/22
f 22/22/22 23/23/23 20/20/20
f 23/23/23 22/22/22 24/24/24
f 25/25/25 26/26/26 27/27/27
f 26/26/26 28/28/28 27/27/27
f 28/28/28 26/26/26 29/29/29
f 24/24/24 29/29/29 23/23/23
f 26/26/26 23/23/23 29/29/29
f 26/26/26 20/20/20 23/23/23
f 20/20/20 26/26/26 25/25/25
f 30/30/30 31/31/31 32/32/32
f 33/33/33 31/31/31 30/30/30
f 33/33/33 30/30/30 34/34/34
f 34/34/34 35/35/35 33/33/33
f 36/36/36 37/37/37 31/31/31
f 38/38/38 37/37/37 39/39/39
f 39/39/39 37/37/37 36/36/36
f 40/40/40 39/39/39 36/36/36
f 36/36/36 35/35/35 40/40/40
f 41/41/41 40/40/40 42/42/42
f 42/42/42 43/43/43 41/41/41
f 43/43/43 38/38/38 41/41/41
f 44/44/44 38/38/38 43/43/43
f 44/44/44 45/45/45 38/38/38
f 45/45/45 46/46/46 38/38/38
f 45/45/45 47/47/47 46/46/46
f 48/48/48 49/49/49 46/46/46
f 48/48/48 46/46/46 47/47/47
f 48/48/48 50/50/50 8/8/8
f 8/8/8 51/51/51 48/48/48
f 51/51/51 49/49/49 48/48/48
f 11/11/11 49/49/49 51/51/51
f 52/52/52 53/53/53 54/54/54
f 54/54/54 55/55/55 52/52/52
f 56/56/56 52/52/52 55/55/55
f 57/57/57 53/53/53 52/52/52
f 52/52/52 58/58/58 57/57/57
f 52/52/52 56/56/56 58/58/58
f 59/59/59 60/60/60 61/61/61
f 60/60/60 59/59/59 62/62/62
f 56/56/56 59/59/59 63/63/63
f 64/64/64 59/59/59 56/56/56
f 1/1/1 59/59/59 64/64/64
f 62/62/62 59/59/59 1/1/1
g Geoset1
s 1
usemtl mat_glowwhite32
f 65/65/65 66/66/66 67/67/67
f 66/66/66 65/65/65 68/68/68
