# Exported using wow.export v0.1.64
o snobold_candle03
mtllib snobold_candle03.mtl
v 0.14021597802639008 0.15302391350269318 -0.02608513832092285
v 0.13559074699878693 0.15893815457820892 0.07347588986158371
v 0.15154074132442474 0.14653627574443817 0.02717028744518757
v 0.0019397572614252567 0.12205888330936432 -0.006470777560025454
v 0.0019397576106712222 0.16445292532444 -0.000009751982361194678
v 0.0019397572614252567 0.12205888330936432 0.004346534609794617
v -0.11442408710718155 0.05408418923616409 -0.0463920421898365
v -0.12916477024555206 -0.0049617295153439045 -0.08251290023326874
v -0.17600463330745697 -0.0051102787256240845 -0.009095913730561733
v -0.15546195209026337 0.0609622523188591 -0.009977387264370918
v -0.12766024470329285 0.08844393491744995 -0.01089543104171753
v -0.11428144574165344 0.05705777928233147 0.02941657416522503
v -0.11428144574165344 0.05705777928233147 0.02941657416522503
v -0.12916474044322968 -0.004961736500263214 0.07532651722431183
v 0.0014043385162949562 0.09960408508777618 -0.00399663345888257
v 0.13559074699878693 0.15893815457820892 0.07347588986158371
v 0.14021597802639008 0.15302391350269318 -0.02608513832092285
v 0.0014043599367141724 0.167653426527977 0.15403413772583008
v -0.13278204202651978 0.18645194172859192 0.0734759271144867
v -0.13278205692768097 0.18027405440807343 -0.08146915584802628
v 0.001404343405738473 0.1670491248369217 -0.15894171595573425
v 0.13559070229530334 0.15402904152870178 -0.08146917074918747
v 0.14422112703323364 -0.0049617416225373745 0.07532648742198944
v 0.13030587136745453 0.053093958646059036 0.06646977365016937
v 0.00894846674054861 0.053093958646059036 0.13653552532196045
v 0.007528187707066536 -0.0049617416225373745 0.15424619615077972
v -0.11240895837545395 0.05309396982192993 0.06646980345249176
v -0.12916474044322968 -0.004961736500263214 0.07532651722431183
v -0.11428144574165344 0.05705777928233147 0.02941657416522503
v 0.13559074699878693 0.15893815457820892 0.07347588986158371
v 0.0014043599367141724 0.167653426527977 0.15403413772583008
v -0.13278204202651978 0.18645194172859192 0.0734759271144867
v -0.11428144574165344 0.05705777928233147 0.02941657416522503
v -0.12766024470329285 0.08844393491744995 -0.01089543104171753
v 0.1341194063425064 0.05309396609663963 -0.02171872928738594
v 0.14841000735759735 -0.004961737431585789 -0.023471511900424957
v 0.14422109723091125 -0.004961736500263214 -0.08251290023326874
v 0.13030584156513214 0.05309396982192993 -0.07366166263818741
v 0.007528161164373159 -0.004961729981005192 -0.16143262386322021
v 0.00894844438880682 0.05309396982192993 -0.1437273621559143
v -0.12916477024555206 -0.0049617295153439045 -0.08251290023326874
v -0.11240892857313156 0.05309396982192993 -0.07366165518760681
v -0.11442408710718155 0.05408418923616409 -0.0463920421898365
v -0.11442408710718155 0.05408418923616409 -0.0463920421898365
v -0.13278205692768097 0.18027405440807343 -0.08146915584802628
v 0.001404343405738473 0.1670491248369217 -0.15894171595573425
v 0.13559070229530334 0.15402904152870178 -0.08146917074918747
v 0.14021597802639008 0.15302391350269318 -0.02608513832092285
v 0.13030587136745453 0.053093958646059036 0.06646977365016937
v 0.18031923472881317 0.04992728307843208 0.02723930962383747
v 0.1728701889514923 0.07398899644613266 0.02777586318552494
v 0.14422112703323364 -0.0049617416225373745 0.07532648742198944
v 0.20115156471729279 -0.00495228311046958 0.028406938537955284
v 0.1551472693681717 0.08936923742294312 0.027542272582650185
v 0.1341194063425064 0.05309396609663963 -0.02171872928738594
v 0.14841000735759735 -0.004961737431585789 -0.023471511900424957
v 0.13559074699878693 0.15893815457820892 0.07347588986158371
v 0.13030587136745453 0.053093958646059036 0.06646977365016937
v 0.1341194063425064 0.05309396609663963 -0.02171872928738594
v 0.15154074132442474 0.14653627574443817 0.02717028744518757
v 0.04107581079006195 0.04306242987513542 -0.07031109929084778
v -0.025127137079834938 0.30736246705055237 0.07026110589504242
v -0.024590767920017242 0.04306241497397423 0.07051122188568115
v 0.040539439767599106 0.30736246705055237 -0.07056120038032532
vn 0.5635082721710205 0.8120754957199097 -0.15163050591945648
vn 0.5238127112388611 0.7208653092384338 0.4538429379463196
vn 0.9056892395019531 0.4227333962917328 0.03199209272861481
vn 1 -8.712519594666901e-9 0
vn 1 -8.712519594666901e-9 0
vn 1 -8.712519594666901e-9 0
vn -0.9158608913421631 0.168060764670372 -0.36462917923927307
vn -0.6866073608398438 0.3747153878211975 -0.6230238676071167
vn -0.8901059627532959 0.4553195834159851 -0.01988661289215088
vn -0.8746234774589539 0.4840885400772095 -0.02630642056465149
vn -0.992649495601654 0.1195782721042633 -0.018655972555279732
vn -0.9280036687850952 0.17294573783874512 0.3299983739852905
vn -0.9280036687850952 0.17294573783874512 0.3299983739852905
vn -0.7068274617195129 0.3797430098056793 0.5968166589736938
vn 0.08476238697767258 0.9963653087615967 -0.008454438298940659
vn 0.5238127112388611 0.7208653092384338 0.4538429379463196
vn 0.5635082721710205 0.8120754957199097 -0.15163050591945648
vn 0.02560938335955143 0.6609266996383667 0.7500133514404297
vn -0.5820387005805969 0.7240825891494751 0.37004774808883667
vn -0.5908100605010986 0.698127269744873 -0.40442779660224915
vn 0.017994321882724762 0.6770445108413696 -0.7357220649719238
vn 0.6300151348114014 0.6739581227302551 -0.38582563400268555
vn 0.5536909699440002 0.2508724331855774 0.7940335869789124
vn 0.5961284041404724 0.13736358284950256 0.7910512685775757
vn 0.017305132001638412 0.08075865358114243 0.9965834617614746
vn -0.006271583028137684 0.2919229567050934 0.9564212560653687
vn -0.8448895215988159 0.08887229114770889 0.5275067687034607
vn -0.7068274617195129 0.3797430098056793 0.5968166589736938
vn -0.9280036687850952 0.17294573783874512 0.3299983739852905
vn 0.5238127112388611 0.7208653092384338 0.4538429379463196
vn 0.02560938335955143 0.6609266996383667 0.7500133514404297
vn -0.5820387005805969 0.7240825891494751 0.37004774808883667
vn -0.9280036687850952 0.17294573783874512 0.3299983739852905
vn -0.992649495601654 0.1195782721042633 -0.018655972555279732
vn 0.9310610890388489 0.13457825779914856 -0.3391370475292206
vn 0.8796117901802063 0.2425108104944229 -0.40923288464546204
vn 0.8151281476020813 0.2726472020149231 -0.5111063122749329
vn 0.8452144861221313 0.10258472710847855 -0.524489164352417
vn -0.0062722680158913136 0.29184073209762573 -0.9564463496208191
vn 0.013488591648638248 0.09020598977804184 -0.9958317875862122
vn -0.6866073608398438 0.3747153878211975 -0.6230238676071167
vn -0.8383284211158752 0.08292277157306671 -0.5388221740722656
vn -0.9158608913421631 0.168060764670372 -0.36462917923927307
vn -0.9158608913421631 0.168060764670372 -0.36462917923927307
vn -0.5908100605010986 0.698127269744873 -0.40442779660224915
vn 0.017994321882724762 0.6770445108413696 -0.7357220649719238
vn 0.6300151348114014 0.6739581227302551 -0.38582563400268555
vn 0.5635082721710205 0.8120754957199097 -0.15163050591945648
vn 0.5961284041404724 0.13736358284950256 0.7910512685775757
vn 0.9449511766433716 0.3228641450405121 0.053160589188337326
vn 0.8411538004875183 0.5353080034255981 0.07684798538684845
vn 0.5536909699440002 0.2508724331855774 0.7940335869789124
vn 0.9337589740753174 0.35536202788352966 0.04256723076105118
vn 0.9623690843582153 0.2565165162086487 0.08969390392303467
vn 0.9310610890388489 0.13457825779914856 -0.3391370475292206
vn 0.8796117901802063 0.2425108104944229 -0.40923288464546204
vn 0.5238127112388611 0.7208653092384338 0.4538429379463196
vn 0.5961284041404724 0.13736358284950256 0.7910512685775757
vn 0.9310610890388489 0.13457825779914856 -0.3391370475292206
vn 0.9056892395019531 0.4227333962917328 0.03199209272861481
vn 0.9277453422546387 0.0022919904440641403 0.3732067942619324
vn 0.9277453422546387 0.002291990676894784 0.3732067942619324
vn 0.9277453422546387 0.0022919904440641403 0.3732067942619324
vn 0.9277453422546387 0.0022919909097254276 0.3732067942619324
vt 0.5302507877349854 0.9937223792076111
vt 0.37702691555023193 0.9938439726829529
vt 0.4588811695575714 0.9726760983467102
vt 0.3060951232910156 0.19919466972351074
vt 0.18258050084114075 0.32017385959625244
vt 0.061324574053287506 0.19919484853744507
vt 0.5285847783088684 0.5713059902191162
vt 0.5253736972808838 0.37823808193206787
vt 0.4465692639350891 0.3806115388870239
vt 0.46192848682403564 0.6207658648490906
vt 0.45948368310928345 0.7040624618530273
vt 0.38000380992889404 0.5685701370239258
vt 0.3806939721107483 0.5691132545471191
vt 0.38028091192245483 0.37823808193206787
vt 0.18799066543579102 0.1893886923789978
vt 0.2798527777194977 0.37281548976898193
vt 0.3368402421474457 0.25792860984802246
vt 0.09612848609685898 0.37281548976898193
vt 0.004266310017555952 0.18938875198364258
vt 0.09612853080034256 0.37311291694641113
vt 0.27985286712646484 0.37311291694641113
vt 0.3717149794101715 0.1893886923789978
vt 0.3613852858543396 0.00043123960494995117
vt 0.36132198572158813 0.03899812698364258
vt 0.17925500869750977 0.0389896035194397
vt 0.17935827374458313 0.00043123960494995117
vt 0.004894372541457415 0.04403805732727051
vt 0.0037785093300044537 0.00043123960494995117
vt 0.06482803076505661 0.04164022207260132
vt 0.3605271279811859 0.18558096885681152
vt 0.17904514074325562 0.18558096885681152
vt 0.0035619549453258514 0.1855810284614563
vt 0.06342209130525589 0.04154956340789795
vt 0.08251930773258209 0.07534074783325195
vt 0.482251912355423 0.03899264335632324
vt 0.4822981655597687 0.00043123960494995117
vt 0.5275673866271973 0.00043123960494995117
vt 0.5282413959503174 0.03900623321533203
vt 0.3613852858543396 0.00043123960494995117
vt 0.36114224791526794 0.038990557193756104
vt 0.17935828864574432 0.00043123960494995117
vt 0.1793418824672699 0.038272857666015625
vt 0.10362150520086288 0.04143822193145752
vt 0.10503287613391876 0.04068398475646973
vt 0.1790451556444168 0.1855810284614563
vt 0.3605271577835083 0.1855810284614563
vt 0.5276455879211426 0.1855810284614563
vt 0.4821847677230835 0.18558096885681152
vt 0.37636616826057434 0.5176273584365845
vt 0.45913997292518616 0.49424612522125244
vt 0.4567478597164154 0.6338599920272827
vt 0.3774663805961609 0.3839007616043091
vt 0.4543962776660919 0.3839007616043091
vt 0.45215708017349243 0.7171172499656677
vt 0.5202338099479675 0.5173885226249695
vt 0.5304166674613953 0.3839007616043091
vt 0.3772163987159729 0.9934040307998657
vt 0.37590768933296204 0.514991819858551
vt 0.5206703543663025 0.5181872844696045
vt 0.4561358392238617 0.973006546497345
vt 0 0
vt 1 1
vt 1 0
vt 0 1
g Geoset0
s 1
usemtl mat_snoboldcandles_01
f 1/1/1 2/2/2 3/3/3
f 4/4/4 5/5/5 6/6/6
f 7/7/7 8/8/8 9/9/9
f 9/9/9 10/10/10 7/7/7
f 7/7/7 10/10/10 11/11/11
f 10/10/10 12/12/12 11/11/11
f 13/13/13 10/10/10 9/9/9
f 9/9/9 14/14/14 13/13/13
f 15/15/15 16/16/16 17/17/17
f 15/15/15 18/18/18 16/16/16
f 15/15/15 19/19/19 18/18/18
f 15/15/15 20/20/20 19/19/19
f 15/15/15 21/21/21 20/20/20
f 15/15/15 22/22/22 21/21/21
f 15/15/15 17/17/17 22/22/22
f 23/23/23 24/24/24 25/25/25
f 25/25/25 26/26/26 23/23/23
f 26/26/26 25/25/25 27/27/27
f 27/27/27 28/28/28 26/26/26
f 29/29/29 28/28/28 27/27/27
f 25/25/25 24/24/24 30/30/30
f 30/30/30 31/31/31 25/25/25
f 27/27/27 25/25/25 31/31/31
f 31/31/31 32/32/32 27/27/27
f 27/27/27 32/32/32 33/33/33
f 34/34/34 33/33/33 32/32/32
f 35/35/35 36/36/36 37/37/37
f 37/37/37 38/38/38 35/35/35
f 38/38/38 37/37/37 39/39/39
f 39/39/39 40/40/40 38/38/38
f 40/40/40 39/39/39 41/41/41
f 41/41/41 42/42/42 40/40/40
f 41/41/41 43/43/43 42/42/42
f 44/44/44 34/34/34 45/45/45
f 34/34/34 32/32/32 45/45/45
f 44/44/44 45/45/45 42/42/42
f 40/40/40 42/42/42 45/45/45
f 45/45/45 46/46/46 40/40/40
f 38/38/38 40/40/40 46/46/46
f 46/46/46 47/47/47 38/38/38
f 35/35/35 38/38/38 47/47/47
f 47/47/47 48/48/48 35/35/35
f 49/49/49 50/50/50 51/51/51
f 50/50/50 49/49/49 52/52/52
f 52/52/52 53/53/53 50/50/50
f 51/51/51 54/54/54 49/49/49
f 55/55/55 54/54/54 51/51/51
f 51/51/51 50/50/50 55/55/55
f 56/56/56 55/55/55 50/50/50
f 50/50/50 53/53/53 56/56/56
f 54/54/54 57/57/57 58/58/58
f 1/1/1 54/54/54 59/59/59
f 60/60/60 54/54/54 1/1/1
f 57/57/57 54/54/54 60/60/60
g Geoset1
s 1
usemtl mat_glowwhite32
f 61/61/61 62/62/62 63/63/63
f 62/62/62 61/61/61 64/64/64
