# Exported using wow.export v0.1.64
o ballistaframe01
mtllib ballistaframe01.mtl
v -5.442854404449463 0.6715121269226074 1.3419294357299805
v -5.2060418128967285 -0.06870415061712265 1.60385000705719
v -5.239993572235107 0.3564881682395935 2.000547409057617
v -5.390042304992676 0.7352840304374695 -1.1208072900772095
v -5.187485694885254 0.4235750734806061 -0.46270838379859924
v -5.223953723907471 1.0407229661941528 -0.4460548460483551
v -5.153271675109863 -0.004582033026963472 -0.8632442951202393
v -5.141387462615967 0.007023501675575972 -1.4115800857543945
v -5.15877103805542 0.4516197443008423 -1.787535548210144
v -5.1952385902404785 1.0687673091888428 -1.7708816528320312
v -5.229428291320801 1.4969499111175537 -1.3713738918304443
v -5.2413129806518555 1.4853441715240479 -0.8230380415916443
v 5.043766975402832 0.846890389919281 -1.2449023723602295
v 4.7510857582092285 1.3822299242019653 -0.5084502696990967
v 4.732027053833008 0.6322367787361145 -0.358307421207428
v 4.718502521514893 0.004172904416918755 -0.72303307056427
v 4.718436241149902 -0.13376130163669586 -1.3875515460968018
v 4.764514923095703 1.8148165941238403 -1.085510492324829
v 4.764448642730713 1.6768823862075806 -1.7500289678573608
v 4.750924587249756 1.0490232706069946 -2.1137473583221436
v 4.731865406036377 0.2990303039550781 -1.963604211807251
v 5.02395486831665 1.1597716808319092 1.4451103210449219
v 4.712214946746826 0.6457933783531189 0.7027912139892578
v 4.731273651123047 1.3948311805725098 0.5479526519775391
v 4.698691368103027 0.21146197617053986 1.290291428565979
v 4.698624610900879 0.344140887260437 1.9558792114257812
v 4.74470329284668 2.01979923248291 0.9164783954620361
v 4.744636535644531 2.1524782180786133 1.5820664167404175
v 4.712053298950195 0.9676086902618408 2.3170337677001953
v 4.731112003326416 1.7166463136672974 2.1621949672698975
v -5.248147010803223 1.0123870372772217 0.6822617650032043
v -5.211760520935059 0.3951420187950134 0.6694782972335815
v -5.194415092468262 -0.05277107656002045 1.055616855621338
v -5.282256603240967 1.437389850616455 1.0864778757095337
v -5.293882369995117 1.4214574098587036 1.6347105503082275
v -5.276379108428955 0.9737331867218018 2.0133302211761475
v 4.698691368103027 0.21146197617053986 1.290291428565979
v -5.194415092468262 -0.05277107656002045 1.055616855621338
v -5.211760520935059 0.3951420187950134 0.6694782972335815
v 4.7510857582092285 1.3822299242019653 -0.5084502696990967
v 4.731273651123047 1.3948311805725098 0.5479526519775391
v 4.712214946746826 0.6457933783531189 0.7027912139892578
v 4.732027053833008 0.6322367787361145 -0.358307421207428
v -5.211760520935059 0.3951420187950134 0.6694782972335815
v 4.732027053833008 0.6322367787361145 -0.358307421207428
v 4.712214946746826 0.6457933783531189 0.7027912139892578
v -5.187485694885254 0.4235750734806061 -0.46270838379859924
v -5.248147010803223 1.0123870372772217 0.6822617650032043
v -5.187485694885254 0.4235750734806061 -0.46270838379859924
v -5.211760520935059 0.3951420187950134 0.6694782972335815
v -5.223953723907471 1.0407229661941528 -0.4460548460483551
v -5.248147010803223 1.0123870372772217 0.6822617650032043
v 4.731273651123047 1.3948311805725098 0.5479526519775391
v 4.7510857582092285 1.3822299242019653 -0.5084502696990967
v -5.223953723907471 1.0407229661941528 -0.4460548460483551
v 4.718502521514893 0.004172904416918755 -0.72303307056427
v -5.187485694885254 0.4235750734806061 -0.46270838379859924
v -5.153271675109863 -0.004582033026963472 -0.8632442951202393
v 4.732027053833008 0.6322367787361145 -0.358307421207428
v 4.731865406036377 0.2990303039550781 -1.963604211807251
v -5.141387462615967 0.007023501675575972 -1.4115800857543945
v -5.15877103805542 0.4516197443008423 -1.787535548210144
v 4.718436241149902 -0.13376130163669586 -1.3875515460968018
v -5.153271675109863 -0.004582033026963472 -0.8632442951202393
v 4.718502521514893 0.004172904416918755 -0.72303307056427
v 4.764448642730713 1.6768823862075806 -1.7500289678573608
v -5.1952385902404785 1.0687673091888428 -1.7708816528320312
v -5.229428291320801 1.4969499111175537 -1.3713738918304443
v 4.750924587249756 1.0490232706069946 -2.1137473583221436
v -5.15877103805542 0.4516197443008423 -1.787535548210144
v 4.731865406036377 0.2990303039550781 -1.963604211807251
v 4.7510857582092285 1.3822299242019653 -0.5084502696990967
v -5.2413129806518555 1.4853441715240479 -0.8230380415916443
v -5.223953723907471 1.0407229661941528 -0.4460548460483551
v 4.764514923095703 1.8148165941238403 -1.085510492324829
v -5.229428291320801 1.4969499111175537 -1.3713738918304443
v 4.764448642730713 1.6768823862075806 -1.7500289678573608
v 4.698624610900879 0.344140887260437 1.9558792114257812
v -5.194415092468262 -0.05277107656002045 1.055616855621338
v 4.698691368103027 0.21146197617053986 1.290291428565979
v -5.2060418128967285 -0.06870415061712265 1.60385000705719
v 4.712053298950195 0.9676086902618408 2.3170337677001953
v -5.239993572235107 0.3564881682395935 2.000547409057617
v 4.731112003326416 1.7166463136672974 2.1621949672698975
v -5.239993572235107 0.3564881682395935 2.000547409057617
v 4.712053298950195 0.9676086902618408 2.3170337677001953
v -5.276379108428955 0.9737331867218018 2.0133302211761475
v 4.744636535644531 2.1524782180786133 1.5820664167404175
v -5.293882369995117 1.4214574098587036 1.6347105503082275
v 4.74470329284668 2.01979923248291 0.9164783954620361
v -5.293882369995117 1.4214574098587036 1.6347105503082275
v 4.744636535644531 2.1524782180786133 1.5820664167404175
v -5.282256603240967 1.437389850616455 1.0864778757095337
v 4.731273651123047 1.3948311805725098 0.5479526519775391
v -5.248147010803223 1.0123870372772217 0.6822617650032043
v 4.712214946746826 0.6457933783531189 0.7027912139892578
vn -0.9980906248092651 -0.05798099562525749 -0.021290112286806107
vn -0.46386998891830444 -0.7492758631706238 0.4726629853248596
vn -0.4906291961669922 -0.21093414723873138 0.8454524278640747
vn -0.9980825185775757 -0.05763613060116768 -0.022567953914403915
vn -0.7882718443870544 -0.5145578980445862 0.3374280333518982
vn -0.8231294751167297 0.48840391635894775 0.2896886467933655
vn -0.4769231677055359 -0.8353376984596252 0.2734140157699585
vn -0.47711530327796936 -0.7710119485855103 -0.4217837452888489
vn -0.48386049270629883 -0.27886006236076355 -0.8295276165008545
vn -0.5012083649635315 0.3328443765640259 -0.7987520098686218
vn -0.5196377038955688 0.798737645149231 -0.3033064901828766
vn -0.5171090364456177 0.7474710941314697 0.41699546575546265
vn 0.9997355341911316 -0.02282567135989666 0.00279672397300601
vn 0.6850670576095581 0.6684816479682922 0.2895089387893677
vn 0.6714325547218323 -0.6753718852996826 0.3050428330898285
vn 0.4629979133605957 -0.6925853490829468 0.5531351566314697
vn 0.4591583013534546 -0.8771212697029114 -0.1408257633447647
vn 0.4623045325279236 0.8743383884429932 0.14767152070999146
vn 0.4560348391532898 0.6874934434890747 -0.5651415586471558
vn 0.447315514087677 0.09776785224676132 -0.8890164494514465
vn 0.449282169342041 -0.5164696574211121 -0.7289750576019287
vn 0.9996089339256287 -0.027045411989092827 0.007111337035894394
vn 0.8563594222068787 -0.4776657819747925 -0.1961732804775238
vn 0.6836628317832947 0.5654255151748657 -0.46140995621681213
vn 0.48001760244369507 -0.8084501028060913 -0.34057527780532837
vn 0.47491616010665894 -0.8008109927177429 0.3649060130119324
vn 0.4425249695777893 0.814964771270752 -0.37417125701904297
vn 0.4382000267505646 0.8203702569007874 0.36738720536231995
vn 0.45269066095352173 -0.2966666519641876 0.8408686518669128
vn 0.4388710558414459 0.3391386568546295 0.8320920467376709
vn -0.8018067479133606 0.559802234172821 -0.20911087095737457
vn -0.5385240912437439 -0.7732431292533875 -0.3347938060760498
vn -0.4464261531829834 -0.8653208613395691 -0.2278672605752945
vn -0.5278093814849854 0.6944153308868408 -0.48908546566963196
vn -0.541998028755188 0.8136417865753174 0.21029780805110931
vn -0.5204067230224609 0.4031970202922821 0.752734363079071
vn 0.48001760244369507 -0.8084501028060913 -0.34057527780532837
vn -0.4464261531829834 -0.8653208613395691 -0.2278672605752945
vn -0.5385240912437439 -0.7732431292533875 -0.3347938060760498
vn 0.6850670576095581 0.6684816479682922 0.2895089387893677
vn 0.6836628317832947 0.5654255151748657 -0.46140995621681213
vn 0.8563594222068787 -0.4776657819747925 -0.1961732804775238
vn 0.6714325547218323 -0.6753718852996826 0.3050428330898285
vn -0.5385240912437439 -0.7732431292533875 -0.3347938060760498
vn 0.6714325547218323 -0.6753718852996826 0.3050428330898285
vn 0.8563594222068787 -0.4776657819747925 -0.1961732804775238
vn -0.7882718443870544 -0.5145578980445862 0.3374280333518982
vn -0.8018067479133606 0.559802234172821 -0.20911087095737457
vn -0.7882718443870544 -0.5145578980445862 0.3374280333518982
vn -0.5385240912437439 -0.7732431292533875 -0.3347938060760498
vn -0.8231294751167297 0.48840391635894775 0.2896886467933655
vn -0.8018067479133606 0.559802234172821 -0.20911087095737457
vn 0.6836628317832947 0.5654255151748657 -0.46140995621681213
vn 0.6850670576095581 0.6684816479682922 0.2895089387893677
vn -0.8231294751167297 0.48840391635894775 0.2896886467933655
vn 0.4629979133605957 -0.6925853490829468 0.5531351566314697
vn -0.7882718443870544 -0.5145578980445862 0.3374280333518982
vn -0.4769231677055359 -0.8353376984596252 0.2734140157699585
vn 0.6714325547218323 -0.6753718852996826 0.3050428330898285
vn 0.449282169342041 -0.5164696574211121 -0.7289750576019287
vn -0.47711530327796936 -0.7710119485855103 -0.4217837452888489
vn -0.48386049270629883 -0.27886006236076355 -0.8295276165008545
vn 0.4591583013534546 -0.8771212697029114 -0.1408257633447647
vn -0.4769231677055359 -0.8353376984596252 0.2734140157699585
vn 0.4629979133605957 -0.6925853490829468 0.5531351566314697
vn 0.4560348391532898 0.6874934434890747 -0.5651415586471558
vn -0.5012083649635315 0.3328443765640259 -0.7987520098686218
vn -0.5196377038955688 0.798737645149231 -0.3033064901828766
vn 0.447315514087677 0.09776785224676132 -0.8890164494514465
vn -0.48386049270629883 -0.27886006236076355 -0.8295276165008545
vn 0.449282169342041 -0.5164696574211121 -0.7289750576019287
vn 0.6850670576095581 0.6684816479682922 0.2895089387893677
vn -0.5171090364456177 0.7474710941314697 0.41699546575546265
vn -0.8231294751167297 0.48840391635894775 0.2896886467933655
vn 0.4623045325279236 0.8743383884429932 0.14767152070999146
vn -0.5196377038955688 0.798737645149231 -0.3033064901828766
vn 0.4560348391532898 0.6874934434890747 -0.5651415586471558
vn 0.47491616010665894 -0.8008109927177429 0.3649060130119324
vn -0.4464261531829834 -0.8653208613395691 -0.2278672605752945
vn 0.48001760244369507 -0.8084501028060913 -0.34057527780532837
vn -0.46386998891830444 -0.7492758631706238 0.4726629853248596
vn 0.45269066095352173 -0.2966666519641876 0.8408686518669128
vn -0.4906291961669922 -0.21093414723873138 0.8454524278640747
vn 0.4388710558414459 0.3391386568546295 0.8320920467376709
vn -0.4906291961669922 -0.21093414723873138 0.8454524278640747
vn 0.45269066095352173 -0.2966666519641876 0.8408686518669128
vn -0.5204067230224609 0.4031970202922821 0.752734363079071
vn 0.4382000267505646 0.8203702569007874 0.36738720536231995
vn -0.541998028755188 0.8136417865753174 0.21029780805110931
vn 0.4425249695777893 0.814964771270752 -0.37417125701904297
vn -0.541998028755188 0.8136417865753174 0.21029780805110931
vn 0.4382000267505646 0.8203702569007874 0.36738720536231995
vn -0.5278093814849854 0.6944153308868408 -0.48908546566963196
vn 0.6836628317832947 0.5654255151748657 -0.46140995621681213
vn -0.8018067479133606 0.559802234172821 -0.20911087095737457
vn 0.8563594222068787 -0.4776657819747925 -0.1961732804775238
vt 0.04780138283967972 0.4491666555404663
vt 0.6037337779998779 0.10623812675476074
vt 0.9425202012062073 0.5049512982368469
vt 0.03596005588769913 0.4491666555404663
vt 0.6053540706634521 0.10463112592697144
vt 0.9412676095962524 0.5045058131217957
vt 0.0407801978290081 0.016468286514282227
vt 0.6037337779998779 0.10623812675476074
vt 0.9425202012062073 0.5049512982368469
vt 0.5755569338798523 0.9356929063796997
vt 0.03676396608352661 0.9953625798225403
vt 0.5713724493980408 0.9345875978469849
vt 0.0337660014629364 0.45130062103271484
vt 0.5743120908737183 0.9354543089866638
vt 0.9360423684120178 0.5059625506401062
vt 0.6061524152755737 0.10392719507217407
vt 0.03504788875579834 0.0171392560005188
vt 0.0345306321978569 0.9952802062034607
vt 0.5743120908737183 0.9354543089866638
vt 0.9388868808746338 0.5080775618553162
vt 0.6027389168739319 0.10476738214492798
vt 0.0460149347782135 0.448911190032959
vt 0.6070863604545593 0.10325747728347778
vt 0.9383231401443481 0.5086732506752014
vt 0.046373143792152405 0.008925259113311768
vt 0.606911838054657 0.1050460934638977
vt 0.5743120908737183 0.9354543089866638
vt 0.048517972230911255 1.0012255907058716
vt 0.9411559700965881 0.5048264861106873
vt 0.5743120908737183 0.9354543089866638
vt 0.9412676095962524 0.5045058131217957
vt 0.6053540706634521 0.10463112592697144
vt 0.05262152478098869 0.006806433200836182
vt 0.5713724493980408 0.9345875978469849
vt 0.0486052930355072 1.000193476676941
vt 0.5755569338798523 0.9356929063796997
vt 0.4852411150932312 -0.999340295791626
vt 0.4896391034126282 2.164971113204956
vt -0.03971204161643982 2.163879632949829
vt 0.9589452743530273 0.1621573567390442
vt -0.9020122289657593 0.16331154108047485
vt -0.9056313037872314 0.01217883825302124
vt 0.9668984413146973 0.018823206424713135
vt 3.4755969047546387 -0.9868630170822144
vt 2.504073143005371 2.1668031215667725
vt 3.482055187225342 2.1659951210021973
vt 2.502995729446411 -0.9852334260940552
vt 0.965924084186554 0.1612665057182312
vt -0.9003283977508545 0.01529461145401001
vt 0.9627737998962402 0.01451188325881958
vt -0.9056375622749329 0.16263365745544434
vt 2.4957826137542725 -0.989441990852356
vt 2.495250701904297 2.165459394454956
vt 3.4872019290924072 2.1654603481292725
vt 3.4907827377319336 -0.9894412755966187
vt -0.48240819573402405 -0.9997849464416504
vt -0.04187631607055664 2.1652379035949707
vt -0.48766112327575684 2.164147138595581
vt -0.010157287120819092 -0.9996004104614258
vt -0.4873935878276825 -0.999340295791626
vt -0.044758886098861694 2.164442539215088
vt -0.48765310645103455 2.164442539215088
vt -0.014758884906768799 -0.999340295791626
vt 0.4852411150932312 2.164442539215088
vt 0.4852411150932312 -0.999340295791626
vt -0.4873935878276825 -0.999340295791626
vt -0.044758886098861694 2.164442539215088
vt -0.48765310645103455 2.164442539215088
vt -0.014758884906768799 -0.999340295791626
vt 0.4852411150932312 2.164442539215088
vt 0.4852411150932312 -0.999340295791626
vt -0.4873935878276825 -0.999340295791626
vt -0.044758886098861694 2.164442539215088
vt -0.48765310645103455 2.164442539215088
vt -0.014758884906768799 -0.999340295791626
vt 0.4852411150932312 2.164442539215088
vt 0.4852411150932312 -0.999340295791626
vt -0.014758884906768799 -0.999340295791626
vt -0.48765310645103455 2.164442539215088
vt -0.4873935878276825 -0.999340295791626
vt -0.044758886098861694 2.164442539215088
vt 0.4852411150932312 -0.999340295791626
vt 0.4852411150932312 2.164442539215088
vt -0.014758884906768799 -0.999340295791626
vt -0.48765310645103455 2.164442539215088
vt -0.4873935878276825 -0.999340295791626
vt -0.044758886098861694 2.164442539215088
vt 0.4852411150932312 -0.999340295791626
vt 0.4852411150932312 2.164442539215088
vt -0.014758884906768799 -0.999340295791626
vt -0.48765310645103455 2.164442539215088
vt -0.4873935878276825 -0.999340295791626
vt -0.044758886098861694 2.164442539215088
vt 0.4852411150932312 -0.999340295791626
vt 0.4852411150932312 2.164442539215088
vt -0.014758884906768799 -0.999340295791626
g Geoset0
s 1
usemtl mat_wood02
f 1/1/1 2/2/2 3/3/3
f 4/4/4 5/5/5 6/6/6
f 4/4/4 7/7/7 5/5/5
f 4/4/4 8/8/8 7/7/7
f 4/4/4 9/9/9 8/8/8
f 4/4/4 10/10/10 9/9/9
f 4/4/4 11/11/11 10/10/10
f 4/4/4 12/12/12 11/11/11
f 4/4/4 6/6/6 12/12/12
f 13/13/13 14/14/14 15/15/15
f 13/13/13 15/15/15 16/16/16
f 13/13/13 16/16/16 17/17/17
f 13/13/13 18/18/18 14/14/14
f 13/13/13 19/19/19 18/18/18
f 13/13/13 20/20/20 19/19/19
f 13/13/13 21/21/21 20/20/20
f 13/13/13 17/17/17 21/21/21
f 22/22/22 23/23/23 24/24/24
f 22/22/22 25/25/25 23/23/23
f 22/22/22 26/26/26 25/25/25
f 22/22/22 24/24/24 27/27/27
f 22/22/22 27/27/27 28/28/28
f 22/22/22 29/29/29 26/26/26
f 22/22/22 30/30/30 29/29/29
f 22/22/22 28/28/28 30/30/30
f 1/1/1 31/31/31 32/32/32
f 1/1/1 32/32/32 33/33/33
f 1/1/1 33/33/33 2/2/2
f 1/1/1 34/34/34 31/31/31
f 1/1/1 35/35/35 34/34/34
f 1/1/1 36/36/36 35/35/35
f 1/1/1 3/3/3 36/36/36
g Geoset1
s 1
usemtl mat_wood01
f 37/37/37 38/38/38 39/39/39
f 40/40/40 41/41/41 42/42/42
f 43/43/43 40/40/40 42/42/42
f 44/44/44 45/45/45 46/46/46
f 47/47/47 45/45/45 44/44/44
f 48/48/48 49/49/49 50/50/50
f 51/51/51 49/49/49 48/48/48
f 52/52/52 53/53/53 54/54/54
f 54/54/54 55/55/55 52/52/52
f 56/56/56 57/57/57 58/58/58
f 56/56/56 59/59/59 57/57/57
f 60/60/60 61/61/61 62/62/62
f 60/60/60 63/63/63 61/61/61
f 63/63/63 64/64/64 61/61/61
f 63/63/63 65/65/65 64/64/64
f 66/66/66 67/67/67 68/68/68
f 66/66/66 69/69/69 67/67/67
f 69/69/69 70/70/70 67/67/67
f 69/69/69 71/71/71 70/70/70
f 72/72/72 73/73/73 74/74/74
f 72/72/72 75/75/75 73/73/73
f 75/75/75 76/76/76 73/73/73
f 75/75/75 77/77/77 76/76/76
f 78/78/78 79/79/79 80/80/80
f 78/78/78 81/81/81 79/79/79
f 82/82/82 81/81/81 78/78/78
f 82/82/82 83/83/83 81/81/81
f 84/84/84 85/85/85 86/86/86
f 84/84/84 87/87/87 85/85/85
f 88/88/88 87/87/87 84/84/84
f 88/88/88 89/89/89 87/87/87
f 90/90/90 91/91/91 92/92/92
f 90/90/90 93/93/93 91/91/91
f 94/94/94 93/93/93 90/90/90
f 94/94/94 95/95/95 93/93/93
f 37/37/37 39/39/39 96/96/96
