# Exported using wow.export v0.1.64
o trolldungeonpottery03
mtllib trolldungeonpottery03.mtl
v 0.004458990413695574 0.43618497252464294 -0.04907619208097458
v -0.08660084754228592 0.5866861343383789 0.016811251640319824
v 0.09551886469125748 0.5866861343383789 0.016811251640319824
v 0.06535930931568146 0.42562511563301086 0.16780880093574524
v -0.05784355476498604 0.37846943736076355 0.07144290953874588
v 0.07756859809160233 0.37846946716308594 0.07144293934106827
v -0.045634251087903976 0.42562511563301086 0.16780883073806763
v 0.04978827014565468 0.34921517968177795 0.30530786514282227
v -0.030063219368457794 0.34921517968177795 0.30530786514282227
v 0.06535930931568146 0.12691742181777954 0.28955331444740295
v -0.045634254813194275 0.12691742181777954 0.28955331444740295
v 0.07756860554218292 0.10649970918893814 0.20464827120304108
v -0.057843539863824844 0.10649974644184113 0.20464825630187988
v 0.009862508624792099 0.00021669600391760468 0.1550876647233963
v 0.07756860554218292 0.10649970918893814 0.20464827120304108
v 0.06535930931568146 0.12691742181777954 0.28955331444740295
v 0.009862508624792099 0.11132187396287918 0.343874990940094
v 0.04978827014565468 0.34921517968177795 0.30530786514282227
v 0.009862514212727547 0.3788856565952301 0.3642308712005615
v 0.06535930931568146 0.42562511563301086 0.16780880093574524
v 0.009862512350082397 0.4924737215042114 0.179105743765831
v 0.07756859809160233 0.37846946716308594 0.07144293934106827
v 0.009862505830824375 0.48002856969833374 0.018576541915535927
v -0.045634251087903976 0.42562511563301086 0.16780883073806763
v -0.05784355476498604 0.37846943736076355 0.07144290953874588
v -0.030063219368457794 0.34921517968177795 0.30530786514282227
v -0.045634254813194275 0.12691742181777954 0.28955331444740295
v -0.057843539863824844 0.10649974644184113 0.20464825630187988
v -0.06299273669719696 0.4926462173461914 0.017459750175476074
v 0.09551886469125748 0.5866861343383789 0.016811251640319824
v -0.08660084754228592 0.5866861343383789 0.016811251640319824
v 0.07191075384616852 0.4926462173461914 0.017459750175476074
v -0.09601710736751556 0.3537572920322418 0.0899490937590599
v 0.10493513941764832 0.3537572920322418 0.08994904160499573
v -0.1343083530664444 0.2645529806613922 0.17779433727264404
v 0.14322637021541595 0.2645529806613922 0.17779432237148285
v -0.1588146686553955 0.12566407024860382 0.2166990041732788
v 0.16773270070552826 0.12566407024860382 0.21669898927211761
v -0.11133792996406555 -0.01322484016418457 0.1513528674840927
v 0.12025594711303711 -0.01322484016418457 0.1513528674840927
v -0.22007130086421967 0.2645529806613922 -0.08615688979625702
v -0.1343083530664444 0.2645529806613922 0.17779433727264404
v -0.09601710736751556 0.3537572920322418 0.0899490937590599
v -0.14420682191848755 0.3537572920322418 -0.06675699353218079
v -0.06299273669719696 0.4926462173461914 0.017459750175476074
v -0.10468021035194397 0.4926462173461914 -0.06992229074239731
v -0.1428789496421814 0.598914384841919 -0.10936693847179413
v 0.004458990413695574 0.43618497252464294 -0.04907619208097458
v 0.004458999261260033 0.6315351128578186 -0.24223841726779938
v 0.15179693698883057 0.598914384841919 -0.10936696827411652
v 0.11359820514917374 0.4926462173461914 -0.0699223130941391
v 0.09551886469125748 0.5866861343383789 0.016811251640319824
v 0.07191075384616852 0.4926462173461914 0.017459750175476074
v 0.10493513941764832 0.3537572920322418 0.08994904160499573
v 0.14844335615634918 0.3537572920322418 -0.06675701588392258
v 0.14322637021541595 0.2645529806613922 0.17779432237148285
v 0.22898928821086884 0.2645529806613922 -0.08615692704916
v 0.16773270070552826 0.12566407024860382 0.21669898927211761
v 0.256910502910614 0.12566407024860382 -0.0938660278916359
v 0.12025594711303711 -0.01322484016418457 0.1513528674840927
v 0.1918223649263382 -0.01322484016418457 -0.0689060240983963
v -0.18290437757968903 -0.01322484016418457 -0.06890598684549332
v 0.004459001123905182 -0.01322484016418457 -0.20503346621990204
v 0.004458999261260033 0.4926462173461914 -0.18975287675857544
v 0.004458999261260033 0.3537572920322418 -0.190470889210701
v 0.0044590020552277565 0.2645529806613922 -0.2492877095937729
v 0.004459001123905182 0.12566407024860382 -0.28580570220947266
v -0.11133792996406555 -0.01322484016418457 0.1513528674840927
v -0.1588146686553955 0.12566407024860382 0.2166990041732788
v -0.25033536553382874 0.12566407024860382 -0.09386599063873291
vn 9.165432857116684e-8 0.992470383644104 -0.12248461693525314
vn -0.34042268991470337 0.7893709540367126 0.5108873248100281
vn 0.3617633879184723 0.7881606221199036 0.4979257881641388
vn 0.9853354692459106 -0.16131775081157684 0.05559331923723221
vn -0.8842190504074097 -0.36545494198799133 0.29085978865623474
vn 0.8861743211746216 -0.30350324511528015 0.3501155376434326
vn -0.9674274921417236 -0.18870142102241516 0.1687479019165039
vn 0.9806191325187683 -0.1372479349374771 -0.13981828093528748
vn -0.9820191860198975 -0.06459834426641464 -0.17738471925258636
vn 0.9960910677909851 0.06327890604734421 0.06163112446665764
vn -0.993276059627533 -0.1053040474653244 -0.04810149222612381
vn 0.9879714846611023 0.09988165646791458 0.11805060505867004
vn -0.9632794260978699 0.02775193378329277 0.26706284284591675
vn -0.009581979364156723 -0.8776602745056152 0.4791874587535858
vn 0.9879714846611023 0.09988165646791458 0.11805060505867004
vn 0.9960910677909851 0.06327890604734421 0.06163112446665764
vn -0.0031549660488963127 -0.4928652346134186 0.8700999617576599
vn 0.9806191325187683 -0.1372479349374771 -0.13981828093528748
vn 0.000918014207854867 0.4566158354282379 0.8896635174751282
vn 0.9853354692459106 -0.16131775081157684 0.05559331923723221
vn 0.011574933305382729 0.9768661856651306 0.21353794634342194
vn 0.8861743211746216 -0.30350324511528015 0.3501155376434326
vn 0.01905575394630432 0.9917824864387512 -0.1265084594488144
vn -0.9674274921417236 -0.18870142102241516 0.1687479019165039
vn -0.8842190504074097 -0.36545494198799133 0.29085978865623474
vn -0.9820191860198975 -0.06459834426641464 -0.17738471925258636
vn -0.993276059627533 -0.1053040474653244 -0.04810149222612381
vn -0.9632794260978699 0.02775193378329277 0.26706284284591675
vn -0.5269994735717773 0.19622080028057098 0.826903223991394
vn 0.3617633879184723 0.7881606221199036 0.4979257881641388
vn -0.34042268991470337 0.7893709540367126 0.5108873248100281
vn 0.5058392882347107 0.230617493391037 0.8312293291091919
vn -0.4813617765903473 0.63939368724823 0.599555253982544
vn 0.49700793623924255 0.6249465942382812 0.602017343044281
vn -0.5109964609146118 0.49427086114883423 0.7032630443572998
vn 0.5050670504570007 0.501081645488739 0.7027264833450317
vn -0.5898909568786621 -0.08729232847690582 0.8027507066726685
vn 0.5899255275726318 -0.09522456675767899 0.8018230199813843
vn -0.36367014050483704 -0.7856173515319824 0.5005490779876709
vn 0.3741524815559387 -0.7829163670539856 0.4970431625843048
vn -0.8639920353889465 0.42033907771110535 -0.2771872580051422
vn -0.5109964609146118 0.49427086114883423 0.7032630443572998
vn -0.4813617765903473 0.63939368724823 0.599555253982544
vn -0.8213796019554138 0.5142062306404114 -0.24683497846126556
vn -0.5269994735717773 0.19622080028057098 0.826903223991394
vn -0.9876403212547302 -0.0896555706858635 -0.12856325507164001
vn -0.7442175149917603 0.6545464992523193 -0.13307587802410126
vn 9.165432857116684e-8 0.992470383644104 -0.12248461693525314
vn 0.07182085514068604 0.7184776067733765 -0.6918321251869202
vn 0.7099036574363708 0.6593745946884155 -0.24751144647598267
vn 0.9885871410369873 -0.01539471186697483 -0.14986152946949005
vn 0.3617633879184723 0.7881606221199036 0.4979257881641388
vn 0.5058392882347107 0.230617493391037 0.8312293291091919
vn 0.49700793623924255 0.6249465942382812 0.602017343044281
vn 0.8400745391845703 0.49180111289024353 -0.22892458736896515
vn 0.5050670504570007 0.501081645488739 0.7027264833450317
vn 0.8633348941802979 0.41983476281166077 -0.27998510003089905
vn 0.5899255275726318 -0.09522456675767899 0.8018230199813843
vn 0.9422855377197266 -0.11740492284297943 -0.31355077028274536
vn 0.3741524815559387 -0.7829163670539856 0.4970431625843048
vn 0.6156636476516724 -0.7658814787864685 -0.1854286789894104
vn -0.6049129962921143 -0.7709762454032898 -0.19918817281723022
vn -0.005228380672633648 -0.7842724323272705 -0.6203945875167847
vn 0.015941908583045006 -0.20286206901073456 -0.9790775179862976
vn -0.02991522289812565 0.3680412173271179 -0.9293280839920044
vn -0.0009064992773346603 0.3906001150608063 -0.9205600023269653
vn 0.0024962176103144884 -0.11819611489772797 -0.9929871559143066
vn -0.36367014050483704 -0.7856173515319824 0.5005490779876709
vn -0.5898909568786621 -0.08729232847690582 0.8027507066726685
vn -0.9444128274917603 -0.11268968880176544 -0.30884528160095215
vt 0.24089345335960388 0.8041757345199585
vt 0.4970996081829071 0.9932984113693237
vt 0.006613612174987793 0.9951270222663879
vt 0.21591529250144958 0.7358200550079346
vt -0.20877674221992493 0.9940365552902222
vt -0.2093123346567154 0.7358200550079346
vt 0.21801172196865082 0.9940366148948669
vt 0.6717996001243591 0.7358200550079346
vt 0.6725765466690063 0.9940356016159058
vt 1.0617823600769043 0.7358200550079346
vt 1.0634053945541382 0.994037389755249
vt 1.4266570806503296 0.7358200550079346
vt 1.427472472190857 0.9940372109413147
vt 1.370007872581482 0.4666053056716919
vt 1.3706669807434082 0.6813335418701172
vt 0.9896581172943115 0.6813329458236694
vt 0.9905840158462524 0.4666050672531128
vt 0.6084455847740173 0.6813329458236694
vt 0.6088280081748962 0.46660447120666504
vt 0.1631675511598587 0.6813336610794067
vt 0.16387972235679626 0.46660399436950684
vt -0.22717589139938354 0.6813335418701172
vt -0.22664928436279297 0.46660423278808594
vt 0.1633455902338028 0.6813340187072754
vt -0.22664766013622284 0.6813340187072754
vt 0.6086994409561157 0.6813329458236694
vt 0.9905391931533813 0.6813329458236694
vt 1.370749831199646 0.6813335418701172
vt 0.005930542945861816 0.7855072021484375
vt 0.4970974922180176 0.9932811260223389
vt 0.007014707662165165 0.9950987100601196
vt 0.49706703424453735 0.7855072021484375
vt 0.005930542945861816 0.5685989856719971
vt 0.49706703424453735 0.5685989856719971
vt 0.005930542945861816 0.43140095472335815
vt 0.49706703424453735 0.43140095472335815
vt 0.005930542945861816 0.21690821647644043
vt 0.49706703424453735 0.21690821647644043
vt 0.005930542945861816 0.00724637508392334
vt 0.49706703424453735 0.00724637508392334
vt 0.4971054196357727 0.4308927059173584
vt 0.006968422792851925 0.4308927059173584
vt 0.007106013596057892 0.5691072940826416
vt 0.4971050024032593 0.5691072940826416
vt 0.0071120485663414 0.7843039035797119
vt 0.49710434675216675 0.7843039035797119
vt 0.49710431694984436 0.9929355382919312
vt 0.49710434675216675 0.8065912127494812
vt 0.9936473369598389 0.9945353865623474
vt 0.49710431694984436 0.9929355382919312
vt 0.49710434675216675 0.7843039035797119
vt 0.007014695089310408 0.9950987100601196
vt 0.007112040184438229 0.7843039035797119
vt 0.007106013596057892 0.5691072940826416
vt 0.4971050024032593 0.5691073536872864
vt 0.006968410219997168 0.4308927059173584
vt 0.4971054196357727 0.4308927059173584
vt 0.006914988625794649 0.21569609642028809
vt 0.49710559844970703 0.21569609642028809
vt 0.006866101175546646 0.0029149651527404785
vt 0.49710506200790405 0.0029149651527404785
vt 0.49710506200790405 0.0029149651527404785
vt 0.9935802221298218 0.0029149651527404785
vt 0.9936654567718506 0.7843039035797119
vt 0.9936266541481018 0.5691072940826416
vt 0.9936615228652954 0.4308927059173584
vt 0.9936314821243286 0.21569609642028809
vt 0.006866113748401403 0.0029149651527404785
vt 0.006915001198649406 0.21569609642028809
vt 0.49710559844970703 0.21569609642028809
g Geoset0
s 1
usemtl mat_potbase03_01
f 1/1/1 2/2/2 3/3/3
f 4/4/4 5/5/5 6/6/6
f 4/4/4 7/7/7 5/5/5
f 8/8/8 7/7/7 4/4/4
f 8/8/8 9/9/9 7/7/7
f 10/10/10 9/9/9 8/8/8
f 10/10/10 11/11/11 9/9/9
f 12/12/12 11/11/11 10/10/10
f 12/12/12 13/13/13 11/11/11
f 14/14/14 15/15/15 16/16/16
f 14/14/14 16/16/16 17/17/17
f 17/17/17 16/16/16 18/18/18
f 17/17/17 18/18/18 19/19/19
f 19/19/19 18/18/18 20/20/20
f 19/19/19 20/20/20 21/21/21
f 21/21/21 20/20/20 22/22/22
f 21/21/21 22/22/22 23/23/23
f 24/24/24 23/23/23 25/25/25
f 24/24/24 21/21/21 23/23/23
f 26/26/26 21/21/21 24/24/24
f 26/26/26 19/19/19 21/21/21
f 27/27/27 19/19/19 26/26/26
f 27/27/27 17/17/17 19/19/19
f 28/28/28 17/17/17 27/27/27
f 28/28/28 14/14/14 17/17/17
f 29/29/29 30/30/30 31/31/31
f 29/29/29 32/32/32 30/30/30
f 33/33/33 32/32/32 29/29/29
f 33/33/33 34/34/34 32/32/32
f 35/35/35 34/34/34 33/33/33
f 35/35/35 36/36/36 34/34/34
f 37/37/37 36/36/36 35/35/35
f 37/37/37 38/38/38 36/36/36
f 39/39/39 38/38/38 37/37/37
f 39/39/39 40/40/40 38/38/38
f 41/41/41 42/42/42 43/43/43
f 41/41/41 43/43/43 44/44/44
f 44/44/44 43/43/43 45/45/45
f 44/44/44 45/45/45 46/46/46
f 46/46/46 45/45/45 31/31/31
f 46/46/46 31/31/31 47/47/47
f 48/48/48 47/47/47 31/31/31
f 48/48/48 49/49/49 47/47/47
f 48/48/48 50/50/50 49/49/49
f 51/51/51 49/49/49 50/50/50
f 48/48/48 52/52/52 50/50/50
f 53/53/53 50/50/50 52/52/52
f 53/53/53 51/51/51 50/50/50
f 54/54/54 51/51/51 53/53/53
f 54/54/54 55/55/55 51/51/51
f 56/56/56 55/55/55 54/54/54
f 56/56/56 57/57/57 55/55/55
f 58/58/58 57/57/57 56/56/56
f 58/58/58 59/59/59 57/57/57
f 60/60/60 59/59/59 58/58/58
f 60/60/60 61/61/61 59/59/59
f 62/62/62 61/61/61 60/60/60
f 62/62/62 63/63/63 61/61/61
f 51/51/51 64/64/64 49/49/49
f 55/55/55 64/64/64 51/51/51
f 55/55/55 65/65/65 64/64/64
f 57/57/57 65/65/65 55/55/55
f 57/57/57 66/66/66 65/65/65
f 59/59/59 66/66/66 57/57/57
f 59/59/59 67/67/67 66/66/66
f 61/61/61 67/67/67 59/59/59
f 61/61/61 63/63/63 67/67/67
f 62/62/62 60/60/60 68/68/68
f 62/62/62 68/68/68 69/69/69
f 62/62/62 69/69/69 70/70/70
f 70/70/70 69/69/69 42/42/42
f 70/70/70 42/42/42 41/41/41
f 63/63/63 62/62/62 70/70/70
f 63/63/63 70/70/70 67/67/67
f 67/67/67 70/70/70 41/41/41
f 67/67/67 41/41/41 66/66/66
f 66/66/66 41/41/41 44/44/44
f 66/66/66 44/44/44 65/65/65
f 65/65/65 44/44/44 46/46/46
f 65/65/65 46/46/46 64/64/64
f 64/64/64 46/46/46 47/47/47
f 64/64/64 47/47/47 49/49/49
