# Exported using wow.export v0.1.64
o trolldungeonpottery01
mtllib trolldungeonpottery01.mtl
v -0.1569366753101349 0.20732606947422028 -0.2717808485031128
v -0.50185227394104 0.4694790840148926 -0.2802577614784241
v -0.2860604226589203 0.4694790840148926 -0.4955440163612366
v -0.07507864385843277 0.24637028574943542 -0.5807902812957764
v 0.11479555070400238 0.32873374223709106 -0.39989742636680603
v -0.10719158500432968 0.3659864664077759 -0.3593541085720062
v 0.0845450833439827 0.2477177232503891 -0.58009934425354
v -0.07604950666427612 0.20095592737197876 -0.5803209543228149
v 0.08365346491336823 0.20095592737197876 -0.5803208351135254
v -0.10719159990549088 0.09060679376125336 -0.37767934799194336
v 0.11479552835226059 0.09060679376125336 -0.37767934799194336
v 0.07507859170436859 0.24637028574943542 0.5807902812957764
v -0.11479556560516357 0.32873374223709106 0.39989736676216125
v 0.1071915477514267 0.3659864664077759 0.3593541085720062
v -0.08454513549804688 0.2477177232503891 0.58009934425354
v 0.07604945451021194 0.20095592737197876 0.5803209543228149
v -0.0836535170674324 0.20095592737197876 0.5803208351135254
v 0.10719156265258789 0.09060679376125336 0.37767937779426575
v -0.11479555070400238 0.09060679376125336 0.37767934799194336
v 0.0845450833439827 0.2477177232503891 -0.58009934425354
v 0.0038020131178200245 0.4116225242614746 -0.48890528082847595
v 0.11479555070400238 0.32873374223709106 -0.39989742636680603
v 0.003801994491368532 0.2707299590110779 -0.6603114008903503
v -0.10719158500432968 0.3659864664077759 -0.3593541085720062
v 0.08365346491336823 0.20095592737197876 -0.5803208351135254
v -0.07507864385843277 0.24637028574943542 -0.5807902812957764
v 0.003801994491368532 0.17952139675617218 -0.6617823839187622
v 0.11479552835226059 0.09060679376125336 -0.37767934799194336
v 0.0038020098581910133 0.022497231140732765 -0.4452739357948303
v -0.10719159990549088 0.09060679376125336 -0.37767934799194336
v -0.07604950666427612 0.20095592737197876 -0.5803209543228149
v -0.0038020520005375147 0.2707299590110779 0.6603114008903503
v 0.1071915477514267 0.3659864664077759 0.3593541085720062
v -0.0038020561914891005 0.4116225242614746 0.48890528082847595
v 0.07507859170436859 0.24637028574943542 0.5807902812957764
v -0.0038020529318600893 0.17952139675617218 0.6617823839187622
v 0.07604945451021194 0.20095592737197876 0.5803209543228149
v -0.003802049206569791 0.022497231140732765 0.4452739357948303
v 0.10719156265258789 0.09060679376125336 0.37767937779426575
v -0.08454513549804688 0.2477177232503891 0.58009934425354
v -0.11479556560516357 0.32873374223709106 0.39989736676216125
v -0.0836535170674324 0.20095592737197876 0.5803208351135254
v -0.11479555070400238 0.09060679376125336 0.37767934799194336
v -0.4872845709323883 0.486132949590683 -0.272068053483963
v -0.5721715092658997 0.4694790840148926 0.00001495539618190378
v -0.5555556416511536 0.4861328899860382 0.000041358765884069726
v -0.50185227394104 0.4694790840148926 -0.2802577614784241
v -0.27777785062789917 0.4861328899860382 -0.48108386993408203
v -0.2860604226589203 0.4694790840148926 -0.4955440163612366
v -0.27777788043022156 0.29826608300209045 0.00004132907997700386
v -0.13888899981975555 0.29826608300209045 -0.24052132666110992
v 0.0069701713509857655 0.486132949590683 -0.5581945776939392
v 0.007230037823319435 0.4694790840148926 -0.5749680995941162
v -7.593002493422318e-8 0.2201063185930252 0.00004131263995077461
v 0.13888880610466003 0.29826608300209045 -0.24052132666110992
v 0.277777761220932 0.4861328899860382 -0.4810839295387268
v 0.2861618101596832 0.4694790840148926 -0.49554407596588135
v -0.014471701346337795 0.486132949590683 0.5580158829689026
v 0.2861618101596832 0.4694790840148926 0.4955737888813019
v 0.2777777910232544 0.4861328899860382 0.4811665117740631
v -0.01485513336956501 0.4694790840148926 0.5747287273406982
v -0.2777778208255768 0.4861328899860382 0.4811665713787079
v -0.2860603630542755 0.4694790840148926 0.49557384848594666
v 0.13888883590698242 0.29826608300209045 0.24060389399528503
v -0.13888894021511078 0.29826608300209045 0.2406039535999298
v -0.4851321280002594 0.486132949590683 0.2756175696849823
v -0.4996352791786194 0.4694790840148926 0.28385841846466064
v -0.27777788043022156 0.29826608300209045 0.00004132907997700386
v -0.5555556416511536 0.4861328899860382 0.000041358765884069726
v -0.5721715092658997 0.4694790840148926 0.00001495539618190378
v 0.48201000690460205 0.486132949590683 -0.28166404366493225
v 0.2861618101596832 0.4694790840148926 -0.49554407596588135
v 0.277777761220932 0.4861328899860382 -0.4810839295387268
v 0.49652099609375 0.4694790840148926 -0.2901415228843689
v 0.555555522441864 0.4861328899860382 0.00004124713086639531
v 0.5722728371620178 0.4694790840148926 0.000014825827747699805
v 0.13888880610466003 0.29826608300209045 -0.24052132666110992
v 0.27777770161628723 0.29826608300209045 0.000041273266106145456
v 0.47761106491088867 0.486132949590683 0.2891046106815338
v 0.49199002981185913 0.4694790840148926 0.2977501153945923
v 0.13888883590698242 0.29826608300209045 0.24060389399528503
v 0.2777777910232544 0.4861328899860382 0.4811665117740631
v 0.2861618101596832 0.4694790840148926 0.4955737888813019
v 0.15693654119968414 0.20732606947422028 -0.2717808485031128
v 0.002419143682345748 -0.00135511823464185 -0.5581945776939392
v -0.1569366753101349 0.20732606947422028 -0.2717808485031128
v -0.2777778208255768 -0.00135511823464185 -0.48108386993408203
v -0.4821923077106476 -0.00135511823464185 -0.28088808059692383
v 0.007230037823319435 0.4694790840148926 -0.5749680995941162
v -0.2860604226589203 0.4694790840148926 -0.4955440163612366
v 0.2861618101596832 0.4694790840148926 -0.49554407596588135
v 0.49652099609375 0.4694790840148926 -0.2901415228843689
v 0.4846261441707611 -0.00135511823464185 0.27695432305336
v 0.5555555820465088 -0.00135511823464185 0.000041273618990089744
v 0.3138731122016907 0.20732606947422028 0.00004127385909669101
v 0.48518815636634827 -0.00135511823464185 -0.276159405708313
v 0.277777761220932 -0.00135511823464185 -0.48108386993408203
v 0.5722728371620178 0.4694790840148926 0.000014825827747699805
v 0.49199002981185913 0.4694790840148926 0.2977501153945923
v 0.15693655610084534 0.20732606947422028 0.27186349034309387
v 0.2777778208255768 -0.00135511823464185 0.4811665117740631
v -0.4996352791786194 0.4694790840148926 0.28385841846466064
v -0.1569366306066513 0.20732606947422028 0.27186349034309387
v -0.2860603630542755 0.4694790840148926 0.49557384848594666
v -0.01485513336956501 0.4694790840148926 0.5747287273406982
v 0.2861618101596832 0.4694790840148926 0.4955737888813019
v 0.0030324829276651144 -0.00135511823464185 0.5580159425735474
v -0.4821923077106476 -0.00135511823464185 -0.28088808059692383
v -0.5555555820465088 -0.00135511823464185 0.00004138525400776416
v -0.3138732612133026 0.20732606947422028 0.00004134350092499517
v -0.4827417731285095 -0.00135511823464185 0.27975764870643616
v -0.2777777910232544 -0.00135511823464185 0.4811665713787079
v -0.5721715092658997 0.4694790840148926 0.00001495539618190378
vn -0.49933138489723206 0.05352247878909111 -0.8647563457489014
vn -0.8698824048042297 -0.007131641265004873 -0.49320754408836365
vn -0.500421941280365 0.0034352182410657406 -0.8657748103141785
vn -0.9986998438835144 -0.029068471863865852 0.04187696427106857
vn 0.6803349256515503 -0.6891814470291138 0.24934589862823486
vn -0.7901290059089661 -0.58830726146698 0.17201949656009674
vn 0.9953085780143738 -0.09666269272565842 -0.004144513048231602
vn -0.9974557757377625 0.04693453013896942 0.05365802347660065
vn 0.9980084300041199 0.0214928537607193 0.05930617079138756
vn -0.8671115040779114 0.4811815619468689 0.12877070903778076
vn 0.8662794232368469 0.48512956500053406 0.11920280009508133
vn 0.9986998438835144 -0.029068471863865852 -0.04187687858939171
vn -0.6803348660469055 -0.6891814470291138 -0.24934595823287964
vn 0.7901290059089661 -0.58830726146698 -0.17201942205429077
vn -0.9953085780143738 -0.09666269272565842 0.004144425969570875
vn 0.9974557757377625 0.04693453013896942 -0.05365794152021408
vn -0.9980084300041199 0.0214928537607193 -0.05930625647306442
vn 0.8671115040779114 0.4811815917491913 -0.1287706345319748
vn -0.8662794232368469 0.48512956500053406 -0.1192028820514679
vn 0.9953085780143738 -0.09666269272565842 -0.004144513048231602
vn -0.1044020727276802 0.7873228192329407 -0.6076372265815735
vn 0.6803349256515503 -0.6891814470291138 0.24934589862823486
vn -0.0091991713270545 0.4197864830493927 -0.9075762629508972
vn -0.7901290059089661 -0.58830726146698 0.17201949656009674
vn 0.9980084300041199 0.0214928537607193 0.05930617079138756
vn -0.9986998438835144 -0.029068471863865852 0.04187696427106857
vn 0.0016092148143798113 -0.419001966714859 -0.9079838991165161
vn 0.8662794232368469 0.48512956500053406 0.11920280009508133
vn 0.0033946905750781298 -0.8123953938484192 -0.5830971002578735
vn -0.8671115040779114 0.4811815619468689 0.12877070903778076
vn -0.9974557757377625 0.04693453013896942 0.05365802347660065
vn 0.009199092164635658 0.4197864830493927 0.9075762629508972
vn 0.7901290059089661 -0.58830726146698 -0.17201942205429077
vn 0.10440202057361603 0.7873228192329407 0.6076372265815735
vn 0.9986998438835144 -0.029068471863865852 -0.04187687858939171
vn -0.0016092942096292973 -0.419001966714859 0.9079838991165161
vn 0.9974557757377625 0.04693453013896942 -0.05365794152021408
vn -0.00339474156498909 -0.8123953938484192 0.5830971002578735
vn 0.8671115040779114 0.4811815917491913 -0.1287706345319748
vn -0.9953085780143738 -0.09666269272565842 0.004144425969570875
vn -0.6803348660469055 -0.6891814470291138 -0.24934595823287964
vn -0.9980084300041199 0.0214928537607193 -0.05930625647306442
vn -0.8662794232368469 0.48512956500053406 -0.1192028820514679
vn -0.17951199412345886 0.9784108400344849 -0.10240937769412994
vn -0.999994158744812 0.002835672814399004 0.0018995106220245361
vn -0.19270364940166473 0.9812567234039307 0.0007519557257182896
vn -0.8698824048042297 -0.007131641265004873 -0.49320754408836365
vn -0.09860103577375412 0.9805266857147217 -0.16983895003795624
vn -0.500421941280365 0.0034352182410657406 -0.8657748103141785
vn 0.4214242994785309 0.9068635702133179 -0.00015462152077816427
vn 0.21130552887916565 0.9063853621482849 0.36580806970596313
vn 0.0005172075470909476 0.978565514087677 -0.20593500137329102
vn 0.0071265073493123055 -0.006422053556889296 -0.9999539852142334
vn 4.339932857533313e-9 1 1.8173967886170317e-9
vn -0.21076694130897522 0.906883716583252 0.3648824691772461
vn 0.09592057764530182 0.981566309928894 -0.16530829668045044
vn 0.5015180110931396 0.004093848634511232 -0.86513751745224
vn -0.0017704347847029567 0.9784119129180908 0.20665666460990906
vn 0.4905434250831604 0.0034979325719177723 0.8714097142219543
vn 0.09371010214090347 0.9809590578079224 0.17011114954948425
vn -0.014277974143624306 -0.007065074983984232 0.9998731017112732
vn -0.09881114959716797 0.9812236428260803 0.1656396985054016
vn -0.5068780779838562 0.0028643982950598 0.8620129823684692
vn -0.21033592522144318 0.9066018462181091 -0.3658304214477539
vn 0.21118149161338806 0.9068319797515869 -0.36477139592170715
vn -0.1793825775384903 0.9783647060394287 0.10307471454143524
vn -0.8679375052452087 -0.0074477652087807655 0.4966176152229309
vn 0.4214242994785309 0.9068635702133179 -0.00015462152077816427
vn -0.19270364940166473 0.9812567234039307 0.0007519557257182896
vn -0.999994158744812 0.002835672814399004 0.0018995106220245361
vn 0.17777201533317566 0.9786650538444519 -0.10301382839679718
vn 0.5015180110931396 0.004093848634511232 -0.86513751745224
vn 0.09592057764530182 0.981566309928894 -0.16530829668045044
vn 0.8645322918891907 -0.00605051452293992 -0.5025408267974854
vn 0.19533893465995789 0.9807348847389221 0.0013236545491963625
vn 0.9999853372573853 0.0041068498976528645 0.0035265563055872917
vn -0.21076694130897522 0.906883716583252 0.3648824691772461
vn -0.42239752411842346 0.9064106345176697 -0.0002779565111268312
vn 0.17756342887878418 0.9785788655281067 0.10418543219566345
vn 0.8602719902992249 -0.006368212401866913 0.5097955465316772
vn -0.21033592522144318 0.9066018462181091 -0.3658304214477539
vn 0.09371010214090347 0.9809590578079224 0.17011114954948425
vn 0.4905434250831604 0.0034979325719177723 0.8714097142219543
vn 0.4996003806591034 0.05216636881232262 -0.8646838068962097
vn 0.0014895601198077202 0.7744183540344238 -0.632672131061554
vn -0.49933138489723206 0.05352247878909111 -0.8647563457489014
vn -0.32583746314048767 0.7568913698196411 -0.5665204524993896
vn -0.5473729968070984 0.774288535118103 -0.31758466362953186
vn 0.0071265073493123055 -0.006422053556889296 -0.9999539852142334
vn -0.500421941280365 0.0034352182410657406 -0.8657748103141785
vn 0.5015180110931396 0.004093848634511232 -0.86513751745224
vn 0.8645322918891907 -0.00605051452293992 -0.5025408267974854
vn 0.5487402081489563 0.7743605375289917 0.3150394856929779
vn 0.6535400152206421 0.7568919062614441 0.0003787862660828978
vn 0.9985529780387878 0.05377427861094475 0.0004974830662831664
vn 0.5489150881767273 0.7744560241699219 -0.31449979543685913
vn 0.328093945980072 0.7568910717964172 -0.5652170181274414
vn 0.9999853372573853 0.0041068498976528645 0.0035265563055872917
vn 0.8602719902992249 -0.006368212401866913 0.5097955465316772
vn 0.4985085427761078 0.052948761731386185 0.8652662634849548
vn 0.3279198706150055 0.7568913102149963 0.5653177499771118
vn -0.8679375052452087 -0.0074477652087807655 0.4966176152229309
vn -0.4997968077659607 0.052184611558914185 0.8645691871643066
vn -0.5068780779838562 0.0028643982950598 0.8620129823684692
vn -0.014277974143624306 -0.007065074983984232 0.9998731017112732
vn 0.4905434250831604 0.0034979325719177723 0.8714097142219543
vn 0.0018630664562806487 0.774232029914856 0.6328991055488586
vn -0.5473729968070984 0.774288535118103 -0.31758466362953186
vn -0.6535401344299316 0.7568918466567993 -0.0002282112545799464
vn -0.9986432790756226 0.05207216739654541 0.00023765269725117832
vn -0.5478824377059937 0.774193525314331 0.31693732738494873
vn -0.3259023129940033 0.7568915486335754 0.5664828419685364
vn -0.999994158744812 0.002835672814399004 0.0018995106220245361
vt -2.0074684619903564 0.014662384986877441
vt -1.5723669528961182 0.9926962852478027
vt -2.007646083831787 0.9926962852478027
vt 0.5942313075065613 0.9223458766937256
vt 1.1967692375183105 0.7485367655754089
vt 1.1959036588668823 0.9452086091041565
vt 0.5928546190261841 0.7707688808441162
vt 0.3708609342575073 0.9223719835281372
vt 0.3708609342575073 0.7707797884941101
vt -0.21457938849925995 0.9452086091041565
vt -0.21457938849925995 0.7485367655754089
vt 0.5942313075065613 0.9223458766937256
vt 1.1967692375183105 0.7485367655754089
vt 1.1959036588668823 0.9452086091041565
vt 0.5928546190261841 0.7707688808441162
vt 0.3708609342575073 0.9223719835281372
vt 0.3708609342575073 0.7707797884941101
vt -0.21457938849925995 0.9452086091041565
vt -0.21457938849925995 0.7485367655754089
vt 0.6379396915435791 0.7898509502410889
vt 0.9981783032417297 0.5387543439865112
vt 0.9985081553459167 0.7891619205474854
vt 0.6381336450576782 0.5387542843818665
vt 0.9973565936088562 0.7904881834983826
vt 0.44232648611068726 0.7905600070953369
vt 0.6360862255096436 0.7880242466926575
vt 0.4452130198478699 0.5387542843818665
vt 0.09983058273792267 0.7858585119247437
vt 0.10319425165653229 0.538754403591156
vt 0.09983058273792267 0.7904881834983826
vt 0.44232648611068726 0.7890899181365967
vt 0.6381336450576782 0.5387542843818665
vt 0.9973565936088562 0.7904881834983826
vt 0.9981783032417297 0.5387543439865112
vt 0.6360862255096436 0.7880242466926575
vt 0.4452130198478699 0.5387542843818665
vt 0.44232648611068726 0.7890899181365967
vt 0.10319425165653229 0.538754403591156
vt 0.09983058273792267 0.7904881834983826
vt 0.6379396915435791 0.7898509502410889
vt 0.9985081553459167 0.7891619205474854
vt 0.44232648611068726 0.7905600070953369
vt 0.09983058273792267 0.7858585119247437
vt 0.22452816367149353 0.92404705286026
vt 0.005549744237214327 0.996886134147644
vt 0.0055694058537483215 0.9238154292106628
vt 0.22447353601455688 0.99689120054245
vt 0.5086719989776611 0.9240360856056213
vt 0.5086678862571716 0.9969310164451599
vt 0.00558942137286067 0.5095551013946533
vt 0.5086941123008728 0.5095530152320862
vt 0.7693758010864258 0.9239727258682251
vt 0.7695212960243225 0.9968744516372681
vt 0.5086513757705688 0.004714906215667725
vt 0.9936022758483887 0.5095648169517517
vt 0.9938253164291382 0.9239439368247986
vt 0.9937489032745361 0.9968787431716919
vt 0.22452780604362488 0.9240474104881287
vt 0.005549788940697908 0.9968869090080261
vt 0.0055685630068182945 0.9238203167915344
vt 0.22447212040424347 0.9968899488449097
vt 0.5086707472801208 0.9240361452102661
vt 0.5086658000946045 0.9969356060028076
vt 0.00558899762108922 0.5095546841621399
vt 0.508693277835846 0.5095526576042175
vt 0.7693766355514526 0.9239725470542908
vt 0.7695285081863403 0.9968752264976501
vt 0.9936022758483887 0.5095647573471069
vt 0.9938254356384277 0.923943817615509
vt 0.9937567710876465 0.9968807697296143
vt 0.22452838718891144 0.9240472912788391
vt 0.005549983121454716 0.996888279914856
vt 0.005569107364863157 0.9238191843032837
vt 0.2244739532470703 0.9968897700309753
vt 0.5086711645126343 0.924038827419281
vt 0.5086658000946045 0.9969314336776733
vt 0.005589122883975506 0.5095548033714294
vt 0.5086934566497803 0.5095528364181519
vt 0.7693716883659363 0.9239730834960938
vt 0.7695073485374451 0.9968760013580322
vt 0.9936021566390991 0.5095647573471069
vt 0.9938251972198486 0.9239445328712463
vt 0.9937554597854614 0.9968816637992859
vt 2.2444217205047607 0.014662384986877441
vt 2.667781352996826 0.9573007225990295
vt 3.096731185913086 0.014662384986877441
vt 3.0966382026672363 0.9573007225990295
vt 3.5171468257904053 0.9573007225990295
vt 2.6610677242279053 0.9926962852478027
vt 3.0965535640716553 0.9926962852478027
vt 2.244281768798828 0.9926962852478027
vt 1.8216246366500854 0.9926962852478027
vt 0.9717105627059937 0.9573007225990295
vt 1.39189875125885 0.9573007225990295
vt 1.3918979167938232 0.014662384986877441
vt 1.81235933303833 0.9573007225990295
vt 2.2443289756774902 0.9573007225990295
vt 1.391936182975769 0.9926962852478027
vt 0.9514539837837219 0.9926962852478027
vt 0.5442036390304565 0.014662384986877441
vt 0.5442967414855957 0.9573007225990295
vt -0.7406221032142639 0.9926962852478027
vt -0.30810415744781494 0.014662384986877441
vt -0.3079642057418823 0.9926962852478027
vt 0.09789248555898666 0.9926962852478027
vt 0.544381320476532 0.9926962852478027
vt 0.12335746735334396 0.9573007225990295
vt -1.5870527029037476 0.9573007225990295
vt -1.1601985692977905 0.9573007225990295
vt -1.1601977348327637 0.014662384986877441
vt -0.7336516380310059 0.9573007225990295
vt -0.30801135301589966 0.9573007225990295
vt -1.1602360010147095 0.9926962852478027
g Geoset0
s 1
usemtl mat_bowl02
f 1/1/1 2/2/2 3/3/3
f 4/4/4 5/5/5 6/6/6
f 4/4/4 7/7/7 5/5/5
f 8/8/8 7/7/7 4/4/4
f 8/8/8 9/9/9 7/7/7
f 10/10/10 9/9/9 8/8/8
f 10/10/10 11/11/11 9/9/9
f 12/12/12 13/13/13 14/14/14
f 12/12/12 15/15/15 13/13/13
f 16/16/16 15/15/15 12/12/12
f 16/16/16 17/17/17 15/15/15
f 18/18/18 17/17/17 16/16/16
f 18/18/18 19/19/19 17/17/17
f 20/20/20 21/21/21 22/22/22
f 23/23/23 24/24/24 21/21/21
f 20/20/20 23/23/23 21/21/21
f 25/25/25 23/23/23 20/20/20
f 23/23/23 26/26/26 24/24/24
f 27/27/27 26/26/26 23/23/23
f 25/25/25 27/27/27 23/23/23
f 28/28/28 27/27/27 25/25/25
f 29/29/29 30/30/30 31/31/31
f 28/28/28 29/29/29 27/27/27
f 29/29/29 31/31/31 27/27/27
f 27/27/27 31/31/31 26/26/26
f 32/32/32 33/33/33 34/34/34
f 32/32/32 35/35/35 33/33/33
f 36/36/36 35/35/35 32/32/32
f 36/36/36 37/37/37 35/35/35
f 38/38/38 37/37/37 36/36/36
f 38/38/38 39/39/39 37/37/37
f 40/40/40 34/34/34 41/41/41
f 40/40/40 32/32/32 34/34/34
f 42/42/42 32/32/32 40/40/40
f 42/42/42 36/36/36 32/32/32
f 43/43/43 36/36/36 42/42/42
f 43/43/43 38/38/38 36/36/36
f 44/44/44 45/45/45 46/46/46
f 44/44/44 47/47/47 45/45/45
f 48/48/48 47/47/47 44/44/44
f 48/48/48 49/49/49 47/47/47
f 44/44/44 46/46/46 50/50/50
f 51/51/51 44/44/44 50/50/50
f 48/48/48 44/44/44 51/51/51
f 52/52/52 48/48/48 51/51/51
f 52/52/52 49/49/49 48/48/48
f 52/52/52 53/53/53 49/49/49
f 54/54/54 51/51/51 50/50/50
f 54/54/54 55/55/55 51/51/51
f 55/55/55 52/52/52 51/51/51
f 56/56/56 52/52/52 55/55/55
f 56/56/56 53/53/53 52/52/52
f 56/56/56 57/57/57 53/53/53
f 58/58/58 59/59/59 60/60/60
f 58/58/58 61/61/61 59/59/59
f 62/62/62 61/61/61 58/58/58
f 62/62/62 63/63/63 61/61/61
f 58/58/58 60/60/60 64/64/64
f 65/65/65 58/58/58 64/64/64
f 62/62/62 58/58/58 65/65/65
f 66/66/66 62/62/62 65/65/65
f 66/66/66 63/63/63 62/62/62
f 66/66/66 67/67/67 63/63/63
f 54/54/54 65/65/65 64/64/64
f 54/54/54 68/68/68 65/65/65
f 68/68/68 66/66/66 65/65/65
f 69/69/69 66/66/66 68/68/68
f 69/69/69 67/67/67 66/66/66
f 69/69/69 70/70/70 67/67/67
f 71/71/71 72/72/72 73/73/73
f 71/71/71 74/74/74 72/72/72
f 75/75/75 74/74/74 71/71/71
f 75/75/75 76/76/76 74/74/74
f 71/71/71 73/73/73 77/77/77
f 78/78/78 71/71/71 77/77/77
f 75/75/75 71/71/71 78/78/78
f 79/79/79 75/75/75 78/78/78
f 79/79/79 76/76/76 75/75/75
f 79/79/79 80/80/80 76/76/76
f 54/54/54 78/78/78 77/77/77
f 78/78/78 54/54/54 81/81/81
f 81/81/81 79/79/79 78/78/78
f 82/82/82 79/79/79 81/81/81
f 82/82/82 80/80/80 79/79/79
f 82/82/82 83/83/83 80/80/80
f 84/84/84 85/85/85 86/86/86
f 85/85/85 87/87/87 86/86/86
f 87/87/87 88/88/88 86/86/86
f 89/89/89 86/86/86 90/90/90
f 84/84/84 86/86/86 89/89/89
f 84/84/84 89/89/89 91/91/91
f 92/92/92 84/84/84 91/91/91
f 93/93/93 94/94/94 95/95/95
f 94/94/94 96/96/96 95/95/95
f 95/95/95 96/96/96 84/84/84
f 96/96/96 97/97/97 84/84/84
f 97/97/97 85/85/85 84/84/84
f 95/95/95 92/92/92 98/98/98
f 95/95/95 84/84/84 92/92/92
f 99/99/99 95/95/95 98/98/98
f 100/100/100 95/95/95 99/99/99
f 100/100/100 93/93/93 95/95/95
f 101/101/101 93/93/93 100/100/100
f 102/102/102 103/103/103 104/104/104
f 103/103/103 105/105/105 104/104/104
f 103/103/103 100/100/100 105/105/105
f 105/105/105 100/100/100 106/106/106
f 100/100/100 99/99/99 106/106/106
f 103/103/103 107/107/107 100/100/100
f 107/107/107 101/101/101 100/100/100
f 108/108/108 109/109/109 110/110/110
f 109/109/109 111/111/111 110/110/110
f 110/110/110 111/111/111 103/103/103
f 111/111/111 112/112/112 103/103/103
f 112/112/112 107/107/107 103/103/103
f 110/110/110 102/102/102 113/113/113
f 110/110/110 103/103/103 102/102/102
f 2/2/2 110/110/110 113/113/113
f 1/1/1 110/110/110 2/2/2
f 1/1/1 108/108/108 110/110/110
