# Exported using wow.export v0.1.64
o hellfire_gravestones_alliance_02
mtllib hellfire_gravestones_alliance_02.mtl
v -0.2723396122455597 1.2280741930007935 -0.3582439124584198
v -0.2948738634586334 1.0565524101257324 -0.36967411637306213
v -0.28858187794685364 1.3642265796661377 -0.012539795599877834
v -0.2566688656806946 1.5851150751113892 0.28891944885253906
v 0.2114826887845993 1.5851150751113892 0.28891944885253906
v 0.21140046417713165 1.5851303339004517 -0.013345823623239994
v -0.25658702850341797 1.585129976272583 -0.012313511222600937
v -0.25649940967559814 1.5851459503173828 -0.3344486951828003
v 0.21131320297718048 1.5851459503173828 -0.3344486951828003
v -0.2780333459377289 1.2086836099624634 0.31317809224128723
v -0.29508569836616516 1.0569483041763306 0.32295647263526917
v -0.34502601623535156 1.0570738315582275 0.42426806688308716
v -0.38226887583732605 0.5291171073913574 0.48103249073028564
v -0.32687535881996155 0.5288177132606506 0.3628878891468048
v -0.43552160263061523 0.0012063117465004325 0.5385454893112183
v -0.36443081498146057 0.0007204654975794256 0.4082243740558624
v 0.30714890360832214 0.0022636118810623884 0.8221461176872253
v 0.26955118775367737 0.5297433137893677 0.7281544804573059
v -0.3523350954055786 0.0022635955829173326 0.8221461176872253
v -0.31473737955093384 0.5297433137893677 0.7281544804573059
v 0.23771901428699493 1.057350993156433 0.6475708484649658
v -0.2829051911830902 1.057350993156433 0.6475708484649658
v 0.2114826887845993 1.5851150751113892 0.28891944885253906
v -0.2566688656806946 1.5851150751113892 0.28891944885253906
v 0.21131320297718048 1.5851459503173828 -0.3344486951828003
v 0.2370837777853012 1.0561634302139282 -0.6943919658660889
v -0.25649940967559814 1.5851459503173828 -0.3344486951828003
v -0.28227004408836365 1.0561634302139282 -0.6943919658660889
v 0.268789142370224 0.5269913673400879 -0.7777565121650696
v -0.31397542357444763 0.5269913673400879 -0.7777565121650696
v 0.3062601089477539 -0.0023365977685898542 -0.8774653673171997
v -0.3514463007450104 -0.0023365826345980167 -0.8774653673171997
v 0.24968764185905457 1.0565524101257324 -0.36967411637306213
v 0.22715340554714203 1.2280741930007935 -0.3582439124584198
v 0.24339567124843597 1.3642265796661377 -0.012539795599877834
v 0.3189484179019928 -0.0008129170164465904 -0.46900060772895813
v 0.2814353406429291 0.5279002785682678 -0.414361834526062
v 0.3192445635795593 0.0007204654975794256 0.4082243740558624
v 0.2816891670227051 0.5288177132606506 0.3628878891468048
v 0.24989944696426392 1.0569483041763306 0.32295647263526917
v 0.23284710943698883 1.2086836099624634 0.31317806243896484
v 0.33996155858039856 0.5276309251785278 -0.5220771431922913
v 0.3189484179019928 -0.0008129170164465904 -0.46900060772895813
v 0.39251768589019775 -0.001259357901290059 -0.5886815190315247
v 0.2814353406429291 0.5279002785682678 -0.414361834526062
v 0.29978832602500916 1.0564320087432861 -0.4702394902706146
v 0.24968764185905457 1.0565524101257324 -0.36967411637306213
v 0.22715340554714203 1.2280741930007935 -0.3582439124584198
v 0.28841254115104675 1.1754112243652344 -0.4612191617488861
v 0.2833976447582245 1.3271528482437134 -0.35164132714271545
v 0.24339567124843597 1.3642265796661377 -0.012539795599877834
v 0.2837178111076355 1.4293941259384155 -0.10749723762273788
v 0.2813815772533417 1.434474229812622 -0.012796113267540932
v 0.28438401222229004 1.428057312965393 0.07457347214221954
v 0.2876648008823395 1.3127542734146118 0.3064713776111603
v 0.23284710943698883 1.2086836099624634 0.31317806243896484
v 0.3192445635795593 0.0007204654975794256 0.4082243740558624
v 0.2816891670227051 0.5288177132606506 0.3628878891468048
v 0.39033541083335876 0.0012063173344358802 0.5385454893112183
v 0.3370826244354248 0.5291171073913574 0.48103249073028564
v 0.24989944696426392 1.0569483041763306 0.32295647263526917
v 0.2998398542404175 1.0570738315582275 0.42426806688308716
v 0.2939978539943695 1.165083408355713 0.40951937437057495
v -0.3641345798969269 -0.0008129170164465904 -0.46900060772895813
v -0.38514789938926697 0.5276309251785278 -0.5220771431922913
v -0.4377039670944214 -0.0012593073770403862 -0.5886815190315247
v -0.32662156224250793 0.5279002785682678 -0.414361834526062
v -0.34497448801994324 1.0564320087432861 -0.4702394902706146
v -0.2948738634586334 1.0565524101257324 -0.36967411637306213
v -0.2723396122455597 1.2280741930007935 -0.3582439124584198
v -0.3335987627506256 1.1754112243652344 -0.4612191617488861
v -0.32858383655548096 1.3271528482437134 -0.35164132714271545
v -0.28858187794685364 1.3642265796661377 -0.012539795599877834
v -0.32890403270721436 1.4293941259384155 -0.10749723762273788
v -0.32656779885292053 1.434474229812622 -0.012796114198863506
v -0.3391840159893036 1.165083408355713 0.40951937437057495
v -0.33285099267959595 1.3127542734146118 0.3064713776111603
v -0.3295702636241913 1.428057312965393 0.07457347214221954
v 0.39251768589019775 -0.001259357901290059 -0.5886815190315247
v 0.268789142370224 0.5269913673400879 -0.7777565121650696
v 0.33996155858039856 0.5276309251785278 -0.5220771431922913
v 0.3062601089477539 -0.0023365977685898542 -0.8774653673171997
v 0.2370837777853012 1.0561634302139282 -0.6943919658660889
v 0.29978832602500916 1.0564320087432861 -0.4702394902706146
v 0.28841254115104675 1.1754112243652344 -0.4612191617488861
v 0.2833976447582245 1.3271528482437134 -0.35164132714271545
v 0.21131320297718048 1.5851459503173828 -0.3344486951828003
v 0.2837178111076355 1.4293941259384155 -0.10749723762273788
v 0.21140046417713165 1.5851303339004517 -0.013345823623239994
v 0.2813815772533417 1.434474229812622 -0.012796113267540932
v 0.28438401222229004 1.428057312965393 0.07457347214221954
v 0.2114826887845993 1.5851150751113892 0.28891944885253906
v 0.2876648008823395 1.3127542734146118 0.3064713776111603
v 0.2939978539943695 1.165083408355713 0.40951937437057495
v 0.23771901428699493 1.057350993156433 0.6475708484649658
v 0.2998398542404175 1.0570738315582275 0.42426806688308716
v 0.26955118775367737 0.5297433137893677 0.7281544804573059
v 0.3370826244354248 0.5291171073913574 0.48103249073028564
v 0.30714890360832214 0.0022636118810623884 0.8221461176872253
v 0.39033541083335876 0.0012063173344358802 0.5385454893112183
v -0.28227004408836365 1.0561634302139282 -0.6943919658660889
v -0.38514789938926697 0.5276309251785278 -0.5220771431922913
v -0.34497448801994324 1.0564320087432861 -0.4702394902706146
v -0.31397542357444763 0.5269913673400879 -0.7777565121650696
v -0.4377039670944214 -0.0012593073770403862 -0.5886815190315247
v -0.3514463007450104 -0.0023365826345980167 -0.8774653673171997
v -0.3295702636241913 1.428057312965393 0.07457347214221954
v -0.25658702850341797 1.585129976272583 -0.012313511222600937
v -0.32656779885292053 1.434474229812622 -0.012796114198863506
v -0.32890403270721436 1.4293941259384155 -0.10749723762273788
v -0.25649940967559814 1.5851459503173828 -0.3344486951828003
v -0.32858383655548096 1.3271528482437134 -0.35164132714271545
v -0.3335987627506256 1.1754112243652344 -0.4612191617488861
v -0.2566688656806946 1.5851150751113892 0.28891944885253906
v -0.3523350954055786 0.0022635955829173326 0.8221461176872253
v -0.38226887583732605 0.5291171073913574 0.48103249073028564
v -0.43552160263061523 0.0012063117465004325 0.5385454893112183
v -0.31473737955093384 0.5297433137893677 0.7281544804573059
v -0.34502601623535156 1.0570738315582275 0.42426806688308716
v -0.2829051911830902 1.057350993156433 0.6475708484649658
v -0.3391840159893036 1.165083408355713 0.40951937437057495
v -0.33285099267959595 1.3127542734146118 0.3064713776111603
v -0.32662156224250793 0.5279002785682678 -0.414361834526062
v -0.3641345798969269 -0.0008129170164465904 -0.46900060772895813
v -0.36443081498146057 0.0007204654975794256 0.4082243740558624
v -0.32687535881996155 0.5288177132606506 0.3628878891468048
v -0.29508569836616516 1.0569483041763306 0.32295647263526917
v -0.2780333459377289 1.2086836099624634 0.31317809224128723
vn -0.9869648814201355 0.13633406162261963 -0.08551844209432602
vn -0.997157096862793 0.07184364646673203 -0.022720251232385635
vn -0.9988208413124084 0.04846583679318428 -0.002827997785061598
vn -7.09878804627806e-8 1 0.00004267499753041193
vn 0 1 0.000042768944695126265
vn -4.608642001358021e-8 1 0.000042640163883334026
vn -1.1598498872444907e-7 1 0.00004263594018993899
vn -6.880922853724769e-8 1 0.00004259788693161681
vn 0 1 0.000042512197978794575
vn -0.8472326397895813 -0.32097697257995605 -0.423285573720932
vn -0.921038806438446 0.04757177457213402 -0.3865545392036438
vn -0.9132960438728333 0.02311686798930168 -0.4066399037837982
vn -0.9272080659866333 0.035117581486701965 -0.372896671295166
vn -0.9259325861930847 0.031649619340896606 -0.37636038661003113
vn -0.9099550247192383 0.026146912947297096 -0.41388189792633057
vn -0.9060973525047302 0.02199643664062023 -0.422497034072876
vn -1.636941782123813e-8 0.20411038398742676 0.9789478778839111
vn -4.8228372406811104e-9 0.19062158465385437 0.9816635847091675
vn -7.770209364821312e-9 0.20411039888858795 0.9789478778839111
vn 0 0.19062158465385437 0.9816635847091675
vn 0 0.4075198471546173 0.913196325302124
vn 0 0.4075198471546173 0.913196325302124
vn 0 0.6223821043968201 0.7827135920524597
vn 0 0.6223821043968201 0.7827135920524597
vn 0 0.6228737831115723 -0.782322347164154
vn 0 0.41041436791419983 -0.9118991494178772
vn 0 0.6228737831115723 -0.782322347164154
vn 0 0.41041436791419983 -0.9118991494178772
vn 0 0.1989908367395401 -0.9800013303756714
vn 5.074753506306706e-9 0.1989908367395401 -0.9800013303756714
vn 8.25986745667251e-9 0.2152431607246399 -0.9765604734420776
vn 1.7308902755530653e-8 0.2152431756258011 -0.9765604734420776
vn 0.997157096862793 0.07184364646673203 -0.022720210254192352
vn 0.9869648814201355 0.13633404672145844 -0.08551832288503647
vn 0.9988208413124084 0.04846585914492607 -0.0028279670514166355
vn 0.9974889755249023 0.07082109898328781 -0.00039362869574688375
vn 0.997835099697113 0.06576482951641083 -0.00036073397495783865
vn 0.9974853992462158 0.07087160646915436 -0.00036582231405191123
vn 0.9978353381156921 0.06576091796159744 -0.00033085394534282386
vn 0.9976505637168884 0.06584889441728592 0.018902329728007317
vn 0.9902903437614441 0.1169566810131073 0.07514128088951111
vn 0.905048131942749 0.017206594347953796 0.42496100068092346
vn 0.8884044289588928 0.018579727038741112 0.4586855173110962
vn 0.8851279020309448 0.019445225596427917 0.4649414122104645
vn 0.907846987247467 0.016996227204799652 0.41895708441734314
vn 0.9147077202796936 0.04303688928484917 0.4018179476261139
vn 0.9186555743217468 0.05595046281814575 0.39107728004455566
vn 0.8470792770385742 -0.3401467800140381 0.40835869312286377
vn 0.8772606253623962 -0.06703655421733856 0.4753103256225586
vn 0.8405191898345947 -0.47764381766319275 0.2557026445865631
vn 0.901104211807251 -0.4333423376083374 -0.015021438710391521
vn 0.916497528553009 -0.38562339544296265 0.10642791539430618
vn 0.8795948028564453 -0.47566667199134827 -0.0073615736328065395
vn 0.916239857673645 -0.37845298647880554 -0.13144506514072418
vn 0.8492302894592285 -0.45049265027046204 -0.2754346430301666
vn 0.8472326397895813 -0.32097700238227844 -0.4232855439186096
vn 0.9060972332954407 0.021996313706040382 -0.42249730229377747
vn 0.9259326457977295 0.03164973109960556 -0.3763601779937744
vn 0.9099549055099487 0.02614683099091053 -0.4138821065425873
vn 0.9272081851959229 0.03511769697070122 -0.3728964328765869
vn 0.9210387468338013 0.04757149890065193 -0.3865548074245453
vn 0.9132959246635437 0.023116672411561012 -0.40664008259773254
vn 0.8499072790145874 -0.12894350290298462 -0.5109121203422546
vn -0.888404130935669 0.018579617142677307 0.4586860239505768
vn -0.9050479531288147 0.017206581309437752 0.4249613285064697
vn -0.885127604007721 0.01944512501358986 0.46494194865226746
vn -0.9078468084335327 0.0169962327927351 0.418957382440567
vn -0.9147076606750488 0.043036941438913345 0.4018179774284363
vn -0.9186555743217468 0.055950503796339035 0.39107728004455566
vn -0.847079336643219 -0.3401467800140381 0.40835869312286377
vn -0.8772606253623962 -0.06703655421733856 0.4753103256225586
vn -0.8405192494392395 -0.47764381766319275 0.25570258498191833
vn -0.9011043310165405 -0.4333420693874359 -0.015021530911326408
vn -0.9164977073669434 -0.38562294840812683 0.10642781108617783
vn -0.8795951008796692 -0.4756661355495453 -0.007361799944192171
vn -0.8499072194099426 -0.128943532705307 -0.5109122395515442
vn -0.8492302894592285 -0.4504927098751068 -0.27543455362319946
vn -0.9162399172782898 -0.37845295667648315 -0.13144509494304657
vn 0.9625158309936523 0.12453336268663406 -0.24094536900520325
vn 0.9656094908714294 0.1152515709400177 -0.23305656015872955
vn 0.966403067111969 0.11413554847240448 -0.23030021786689758
vn 0.9615668654441833 0.1222568154335022 -0.24585045874118805
vn 0.9597679376602173 0.13826772570610046 -0.24439220130443573
vn 0.9670066237449646 0.10677235573530197 -0.231296107172966
vn 0.9328425526618958 0.23101936280727386 -0.27646854519844055
vn 0.931617021560669 0.27850544452667236 -0.23350480198860168
vn 0.939675509929657 0.31834274530410767 -0.12517103552818298
vn 0.9238062500953674 0.38184061646461487 -0.027924194931983948
vn 0.9069316387176514 0.4212777614593506 -0.00019273956422694027
vn 0.9069315791130066 0.42127788066864014 -0.00019271876954007894
vn 0.9250144362449646 0.37859970331192017 0.03178900107741356
vn 0.9388366341590881 0.320438414812088 0.12611502408981323
vn 0.9308679103851318 0.27822914719581604 0.23679840564727783
vn 0.9348474144935608 0.22395917773246765 0.2755042612552643
vn 0.9598636031150818 0.13740266859531403 0.24450422823429108
vn 0.968766450881958 0.09361951053142548 0.22962357103824615
vn 0.968064546585083 0.10768881440162659 0.22639375925064087
vn 0.9675784707069397 0.10779426246881485 0.2284124493598938
vn 0.9637672305107117 0.12411577254533768 0.23611009120941162
vn 0.962134838104248 0.1277490258216858 0.24078354239463806
vn -0.9597679376602173 0.13826778531074524 -0.24439209699630737
vn -0.9664030075073242 0.11413560062646866 -0.23030033707618713
vn -0.9670066237449646 0.10677244514226913 -0.23129595816135406
vn -0.9656094908714294 0.1152515783905983 -0.23305672407150269
vn -0.9625157713890076 0.12453336268663406 -0.24094565212726593
vn -0.9615668058395386 0.12225677073001862 -0.24585075676441193
vn -0.9250144362449646 0.37859976291656494 0.03178893402218819
vn -0.9069316387176514 0.4212777614593506 -0.0001928130368469283
vn -0.9069316387176514 0.4212777614593506 -0.0001929563732119277
vn -0.9238062500953674 0.3818405866622925 -0.027924206107854843
vn -0.939675509929657 0.31834274530410767 -0.1251710206270218
vn -0.931617021560669 0.27850544452667236 -0.23350469768047333
vn -0.9328426718711853 0.23101919889450073 -0.27646827697753906
vn -0.9388366341590881 0.3204384446144104 0.1261150985956192
vn -0.9637672305107117 0.12411569803953171 0.2361101508140564
vn -0.9675784707069397 0.10779430717229843 0.22841261327266693
vn -0.9621348977088928 0.12774892151355743 0.24078351259231567
vn -0.968064546585083 0.10768886655569077 0.2263938933610916
vn -0.968766450881958 0.09361952543258667 0.22962360084056854
vn -0.9598636031150818 0.13740266859531403 0.24450422823429108
vn -0.9348474144935608 0.22395917773246765 0.2755042612552643
vn -0.9308679103851318 0.27822908759117126 0.2367984652519226
vn -0.997835099697113 0.06576485186815262 -0.00036071558133699
vn -0.9974889755249023 0.07082098722457886 -0.0003936798602808267
vn -0.9974853992462158 0.07087162882089615 -0.0003658040368463844
vn -0.9978353381156921 0.06576095521450043 -0.0003308311861474067
vn -0.9976505637168884 0.06584890931844711 0.018902353942394257
vn -0.9902902841567993 0.11695701628923416 0.075141541659832
vt 0.08631318807601929 0.8998575806617737
vt 0.08631318807601929 0.774329662322998
vt 0.37813305854797363 0.9651889801025391
vt 0.9900000095367432 0.8443613648414612
vt 0.7902701497077942 0.8443613648414612
vt 0.7902701497077942 0.9590440988540649
vt 0.9900000095367432 0.9635430574417114
vt 0.9900000095367432 0.8443613648414612
vt 0.7902701497077942 0.8443613648414612
vt 0.6937830448150635 0.5623024106025696
vt 0.6937830448150635 0.82234787940979
vt 0.7862318754196167 0.8224270343780518
vt 0.7895936965942383 0.331823468208313
vt 0.6937830448150635 0.3316349983215332
vt 0.7870454788208008 -0.00039017200469970703
vt 0.6937830448150635 -0.0006959438323974609
vt 0.7902701497077942 0.0033943653106689453
vt 0.7902701497077942 0.33533674478530884
vt 0.9900000095367432 0.0033943653106689453
vt 0.9900000095367432 0.33533674478530884
vt 0.7902701497077942 0.6673595905303955
vt 0.9900000095367432 0.6673595905303955
vt 0.7902701497077942 0.8443613648414612
vt 0.9900000095367432 0.8443613648414612
vt 0.7902701497077942 0.8443613648414612
vt 0.7902701497077942 0.6666123867034912
vt 0.9900000095367432 0.8443613648414612
vt 0.9900000095367432 0.6666123867034912
vt 0.7902701497077942 0.3336050510406494
vt 0.9900000095367432 0.3336050510406494
vt 0.7902701497077942 0.0004995465278625488
vt 0.9900000095367432 0.0004995465278625488
vt 0.7006423473358154 0.774329662322998
vt 0.7006423473358154 0.8998575806617737
vt 0.4088224768638611 0.9651889801025391
vt 0.7006423473358154 0.0004994869232177734
vt 0.7006423473358154 0.3312908411026001
vt 0.08247697353363037 0.0016217231750488281
vt 0.08247697353363037 0.3319622278213501
vt 0.08247697353363037 0.7746193408966064
vt 0.08247697353363037 0.8856667280197144
vt 0.7815859317779541 0.3340073823928833
vt 0.6937830448150635 0.0014584064483642578
vt 0.7805750966072083 0.0011774301528930664
vt 0.6937830448150635 0.3341769576072693
vt 0.7855216264724731 0.8251422643661499
vt 0.6937830448150635 0.8252180814743042
vt 0.6937830448150635 0.5469807982444763
vt 0.7845258116722107 0.6321406960487366
vt 0.7748687863349915 0.49634838104248047
vt 0.6926631927490234 0.9140686392784119
vt 0.7791953086853027 0.7519572377204895
vt 0.7830785512924194 0.9204499125480652
vt 0.7774090766906738 0.7561673521995544
vt 0.7745517492294312 0.5084860920906067
vt 0.6937830448150635 0.5623024106025696
vt 0.6937830448150635 -0.0006959438323974609
vt 0.6937830448150635 0.3316349983215332
vt 0.7870454788208008 -0.00039017200469970703
vt 0.7895936965942383 0.331823468208313
vt 0.6937830448150635 0.82234787940979
vt 0.7862318754196167 0.8224270343780518
vt 0.7791255712509155 0.637296736240387
vt 0.6937830448150635 0.0014584064483642578
vt 0.7815859317779541 0.3340073823928833
vt 0.7805750966072083 0.0011774301528930664
vt 0.6937830448150635 0.3341769576072693
vt 0.7855216264724731 0.8251422643661499
vt 0.6937830448150635 0.8252180814743042
vt 0.6937830448150635 0.5469807982444763
vt 0.7845258116722107 0.6321406960487366
vt 0.7748687863349915 0.49634838104248047
vt 0.6926631927490234 0.9140686392784119
vt 0.7791953086853027 0.7519572377204895
vt 0.7830785512924194 0.9204499125480652
vt 0.7791255712509155 0.637296736240387
vt 0.7745517492294312 0.5084860920906067
vt 0.7774090766906738 0.7561673521995544
vt 0.7805750966072083 0.0011774301528930664
vt 0.9900000095367432 0.33360493183135986
vt 0.7815859317779541 0.3340073823928833
vt 0.9900000095367432 0.0004994869232177734
vt 0.9900000095367432 0.8249733448028564
vt 0.7855216264724731 0.8251422643661499
vt 0.7845258116722107 0.6321406960487366
vt 0.7748687863349915 0.49634838104248047
vt 0.9860098361968994 0.3645055890083313
vt 0.7791953086853027 0.7519572377204895
vt 0.9769871830940247 0.934135377407074
vt 0.7830785512924194 0.9204499125480652
vt 0.7774090766906738 0.7561673521995544
vt 0.9859299659729004 0.36764436960220337
vt 0.7745517492294312 0.5084860920906067
vt 0.7791255712509155 0.637296736240387
vt 0.9900000095367432 0.8226014375686646
vt 0.7862318754196167 0.8224270343780518
vt 0.9900000095367432 0.3322175145149231
vt 0.7895936965942383 0.331823468208313
vt 0.9900000095367432 0.0002751946449279785
vt 0.7870454788208008 -0.00039017200469970703
vt 0.9900000095367432 0.8249733448028564
vt 0.7815859317779541 0.3340073823928833
vt 0.7855216264724731 0.8251422643661499
vt 0.9900000095367432 0.33360493183135986
vt 0.7805750966072083 0.0011774301528930664
vt 0.9900000095367432 0.0004994869232177734
vt 0.7774090766906738 0.7561673521995544
vt 0.9769871830940247 0.934135377407074
vt 0.7830785512924194 0.9204499125480652
vt 0.7791953086853027 0.7519572377204895
vt 0.9860098361968994 0.3645055890083313
vt 0.7748687863349915 0.49634838104248047
vt 0.7845258116722107 0.6321406960487366
vt 0.9859299659729004 0.36764436960220337
vt 0.9900000095367432 0.0002751946449279785
vt 0.7895936965942383 0.331823468208313
vt 0.7870454788208008 -0.00039017200469970703
vt 0.9900000095367432 0.3322175145149231
vt 0.7862318754196167 0.8224270343780518
vt 0.9900000095367432 0.8226014375686646
vt 0.7791255712509155 0.637296736240387
vt 0.7745517492294312 0.5084860920906067
vt 0.08631318807601929 0.3312908411026001
vt 0.08631318807601929 0.0004994869232177734
vt 0.7044785618782043 0.0016217231750488281
vt 0.7044785618782043 0.3319622278213501
vt 0.7044785618782043 0.7746193408966064
vt 0.7044785618782043 0.8856667280197144
g Geoset0
s 1
usemtl mat_hellfire_humangrave_01
f 1/1/1 2/2/2 3/3/3
f 4/4/4 5/5/5 6/6/6
f 6/6/6 7/7/7 4/4/4
f 6/6/6 8/8/8 7/7/7
f 9/9/9 8/8/8 6/6/6
f 10/10/10 11/11/11 12/12/12
f 11/11/11 13/13/13 12/12/12
f 11/11/11 14/14/14 13/13/13
f 14/14/14 15/15/15 13/13/13
f 14/14/14 16/16/16 15/15/15
f 17/17/17 18/18/18 19/19/19
f 20/20/20 19/19/19 18/18/18
f 18/18/18 21/21/21 20/20/20
f 22/22/22 20/20/20 21/21/21
f 21/21/21 23/23/23 22/22/22
f 24/24/24 22/22/22 23/23/23
f 25/25/25 26/26/26 27/27/27
f 28/28/28 27/27/27 26/26/26
f 26/26/26 29/29/29 28/28/28
f 30/30/30 28/28/28 29/29/29
f 29/29/29 31/31/31 30/30/30
f 32/32/32 30/30/30 31/31/31
f 33/33/33 34/34/34 35/35/35
f 36/36/36 37/37/37 38/38/38
f 39/39/39 38/38/38 37/37/37
f 37/37/37 33/33/33 39/39/39
f 40/40/40 39/39/39 33/33/33
f 35/35/35 40/40/40 33/33/33
f 41/41/41 40/40/40 35/35/35
f 42/42/42 43/43/43 44/44/44
f 45/45/45 43/43/43 42/42/42
f 46/46/46 45/45/45 42/42/42
f 47/47/47 45/45/45 46/46/46
f 46/46/46 48/48/48 47/47/47
f 49/49/49 48/48/48 46/46/46
f 49/49/49 50/50/50 48/48/48
f 48/48/48 50/50/50 51/51/51
f 50/50/50 52/52/52 51/51/51
f 51/51/51 52/52/52 53/53/53
f 53/53/53 54/54/54 51/51/51
f 54/54/54 55/55/55 51/51/51
f 55/55/55 56/56/56 51/51/51
f 57/57/57 58/58/58 59/59/59
f 59/59/59 58/58/58 60/60/60
f 58/58/58 61/61/61 60/60/60
f 60/60/60 61/61/61 62/62/62
f 61/61/61 56/56/56 62/62/62
f 62/62/62 56/56/56 63/63/63
f 56/56/56 55/55/55 63/63/63
f 64/64/64 65/65/65 66/66/66
f 64/64/64 67/67/67 65/65/65
f 67/67/67 68/68/68 65/65/65
f 67/67/67 69/69/69 68/68/68
f 70/70/70 68/68/68 69/69/69
f 70/70/70 71/71/71 68/68/68
f 72/72/72 71/71/71 70/70/70
f 72/72/72 70/70/70 73/73/73
f 74/74/74 72/72/72 73/73/73
f 74/74/74 73/73/73 75/75/75
f 10/10/10 12/12/12 76/76/76
f 77/77/77 10/10/10 76/76/76
f 10/10/10 77/77/77 73/73/73
f 77/77/77 78/78/78 73/73/73
f 78/78/78 75/75/75 73/73/73
f 79/79/79 80/80/80 81/81/81
f 82/82/82 80/80/80 79/79/79
f 81/81/81 83/83/83 84/84/84
f 80/80/80 83/83/83 81/81/81
f 83/83/83 85/85/85 84/84/84
f 83/83/83 86/86/86 85/85/85
f 83/83/83 87/87/87 86/86/86
f 86/86/86 87/87/87 88/88/88
f 88/88/88 87/87/87 89/89/89
f 90/90/90 88/88/88 89/89/89
f 89/89/89 91/91/91 90/90/90
f 89/89/89 92/92/92 91/91/91
f 92/92/92 93/93/93 91/91/91
f 93/93/93 92/92/92 94/94/94
f 94/94/94 92/92/92 95/95/95
f 96/96/96 94/94/94 95/95/95
f 95/95/95 97/97/97 96/96/96
f 96/96/96 97/97/97 98/98/98
f 97/97/97 99/99/99 98/98/98
f 98/98/98 99/99/99 100/100/100
f 101/101/101 102/102/102 103/103/103
f 101/101/101 104/104/104 102/102/102
f 104/104/104 105/105/105 102/102/102
f 104/104/104 106/106/106 105/105/105
f 107/107/107 108/108/108 109/109/109
f 110/110/110 109/109/109 108/108/108
f 111/111/111 110/110/110 108/108/108
f 111/111/111 112/112/112 110/110/110
f 111/111/111 101/101/101 112/112/112
f 112/112/112 101/101/101 113/113/113
f 113/113/113 101/101/101 103/103/103
f 114/114/114 108/108/108 107/107/107
f 115/115/115 116/116/116 117/117/117
f 115/115/115 118/118/118 116/116/116
f 118/118/118 119/119/119 116/116/116
f 118/118/118 120/120/120 119/119/119
f 121/121/121 119/119/119 120/120/120
f 114/114/114 121/121/121 120/120/120
f 114/114/114 122/122/122 121/121/121
f 122/122/122 114/114/114 107/107/107
f 123/123/123 124/124/124 125/125/125
f 125/125/125 126/126/126 123/123/123
f 2/2/2 123/123/123 126/126/126
f 126/126/126 127/127/127 2/2/2
f 127/127/127 3/3/3 2/2/2
f 127/127/127 128/128/128 3/3/3
