# Exported using wow.export v0.1.64
o gnomehazardlightred
mtllib gnomehazardlightred.mtl
v 0.12458916753530502 0.07910893112421036 0.12403861433267593
v 0.17596401274204254 0.07910945266485214 0.00000873779208632186
v 0.001271952292881906 0.07921091467142105 -0.16192515194416046
v 0.0012181135825812817 0.32420584559440613 -0.12645979225635529
v -0.13750393688678741 0.3242555856704712 -0.0006899505970068276
v -0.17484551668167114 0.07910910248756409 0.000008753127076488454
v 0.17596401274204254 0.07910945266485214 0.00000873779208632186
v 0.13863813877105713 0.3242555558681488 -0.0006899626459926367
v 0.001271952292881906 0.07921091467142105 -0.16192515194416046
v 0.0012181135825812817 0.32420584559440613 -0.12645979225635529
v -0.09706387668848038 0.3242555558681488 0.0969410091638565
v -0.13750393688678741 0.3242555856704712 -0.0006899505970068276
v 0.0005671262042596936 0.3242555558681488 0.13738106191158295
v 0.09819810837507248 0.3242555558681488 0.09694097191095352
v 0.13863813877105713 0.3242555558681488 -0.0006899626459926367
v -0.0004257841792423278 0.2014908343553543 -0.0745205283164978
v -0.1232101246714592 0.1506318897008896 -0.024720320478081703
v -0.051284708082675934 0.07870650291442871 -0.024720324203372
v 0.050433192402124405 0.0787065401673317 -0.02472032606601715
v -0.00042578409193083644 0.2014908343553543 -0.09950922429561615
v -0.12321013957262039 0.25234976410865784 -0.02472030743956566
v -0.05128474161028862 0.3242751657962799 -0.024720316752791405
v 0.05043315514922142 0.3242751955986023 -0.024720318615436554
v 0.12235856056213379 0.2523497939109802 -0.024720320478081703
v 0.12235856056213379 0.15063191950321198 -0.024720335379242897
v -0.12347066402435303 0.07910910993814468 -0.12402117252349854
v -0.17484551668167114 0.07910910248756409 0.000008753127076488454
v -0.13750393688678741 0.3242555856704712 -0.0006899505970068276
v 0.0005592354573309422 -0.0026678333524614573 -0.19470663368701935
v -0.13712531328201294 -0.0026678333524614573 -0.13767579197883606
v -0.19415611028671265 -0.0026678333524614573 0.000008763868208916392
v -0.12347064167261124 0.07910893112421036 0.12403862923383713
v -0.13712529838085175 -0.0026678333524614573 0.13769330084323883
v 0.000559266482014209 0.07910893112421036 0.17541350424289703
v 0.0005592695088125765 -0.0026678333524614573 0.19472408294677734
v 0.12458916753530502 0.07910893112421036 0.12403861433267593
v 0.13824382424354553 -0.0026678333524614573 0.13769327104091644
v 0.17596401274204254 0.07910945266485214 0.00000873779208632186
v 0.19527460634708405 -0.0026678333524614573 0.00000874684610607801
v 0.12458913773298264 0.07910910993814468 -0.12402117252349854
v 0.13824379444122314 -0.0026678333524614573 -0.13767580687999725
v 0.0005592358065769076 0.07910910993814468 -0.17539605498313904
v 0.09819809347391129 0.3242555558681488 -0.09832095354795456
v 0.0005671021644957364 0.3242555558681488 -0.1387610286474228
v -0.09706386923789978 0.3242555558681488 -0.09832093864679337
v 0.0005634850822389126 0.37941014766693115 -0.13739632070064545
v -0.09659657627344131 0.37941014766693115 -0.09715129435062408
v -0.1368415653705597 0.37941014766693115 0.00000876276953931665
v 0.0005634902627207339 0.4057827293872833 0.000008752947906032205
v 0.09772353619337082 0.37941014766693115 -0.09715129435062408
v 0.13863813877105713 0.3242555558681488 -0.0006899626459926367
v 0.09819810837507248 0.3242555558681488 0.09694097191095352
v 0.1379685252904892 0.3794102966785431 0.000008750756933295634
v 0.09772355854511261 0.37940993905067444 0.09716878086328506
v -0.09706387668848038 0.3242555558681488 0.0969410091638565
v -0.09659654647111893 0.37940993905067444 0.09716879576444626
v 0.0005635091220028698 0.37940993905067444 0.13741378486156464
v 0.0005671262042596936 0.3242555558681488 0.13738106191158295
v 0.000559266482014209 0.07910893112421036 0.17541350424289703
v -0.12347064167261124 0.07910893112421036 0.12403862923383713
v -0.17484551668167114 0.07910910248756409 0.000008753127076488454
v -0.0328017957508564 0.2796533405780792 -0.045274101197719574
v -0.0785883367061615 0.23386675119400024 -0.04527410864830017
v -0.9966021776199341 0.614119827747345 2.3049001693725586
v 0.12150774896144867 0.25199735164642334 -0.02361317351460457
v 0.41894909739494324 1.2139517068862915 1.116510272026062
v 1.0120350122451782 0.6208661198616028 1.1165101528167725
v 0.12150776386260986 0.15098430216312408 -0.02361316606402397
v 0.050080735236406326 0.3234243094921112 -0.02361317351460457
v -0.41980093717575073 1.2139517068862915 1.116510272026062
v -0.05093233659863472 0.3234243094921112 -0.023613164201378822
v -1.0128867626190186 0.6208658814430237 1.1165103912353516
v -0.12235932797193527 0.25199729204177856 -0.023613153025507927
v -1.0128865242004395 -0.21788401901721954 1.1165103912353516
v -0.12235931307077408 0.1509842425584793 -0.02361314743757248
v -0.4198005795478821 -0.8109695315361023 1.1165105104446411
v -0.050932276993989944 0.07955727726221085 -0.02361314743757248
v 0.41894933581352234 -0.8109691739082336 1.116510272026062
v 0.05008077248930931 0.07955729216337204 -0.023613156750798225
v 1.0120352506637573 -0.21788373589515686 1.116510272026062
v -0.996601939201355 -0.21113958954811096 2.3049001693725586
v -0.0785883292555809 0.16911478340625763 -0.04527411237359047
v -0.4130549728870392 -0.794685959815979 2.3049001693725586
v -0.032801736146211624 0.12332824617624283 -0.04527411609888077
v 0.4122045636177063 -0.7946855425834656 2.3049001693725586
v 0.03195023164153099 0.12332827597856522 -0.04527411609888077
v 0.9957507252693176 -0.21113908290863037 2.3049001693725586
v 0.07773677259683609 0.1691148430109024 -0.04527411237359047
v 0.9957504272460938 0.6141203045845032 2.3049001693725586
v 0.0777367427945137 0.23386679589748383 -0.04527410864830017
v 0.0777367427945137 0.23386679589748383 -0.04527410864830017
v 0.41220369935035706 1.1976667642593384 2.3049004077911377
v 0.9957504272460938 0.6141203045845032 2.3049001693725586
v 0.031950175762176514 0.2796533405780792 -0.045274101197719574
v -0.4130557179450989 1.1976665258407593 2.3049004077911377
vn 0.4943622946739197 0.7149773836135864 0.4943816661834717
vn 0.7786303758621216 0.6171762943267822 0.11326137185096741
vn -0.0016954416641965508 0.5278911590576172 0.8493103384971619
vn -0.0017192396335303783 -0.6343397498130798 0.773052453994751
vn -0.8613963723182678 -0.4812820255756378 0.16236969828605652
vn -0.7793974280357361 0.6160501837730408 0.11411340534687042
vn 0.7786303758621216 0.6171762943267822 0.11326137185096741
vn 0.8606618046760559 -0.48305606842041016 0.16099099814891815
vn -0.0016954416641965508 0.5278911590576172 0.8493103384971619
vn -0.0017192396335303783 -0.6343397498130798 0.773052453994751
vn -0.550872266292572 -0.6290357112884521 0.5485014319419861
vn -0.8613963723182678 -0.4812820255756378 0.16236969828605652
vn 0.000012440066711860709 -0.6304271817207336 0.7762483954429626
vn 0.5509047508239746 -0.6290006637573242 0.5485090017318726
vn 0.8606618046760559 -0.48305606842041016 0.16099099814891815
vn 7.353408193466748e-8 -1.7602186375142992e-8 1
vn -0.8652899861335754 -0.35841503739356995 0.35044530034065247
vn -0.3584146499633789 -0.8652902245521545 0.35044506192207336
vn 0.3584151864051819 -0.8652899265289307 0.3504452109336853
vn -4.948900667045564e-8 1.3575178314795266e-8 -1
vn -0.8652901649475098 0.35841473937034607 0.3504451811313629
vn -0.3584151566028595 0.8652899861335754 0.3504452109336853
vn 0.3584146797657013 0.8652900457382202 0.3504454493522644
vn 0.8652902245521545 0.35841497778892517 0.3504447042942047
vn 0.8652902841567993 -0.35841482877731323 0.35044485330581665
vn -0.6942049860954285 0.1912873387336731 -0.6938937902450562
vn -0.7793974280357361 0.6160501837730408 0.11411340534687042
vn -0.8613963723182678 -0.4812820255756378 0.16236969828605652
vn -3.410149318483491e-8 0.2298167496919632 -0.9732339382171631
vn -0.6881804466247559 0.22981663048267365 -0.6881802082061768
vn -0.9732338786125183 0.22981689870357513 2.152974758473647e-7
vn -0.4943625032901764 0.7149778604507446 0.49438080191612244
vn -0.688180148601532 0.2298174649477005 0.6881802082061768
vn 5.15782172527679e-9 0.7149887681007385 0.699135959148407
vn 1.1346329387151854e-7 0.2298172563314438 0.9732338190078735
vn 0.4943622946739197 0.7149773836135864 0.4943816661834717
vn 0.6881800889968872 0.2298172414302826 0.6881803274154663
vn 0.7786303758621216 0.6171762943267822 0.11326137185096741
vn 0.9732339978218079 0.22981636226177216 -1.3909783547205734e-7
vn 0.6942042112350464 0.19126641750335693 -0.6939003467559814
vn 0.6881803274154663 0.22981689870357513 -0.6881802678108215
vn -0.0000034973463698406704 0.19089074432849884 -0.9816113114356995
vn 0.7035359144210815 0.08636465668678284 -0.7053923606872559
vn 0.000011828853530460037 0.08775797486305237 -0.9961418509483337
vn -0.7035253643989563 0.08634170144796371 -0.7054056525230408
vn -0.000011409595572331455 0.579680860042572 -0.8148435950279236
vn -0.5780418515205383 0.5781760811805725 -0.575829803943634
vn -0.818439781665802 0.5745880603790283 0.0022002384066581726
vn -2.938075169822696e-7 1 7.432034863086301e-7
vn 0.578011691570282 0.5782131552696228 -0.5758228898048401
vn 0.8606618046760559 -0.48305606842041016 0.16099099814891815
vn 0.5509047508239746 -0.6290006637573242 0.5485090017318726
vn 0.8184024691581726 0.5746412873268127 0.0022000931203365326
vn 0.5793620944023132 0.5710621476173401 0.5815733671188354
vn -0.550872266292572 -0.6290357112884521 0.5485014319419861
vn -0.5793916583061218 0.571025550365448 0.581579864025116
vn -0.000011300699952698778 0.5695690512657166 0.821943461894989
vn 0.000012440066711860709 -0.6304271817207336 0.7762483954429626
vn 5.15782172527679e-9 0.7149887681007385 0.699135959148407
vn -0.4943625032901764 0.7149778604507446 0.49438080191612244
vn -0.7793974280357361 0.6160501837730408 0.11411340534687042
vn -0.3524743616580963 0.8509476184844971 -0.38942259550094604
vn -0.8509477972984314 0.3524738550186157 -0.3894226551055908
vn -0.8509478569030762 0.35247376561164856 -0.38942259550094604
vn 0.7055270671844482 0.2922389805316925 -0.6456221342086792
vn 0.29223886132240295 0.705527126789093 -0.6456220746040344
vn 0.7055270671844482 0.2922389805316925 -0.6456221342086792
vn 0.7055271863937378 -0.29223886132240295 -0.6456220149993896
vn 0.29223889112472534 0.705527126789093 -0.6456221342086792
vn -0.2922390103340149 0.7055270075798035 -0.645622193813324
vn -0.2922390103340149 0.7055269479751587 -0.6456222534179688
vn -0.7055271863937378 0.292238712310791 -0.6456220746040344
vn -0.7055271863937378 0.292238712310791 -0.6456220746040344
vn -0.7055271863937378 -0.29223915934562683 -0.6456219553947449
vn -0.705527126789093 -0.29223909974098206 -0.6456220149993896
vn -0.2922387719154358 -0.7055274248123169 -0.6456218361854553
vn -0.2922387719154358 -0.7055273652076721 -0.6456218957901001
vn 0.2922389507293701 -0.7055273056030273 -0.6456218957901001
vn 0.2922390103340149 -0.7055272459983826 -0.6456219553947449
vn 0.7055271863937378 -0.29223892092704773 -0.6456220149993896
vn -0.8509476184844971 -0.3524741232395172 -0.38942280411720276
vn -0.8509475588798523 -0.35247430205345154 -0.38942277431488037
vn -0.3524738848209381 -0.8509476780891418 -0.38942286372184753
vn -0.3524737060070038 -0.8509477972984314 -0.38942286372184753
vn 0.352474182844162 -0.8509475588798523 -0.38942286372184753
vn 0.3524744510650635 -0.8509474992752075 -0.38942286372184753
vn 0.8509477376937866 -0.3524739444255829 -0.389422744512558
vn 0.8509477972984314 -0.3524736762046814 -0.38942280411720276
vn 0.8509476184844971 0.3524743914604187 -0.38942262530326843
vn 0.8509476184844971 0.3524743914604187 -0.38942262530326843
vn 0.8509476184844971 0.3524743914604187 -0.38942262530326843
vn 0.35247403383255005 0.8509477972984314 -0.38942256569862366
vn 0.8509476184844971 0.3524743914604187 -0.38942262530326843
vn 0.3524738550186157 0.8509478569030762 -0.38942259550094604
vn -0.352474182844162 0.8509477376937866 -0.38942259550094604
vt 0.2051829993724823 0.4257786273956299
vt 0.20520243048667908 0.5100514888763428
vt 0.011313170194625854 0.3417283296585083
vt 0.003930479288101196 0.5714230537414551
vt 0.2083280086517334 0.5705130100250244
vt 0.20823854207992554 0.16255658864974976
vt 0.20822036266326904 0.16255712509155273
vt 0.20830947160720825 0.5705130100250244
vt 0.0035234391689300537 0.16269391775131226
vt 0.010792046785354614 0.34182286262512207
vt 0.20517995953559875 0.2566670775413513
vt 0.2051938772201538 0.17073220014572144
vt 0.2051587700843811 0.34101974964141846
vt 0.20517995953559875 0.4266604781150818
vt 0.2051938772201538 0.5113075971603394
vt 0.007074981927871704 0.775779664516449
vt 0.12136925756931305 0.8900735974311829
vt 0.007074825465679169 0.9369853138923645
vt 0.12032952904701233 0.8900735974311829
vt 0.007074981927871704 0.775779664516449
vt 0.1682806760072708 0.775779664516449
vt 0.12136910855770111 0.8890340328216553
vt 0.007074981927871704 0.935945451259613
vt 0.12032952904701233 0.8890340328216553
vt 0.1672409325838089 0.7757794260978699
vt 0.5963964462280273 0.13115441799163818
vt 0.2222651243209839 0.13115441799163818
vt 0.22167342901229858 0.7146274447441101
vt 0.9932907223701477 0.00417327880859375
vt 0.5963959097862244 0.00417327880859375
vt 0.22226297855377197 0.00417327880859375
vt 0.5963964462280273 0.13115417957305908
vt 0.5963959097862244 0.00417327880859375
vt 0.9932892918586731 0.13115417957305908
vt 0.9932907223701477 0.00417327880859375
vt 0.5964859127998352 0.13115417957305908
vt 0.5964843034744263 0.00417327880859375
vt 0.2223866581916809 0.13115501403808594
vt 0.22238311171531677 0.00417327880859375
vt 0.5964859127998352 0.13115441799163818
vt 0.5964843034744263 0.00417327880859375
vt 0.9932892918586731 0.13115441799163818
vt 0.5960484147071838 0.7146274447441101
vt 0.993984580039978 0.7146274447441101
vt 0.5959562659263611 0.7146274447441101
vt 0.993984580039978 0.8057950735092163
vt 0.5958976149559021 0.8057950735092163
vt 0.22026124596595764 0.8057950735092163
vt 0.993984580039978 0.9864293336868286
vt 0.5959906578063965 0.8057950735092163
vt 0.22179782390594482 0.7146274447441101
vt 0.5960484147071838 0.7146274447441101
vt 0.22125178575515747 0.8057953715324402
vt 0.5959906578063965 0.805794894695282
vt 0.5959562659263611 0.7146274447441101
vt 0.5958976149559021 0.805794894695282
vt 0.993984580039978 0.805794894695282
vt 0.993984580039978 0.7146274447441101
vt 0.2051592767238617 0.34104156494140625
vt 0.2051829993724823 0.2575923204421997
vt 0.20520243048667908 0.17203164100646973
vt 0.24577298760414124 1.0005085468292236
vt 0.37077298760414124 1.0005085468292236
vt 0.37077298760414124 0.0005085468292236328
vt 0.9842442274093628 1.002415418624878
vt 0.7398816347122192 0.002415478229522705
vt 0.9842442274093628 0.002415478229522705
vt 0.7398816347122192 1.002415418624878
vt 0.7398816347122192 1.002415418624878
vt 0.49551907181739807 0.002415478229522705
vt 0.49551907181739807 1.002415418624878
vt 0.25115659832954407 0.002415478229522705
vt 0.25115659832954407 1.002415418624878
vt 0.006794125307351351 0.002415478229522705
vt 0.006794125307351351 1.002415418624878
vt 0.25115659832954407 0.002415478229522705
vt 0.25115659832954407 1.002415418624878
vt 0.49551907181739807 0.002415478229522705
vt 0.49551907181739807 1.002415418624878
vt 0.7398816347122192 0.002415478229522705
vt 0.49577298760414124 0.0005085468292236328
vt 0.49577298760414124 1.0005085468292236
vt 0.6207729578018188 0.0005085468292236328
vt 0.6207729578018188 1.0005085468292236
vt 0.7457729578018188 0.0005085468292236328
vt 0.7457729578018188 1.0005085468292236
vt 0.8707729578018188 0.0005085468292236328
vt 0.8707729578018188 1.0005085468292236
vt 0.9957729578018188 0.0005085468292236328
vt 0.9957729578018188 1.0005085468292236
vt -0.004227049648761749 1.0005085468292236
vt 0.12077298015356064 0.0005085468292236328
vt -0.004227049648761749 0.0005085468292236328
vt 0.12077298015356064 1.0005085468292236
vt 0.24577298760414124 0.0005085468292236328
g Geoset0
s 1
usemtl mat_hazardlightred
f 1/1/1 2/2/2 3/3/3
f 4/4/4 5/5/5 6/6/6
f 4/4/4 7/7/7 8/8/8
f 7/7/7 4/4/4 9/9/9
f 6/6/6 9/9/9 4/4/4
f 10/10/10 11/11/11 12/12/12
f 10/10/10 13/13/13 11/11/11
f 10/10/10 14/14/14 13/13/13
f 15/15/15 14/14/14 10/10/10
f 16/16/16 17/17/17 18/18/18
f 16/16/16 18/18/18 19/19/19
f 20/20/20 19/19/19 18/18/18
f 20/20/20 18/18/18 17/17/17
f 20/20/20 17/17/17 21/21/21
f 16/16/16 21/21/21 17/17/17
f 16/16/16 22/22/22 21/21/21
f 16/16/16 23/23/23 22/22/22
f 20/20/20 24/24/24 25/25/25
f 20/20/20 25/25/25 19/19/19
f 16/16/16 19/19/19 25/25/25
f 16/16/16 25/25/25 24/24/24
f 16/16/16 24/24/24 23/23/23
f 20/20/20 23/23/23 24/24/24
f 20/20/20 22/22/22 23/23/23
f 20/20/20 21/21/21 22/22/22
f 26/26/26 27/27/27 28/28/28
f 29/29/29 30/30/30 26/26/26
f 27/27/27 26/26/26 30/30/30
f 30/30/30 31/31/31 27/27/27
f 32/32/32 27/27/27 31/31/31
f 31/31/31 33/33/33 32/32/32
f 34/34/34 32/32/32 33/33/33
f 33/33/33 35/35/35 34/34/34
f 36/36/36 34/34/34 35/35/35
f 35/35/35 37/37/37 36/36/36
f 38/38/38 36/36/36 37/37/37
f 37/37/37 39/39/39 38/38/38
f 40/40/40 38/38/38 39/39/39
f 39/39/39 41/41/41 40/40/40
f 42/42/42 40/40/40 41/41/41
f 38/38/38 40/40/40 43/43/43
f 44/44/44 43/43/43 40/40/40
f 40/40/40 42/42/42 44/44/44
f 45/45/45 44/44/44 42/42/42
f 43/43/43 44/44/44 46/46/46
f 47/47/47 46/46/46 44/44/44
f 44/44/44 45/45/45 47/47/47
f 48/48/48 47/47/47 45/45/45
f 49/49/49 47/47/47 48/48/48
f 49/49/49 46/46/46 47/47/47
f 49/49/49 50/50/50 46/46/46
f 46/46/46 50/50/50 43/43/43
f 51/51/51 43/43/43 50/50/50
f 43/43/43 51/51/51 38/38/38
f 52/52/52 51/51/51 53/53/53
f 50/50/50 53/53/53 51/51/51
f 49/49/49 53/53/53 50/50/50
f 49/49/49 54/54/54 53/53/53
f 53/53/53 54/54/54 52/52/52
f 28/28/28 55/55/55 56/56/56
f 57/57/57 56/56/56 55/55/55
f 55/55/55 58/58/58 57/57/57
f 58/58/58 52/52/52 54/54/54
f 54/54/54 57/57/57 58/58/58
f 49/49/49 57/57/57 54/54/54
f 49/49/49 56/56/56 57/57/57
f 49/49/49 48/48/48 56/56/56
f 56/56/56 48/48/48 28/28/28
f 45/45/45 28/28/28 48/48/48
f 28/28/28 45/45/45 26/26/26
f 42/42/42 26/26/26 45/45/45
f 26/26/26 42/42/42 29/29/29
f 41/41/41 29/29/29 42/42/42
f 3/3/3 59/59/59 1/1/1
f 60/60/60 59/59/59 3/3/3
f 61/61/61 60/60/60 3/3/3
g Geoset1
s 1
usemtl mat_hazardlightbeam
f 62/62/62 63/63/63 64/64/64
f 65/65/65 66/66/66 67/67/67
f 68/68/68 65/65/65 67/67/67
f 65/65/65 69/69/69 66/66/66
f 69/69/69 70/70/70 66/66/66
f 69/69/69 71/71/71 70/70/70
f 71/71/71 72/72/72 70/70/70
f 71/71/71 73/73/73 72/72/72
f 73/73/73 74/74/74 72/72/72
f 73/73/73 75/75/75 74/74/74
f 75/75/75 76/76/76 74/74/74
f 75/75/75 77/77/77 76/76/76
f 77/77/77 78/78/78 76/76/76
f 77/77/77 79/79/79 78/78/78
f 79/79/79 80/80/80 78/78/78
f 79/79/79 68/68/68 80/80/80
f 68/68/68 67/67/67 80/80/80
f 63/63/63 81/81/81 64/64/64
f 63/63/63 82/82/82 81/81/81
f 82/82/82 83/83/83 81/81/81
f 82/82/82 84/84/84 83/83/83
f 84/84/84 85/85/85 83/83/83
f 84/84/84 86/86/86 85/85/85
f 86/86/86 87/87/87 85/85/85
f 86/86/86 88/88/88 87/87/87
f 88/88/88 89/89/89 87/87/87
f 88/88/88 90/90/90 89/89/89
f 91/91/91 92/92/92 93/93/93
f 91/91/91 94/94/94 92/92/92
f 94/94/94 95/95/95 92/92/92
f 94/94/94 62/62/62 95/95/95
f 62/62/62 64/64/64 95/95/95
