# Exported using wow.export v0.1.64
o taurenrug04
mtllib taurenrug04.mtl
v -1.369892954826355 0.0162641778588295 1.023707628250122
v -1.4057518243789673 0.08159827440977097 0.9763867259025574
v -1.4595229625701904 0.0174996480345726 0.946639895439148
v 1.4513425827026367 0.0174996480345726 0.9466400146484375
v 1.3975714445114136 0.08159827440977097 0.9763868451118469
v 1.3617125749588013 0.016264179721474648 1.0237077474594116
v 1.3617126941680908 0.016264190897345543 -1.061469554901123
v 1.3975716829299927 0.08159828186035156 -1.0141485929489136
v 1.4513427019119263 0.017499657347798347 -0.9844018220901489
v -1.4595229625701904 0.017499646171927452 -0.9844018220901489
v -1.4057518243789673 0.08159825950860977 -1.0141485929489136
v -1.369892954826355 0.016264179721474648 -1.061469554901123
v 1.3148435354232788 0.016955852508544922 0.8792188167572021
v 1.3975714445114136 0.08159827440977097 0.9763868451118469
v 1.4513425827026367 0.0174996480345726 0.9466400146484375
v 1.3617125749588013 0.016264179721474648 1.0237077474594116
v 1.4513425827026367 0.0174996480345726 0.9466400146484375
v 1.3617126941680908 0.016264190897345543 -1.061469554901123
v 1.4513427019119263 0.017499657347798347 -0.9844018220901489
v 1.2968162298202515 0.016956130042672157 -0.9133652448654175
v 1.3975716829299927 0.08159828186035156 -1.0141485929489136
v 1.4513427019119263 0.017499657347798347 -0.9844018220901489
v -1.3094063997268677 0.016956131905317307 -0.9133652448654175
v -1.4057518243789673 0.08159825950860977 -1.0141485929489136
v -1.4595229625701904 0.017499646171927452 -0.9844018220901489
v -1.369892954826355 0.016264179721474648 -1.061469554901123
v -1.4595229625701904 0.017499646171927452 -0.9844018220901489
v -1.4595229625701904 0.0174996480345726 0.946639895439148
v -1.4057518243789673 0.08159827440977097 0.9763867259025574
v -1.3146862983703613 0.016955865547060966 0.8591285347938538
v -1.369892954826355 0.0162641778588295 1.023707628250122
v -1.4595229625701904 0.0174996480345726 0.946639895439148
v -0.004600842017680407 0.01695585809648037 0.8626716732978821
v -0.004600842483341694 0.056298673152923584 -0.010587898083031178
v -1.3146862983703613 0.01695585809648037 0.8591285347938538
v -1.3462121486663818 0.016955994069576263 -0.0105879046022892
v -1.3094065189361572 0.016956130042672157 -0.9133654832839966
v 1.3148436546325684 0.01695585809648037 0.8792187571525574
v 1.3407179117202759 0.016955994069576263 -0.0105879046022892
v 1.2968164682388306 0.016956130042672157 -0.9133656024932861
v -0.004600842017680407 0.016956130042672157 -0.9014536738395691
vn -0.6386357545852661 0.18964044749736786 0.7457753419876099
vn -0.6386357545852661 0.18964044749736786 0.7457753419876099
vn -0.6386357545852661 0.18964046239852905 0.7457753419876099
vn 0.6386357545852661 0.18964050710201263 0.7457753419876099
vn 0.6386357545852661 0.18964049220085144 0.7457753419876099
vn 0.6386357545852661 0.18964049220085144 0.7457753419876099
vn 0.6386357545852661 0.18964044749736786 -0.7457754015922546
vn 0.6386357545852661 0.18964044749736786 -0.7457754015922546
vn 0.6386356949806213 0.18964046239852905 -0.7457754015922546
vn -0.6386357545852661 0.18964044749736786 -0.7457754015922546
vn -0.6386357545852661 0.18964044749736786 -0.7457754015922546
vn -0.6386357545852661 0.18964044749736786 -0.7457754015922546
vn -0.6438235640525818 -0.15970522165298462 -0.7483217716217041
vn -0.30368971824645996 0.8919907212257385 -0.33485090732574463
vn 0.400499552488327 -0.43335580825805664 -0.807343065738678
vn -0.8483671545982361 -0.45357823371887207 0.2730201482772827
vn 0.400499552488327 -0.43335580825805664 -0.807343065738678
vn -0.8097934722900391 -0.46890929341316223 -0.35264521837234497
vn 0.37847498059272766 -0.4293401837348938 0.820014476776123
vn -0.6952388286590576 -0.1443924903869629 0.7041262984275818
vn -0.25810113549232483 0.9096607565879822 0.32542455196380615
vn 0.37847498059272766 -0.4293401837348938 0.820014476776123
vn 0.6811056137084961 -0.14733350276947021 0.7172085046768188
vn 0.2685045301914215 0.9068153500556946 0.3249480724334717
vn -0.3872492015361786 -0.430968701839447 0.8150485157966614
vn 0.8203124403953552 -0.46508145332336426 -0.33284640312194824
vn -0.3872492015361786 -0.430968701839447 0.8150485157966614
vn -0.4641789495944977 -0.44562995433807373 -0.7654749155044556
vn 0.2833075225353241 0.915759265422821 -0.2848188281059265
vn 0.6155215501785278 -0.1391674429178238 -0.7757355570793152
vn 0.8448392152786255 -0.45498862862586975 0.28148192167282104
vn -0.4641789495944977 -0.44562995433807373 -0.7654749155044556
vn -0.00034414796391502023 0.9989866018295288 0.045007169246673584
vn -0.00008285274816444144 0.9999998807907104 0.0004317857965361327
vn -0.01863771118223667 0.9996792674064636 0.01714719645678997
vn -0.029312340542674065 0.9995703101158142 -0.00006444271275540814
vn -0.018259583041071892 0.9996857643127441 -0.01717473939061165
vn 0.018331442028284073 0.999687135219574 0.017018510028719902
vn 0.029231630265712738 0.9995726346969604 -0.0002783638483379036
vn 0.01824001595377922 0.9996844530105591 -0.017271418124437332
vn -5.285758675199759e-7 0.9990262985229492 -0.04411914199590683
vt 0.7180008888244629 0.9004518389701843
vt 0.7344845533370972 0.9232592582702637
vt 0.7004736661911011 0.9252327680587769
vt 0.7004736661911011 0.9252327680587769
vt 0.7344845533370972 0.9232592582702637
vt 0.7180008888244629 0.9004518389701843
vt 0.7180008888244629 0.9004518389701843
vt 0.7344845533370972 0.9232592582702637
vt 0.7004736661911011 0.9252327680587769
vt 0.7004736661911011 0.9252327680587769
vt 0.7344845533370972 0.9232592582702637
vt 0.7180008888244629 0.9004518389701843
vt 0.7163443565368652 0.8823723793029785
vt 0.7344845533370972 0.9232592582702637
vt 0.7004736661911011 0.9252327680587769
vt 0.7004736661911011 0.9252327680587769
vt 0.7344845533370972 0.9232592582702637
vt 0.7004736661911011 0.9252327680587769
vt 0.7344845533370972 0.9232592582702637
vt 0.7163443565368652 0.8823723793029785
vt 0.7344845533370972 0.9232592582702637
vt 0.7004736661911011 0.9252327680587769
vt 0.7163443565368652 0.8823723793029785
vt 0.7344845533370972 0.9232592582702637
vt 0.7004736661911011 0.9252327680587769
vt 0.7004736661911011 0.9252327680587769
vt 0.7344845533370972 0.9232592582702637
vt 0.7004736661911011 0.9252327680587769
vt 0.7344845533370972 0.9232592582702637
vt 0.7163443565368652 0.8823723793029785
vt 0.7004736661911011 0.9252327680587769
vt 0.7344845533370972 0.9232592582702637
vt 0.49992042779922485 0.0669127106666565
vt 0.7448269724845886 0.06590664386749268
vt 0.5005659461021423 0.5007128119468689
vt 0.7460346817970276 0.5024154186248779
vt 0.5005693435668945 0.5006564259529114
vt 0.5005406141281128 0.5007994771003723
vt 0.7460346817970276 0.5024154186248779
vt 0.5003610253334045 0.5007838606834412
vt 0.4999122619628906 0.06731599569320679
g Geoset0
s 1
usemtl mat_taurentapestries01
f 1/1/1 2/2/2 3/3/3
f 4/4/4 5/5/5 6/6/6
f 7/7/7 8/8/8 9/9/9
f 10/10/10 11/11/11 12/12/12
f 13/13/13 14/14/14 15/15/15
f 13/13/13 16/16/16 14/14/14
f 13/13/13 17/17/17 16/16/16
f 18/18/18 19/19/19 20/20/20
f 21/21/21 18/18/18 20/20/20
f 22/22/22 21/21/21 20/20/20
f 23/23/23 24/24/24 25/25/25
f 23/23/23 26/26/26 24/24/24
f 23/23/23 27/27/27 26/26/26
f 28/28/28 29/29/29 30/30/30
f 29/29/29 31/31/31 30/30/30
f 31/31/31 32/32/32 30/30/30
f 33/33/33 34/34/34 35/35/35
f 34/34/34 36/36/36 35/35/35
f 36/36/36 34/34/34 37/37/37
f 33/33/33 38/38/38 34/34/34
f 39/39/39 34/34/34 38/38/38
f 34/34/34 39/39/39 40/40/40
f 41/41/41 34/34/34 40/40/40
f 41/41/41 37/37/37 34/34/34
