# Exported using wow.export v0.1.64
o wc_basket01
mtllib wc_basket01.mtl
v 0 -0.005354642868041992 -0.00003406429459573701
v 0 -0.004468361381441355 0.18505974113941193
v -0.16328923404216766 -0.0044683353044092655 0.09251285344362259
v 0 0.509929358959198 -0.00003406389805604704
v 0.24904783070087433 0.4150642156600952 0.1410629004240036
v 0.24904775619506836 0.41506415605545044 -0.14113111793994904
v 0 0.4150642156600952 0.2821599543094635
v -0.25005266070365906 0.41506415605545044 0.14106294512748718
v -0.25005266070365906 0.41506415605545044 -0.14113107323646545
v 0 0.4150642454624176 -0.2822280824184418
v 0 0.1726306825876236 -0.2565740644931793
v -0.25005266070365906 0.41506415605545044 -0.14113107323646545
v 0 0.4150642454624176 -0.2822280824184418
v 0.22725704312324524 0.17263072729110718 -0.12830409407615662
v 0.24904775619506836 0.41506415605545044 -0.14113111793994904
v 0.22725704312324524 0.1726306676864624 0.12823590636253357
v 0.24904783070087433 0.4150642156600952 0.1410629004240036
v 0 0.1726306825876236 0.25650593638420105
v 0 0.4150642156600952 0.2821599543094635
v -0.2264706790447235 0.1726306527853012 0.12823595106601715
v -0.25005266070365906 0.41506415605545044 0.14106294512748718
v -0.2264706790447235 0.1726306527853012 -0.12830407917499542
v 0.1640755981206894 -0.0044683353044092655 -0.09258098155260086
v 0 -0.004468361381441355 -0.1851278841495514
v 0.16407562792301178 -0.0044683353044092655 0.0925128236413002
v 0 -0.004468361381441355 0.18505974113941193
v -0.16328923404216766 -0.0044683353044092655 0.09251285344362259
v -0.16328921914100647 -0.0044683353044092655 -0.09258095920085907
v 0 -0.004468361381441355 -0.1851278841495514
v 0.1640755981206894 -0.0044683353044092655 -0.09258098155260086
v 0.16407562792301178 -0.0044683353044092655 0.0925128236413002
v -0.16328921914100647 -0.0044683353044092655 -0.09258095920085907
vn -0.000008671480827615596 -1 -7.761138259843037e-11
vn -0.0000065033332248276565 -0.9999885559082031 0.004788227379322052
vn -0.004070875700563192 -0.999988853931427 0.002394113689661026
vn 0.0004701150755863637 0.9999998807907104 -2.3632354739788752e-8
vn 0.27125775814056396 0.9492154121398926 0.15940304100513458
vn 0.27125784754753113 0.9492153525352478 -0.1594032347202301
vn 0.0003512728726491332 0.9478735327720642 0.3186465799808502
vn -0.27026480436325073 0.949495792388916 0.15941977500915527
vn -0.2702648341655731 0.949495792388916 -0.1594197303056717
vn 0.0003513258707243949 0.9478735327720642 -0.31864655017852783
vn -0.005414415616542101 -0.24338588118553162 -0.969914436340332
vn -0.7473122477531433 -0.10674373805522919 -0.6558430790901184
vn 0.184531107544899 -0.10278431326150894 -0.9774373173713684
vn 0.8344449996948242 -0.2459593266248703 -0.4931587874889374
vn 0.9392499923706055 -0.10176670551300049 -0.32780027389526367
vn 0.8397915959358215 -0.2446737438440323 0.4846492111682892
vn 0.7477825284004211 -0.1025715321302414 0.6559728384017944
vn 0.004440224729478359 -0.2427956908941269 0.9700672626495361
vn -0.1838981956243515 -0.1040741577744484 0.9774200916290283
vn -0.8340896964073181 -0.24796468019485474 0.49275538325309753
vn -0.9383730292320251 -0.10863731056451797 0.32810667157173157
vn -0.8394210338592529 -0.24796028435230255 -0.48361971974372864
vn 0.6969733834266663 -0.37241053581237793 -0.6128119230270386
vn -0.17302502691745758 -0.36861172318458557 -0.9133387804031372
vn 0.8752933740615845 -0.3740856349468231 0.3064660429954529
vn 0.17131823301315308 -0.3684694766998291 0.9137178659439087
vn -0.6977991461753845 -0.3722398281097412 0.611975371837616
vn -0.8754971623420715 -0.3740499019622803 -0.3059271574020386
vn -0.000006503915301436791 -0.9999885559082031 -0.004788226913660765
vn 0.004051364958286285 -0.9999889135360718 -0.0023941141553223133
vn 0.004051365423947573 -0.9999889135360718 0.0023941134568303823
vn -0.004070875700563192 -0.999988853931427 -0.0023941139224916697
vt 0.5338756442070007 0.00939708948135376
vt 0.986065149307251 0.14433300495147705
vt 0.009443823248147964 0.14433300495147705
vt 0.499091774225235 0.6216368675231934
vt 0.009443823248147964 0.9951790571212769
vt 0.986065149307251 0.9951790571212769
vt 0.986065149307251 0.9951790571212769
vt 0.009443823248147964 0.9951790571212769
vt 0.986065149307251 0.9951790571212769
vt 0.009443823248147964 0.9951790571212769
vt 0.009443823248147964 0.4348657727241516
vt 0.986065149307251 0.9640505313873291
vt 0.009443823248147964 0.9640505313873291
vt 0.986065149307251 0.4348657727241516
vt 0.986065149307251 0.9640505313873291
vt 0.009443823248147964 0.4348657727241516
vt 0.009443823248147964 0.9640505313873291
vt 0.986065149307251 0.4348657727241516
vt 0.986065149307251 0.9640505313873291
vt 0.009443823248147964 0.4348657727241516
vt 0.009443823248147964 0.9640505313873291
vt 0.986065149307251 0.4348657727241516
vt 0.986065149307251 0.14433300495147705
vt 0.009443823248147964 0.14433300495147705
vt 0.009443823248147964 0.14433300495147705
vt 0.986065149307251 0.14433300495147705
vt 0.009443823248147964 0.14433300495147705
vt 0.986065149307251 0.14433300495147705
vt 0.009443823248147964 0.14433300495147705
vt 0.986065149307251 0.14433300495147705
vt 0.009443823248147964 0.14433300495147705
vt 0.986065149307251 0.14433300495147705
g Geoset0
s 1
usemtl mat_bloodybasket
f 1/1/1 2/2/2 3/3/3
f 4/4/4 5/5/5 6/6/6
f 4/4/4 7/7/7 5/5/5
f 4/4/4 8/8/8 7/7/7
f 4/4/4 9/9/9 8/8/8
f 4/4/4 10/10/10 9/9/9
f 4/4/4 6/6/6 10/10/10
f 11/11/11 12/12/12 13/13/13
f 14/14/14 11/11/11 13/13/13
f 14/14/14 13/13/13 15/15/15
f 16/16/16 14/14/14 15/15/15
f 16/16/16 15/15/15 17/17/17
f 18/18/18 16/16/16 17/17/17
f 18/18/18 17/17/17 19/19/19
f 20/20/20 18/18/18 19/19/19
f 20/20/20 19/19/19 21/21/21
f 22/22/22 20/20/20 21/21/21
f 23/23/23 24/24/24 11/11/11
f 24/24/24 22/22/22 11/11/11
f 11/11/11 22/22/22 12/12/12
f 22/22/22 21/21/21 12/12/12
f 23/23/23 11/11/11 14/14/14
f 25/25/25 23/23/23 14/14/14
f 25/25/25 14/14/14 16/16/16
f 26/26/26 25/25/25 16/16/16
f 26/26/26 16/16/16 18/18/18
f 27/27/27 26/26/26 18/18/18
f 27/27/27 18/18/18 20/20/20
f 28/28/28 27/27/27 20/20/20
f 28/28/28 20/20/20 22/22/22
f 24/24/24 28/28/28 22/22/22
f 1/1/1 29/29/29 30/30/30
f 1/1/1 30/30/30 31/31/31
f 1/1/1 31/31/31 2/2/2
f 1/1/1 32/32/32 29/29/29
f 1/1/1 3/3/3 32/32/32
