# Exported using wow.export v0.1.64
o fruit_pear
mtllib fruit_pear.mtl
v -0.007064360659569502 0.41949430108070374 -0.1714893877506256
v -0.0058491043746471405 0.7860276103019714 -0.1714893877506256
v -0.01329564768821001 0.7858326435089111 0.0822218656539917
v -0.05657151713967323 0.4181978404521942 -0.0061068302020430565
v -0.06280282139778137 0.6561618447303772 -0.006106832064688206
v 0.11393813043832779 0.42266279458999634 -0.0061068302020430565
v 0.10770684480667114 0.6606267690658569 -0.0061068302020430565
v -0.12583638727664948 0.6561618447303772 -0.005043643992394209
v -0.11960507929325104 0.4181978404521942 -0.005043643992394209
v 0.17604653537273407 0.4226628243923187 -0.005043643992394209
v 0.16981525719165802 0.6845104694366455 0.0024054646492004395
v -0.008127166889607906 0.41946643590927124 0.08692704886198044
v -0.014358471147716045 0.7870491147041321 0.08692704141139984
v -0.008127182722091675 0.41946643590927124 -0.14895249903202057
v -0.01435848418623209 0.7870491147041321 -0.14895251393318176
v -0.1500689834356308 0.035732001066207886 0.10522456467151642
v 0.00036194236599840224 0.19144761562347412 0.25397300720214844
v -0.18588025867938995 0.20759379863739014 0.1359400898218155
v 0.0008514996152371168 0.3559512197971344 0.12577149271965027
v -0.09821179509162903 0.3559512495994568 0.06268089264631271
v -0.000004145006187172839 0.4778238832950592 0.08677282184362411
v -0.07178319245576859 0.4778238832950592 0.04533116891980171
v -0.000004152715519012418 0.5106340050697327 0.007290981709957123
v -0.07178320735692978 0.47049036622047424 -0.03755215182900429
v -0.10842464864253998 0.34715184569358826 -0.048405177891254425
v -0.2040771096944809 0.17368368804454803 -0.1001257672905922
v -0.1500689834356308 0.035732001066207886 -0.07020965963602066
v 0.0018615329172462225 0.035732001066207886 0.19294168055057526
v 0.0018615155713632703 -0.003944165073335171 0.01750744692981243
v 0.0018615176668390632 0.035732001066207886 -0.1579267531633377
v 0.00036192178959026933 0.19144761562347412 -0.21815869212150574
v 0.0008514881483279169 0.34715184569358826 -0.12471788376569748
v -0.00000415224985772511 0.47767210006713867 -0.07899381220340729
v 0.0008514996152371168 0.3559512197971344 0.12577149271965027
v 0.11012764275074005 0.3559512197971344 0.05292230844497681
v 0.0717749297618866 0.477823942899704 0.04533115401864052
v 0.00036194236599840224 0.19144761562347412 0.25397300720214844
v 0.21523375809192657 0.20759378373622894 0.11855263262987137
v 0.0018615329172462225 0.035732001066207886 0.19294168055057526
v 0.16422481834888458 0.03573198989033699 0.10522454231977463
v 0.0018615155713632703 -0.003944165073335171 0.01750744692981243
v 0.14488933980464935 0.03573198616504669 -0.07020968943834305
v 0.20373161137104034 0.17368367314338684 -0.10012580454349518
v 0.10367213934659958 0.34715181589126587 -0.04840519651770592
v 0.0654991939663887 0.47049036622047424 -0.03755216673016548
v -0.000004145006187172839 0.4778238832950592 0.08677282184362411
v -0.000004152715519012418 0.5106340050697327 0.007290981709957123
v -0.00000415224985772511 0.47767210006713867 -0.07899381220340729
v 0.0008514881483279169 0.34715184569358826 -0.12471788376569748
v 0.0018615176668390632 0.035732001066207886 -0.1579267531633377
v -0.007064345758408308 0.41949430108070374 0.0822218656539917
vn 0.9998689293861389 0.006847657263278961 0.014669868163764477
vn 0.9995641112327576 -0.003314096247777343 0.029335124418139458
vn 0.9998689293861389 0.006847657263278961 0.014669868163764477
vn 1.8206887386629234e-10 -6.952942666060835e-9 -1
vn 4.942812381614203e-9 -3.3494234052966476e-9 -1
vn 4.942812381614203e-9 -3.3494234052966476e-9 -1
vn 9.703556180795658e-9 2.540960775121448e-10 -1
vn -0.011202684603631496 -0.014483568258583546 0.9998323321342468
vn 0 0 1
vn -0.011202684603631496 -0.014483568258583546 0.9998323321342468
vn -0.022401612251996994 -0.028962280601263046 0.9993294477462769
vn -0.9998563528060913 -0.01694968156516552 6.667277574479158e-8
vn -0.9998563528060913 -0.01694967783987522 6.140913200169962e-8
vn -0.9998563528060913 -0.01694967783987522 6.140913200169962e-8
vn -0.9998563528060913 -0.016949674114584923 5.6145491811321335e-8
vn -0.5839799642562866 -0.6718807220458984 0.45556968450546265
vn -0.005703761242330074 0.17561134696006775 0.9844430685043335
vn -0.8587051630020142 0.17842605710029602 0.48040565848350525
vn 0.024848122149705887 0.472504585981369 0.8809778690338135
vn -0.7792173027992249 0.4266343116760254 0.459133505821228
vn -0.12615691125392914 0.6150352358818054 0.7783418893814087
vn -0.741234302520752 0.6078088879585266 0.28485098481178284
vn 0.007120918482542038 0.9996927976608276 -0.02374098263680935
vn -0.6390527486801147 0.6019304394721985 -0.47884368896484375
vn -0.8182682991027832 0.4022546410560608 -0.4106435775756836
vn -0.8734675049781799 0.09368789941072464 -0.4777835011482239
vn -0.6794925928115845 -0.6988369226455688 -0.223420649766922
vn 0.1254163235425949 -0.684074878692627 0.7185487747192383
vn -0.00026809226255863905 -0.9999889135360718 -0.004696703050285578
vn -0.10000104457139969 -0.7082877159118652 -0.6988049149513245
vn -0.003610769286751747 0.07924769818782806 -0.9968484044075012
vn -0.0010574168991297483 0.4322570562362671 -0.9017497897148132
vn 0.156221404671669 0.633914589881897 -0.7574610114097595
vn 0.024848122149705887 0.472504585981369 0.8809778690338135
vn 0.7953742146492004 0.4797990024089813 0.37036848068237305
vn 0.6451458930969238 0.6247289776802063 0.4398869276046753
vn -0.005703761242330074 0.17561134696006775 0.9844430685043335
vn 0.8685308694839478 0.18690559267997742 0.4590429365634918
vn 0.1254163235425949 -0.684074878692627 0.7185487747192383
vn 0.6706530451774597 -0.703587532043457 0.23492343723773956
vn -0.00026809226255863905 -0.9999889135360718 -0.004696703050285578
vn 0.5263495445251465 -0.7114197015762329 -0.4656588137149811
vn 0.8532099723815918 0.08634218573570251 -0.5143712162971497
vn 0.7702136039733887 0.43236738443374634 -0.46885979175567627
vn 0.7337310314178467 0.593824565410614 -0.33016830682754517
vn -0.12615691125392914 0.6150352358818054 0.7783418893814087
vn 0.007120918482542038 0.9996927976608276 -0.02374098263680935
vn 0.156221404671669 0.633914589881897 -0.7574610114097595
vn -0.0010574168991297483 0.4322570562362671 -0.9017497897148132
vn -0.10000104457139969 -0.7082877159118652 -0.6988049149513245
vn 0.9998553395271301 0.01700722984969616 -5.872426100950179e-8
vt 0.007745923474431038 0.25412285327911377
vt 0.0077462512999773026 0.4959182143211365
vt 0.23999999463558197 0.4959179759025574
vt 0.23999999463558197 0.2541227340698242
vt 0.23999999463558197 0.4959179759025574
vt 0.007745923474431038 0.25412285327911377
vt 0.0077462512999773026 0.4959182143211365
vt 0.23999999463558197 0.4959179759025574
vt 0.23999999463558197 0.2541227340698242
vt 0.007745923474431038 0.25412285327911377
vt 0.0077462512999773026 0.4959182143211365
vt 0.23999999463558197 0.2541227340698242
vt 0.23999999463558197 0.4959179759025574
vt 0.007745923474431038 0.25412285327911377
vt 0.0077462512999773026 0.4959182143211365
vt 0.9354698657989502 0.7587534785270691
vt 0.9980000257492065 0.8772621750831604
vt 0.9371891021728516 0.8702760934829712
vt 0.9980000257492065 0.9616430401802063
vt 0.9343010187149048 0.9549896121025085
vt 0.9980000257492065 0.9971820116043091
vt 0.9335982799530029 0.99268639087677
vt 0.8766162991523743 0.9817453026771545
vt 0.8183992505073547 0.9927186965942383
vt 0.8175238966941833 0.9550373554229736
vt 0.8145732283592224 0.8703262209892273
vt 0.8165950179100037 0.7587820291519165
vt 0.9980000257492065 0.7627375721931458
vt 0.8765383958816528 0.7520146369934082
vt 0.75 0.7627947330474854
vt 0.75 0.8770275712013245
vt 0.75 0.9617385268211365
vt 0.75 0.997246503829956
vt 0.5019999742507935 0.9511043429374695
vt 0.5735535025596619 0.9579251408576965
vt 0.5714008212089539 0.9938883781433105
vt 0.5019999742507935 0.8771960735321045
vt 0.570167064666748 0.8843578696250916
vt 0.5019999742507935 0.7684018015861511
vt 0.5793145298957825 0.7724860906600952
vt 0.6409585475921631 0.7567917108535767
vt 0.6783607602119446 0.7724380493164062
vt 0.6884906888008118 0.8842736482620239
vt 0.684983491897583 0.9578449130058289
vt 0.6865571141242981 0.9938341379165649
vt 0.5019999742507935 0.9892796874046326
vt 0.6409586071968079 0.9825162887573242
vt 0.75 0.9891712665557861
vt 0.75 0.9509439468383789
vt 0.75 0.7683057188987732
vt 0.23999999463558197 0.2541227340698242
g Geoset0
s 1
usemtl mat_fruitbowl
f 1/1/1 2/2/2 3/3/3
f 4/4/4 5/5/5 6/6/6
f 7/7/7 6/6/6 5/5/5
f 8/8/8 9/9/9 10/10/10
f 10/10/10 11/11/11 8/8/8
f 12/12/12 13/13/13 14/14/14
f 15/15/15 14/14/14 13/13/13
f 16/16/16 17/17/17 18/18/18
f 18/18/18 17/17/17 19/19/19
f 18/18/18 19/19/19 20/20/20
f 20/20/20 19/19/19 21/21/21
f 20/20/20 21/21/21 22/22/22
f 23/23/23 22/22/22 21/21/21
f 23/23/23 24/24/24 22/22/22
f 25/25/25 22/22/22 24/24/24
f 25/25/25 20/20/20 22/22/22
f 26/26/26 20/20/20 25/25/25
f 26/26/26 18/18/18 20/20/20
f 27/27/27 18/18/18 26/26/26
f 27/27/27 16/16/16 18/18/18
f 16/16/16 28/28/28 17/17/17
f 29/29/29 28/28/28 16/16/16
f 29/29/29 16/16/16 27/27/27
f 29/29/29 27/27/27 30/30/30
f 30/30/30 27/27/27 26/26/26
f 30/30/30 26/26/26 31/31/31
f 31/31/31 26/26/26 25/25/25
f 31/31/31 25/25/25 32/32/32
f 32/32/32 25/25/25 24/24/24
f 32/32/32 24/24/24 33/33/33
f 23/23/23 33/33/33 24/24/24
f 34/34/34 35/35/35 36/36/36
f 37/37/37 35/35/35 34/34/34
f 37/37/37 38/38/38 35/35/35
f 39/39/39 38/38/38 37/37/37
f 39/39/39 40/40/40 38/38/38
f 41/41/41 40/40/40 39/39/39
f 41/41/41 42/42/42 40/40/40
f 40/40/40 42/42/42 43/43/43
f 40/40/40 43/43/43 38/38/38
f 38/38/38 43/43/43 44/44/44
f 38/38/38 44/44/44 35/35/35
f 35/35/35 44/44/44 45/45/45
f 35/35/35 45/45/45 36/36/36
f 34/34/34 36/36/36 46/46/46
f 47/47/47 46/46/46 36/36/36
f 47/47/47 36/36/36 45/45/45
f 47/47/47 45/45/45 48/48/48
f 44/44/44 48/48/48 45/45/45
f 44/44/44 49/49/49 48/48/48
f 43/43/43 49/49/49 44/44/44
f 43/43/43 31/31/31 49/49/49
f 42/42/42 31/31/31 43/43/43
f 42/42/42 50/50/50 31/31/31
f 41/41/41 50/50/50 42/42/42
f 3/3/3 51/51/51 1/1/1
