# Exported using wow.export v0.1.64
o g_pilgrimhat
mtllib g_pilgrimhat.mtl
v -0.20046959817409515 0.022157438099384308 -0.10618455708026886
v -0.20046958327293396 0.022157438099384308 0.10618457943201065
v -0.11547064781188965 0.41149190068244934 0.061162400990724564
v -4.4703479806784685e-10 0.41149190068244934 0
v 0.11547064781188965 0.41149190068244934 0.06116237863898277
v 0.11547063291072845 0.41149190068244934 -0.06116240471601486
v 1.1209396078015743e-8 0.41149190068244934 0.12232478708028793
v -0.11547064781188965 0.41149190068244934 0.061162400990724564
v -0.11547066271305084 0.41149190068244934 -0.06116239354014397
v -4.4703479806784685e-10 0.41149190068244934 -0.12232478708028793
v -0.20046958327293396 0.022157438099384308 0.10618457943201065
v -0.20046959817409515 0.022157438099384308 -0.10618455708026886
v -0.32373133301734924 -0.0047045485116541386 -0.1714736968278885
v -0.32373127341270447 -0.0047045485116541386 0.17147375643253326
v 1.978979646821699e-8 0.022157438099384308 0.2123691290616989
v 3.57325298239175e-8 -0.0047045485116541386 0.34294745326042175
v 0.20046961307525635 0.022157438099384308 0.10618454217910767
v 0.32373133301734924 -0.0047045485116541386 0.1714736968278885
v 0.20046958327293396 0.022157438099384308 -0.10618458688259125
v 0.32373127341270447 -0.0047045485116541386 -0.17147374153137207
v -4.4703479806784685e-10 0.022157438099384308 -0.2123691290616989
v 3.052780472856398e-9 -0.0047045485116541386 -0.342947393655777
v -0.20046958327293396 0.022157438099384308 0.10618457943201065
v 1.1209396078015743e-8 0.41149190068244934 0.12232478708028793
v -0.11547064781188965 0.41149190068244934 0.061162400990724564
v 1.978979646821699e-8 0.022157438099384308 0.2123691290616989
v 0.11547064781188965 0.41149190068244934 0.06116237863898277
v 0.20046961307525635 0.022157438099384308 0.10618454217910767
v 0.11547063291072845 0.41149190068244934 -0.06116240471601486
v 0.20046958327293396 0.022157438099384308 -0.10618458688259125
v -4.4703479806784685e-10 0.41149190068244934 -0.12232478708028793
v -4.4703479806784685e-10 0.022157438099384308 -0.2123691290616989
v -0.11547066271305084 0.41149190068244934 -0.06116239354014397
v -0.20046959817409515 0.022157438099384308 -0.10618455708026886
v -0.11547066271305084 0.41149190068244934 -0.06116239354014397
vn -0.6013012528419495 0.7526066303253174 -0.2683654725551605
vn -0.5153473615646362 0.7523385286331177 0.4103702902793884
vn -0.6573412418365479 0.71571946144104 0.23589861392974854
vn 0 1 0
vn 0.5170998573303223 0.7135466933250427 0.4727143347263336
vn 0.6573412418365479 0.71571946144104 -0.23589862883090973
vn -0.123806431889534 0.702116847038269 0.7012160420417786
vn -0.6573412418365479 0.71571946144104 0.23589861392974854
vn -0.5170997977256775 0.7135466933250427 -0.472714364528656
vn 0.12380648404359818 0.702116847038269 -0.7012160420417786
vn -0.5153473615646362 0.7523385286331177 0.4103702902793884
vn -0.6013012528419495 0.7526066303253174 -0.2683654725551605
vn -0.1783525049686432 0.981671154499054 -0.06717201322317123
vn -0.1425456553697586 0.9806286096572876 0.13434402644634247
vn 0.07387614250183105 0.7383248805999756 0.6703869700431824
vn 0.035553622990846634 0.9788700342178345 0.20136874914169312
vn 0.6013012528419495 0.7526066899299622 0.26836538314819336
vn 0.1783525049686432 0.981671154499054 0.06717198342084885
vn 0.515347421169281 0.7523385286331177 -0.4103703200817108
vn 0.142545685172081 0.9806285500526428 -0.13434407114982605
vn -0.07387608289718628 0.7383248209953308 -0.6703870296478271
vn -0.03555362671613693 0.9788700342178345 -0.20136882364749908
vn -0.5153473615646362 0.7523385286331177 0.4103702902793884
vn -0.123806431889534 0.702116847038269 0.7012160420417786
vn -0.6573412418365479 0.71571946144104 0.23589861392974854
vn 0.07387614250183105 0.7383248805999756 0.6703869700431824
vn 0.5170998573303223 0.7135466933250427 0.4727143347263336
vn 0.6013012528419495 0.7526066899299622 0.26836538314819336
vn 0.6573412418365479 0.71571946144104 -0.23589862883090973
vn 0.515347421169281 0.7523385286331177 -0.4103703200817108
vn 0.12380648404359818 0.702116847038269 -0.7012160420417786
vn -0.07387608289718628 0.7383248209953308 -0.6703870296478271
vn -0.5170997977256775 0.7135466933250427 -0.472714364528656
vn -0.6013012528419495 0.7526066303253174 -0.2683654725551605
vn -0.5170997977256775 0.7135466933250427 -0.472714364528656
vt 0.18112021684646606 0.001999974250793457
vt 0.3154226541519165 0.001999974250793457
vt 0.2431717813014984 0.490991473197937
vt 0.257245808839798 0.6199977993965149
vt 0.13554544746875763 0.5113368630409241
vt 0.37894609570503235 0.5113368630409241
vt 0.013845184817910194 0.6199977993965149
vt 0.135545551776886 0.7286588549613953
vt 0.3789461553096771 0.7286588549613953
vt 0.5006464719772339 0.6199977993965149
vt 0.5130000114440918 0.9715652465820312
vt 0.5130000114440918 0.5582656264305115
vt 0.9980000257492065 0.5196216702461243
vt 0.9980000257492065 0.9946377277374268
vt 0.5130000114440918 0.6211705207824707
vt 0.9980000257492065 0.6211705207824707
vt 0.5130000114440918 0.9715653657913208
vt 0.9980000257492065 0.9946377277374268
vt 0.5130000114440918 0.5582656264305115
vt 0.9980000257492065 0.5196218490600586
vt 0.5130000114440918 0.9264864921569824
vt 0.9980000257492065 0.9264864921569824
vt 0.2864420711994171 0.001999974250793457
vt 0.12597355246543884 0.490991473197937
vt 0.3269399106502533 0.490991473197937
vt 0.0020000000949949026 0.001999974250793457
vt 0.3269398510456085 0.490991473197937
vt 0.2864419221878052 0.001999974250793457
vt 0.6290380954742432 0.490991473197937
vt 0.7324244976043701 0.001999974250793457
vt 0.8740264773368835 0.490991473197937
vt 0.9980000257492065 0.001999974250793457
vt 0.7522266507148743 0.490991473197937
vt 0.761410117149353 0.001999974250793457
vt 0.16694042086601257 0.490991473197937
g Geoset0
s 1
usemtl mat_jlo_pilgrimhat
f 1/1/1 2/2/2 3/3/3
f 4/4/4 5/5/5 6/6/6
f 4/4/4 7/7/7 5/5/5
f 4/4/4 8/8/8 7/7/7
f 4/4/4 9/9/9 8/8/8
f 4/4/4 10/10/10 9/9/9
f 4/4/4 6/6/6 10/10/10
f 11/11/11 12/12/12 13/13/13
f 13/13/13 14/14/14 11/11/11
f 15/15/15 11/11/11 14/14/14
f 14/14/14 16/16/16 15/15/15
f 17/17/17 15/15/15 16/16/16
f 16/16/16 18/18/18 17/17/17
f 19/19/19 17/17/17 18/18/18
f 18/18/18 20/20/20 19/19/19
f 21/21/21 19/19/19 20/20/20
f 20/20/20 22/22/22 21/21/21
f 12/12/12 21/21/21 22/22/22
f 22/22/22 13/13/13 12/12/12
f 23/23/23 24/24/24 25/25/25
f 23/23/23 26/26/26 24/24/24
f 26/26/26 27/27/27 24/24/24
f 26/26/26 28/28/28 27/27/27
f 28/28/28 29/29/29 27/27/27
f 28/28/28 30/30/30 29/29/29
f 30/30/30 31/31/31 29/29/29
f 30/30/30 32/32/32 31/31/31
f 32/32/32 33/33/33 31/31/31
f 32/32/32 34/34/34 33/33/33
f 1/1/1 3/3/3 35/35/35
