# Exported using wow.export v0.1.64
o duskwoodmushroom01
mtllib duskwoodmushroom01.mtl
v 0.35359519720077515 -0.002808207646012306 -0.16021116077899933
v 0.29080209136009216 -0.002808207646012306 -0.05145026370882988
v 0.31076037883758545 0.28968754410743713 -0.059982698410749435
v -0.13695427775382996 -0.014037911780178547 0.05819316208362579
v -0.23584777116775513 0.3139880895614624 -0.05831680819392204
v -0.17613087594509125 0.3139880895614624 0.04511585459113121
v -0.23124408721923828 -0.014037911780178547 -0.10512156039476395
v -0.3255338966846466 -0.014037911780178547 0.058193180710077286
v -0.17613087594509125 0.3139880895614624 0.04511585459113121
v -0.2955646514892578 0.3139880895614624 0.045115865767002106
v -0.13695427775382996 -0.014037911780178547 0.05819316208362579
v -0.23124408721923828 -0.014037911780178547 -0.10512156039476395
v -0.2955646514892578 0.3139880895614624 0.045115865767002106
v -0.23584777116775513 0.3139880895614624 -0.05831680819392204
v -0.3255338966846466 -0.014037911780178547 0.058193180710077286
v 0.31910550594329834 -0.014037911780178547 0.48332929611206055
v 0.22021199762821198 0.206680029630661 0.3683578372001648
v 0.27992889285087585 0.19049958884716034 0.4705170691013336
v 0.22481568157672882 -0.014037911780178547 0.320014625787735
v 0.13052590191364288 -0.014037911780178547 0.48332929611206055
v 0.27992889285087585 0.19049958884716034 0.4705170691013336
v 0.1604951173067093 0.19049958884716034 0.4705170691013336
v 0.31910550594329834 -0.014037911780178547 0.48332929611206055
v 0.22481568157672882 -0.014037911780178547 0.320014625787735
v 0.1604951173067093 0.19049958884716034 0.4705170691013336
v 0.22021199762821198 0.206680029630661 0.3683578372001648
v 0.13052590191364288 -0.014037911780178547 0.48332929611206055
v 0.4163883328437805 -0.002808207646012306 -0.05145027115941048
v 0.35052934288978577 0.30046308040618896 -0.12801654636859894
v 0.39029833674430847 0.28968754410743713 -0.059982698410749435
v 0.35359519720077515 -0.002808207646012306 -0.16021116077899933
v 0.29080209136009216 -0.002808207646012306 -0.05145026370882988
v 0.39029833674430847 0.28968754410743713 -0.059982698410749435
v 0.31076037883758545 0.28968754410743713 -0.059982698410749435
v 0.4163883328437805 -0.002808207646012306 -0.05145027115941048
v -0.23406516015529633 0.3924107551574707 0.011941667646169662
v 0.11280050873756409 0.26206210255622864 -0.09408527612686157
v -0.23406516015529633 0.24887286126613617 -0.345752477645874
v -0.5809308290481567 0.26206210255622864 -0.09408523142337799
v -0.019690312445163727 0.2834028899669647 0.3131209909915924
v -0.44843998551368713 0.2834028899669647 0.3131210505962372
v 0.22199460864067078 0.27314630150794983 0.45001929998397827
v 0.3559119403362274 0.15270276367664337 0.6239094138145447
v 0.4386773109436035 0.1793288290500641 0.3705790042877197
v 0.08807732909917831 0.15270276367664337 0.6239094138145447
v 0.005311864428222179 0.1793288290500641 0.3705790340900421
v 0.22199460864067078 0.19578474760055542 0.2140122503042221
v 0.35147178173065186 0.3581174910068512 -0.06546030193567276
v 0.10504825413227081 0.1840660125017166 -0.15580414235591888
v 0.19917365908622742 0.15378537774085999 0.13229712843894958
v 0.35147178173065186 0.2027805745601654 -0.33386051654815674
v 0.5978952646255493 0.1840660125017166 -0.15580418705940247
v 0.5037699341773987 0.15378537774085999 0.13229712843894958
v 0.35052934288978577 0.30046308040618896 -0.12801654636859894
vn 0.005026239901781082 0.10576175153255463 -0.9943788051605225
vn -0.8659642338752747 0.07351868599653244 0.494672566652298
vn -0.8937143087387085 0.07366397231817245 0.4425475299358368
vn 0.8656333684921265 0.12273518741130829 0.48540183901786804
vn -0.008565625175833702 0.1411323994398117 -0.9899536967277527
vn 0.8518586754798889 0.12204495817422867 0.5093543529510498
vn 0.006807541474699974 0.14134573936462402 -0.989936888217926
vn -0.86460942029953 0.0986337810754776 0.4926682114601135
vn 0.8518586754798889 0.12204495817422867 0.5093543529510498
vn -0.8584852814674377 0.09849777072668076 0.5032904148101807
vn 0.8656333684921265 0.12273518741130829 0.48540183901786804
vn 0.006807541474699974 0.14134573936462402 -0.989936888217926
vn -0.8584852814674377 0.09849777072668076 0.5032904148101807
vn -0.008565625175833702 0.1411323994398117 -0.9899536967277527
vn -0.86460942029953 0.0986337810754776 0.4926682114601135
vn 0.8588978052139282 0.1895538717508316 0.47577714920043945
vn -0.014754745177924633 0.21919645369052887 -0.9755691885948181
vn 0.8645145893096924 0.19461441040039062 0.4634001553058624
vn 0.00838818121701479 0.21662358939647675 -0.9762191772460938
vn -0.8598682880401611 0.15643005073070526 0.4859590232372284
vn 0.8645145893096924 0.19461441040039062 0.4634001553058624
vn -0.8806394338607788 0.15343932807445526 0.44825276732444763
vn 0.8588978052139282 0.1895538717508316 0.47577714920043945
vn 0.00838818121701479 0.21662358939647675 -0.9762191772460938
vn -0.8806394338607788 0.15343932807445526 0.44825276732444763
vn -0.014754745177924633 0.21919645369052887 -0.9755691885948181
vn -0.8598682880401611 0.15643005073070526 0.4859590232372284
vn 0.8672016859054565 0.09094100445508957 0.48958244919776917
vn -0.005697723478078842 0.10646864771842957 -0.9942997097969055
vn 0.8886471390724182 0.09236889332532883 0.4491928517818451
vn 0.005026239901781082 0.10576175153255463 -0.9943788051605225
vn -0.8659642338752747 0.07351868599653244 0.494672566652298
vn 0.8886471390724182 0.09236889332532883 0.4491928517818451
vn -0.8937143087387085 0.07366397231817245 0.4425475299358368
vn 0.8672016859054565 0.09094100445508957 0.48958244919776917
vn -2.394631160029803e-9 0.9986295104026794 -0.05233592540025711
vn 0.3075130879878998 0.9397572875022888 -0.14930476248264313
vn -1.0726100008184858e-8 0.9280643463134766 -0.3724198341369629
vn -0.30751314759254456 0.9397572875022888 -0.14930473268032074
vn 0.19005358219146729 0.9586769342422485 0.2117030769586563
vn -0.19005350768566132 0.9586769342422485 0.2117030918598175
vn 4.810537745925103e-9 0.9947789311408997 0.1020532101392746
vn 0.2383207380771637 0.8745937347412109 0.4222429096698761
vn 0.3880404233932495 0.9211713671684265 -0.029459990561008453
vn -0.2383207231760025 0.8745936751365662 0.4222429394721985
vn -0.3880403935909271 0.9211714267730713 -0.02945989929139614
vn -5.277526859970294e-9 0.9502507448196411 -0.3114859163761139
vn 1.4849421692275655e-9 0.996268093585968 0.08631300926208496
vn -0.5525386929512024 0.8286812901496887 -0.08937760442495346
vn -0.3308270275592804 0.7719408273696899 0.5428267121315002
vn -3.531208392359986e-8 0.8654998540878296 -0.500909149646759
vn 0.5525386333465576 0.8286812901496887 -0.08937770128250122
vn 0.3308270573616028 0.7719408869743347 0.5428265929222107
vn -0.005697723478078842 0.10646864771842957 -0.9942997097969055
vt 0.005279242992401123 0.008947670459747314
vt 0.23687583208084106 0.00894463062286377
vt 0.23879176378250122 0.993596613407135
vt 0.002227693796157837 0.0051021575927734375
vt 0.25481560826301575 0.9978557229042053
vt 0.00524979829788208 0.9978557229042053
vt 0.25355979800224304 0.0051021575927734375
vt 0.005279242992401123 0.008454084396362305
vt 0.2553633749485016 0.9963768124580383
vt 0.005797445774078369 0.9963768124580383
vt 0.2526642680168152 0.008454084396362305
vt 0.005279242992401123 0.00932687520980835
vt 0.25790128111839294 0.9972495436668396
vt 0.008335411548614502 0.9972495436668396
vt 0.2526642680168152 0.00932687520980835
vt 0.010946393013000488 0.020179271697998047
vt 0.22398194670677185 0.9868459105491638
vt 0.019190669059753418 0.9837351441383362
vt 0.22951756417751312 0.020547449588775635
vt 0.004884541034698486 0.016666650772094727
vt 0.21944472193717957 0.9833332896232605
vt 0.020796477794647217 0.9944444298744202
vt 0.22345571219921112 0.016666650772094727
vt 0.013962864875793457 0.018890738487243652
vt 0.22711281478405 0.9933091402053833
vt 0.03139448165893555 0.9854210019111633
vt 0.2325340360403061 0.018754422664642334
vt 0.00223618745803833 0.009276092052459717
vt 0.23933005332946777 1.0020297765731812
vt 0.004532217979431152 0.9939383864402771
vt 0.24172699451446533 0.009296774864196777
vt 0.005279242992401123 0.00845414400100708
vt 0.243522047996521 0.9915458559989929
vt 0.005797445774078369 1.0012078285217285
vt 0.24477005004882812 0.00845414400100708
vt 0.5986776351928711 0.4952460527420044
vt 0.692955493927002 0.0016771554946899414
vt 1.0020043849945068 0.46626079082489014
vt 0.7284793257713318 1.0033079385757446
vt 0.26129215955734253 0.167894184589386
vt 0.2612920105457306 0.8177671432495117
vt 0.5736761689186096 0.5
vt 0.2635674774646759 0.19566500186920166
vt 0.7153468132019043 0.007575809955596924
vt 0.2635674774646759 0.8043349385261536
vt 0.7153467535972595 0.9924241900444031
vt 0.9945616126060486 0.5
vt 0.5719428062438965 0.5000723004341125
vt 0.7159874439239502 1.0000723600387573
vt 0.2566377520561218 0.8090893030166626
vt 0.9998810291290283 0.5000723004341125
vt 0.7159874439239502 0.00007230043411254883
vt 0.2566377520561218 0.19105523824691772
vt 0.003991812467575073 0.9920364022254944
g Geoset0
s 1
usemtl mat_mushroom01
f 1/1/1 2/2/2 3/3/3
f 4/4/4 5/5/5 6/6/6
f 4/4/4 7/7/7 5/5/5
f 8/8/8 9/9/9 10/10/10
f 8/8/8 11/11/11 9/9/9
f 12/12/12 13/13/13 14/14/14
f 12/12/12 15/15/15 13/13/13
f 16/16/16 17/17/17 18/18/18
f 16/16/16 19/19/19 17/17/17
f 20/20/20 21/21/21 22/22/22
f 20/20/20 23/23/23 21/21/21
f 24/24/24 25/25/25 26/26/26
f 24/24/24 27/27/27 25/25/25
f 28/28/28 29/29/29 30/30/30
f 28/28/28 31/31/31 29/29/29
f 32/32/32 33/33/33 34/34/34
f 32/32/32 35/35/35 33/33/33
f 36/36/36 37/37/37 38/38/38
f 36/36/36 38/38/38 39/39/39
f 36/36/36 40/40/40 37/37/37
f 36/36/36 41/41/41 40/40/40
f 36/36/36 39/39/39 41/41/41
f 42/42/42 43/43/43 44/44/44
f 42/42/42 45/45/45 43/43/43
f 42/42/42 46/46/46 45/45/45
f 42/42/42 47/47/47 46/46/46
f 42/42/42 44/44/44 47/47/47
f 48/48/48 49/49/49 50/50/50
f 48/48/48 51/51/51 49/49/49
f 48/48/48 52/52/52 51/51/51
f 48/48/48 53/53/53 52/52/52
f 48/48/48 50/50/50 53/53/53
f 1/1/1 3/3/3 54/54/54
