# Exported using wow.export v0.1.64
o sack01
mtllib sack01.mtl
v -0.023440951481461525 0.26514413952827454 0.08189108967781067
v 0.19948971271514893 0.21529297530651093 0.13221313059329987
v -0.023440949618816376 0.26514413952827454 -0.1829618215560913
v 0.19732657074928284 0.21529294550418854 -0.2332838624715805
v -0.023440949618816376 0.19666670262813568 -0.4478147327899933
v 0.3118510842323303 0.06860337406396866 -0.4974115788936615
v -0.023440949618816376 0.08043982833623886 -0.5357083678245544
v -0.24637161195278168 0.2152930051088333 0.13221313059329987
v -0.023440945893526077 0.19439873099327087 0.3467440903186798
v -0.2442084699869156 0.21529294550418854 -0.2332838624715805
v -0.35873299837112427 0.06860336661338806 -0.4974115788936615
v -0.023440945893526077 -0.002532913349568844 -0.4478147327899933
v 0.22266867756843567 -0.00248209061101079 -0.27897098660469055
v 0.2676243484020233 0.07637535035610199 -0.2330610752105713
v 0.22517545521259308 -0.002482091309502721 0.17790023982524872
v 0.2715383470058441 0.04789746552705765 0.1317615509033203
v 0.3017328977584839 0.07337431609630585 0.35836276412010193
v -0.023440951481461525 0.10658680647611618 0.43463772535324097
v -0.023440949618816376 -0.002695726230740547 0.3467440903186798
v -0.3486148416996002 0.07337430864572525 0.35836276412010193
v -0.31842029094696045 0.04789745435118675 0.1317615509033203
v -0.31450629234313965 0.07637534290552139 -0.2330610752105713
v -0.2695505917072296 -0.0024821062106639147 -0.27897098660469055
v -0.2720574140548706 -0.002482109470292926 0.17790023982524872
v -0.02344094216823578 -0.0025440682657063007 0.1812109351158142
v -0.02344094216823578 -0.002544066868722439 -0.28228163719177246
vn 3.113579793989629e-8 0.9938684701919556 0.110569067299366
vn 0.5799373984336853 0.807075560092926 0.11091268062591553
vn 4.721269064589251e-8 0.9941996335983276 -0.10755056142807007
vn 0.561458945274353 0.8214236497879028 -0.10013485699892044
vn 2.0242434395356668e-9 0.8426654934883118 -0.5384373664855957
vn 0.7703668475151062 -0.08652278035879135 -0.6317030787467957
vn 2.8857172207352733e-9 -0.06566277146339417 -0.9978418946266174
vn -0.5799374580383301 0.807075560092926 0.11091272532939911
vn 1.6054830798140074e-9 0.8583097457885742 0.5131319165229797
vn -0.561458945274353 0.8214237093925476 -0.10013489425182343
vn -0.7703667283058167 -0.08652275055646896 -0.6317031979560852
vn 1.2608317945250747e-8 -0.9251470565795898 -0.3796089291572571
vn 0.451423704624176 -0.892145574092865 -0.01711464487016201
vn 0.996656596660614 -0.029845312237739563 0.07605809718370438
vn 0.38782525062561035 -0.9197919964790344 0.05978529155254364
vn 0.9731362462043762 -0.21691928803920746 -0.07714860141277313
vn 0.7927490472793579 -0.06888751685619354 0.6056430339813232
vn -4.463822644851234e-9 0.08630170673131943 0.9962690472602844
vn 3.876377263622999e-8 -0.8888410925865173 0.45821553468704224
vn -0.7927489280700684 -0.0688876062631607 0.6056431531906128
vn -0.9731362462043762 -0.21691928803920746 -0.07714858651161194
vn -0.996656596660614 -0.029845332726836205 0.07605806738138199
vn -0.45142367482185364 -0.892145574092865 -0.017114678397774696
vn -0.38782522082328796 -0.9197919964790344 0.05978531017899513
vn 5.1441958248688024e-8 -0.9999998807907104 -0.0004619745595846325
vn 5.065586705654823e-8 -1 -0.000034446100471541286
vt 0.36472809314727783 0.947954561561346
vt 0.3133247196674347 0.5145387351512909
vt 0.6352719664573669 0.9468830712139606
vt 0.6866752505302429 0.5203401744365692
vt 0.8823181986808777 0.9503882750868797
vt 0.9878085255622864 0.017815053462982178
vt 0.9877655506134033 0.9524126797914505
vt 0.3133247196674347 0.5145387351512909
vt 0.09418415278196335 0.9444510042667389
vt 0.6866752505302429 0.5203401744365692
vt 0.9878085255622864 0.017815053462982178
vt 0.901899516582489 0.862939327955246
vt 0.7333440184593201 0.3388351798057556
vt 0.7001546025276184 0.016845226287841797
vt 0.26665589213371277 0.33211207389831543
vt 0.3118278682231903 0.015278220176696777
vt 0.019144413992762566 0.016530275344848633
vt 0.019556021317839622 0.9508698657155037
vt 0.09418415278196335 0.8628549575805664
vt 0.019144413992762566 0.016530275344848633
vt 0.3118278682231903 0.015278220176696777
vt 0.7001546025276184 0.016845226287841797
vt 0.7333440184593201 0.3388351798057556
vt 0.26665589213371277 0.33211207389831543
vt 0.2632741630077362 0.8514843583106995
vt 0.736725926399231 0.854724645614624
g Geoset0
s 1
usemtl mat_flowersack01
f 1/1/1 2/2/2 3/3/3
f 3/3/3 4/4/4 5/5/5
f 6/6/6 5/5/5 4/4/4
f 7/7/7 5/5/5 6/6/6
f 1/1/1 8/8/8 9/9/9
f 8/8/8 1/1/1 3/3/3
f 3/3/3 10/10/10 8/8/8
f 10/10/10 3/3/3 5/5/5
f 5/5/5 11/11/11 10/10/10
f 5/5/5 7/7/7 11/11/11
f 7/7/7 12/12/12 11/11/11
f 12/12/12 7/7/7 6/6/6
f 6/6/6 13/13/13 12/12/12
f 14/14/14 13/13/13 6/6/6
f 15/15/15 16/16/16 17/17/17
f 16/16/16 2/2/2 17/17/17
f 9/9/9 17/17/17 2/2/2
f 2/2/2 1/1/1 9/9/9
f 18/18/18 19/19/19 17/17/17
f 9/9/9 18/18/18 17/17/17
f 18/18/18 9/9/9 20/20/20
f 20/20/20 9/9/9 8/8/8
f 8/8/8 21/21/21 20/20/20
f 21/21/21 8/8/8 10/10/10
f 10/10/10 22/22/22 21/21/21
f 22/22/22 10/10/10 11/11/11
f 23/23/23 22/22/22 11/11/11
f 24/24/24 21/21/21 22/22/22
f 21/21/21 24/24/24 20/20/20
f 20/20/20 24/24/24 19/19/19
f 19/19/19 18/18/18 20/20/20
f 25/25/25 19/19/19 24/24/24
f 22/22/22 23/23/23 24/24/24
f 24/24/24 23/23/23 26/26/26
f 26/26/26 25/25/25 24/24/24
f 25/25/25 26/26/26 15/15/15
f 19/19/19 25/25/25 15/15/15
f 15/15/15 17/17/17 19/19/19
f 4/4/4 14/14/14 6/6/6
f 23/23/23 11/11/11 12/12/12
f 12/12/12 26/26/26 23/23/23
f 26/26/26 12/12/12 13/13/13
f 13/13/13 15/15/15 26/26/26
f 13/13/13 14/14/14 15/15/15
f 16/16/16 15/15/15 14/14/14
f 14/14/14 4/4/4 16/16/16
f 2/2/2 16/16/16 4/4/4
f 4/4/4 3/3/3 2/2/2
