# Exported using wow.export v0.1.64
o dragonblight_combin_waterfall_02
mtllib dragonblight_combin_waterfall_02.mtl
v -3.769153118133545 132.41212463378906 13.677250862121582
v 2.289734363555908 -1.969156265258789 14.17709732055664
v -2.258484363555908 132.38418579101562 -12.1475830078125
v 3.800403118133545 -1.9971027374267578 -11.647736549377441
v -2.5888988971710205 126.18492126464844 -11.47869873046875
v -2.727483034133911 126.05313873291016 -5.894315719604492
v -1.9241396188735962 118.09223175048828 -13.051648139953613
v 3.2457094192504883 -0.38850510120391846 16.344432830810547
v 2.223304510116577 -0.25671491026878357 9.555094718933105
v 3.2555718421936035 11.269261360168457 16.951324462890625
v 2.2331669330596924 11.401054382324219 10.161985397338867
v 3.1244564056396484 22.93269157409668 16.742380142211914
v 2.1020519733428955 23.064483642578125 9.95304012298584
v 2.9533658027648926 32.01191711425781 16.078887939453125
v 1.93096125125885 32.14370346069336 9.28954792022705
v 2.1208720207214355 40.28192138671875 14.955646514892578
v 1.079517126083374 40.413719177246094 8.039508819580078
v 1.0134992599487305 -0.08674311637878418 2.1841681003570557
v 0.9258803129196167 11.571026802062988 2.138795852661133
v 0.8706602454185486 23.228792190551758 2.3102095127105713
v 0.8202207088470459 32.2884521484375 2.12974214553833
v 0.2168806940317154 40.4130744934082 2.3192007541656494
v -0.15921883285045624 0.04505153372883797 -5.610942840576172
v -0.31284698843955994 11.695534706115723 -6.049126148223877
v -0.3382364809513092 23.35329818725586 -5.678112506866455
v -0.23483987152576447 32.41425323486328 -4.868898391723633
v -0.6833851933479309 40.5069465637207 -3.6528892517089844
v -1.0594843626022339 0.17684248089790344 -11.58303165435791
v -1.213112473487854 11.827324867248535 -12.021215438842773
v -1.2385022640228271 23.485090255737305 -11.650202751159668
v -1.1351053714752197 32.546043395996094 -10.840986251831055
v -1.5166250467300415 40.638736724853516 -9.176499366760254
v -1.9364959001541138 48.892738342285156 -12.238130569458008
v -2.8362770080566406 48.9906120300293 -16.63221549987793
v -2.0674619674682617 57.54493713378906 -12.55712890625
v -2.9672434329986572 57.6428108215332 -16.951215744018555
v -2.071871519088745 66.2025375366211 -12.280987739562988
v -2.9716529846191406 66.3004150390625 -16.675073623657227
v -1.9637377262115479 72.93163299560547 -11.684870719909668
v -2.8635189533233643 73.02950286865234 -16.078956604003906
v -2.2491295337677 78.94164276123047 -10.765607833862305
v -3.0817713737487793 79.03952026367188 -14.829693794250488
v -0.7638002634048462 48.79486083984375 -6.502626419067383
v -0.8305447101593018 57.45247268676758 -6.532870292663574
v -0.8648352026939392 66.1100845336914 -6.403599262237549
v -0.9092568159103394 72.83821105957031 -6.5354790687561035
v -1.3493478298187256 78.8719253540039 -6.37152099609375
v 0.41991350054740906 48.66862869262695 -1.083151936531067
v 0.4508157968521118 57.32624053955078 -0.6334478259086609
v 0.3454558849334717 65.9880599975586 -0.7833113670349121
v 0.19278189539909363 72.730712890625 -1.2687283754348755
v -0.4872596561908722 78.8724136352539 -2.162700891494751
v 0.5538502931594849 78.77452850341797 2.926036834716797
v 1.2149091958999634 72.6328353881836 3.7267091274261475
v 1.367583155632019 65.89017486572266 4.212124347686768
v 1.4729431867599487 57.22836685180664 4.361988544464111
v 1.442041039466858 48.57075881958008 3.9122843742370605
v -2.330578088760376 85.15768432617188 14.481486320495605
v -2.1584935188293457 85.28946685791016 7.617753982543945
v -2.4262516498565674 96.8154525756836 15.0808687210083
v -2.254166841506958 96.94725036621094 8.21713638305664
v -2.519092082977295 108.4788818359375 14.85232925415039
v -2.3470077514648438 108.61067199707031 7.988596439361572
v -2.5723698139190674 117.55809020996094 14.169206619262695
v -2.400285005569458 117.68988800048828 7.305473327636719
v -3.1971676349639893 125.8281021118164 12.918469429016113
v -3.0217273235321045 125.95989227294922 5.926572799682617
v -2.0699708461761475 85.4594497680664 0.148728609085083
v -2.148380756378174 97.1172103881836 0.08882956951856613
v -2.2325279712677 108.77497863769531 0.24804918467998505
v -2.2508633136749268 117.83463287353516 0.06156365945935249
v -2.877937078475952 125.95925903320312 0.14337438344955444
v -1.8712656497955322 85.59123992919922 -7.73159646987915
v -1.9464704990386963 97.2417221069336 -8.189802169799805
v -2.035900592803955 108.89948272705078 -7.828834533691406
v -2.0745937824249268 117.96044921875 -7.013960361480713
v -1.7208114862442017 85.72303009033203 -13.769285202026367
v -1.7960166931152344 97.3735122680664 -14.227490425109863
v -1.8854467868804932 109.03128051757812 -13.866522789001465
v -3.800403118133545 132.4069366455078 13.675514221191406
v 2.258484363555908 -1.9743374586105347 14.175360679626465
v -2.289734363555908 132.37899780273438 -12.149319648742676
v 3.769153118133545 -2.002284049987793 -11.6494722366333
vn 0.9972768425941467 0.045181334018707275 0.05828860029578209
vn 0.9972768425941467 0.045181334018707275 0.05828860029578209
vn 0.9972768425941467 0.045181334018707275 0.05828860029578209
vn 0.9972768425941467 0.045181334018707275 0.05828860029578209
vn 0.9988510012626648 -0.046772703528404236 0.01043824851512909
vn 0.9988546967506409 -0.04674060270190239 0.01022810023277998
vn 0.997624933719635 -0.06816351413726807 0.00991234090179205
vn 0.9935653805732727 -0.08645180612802505 -0.07317015528678894
vn 0.993181586265564 -0.08632975071668625 -0.07834213227033615
vn 0.9936025738716125 -0.08602853864431381 -0.07316459715366364
vn 0.9932381510734558 -0.08611053973436356 -0.0778648853302002
vn 0.9936240315437317 -0.08578316122293472 -0.07316136360168457
vn 0.9932886958122253 -0.08610980957746506 -0.07721847295761108
vn 0.9950965642929077 -0.06684616953134537 -0.07289966940879822
vn 0.9949691891670227 -0.06652460247278214 -0.07490552216768265
vn 0.9963147044181824 -0.04570477828383446 -0.07258136570453644
vn 0.9962104558944702 -0.046345874667167664 -0.0735989660024643
vn 0.9931835532188416 -0.08638954907655716 -0.0782511755824089
vn 0.9932056069374084 -0.08633176237344742 -0.07803494483232498
vn 0.9931906461715698 -0.08723141998052597 -0.07722063362598419
vn 0.9948989152908325 -0.06786360591650009 -0.07463660091161728
vn 0.9961838722229004 -0.04718323424458504 -0.07342639565467834
vn 0.9935742020606995 -0.08629069477319717 -0.07324113696813583
vn 0.9935529232025146 -0.08631689101457596 -0.07349783182144165
vn 0.9934269189834595 -0.08775007724761963 -0.0735039934515953
vn 0.9949955344200134 -0.06819664686918259 -0.07302822917699814
vn 0.9962348341941833 -0.04715748131275177 -0.07274820655584335
vn 0.9935833811759949 -0.08615978807210922 -0.07327009737491608
vn 0.9935698509216309 -0.08631362020969391 -0.0732726976275444
vn 0.9934375286102295 -0.08780284225940704 -0.07329759001731873
vn 0.9949603080749512 -0.06877588480710983 -0.07296457141637802
vn 0.9962490200996399 -0.04718703404068947 -0.07253473997116089
vn 0.9913341403007507 -0.08692294359207153 -0.09849397093057632
vn 0.9913427233695984 -0.08679130673408508 -0.0985235944390297
vn 0.9913057684898376 -0.08695123344659805 -0.09875381737947464
vn 0.9913288950920105 -0.0869462788105011 -0.09852587431669235
vn 0.9911777973175049 -0.0883949026465416 -0.0987568199634552
vn 0.9911940097808838 -0.08844650536775589 -0.09854771196842194
vn 0.9927815198898315 -0.06869588047266006 -0.09831468760967255
vn 0.9927474856376648 -0.06927897036075592 -0.09824922680854797
vn 0.9940459132194519 -0.04750204086303711 -0.09806264936923981
vn 0.9940658211708069 -0.04753094166517258 -0.09784649312496185
vn 0.9908048510551453 -0.08705953508615494 -0.10356808453798294
vn 0.9908329844474792 -0.08699971437454224 -0.10334913432598114
vn 0.990839421749115 -0.08790019899606705 -0.102522112429142
vn 0.9926413297653198 -0.06836976855993271 -0.09994390606880188
vn 0.9939765930175781 -0.04753072187304497 -0.09874927997589111
vn 0.9908004403114319 -0.08699995279312134 -0.10366036742925644
vn 0.9908705353736877 -0.0867755338549614 -0.10317733883857727
vn 0.9909390211105347 -0.08677004277706146 -0.10252245515584946
vn 0.9927055239677429 -0.06702236831188202 -0.10021859407424927
vn 0.9939990043640137 -0.04668788984417915 -0.09892503172159195
vn 0.9941312670707703 -0.04603808373212814 -0.09789547324180603
vn 0.9928873777389526 -0.06733483821153641 -0.09818688780069351
vn 0.9913867712020874 -0.08641114830970764 -0.0984143391251564
vn 0.9913648962974548 -0.08665833622217178 -0.09841706603765488
vn 0.9913271069526672 -0.08708470314741135 -0.09842174500226974
vn 0.9962767362594604 -0.08567678183317184 0.009597357362508774
vn 0.9963338375091553 -0.08543175458908081 0.004511763341724873
vn 0.99631267786026 -0.08525745570659637 0.00960581749677658
vn 0.9963491559028625 -0.08522623032331467 0.004982141312211752
vn 0.9963333606719971 -0.08501435816287994 0.00961073487997055
vn 0.9963445067405701 -0.08524095267057419 0.005617336370050907
vn 0.9977529048919678 -0.0662522092461586 0.009986994788050652
vn 0.9977942705154419 -0.06589633226394653 0.00801424216479063
vn 0.9989191889762878 -0.045302875339984894 0.010397959500551224
vn 0.9989007115364075 -0.04592517018318176 0.009393436834216118
vn 0.9963281154632568 -0.08549311012029648 0.004600684158504009
vn 0.9963315725326538 -0.08544110506772995 0.004813505802303553
vn 0.9962489604949951 -0.0863511860370636 0.005607233382761478
vn 0.9977033734321594 -0.06722775101661682 0.00827147625386715
vn 0.9988605380058289 -0.04675719514489174 0.009560136124491692
vn 0.9962912797927856 -0.08551541715860367 0.009528601542115211
vn 0.996291995048523 -0.0855352133512497 0.009275678545236588
vn 0.9961692094802856 -0.0869552418589592 0.009259370155632496
vn 0.9976646304130554 -0.06758822500705719 0.009852911345660686
vn 0.9963027238845825 -0.08538499474525452 0.009501012042164803
vn 0.9962896704673767 -0.0855373814702034 0.009497366845607758
vn 0.9961622953414917 -0.08701257407665253 0.009462205693125725
vn 0.9972768425941467 0.045181334018707275 0.05828860029578209
vn 0.9972768425941467 0.045181334018707275 0.05828860029578209
vn 0.9972768425941467 0.045181334018707275 0.05828860029578209
vn 0.9972768425941467 0.045181334018707275 0.05828860029578209
vt -2.1603879928588867 0.0005009174346923828
vt 1.1605167388916016 0.0004994869232177734
vt -2.1603879928588867 0.9995014071464539
vt 1.1605167388916016 0.9994999170303345
vt 0.48049959540367126 0.999500036239624
vt 0.48049959540367126 0.749750018119812
vt 0.73024982213974 0.9994997978210449
vt 1.4795005321502686 0.0004991292953491211
vt 1.4795005321502686 0.25024908781051636
vt 1.2297502756118774 0.0004993677139282227
vt 1.2297502756118774 0.25024932622909546
vt 0.9800000190734863 0.0004995465278625488
vt 0.9800000190734863 0.25024956464767456
vt 0.7302497625350952 0.0004997849464416504
vt 0.7302497625350952 0.25024980306625366
vt 0.4804995357990265 0.000500023365020752
vt 0.4804995656013489 0.250249981880188
vt 1.4795005321502686 0.49999910593032837
vt 1.2297502756118774 0.49999934434890747
vt 0.9800000190734863 0.4999995231628418
vt 0.73024982213974 0.4999997615814209
vt 0.4804995656013489 0.5
vt 1.4795005321502686 0.7497491240501404
vt 1.2297502756118774 0.7497493028640747
vt 0.9800000786781311 0.7497495412826538
vt 0.73024982213974 0.7497497797012329
vt 0.48049959540367126 0.749750018119812
vt 1.4795005321502686 0.9994990825653076
vt 1.229750394821167 0.9994993209838867
vt 0.9800000786781311 0.9994995594024658
vt 0.73024982213974 0.9994997978210449
vt 0.48049959540367126 0.999500036239624
vt 1.4795005321502686 0.7497491240501404
vt 1.4795005321502686 0.9994990825653076
vt 1.2297502756118774 0.7497493028640747
vt 1.229750394821167 0.9994993209838867
vt 0.9800000786781311 0.7497495412826538
vt 0.9800000786781311 0.9994995594024658
vt 0.73024982213974 0.7497497797012329
vt 0.73024982213974 0.9994997978210449
vt 0.48049959540367126 0.749750018119812
vt 0.48049959540367126 0.999500036239624
vt 1.4795005321502686 0.49999910593032837
vt 1.2297502756118774 0.49999934434890747
vt 0.9800000190734863 0.4999995231628418
vt 0.73024982213974 0.4999997615814209
vt 0.4804995656013489 0.5
vt 1.4795005321502686 0.25024908781051636
vt 1.2297502756118774 0.25024932622909546
vt 0.9800000190734863 0.25024956464767456
vt 0.7302497625350952 0.25024980306625366
vt 0.4804995656013489 0.250249981880188
vt 0.4804995357990265 0.000500023365020752
vt 0.7302497625350952 0.0004997849464416504
vt 0.9800000190734863 0.0004995465278625488
vt 1.2297502756118774 0.0004993677139282227
vt 1.4795005321502686 0.0004991292953491211
vt 1.4795005321502686 0.0004991292953491211
vt 1.4795005321502686 0.25024908781051636
vt 1.2297502756118774 0.0004993677139282227
vt 1.2297502756118774 0.25024932622909546
vt 0.9800000190734863 0.0004995465278625488
vt 0.9800000190734863 0.25024956464767456
vt 0.7302497625350952 0.0004997849464416504
vt 0.7302497625350952 0.25024980306625366
vt 0.4804995357990265 0.000500023365020752
vt 0.4804995656013489 0.250249981880188
vt 1.4795005321502686 0.49999910593032837
vt 1.2297502756118774 0.49999934434890747
vt 0.9800000190734863 0.4999995231628418
vt 0.73024982213974 0.4999997615814209
vt 0.4804995656013489 0.5
vt 1.4795005321502686 0.7497491240501404
vt 1.2297502756118774 0.7497493028640747
vt 0.9800000786781311 0.7497495412826538
vt 0.73024982213974 0.7497497797012329
vt 1.4795005321502686 0.9994990825653076
vt 1.229750394821167 0.9994993209838867
vt 0.9800000786781311 0.9994995594024658
vt -2.1603879928588867 0.0005009174346923828
vt 1.1605167388916016 0.0004994869232177734
vt -2.1603879928588867 0.9995014071464539
vt 1.1605167388916016 0.9994999170303345
g Geoset0
s 1
usemtl mat_waterchop
f 1/1/1 2/2/2 3/3/3
f 4/4/4 3/3/3 2/2/2
g Geoset1
s 1
usemtl mat_watercascade_soft_directionaflipl
f 5/5/5 6/6/6 7/7/7
f 8/8/8 9/9/9 10/10/10
f 11/11/11 10/10/10 9/9/9
f 10/10/10 11/11/11 12/12/12
f 13/13/13 12/12/12 11/11/11
f 12/12/12 13/13/13 14/14/14
f 15/15/15 14/14/14 13/13/13
f 14/14/14 15/15/15 16/16/16
f 17/17/17 16/16/16 15/15/15
f 9/9/9 18/18/18 11/11/11
f 19/19/19 11/11/11 18/18/18
f 11/11/11 19/19/19 13/13/13
f 20/20/20 13/13/13 19/19/19
f 13/13/13 20/20/20 15/15/15
f 21/21/21 15/15/15 20/20/20
f 15/15/15 21/21/21 17/17/17
f 22/22/22 17/17/17 21/21/21
f 18/18/18 23/23/23 19/19/19
f 24/24/24 19/19/19 23/23/23
f 19/19/19 24/24/24 20/20/20
f 25/25/25 20/20/20 24/24/24
f 20/20/20 25/25/25 21/21/21
f 26/26/26 21/21/21 25/25/25
f 21/21/21 26/26/26 22/22/22
f 27/27/27 22/22/22 26/26/26
f 23/23/23 28/28/28 24/24/24
f 29/29/29 24/24/24 28/28/28
f 24/24/24 29/29/29 25/25/25
f 30/30/30 25/25/25 29/29/29
f 25/25/25 30/30/30 26/26/26
f 31/31/31 26/26/26 30/30/30
f 26/26/26 31/31/31 27/27/27
f 32/32/32 27/27/27 31/31/31
f 33/33/33 34/34/34 35/35/35
f 36/36/36 35/35/35 34/34/34
f 35/35/35 36/36/36 37/37/37
f 38/38/38 37/37/37 36/36/36
f 37/37/37 38/38/38 39/39/39
f 40/40/40 39/39/39 38/38/38
f 39/39/39 40/40/40 41/41/41
f 42/42/42 41/41/41 40/40/40
f 43/43/43 33/33/33 44/44/44
f 35/35/35 44/44/44 33/33/33
f 44/44/44 35/35/35 45/45/45
f 37/37/37 45/45/45 35/35/35
f 45/45/45 37/37/37 46/46/46
f 39/39/39 46/46/46 37/37/37
f 46/46/46 39/39/39 47/47/47
f 41/41/41 47/47/47 39/39/39
f 48/48/48 43/43/43 49/49/49
f 44/44/44 49/49/49 43/43/43
f 49/49/49 44/44/44 50/50/50
f 45/45/45 50/50/50 44/44/44
f 50/50/50 45/45/45 51/51/51
f 46/46/46 51/51/51 45/45/45
f 51/51/51 46/46/46 52/52/52
f 47/47/47 52/52/52 46/46/46
f 52/52/52 53/53/53 51/51/51
f 54/54/54 51/51/51 53/53/53
f 51/51/51 54/54/54 50/50/50
f 55/55/55 50/50/50 54/54/54
f 50/50/50 55/55/55 49/49/49
f 56/56/56 49/49/49 55/55/55
f 49/49/49 56/56/56 48/48/48
f 57/57/57 48/48/48 56/56/56
f 58/58/58 59/59/59 60/60/60
f 61/61/61 60/60/60 59/59/59
f 60/60/60 61/61/61 62/62/62
f 63/63/63 62/62/62 61/61/61
f 62/62/62 63/63/63 64/64/64
f 65/65/65 64/64/64 63/63/63
f 64/64/64 65/65/65 66/66/66
f 67/67/67 66/66/66 65/65/65
f 59/59/59 68/68/68 61/61/61
f 69/69/69 61/61/61 68/68/68
f 61/61/61 69/69/69 63/63/63
f 70/70/70 63/63/63 69/69/69
f 63/63/63 70/70/70 65/65/65
f 71/71/71 65/65/65 70/70/70
f 65/65/65 71/71/71 67/67/67
f 72/72/72 67/67/67 71/71/71
f 68/68/68 73/73/73 69/69/69
f 74/74/74 69/69/69 73/73/73
f 69/69/69 74/74/74 70/70/70
f 75/75/75 70/70/70 74/74/74
f 70/70/70 75/75/75 71/71/71
f 76/76/76 71/71/71 75/75/75
f 71/71/71 76/76/76 72/72/72
f 6/6/6 72/72/72 76/76/76
f 73/73/73 77/77/77 74/74/74
f 78/78/78 74/74/74 77/77/77
f 74/74/74 78/78/78 75/75/75
f 79/79/79 75/75/75 78/78/78
f 75/75/75 79/79/79 76/76/76
f 7/7/7 76/76/76 79/79/79
f 76/76/76 7/7/7 6/6/6
g Geoset2
s 1
usemtl mat_waterchop5
f 80/80/80 81/81/81 82/82/82
f 83/83/83 82/82/82 81/81/81
