# Exported using wow.export v0.1.64
o dragonblight_combin_waterfall_06
mtllib dragonblight_combin_waterfall_06.mtl
v 50.61061096191406 257.0003356933594 -21.7197322845459
v 47.6441535949707 27.42283821105957 -26.790756225585938
v -31.40109634399414 257.25347900390625 14.794228553771973
v -34.3675537109375 27.675996780395508 9.723203659057617
v -49.89942932128906 217.85511779785156 26.550100326538086
v -44.22294235229492 217.7194366455078 24.014150619506836
v -49.507022857666016 205.86195373535156 26.277158737182617
v -1.1111618280410767 249.3684844970703 1.7433768510818481
v 5.905171871185303 249.189208984375 -1.1741411685943604
v -3.4336495399475098 238.36007690429688 1.7875696420669556
v 4.152568340301514 238.18077087402344 -1.3660019636154175
v 13.491392135620117 249.0615234375 -4.327713966369629
v 13.042778015136719 238.00965881347656 -5.061708450317383
v 20.75766944885254 249.06239318847656 -7.348761558532715
v 22.12738609313965 237.812744140625 -8.883942604064941
v 29.54349708557129 248.88311767578125 -10.999228477478027
v 30.752084732055664 237.63351440429688 -12.467670440673828
v -4.4676947593688965 226.0345001220703 2.190340518951416
v 3.1185238361358643 225.85523986816406 -0.9632318615913391
v 13.264376640319824 225.6858673095703 -5.187674045562744
v 22.94681739807129 225.4623565673828 -9.328110694885254
v 31.57151985168457 225.28306579589844 -12.911836624145508
v -4.965744972229004 210.176513671875 2.2789218425750732
v 2.6204731464385986 209.9972686767578 -0.8746502995491028
v 13.019957542419434 209.82789611816406 -5.2041497230529785
v 23.179452896118164 209.59666442871094 -9.569929122924805
v 31.804155349731445 209.4174041748047 -13.153656005859375
v 31.00637435913086 193.5594024658203 -12.940922737121582
v 22.381671905517578 193.7386932373047 -9.357196807861328
v 13.051011085510254 193.9698944091797 -5.334731101989746
v 3.1482701301574707 194.149169921875 -1.2216236591339111
v -4.437948703765869 194.3284454345703 1.9319483041763306
v -46.994049072265625 247.513916015625 26.0685977935791
v -41.7440071105957 247.37823486328125 23.72251319885254
v -48.7501335144043 239.18321228027344 26.148040771484375
v -43.073646545410156 239.0475311279297 23.612091064453125
v -36.06752014160156 247.28163146972656 21.18656349182129
v -36.42143630981445 238.91802978515625 20.64018440246582
v -30.63043975830078 247.28228759765625 18.757205963134766
v -29.624671936035156 238.76901245117188 17.56871223449707
v -24.056297302246094 247.14659118652344 15.8215913772583
v -23.171092987060547 238.63336181640625 14.68677806854248
v -49.52440643310547 229.85574340820312 26.47321891784668
v -43.847923278808594 229.72007751464844 23.93726921081543
v -36.25629425048828 229.59190368652344 20.540504455566406
v -29.013566970825195 229.4227752685547 17.21647071838379
v -22.559993743896484 229.28707885742188 14.334537506103516
v -36.44152069091797 217.59127807617188 20.532882690429688
v -28.842370986938477 217.41627502441406 17.0289249420166
v -22.3887939453125 217.2806396484375 14.146992683410645
v -22.988100051879883 205.2799835205078 14.323728561401367
v -29.44167709350586 205.41566467285156 17.205665588378906
v -36.42061996459961 205.59063720703125 20.43348503112793
v -43.83053970336914 205.72628784179688 23.741209030151367
v -18.131168365478516 256.5318908691406 15.868698120117188
v -19.714982986450195 72.69215393066406 7.515286922454834
v -51.387447357177734 256.26837158203125 27.97299575805664
v -52.97126388549805 72.42865753173828 19.619583129882812
v -18.145925521850586 256.5389709472656 15.828333854675293
v -19.729740142822266 72.69925689697266 7.474922180175781
v -51.40220642089844 256.2754821777344 27.93263053894043
v -52.986019134521484 72.4357681274414 19.5792179107666
v -30.68752098083496 16.27457046508789 6.731804370880127
v -14.5540771484375 15.994502067565918 -0.12504614889621735
v -29.50428009033203 -8.483587265014648 6.131366729736328
v -21.724964141845703 77.58158111572266 3.739098072052002
v -6.803080081939697 77.301513671875 -2.6034772396087646
v -26.225156784057617 60.30342483520508 4.947230815887451
v -10.091714859008789 60.02335739135742 -1.9096205234527588
v 9.330362319946289 77.02145385742188 -9.460329055786133
v 8.814925193786621 59.75602340698242 -9.94515609741211
v 24.783620834350586 76.74140167236328 -16.02845573425293
v 28.156770706176758 59.44841384887695 -18.200618743896484
v 43.46739196777344 76.46131896972656 -23.967859268188477
v 46.49800109863281 59.16834259033203 -25.994619369506836
v -29.04755401611328 41.04821014404297 6.125728130340576
v -12.91411304473877 40.76814651489258 -0.7311230897903442
v 8.666104316711426 40.50355529785156 -9.908127784729004
v 29.31255531311035 40.15437698364258 -18.771347045898438
v 47.65378189086914 39.87430953979492 -26.565345764160156
v 8.787102699279785 15.729912757873535 -10.049534797668457
v 29.239227294921875 15.368704795837402 -18.85148811340332
v 47.58045196533203 15.088635444641113 -26.64548683166504
v 45.940486907958984 -9.68500804901123 -26.039409637451172
v 27.599262237548828 -9.404936790466309 -18.24540901184082
v 8.322489738464355 -9.043726921081543 -9.942365646362305
v -13.37083911895752 -8.763656616210938 -0.7254839539527893
v 52.98561096191406 257.05328369140625 -22.902023315429688
v 50.0191535949707 27.47579002380371 -27.973047256469727
v -29.02609634399414 257.3064270019531 13.61193561553955
v -31.9925537109375 27.72894859313965 8.540912628173828
vn -0.4065394699573517 0.025425948202610016 -0.9132793545722961
vn -0.4065394699573517 0.025425948202610016 -0.9132793545722961
vn -0.4065394699573517 0.025425948202610016 -0.9132793545722961
vn -0.4065394699573517 0.025425948202610016 -0.9132793545722961
vn -0.6836521029472351 -0.1423439383506775 -0.7157918810844421
vn -0.6841042637825012 -0.14228785037994385 -0.7153708934783936
vn -0.6836697459220886 -0.1420944631099701 -0.7158246040344238
vn -0.6603959798812866 -0.07999259233474731 -0.7466447353363037
vn -0.6608614921569824 -0.07990988343954086 -0.746241569519043
vn -0.6591529846191406 -0.1162014976143837 -0.7429767847061157
vn -0.6593596339225769 -0.11521793901920319 -0.7429466247558594
vn -0.6623265743255615 -0.07984892278909683 -0.7449480891227722
vn -0.662866473197937 -0.11430715769529343 -0.7399607300758362
vn -0.6627671122550964 -0.07841192185878754 -0.7447088956832886
vn -0.663598358631134 -0.11201392859220505 -0.7396553754806519
vn -0.6606172323226929 -0.0774836540222168 -0.7467135787010193
vn -0.6592389345169067 -0.1129847913980484 -0.7433965802192688
vn -0.6573059558868408 -0.1478143036365509 -0.7389856576919556
vn -0.6577607989311218 -0.14766879379749298 -0.7386099696159363
vn -0.6657875776290894 -0.14577001333236694 -0.7317636609077454
vn -0.6659491658210754 -0.14392368495464325 -0.7319820523262024
vn -0.6573118567466736 -0.14450208842754364 -0.7396352291107178
vn -0.6574747562408447 -0.1453516036272049 -0.7393239140510559
vn -0.6579616665840149 -0.14529471099376678 -0.7389017939567566
vn -0.6676377654075623 -0.14406320452690125 -0.7304146885871887
vn -0.6673125624656677 -0.14374636113643646 -0.7307742238044739
vn -0.6572826504707336 -0.14490844309329987 -0.7395816445350647
vn -0.6572319865226746 -0.1456092745065689 -0.7394890785217285
vn -0.6682834029197693 -0.1439748853445053 -0.729841411113739
vn -0.6680836081504822 -0.14409834146499634 -0.7299999594688416
vn -0.6574097275733948 -0.1453222930431366 -0.7393875122070312
vn -0.6574918627738953 -0.14509709179401398 -0.73935866355896
vn -0.6867029070854187 -0.07831396162509918 -0.7227074503898621
vn -0.6871349811553955 -0.0782327875494957 -0.722305417060852
vn -0.6853861212730408 -0.11377931386232376 -0.7192357778549194
vn -0.6855831146240234 -0.11281564831733704 -0.7191998362541199
vn -0.688494086265564 -0.07817256450653076 -0.7210165858268738
vn -0.6888407468795776 -0.11192168295383453 -0.7162206172943115
vn -0.6889078617095947 -0.07676523923873901 -0.7207725644111633
vn -0.6895314455032349 -0.1096748486161232 -0.7159034609794617
vn -0.686917245388031 -0.0758569985628128 -0.7227658033370972
vn -0.685482919216156 -0.11062803119421005 -0.7196350693702698
vn -0.6834786534309387 -0.14475780725479126 -0.7154733538627625
vn -0.6839016675949097 -0.14461489021778107 -0.7150979042053223
vn -0.6913601160049438 -0.1427493542432785 -0.7082682251930237
vn -0.6915223598480225 -0.14093971252441406 -0.7084721326828003
vn -0.6835067868232727 -0.14151141047477722 -0.7160956859588623
vn -0.6930874586105347 -0.14107570052146912 -0.7069140076637268
vn -0.6927880048751831 -0.14076530933380127 -0.7072693109512329
vn -0.6834768652915955 -0.14190970361232758 -0.7160453796386719
vn -0.6834251284599304 -0.14259663224220276 -0.715958297252655
vn -0.6936867833137512 -0.14098884165287018 -0.7063432931900024
vn -0.6935006976127625 -0.14110994338989258 -0.7065017819404602
vn -0.6835920214653015 -0.14231523871421814 -0.7158549427986145
vn -0.341983437538147 0.04559481143951416 -0.938599169254303
vn -0.341983437538147 0.04559481143951416 -0.938599169254303
vn -0.341983437538147 0.04559481143951416 -0.938599169254303
vn -0.341983437538147 0.04559481143951416 -0.938599169254303
vn -0.341983437538147 0.04559481143951416 -0.938599169254303
vn -0.341983437538147 0.04559481143951416 -0.938599169254303
vn -0.341983437538147 0.04559481143951416 -0.938599169254303
vn -0.341983437538147 0.04559481143951416 -0.938599169254303
vn -0.73717200756073 -0.0703311637043953 -0.6720349192619324
vn -0.7375475764274597 -0.07030336558818817 -0.6716256737709045
vn -0.7371700406074524 -0.0702451765537262 -0.6720460653305054
vn -0.7364132404327393 -0.04762812331318855 -0.6748533844947815
vn -0.7364446520805359 -0.04762033000588417 -0.6748197078704834
vn -0.7368977069854736 -0.06018858030438423 -0.6733194589614868
vn -0.7369863986968994 -0.059775494039058685 -0.6732591986656189
vn -0.7365131974220276 -0.047555357217788696 -0.6747494339942932
vn -0.739983081817627 -0.05922917649149895 -0.6700126528739929
vn -0.7374310493469238 -0.046708256006240845 -0.6738054752349854
vn -0.7406384944915771 -0.05826456472277641 -0.6693727374076843
vn -0.7365080118179321 -0.04620928317308426 -0.6748486161231995
vn -0.7367969751358032 -0.05871279537677765 -0.6735599637031555
vn -0.7371913194656372 -0.07119197398424149 -0.6719231009483337
vn -0.7375919818878174 -0.07113001495599747 -0.6714898347854614
vn -0.7446250915527344 -0.0702042356133461 -0.663780689239502
vn -0.7447551488876343 -0.06953220814466476 -0.6637055277824402
vn -0.7369665503501892 -0.07003559172153473 -0.672291100025177
vn -0.7467168569564819 -0.06947148591279984 -0.6615040898323059
vn -0.7464723587036133 -0.06935888528823853 -0.6617918014526367
vn -0.7369681596755981 -0.07018177211284637 -0.672274112701416
vn -0.7369707822799683 -0.07043377310037613 -0.6722448468208313
vn -0.7471277117729187 -0.0694611519575119 -0.6610411405563354
vn -0.7469436526298523 -0.06950120627880096 -0.6612448692321777
vn -0.7370880246162415 -0.07032576203346252 -0.6721276044845581
vn -0.4065394699573517 0.025425948202610016 -0.9132793545722961
vn -0.4065394699573517 0.025425948202610016 -0.9132793545722961
vn -0.4065394699573517 0.025425948202610016 -0.9132793545722961
vn -0.4065394699573517 0.025425948202610016 -0.9132793545722961
vt -1.9984769821166992 0.0004997849464416504
vt 0.9985263347625732 0.0004996061325073242
vt -1.9984769821166992 0.9995005130767822
vt 0.9985264539718628 0.9995003342628479
vt 1.229750394821167 0.9994993209838867
vt 1.2297502756118774 0.7497493028640747
vt 1.4795005321502686 0.9994990825653076
vt 0.48049959540367126 0.999500036239624
vt 0.48049959540367126 0.749750018119812
vt 0.73024982213974 0.9994997978210449
vt 0.73024982213974 0.7497497797012329
vt 0.4804995656013489 0.5
vt 0.73024982213974 0.4999997615814209
vt 0.4804995656013489 0.250249981880188
vt 0.7302497625350952 0.25024980306625366
vt 0.4804995357990265 0.000500023365020752
vt 0.7302497625350952 0.0004997849464416504
vt 0.9800000786781311 0.9994995594024658
vt 0.9800000786781311 0.7497495412826538
vt 0.9800000190734863 0.4999995231628418
vt 0.9800000190734863 0.25024956464767456
vt 0.9800000190734863 0.0004995465278625488
vt 1.229750394821167 0.9994993209838867
vt 1.2297502756118774 0.7497493028640747
vt 1.2297502756118774 0.49999934434890747
vt 1.2297502756118774 0.25024932622909546
vt 1.2297502756118774 0.0004993677139282227
vt 1.4795005321502686 0.0004991292953491211
vt 1.4795005321502686 0.25024908781051636
vt 1.4795005321502686 0.49999910593032837
vt 1.4795005321502686 0.7497491240501404
vt 1.4795005321502686 0.9994990825653076
vt 0.48049959540367126 0.999500036239624
vt 0.48049959540367126 0.749750018119812
vt 0.73024982213974 0.9994997978210449
vt 0.73024982213974 0.7497497797012329
vt 0.4804995656013489 0.5
vt 0.73024982213974 0.4999997615814209
vt 0.4804995656013489 0.250249981880188
vt 0.7302497625350952 0.25024980306625366
vt 0.4804995357990265 0.000500023365020752
vt 0.7302497625350952 0.0004997849464416504
vt 0.9800000786781311 0.9994995594024658
vt 0.9800000786781311 0.7497495412826538
vt 0.9800000190734863 0.4999995231628418
vt 0.9800000190734863 0.25024956464767456
vt 0.9800000190734863 0.0004995465278625488
vt 1.2297502756118774 0.49999934434890747
vt 1.2297502756118774 0.25024932622909546
vt 1.2297502756118774 0.0004993677139282227
vt 1.4795005321502686 0.0004991292953491211
vt 1.4795005321502686 0.25024908781051636
vt 1.4795005321502686 0.49999910593032837
vt 1.4795005321502686 0.7497491240501404
vt -2.1603879928588867 0.0005009174346923828
vt 1.1605167388916016 0.0004994869232177734
vt -2.1603879928588867 0.9995014071464539
vt 1.1605167388916016 0.9994999170303345
vt -2.1603879928588867 0.0005009174346923828
vt 1.1605167388916016 0.0004994869232177734
vt -2.1603879928588867 0.9995014071464539
vt 1.1605167388916016 0.9994999170303345
vt 1.229750394821167 0.9994993209838867
vt 1.2297502756118774 0.7497493028640747
vt 1.4795005321502686 0.9994990825653076
vt 0.48049959540367126 0.999500036239624
vt 0.48049959540367126 0.749750018119812
vt 0.73024982213974 0.9994997978210449
vt 0.73024982213974 0.7497497797012329
vt 0.4804995656013489 0.5
vt 0.73024982213974 0.4999997615814209
vt 0.4804995656013489 0.250249981880188
vt 0.7302497625350952 0.25024980306625366
vt 0.4804995357990265 0.000500023365020752
vt 0.7302497625350952 0.0004997849464416504
vt 0.9800000786781311 0.9994995594024658
vt 0.9800000786781311 0.7497495412826538
vt 0.9800000190734863 0.4999995231628418
vt 0.9800000190734863 0.25024956464767456
vt 0.9800000190734863 0.0004995465278625488
vt 1.2297502756118774 0.49999934434890747
vt 1.2297502756118774 0.25024932622909546
vt 1.2297502756118774 0.0004993677139282227
vt 1.4795005321502686 0.0004991292953491211
vt 1.4795005321502686 0.25024908781051636
vt 1.4795005321502686 0.49999910593032837
vt 1.4795005321502686 0.7497491240501404
vt 2.998476982116699 0.999500036239624
vt 0.0014736652374267578 0.9995003938674927
vt 2.99847674369812 0.0004992485046386719
vt 0.0014734864234924316 0.000499725341796875
g Geoset0
s 1
usemtl mat_waterchop5
f 1/1/1 2/2/2 3/3/3
f 4/4/4 3/3/3 2/2/2
g Geoset1
s 1
usemtl mat_watercascade_soft_directionaflipl
f 5/5/5 6/6/6 7/7/7
f 8/8/8 9/9/9 10/10/10
f 11/11/11 10/10/10 9/9/9
f 9/9/9 12/12/12 11/11/11
f 13/13/13 11/11/11 12/12/12
f 12/12/12 14/14/14 13/13/13
f 15/15/15 13/13/13 14/14/14
f 14/14/14 16/16/16 15/15/15
f 17/17/17 15/15/15 16/16/16
f 10/10/10 11/11/11 18/18/18
f 19/19/19 18/18/18 11/11/11
f 11/11/11 13/13/13 19/19/19
f 20/20/20 19/19/19 13/13/13
f 13/13/13 15/15/15 20/20/20
f 21/21/21 20/20/20 15/15/15
f 15/15/15 17/17/17 21/21/21
f 22/22/22 21/21/21 17/17/17
f 18/18/18 19/19/19 23/23/23
f 24/24/24 23/23/23 19/19/19
f 19/19/19 20/20/20 24/24/24
f 25/25/25 24/24/24 20/20/20
f 20/20/20 21/21/21 25/25/25
f 26/26/26 25/25/25 21/21/21
f 21/21/21 22/22/22 26/26/26
f 27/27/27 26/26/26 22/22/22
f 28/28/28 29/29/29 27/27/27
f 26/26/26 27/27/27 29/29/29
f 29/29/29 30/30/30 26/26/26
f 25/25/25 26/26/26 30/30/30
f 30/30/30 31/31/31 25/25/25
f 24/24/24 25/25/25 31/31/31
f 31/31/31 32/32/32 24/24/24
f 23/23/23 24/24/24 32/32/32
f 33/33/33 34/34/34 35/35/35
f 36/36/36 35/35/35 34/34/34
f 34/34/34 37/37/37 36/36/36
f 38/38/38 36/36/36 37/37/37
f 37/37/37 39/39/39 38/38/38
f 40/40/40 38/38/38 39/39/39
f 39/39/39 41/41/41 40/40/40
f 42/42/42 40/40/40 41/41/41
f 35/35/35 36/36/36 43/43/43
f 44/44/44 43/43/43 36/36/36
f 36/36/36 38/38/38 44/44/44
f 45/45/45 44/44/44 38/38/38
f 38/38/38 40/40/40 45/45/45
f 46/46/46 45/45/45 40/40/40
f 40/40/40 42/42/42 46/46/46
f 47/47/47 46/46/46 42/42/42
f 43/43/43 44/44/44 5/5/5
f 6/6/6 5/5/5 44/44/44
f 44/44/44 45/45/45 6/6/6
f 48/48/48 6/6/6 45/45/45
f 45/45/45 46/46/46 48/48/48
f 49/49/49 48/48/48 46/46/46
f 46/46/46 47/47/47 49/49/49
f 50/50/50 49/49/49 47/47/47
f 51/51/51 52/52/52 50/50/50
f 49/49/49 50/50/50 52/52/52
f 52/52/52 53/53/53 49/49/49
f 48/48/48 49/49/49 53/53/53
f 53/53/53 54/54/54 48/48/48
f 6/6/6 48/48/48 54/54/54
f 54/54/54 7/7/7 6/6/6
g Geoset2
s 1
usemtl mat_waterchop5
f 55/55/55 56/56/56 57/57/57
f 58/58/58 57/57/57 56/56/56
g Geoset3
s 1
usemtl mat_waterchop
f 59/59/59 60/60/60 61/61/61
f 62/62/62 61/61/61 60/60/60
g Geoset4
s 1
usemtl mat_watercascade_soft_directionaflipl
f 63/63/63 64/64/64 65/65/65
f 66/66/66 67/67/67 68/68/68
f 69/69/69 68/68/68 67/67/67
f 67/67/67 70/70/70 69/69/69
f 71/71/71 69/69/69 70/70/70
f 70/70/70 72/72/72 71/71/71
f 73/73/73 71/71/71 72/72/72
f 72/72/72 74/74/74 73/73/73
f 75/75/75 73/73/73 74/74/74
f 68/68/68 69/69/69 76/76/76
f 77/77/77 76/76/76 69/69/69
f 69/69/69 71/71/71 77/77/77
f 78/78/78 77/77/77 71/71/71
f 71/71/71 73/73/73 78/78/78
f 79/79/79 78/78/78 73/73/73
f 73/73/73 75/75/75 79/79/79
f 80/80/80 79/79/79 75/75/75
f 76/76/76 77/77/77 63/63/63
f 64/64/64 63/63/63 77/77/77
f 77/77/77 78/78/78 64/64/64
f 81/81/81 64/64/64 78/78/78
f 78/78/78 79/79/79 81/81/81
f 82/82/82 81/81/81 79/79/79
f 79/79/79 80/80/80 82/82/82
f 83/83/83 82/82/82 80/80/80
f 84/84/84 85/85/85 83/83/83
f 82/82/82 83/83/83 85/85/85
f 85/85/85 86/86/86 82/82/82
f 81/81/81 82/82/82 86/86/86
f 86/86/86 87/87/87 81/81/81
f 64/64/64 81/81/81 87/87/87
f 87/87/87 65/65/65 64/64/64
g Geoset5
s 1
usemtl mat_waterchop
f 88/88/88 89/89/89 90/90/90
f 91/91/91 90/90/90 89/89/89
