# Exported using wow.export v0.1.64
o dragonblight_combin_waterfall_03
mtllib dragonblight_combin_waterfall_03.mtl
v -3.4498043060302734 155.9144287109375 -50.8057975769043
v -3.285917282104492 155.708984375 -42.09958267211914
v -2.521500825881958 143.29934692382812 -53.30061721801758
v -4.111245155334473 96.02169799804688 40.615234375
v -3.1903157234191895 96.22713470458984 29.95220947265625
v -4.3171467781066895 114.19410705566406 41.538719177246094
v -3.396217107772827 114.39955139160156 30.875696182250977
v -4.439853191375732 132.37535095214844 41.17430114746094
v -3.5189239978790283 132.58078002929688 30.511274337768555
v -4.457741737365723 146.52825927734375 40.106346130371094
v -3.536811590194702 146.7336883544922 29.443323135375977
v -5.31085205078125 159.4197540283203 38.10084533691406
v -4.372504234313965 159.6251983642578 27.238727569580078
v -2.3417999744415283 96.49210357666016 18.33945083618164
v -2.4581007957458496 114.66451263427734 18.238792419433594
v -2.6041815280914307 132.8369140625 18.478517532348633
v -2.6149652004241943 146.95932006835938 18.18661880493164
v -3.5984268188476562 159.6241912841797 18.254236221313477
v -1.2827078104019165 96.69754028320312 6.097227573394775
v -1.3561183214187622 114.85860443115234 5.377142429351807
v -1.5296175479888916 133.03099060058594 5.930268287658691
v -1.6673696041107178 147.1554412841797 7.194464206695557
v -2.789762258529663 159.7705078125 8.874408721923828
v -0.4740432798862457 96.9029769897461 -3.2825984954833984
v -0.5474538803100586 115.06404876708984 -4.002683162689209
v -0.7209532260894775 133.23643493652344 -3.4495577812194824
v -0.8587048649787903 147.36087036132812 -2.185361623764038
v -2.0427050590515137 159.9759521484375 0.19875700771808624
v -2.0441622734069824 84.98475646972656 -24.793298721313477
v -2.5487868785858154 85.19019317626953 -34.19438552856445
v -2.217073678970337 103.14582061767578 -25.49616050720215
v -2.721698045730591 103.35124969482422 -34.89724349975586
v -2.311903238296509 121.3182144165039 -24.924272537231445
v -2.816527843475342 121.5236587524414 -34.325355529785156
v -2.272372007369995 135.44265747070312 -23.653207778930664
v -2.776995897293091 135.64808654785156 -33.054290771484375
v -3.1500375270843506 148.05772399902344 -21.833406448364258
v -3.6176676750183105 148.26316833496094 -30.528594970703125
v -1.3891595602035522 84.7793197631836 -12.522820472717285
v -1.518336296081543 102.95172882080078 -12.606314659118652
v -1.6296308040618896 121.12413024902344 -12.348591804504395
v -1.6809335947036743 135.2465362548828 -12.636149406433105
v -2.6454126834869385 147.91140747070312 -12.432320594787598
v -0.6132339835166931 84.51435089111328 -0.9049858450889587
v -0.6886066198348999 102.68675994873047 0.03816789761185646
v -0.8608351945877075 120.86800384521484 -0.3056299090385437
v -1.0271788835525513 135.02093505859375 -1.3607007265090942
v -2.161557912826538 147.91241455078125 -3.42753267288208
v -1.5790592432022095 147.70697021484375 7.459465026855469
v -0.4551405906677246 134.8154754638672 9.326719284057617
v -0.2887968122959137 120.6625747680664 10.381787300109863
v -0.1165679320693016 102.4813232421875 10.725587844848633
v -0.041195232421159744 84.30891418457031 9.78243350982666
v -1.2823551893234253 91.96017456054688 -10.394499778747559
v -1.4810594320297241 92.16561126708984 -21.095375061035156
v -1.3905953168869019 110.13258361816406 -9.45455265045166
v -1.5892995595932007 110.33802032470703 -20.155426025390625
v -1.5507187843322754 128.31382751464844 -9.804154396057129
v -1.7494226694107056 128.51925659179688 -20.50502586364746
v -1.6801379919052124 142.46673583984375 -10.864385604858398
v -1.8788418769836426 142.6721954345703 -21.56525993347168
v -2.738204002380371 155.3582305908203 -12.769726753234863
v -2.940396308898926 155.5636749267578 -23.67042350769043
v -1.8510551452636719 92.43058013916016 -32.73321533203125
v -1.977237343788147 110.60298919677734 -32.8211669921875
v -2.0974559783935547 128.775390625 -32.567481994628906
v -2.1386899948120117 142.89779663085938 -32.856658935546875
v -3.1096932888031006 155.5626678466797 -32.68661117553711
v -2.0774247646331787 92.63601684570312 -45.019081115722656
v -2.225698947906494 110.79708099365234 -45.72754669189453
v -2.3404269218444824 128.96946716308594 -45.15931701660156
v -2.3452775478363037 143.0939178466797 -43.88764953613281
v -2.253648042678833 92.8414535522461 -54.43204879760742
v -2.4019224643707275 111.00251007080078 -55.1405143737793
v -2.516650676727295 129.17491149902344 -54.57228469848633
v 4.5695624351501465 19.862459182739258 -38.89278030395508
v 3.5455048084259033 19.841197967529297 -22.01321029663086
v 5.310969829559326 -3.981682300567627 -37.216590881347656
v 1.4767855405807495 79.07014465332031 -30.851572036743164
v 0.5308106541633606 79.03023529052734 -15.238978385925293
v 2.883950710296631 62.36915588378906 -34.97873306274414
v 1.8598923683166504 62.347900390625 -18.09916114807129
v -0.4932473599910736 79.00897216796875 1.6405898332595825
v 0.658050537109375 62.38166809082031 1.6809040307998657
v -1.4734692573547363 78.97725677490234 17.808862686157227
v -0.5402904152870178 62.38449478149414 21.931869506835938
v -2.6618919372558594 78.99524688720703 37.355411529541016
v -1.7066373825073242 62.39723205566406 41.120208740234375
v 3.6527626514434814 43.76526641845703 -37.61338424682617
v 2.62870454788208 43.7440071105957 -20.73381233215332
v 1.260168194770813 43.82181167602539 1.8449150323867798
v 0.025543205440044403 43.80647659301758 23.484054565429688
v -1.1408034563064575 43.819210052490234 42.67238998413086
v 2.0634765625 19.946115493774414 2.4070260524749756
v 0.8600366115570068 19.91690444946289 23.85227394104004
v -0.3063099980354309 19.929637908935547 43.04060745239258
v 0.6104903221130371 -3.973172903060913 41.76121139526367
v 1.77683687210083 -3.985905647277832 22.572874069213867
v 2.904526948928833 -3.9385931491851807 2.3567395210266113
v 4.286911964416504 -4.0029425621032715 -20.337020874023438
v -5.042959213256836 151.4477996826172 50.4183235168457
v 1.6147209405899048 20.106983184814453 51.480201721191406
v -2.349095582962036 150.7491912841797 -52.45677185058594
v 4.308584213256836 20.035137176513672 -51.39488220214844
v -5.053375720977783 151.48934936523438 54.07891082763672
v 1.6043044328689575 20.148540496826172 55.14079284667969
v -2.3595120906829834 150.79074096679688 -48.796180725097656
v 4.2981672286987305 20.07670021057129 -47.734291076660156
vn 0.998853325843811 -0.046772416681051254 -0.01021410059183836
vn 0.9988526701927185 -0.04674101620912552 -0.010424278676509857
vn 0.9976164698600769 -0.06816554069519043 -0.010714555159211159
vn 0.9955616593360901 -0.08588208258152008 0.03848767653107643
vn 0.9957706928253174 -0.08559306710958481 0.033384136855602264
vn 0.9955974221229553 -0.08546183258295059 0.03849722445011139
vn 0.995772123336792 -0.08539116382598877 0.03385655954480171
vn 0.9956181049346924 -0.08521820604801178 0.0385027639567852
vn 0.9957485198974609 -0.08541132509708405 0.03449384495615959
vn 0.9970327019691467 -0.06641392409801483 0.038922056555747986
vn 0.9971325993537903 -0.06604417413473129 0.03694210574030876
vn 0.9981921315193176 -0.04541553184390068 0.03936886787414551
vn 0.9982030391693115 -0.04603474214673042 0.03835933655500412
vn 0.9957624077796936 -0.08565529435873032 0.033473189920186996
vn 0.9957594871520996 -0.08560500293970108 0.03368683531880379
vn 0.9956529140472412 -0.08652365952730179 0.034480925649404526
vn 0.9970337152481079 -0.06738028675317764 0.03719773888587952
vn 0.998157799243927 -0.04686952754855156 0.03852559253573418
vn 0.9955782890319824 -0.08571974188089371 0.038419049233198166
vn 0.9955865144729614 -0.08573742210865021 0.03816504776477814
vn 0.9954637289047241 -0.0871606171131134 0.038145095109939575
vn 0.9969480037689209 -0.06775227189064026 0.038784805685281754
vn 0.9981323480606079 -0.046856027096509933 0.03919636085629463
vn 0.9955906271934509 -0.08558877557516098 0.03839167207479477
vn 0.9955776333808899 -0.08574149012565613 0.03838763013482094
vn 0.9954506754875183 -0.08721984922885895 0.03834860026836395
vn 0.9969063401222229 -0.0683293491601944 0.038843341171741486
vn 0.9981224536895752 -0.04688918963074684 0.03940735012292862
vn 0.9959468841552734 -0.08561420440673828 -0.027567507699131966
vn 0.9959573149681091 -0.08548393100500107 -0.02759556658565998
vn 0.9959379434585571 -0.08563679456710815 -0.02782086841762066
vn 0.9959441423416138 -0.08563653379678726 -0.027598733082413673
vn 0.995814323425293 -0.0870586559176445 -0.027832621708512306
vn 0.9958151578903198 -0.08711379021406174 -0.027629196643829346
vn 0.9973347783088684 -0.06766381859779358 -0.02729393169283867
vn 0.9972972273826599 -0.068239226937294 -0.027232930064201355
vn 0.9985407590866089 -0.04679083079099655 -0.026962582021951675
vn 0.9985449910163879 -0.046821705996990204 -0.02675199881196022
vn 0.9957951903343201 -0.08564592897891998 -0.032507795840501785
vn 0.9958068132400513 -0.08559149503707886 -0.03229450061917305
vn 0.9957543611526489 -0.08649435639381409 -0.031495533883571625
vn 0.9973136186599731 -0.06731660664081573 -0.0288795568048954
vn 0.9985215067863464 -0.046811457723379135 -0.027631787583231926
vn 0.9957974553108215 -0.08558544516563416 -0.03259718418121338
vn 0.9958308935165405 -0.08537440747022629 -0.0321260467171669
vn 0.9958505630493164 -0.08538220822811127 -0.03148897737264633
vn 0.9973949790000916 -0.06598563492298126 -0.029140692204236984
vn 0.9985554814338684 -0.04597945511341095 -0.027800260111689568
vn 0.9986116886138916 -0.045350581407547 -0.026794886216521263
vn 0.9974282383918762 -0.06632519513368607 -0.027162937447428703
vn 0.9959921836853027 -0.08511169254779816 -0.027486812323331833
vn 0.9959712624549866 -0.08535511046648026 -0.02749096415936947
vn 0.9959349632263184 -0.0857749953866005 -0.027498098090291023
vn 0.9962618947029114 -0.08568114042282104 -0.011001620441675186
vn 0.996211051940918 -0.08546702563762665 -0.016089627519249916
vn 0.9962979555130005 -0.0852617397904396 -0.010993901640176773
vn 0.9962364435195923 -0.08525856584310532 -0.015619298443198204
vn 0.9963187575340271 -0.08501861244440079 -0.010989413596689701
vn 0.996245265007019 -0.08526943624019623 -0.014983694069087505
vn 0.9977460503578186 -0.06625384092330933 -0.010642560198903084
vn 0.9977459907531738 -0.06590722501277924 -0.012616109102964401
vn 0.9989206790924072 -0.04530273377895355 -0.010255789384245872
vn 0.9988812804222107 -0.045928310602903366 -0.011259774677455425
vn 0.9962072968482971 -0.08552786707878113 -0.01600053533911705
vn 0.996215283870697 -0.08547453582286835 -0.01578766293823719
vn 0.9961494207382202 -0.08638009428977966 -0.014991824515163898
vn 0.9976604580879211 -0.06723761558532715 -0.012356971390545368
vn 0.998844563961029 -0.04675984010100365 -0.011092260479927063
vn 0.9962749481201172 -0.0855201855301857 -0.011070668697357178
vn 0.9962702393531799 -0.08554152399301529 -0.011323581449687481
vn 0.9961471557617188 -0.08696174621582031 -0.01133735105395317
vn 0.9976549744606018 -0.06759052723646164 -0.010774797759950161
vn 0.9962857961654663 -0.08538991957902908 -0.01109849102795124
vn 0.9962726831436157 -0.08554234355688095 -0.011101868003606796
vn 0.9961445331573486 -0.08701781928539276 -0.011134389787912369
vn 0.9992653131484985 -0.031217770650982857 0.022232603281736374
vn 0.9992688298225403 -0.031219838187098503 0.022071896120905876
vn 0.9992667436599731 -0.03117135539650917 0.02223409339785576
vn 0.999563455581665 -0.018982218578457832 0.022641388699412346
vn 0.9995638132095337 -0.018979031592607498 0.02262800931930542
vn 0.9994173049926758 -0.025747116655111313 0.02240852639079094
vn 0.9994237422943115 -0.025528443977236748 0.0223722942173481
vn 0.999565064907074 -0.018946321681141853 0.022598817944526672
vn 0.9994561672210693 -0.025351496413350105 0.021086452528834343
vn 0.9995818138122559 -0.018520250916481018 0.022206850349903107
vn 0.9994744658470154 -0.02485651709139347 0.02080642804503441
vn 0.9995784759521484 -0.018223604187369347 0.02260076254606247
vn 0.9994364380836487 -0.024949735030531883 0.022457297891378403
vn 0.9992510080337524 -0.031682465225458145 0.022217821329832077
vn 0.9992552995681763 -0.03166746720671654 0.02204657904803753
vn 0.9993234276771545 -0.03149406984448433 0.018995586782693863
vn 0.9993356466293335 -0.03113504685461521 0.0189434215426445
vn 0.9992685317993164 -0.031049253419041634 0.02232274040579796
vn 0.9993498921394348 -0.031194359064102173 0.018075356259942055
vn 0.9993501901626587 -0.031121494248509407 0.018184861168265343
vn 0.9992661476135254 -0.031128058210015297 0.022320982068777084
vn 0.9992619752883911 -0.031263913959264755 0.022317972034215927
vn 0.999352753162384 -0.03120819479227066 0.01789267361164093
vn 0.9993508458137512 -0.031221289187669754 0.01797427050769329
vn 0.9992647171020508 -0.03121105022728443 0.022268593311309814
vn 0.9983747601509094 0.050816286355257034 0.0257981289178133
vn 0.9983629584312439 0.050957392901182175 0.02597593516111374
vn 0.998366117477417 0.050919901579618454 0.025928694754838943
vn 0.9983541965484619 0.05106141045689583 0.02610701322555542
vn 0.9983747601509094 0.050816286355257034 0.0257981289178133
vn 0.9983629584312439 0.050957392901182175 0.02597593516111374
vn 0.998366117477417 0.050919901579618454 0.025928694754838943
vn 0.9983541965484619 0.05106141045689583 0.02610701322555542
vt 0.48049959540367126 0.999500036239624
vt 0.48049959540367126 0.749750018119812
vt 0.73024982213974 0.9994997978210449
vt 1.4795005321502686 0.0004991292953491211
vt 1.4795005321502686 0.25024908781051636
vt 1.2297502756118774 0.0004993677139282227
vt 1.2297502756118774 0.25024932622909546
vt 0.9800000190734863 0.0004995465278625488
vt 0.9800000190734863 0.25024956464767456
vt 0.7302497625350952 0.0004997849464416504
vt 0.7302497625350952 0.25024980306625366
vt 0.4804995357990265 0.000500023365020752
vt 0.4804995656013489 0.250249981880188
vt 1.4795005321502686 0.49999910593032837
vt 1.2297502756118774 0.49999934434890747
vt 0.9800000190734863 0.4999995231628418
vt 0.73024982213974 0.4999997615814209
vt 0.4804995656013489 0.5
vt 1.4795005321502686 0.7497491240501404
vt 1.2297502756118774 0.7497493028640747
vt 0.9800000786781311 0.7497495412826538
vt 0.73024982213974 0.7497497797012329
vt 0.48049959540367126 0.749750018119812
vt 1.4795005321502686 0.9994990825653076
vt 1.229750394821167 0.9994993209838867
vt 0.9800000786781311 0.9994995594024658
vt 0.73024982213974 0.9994997978210449
vt 0.48049959540367126 0.999500036239624
vt 1.4795005321502686 0.7497491240501404
vt 1.4795005321502686 0.9994990825653076
vt 1.2297502756118774 0.7497493028640747
vt 1.229750394821167 0.9994993209838867
vt 0.9800000786781311 0.7497495412826538
vt 0.9800000786781311 0.9994995594024658
vt 0.73024982213974 0.7497497797012329
vt 0.73024982213974 0.9994997978210449
vt 0.48049959540367126 0.749750018119812
vt 0.48049959540367126 0.999500036239624
vt 1.4795005321502686 0.49999910593032837
vt 1.2297502756118774 0.49999934434890747
vt 0.9800000190734863 0.4999995231628418
vt 0.73024982213974 0.4999997615814209
vt 0.4804995656013489 0.5
vt 1.4795005321502686 0.25024908781051636
vt 1.2297502756118774 0.25024932622909546
vt 0.9800000190734863 0.25024956464767456
vt 0.7302497625350952 0.25024980306625366
vt 0.4804995656013489 0.250249981880188
vt 0.4804995357990265 0.000500023365020752
vt 0.7302497625350952 0.0004997849464416504
vt 0.9800000190734863 0.0004995465278625488
vt 1.2297502756118774 0.0004993677139282227
vt 1.4795005321502686 0.0004991292953491211
vt 1.4795005321502686 0.0004991292953491211
vt 1.4795005321502686 0.25024908781051636
vt 1.2297502756118774 0.0004993677139282227
vt 1.2297502756118774 0.25024932622909546
vt 0.9800000190734863 0.0004995465278625488
vt 0.9800000190734863 0.25024956464767456
vt 0.7302497625350952 0.0004997849464416504
vt 0.7302497625350952 0.25024980306625366
vt 0.4804995357990265 0.000500023365020752
vt 0.4804995656013489 0.250249981880188
vt 1.4795005321502686 0.49999910593032837
vt 1.2297502756118774 0.49999934434890747
vt 0.9800000190734863 0.4999995231628418
vt 0.73024982213974 0.4999997615814209
vt 0.4804995656013489 0.5
vt 1.4795005321502686 0.7497491240501404
vt 1.2297502756118774 0.7497493028640747
vt 0.9800000786781311 0.7497495412826538
vt 0.73024982213974 0.7497497797012329
vt 1.4795005321502686 0.9994990825653076
vt 1.229750394821167 0.9994993209838867
vt 0.9800000786781311 0.9994995594024658
vt 1.229750394821167 0.9994993209838867
vt 1.2297502756118774 0.7497493028640747
vt 1.4795005321502686 0.9994990825653076
vt 0.48049959540367126 0.999500036239624
vt 0.48049959540367126 0.749750018119812
vt 0.73024982213974 0.9994997978210449
vt 0.73024982213974 0.7497497797012329
vt 0.4804995656013489 0.5
vt 0.73024982213974 0.4999997615814209
vt 0.4804995656013489 0.250249981880188
vt 0.7302497625350952 0.25024980306625366
vt 0.4804995357990265 0.000500023365020752
vt 0.7302497625350952 0.0004997849464416504
vt 0.9800000786781311 0.9994995594024658
vt 0.9800000786781311 0.7497495412826538
vt 0.9800000190734863 0.4999995231628418
vt 0.9800000190734863 0.25024956464767456
vt 0.9800000190734863 0.0004995465278625488
vt 1.2297502756118774 0.49999934434890747
vt 1.2297502756118774 0.25024932622909546
vt 1.2297502756118774 0.0004993677139282227
vt 1.4795005321502686 0.0004991292953491211
vt 1.4795005321502686 0.25024908781051636
vt 1.4795005321502686 0.49999910593032837
vt 1.4795005321502686 0.7497491240501404
vt -1.3027442693710327 0.048371076583862305
vt 0.3027675747871399 0.048370957374572754
vt -1.3027441501617432 0.9366093277931213
vt 0.30276763439178467 0.936609148979187
vt -1.3027442693710327 0.048371076583862305
vt 0.3027675747871399 0.048370957374572754
vt -1.3027441501617432 0.9366093277931213
vt 0.30276763439178467 0.936609148979187
g Geoset0
s 1
usemtl mat_watercascade_soft_directionaflipl
f 1/1/1 2/2/2 3/3/3
f 4/4/4 5/5/5 6/6/6
f 7/7/7 6/6/6 5/5/5
f 6/6/6 7/7/7 8/8/8
f 9/9/9 8/8/8 7/7/7
f 8/8/8 9/9/9 10/10/10
f 11/11/11 10/10/10 9/9/9
f 10/10/10 11/11/11 12/12/12
f 13/13/13 12/12/12 11/11/11
f 5/5/5 14/14/14 7/7/7
f 15/15/15 7/7/7 14/14/14
f 7/7/7 15/15/15 9/9/9
f 16/16/16 9/9/9 15/15/15
f 9/9/9 16/16/16 11/11/11
f 17/17/17 11/11/11 16/16/16
f 11/11/11 17/17/17 13/13/13
f 18/18/18 13/13/13 17/17/17
f 14/14/14 19/19/19 15/15/15
f 20/20/20 15/15/15 19/19/19
f 15/15/15 20/20/20 16/16/16
f 21/21/21 16/16/16 20/20/20
f 16/16/16 21/21/21 17/17/17
f 22/22/22 17/17/17 21/21/21
f 17/17/17 22/22/22 18/18/18
f 23/23/23 18/18/18 22/22/22
f 19/19/19 24/24/24 20/20/20
f 25/25/25 20/20/20 24/24/24
f 20/20/20 25/25/25 21/21/21
f 26/26/26 21/21/21 25/25/25
f 21/21/21 26/26/26 22/22/22
f 27/27/27 22/22/22 26/26/26
f 22/22/22 27/27/27 23/23/23
f 28/28/28 23/23/23 27/27/27
f 29/29/29 30/30/30 31/31/31
f 32/32/32 31/31/31 30/30/30
f 31/31/31 32/32/32 33/33/33
f 34/34/34 33/33/33 32/32/32
f 33/33/33 34/34/34 35/35/35
f 36/36/36 35/35/35 34/34/34
f 35/35/35 36/36/36 37/37/37
f 38/38/38 37/37/37 36/36/36
f 39/39/39 29/29/29 40/40/40
f 31/31/31 40/40/40 29/29/29
f 40/40/40 31/31/31 41/41/41
f 33/33/33 41/41/41 31/31/31
f 41/41/41 33/33/33 42/42/42
f 35/35/35 42/42/42 33/33/33
f 42/42/42 35/35/35 43/43/43
f 37/37/37 43/43/43 35/35/35
f 44/44/44 39/39/39 45/45/45
f 40/40/40 45/45/45 39/39/39
f 45/45/45 40/40/40 46/46/46
f 41/41/41 46/46/46 40/40/40
f 46/46/46 41/41/41 47/47/47
f 42/42/42 47/47/47 41/41/41
f 47/47/47 42/42/42 48/48/48
f 43/43/43 48/48/48 42/42/42
f 48/48/48 49/49/49 47/47/47
f 50/50/50 47/47/47 49/49/49
f 47/47/47 50/50/50 46/46/46
f 51/51/51 46/46/46 50/50/50
f 46/46/46 51/51/51 45/45/45
f 52/52/52 45/45/45 51/51/51
f 45/45/45 52/52/52 44/44/44
f 53/53/53 44/44/44 52/52/52
f 54/54/54 55/55/55 56/56/56
f 57/57/57 56/56/56 55/55/55
f 56/56/56 57/57/57 58/58/58
f 59/59/59 58/58/58 57/57/57
f 58/58/58 59/59/59 60/60/60
f 61/61/61 60/60/60 59/59/59
f 60/60/60 61/61/61 62/62/62
f 63/63/63 62/62/62 61/61/61
f 55/55/55 64/64/64 57/57/57
f 65/65/65 57/57/57 64/64/64
f 57/57/57 65/65/65 59/59/59
f 66/66/66 59/59/59 65/65/65
f 59/59/59 66/66/66 61/61/61
f 67/67/67 61/61/61 66/66/66
f 61/61/61 67/67/67 63/63/63
f 68/68/68 63/63/63 67/67/67
f 64/64/64 69/69/69 65/65/65
f 70/70/70 65/65/65 69/69/69
f 65/65/65 70/70/70 66/66/66
f 71/71/71 66/66/66 70/70/70
f 66/66/66 71/71/71 67/67/67
f 72/72/72 67/67/67 71/71/71
f 67/67/67 72/72/72 68/68/68
f 2/2/2 68/68/68 72/72/72
f 69/69/69 73/73/73 70/70/70
f 74/74/74 70/70/70 73/73/73
f 70/70/70 74/74/74 71/71/71
f 75/75/75 71/71/71 74/74/74
f 71/71/71 75/75/75 72/72/72
f 3/3/3 72/72/72 75/75/75
f 72/72/72 3/3/3 2/2/2
g Geoset1
s 1
usemtl mat_watercascade_soft_directionaflipl
f 76/76/76 77/77/77 78/78/78
f 79/79/79 80/80/80 81/81/81
f 82/82/82 81/81/81 80/80/80
f 80/80/80 83/83/83 82/82/82
f 84/84/84 82/82/82 83/83/83
f 83/83/83 85/85/85 84/84/84
f 86/86/86 84/84/84 85/85/85
f 85/85/85 87/87/87 86/86/86
f 88/88/88 86/86/86 87/87/87
f 81/81/81 82/82/82 89/89/89
f 90/90/90 89/89/89 82/82/82
f 82/82/82 84/84/84 90/90/90
f 91/91/91 90/90/90 84/84/84
f 84/84/84 86/86/86 91/91/91
f 92/92/92 91/91/91 86/86/86
f 86/86/86 88/88/88 92/92/92
f 93/93/93 92/92/92 88/88/88
f 89/89/89 90/90/90 76/76/76
f 77/77/77 76/76/76 90/90/90
f 90/90/90 91/91/91 77/77/77
f 94/94/94 77/77/77 91/91/91
f 91/91/91 92/92/92 94/94/94
f 95/95/95 94/94/94 92/92/92
f 92/92/92 93/93/93 95/95/95
f 96/96/96 95/95/95 93/93/93
f 97/97/97 98/98/98 96/96/96
f 95/95/95 96/96/96 98/98/98
f 98/98/98 99/99/99 95/95/95
f 94/94/94 95/95/95 99/99/99
f 99/99/99 100/100/100 94/94/94
f 77/77/77 94/94/94 100/100/100
f 100/100/100 78/78/78 77/77/77
g Geoset2
s 1
usemtl mat_waterchop5
f 101/101/101 102/102/102 103/103/103
f 104/104/104 103/103/103 102/102/102
g Geoset3
s 1
usemtl mat_waterchop
f 105/105/105 106/106/106 107/107/107
f 108/108/108 107/107/107 106/106/106
