# Exported using wow.export v0.1.64
o dragonblight_combin_waterfall_05
mtllib dragonblight_combin_waterfall_05.mtl
v -24.392406463623047 248.29733276367188 -15.613340377807617
v -31.56311798095703 -3.3044567108154297 3.402848720550537
v 22.6021785736084 247.8765411376953 -3.4597065448760986
v 15.431469917297363 -3.7252354621887207 15.556483268737793
v -24.407163619995117 248.30908203125 -15.556483268737793
v -31.5778751373291 -3.292710781097412 3.4597065448760986
v 22.587421417236328 247.88829040527344 -3.402848720550537
v 15.416712760925293 -3.713489532470703 15.613340377807617
v 18.510387420654297 31.42961311340332 14.15466022491455
v 9.11643123626709 31.272695541381836 11.287284851074219
v 17.78629493713379 17.558015823364258 13.986234664916992
v 13.585836410522461 65.77894592285156 12.211328506469727
v 4.897096157073975 65.62203216552734 9.55955982208252
v 15.95242977142334 56.0982666015625 13.31351089477539
v 6.558472633361816 55.941349029541016 10.446134567260742
v -4.496860980987549 65.4651107788086 6.692183971405029
v -4.450241565704346 55.79156494140625 7.085905075073242
v -13.494898796081543 65.3082046508789 3.945852518081665
v -15.72495174407959 55.61922073364258 3.663332223892212
v -24.373336791992188 65.15127563476562 0.6246259212493896
v -26.404003143310547 55.462303161621094 0.4030643701553345
v 17.58823585510254 45.30988311767578 13.824166297912598
v 8.194280624389648 45.1529655456543 10.95678997039795
v -4.3730316162109375 45.00471878051758 7.123610496520996
v -16.42656135559082 44.80908203125 3.492042303085327
v -27.10561180114746 44.652164459228516 0.23177428543567657
v -4.47589111328125 31.124454498291016 7.140727519989014
v -16.4239501953125 30.922067642211914 3.552849769592285
v -27.10300064086914 30.76515007019043 0.2925817370414734
v -26.180849075317383 16.88488006591797 0.6230762600898743
v -15.501800537109375 17.041799545288086 3.8833439350128174
v -4.237882137298584 17.24418067932129 7.262059688568115
v 8.392338752746582 17.401100158691406 11.11885929107666
v 27.063562393188477 166.4853057861328 1.030245065689087
v 18.327449798583984 166.21609497070312 0.5916717648506165
v 29.56693458557129 153.87136840820312 2.585690498352051
v -23.351835250854492 171.073974609375 -8.592325210571289
v -13.35949993133545 171.16458129882812 -6.309251308441162
v -23.7911434173584 188.4445037841797 -9.890416145324707
v -13.798803329467773 188.53509521484375 -7.607341289520264
v -23.02019691467285 205.80911254882812 -10.938431739807129
v -13.027860641479492 205.89971923828125 -8.655356407165527
v -21.6867733001709 219.319091796875 -11.576138496398926
v -11.694436073303223 219.4097137451172 -9.29306411743164
v -19.382349014282227 231.56239318847656 -12.811444282531738
v -9.203557014465332 231.65101623535156 -10.48532485961914
v -2.455800771713257 171.29391479492188 -3.9712536334991455
v -1.9359757900238037 188.6543426513672 -5.047912120819092
v -1.7349276542663574 206.01812744140625 -6.198164939880371
v -1.1389007568359375 219.51087951660156 -6.931019306182861
v -0.7878432869911194 231.56085205078125 -8.554036140441895
v 9.015488624572754 171.36895751953125 -1.3467367887496948
v 10.116658210754395 188.7117919921875 -2.2995541095733643
v 10.024200439453125 206.0786590576172 -3.5175678730010986
v 9.161745071411133 219.5891876220703 -4.57829475402832
v 8.001425743103027 231.6076202392578 -6.545217990875244
v 17.80608558654785 171.47218322753906 0.6588947176933289
v 18.90725326538086 188.81503295898438 -0.293923020362854
v 18.81479835510254 206.18190002441406 -1.511936902999878
v 17.952341079711914 219.6924285888672 -2.5726630687713623
v 16.13254737854004 231.7177734375 -4.691837787628174
v -12.96385669708252 36.17087936401367 5.691803932189941
v -9.004473686218262 36.267784118652344 7.7028985023498535
v -12.635954856872559 44.73741149902344 5.7869391441345215
v -8.676572799682617 44.83431625366211 7.798033714294434
v -12.847208023071289 53.309295654296875 5.613321781158447
v -8.887825965881348 53.40620422363281 7.624416828155518
v -13.375764846801758 59.97175979614258 5.329691410064697
v -9.416383743286133 60.06867218017578 7.3407883644104
v -13.912161827087402 65.92227172851562 4.541965007781982
v -10.24986457824707 66.01917266845703 6.401688098907471
v -18.130857467651367 36.073970794677734 3.065394639968872
v -18.0662841796875 44.6458625793457 3.032317876815796
v -18.14531898498535 53.21774673461914 2.9260706901550293
v -18.015748977661133 59.8792610168457 2.9729340076446533
v -17.871545791625977 65.8532485961914 2.530869483947754
v -23.05977439880371 35.94899368286133 0.6423078775405884
v -23.427278518676758 44.5208854675293 0.38907673954963684
v -23.2462158203125 53.09693145751953 0.3998059630393982
v -22.775985717773438 59.77283477783203 0.5806921124458313
v -21.66413688659668 65.85372161865234 0.6047561764717102
v -26.248884201049805 65.7568130493164 -1.7249788045883179
v -27.2767391204834 59.67593002319336 -1.7062456607818604
v -27.746967315673828 53.000022888183594 -1.8871312141418457
v -27.928030014038086 44.423973083496094 -1.8978606462478638
v -27.56052589416504 35.852088928222656 -1.6446293592453003
v -13.244659423828125 102.02851104736328 2.654938220977783
v -2.506972312927246 102.31224060058594 3.19840931892395
v -14.27739429473877 120.26356506347656 1.8312551975250244
v -3.539708375930786 120.54730987548828 2.3747260570526123
v -14.014095306396484 138.5158233642578 1.0456510782241821
v -3.276409387588501 138.79957580566406 1.5891222953796387
v -13.018943786621094 152.73008728027344 0.48455169796943665
v -2.281255006790161 153.01380920410156 1.0280234813690186
v -11.104676246643066 165.65170288085938 -0.9024129509925842
v -0.16647332906723022 165.93690490722656 -0.3484339714050293
v 9.181500434875488 102.6570816040039 3.633838176727295
v 9.180225372314453 120.8996353149414 2.8642117977142334
v 8.83613395690918 139.13966369628906 2.0766189098358154
v 9.052467346191406 153.32034301757812 1.5509082078933716
v 8.881807327270508 166.00108337402344 0.11381856352090836
v 21.50967025756836 102.95235443115234 4.2606635093688965
v 22.131916046142578 121.18760681152344 3.5127956867218018
v 21.472187042236328 139.4253692626953 2.7086613178253174
v 20.121614456176758 153.5970001220703 2.1099488735198975
v 30.95499038696289 103.2267074584961 4.7364044189453125
v 31.57723617553711 121.46195220947266 3.988536834716797
v 30.91750717163086 139.69973754882812 3.1844022274017334
vn -0.24890489876270294 0.08004521578550339 0.9652145504951477
vn -0.24890489876270294 0.08004521578550339 0.9652145504951477
vn -0.24890489876270294 0.08004521578550339 0.9652145504951477
vn -0.24890489876270294 0.08004521578550339 0.9652145504951477
vn -0.24890489876270294 0.08004521578550339 0.9652145504951477
vn -0.24890489876270294 0.08004521578550339 0.9652145504951477
vn -0.24890489876270294 0.08004521578550339 0.9652145504951477
vn -0.24890489876270294 0.08004521578550339 0.9652145504951477
vn -0.5995948910713196 -0.07977717369794846 0.796317458152771
vn -0.5990211963653564 -0.07981329411268234 0.7967455387115479
vn -0.5996094942092896 -0.07967860996723175 0.796316385269165
vn -0.6032952666282654 -0.053832195699214935 0.7956990003585815
vn -0.6032484769821167 -0.05382717773318291 0.7957348227500916
vn -0.6012769937515259 -0.0681672990322113 0.7961276173591614
vn -0.6011888384819031 -0.06771071255207062 0.7962331771850586
vn -0.6031507849693298 -0.053761810064315796 0.795813262462616
vn -0.5966285467147827 -0.06754729896783829 0.7996697425842285
vn -0.6018336415290833 -0.05291089415550232 0.796866774559021
vn -0.5957135558128357 -0.06654158979654312 0.8004358410835266
vn -0.6032777428627014 -0.05223488435149193 0.7958187460899353
vn -0.601597249507904 -0.06647263467311859 0.7960289716720581
vn -0.5994487404823303 -0.08076396584510803 0.796328067779541
vn -0.5988407135009766 -0.0807664692401886 0.7967851758003235
vn -0.587835431098938 -0.08100412786006927 0.8049147725105286
vn -0.5877178311347961 -0.080247662961483 0.8050764203071594
vn -0.5999497771263123 -0.07940267771482468 0.7960875630378723
vn -0.5845099687576294 -0.08054406940937042 0.8073789477348328
vn -0.5849294662475586 -0.08036675304174423 0.8070927262306213
vn -0.5999277830123901 -0.07956982403993607 0.7960875034332275
vn -0.599889874458313 -0.07985798269510269 0.7960872054100037
vn -0.5838315486907959 -0.08060936629772186 0.8078631162643433
vn -0.5841307640075684 -0.08062146604061127 0.8076456189155579
vn -0.599724531173706 -0.07975584268569946 0.7962219715118408
vn -0.10072165727615356 -0.04902931675314903 0.9937058091163635
vn -0.09980057924985886 -0.04896201565861702 0.9938020706176758
vn -0.09768027067184448 -0.09365414083003998 0.9908014535903931
vn -0.4280458688735962 -0.0888962671160698 0.8993743062019348
vn -0.41041627526283264 -0.08918505162000656 0.9075266122817993
vn -0.42809367179870605 -0.08808670192956924 0.8994312286376953
vn -0.4120731055736542 -0.08871687203645706 0.9068214297294617
vn -0.42812129855155945 -0.08761729300022125 0.899463951587677
vn -0.41429296135902405 -0.08865149319171906 0.9058157801628113
vn -0.42996513843536377 -0.05126737430691719 0.9013887047767639
vn -0.4231683909893036 -0.050774652510881424 0.90462726354599
vn -0.4313367009162903 -0.010484221391379833 0.902130126953125
vn -0.42789125442504883 -0.011744567193090916 0.903753936290741
vn -0.41072550415992737 -0.08929095417261124 0.9073762893676758
vn -0.4114735722541809 -0.0891585648059845 0.9070503115653992
vn -0.4142097234725952 -0.09080398082733154 0.9056406021118164
vn -0.424039363861084 -0.05333874002099037 0.9040716886520386
vn -0.42848023772239685 -0.01335952989757061 0.9034523963928223
vn -0.42781728506088257 -0.0885956659913063 0.899512767791748
vn -0.4269481897354126 -0.08867217600345612 0.8999180197715759
vn -0.4268271327018738 -0.09141213446855545 0.8997012972831726
vn -0.42948371171951294 -0.0538739375770092 0.9014661908149719
vn -0.4307783544063568 -0.013293915428221226 0.9023598432540894
vn -0.42772847414016724 -0.0883484035730362 0.8995792865753174
vn -0.42770916223526 -0.08864274621009827 0.8995595574378967
vn -0.42752063274383545 -0.09149110317230225 0.8993639349937439
vn -0.4296778738498688 -0.05498379468917847 0.901306688785553
vn -0.43150055408477783 -0.013345993123948574 0.9020139575004578
vn -0.7203091979026794 -0.1377815157175064 0.6798315048217773
vn -0.72027987241745 -0.13758043944835663 0.6799033284187317
vn -0.7198461890220642 -0.1378733366727829 0.680303156375885
vn -0.7202489376068115 -0.1378239393234253 0.6798867583274841
vn -0.7195879220962524 -0.14013829827308655 0.6801135540008545
vn -0.7199475765228271 -0.14018039405345917 0.6797241568565369
vn -0.7234641909599304 -0.10907939076423645 0.6816900372505188
vn -0.7234984040260315 -0.1099894642829895 0.6815074682235718
vn -0.7263799905776978 -0.07553107291460037 0.6831304430961609
vn -0.7267550826072693 -0.07555495202541351 0.6827287077903748
vn -0.7112235426902771 -0.1389203518629074 0.6891024708747864
vn -0.7116301655769348 -0.1387861967086792 0.6887096166610718
vn -0.7129639387130737 -0.1400553584098816 0.6870712637901306
vn -0.7206364274024963 -0.10880071669816971 0.6847230195999146
vn -0.7251739501953125 -0.07564616203308105 0.68439781665802
vn -0.7110668420791626 -0.13884304463863373 0.6892797350883484
vn -0.711979866027832 -0.1384013146162033 0.6884255409240723
vn -0.7131617665290833 -0.13827401399612427 0.6872267127037048
vn -0.7203331589698792 -0.10670914500951767 0.685370922088623
vn -0.7249452471733093 -0.07432642579078674 0.6847845911979675
vn -0.7268100380897522 -0.07319389283657074 0.6829274296760559
vn -0.7238740921020508 -0.10691382735967636 0.681597888469696
vn -0.7205381393432617 -0.13696426153182983 0.6797540783882141
vn -0.7204905152320862 -0.13735246658325195 0.6797261834144592
vn -0.7204082608222961 -0.13802199065685272 0.6796777248382568
vn -0.0955793634057045 -0.12986361980438232 0.9869143962860107
vn -0.07334242016077042 -0.1294703334569931 0.9888671636581421
vn -0.09563485532999039 -0.1290009766817093 0.9870221614837646
vn -0.07541283220052719 -0.12903927266597748 0.9887678027153015
vn -0.0956670418381691 -0.1285007745027542 0.9870842695236206
vn -0.07819591462612152 -0.12905843555927277 0.9885491132736206
vn -0.0980796366930008 -0.08968163281679153 0.991129457950592
vn -0.08944647014141083 -0.0889662504196167 0.992010235786438
vn -0.10058923065662384 -0.045951638370752335 0.9938663244247437
vn -0.09616047143936157 -0.04725331813097 0.9942435622215271
vn -0.07372993230819702 -0.12959527969360352 0.9888219833374023
vn -0.07466507703065872 -0.12948468327522278 0.9887663125991821
vn -0.07810687273740768 -0.13134433329105377 0.9882550239562988
vn -0.09052640199661255 -0.09173236787319183 0.9916602969169617
vn -0.09686778485774994 -0.048996198922395706 0.9940905570983887
vn -0.095286525785923 -0.12953366339206696 0.9869861006736755
vn -0.09418189525604248 -0.1295812577009201 0.9870858192443848
vn -0.09404794126749039 -0.1325010508298874 0.9867109060287476
vn -0.09744209051132202 -0.092460036277771 0.9909369945526123
vn -0.09517189115285873 -0.129266157746315 0.9870321750640869
vn -0.09514926373958588 -0.12957969307899475 0.9869932532310486
vn -0.09493029117584229 -0.13261312246322632 0.9866113662719727
vt -2.1603879928588867 0.0005009174346923828
vt 1.1605167388916016 0.0004994869232177734
vt -2.1603879928588867 0.9995014071464539
vt 1.1605167388916016 0.9994999170303345
vt -2.1603879928588867 0.0005009174346923828
vt 1.1605167388916016 0.0004994869232177734
vt -2.1603879928588867 0.9995014071464539
vt 1.1605167388916016 0.9994999170303345
vt 1.229750394821167 0.9994993209838867
vt 1.2297502756118774 0.7497493028640747
vt 1.4795005321502686 0.9994990825653076
vt 0.48049959540367126 0.999500036239624
vt 0.48049959540367126 0.749750018119812
vt 0.73024982213974 0.9994997978210449
vt 0.73024982213974 0.7497497797012329
vt 0.4804995656013489 0.5
vt 0.73024982213974 0.4999997615814209
vt 0.4804995656013489 0.250249981880188
vt 0.7302497625350952 0.25024980306625366
vt 0.4804995357990265 0.000500023365020752
vt 0.7302497625350952 0.0004997849464416504
vt 0.9800000786781311 0.9994995594024658
vt 0.9800000786781311 0.7497495412826538
vt 0.9800000190734863 0.4999995231628418
vt 0.9800000190734863 0.25024956464767456
vt 0.9800000190734863 0.0004995465278625488
vt 1.2297502756118774 0.49999934434890747
vt 1.2297502756118774 0.25024932622909546
vt 1.2297502756118774 0.0004993677139282227
vt 1.4795005321502686 0.0004991292953491211
vt 1.4795005321502686 0.25024908781051636
vt 1.4795005321502686 0.49999910593032837
vt 1.4795005321502686 0.7497491240501404
vt 0.48049959540367126 0.999500036239624
vt 0.48049959540367126 0.749750018119812
vt 0.73024982213974 0.9994997978210449
vt 1.4795005321502686 0.0004991292953491211
vt 1.4795005321502686 0.25024908781051636
vt 1.2297502756118774 0.0004993677139282227
vt 1.2297502756118774 0.25024932622909546
vt 0.9800000190734863 0.0004995465278625488
vt 0.9800000190734863 0.25024956464767456
vt 0.7302497625350952 0.0004997849464416504
vt 0.7302497625350952 0.25024980306625366
vt 0.4804995357990265 0.000500023365020752
vt 0.4804995656013489 0.250249981880188
vt 1.4795005321502686 0.49999910593032837
vt 1.2297502756118774 0.49999934434890747
vt 0.9800000190734863 0.4999995231628418
vt 0.73024982213974 0.4999997615814209
vt 0.4804995656013489 0.5
vt 1.4795005321502686 0.7497491240501404
vt 1.2297502756118774 0.7497493028640747
vt 0.9800000786781311 0.7497495412826538
vt 0.73024982213974 0.7497497797012329
vt 0.48049959540367126 0.749750018119812
vt 1.4795005321502686 0.9994990825653076
vt 1.229750394821167 0.9994993209838867
vt 0.9800000786781311 0.9994995594024658
vt 0.73024982213974 0.9994997978210449
vt 0.48049959540367126 0.999500036239624
vt 1.4795005321502686 0.7497491240501404
vt 1.4795005321502686 0.9994990825653076
vt 1.2297502756118774 0.7497493028640747
vt 1.229750394821167 0.9994993209838867
vt 0.9800000786781311 0.7497495412826538
vt 0.9800000786781311 0.9994995594024658
vt 0.73024982213974 0.7497497797012329
vt 0.73024982213974 0.9994997978210449
vt 0.48049959540367126 0.749750018119812
vt 0.48049959540367126 0.999500036239624
vt 1.4795005321502686 0.49999910593032837
vt 1.2297502756118774 0.49999934434890747
vt 0.9800000190734863 0.4999995231628418
vt 0.73024982213974 0.4999997615814209
vt 0.4804995656013489 0.5
vt 1.4795005321502686 0.25024908781051636
vt 1.2297502756118774 0.25024932622909546
vt 0.9800000190734863 0.25024956464767456
vt 0.7302497625350952 0.25024980306625366
vt 0.4804995656013489 0.250249981880188
vt 0.4804995357990265 0.000500023365020752
vt 0.7302497625350952 0.0004997849464416504
vt 0.9800000190734863 0.0004995465278625488
vt 1.2297502756118774 0.0004993677139282227
vt 1.4795005321502686 0.0004991292953491211
vt 1.4795005321502686 0.0004991292953491211
vt 1.4795005321502686 0.25024908781051636
vt 1.2297502756118774 0.0004993677139282227
vt 1.2297502756118774 0.25024932622909546
vt 0.9800000190734863 0.0004995465278625488
vt 0.9800000190734863 0.25024956464767456
vt 0.7302497625350952 0.0004997849464416504
vt 0.7302497625350952 0.25024980306625366
vt 0.4804995357990265 0.000500023365020752
vt 0.4804995656013489 0.250249981880188
vt 1.4795005321502686 0.49999910593032837
vt 1.2297502756118774 0.49999934434890747
vt 0.9800000190734863 0.4999995231628418
vt 0.73024982213974 0.4999997615814209
vt 0.4804995656013489 0.5
vt 1.4795005321502686 0.7497491240501404
vt 1.2297502756118774 0.7497493028640747
vt 0.9800000786781311 0.7497495412826538
vt 0.73024982213974 0.7497497797012329
vt 1.4795005321502686 0.9994990825653076
vt 1.229750394821167 0.9994993209838867
vt 0.9800000786781311 0.9994995594024658
g Geoset0
s 1
usemtl mat_waterchop5
f 1/1/1 2/2/2 3/3/3
f 4/4/4 3/3/3 2/2/2
g Geoset1
s 1
usemtl mat_waterchop
f 5/5/5 6/6/6 7/7/7
f 8/8/8 7/7/7 6/6/6
g Geoset2
s 1
usemtl mat_watercascade_soft_directionaflipl
f 9/9/9 10/10/10 11/11/11
f 12/12/12 13/13/13 14/14/14
f 15/15/15 14/14/14 13/13/13
f 13/13/13 16/16/16 15/15/15
f 17/17/17 15/15/15 16/16/16
f 16/16/16 18/18/18 17/17/17
f 19/19/19 17/17/17 18/18/18
f 18/18/18 20/20/20 19/19/19
f 21/21/21 19/19/19 20/20/20
f 14/14/14 15/15/15 22/22/22
f 23/23/23 22/22/22 15/15/15
f 15/15/15 17/17/17 23/23/23
f 24/24/24 23/23/23 17/17/17
f 17/17/17 19/19/19 24/24/24
f 25/25/25 24/24/24 19/19/19
f 19/19/19 21/21/21 25/25/25
f 26/26/26 25/25/25 21/21/21
f 22/22/22 23/23/23 9/9/9
f 10/10/10 9/9/9 23/23/23
f 23/23/23 24/24/24 10/10/10
f 27/27/27 10/10/10 24/24/24
f 24/24/24 25/25/25 27/27/27
f 28/28/28 27/27/27 25/25/25
f 25/25/25 26/26/26 28/28/28
f 29/29/29 28/28/28 26/26/26
f 30/30/30 31/31/31 29/29/29
f 28/28/28 29/29/29 31/31/31
f 31/31/31 32/32/32 28/28/28
f 27/27/27 28/28/28 32/32/32
f 32/32/32 33/33/33 27/27/27
f 10/10/10 27/27/27 33/33/33
f 33/33/33 11/11/11 10/10/10
g Geoset3
s 1
usemtl mat_watercascade_soft_directionaflipl
f 34/34/34 35/35/35 36/36/36
f 37/37/37 38/38/38 39/39/39
f 40/40/40 39/39/39 38/38/38
f 39/39/39 40/40/40 41/41/41
f 42/42/42 41/41/41 40/40/40
f 41/41/41 42/42/42 43/43/43
f 44/44/44 43/43/43 42/42/42
f 43/43/43 44/44/44 45/45/45
f 46/46/46 45/45/45 44/44/44
f 38/38/38 47/47/47 40/40/40
f 48/48/48 40/40/40 47/47/47
f 40/40/40 48/48/48 42/42/42
f 49/49/49 42/42/42 48/48/48
f 42/42/42 49/49/49 44/44/44
f 50/50/50 44/44/44 49/49/49
f 44/44/44 50/50/50 46/46/46
f 51/51/51 46/46/46 50/50/50
f 47/47/47 52/52/52 48/48/48
f 53/53/53 48/48/48 52/52/52
f 48/48/48 53/53/53 49/49/49
f 54/54/54 49/49/49 53/53/53
f 49/49/49 54/54/54 50/50/50
f 55/55/55 50/50/50 54/54/54
f 50/50/50 55/55/55 51/51/51
f 56/56/56 51/51/51 55/55/55
f 52/52/52 57/57/57 53/53/53
f 58/58/58 53/53/53 57/57/57
f 53/53/53 58/58/58 54/54/54
f 59/59/59 54/54/54 58/58/58
f 54/54/54 59/59/59 55/55/55
f 60/60/60 55/55/55 59/59/59
f 55/55/55 60/60/60 56/56/56
f 61/61/61 56/56/56 60/60/60
f 62/62/62 63/63/63 64/64/64
f 65/65/65 64/64/64 63/63/63
f 64/64/64 65/65/65 66/66/66
f 67/67/67 66/66/66 65/65/65
f 66/66/66 67/67/67 68/68/68
f 69/69/69 68/68/68 67/67/67
f 68/68/68 69/69/69 70/70/70
f 71/71/71 70/70/70 69/69/69
f 72/72/72 62/62/62 73/73/73
f 64/64/64 73/73/73 62/62/62
f 73/73/73 64/64/64 74/74/74
f 66/66/66 74/74/74 64/64/64
f 74/74/74 66/66/66 75/75/75
f 68/68/68 75/75/75 66/66/66
f 75/75/75 68/68/68 76/76/76
f 70/70/70 76/76/76 68/68/68
f 77/77/77 72/72/72 78/78/78
f 73/73/73 78/78/78 72/72/72
f 78/78/78 73/73/73 79/79/79
f 74/74/74 79/79/79 73/73/73
f 79/79/79 74/74/74 80/80/80
f 75/75/75 80/80/80 74/74/74
f 80/80/80 75/75/75 81/81/81
f 76/76/76 81/81/81 75/75/75
f 81/81/81 82/82/82 80/80/80
f 83/83/83 80/80/80 82/82/82
f 80/80/80 83/83/83 79/79/79
f 84/84/84 79/79/79 83/83/83
f 79/79/79 84/84/84 78/78/78
f 85/85/85 78/78/78 84/84/84
f 78/78/78 85/85/85 77/77/77
f 86/86/86 77/77/77 85/85/85
f 87/87/87 88/88/88 89/89/89
f 90/90/90 89/89/89 88/88/88
f 89/89/89 90/90/90 91/91/91
f 92/92/92 91/91/91 90/90/90
f 91/91/91 92/92/92 93/93/93
f 94/94/94 93/93/93 92/92/92
f 93/93/93 94/94/94 95/95/95
f 96/96/96 95/95/95 94/94/94
f 88/88/88 97/97/97 90/90/90
f 98/98/98 90/90/90 97/97/97
f 90/90/90 98/98/98 92/92/92
f 99/99/99 92/92/92 98/98/98
f 92/92/92 99/99/99 94/94/94
f 100/100/100 94/94/94 99/99/99
f 94/94/94 100/100/100 96/96/96
f 101/101/101 96/96/96 100/100/100
f 97/97/97 102/102/102 98/98/98
f 103/103/103 98/98/98 102/102/102
f 98/98/98 103/103/103 99/99/99
f 104/104/104 99/99/99 103/103/103
f 99/99/99 104/104/104 100/100/100
f 105/105/105 100/100/100 104/104/104
f 100/100/100 105/105/105 101/101/101
f 35/35/35 101/101/101 105/105/105
f 102/102/102 106/106/106 103/103/103
f 107/107/107 103/103/103 106/106/106
f 103/103/103 107/107/107 104/104/104
f 108/108/108 104/104/104 107/107/107
f 104/104/104 108/108/108 105/105/105
f 36/36/36 105/105/105 108/108/108
f 105/105/105 36/36/36 35/35/35
