# Exported using wow.export v0.1.64
o trolldungeondrum03
mtllib trolldungeondrum03.mtl
v 0.4742477834224701 -0.007852769456803799 -0.35139963030815125
v 0.46769461035728455 -0.007852766662836075 -0.5643545985221863
v 0.3531147539615631 0.38963040709495544 -0.37082698941230774
v -0.3392833173274994 0.2992202341556549 -0.11613484472036362
v -0.5978153347969055 -0.007852766662836075 -0.014180685393512249
v -0.3392832577228546 0.2992202341556549 0.10309881716966629
v -0.5175380706787109 -0.007852766662836075 -0.14598892629146576
v -0.3371068835258484 -0.007852766662836075 -0.20550350844860077
v -0.5175380110740662 -0.007852766662836075 0.12928535044193268
v -0.3276384174823761 -0.007852766662836075 0.19089141488075256
v -0.12467741966247559 0.2227606326341629 0.1030987873673439
v -0.1836308389902115 -0.007852766662836075 0.1292853057384491
v -0.12467748671770096 0.22276067733764648 -0.1161348819732666
v -0.18363089859485626 -0.007852766662836075 -0.14598898589611053
v -0.3392833173274994 0.2992202341556549 -0.11613484472036362
v -0.3371068835258484 -0.007852766662836075 -0.20550350844860077
v 0.3446120023727417 0.38963040709495544 0.37135574221611023
v 0.45919185876846313 -0.007852766662836075 0.5648833513259888
v 0.43932652473449707 -0.007852766662836075 0.3653176724910736
v 0.3782937228679657 -0.007852766662836075 0.702869176864624
v 0.1428063064813614 0.3751150667667389 0.45701709389686584
v 0.20580053329467773 -0.007852766662836075 0.6724414825439453
v 0.06449855864048004 -0.007852766662836075 0.5432751774787903
v 0.0858364924788475 0.28709322214126587 0.3228045403957367
v 0.07533266395330429 -0.007852766662836075 0.36507827043533325
v 0.2876422107219696 0.3016085624694824 0.23714324831962585
v 0.3287239968776703 -0.007852766662836075 0.2575201094150543
v 0.3446120023727417 0.38963040709495544 0.37135574221611023
v 0.43932652473449707 -0.007852766662836075 0.3653176724910736
v 0.3372268080711365 -0.007852766662836075 -0.25699135661125183
v 0.4742477834224701 -0.007852769456803799 -0.35139963030815125
v 0.3531147539615631 0.38963040709495544 -0.37082698941230774
v 0.2961449921131134 0.3016085624694824 -0.23661449551582336
v 0.08383546024560928 -0.007852766662836075 -0.36454951763153076
v 0.09433933347463608 0.28709322214126587 -0.3222757875919342
v 0.08882532268762589 -0.007852752692997456 -0.5233929753303528
v 0.1513090878725052 0.3751150667667389 -0.4564882814884186
v 0.21430326998233795 -0.007852766662836075 -0.6719127297401428
v 0.38713276386260986 -0.007852766662836075 -0.701438844203949
v -0.1157451868057251 0.6285460591316223 -0.6683151721954346
v -0.5030533075332642 0.8997421264648438 -0.47246816754341125
v -0.3188609778881073 1.252838373184204 -0.5241143107414246
v 0.27156302332878113 0.35735002160072327 -0.47246843576431274
v 0.11075311154127121 0.9520193934440613 -0.7413535714149475
v 0.5403673052787781 0.6512001752853394 -0.5241144895553589
v 0.43199142813682556 0.2450169175863266 0.0003475074772723019
v 0.718319296836853 0.5265968441963196 0.0003474779659882188
v 0.27156323194503784 0.3573499023914337 0.4731633961200714
v 0.09118752181529999 0.12229271978139877 0.00034756064997054636
v -0.019149670377373695 0.19955167174339294 0.32553473114967346
v -0.28552746772766113 0.3860713839530945 0.46023184061050415
v -0.019149823114275932 0.19955173134803772 -0.32483968138694763
v -0.3686538636684418 0.2673548460006714 0.0003476378333289176
v -0.6622427105903625 0.6498501896858215 0.00034775459789671004
v -0.5519054532051086 0.572591245174408 -0.3248395025730133
v -0.28552764654159546 0.38607150316238403 -0.459536612033844
v -0.5519053339958191 0.5725911259651184 0.32553496956825256
v -0.11574489623308182 0.6285459995269775 0.66901034116745
v -0.5030530691146851 0.8997421264648438 0.4731636643409729
v -0.6634815335273743 1.0120751857757568 0.00034778943518176675
v 0.5403675436973572 0.6512001156806946 0.5248094201087952
v 0.11075345426797867 0.9520190358161926 0.7420488595962524
v -0.3188607394695282 1.252838134765625 0.524809718132019
v -0.4968128204345703 1.377441644668579 0.0003477906866464764
v -0.6186755895614624 1.2661547660827637 0.0003478563448879868
v -0.4313746690750122 1.135005235671997 0.5523627996444702
v -0.29364824295043945 1.2808531522750854 0.524809718132019
v 0.47299399971961975 0.5017595887184143 -0.5516675114631653
v 0.02080957032740116 0.8183825016021729 -0.7803195118904114
v 0.1359657198190689 0.9800341129302979 -0.7413535118103027
v -0.4313749372959137 1.1350053548812866 -0.5516672730445862
v -0.2936484217643738 1.2808531522750854 -0.5241142511367798
v -0.4716002643108368 1.4054564237594604 0.0003477906866464764
v -0.20903326570987701 1.3293362855911255 -0.4808100163936615
v -0.3722919225692749 1.4436509609222412 0.00034776885877363384
v -0.20903310179710388 1.3293360471725464 0.48150545358657837
v 0.18510839343070984 1.0533554553985596 0.0003475956618785858
v 0.1851082742214203 1.0533554553985596 -0.6801121830940247
v 0.5655799508094788 0.6792150139808655 -0.5241144299507141
v 0.579249918460846 0.7773746252059937 0.48150524497032166
v 0.7425085306167603 0.6630597710609436 0.0003474819241091609
v 0.18510857224464417 1.05335533618927 0.6808074116706848
v 0.5792498588562012 0.777374804019928 -0.4808102250099182
v 0.13596603274345398 0.9800338745117188 0.7420488595962524
v 0.5655801892280579 0.6792148947715759 0.5248093605041504
v 0.7435320615768433 0.5546116828918457 0.0003474779659882188
v 0.6602951884269714 0.37060999870300293 0.0003475271223578602
v 0.47299426794052124 0.5017595291137695 0.5523625612258911
v 0.020809926092624664 0.8183823823928833 0.7810149788856506
vn 0.8658453226089478 0.28399813175201416 0.4118943512439728
vn 0.8685701489448547 0.3956599533557892 -0.29839417338371277
vn 0.822885274887085 0.5333426594734192 -0.19597287476062775
vn -0.4719686210155487 0.5254961252212524 -0.7078837752342224
vn -0.8275760412216187 0.5611580014228821 -0.014819671399891376
vn -0.48963308334350586 0.5467475056648254 0.6792102456092834
vn -0.6110073328018188 0.41992953419685364 -0.6710657477378845
vn 0.02456338331103325 0.2795162498950958 -0.9598267078399658
vn -0.6243973970413208 0.4186936616897583 0.6594114899635315
vn -0.015618424862623215 0.20142635703086853 0.9793791174888611
vn 0.7701157927513123 -0.031765665858983994 0.6371127367019653
vn 0.7774848937988281 -0.12885650992393494 0.6155592799186707
vn 0.7171339392662048 -0.0939275324344635 -0.69057697057724
vn 0.7216821312904358 0.013992881402373314 -0.6920831799507141
vn -0.4719686210155487 0.5254961252212524 -0.7078837752342224
vn 0.02456338331103325 0.2795162498950958 -0.9598267078399658
vn 0.834182620048523 0.5150060057640076 0.19725163280963898
vn 0.888250470161438 0.38099443912506104 0.2566210627555847
vn 0.8868290781974792 0.21751202642917633 -0.4077041447162628
vn 0.3458470106124878 0.548884928226471 0.7609961628913879
vn -0.41010385751724243 0.5531219840049744 0.7251695990562439
vn -0.35584431886672974 0.41303277015686035 0.8383190035820007
vn -0.8752697706222534 0.21961425244808197 0.43089720606803894
vn -0.8993930816650391 0.06468416750431061 -0.43232858180999756
vn -0.8412396907806396 -0.04542716220021248 -0.5387505888938904
vn 0.4476657211780548 -0.0016704729059711099 -0.8941994309425354
vn 0.271686851978302 0.04089486226439476 -0.9615164399147034
vn 0.834182620048523 0.5150060057640076 0.19725163280963898
vn 0.8868290781974792 0.21751202642917633 -0.4077041447162628
vn 0.19970852136611938 0.05862226337194443 0.9781001806259155
vn 0.8658453226089478 0.28399813175201416 0.4118943512439728
vn 0.822885274887085 0.5333426594734192 -0.19597287476062775
vn 0.44766589999198914 -0.0016705016605556011 0.8941993117332458
vn -0.8675047159194946 -0.03829914331436157 0.4959523677825928
vn -0.9126840829849243 0.045171063393354416 0.4061617851257324
vn -0.8990809917449951 0.17339913547039032 -0.4019777774810791
vn -0.42353948950767517 0.5285951495170593 -0.7356639504432678
vn -0.39600756764411926 0.39984580874443054 -0.8266204595565796
vn 0.34743279218673706 0.5484820008277893 -0.7605642676353455
vn -0.21255254745483398 -0.3035562336444855 -0.928803026676178
vn -0.7505412697792053 0.07314742356538773 -0.6567627191543579
vn -0.6738870143890381 0.24983181059360504 -0.6953130960464478
vn 0.32543620467185974 -0.6802599430084229 -0.6567630767822266
vn -0.10431956499814987 -0.1489834487438202 -0.9833216071128845
vn 0.4652478098869324 -0.5477989315986633 -0.6953134536743164
vn 0.5482785701751709 -0.8362957835197449 -1.5686944720982865e-7
vn 0.7011705636978149 -0.7129935622215271 -1.4807987724907434e-7
vn 0.325436532497406 -0.6802600622177124 0.6567627191543579
vn 0.07959234714508057 -0.9968274831771851 -9.994914762501139e-8
vn -0.07322832196950912 -0.8898212313652039 0.4503951370716095
vn -0.44217050075531006 -0.6314852833747864 0.6369549632072449
vn -0.07322854548692703 -0.8898211717605591 -0.4503951966762543
vn -0.5735763907432556 -0.8191520571708679 5.409197711969682e-8
vn -0.9639335870742798 -0.2661428451538086 2.0191714611428324e-7
vn -0.8111128211021423 -0.373149037361145 -0.4503951072692871
vn -0.44217079877853394 -0.631485104560852 -0.6369549036026001
vn -0.811112642288208 -0.37314915657043457 0.4503953456878662
vn -0.21255216002464294 -0.3035564720630646 0.928803026676178
vn -0.7505409717559814 0.07314727455377579 0.6567630767822266
vn -0.9733833074569702 0.22918321192264557 2.214542718093071e-7
vn 0.4652481973171234 -0.5477990508079529 0.6953130960464478
vn -0.10431919991970062 -0.14898380637168884 0.9833216071128845
vn -0.6738866567611694 0.2498316764831543 0.6953135132789612
vn -0.9098092913627625 0.41502654552459717 2.2496283236250747e-7
vn -0.6876591444015503 0.7260336875915527 2.612677576507849e-7
vn -0.4548657238483429 0.5603070855140686 0.6922088861465454
vn -0.32372650504112244 0.6801304221153259 0.6577414274215698
vn 0.6756430268287659 -0.244523286819458 -0.695496141910553
vn 0.10905095189809799 0.15884734690189362 -0.9812621474266052
vn 0.2158086895942688 0.30395999550819397 -0.9279196858406067
vn -0.4548662602901459 0.5603070259094238 -0.6922085881233215
vn -0.32372692227363586 0.6801303625106812 -0.6577412486076355
vn -0.5480044484138489 0.8364754319190979 1.3902304374369123e-7
vn 0.16008621454238892 0.9081159830093384 -0.3869079351425171
vn 0.02725616656243801 0.999628484249115 4.0159662262340134e-8
vn 0.16008643805980682 0.9081160426139832 0.38690778613090515
vn 0.5735762119293213 0.8191522359848022 -2.4831924960722063e-8
vn 0.4787326157093048 0.6885812282562256 -0.5446750521659851
vn 0.7527085542678833 -0.0704524964094162 -0.654573380947113
vn 0.7944464683532715 0.47105908393859863 0.38335123658180237
vn 0.9243445992469788 0.3815588057041168 -8.497084280634226e-8
vn 0.47873297333717346 0.6885811686515808 0.5446748733520508
vn 0.7944463491439819 0.47105908393859863 -0.3833514153957367
vn 0.21580946445465088 0.3039601743221283 0.9279194474220276
vn 0.7527090311050415 -0.07045222073793411 0.6545727849006653
vn 0.974349856376648 -0.22503851354122162 -2.7784705025624135e-7
vn 0.9111115336418152 -0.4121599495410919 -2.634041322835401e-7
vn 0.6756435632705688 -0.24452295899391174 0.6954957246780396
vn 0.1090518906712532 0.15884773433208466 0.9812619686126709
vt -0.045491576194763184 0.0004994869232177734
vt 0.1417209506034851 0.0004994869232177734
vt -0.12709081172943115 0.9995005130767822
vt -0.03762131929397583 0.9995005130767822
vt 0.24612589180469513 0.0004994869232177734
vt 0.537103533744812 0.9995005130767822
vt 0.14825713634490967 0.0004994869232177734
vt -0.022976279258728027 0.0004994869232177734
vt 0.3505873680114746 0.0004994869232177734
vt 0.5317830443382263 0.0004994869232177734
vt 0.6906798481941223 0.7507542967796326
vt 0.6589072942733765 0.0004994869232177734
vt 0.808548092842102 0.7507543563842773
vt 0.8421971797943115 0.0004994869232177734
vt 0.9623786807060242 0.9995005130767822
vt 0.977023720741272 0.0004994869232177734
vt -0.10933095216751099 0.9995004534721375
vt 0.12785829603672028 0.0004995465278625488
vt -0.04580587148666382 0.0004995465278625488
vt 0.23825368285179138 0.0004995465278625488
vt 0.6210429072380066 0.9630188941955566
vt 0.36068761348724365 0.0004995465278625488
vt 0.5317676067352295 0.0004995465278625488
vt 0.6907255053520203 0.7417921423912048
vt 0.6665670871734619 0.0004995465278625488
vt 0.8177196979522705 0.7782737016677856
vt 0.8437678217887878 0.0004995465278625488
vt 0.890669047832489 0.9995004534721375
vt 0.9541941285133362 0.0004995465278625488
vt 0.8316154479980469 0.0004994869232177734
vt 0.9545084238052368 0.0004994869232177734
vt 0.8729091882705688 0.9995005130767822
vt 0.8051578402519226 0.7782737612724304
vt 0.6517409086227417 0.0004994869232177734
vt 0.6761572957038879 0.7417922019958496
vt 0.5395394563674927 0.0004995465278625488
vt 0.6014878749847412 0.9630188941955566
vt 0.3766041696071625 0.0004994869232177734
vt 0.25373175740242004 0.0004994869232177734
vt 0.569744348526001 0.5072539448738098
vt 0.569744348526001 0.7652865052223206
vt 0.002956860698759556 0.7667341232299805
vt 0.5697442293167114 0.2612987160682678
vt 0.0029568206518888474 0.5077367424964905
vt 0.002956758253276348 0.25791841745376587
vt 0.5697441101074219 0.006216883659362793
vt 0.0029566390439867973 0.005338132381439209
vt 0.5697441101074219 0.2612988352775574
vt 0.9951803684234619 0.006722629070281982
vt 0.9951803684234619 0.2621687650680542
vt 0.995180606842041 0.5072540044784546
vt 0.9951803684234619 0.26216864585876465
vt 1.2022587060928345 0.5072540044784546
vt 0.9951807260513306 0.9957081079483032
vt 0.9951807260513306 0.7648993730545044
vt 0.995180606842041 0.5072539448738098
vt 0.9951807260513306 0.7648994326591492
vt 0.5697442293167114 0.5072540640830994
vt 0.5697442293167114 0.7652866244316101
vt 0.5697442293167114 0.9957306385040283
vt 0.0029566390439867973 0.2579185366630554
vt 0.002956702373921871 0.5077369213104248
vt 0.0029567182064056396 0.76673424243927
vt 0.0029567182064056396 0.9951600432395935
vt 0.5041716694831848 0.0035199522972106934
vt 0.0075774043798446655 0.003461599349975586
vt 0.005241704639047384 0.15037816762924194
vt 0.007656637579202652 0.0034552812576293945
vt 0.5041717290878296 0.0035190582275390625
vt 0.5041813850402832 0.13563275337219238
vt 0.989424467086792 0.003806769847869873
vt 0.9899638891220093 0.16889816522598267
vt 0.5041803121566772 0.13530337810516357
vt 0.9881175756454468 0.2355896234512329
vt 0.5041670799255371 0.19997847080230713
vt 0.0063248625956475735 0.20409011840820312
vt 0.5041550397872925 0.9879257082939148
vt 0.5041669011116028 0.1999872922897339
vt 0.00429781386628747 0.15072870254516602
vt 0.9885493516921997 0.23559880256652832
vt 0.5041667222976685 0.1999862790107727
vt 0.5041664838790894 0.1999853253364563
vt 0.006544353440403938 0.2040940523147583
vt 0.5041791796684265 0.1356455683708191
vt 0.9897103309631348 0.16880649328231812
vt 0.5041787624359131 0.13552725315093994
vt 0.5041717290878296 0.0035207271575927734
vt 0.9892516136169434 0.003852367401123047
vt 0.5041716694831848 0.003521144390106201
g Geoset0
s 1
usemtl mat_drum03base
f 1/1/1 2/2/2 3/3/3
f 4/4/4 5/5/5 6/6/6
f 5/5/5 4/4/4 7/7/7
f 8/8/8 7/7/7 4/4/4
f 5/5/5 9/9/9 6/6/6
f 10/10/10 6/6/6 9/9/9
f 6/6/6 10/10/10 11/11/11
f 10/10/10 12/12/12 11/11/11
f 13/13/13 11/11/11 12/12/12
f 12/12/12 14/14/14 13/13/13
f 15/15/15 13/13/13 14/14/14
f 14/14/14 16/16/16 15/15/15
f 17/17/17 18/18/18 19/19/19
f 18/18/18 17/17/17 20/20/20
f 21/21/21 20/20/20 17/17/17
f 21/21/21 22/22/22 20/20/20
f 22/22/22 21/21/21 23/23/23
f 24/24/24 23/23/23 21/21/21
f 24/24/24 25/25/25 23/23/23
f 25/25/25 24/24/24 26/26/26
f 26/26/26 27/27/27 25/25/25
f 27/27/27 26/26/26 28/28/28
f 28/28/28 29/29/29 27/27/27
f 30/30/30 31/31/31 32/32/32
f 32/32/32 33/33/33 30/30/30
f 34/34/34 30/30/30 33/33/33
f 33/33/33 35/35/35 34/34/34
f 36/36/36 34/34/34 35/35/35
f 37/37/37 36/36/36 35/35/35
f 36/36/36 37/37/37 38/38/38
f 39/39/39 38/38/38 37/37/37
f 3/3/3 39/39/39 37/37/37
f 39/39/39 3/3/3 2/2/2
g Geoset1
s 1
usemtl mat_barrel05
f 40/40/40 41/41/41 42/42/42
f 43/43/43 44/44/44 45/45/45
f 46/46/46 43/43/43 45/45/45
f 46/46/46 45/45/45 47/47/47
f 48/48/48 46/46/46 47/47/47
f 49/49/49 43/43/43 46/46/46
f 50/50/50 49/49/49 46/46/46
f 50/50/50 46/46/46 48/48/48
f 51/51/51 50/50/50 48/48/48
f 40/40/40 42/42/42 44/44/44
f 43/43/43 40/40/40 44/44/44
f 52/52/52 40/40/40 43/43/43
f 49/49/49 52/52/52 43/43/43
f 53/53/53 52/52/52 49/49/49
f 53/53/53 49/49/49 50/50/50
f 53/53/53 50/50/50 51/51/51
f 53/53/53 54/54/54 55/55/55
f 53/53/53 55/55/55 56/56/56
f 53/53/53 56/56/56 52/52/52
f 53/53/53 57/57/57 54/54/54
f 53/53/53 51/51/51 57/57/57
f 51/51/51 48/48/48 58/58/58
f 57/57/57 51/51/51 58/58/58
f 57/57/57 58/58/58 59/59/59
f 54/54/54 57/57/57 59/59/59
f 54/54/54 59/59/59 60/60/60
f 55/55/55 54/54/54 60/60/60
f 55/55/55 60/60/60 41/41/41
f 56/56/56 55/55/55 41/41/41
f 56/56/56 41/41/41 40/40/40
f 52/52/52 56/56/56 40/40/40
f 48/48/48 47/47/47 61/61/61
f 58/58/58 48/48/48 61/61/61
f 58/58/58 61/61/61 62/62/62
f 59/59/59 58/58/58 62/62/62
f 59/59/59 62/62/62 63/63/63
f 60/60/60 59/59/59 63/63/63
f 60/60/60 63/63/63 64/64/64
f 41/41/41 60/60/60 64/64/64
f 41/41/41 64/64/64 42/42/42
g Geoset2
s 1
usemtl mat_drumface01
f 65/65/65 66/66/66 67/67/67
f 68/68/68 69/69/69 70/70/70
f 69/69/69 71/71/71 70/70/70
f 72/72/72 70/70/70 71/71/71
f 71/71/71 65/65/65 72/72/72
f 73/73/73 72/72/72 65/65/65
f 67/67/67 73/73/73 65/65/65
f 70/70/70 72/72/72 74/74/74
f 75/75/75 74/74/74 72/72/72
f 72/72/72 73/73/73 75/75/75
f 76/76/76 75/75/75 73/73/73
f 77/77/77 75/75/75 76/76/76
f 77/77/77 74/74/74 75/75/75
f 77/77/77 78/78/78 74/74/74
f 74/74/74 78/78/78 70/70/70
f 79/79/79 70/70/70 78/78/78
f 77/77/77 80/80/80 81/81/81
f 77/77/77 82/82/82 80/80/80
f 77/77/77 76/76/76 82/82/82
f 77/77/77 83/83/83 78/78/78
f 77/77/77 81/81/81 83/83/83
f 73/73/73 67/67/67 76/76/76
f 82/82/82 76/76/76 67/67/67
f 67/67/67 84/84/84 82/82/82
f 80/80/80 82/82/82 84/84/84
f 84/84/84 85/85/85 80/80/80
f 81/81/81 80/80/80 85/85/85
f 85/85/85 86/86/86 81/81/81
f 83/83/83 81/81/81 86/86/86
f 86/86/86 79/79/79 83/83/83
f 78/78/78 83/83/83 79/79/79
f 70/70/70 79/79/79 68/68/68
f 79/79/79 86/86/86 68/68/68
f 87/87/87 68/68/68 86/86/86
f 86/86/86 85/85/85 87/87/87
f 88/88/88 87/87/87 85/85/85
f 85/85/85 84/84/84 88/88/88
f 89/89/89 88/88/88 84/84/84
f 84/84/84 67/67/67 89/89/89
f 66/66/66 89/89/89 67/67/67
