# Exported using wow.export v0.1.64
o wt_roadsign_post
mtllib wt_roadsign_post.mtl
v 0.0795377865433693 2.937457323074341 -0.3613891005516052
v -0.18490372598171234 2.9298031330108643 -0.2518891394138336
v -0.29477816820144653 2.9344019889831543 0.01246806513518095
v 0.2788764536380768 0.3039360046386719 0.016090169548988342
v 0.20155832171440125 0.3039360046386719 0.20275267958641052
v 0.19445699453353882 -0.06938529014587402 0.19565144181251526
v 0.2688336968421936 -0.06938529014587402 0.016090303659439087
v 0.20155830681324005 0.3039360046386719 -0.17057237029075623
v 0.1944570094347 -0.06938529014587402 -0.16347096860408783
v 0.014895811676979065 0.3039360046386719 -0.24789060652256012
v 0.014895770698785782 -0.06938529014587402 -0.23784767091274261
v -0.1717667430639267 0.3039360046386719 -0.17057247459888458
v -0.16466543078422546 -0.06938529014587402 -0.16347099840641022
v -0.24908490478992462 0.3039360046386719 0.016090068966150284
v -0.23904217779636383 -0.06938529014587402 0.01609022729098797
v -0.17176677286624908 0.3039360046386719 0.20275263488292694
v -0.16466547548770905 -0.06938529014587402 0.19565148651599884
v 0.01489576231688261 0.3039360046386719 0.28007081151008606
v 0.014895735308527946 -0.06938529014587402 0.27002817392349243
v 0.442828893661499 3.0110976696014404 0.377278208732605
v 0.34282124042510986 2.9716362953186035 0.2768251597881317
v 0.07837966084480286 2.9639828205108643 0.38632604479789734
v 0.5949188470840454 3.0047316551208496 0.011351147666573524
v 0.5619803071022034 2.7700865268707275 0.011909610591828823
v 0.4203687012195587 2.7616066932678223 -0.33005958795547485
v 0.34397092461586 2.696929693222046 -0.25384679436683655
v 0.07827272266149521 2.703406572341919 -0.36396917700767517
v 0.45269548892974854 2.9670372009277344 0.012468074448406696
v 0.4439626634120941 2.9851343631744385 -0.35457587242126465
v 0.0783621296286583 2.7556214332580566 -0.4717074930667877
v -0.2636968493461609 2.7556371688842773 -0.330059677362442
v -0.1874254196882248 2.7108445167541504 -0.25390756130218506
v -0.405434787273407 2.761644124984741 0.011909605003893375
v -0.2974812388420105 2.714886426925659 0.011866670101881027
v -0.26382339000701904 2.7701244354248047 0.3538788855075836
v -0.1874253898859024 2.7131638526916504 0.277665913105011
v 0.07818333059549332 2.7761096954345703 0.49552732706069946
v 0.07827272266149521 2.7066869735717773 0.38778918981552124
v 0.34397080540657043 2.699249029159546 0.2777266800403595
v 0.4202423393726349 2.7760939598083496 0.3538788855075836
v 0.45402660965919495 2.695207357406616 0.011952538974583149
v 0.0767851397395134 3.0005033016204834 0.5288504958152771
v -0.28765571117401123 2.9531912803649902 -0.3545759320259094
v -0.4397455155849457 2.95955753326416 0.011351141147315502
v -0.29477816820144653 2.9344019889831543 0.01246806513518095
v -0.18572264909744263 2.9485597610473633 0.2768252193927765
v -0.2887890934944153 2.979154586791992 0.377278208732605
v 0.07838823646306992 2.9637861251831055 -0.5061472058296204
v 0.0795377865433693 2.937457323074341 -0.3613891005516052
v 0.3436400890350342 2.9528799057006836 -0.25188902020454407
v -0.18490372598171234 2.9298031330108643 -0.2518891394138336
v -0.2974812388420105 2.714886426925659 0.011866670101881027
v -0.1874254196882248 2.7108445167541504 -0.25390756130218506
v -0.19208292663097382 2.474480390548706 -0.2505659759044647
v -0.29679304361343384 2.472986936569214 0.011863968335092068
v -0.27741673588752747 1.9314132928848267 0.014604583382606506
v -0.19208283722400665 2.474480390548706 0.2742787301540375
v -0.1874253898859024 2.7131638526916504 0.277665913105011
v 0.07827272266149521 2.7066869735717773 0.38778918981552124
v 0.07827272266149521 2.703406572341919 -0.36396917700767517
v 0.07827272266149521 2.4805233478546143 -0.359264612197876
v 0.34397092461586 2.696929693222046 -0.25384679436683655
v 0.34862834215164185 2.474480390548706 -0.25056594610214233
v 0.45402660965919495 2.695207357406616 0.011952538974583149
v 0.45333847403526306 2.468172073364258 0.011863972060382366
v 0.34397080540657043 2.699249029159546 0.2777266800403595
v 0.34862828254699707 2.474480390548706 0.2742787301540375
v 0.07827272266149521 2.4805233478546143 0.38297784328460693
v 0.3176897168159485 1.9040818214416504 0.2627343237400055
v 0.34862828254699707 2.474480390548706 0.2742787301540375
v 0.4197939336299896 1.8887982368469238 0.01616622507572174
v 0.25437474250793457 0.6738436818122864 0.25556907057762146
v 0.35357019305229187 0.6738443970680237 0.016090234741568565
v 0.2759464979171753 0.37486374378204346 0.27714085578918457
v 0.3840772211551666 0.3748645484447479 0.01609029434621334
v 0.20155832171440125 0.3039360046386719 0.20275267958641052
v 0.2788764536380768 0.3039360046386719 0.016090169548988342
v 0.31768980622291565 1.8859961032867432 -0.2308589667081833
v 0.25437474250793457 0.6738443970680237 -0.2233887016773224
v 0.2759465277194977 0.3748645484447479 -0.2449605017900467
v 0.20155830681324005 0.3039360046386719 -0.17057237029075623
v 0.34862834215164185 2.474480390548706 -0.25056594610214233
v 0.07118860632181168 1.897316813468933 -0.33363643288612366
v 0.014895830303430557 0.6738443970680237 -0.3225841522216797
v 0.014895821921527386 0.37486472725868225 -0.35309121012687683
v 0.014895811676979065 0.3039360046386719 -0.24789060652256012
v -0.17531253397464752 1.916129231452942 -0.23196305334568024
v -0.22458307445049286 0.6738443970680237 -0.22338877618312836
v -0.2461548149585724 0.37486472725868225 -0.24496060609817505
v -0.1717667430639267 0.3039360046386719 -0.17057247459888458
v -0.32377859950065613 0.6738436818122864 0.01609012298285961
v -0.35428568720817566 0.3748639225959778 0.016090113669633865
v -0.24908490478992462 0.3039360046386719 0.016090068966150284
v -0.17531247437000275 1.9342151880264282 0.26162976026535034
v -0.22458311915397644 0.6738436818122864 0.25556907057762146
v -0.24615497887134552 0.37486374378204346 0.2771408259868622
v -0.17176677286624908 0.3039360046386719 0.20275263488292694
v 0.07118862867355347 1.9228943586349487 0.3644084930419922
v 0.014895758591592312 0.6738436818122864 0.35476455092430115
v 0.014895735308527946 0.37486374378204346 0.3852716386318207
v 0.01489576231688261 0.3039360046386719 0.28007081151008606
v 0.45269548892974854 2.9670372009277344 0.012468074448406696
v 0.3436400890350342 2.9528799057006836 -0.25188902020454407
v 0.34282124042510986 2.9716362953186035 0.2768251597881317
v 0.07837966084480286 2.9639828205108643 0.38632604479789734
v -0.18572264909744263 2.9485597610473633 0.2768252193927765
vn -0.043591681867837906 0.9984189867973328 -0.035487301647663116
vn -0.04359252005815506 0.998418927192688 -0.03548779711127281
vn -0.04359184950590134 0.9984189867973328 -0.03548712283372879
vn 0.8444399833679199 -0.5356501936912537 -9.263850841989552e-8
vn 0.5971086621284485 -0.5356524586677551 0.5971077680587769
vn 0.7068510055541992 -0.026891279965639114 0.7068511247634888
vn 0.9996383786201477 -0.026891343295574188 3.157313415158569e-7
vn 0.5971092581748962 -0.5356500744819641 -0.597109317779541
vn 0.7068511843681335 -0.026891637593507767 -0.7068509459495544
vn 2.807298358220578e-7 -0.5356494188308716 -0.8444404602050781
vn 1.4717027596589105e-8 -0.026891853660345078 -0.9996383190155029
vn -0.597108781337738 -0.5356500148773193 -0.597109854221344
vn -0.7068510055541992 -0.026891671121120453 -0.7068511247634888
vn -0.8444385528564453 -0.5356523990631104 -2.798500986500585e-7
vn -0.9996383786201477 -0.026891283690929413 -9.769659925495944e-8
vn -0.5971082448959351 -0.535652756690979 0.5971079468727112
vn -0.706851065158844 -0.026891056448221207 0.706851065158844
vn -1.0573243258704679e-7 -0.5356528162956238 0.8444383144378662
vn -3.566838913116044e-8 -0.0268910750746727 0.9996383786201477
vn 0.5236325860023499 0.6683638095855713 0.5282979011535645
vn -0.19346266984939575 0.9633484482765198 -0.18582788109779358
vn -0.04225156456232071 0.967724621295929 -0.2484428584575653
vn 0.7491738200187683 0.6621652841567993 -0.016604186967015266
vn 0.8735965490341187 -0.4866214096546173 0.005358152557164431
vn 0.6090083122253418 -0.5171782970428467 -0.6013613939285278
vn 0.5878796577453613 -0.5466064810752869 -0.5963378548622131
vn 0.0024266373366117477 -0.6049363613128662 -0.7962701320648193
vn -0.25629016757011414 0.9659780859947205 -0.034665659070014954
vn 0.5236592888832092 0.6422336101531982 -0.5597472190856934
vn 0.0058885603211820126 -0.5511487126350403 -0.8343862295150757
vn -0.5850818157196045 -0.5715646147727966 -0.5753200650215149
vn -0.5578774809837341 -0.6289893388748169 -0.5414287447929382
vn -0.8230657577514648 -0.5678635835647583 0.009682179428637028
vn -0.7855367660522461 -0.6186470985412598 0.01441366970539093
vn -0.5906920433044434 -0.5387940406799316 0.6006528735160828
vn -0.5749415159225464 -0.5781984329223633 0.5789031386375427
vn -0.0027964632026851177 -0.5002609491348267 0.8658701777458191
vn -0.015488682314753532 -0.5418805480003357 0.8403127789497375
vn 0.6022809743881226 -0.5125687122344971 0.6119893193244934
vn 0.6195898652076721 -0.4783812165260315 0.6223020553588867
vn 0.8576647043228149 -0.5141847133636475 0.0050370218232274055
vn -0.023060984909534454 0.6561939716339111 0.7542397975921631
vn -0.5618751049041748 0.6106224060058594 -0.5580650568008423
vn -0.7881418466567993 0.6152926683425903 -0.015727780759334564
vn 0.17112436890602112 0.9846394062042236 -0.034665849059820175
vn 0.10876535624265671 0.9765439629554749 -0.18582791090011597
vn -0.5651184320449829 0.6337543725967407 0.5282012224197388
vn -0.017771627753973007 0.6213048100471497 -0.783367395401001
vn -0.04291382431983948 0.9828925132751465 0.17911088466644287
vn -0.19393089413642883 0.9740735292434692 0.11649710685014725
vn 0.10829637944698334 0.9872691631317139 0.11649668961763382
vn -0.7855367660522461 -0.6186470985412598 0.01441366970539093
vn -0.5578774809837341 -0.6289893388748169 -0.5414287447929382
vn -0.7083887457847595 -0.020124655216932297 -0.7055355310440063
vn -0.9998469352722168 -0.017453495413064957 0.0012083003530278802
vn -0.9999974966049194 -0.00223773461766541 0.0001846552622737363
vn -0.7107614874839783 -0.01758086308836937 0.7032133936882019
vn -0.5749415159225464 -0.5781984329223633 0.5789031386375427
vn -0.015488682314753532 -0.5418805480003357 0.8403127789497375
vn 0.0024266373366117477 -0.6049363613128662 -0.7962701320648193
vn 0.0013023074716329575 -0.02905901148915291 -0.9995768666267395
vn 0.5878796577453613 -0.5466064810752869 -0.5963378548622131
vn 0.7094554901123047 -0.027836449444293976 -0.704200267791748
vn 0.8576647043228149 -0.5141847133636475 0.0050370218232274055
vn 0.9995854496955872 -0.02877829410135746 0.0008929737959988415
vn 0.6022809743881226 -0.5125687122344971 0.6119893193244934
vn 0.7121371030807495 -0.024136630818247795 0.7016253471374512
vn 0.0009100775350816548 -0.029119156301021576 0.9995755553245544
vn 0.7042891979217529 -0.04562792181968689 0.7084453105926514
vn 0.7121371030807495 -0.024136630818247795 0.7016253471374512
vn 0.9982935190200806 -0.05833534151315689 0.002659290563315153
vn 0.7038902044296265 0.031130118295550346 0.7096262574195862
vn 0.9997117519378662 0.024008342996239662 0.00003712280886247754
vn 0.6533827781677246 -0.38233816623687744 0.6533823609352112
vn 0.924023449420929 -0.3823358714580536 8.180521859912915e-8
vn 0.5971086621284485 -0.5356524586677551 0.5971077680587769
vn 0.8444399833679199 -0.5356501936912537 -9.263850841989552e-8
vn 0.7084017992019653 -0.050980739295482635 -0.7039657831192017
vn 0.7039681077003479 0.03080817125737667 -0.7095630764961243
vn 0.6533832550048828 -0.3823358416557312 -0.653383195400238
vn 0.5971092581748962 -0.5356500744819641 -0.597109317779541
vn 0.7094554901123047 -0.027836449444293976 -0.704200267791748
vn 0.004609010647982359 -0.028696782886981964 -0.999577522277832
vn -0.005489753093570471 0.04708973318338394 -0.9988755583763123
vn 1.4369274481396133e-7 -0.38233521580696106 -0.9240236878395081
vn 2.807298358220578e-7 -0.5356494188308716 -0.8444404602050781
vn -0.7044550180435181 -0.010837608017027378 -0.7096658945083618
vn -0.7084220051765442 0.06302033364772797 -0.7029699087142944
vn -0.6533829569816589 -0.3823348879814148 -0.6533840894699097
vn -0.597108781337738 -0.5356500148773193 -0.597109854221344
vn -0.997567355632782 0.06970923393964767 0.0001035641398630105
vn -0.9240227341651917 -0.3823375701904297 -2.5213384446942655e-7
vn -0.8444385528564453 -0.5356523990631104 -2.798500986500585e-7
vn -0.7043029069900513 -0.006150713190436363 0.7098729014396667
vn -0.7083253860473633 0.06354544311761856 0.7030199766159058
vn -0.6533827185630798 -0.38233792781829834 0.6533825397491455
vn -0.5971082448959351 -0.535652756690979 0.5971079468727112
vn 0.0007818638696335256 -0.020496860146522522 0.9997895956039429
vn -0.0055522494949400425 0.04769705981016159 0.9988464117050171
vn -1.09260660963173e-7 -0.3823379576206207 0.9240225553512573
vn -1.0573243258704679e-7 -0.5356528162956238 0.8444383144378662
vn -0.043591633439064026 0.9984189867973328 -0.035487085580825806
vn -0.04359070211648941 0.9984189867973328 -0.03548802435398102
vn -0.04359157010912895 0.9984189867973328 -0.03548700734972954
vn -0.04359166696667671 0.9984189867973328 -0.03548705577850342
vn -0.04359181970357895 0.9984189867973328 -0.03548702970147133
vt 0.332422137260437 0.1700754165649414
vt 0.28401678800582886 0.2865973711013794
vt 0.16715553402900696 0.3350118398666382
vt 0.3464658856391907 0.17153966426849365
vt 0.3464658856391907 0.08892989158630371
vt 0.49620914459228516 0.08895653486251831
vt 0.49620914459228516 0.1715395450592041
vt 0.3464658856391907 0.2578403949737549
vt 0.49620920419692993 0.25783830881118774
vt 0.34646594524383545 0.3424800634384155
vt 0.49620920419692993 0.3424772024154663
vt 0.34646594524383545 0.2578403949737549
vt 0.49620920419692993 0.25783830881118774
vt 0.3464658856391907 0.17153972387313843
vt 0.49620920419692993 0.17153960466384888
vt 0.3464658856391907 0.08892989158630371
vt 0.49620914459228516 0.08895653486251831
vt 0.3464658856391907 0.0024331212043762207
vt 0.49620914459228516 0.002434849739074707
vt 0.12747915089130402 0.4686886668205261
vt 0.1274888813495636 0.49729079008102417
vt 0.0026563273277133703 0.49727803468704224
vt 0.24976608157157898 0.4684940576553345
vt 0.24982783198356628 0.36411988735198975
vt 0.37196776270866394 0.3637171983718872
vt 0.3719644248485565 0.34414076805114746
vt 0.49106186628341675 0.34418487548828125
vt 0.249729722738266 0.49726617336273193
vt 0.37207427620887756 0.46843862533569336
vt 0.49106594920158386 0.36343300342559814
vt 0.37196776270866394 0.363433837890625
vt 0.3719644248485565 0.3442354202270508
vt 0.24982783198356628 0.36371898651123047
vt 0.24983027577400208 0.344262957572937
vt 0.12751507759094238 0.364121675491333
vt 0.12755104899406433 0.3442511558532715
vt 0.0028553353622555733 0.36440587043762207
vt 0.0028579591307789087 0.34420716762542725
vt 0.12755101919174194 0.34415650367736816
vt 0.12751507759094238 0.36440515518188477
vt 0.2498254030942917 0.3441290855407715
vt 0.0025732023641467094 0.468580961227417
vt 0.37207406759262085 0.4684385061264038
vt 0.24976608157157898 0.46847862005233765
vt 0.249729722738266 0.49726903438568115
vt 0.12747040390968323 0.4972917437553406
vt 0.12753276526927948 0.4686669111251831
vt 0.4904562532901764 0.46836644411087036
vt 0.4903982877731323 0.4972538948059082
vt 0.3720073997974396 0.4972612261772156
vt 0.3720768988132477 0.4972642660140991
vt 0.7502008676528931 0.9956168532371521
vt 0.871707022190094 0.9955708980560303
vt 0.8715440630912781 0.8710214495658875
vt 0.7485312819480896 0.870954692363739
vt 0.748384952545166 0.6553899645805359
vt 0.6291489601135254 0.8710281848907471
vt 0.6280373334884644 0.995597243309021
vt 0.5038588047027588 0.9955235719680786
vt 0.9936010837554932 0.9954862594604492
vt 0.9935992360115051 0.8710479140281677
vt 0.871707022190094 0.9954125881195068
vt 0.8714877367019653 0.871020495891571
vt 0.7501438856124878 0.9953930377960205
vt 0.7485212087631226 0.8708916306495667
vt 0.6280370354652405 0.9954389929771423
vt 0.62931227684021 0.8709465265274048
vt 0.5038599967956543 0.8710479140281677
vt 0.6281179189682007 0.64422208070755
vt 0.6264241337776184 0.871039867401123
vt 0.747349202632904 0.6379768252372742
vt 0.6281564831733704 0.18212974071502686
vt 0.7473994493484497 0.18213003873825073
vt 0.6280401349067688 0.029972851276397705
vt 0.7473994493484497 0.029973149299621582
vt 0.6284415125846863 0.0012402534484863281
vt 0.7473995089530945 0.0012402534484863281
vt 0.8716975450515747 0.6368318200111389
vt 0.8716943264007568 0.18213003873825073
vt 0.8717032670974731 0.029973149299621582
vt 0.8716725707054138 0.0012402534484863281
vt 0.8746428489685059 0.8710876703262329
vt 0.9935886859893799 0.6414576768875122
vt 0.9935842752456665 0.18212997913360596
vt 0.9935966730117798 0.029973149299621582
vt 0.9935536980628967 0.0012402534484863281
vt 0.8716979026794434 0.6491447687149048
vt 0.8716943264007568 0.18212997913360596
vt 0.8717032670974731 0.029973149299621582
vt 0.8716725707054138 0.0012402534484863281
vt 0.747399628162384 0.18212968111038208
vt 0.747399628162384 0.029972851276397705
vt 0.747399628162384 0.0012402534484863281
vt 0.6281238198280334 0.6565349698066711
vt 0.6281564831733704 0.18212974071502686
vt 0.6280401349067688 0.02997279167175293
vt 0.6284415125846863 0.0012402534484863281
vt 0.5038647055625916 0.6519090533256531
vt 0.5038672089576721 0.18212974071502686
vt 0.5038594603538513 0.029972851276397705
vt 0.5038861632347107 0.0012402534484863281
vt 0.167155459523201 0.0056493282318115234
vt 0.2840166985988617 0.05370283126831055
vt 0.05029425770044327 0.05406373739242554
vt 0.0018885061144828796 0.1705857515335083
vt 0.05029429867863655 0.2869582176208496
g Geoset0
s 1
usemtl mat_wt_roadsign
f 1/1/1 2/2/2 3/3/3
f 4/4/4 5/5/5 6/6/6
f 6/6/6 7/7/7 4/4/4
f 8/8/8 4/4/4 7/7/7
f 7/7/7 9/9/9 8/8/8
f 10/10/10 8/8/8 9/9/9
f 9/9/9 11/11/11 10/10/10
f 12/12/12 10/10/10 11/11/11
f 11/11/11 13/13/13 12/12/12
f 14/14/14 12/12/12 13/13/13
f 13/13/13 15/15/15 14/14/14
f 16/16/16 14/14/14 15/15/15
f 15/15/15 17/17/17 16/16/16
f 18/18/18 16/16/16 17/17/17
f 17/17/17 19/19/19 18/18/18
f 5/5/5 18/18/18 19/19/19
f 19/19/19 6/6/6 5/5/5
f 20/20/20 21/21/21 22/22/22
f 21/21/21 20/20/20 23/23/23
f 24/24/24 23/23/23 20/20/20
f 23/23/23 24/24/24 25/25/25
f 26/26/26 25/25/25 24/24/24
f 25/25/25 26/26/26 27/27/27
f 23/23/23 28/28/28 21/21/21
f 28/28/28 23/23/23 29/29/29
f 25/25/25 29/29/29 23/23/23
f 29/29/29 25/25/25 30/30/30
f 27/27/27 30/30/30 25/25/25
f 31/31/31 30/30/30 27/27/27
f 27/27/27 32/32/32 31/31/31
f 33/33/33 31/31/31 32/32/32
f 32/32/32 34/34/34 33/33/33
f 35/35/35 33/33/33 34/34/34
f 34/34/34 36/36/36 35/35/35
f 37/37/37 35/35/35 36/36/36
f 36/36/36 38/38/38 37/37/37
f 37/37/37 38/38/38 39/39/39
f 40/40/40 39/39/39 41/41/41
f 39/39/39 40/40/40 37/37/37
f 42/42/42 37/37/37 40/40/40
f 35/35/35 37/37/37 42/42/42
f 43/43/43 44/44/44 45/45/45
f 46/46/46 45/45/45 44/44/44
f 44/44/44 47/47/47 46/46/46
f 22/22/22 46/46/46 47/47/47
f 47/47/47 42/42/42 22/22/22
f 22/22/22 42/42/42 20/20/20
f 40/40/40 20/20/20 42/42/42
f 20/20/20 40/40/40 24/24/24
f 41/41/41 24/24/24 40/40/40
f 24/24/24 41/41/41 26/26/26
f 48/48/48 49/49/49 50/50/50
f 51/51/51 49/49/49 48/48/48
f 48/48/48 43/43/43 51/51/51
f 45/45/45 51/51/51 43/43/43
f 42/42/42 47/47/47 35/35/35
f 33/33/33 35/35/35 47/47/47
f 47/47/47 44/44/44 33/33/33
f 31/31/31 33/33/33 44/44/44
f 44/44/44 43/43/43 31/31/31
f 30/30/30 31/31/31 43/43/43
f 43/43/43 48/48/48 30/30/30
f 30/30/30 48/48/48 29/29/29
f 50/50/50 29/29/29 48/48/48
f 29/29/29 50/50/50 28/28/28
f 52/52/52 53/53/53 54/54/54
f 54/54/54 55/55/55 52/52/52
f 56/56/56 55/55/55 54/54/54
f 57/57/57 55/55/55 56/56/56
f 58/58/58 52/52/52 55/55/55
f 55/55/55 57/57/57 58/58/58
f 59/59/59 58/58/58 57/57/57
f 53/53/53 60/60/60 61/61/61
f 61/61/61 60/60/60 62/62/62
f 62/62/62 63/63/63 61/61/61
f 63/63/63 62/62/62 64/64/64
f 64/64/64 65/65/65 63/63/63
f 65/65/65 64/64/64 66/66/66
f 66/66/66 67/67/67 65/65/65
f 67/67/67 66/66/66 59/59/59
f 59/59/59 68/68/68 67/67/67
f 57/57/57 68/68/68 59/59/59
f 69/69/69 70/70/70 68/68/68
f 70/70/70 69/69/69 71/71/71
f 71/71/71 69/69/69 72/72/72
f 72/72/72 73/73/73 71/71/71
f 73/73/73 72/72/72 74/74/74
f 74/74/74 75/75/75 73/73/73
f 75/75/75 74/74/74 76/76/76
f 76/76/76 77/77/77 75/75/75
f 78/78/78 71/71/71 73/73/73
f 73/73/73 79/79/79 78/78/78
f 79/79/79 73/73/73 75/75/75
f 75/75/75 80/80/80 79/79/79
f 80/80/80 75/75/75 77/77/77
f 77/77/77 81/81/81 80/80/80
f 71/71/71 65/65/65 70/70/70
f 82/82/82 65/65/65 71/71/71
f 71/71/71 78/78/78 82/82/82
f 82/82/82 78/78/78 83/83/83
f 83/83/83 78/78/78 79/79/79
f 79/79/79 84/84/84 83/83/83
f 84/84/84 79/79/79 80/80/80
f 80/80/80 85/85/85 84/84/84
f 85/85/85 80/80/80 81/81/81
f 81/81/81 86/86/86 85/85/85
f 87/87/87 83/83/83 84/84/84
f 84/84/84 88/88/88 87/87/87
f 88/88/88 84/84/84 85/85/85
f 85/85/85 89/89/89 88/88/88
f 89/89/89 85/85/85 86/86/86
f 86/86/86 90/90/90 89/89/89
f 61/61/61 54/54/54 53/53/53
f 83/83/83 61/61/61 82/82/82
f 54/54/54 61/61/61 83/83/83
f 83/83/83 87/87/87 54/54/54
f 54/54/54 87/87/87 56/56/56
f 56/56/56 87/87/87 88/88/88
f 88/88/88 91/91/91 56/56/56
f 91/91/91 88/88/88 89/89/89
f 89/89/89 92/92/92 91/91/91
f 92/92/92 89/89/89 90/90/90
f 90/90/90 93/93/93 92/92/92
f 94/94/94 56/56/56 91/91/91
f 91/91/91 95/95/95 94/94/94
f 95/95/95 91/91/91 92/92/92
f 92/92/92 96/96/96 95/95/95
f 96/96/96 92/92/92 93/93/93
f 93/93/93 97/97/97 96/96/96
f 98/98/98 94/94/94 95/95/95
f 95/95/95 99/99/99 98/98/98
f 99/99/99 95/95/95 96/96/96
f 96/96/96 100/100/100 99/99/99
f 100/100/100 96/96/96 97/97/97
f 97/97/97 101/101/101 100/100/100
f 56/56/56 94/94/94 57/57/57
f 68/68/68 57/57/57 94/94/94
f 94/94/94 98/98/98 68/68/68
f 68/68/68 98/98/98 69/69/69
f 69/69/69 98/98/98 99/99/99
f 99/99/99 72/72/72 69/69/69
f 72/72/72 99/99/99 100/100/100
f 100/100/100 74/74/74 72/72/72
f 74/74/74 100/100/100 101/101/101
f 101/101/101 76/76/76 74/74/74
f 1/1/1 102/102/102 103/103/103
f 1/1/1 104/104/104 102/102/102
f 1/1/1 105/105/105 104/104/104
f 1/1/1 106/106/106 105/105/105
f 1/1/1 3/3/3 106/106/106
