# Exported using wow.export v0.1.64
o wt_windbreak02
mtllib wt_windbreak02.mtl
v 0.048793576657772064 11.909733772277832 -1.6690175533294678
v -1.1388155221939087 11.875358581542969 -1.1772524118423462
v -1.6322625875473022 11.896012306213379 0.009977932088077068
v -1.1258193254470825 9.20422649383545 1.141861915588379
v 0.043112147599458694 9.230354309082031 1.6118426322937012
v 0.043112147599458694 10.246978759765625 1.6955485343933105
v 1.2120438814163208 9.204224586486816 1.141861915588379
v 1.236364483833313 10.213574409484863 1.2012566328048706
v 1.664777398109436 9.176952362060547 0.007263996638357639
v 1.7306263446807861 10.19542407989502 0.007662696298211813
v 1.2120438814163208 9.204224586486816 -1.1273995637893677
v 1.2363649606704712 10.203158378601074 -1.1860443353652954
v 0.043112173676490784 9.230354309082031 -1.5973783731460571
v 0.043112147599458694 10.232246398925781 -1.6806050539016724
v -1.1501405239105225 10.26565170288086 -1.1863173246383667
v -1.1388155221939087 11.875358581542969 -1.1772524118423462
v 0.048793576657772064 11.909733772277832 -1.6690175533294678
v 0.043630920350551605 12.027975082397461 -2.3191282749176025
v 1.2348793745040894 11.978996276855469 -1.1772520542144775
v 1.6854287385940552 12.123851776123047 -1.6384196281433105
v 1.724648118019104 12.042577743530273 0.009977968409657478
v -1.6322625875473022 11.896012306213379 0.009977932088077068
v -1.6002756357192993 11.980395317077637 -1.6384199857711792
v 0.04351367801427841 10.466743469238281 -2.164458990097046
v -1.1424933671951294 11.9595947265625 1.1972081661224365
v -2.2833118438720703 12.008984565734863 0.004961806815117598
v -1.4926761388778687 10.466813087463379 -1.5283170938491821
v 0.04359240457415581 12.028860092163086 1.6889774799346924
v -1.6053653955459595 12.096994400024414 1.6483433246612549
v -2.1292226314544678 10.493791580200195 0.007469876669347286
v -1.1501405239105225 10.26565170288086 -1.1863173246383667
v 0.043112147599458694 10.232246398925781 -1.6806050539016724
v 2.3633742332458496 12.211862564086914 0.004961839411407709
v 1.2312017679214478 12.063230514526367 1.197208046913147
v 1.6803369522094727 12.24045181274414 1.6483433246612549
v 0.03643142804503441 12.19287395477295 2.3290557861328125
v -1.4932442903518677 10.531876564025879 1.5432568788528442
v -1.6444021463394165 10.283801078796387 0.00727705517783761
v 1.5794684886932373 10.493622779846191 -1.528316855430603
v 2.215447187423706 10.531706809997559 0.007469903212040663
v 1.5789008140563965 10.558685302734375 1.5432568788528442
v 0.042710620909929276 10.558756828308105 2.179401159286499
v -1.150140404701233 10.276067733764648 1.2009837627410889
v 1.2363649606704712 10.203158378601074 -1.1860443353652954
v 1.7306263446807861 10.19542407989502 0.007662696298211813
v 1.236364483833313 10.213574409484863 1.2012566328048706
v 0.043112147599458694 10.246978759765625 1.6955485343933105
v -0.83710777759552 -0.7231603860855103 -0.8120587468147278
v -1.1843441724777222 -0.7231610417366028 0.026244357228279114
v -1.6568018198013306 -0.4819837808609009 0.02624456025660038
v -1.171185851097107 -0.4819851517677307 1.1986254453659058
v -0.83710777759552 -0.7231603860855103 0.8645474910736084
v 0.0011950616026297212 -0.4819851517677307 1.6842418909072876
v 0.0011951829073950648 -0.7231610417366028 1.2117840051651
v 1.1735762357711792 -0.4819851517677307 1.1986256837844849
v 0.8394982814788818 -0.7231610417366028 0.8645479083061218
v 1.6591923236846924 -0.48198091983795166 0.026245377957820892
v 1.1867347955703735 -0.7231610417366028 0.02624482847750187
v 1.1735763549804688 -0.48198166489601135 -1.1461360454559326
v 0.8394982814788818 -0.7231610417366028 -0.8120582699775696
v 0.0011954489164054394 -0.48198023438453674 -1.6317520141601562
v 0.001195407472550869 -0.7231610417366028 -1.1592952013015747
v -1.1711852550506592 -0.48198023438453674 -1.14613676071167
v 0.0011955202789977193 1.7438279390335083 -1.4947445392608643
v 1.0766974687576294 1.7438279390335083 -1.0492569208145142
v 1.5221850872039795 1.7438279390335083 0.026245106011629105
v 1.0766974687576294 1.7438246011734009 1.1017467975616455
v 0.0011952064232900739 1.7438246011734009 1.547234296798706
v -1.074306845664978 1.7438246011734009 1.1017465591430664
v -1.5197943449020386 1.7438246011734009 0.02624460868537426
v -1.0743061304092407 1.7438279390335083 -1.0492571592330933
v 1.5768871307373047 6.746301174163818 0.02658640220761299
v 1.1183364391326904 6.7337164878845215 -1.082805871963501
v 0.01129736378788948 6.7845587730407715 -1.544380784034729
v -1.0957413911819458 6.869044780731201 -1.0877643823623657
v -1.5542923212051392 6.937684059143066 0.01957305707037449
v -1.0957413911819458 6.950268745422363 1.1289654970169067
v 1.2120438814163208 9.204224586486816 -1.1273995637893677
v -1.1258198022842407 9.20422649383545 -1.1273998022079468
v -1.6444021463394165 10.283801078796387 0.00727705517783761
v -1.5785530805587769 9.197768211364746 0.0072639817371964455
v -1.150140404701233 10.276067733764648 1.2009837627410889
v 0.011297428980469704 6.8994269371032715 1.590545415878296
v 1.1183360815048218 6.814940929412842 1.1339260339736938
v 1.2120438814163208 9.204224586486816 1.141861915588379
v 1.724648118019104 12.042577743530273 0.009977968409657478
v 1.2348793745040894 11.978996276855469 -1.1772520542144775
v 1.2312017679214478 12.063230514526367 1.197208046913147
v 0.04359240457415581 12.028860092163086 1.6889774799346924
v -1.1424933671951294 11.9595947265625 1.1972081661224365
vn -0.043591681867837906 0.9984189867973328 -0.035487305372953415
vn -0.04359252378344536 0.998418927192688 -0.03548780083656311
vn -0.043591853231191635 0.9984189867973328 -0.03548711910843849
vn -0.7105000019073486 -0.034828875213861465 0.7028347253799438
vn 0.001172271789982915 -0.048558540642261505 0.9988196492195129
vn -0.01563122496008873 -0.5660014152526855 0.8242560625076294
vn 0.7114458084106445 -0.044399894773960114 0.7013369202613831
vn 0.5907542705535889 -0.5382581353187561 0.6010720133781433
vn 0.9988229870796204 -0.04849730804562569 0.0008040895918384194
vn 0.8417476415634155 -0.5398492813110352 0.004866312257945538
vn 0.7086769342422485 -0.048799123615026474 -0.7038434743881226
vn 0.5757866501808167 -0.5719499588012695 -0.5842456221580505
vn 0.0009862513979896903 -0.04940491169691086 -0.9987783432006836
vn 0.0017368094995617867 -0.6281540989875793 -0.7780870199203491
vn -0.5452135801315308 -0.6509076356887817 -0.5282626152038574
vn 0.10829635709524155 0.9872691631317139 0.11649667471647263
vn -0.042913805693387985 0.9828925132751465 0.17911088466644287
vn -0.01882721669971943 0.6450721025466919 -0.763889729976654
vn -0.19393092393875122 0.9740735292434692 0.11649709194898605
vn 0.5110372304916382 0.6628381013870239 -0.5472537279129028
vn -0.25629016757011414 0.9659780859947205 -0.03466565161943436
vn 0.1711243838071823 0.9846394062042236 -0.03466586023569107
vn -0.547012448310852 0.6364988088607788 -0.5437340140342712
vn 0.004477284848690033 -0.5236234068870544 -0.8519380688667297
vn 0.1087653711438179 0.9765439629554749 -0.18582791090011597
vn -0.7673070430755615 0.6410685777664185 -0.016460176557302475
vn -0.5988395810127258 -0.5421949625015259 -0.5894198417663574
vn -0.04225156083703041 0.967724621295929 -0.2484428435564041
vn -0.5514711141586304 0.6569124460220337 0.51414555311203
vn -0.8425136804580688 -0.5386092066764832 0.008416435681283474
vn -0.5452135801315308 -0.6509076356887817 -0.5282626152038574
vn 0.0017368094995617867 -0.6281540989875793 -0.7780870199203491
vn 0.7329240441322327 0.680111289024353 -0.016462543979287148
vn -0.19346269965171814 0.963348388671875 -0.18582791090011597
vn 0.5123286843299866 0.6857760548591614 0.5169434547424316
vn -0.022062206640839577 0.6757673621177673 0.7367846965789795
vn -0.6037958860397339 -0.5114205479621887 0.6114568710327148
vn -0.7681713104248047 -0.6400889754295349 0.014104590751230717
vn 0.6184051632881165 -0.4923458397388458 -0.6125117540359497
vn 0.8860009908676147 -0.46365997195243835 0.004651901312172413
vn 0.6279528737068176 -0.4554010331630707 0.6310983300209045
vn -0.0035263339523226023 -0.4754447937011719 0.8797385096549988
vn -0.5636026263237 -0.6007604002952576 0.5669559240341187
vn 0.5757866501808167 -0.5719499588012695 -0.5842456221580505
vn 0.8417476415634155 -0.5398492813110352 0.004866312257945538
vn 0.5907542705535889 -0.5382581353187561 0.6010720133781433
vn -0.01563122496008873 -0.5660014152526855 0.8242560625076294
vn -0.32149606943130493 -0.8906624913215637 -0.32149744033813477
vn -0.4546605348587036 -0.89066481590271 -8.93804781298968e-7
vn -0.8951908349990845 -0.44568300247192383 -4.819422088075953e-7
vn -0.6329951286315918 -0.4456843137741089 0.6329950094223022
vn -0.3214915096759796 -0.890666127204895 0.32149186730384827
vn -1.7159648280085094e-7 -0.4456841051578522 0.8951902985572815
vn -3.2832528518156323e-7 -0.8906657695770264 0.4546586573123932
vn 0.6329954266548157 -0.4456843435764313 0.6329946517944336
vn 0.32149386405944824 -0.8906652331352234 0.3214919865131378
vn 0.8951918482780457 -0.44568106532096863 9.539291312421483e-8
vn 0.45466506481170654 -0.8906624913215637 1.4319462593448407e-7
vn 0.6329958438873291 -0.4456818103790283 -0.6329960227012634
vn 0.32149600982666016 -0.8906627893447876 -0.32149672508239746
vn 7.881453711888753e-8 -0.4456806182861328 -0.89519202709198
vn 2.2844858449388994e-7 -0.8906617164611816 -0.4546666145324707
vn -0.6329958438873291 -0.4456806182861328 -0.6329968571662903
vn -0.0002104558516293764 0.025990450754761696 -0.9996621608734131
vn 0.7068284749984741 0.02552814409136772 -0.7069241404533386
vn 0.9996761679649353 0.025446323677897453 0.00002387500171607826
vn 0.706745445728302 0.025789452716708183 0.7069976925849915
vn -0.00031500362092629075 0.026649996638298035 0.9996447563171387
vn -0.706973135471344 0.02752085030078888 0.7067047357559204
vn -0.9996188282966614 0.027607185766100883 0.000130910164443776
vn -0.707065999507904 0.02685551717877388 -0.706637442111969
vn 0.9996654391288757 -0.02579844929277897 0.0018606162630021572
vn 0.7066155076026917 -0.024915656074881554 -0.7071589231491089
vn -0.0005502620479092002 -0.017894163727760315 -0.999839723110199
vn -0.7072294354438782 -0.014696245081722736 -0.7068313360214233
vn -0.9999366998672485 -0.01123907882720232 0.0005388728459365666
vn -0.7069039940834045 -0.008664126507937908 0.7072564959526062
vn 0.7086769342422485 -0.048799123615026474 -0.7038434743881226
vn -0.7077063322067261 -0.03785509243607521 -0.705491840839386
vn -0.7681713104248047 -0.6400889754295349 0.014104590751230717
vn -0.9994214773178101 -0.033992666751146317 0.001115678227506578
vn -0.5636026263237 -0.6007604002952576 0.5669559240341187
vn -0.0037516006268560886 -0.008677417412400246 0.9999552965164185
vn 0.7031852602958679 -0.019363893195986748 0.7107429504394531
vn 0.7114458084106445 -0.044399894773960114 0.7013369202613831
vn -0.04359164088964462 0.9984189867973328 -0.035487085580825806
vn -0.043590690940618515 0.9984189867973328 -0.03548802062869072
vn -0.04359157010912895 0.9984189867973328 -0.03548700362443924
vn -0.043591663241386414 0.9984189867973328 -0.03548705205321312
vn -0.04359182342886925 0.9984189867973328 -0.03548702970147133
vt 0.9962478280067444 0.9910119771957397
vt 0.9135547876358032 0.9566597938537598
vt 0.8791961073875427 0.8737260103225708
vt 0.2034815102815628 0.818943202495575
vt 0.20346729457378387 0.7579746842384338
vt 0.13052773475646973 0.7579740881919861
vt 0.20354025065898895 0.8190227150917053
vt 0.1305886059999466 0.8184021711349487
vt 0.20357973873615265 0.8770325779914856
vt 0.13062167167663574 0.8778222799301147
vt 0.20348702371120453 0.9368710517883301
vt 0.13060760498046875 0.936977744102478
vt 0.20346732437610626 0.9962934851646423
vt 0.13055463135242462 0.9962943196296692
vt 0.13049371540546417 0.936977744102478
vt 0.0008399029029533267 0.938421368598938
vt 0.0008485455764457583 0.9957476258277893
vt 0.024921420961618423 0.9957756996154785
vt 0.0008424361003562808 0.9383876919746399
vt 0.02486126869916916 0.9384201169013977
vt 0.0008383010281249881 0.8791446685791016
vt 0.0008359168423339725 0.8791446685791016
vt 0.024861343204975128 0.9384199380874634
vt 0.11236593127250671 0.9960710406303406
vt 0.0008169923676177859 0.81991046667099
vt 0.024827927350997925 0.8791622519493103
vt 0.11236528307199478 0.9383684396743774
vt 0.0008284042123705149 0.7594385743141174
vt 0.02467099390923977 0.8199406862258911
vt 0.11212760955095291 0.8791921734809875
vt 0.1283639669418335 0.9383668303489685
vt 0.1284060776233673 0.996069073677063
vt 0.024815063923597336 0.8791622519493103
vt 0.0008177871350198984 0.8199194073677063
vt 0.024652888998389244 0.819914698600769
vt 0.02474265545606613 0.7593982815742493
vt 0.11179201304912567 0.8199321627616882
vt 0.12834101915359497 0.8791933655738831
vt 0.1121290996670723 0.9383684396743774
vt 0.11179352551698685 0.8791921734809875
vt 0.11155582964420319 0.8199321627616882
vt 0.11155518144369125 0.7595349550247192
vt 0.12835077941417694 0.8199495077133179
vt 0.12844283878803253 0.9383668303489685
vt 0.12845256924629211 0.879190981388092
vt 0.12842965126037598 0.8199495077133179
vt 0.1283874809741974 0.7595362067222595
vt 0.8679879903793335 0.9369609951972961
vt 0.8679879903793335 0.8764867782592773
vt 0.8473170399665833 0.8764867782592773
vt 0.8473170399665833 0.8184036016464233
vt 0.8679879903793335 0.8185989260673523
vt 0.8473170399665833 0.7579743266105652
vt 0.8679879307746887 0.7579873204231262
vt 0.8473170399665833 0.8184036016464233
vt 0.8679879307746887 0.8185989260673523
vt 0.8473167419433594 0.8764867186546326
vt 0.8679879307746887 0.8764867186546326
vt 0.8473168611526489 0.93697589635849
vt 0.8679879307746887 0.9369609951972961
vt 0.8473167419433594 0.9962921738624573
vt 0.8679879903793335 0.9962713122367859
vt 0.8473167419433594 0.93697589635849
vt 0.7378513813018799 0.9962862133979797
vt 0.7378513813018799 0.9369714856147766
vt 0.7378513813018799 0.8764867186546326
vt 0.7378515601158142 0.81846022605896
vt 0.737851619720459 0.7579781413078308
vt 0.737851619720459 0.81846022605896
vt 0.737851619720459 0.8764867782592773
vt 0.7378513813018799 0.9369714856147766
vt 0.3674529492855072 0.8764623403549194
vt 0.3682766854763031 0.9369730949401855
vt 0.36494874954223633 0.9962882399559021
vt 0.35941845178604126 0.9369732737541199
vt 0.3549255132675171 0.8769662976264954
vt 0.3541017770767212 0.8184444308280945
vt 0.20343871414661407 0.9384064078330994
vt 0.2034863382577896 0.9368984699249268
vt 0.13046064972877502 0.8778499960899353
vt 0.20353437960147858 0.877037525177002
vt 0.1304747611284256 0.8184023499488831
vt 0.35742977261543274 0.7579770088195801
vt 0.36295995116233826 0.8184415102005005
vt 0.20347310602664948 0.8176172375679016
vt 0.8804625868797302 0.873725950717926
vt 0.9145650863647461 0.9566597938537598
vt 0.9148211479187012 0.7907922267913818
vt 0.9958856105804443 0.756439745426178
vt 0.9132986664772034 0.7907922863960266
g Geoset0
s 1
usemtl mat_wt_windbreak01
f 1/1/1 2/2/2 3/3/3
f 4/4/4 5/5/5 6/6/6
f 6/6/6 5/5/5 7/7/7
f 7/7/7 8/8/8 6/6/6
f 8/8/8 7/7/7 9/9/9
f 9/9/9 10/10/10 8/8/8
f 10/10/10 9/9/9 11/11/11
f 11/11/11 12/12/12 10/10/10
f 12/12/12 11/11/11 13/13/13
f 13/13/13 14/14/14 12/12/12
f 15/15/15 14/14/14 13/13/13
f 16/16/16 17/17/17 18/18/18
f 18/18/18 17/17/17 19/19/19
f 19/19/19 20/20/20 18/18/18
f 20/20/20 19/19/19 21/21/21
f 22/22/22 16/16/16 23/23/23
f 18/18/18 23/23/23 16/16/16
f 23/23/23 18/18/18 24/24/24
f 24/24/24 18/18/18 20/20/20
f 25/25/25 22/22/22 26/26/26
f 23/23/23 26/26/26 22/22/22
f 26/26/26 23/23/23 27/27/27
f 24/24/24 27/27/27 23/23/23
f 28/28/28 25/25/25 29/29/29
f 26/26/26 29/29/29 25/25/25
f 29/29/29 26/26/26 30/30/30
f 27/27/27 30/30/30 26/26/26
f 30/30/30 27/27/27 31/31/31
f 32/32/32 31/31/31 27/27/27
f 21/21/21 33/33/33 20/20/20
f 33/33/33 21/21/21 34/34/34
f 34/34/34 35/35/35 33/33/33
f 35/35/35 34/34/34 28/28/28
f 28/28/28 36/36/36 35/35/35
f 29/29/29 36/36/36 28/28/28
f 36/36/36 29/29/29 37/37/37
f 30/30/30 37/37/37 29/29/29
f 37/37/37 30/30/30 38/38/38
f 31/31/31 38/38/38 30/30/30
f 20/20/20 39/39/39 24/24/24
f 39/39/39 20/20/20 33/33/33
f 33/33/33 40/40/40 39/39/39
f 40/40/40 33/33/33 35/35/35
f 35/35/35 41/41/41 40/40/40
f 41/41/41 35/35/35 36/36/36
f 36/36/36 42/42/42 41/41/41
f 37/37/37 42/42/42 36/36/36
f 42/42/42 37/37/37 43/43/43
f 38/38/38 43/43/43 37/37/37
f 27/27/27 24/24/24 32/32/32
f 32/32/32 24/24/24 39/39/39
f 39/39/39 44/44/44 32/32/32
f 44/44/44 39/39/39 40/40/40
f 40/40/40 45/45/45 44/44/44
f 45/45/45 40/40/40 41/41/41
f 41/41/41 46/46/46 45/45/45
f 46/46/46 41/41/41 42/42/42
f 42/42/42 47/47/47 46/46/46
f 43/43/43 47/47/47 42/42/42
f 48/48/48 49/49/49 50/50/50
f 51/51/51 50/50/50 49/49/49
f 49/49/49 52/52/52 51/51/51
f 53/53/53 51/51/51 52/52/52
f 52/52/52 54/54/54 53/53/53
f 55/55/55 53/53/53 54/54/54
f 54/54/54 56/56/56 55/55/55
f 57/57/57 55/55/55 56/56/56
f 56/56/56 58/58/58 57/57/57
f 59/59/59 57/57/57 58/58/58
f 58/58/58 60/60/60 59/59/59
f 61/61/61 59/59/59 60/60/60
f 60/60/60 62/62/62 61/61/61
f 63/63/63 61/61/61 62/62/62
f 64/64/64 65/65/65 59/59/59
f 57/57/57 59/59/59 65/65/65
f 65/65/65 66/66/66 57/57/57
f 55/55/55 57/57/57 66/66/66
f 66/66/66 67/67/67 55/55/55
f 53/53/53 55/55/55 67/67/67
f 67/67/67 68/68/68 53/53/53
f 51/51/51 53/53/53 68/68/68
f 68/68/68 69/69/69 51/51/51
f 50/50/50 51/51/51 69/69/69
f 70/70/70 71/71/71 63/63/63
f 61/61/61 63/63/63 71/71/71
f 71/71/71 64/64/64 61/61/61
f 59/59/59 61/61/61 64/64/64
f 67/67/67 66/66/66 72/72/72
f 73/73/73 72/72/72 66/66/66
f 66/66/66 65/65/65 73/73/73
f 74/74/74 73/73/73 65/65/65
f 65/65/65 64/64/64 74/74/74
f 75/75/75 74/74/74 64/64/64
f 64/64/64 71/71/71 75/75/75
f 76/76/76 75/75/75 71/71/71
f 71/71/71 70/70/70 76/76/76
f 77/77/77 76/76/76 70/70/70
f 72/72/72 73/73/73 78/78/78
f 78/78/78 73/73/73 74/74/74
f 74/74/74 13/13/13 78/78/78
f 79/79/79 13/13/13 74/74/74
f 13/13/13 79/79/79 15/15/15
f 80/80/80 15/15/15 79/79/79
f 79/79/79 81/81/81 80/80/80
f 82/82/82 80/80/80 81/81/81
f 6/6/6 82/82/82 4/4/4
f 81/81/81 4/4/4 82/82/82
f 4/4/4 81/81/81 76/76/76
f 76/76/76 81/81/81 79/79/79
f 79/79/79 75/75/75 76/76/76
f 74/74/74 75/75/75 79/79/79
f 76/76/76 77/77/77 4/4/4
f 5/5/5 4/4/4 77/77/77
f 62/62/62 48/48/48 63/63/63
f 50/50/50 63/63/63 48/48/48
f 69/69/69 68/68/68 83/83/83
f 84/84/84 83/83/83 68/68/68
f 68/68/68 67/67/67 84/84/84
f 72/72/72 84/84/84 67/67/67
f 63/63/63 50/50/50 70/70/70
f 69/69/69 70/70/70 50/50/50
f 70/70/70 69/69/69 77/77/77
f 83/83/83 77/77/77 69/69/69
f 77/77/77 83/83/83 5/5/5
f 5/5/5 83/83/83 84/84/84
f 84/84/84 85/85/85 5/5/5
f 85/85/85 84/84/84 72/72/72
f 72/72/72 9/9/9 85/85/85
f 78/78/78 9/9/9 72/72/72
f 1/1/1 86/86/86 87/87/87
f 1/1/1 88/88/88 86/86/86
f 1/1/1 89/89/89 88/88/88
f 1/1/1 90/90/90 89/89/89
f 1/1/1 3/3/3 90/90/90
