# Exported using wow.export v0.1.64
o taurensack03
mtllib taurensack03.mtl
v -0.6177822947502136 0.022422773763537407 0.924107551574707
v -0.34499961137771606 -0.06810591369867325 0.45011991262435913
v -0.3062027394771576 0.022422829642891884 0.97708660364151
v 0.5420359969139099 0.022422881796956062 0.906864583492279
v 0.6183872222900391 0.022422874346375465 0.444636732339859
v 0.29437968134880066 0.23762519657611847 0.4443725645542145
v 0.26451820135116577 0.02242286130785942 0.9719564914703369
v -0.3449995517730713 0.23762519657611847 0.45011988282203674
v -0.3062027394771576 0.022422829642891884 0.97708660364151
v -0.6177822947502136 0.022422773763537407 0.924107551574707
v -0.6689533591270447 0.02242274023592472 0.4562084376811981
v 0.6111207008361816 0.02242286503314972 -0.41297999024391174
v 0.2871669828891754 0.2849019467830658 -0.40689149498939514
v -0.35221222043037415 0.28490200638771057 -0.4011441767215729
v -0.6762199997901917 0.022422725334763527 -0.40140819549560547
v 0.5465667247772217 0.022422857582569122 -0.9019455313682556
v -0.5606546998023987 0.02242279052734375 -0.9265860319137573
v -0.3223509192466736 0.022422773763537407 -0.9287282228469849
v 0.24837017059326172 0.022422820329666138 -0.9338582158088684
v 0.5420359969139099 0.022422881796956062 0.906864583492279
v 0.26451820135116577 0.02242286130785942 0.9719564914703369
v 0.29437974095344543 -0.0681057944893837 0.4443725645542145
v 0.6183872222900391 0.022422874346375465 0.444636732339859
v 0.28716692328453064 -0.0681057944893837 -0.406891405582428
v 0.6111207008361816 0.02242286503314972 -0.41297999024391174
v 0.5465667247772217 0.022422857582569122 -0.9019455313682556
v 0.24837017059326172 0.022422820329666138 -0.9338582158088684
v -0.35221239924430847 -0.06810592859983444 -0.4011440575122833
v -0.3223509192466736 0.022422773763537407 -0.9287282228469849
v -0.6689533591270447 0.02242274023592472 0.4562084376811981
v -0.6762199997901917 0.022422725334763527 -0.40140819549560547
v -0.5606546998023987 0.02242279052734375 -0.9265860319137573
vn -0.8039789795875549 -0.15950602293014526 0.5728661417961121
vn -0.17271597683429718 -0.9784064888954163 0.11353370547294617
vn -0.08018618822097778 -0.10921627283096313 0.9907784461975098
vn 0.7968972325325012 -0.15445835888385773 0.5840355157852173
vn 0.9854692220687866 -0.15699496865272522 0.06483063101768494
vn 0.28565943241119385 0.9265468716621399 0.2447642832994461
vn 0.08371958881616592 -0.1093340814113617 0.9904731512069702
vn -0.36522555351257324 0.8896610736846924 0.27406826615333557
vn -0.08018618822097778 -0.10921627283096313 0.9907784461975098
vn -0.8039789795875549 -0.15950602293014526 0.5728661417961121
vn -0.9881187081336975 -0.1422717571258545 0.05813949927687645
vn 0.9807761907577515 -0.1826232671737671 -0.06875152885913849
vn 0.3827293813228607 0.8801354765892029 -0.2808554172515869
vn -0.30687034130096436 0.9268642067909241 -0.21622522175312042
vn -0.9837722182273865 -0.17167207598686218 -0.05216199904680252
vn 0.7713802456855774 -0.20865778625011444 -0.6011941432952881
vn -0.7196306586265564 -0.21009546518325806 -0.6618093252182007
vn -0.008896009996533394 -0.1429515928030014 -0.9896897077560425
vn 0.04860934242606163 -0.14387714862823486 -0.9884009957313538
vn 0.7968972325325012 -0.15445835888385773 0.5840355157852173
vn 0.08371958881616592 -0.1093340814113617 0.9904731512069702
vn 0.14033657312393188 -0.98570716381073 0.09320415556430817
vn 0.9854692220687866 -0.15699496865272522 0.06483063101768494
vn 0.17044630646705627 -0.978672206401825 -0.11466821283102036
vn 0.9807761907577515 -0.1826232671737671 -0.06875152885913849
vn 0.7713802456855774 -0.20865778625011444 -0.6011941432952881
vn 0.04860934242606163 -0.14387714862823486 -0.9884009957313538
vn -0.13096021115779877 -0.9866917729377747 -0.09637842327356339
vn -0.008896009996533394 -0.1429515928030014 -0.9896897077560425
vn -0.9881187081336975 -0.1422717571258545 0.05813949927687645
vn -0.9837722182273865 -0.17167207598686218 -0.05216199904680252
vn -0.7196306586265564 -0.21009546518325806 -0.6618093252182007
vt 0 0.99609375
vt 0.2768400013446808 0.7905305027961731
vt 0.28125 0.99609375
vt 0 0.99609375
vt 0 0.7917512059211731
vt 0.27302393317222595 0.7905305624008179
vt 0.2734375 0.99609375
vt 0.7144851088523865 0.7905305027961731
vt 0.7109375 0.99609375
vt 1 0.99609375
vt 1 0.7917512059211731
vt 0 0.462166965007782
vt 0.27302390336990356 0.463387668132782
vt 0.7144849896430969 0.4633876085281372
vt 1 0.4621669054031372
vt 0 0.25390625
vt 1 0.25390625
vt 0.7109375 0.25390625
vt 0.2734375 0.25390625
vt 1 0.99609375
vt 0.71875 0.99609375
vt 0.7183011770248413 0.7905305624008179
vt 1 0.7917512059211731
vt 0.7183011770248413 0.463387668132782
vt 1 0.462166965007782
vt 1 0.25390625
vt 0.71875 0.25390625
vt 0.27684012055397034 0.4633876085281372
vt 0.28125 0.25390625
vt 0 0.7917512059211731
vt 0 0.4621669054031372
vt 0 0.25390625
g Geoset0
s 1
usemtl mat_grainsack
f 1/1/1 2/2/2 3/3/3
f 4/4/4 5/5/5 6/6/6
f 6/6/6 7/7/7 4/4/4
f 7/7/7 6/6/6 8/8/8
f 8/8/8 9/9/9 7/7/7
f 8/8/8 10/10/10 9/9/9
f 10/10/10 8/8/8 11/11/11
f 5/5/5 12/12/12 13/13/13
f 13/13/13 6/6/6 5/5/5
f 6/6/6 13/13/13 14/14/14
f 14/14/14 8/8/8 6/6/6
f 8/8/8 14/14/14 15/15/15
f 15/15/15 11/11/11 8/8/8
f 16/16/16 13/13/13 12/12/12
f 17/17/17 15/15/15 14/14/14
f 14/14/14 18/18/18 17/17/17
f 18/18/18 14/14/14 13/13/13
f 13/13/13 19/19/19 18/18/18
f 13/13/13 16/16/16 19/19/19
f 20/20/20 21/21/21 22/22/22
f 22/22/22 23/23/23 20/20/20
f 23/23/23 22/22/22 24/24/24
f 24/24/24 25/25/25 23/23/23
f 24/24/24 26/26/26 25/25/25
f 26/26/26 24/24/24 27/27/27
f 21/21/21 3/3/3 2/2/2
f 2/2/2 22/22/22 21/21/21
f 22/22/22 2/2/2 28/28/28
f 28/28/28 24/24/24 22/22/22
f 24/24/24 28/28/28 29/29/29
f 29/29/29 27/27/27 24/24/24
f 2/2/2 1/1/1 30/30/30
f 2/2/2 30/30/30 31/31/31
f 31/31/31 28/28/28 2/2/2
f 28/28/28 31/31/31 32/32/32
f 32/32/32 29/29/29 28/28/28
