# Exported using wow.export v0.1.64
o mallet01
mtllib mallet01.mtl
v -0.16211777925491333 0.4717811644077301 0.18374082446098328
v -0.05768120288848877 0.29089173674583435 0.18374082446098328
v -0.05768121778964996 0.4114846885204315 0.18374082446098328
v -0.16151724755764008 -0.27039945125579834 -0.05976679548621178
v -0.2072743922472 -0.27039945125579834 0.0194869264960289
v -0.2072743922472 -0.27039945125579834 -0.03334888815879822
v -0.16151723265647888 -0.27039945125579834 0.04590483754873276
v -0.11576007306575775 -0.27039945125579834 0.01948692835867405
v -0.11576007306575775 -0.27039945125579834 -0.033348895609378815
v -0.16211776435375214 0.4717811644077301 -0.19621367752552032
v -0.2665543258190155 0.29089173674583435 -0.19621367752552032
v -0.2665543258190155 0.4114846885204315 -0.19621367752552032
v -0.057681191712617874 0.29089173674583435 -0.19621367752552032
v -0.16211776435375214 0.23059524595737457 -0.19621367752552032
v -0.05768120288848877 0.4114846885204315 -0.19621367752552032
v -0.2072743922472 -0.27039945125579834 0.0194869264960289
v -0.16151723265647888 0.33344677090644836 0.04590483754873276
v -0.2072743922472 0.33344680070877075 0.0194869264960289
v -0.2072743922472 -0.27039945125579834 -0.03334888815879822
v -0.16151723265647888 -0.27039945125579834 0.04590483754873276
v -0.11576007306575775 0.33344677090644836 0.01948692835867405
v -0.11576007306575775 -0.27039945125579834 0.01948692835867405
v -0.11576007306575775 0.33344677090644836 -0.033348895609378815
v -0.11576007306575775 -0.27039945125579834 -0.033348895609378815
v -0.16151723265647888 0.33344677090644836 -0.05976679548621178
v -0.16151724755764008 -0.27039945125579834 -0.05976679548621178
v -0.2072743922472 0.33344680070877075 -0.03334888815879822
v -0.2665543258190155 0.29089173674583435 -0.19621367752552032
v -0.16211777925491333 0.23059524595737457 0.18374082446098328
v -0.2665543556213379 0.29089173674583435 0.18374080955982208
v -0.16211776435375214 0.23059524595737457 -0.19621367752552032
v -0.05768120288848877 0.29089173674583435 0.18374082446098328
v -0.057681191712617874 0.29089173674583435 -0.19621367752552032
v -0.05768121778964996 0.4114846885204315 0.18374082446098328
v -0.05768120288848877 0.4114846885204315 -0.19621367752552032
v -0.16211777925491333 0.4717811644077301 0.18374082446098328
v -0.16211776435375214 0.4717811644077301 -0.19621367752552032
v -0.2665543258190155 0.4114846885204315 0.18374080955982208
v -0.2665543258190155 0.4114846885204315 -0.19621367752552032
v -0.2665543556213379 0.29089173674583435 0.18374080955982208
v -0.16211777925491333 0.23059524595737457 0.18374082446098328
v -0.2665543258190155 0.4114846885204315 0.18374080955982208
vn 0.1143094077706337 0.7187029123306274 0.6858566999435425
vn 0.4795694351196289 -0.5025363564491272 0.7193541526794434
vn 0.8652603626251221 0.36267945170402527 0.3461042046546936
vn -3.612512955442071e-8 -1 0
vn -3.612512955442071e-8 -1 0
vn -3.612512955442071e-8 -1 0
vn -3.612512955442071e-8 -1 0
vn -3.612512955442071e-8 -1 0
vn -3.612512955442071e-8 -1 0
vn -0.11430943757295609 0.7187029123306274 -0.6858566999435425
vn -0.4795694053173065 -0.5025363564491272 -0.7193541526794434
vn -0.8652603626251221 0.3626793920993805 -0.3461042046546936
vn 0.6183106303215027 -0.25916874408721924 -0.7419727444648743
vn 0.14985471963882446 -0.9421878457069397 -0.299709290266037
vn 0.6525954008102417 0.6838487386703491 -0.32629767060279846
vn -0.717866837978363 8.441439214301738e-10 0.6961804032325745
vn -0.15707534551620483 2.5007926285347537e-11 0.9875866174697876
vn -0.9374610781669617 1.4924916857950166e-10 0.34809020161628723
vn -0.9374610185623169 1.4925660707376665e-10 -0.34809020161628723
vn 0.15707528591156006 -2.5007353826600465e-11 0.9875866174697876
vn 0.7178668975830078 -8.441459198316181e-10 0.6961803436279297
vn 0.9374610781669617 -1.4925231883733403e-10 0.34809011220932007
vn 0.9374609589576721 -1.492503065581019e-10 -0.34809035062789917
vn 0.7178667783737183 -1.142932692932419e-10 -0.6961804628372192
vn 0.15707528591156006 -2.5007997409010052e-11 -0.9875866174697876
vn -0.15707531571388245 2.5007319132130945e-11 -0.9875866174697876
vn -0.717866837978363 1.1429097251935971e-10 -0.6961804032325745
vn -0.4795694053173065 -0.5025363564491272 -0.7193541526794434
vn -0.1498546153306961 -0.9421878457069397 0.299709290266037
vn -0.6183106303215027 -0.2591687738895416 0.7419726848602295
vn 0.14985471963882446 -0.9421878457069397 -0.299709290266037
vn 0.4795694351196289 -0.5025363564491272 0.7193541526794434
vn 0.6183106303215027 -0.25916874408721924 -0.7419727444648743
vn 0.8652603626251221 0.36267945170402527 0.3461042046546936
vn 0.6525954008102417 0.6838487386703491 -0.32629767060279846
vn 0.1143094077706337 0.7187029123306274 0.6858566999435425
vn -0.11430943757295609 0.7187029123306274 -0.6858566999435425
vn -0.6525953412055969 0.6838487386703491 0.32629767060279846
vn -0.8652603626251221 0.3626793920993805 -0.3461042046546936
vn -0.6183106303215027 -0.2591687738895416 0.7419726848602295
vn -0.1498546153306961 -0.9421878457069397 0.299709290266037
vn -0.6525953412055969 0.6838487386703491 0.32629767060279846
vt 0.867149829864502 0.9928701519966125
vt 0.7704148292541504 0.8477677702903748
vt 0.7704148888587952 0.9445027709007263
vt 5.605193857299268e-45 0
vt 1.3452465257518244e-43 0
vt 1.401298464324817e-45 0
vt 1.1210387714598537e-44 0
vt 0 0
vt 1.3452465257518244e-43 0
vt 0.8671497702598572 0.9928701519966125
vt 0.9638846516609192 0.8477677702903748
vt 0.9638846516609192 0.9445027112960815
vt 0.7704148292541504 0.8477677702903748
vt 0.8671497702598572 0.799400269985199
vt 0.7704148292541504 0.9445027709007263
vt 0.6575520634651184 0.0004994869232177734
vt 0.629114031791687 0.9995005130767822
vt 0.6575522422790527 0.9995005130767822
vt 0.7144284844398499 0.000499427318572998
vt 0.6291139125823975 0.0004994869232177734
vt 0.6575522422790527 0.9995005130767822
vt 0.6575520634651184 0.0004994869232177734
vt 0.7144286632537842 0.9995005130767822
vt 0.7144284844398499 0.000499427318572998
vt 0.7428668141365051 0.9995005130767822
vt 0.7428667545318604 0.000499427318572998
vt 0.7144286632537842 0.9995005130767822
vt 0.9320847392082214 0.7795491814613342
vt 0.9921886920928955 0.5054748058319092
vt 0.9320847392082214 0.505474865436554
vt 0.9921888113021851 0.7795491814613342
vt 0.9320847392082214 0.5054748058319092
vt 0.9320847392082214 0.7795491814613342
vt 0.811876654624939 0.505474865436554
vt 0.8118767142295837 0.7795491814613342
vt 0.7517726421356201 0.505474865436554
vt 0.7517727017402649 0.7795491814613342
vt 0.811876654624939 0.505474865436554
vt 0.8118767142295837 0.7795491814613342
vt 0.9638846516609192 0.8477677702903748
vt 0.8671497702598572 0.799400269985199
vt 0.963884711265564 0.9445027112960815
g Geoset0
s 1
usemtl mat_toolbox01
f 1/1/1 2/2/2 3/3/3
f 4/4/4 5/5/5 6/6/6
f 4/4/4 7/7/7 5/5/5
f 4/4/4 8/8/8 7/7/7
f 4/4/4 9/9/9 8/8/8
f 10/10/10 11/11/11 12/12/12
f 11/11/11 13/13/13 14/14/14
f 10/10/10 13/13/13 11/11/11
f 10/10/10 15/15/15 13/13/13
f 16/16/16 17/17/17 18/18/18
f 19/19/19 16/16/16 18/18/18
f 16/16/16 20/20/20 17/17/17
f 20/20/20 21/21/21 17/17/17
f 20/20/20 22/22/22 21/21/21
f 22/22/22 23/23/23 21/21/21
f 22/22/22 24/24/24 23/23/23
f 24/24/24 25/25/25 23/23/23
f 24/24/24 26/26/26 25/25/25
f 26/26/26 27/27/27 25/25/25
f 26/26/26 19/19/19 27/27/27
f 19/19/19 18/18/18 27/27/27
f 28/28/28 29/29/29 30/30/30
f 28/28/28 31/31/31 29/29/29
f 31/31/31 32/32/32 29/29/29
f 31/31/31 33/33/33 32/32/32
f 33/33/33 34/34/34 32/32/32
f 33/33/33 35/35/35 34/34/34
f 35/35/35 36/36/36 34/34/34
f 35/35/35 37/37/37 36/36/36
f 37/37/37 38/38/38 36/36/36
f 37/37/37 39/39/39 38/38/38
f 39/39/39 30/30/30 38/38/38
f 39/39/39 28/28/28 30/30/30
f 2/2/2 40/40/40 41/41/41
f 1/1/1 40/40/40 2/2/2
f 1/1/1 42/42/42 40/40/40
