# Exported using wow.export v0.1.64
o borean_geyser_02
mtllib borean_geyser_02.mtl
v 0.09368302673101425 3.656423330307007 -0.10860823839902878
v -0.3189748227596283 3.656423807144165 -0.34685638546943665
v -0.46494361758232117 4.11516809463501 0.12963983416557312
v 1.8002945184707642 1.2585132122039795 -1.1781954765319824
v 3.2023205757141113 -0.4304806590080261 1.770439624786377
v 3.2023208141326904 -0.4304806590080261 -1.9876556396484375
v 1.8002938032150269 1.2585132122039795 0.960979163646698
v 1.193435549736023 2.6876676082611084 -0.8278256058692932
v 1.193435549736023 2.6876676082611084 0.6106093525886536
v 1.1321730613708496 3.8523592948913574 -0.48745325207710266
v 0.9445990324020386 4.087104320526123 0.4231080114841461
v 0.9474607110023499 4.327542304992676 -0.33522942662239075
v 0.7598872184753418 4.3994832038879395 0.27088412642478943
v 0.4908466935157776 3.5535976886749268 -0.1921541839838028
v 0.36037197709083557 3.3376848697662354 0.1296398639678955
v -0.052285484969615936 -0.43048095703125 3.649487018585205
v -0.052285511046648026 1.25851309299469 2.0305662155151367
v -0.05228571593761444 2.6876676082611084 1.329826831817627
v -0.08665269613265991 4.7997002601623535 0.9548241496086121
v -0.01791890524327755 5.039403915405273 0.6503763794898987
v -0.05228579789400101 4.11516809463501 0.3678880035877228
v -3.3068909645080566 -0.4304812550544739 1.7704390287399292
v -1.9048649072647095 1.2585126161575317 0.9609787464141846
v -1.2980070114135742 2.8280587196350098 0.6106090545654297
v -0.9719355702400208 4.9189133644104 0.423107773065567
v -0.649756133556366 5.125779628753662 0.2708839476108551
v -0.46494361758232117 4.11516809463501 0.12963983416557312
v -3.3068907260894775 -0.4304812550544739 -1.9876562356948853
v -1.9048646688461304 1.485337257385254 -1.178195595741272
v -1.2980066537857056 3.2208898067474365 -0.8278258442878723
v -0.8322852253913879 4.8841166496276855 -0.6403245329856873
v -0.5908029079437256 5.1192708015441895 -0.48810064792633057
v -0.3189748227596283 3.656423807144165 -0.34685638546943665
v -0.05228515714406967 -0.43048095703125 -3.8667030334472656
v -0.0522853247821331 1.2585126161575317 -2.2477827072143555
v -0.05228558927774429 2.6876676082611084 -1.547042965888977
v -0.03847460448741913 4.72949743270874 -1.1720404624938965
v 0.030259182676672935 4.8371758460998535 -0.8675927519798279
v -0.05228577181696892 3.337684392929077 -0.5851043462753296
v -0.05228577181696892 3.337684392929077 -0.5851043462753296
v 0.4908466935157776 3.5535976886749268 -0.1921541839838028
v 0.36037197709083557 3.3376848697662354 0.1296398639678955
v -0.05228579789400101 4.11516809463501 0.3678880035877228
vn 0.4715021252632141 0.7943416237831116 -0.3830237090587616
vn 0.34275761246681213 0.7280582785606384 -0.593673586845398
vn 0.34334439039230347 0.7269515991210938 -0.5946897864341736
vn 0.6944961547851562 0.5974111557006836 -0.4009675681591034
vn 0.62520432472229 0.691972553730011 0.3609619736671448
vn 0.6252042651176453 0.6919726133346558 -0.3609619140625
vn 0.6944960951805115 0.5974111557006836 0.40096765756607056
vn 0.8154882788658142 0.3123123347759247 -0.487278014421463
vn 0.8101682662963867 0.3261358439922333 0.4870963394641876
vn 0.9003269076347351 0.28550752997398376 -0.32847660779953003
vn 0.7993331551551819 0.34778907895088196 0.49000948667526245
vn 0.4157179594039917 0.9077996015548706 -0.055483993142843246
vn 0.3069304823875427 0.926449716091156 -0.21790951490402222
vn -0.8531678318977356 0.4769974648952484 0.21113519370555878
vn -0.7119945883750916 0.37415584921836853 -0.5941978693008423
vn -1.0768363978286288e-7 0.6919726133346558 0.7219237685203552
vn -1.6664940005739481e-7 0.597411036491394 0.8019351959228516
vn 0.01385561004281044 0.32841694355010986 0.9444312453269958
vn 0.08778472244739532 0.4839809536933899 0.8706642985343933
vn 0.40253928303718567 0.9147905111312866 -0.03347296640276909
vn 0.206608384847641 0.27133655548095703 -0.940047562122345
vn -0.6252045035362244 0.6919724941253662 0.36096182465553284
vn -0.6959013938903809 0.5822129845619202 0.42041558027267456
vn -0.8049198389053345 0.30001142621040344 0.5119543075561523
vn -0.7376631498336792 0.5449614524841309 0.39858511090278625
vn 0.11539921164512634 0.9931015372276306 -0.020794259384274483
vn 0.9178001880645752 0.2284020334482193 -0.3247695863246918
vn -0.6574589610099792 0.6577978134155273 -0.3674911558628082
vn -0.734343945980072 0.5474705696105957 -0.4012667238712311
vn -0.8153501749038696 0.314327210187912 -0.4862124025821686
vn -0.6936188340187073 0.5209340453147888 -0.49751442670822144
vn 0.13698485493659973 0.9899466633796692 -0.035225145518779755
vn 0.8036092519760132 0.1400688886642456 0.5784400701522827
vn 0.010695602744817734 0.6794188022613525 -0.7336727380752563
vn 0.03996044769883156 0.5924597382545471 -0.8046083450317383
vn 0.06365355104207993 0.3474109172821045 -0.9355500340461731
vn 0.1236976608633995 0.5516318082809448 -0.824864387512207
vn 0.5504262447357178 0.8141947388648987 0.1847103387117386
vn 0.023302270099520683 0.28113847970962524 0.9593842625617981
vn 0.240061953663826 0.7712912559509277 -0.5894743800163269
vn 0.26999810338020325 0.9570509195327759 0.10561490058898926
vn 0.6352307796478271 0.7267881631851196 0.26126769185066223
vn 0.49735867977142334 0.6960811614990234 -0.5177889466285706
vt 0.5000000596046448 0.5
vt 0.5289978981018066 0.4420042634010315
vt 0.47100216150283813 0.4420042634010315
vt 0.704947829246521 0.9098954200744629
vt 0.17385463416576385 1.1522910594940186
vt 0.8261457681655884 1.152290940284729
vt 0.2950524389743805 0.9098954200744629
vt 0.6295792460441589 0.759158194065094
vt 0.3704209625720978 0.759158194065094
vt 0.5611110925674438 0.6222220659255981
vt 0.43888914585113525 0.6222220659255981
vt 0.5409404635429382 0.5818807482719421
vt 0.4590596556663513 0.5818807482719421
vt 0.5289978981018066 0.5579957365989685
vt 0.4710021913051605 0.5579957365989685
vt -0.15229104459285736 0.5000002384185791
vt 0.09010463953018188 0.5000001192092896
vt 0.2408418357372284 0.5000001192092896
vt 0.37777817249298096 0.5000000596046448
vt 0.41811928153038025 0.5000000596046448
vt 0.44200432300567627 0.5
vt 0.17385448515415192 -0.152290940284729
vt 0.29505231976509094 0.09010475873947144
vt 0.3704209327697754 0.24084186553955078
vt 0.43888914585113525 0.3777781128883362
vt 0.4590596556663513 0.41811925172805786
vt 0.47100216150283813 0.4420042634010315
vt 0.8261455297470093 -0.15229105949401855
vt 0.7049477100372314 0.09010463953018188
vt 0.6295791864395142 0.24084186553955078
vt 0.5611110329627991 0.3777781128883362
vt 0.5409404635429382 0.41811925172805786
vt 0.5289978981018066 0.4420042634010315
vt 1.1522910594940186 0.49999988079071045
vt 0.9098953604698181 0.4999999403953552
vt 0.7591582536697388 0.4999999403953552
vt 0.6222220659255981 0.5
vt 0.5818808674812317 0.5
vt 0.5579957962036133 0.4999999403953552
vt 0.5579957962036133 0.4999999403953552
vt 0.5289978981018066 0.5579957365989685
vt 0.4710021913051605 0.5579957365989685
vt 0.44200432300567627 0.5
g Geoset0
s 1
usemtl mat_borean_geyser_02
f 1/1/1 2/2/2 3/3/3
f 4/4/4 5/5/5 6/6/6
f 4/4/4 7/7/7 5/5/5
f 8/8/8 7/7/7 4/4/4
f 8/8/8 9/9/9 7/7/7
f 10/10/10 9/9/9 8/8/8
f 10/10/10 11/11/11 9/9/9
f 12/12/12 11/11/11 10/10/10
f 12/12/12 13/13/13 11/11/11
f 14/14/14 13/13/13 12/12/12
f 14/14/14 15/15/15 13/13/13
f 7/7/7 16/16/16 5/5/5
f 7/7/7 17/17/17 16/16/16
f 9/9/9 17/17/17 7/7/7
f 9/9/9 18/18/18 17/17/17
f 11/11/11 18/18/18 9/9/9
f 11/11/11 19/19/19 18/18/18
f 13/13/13 19/19/19 11/11/11
f 13/13/13 20/20/20 19/19/19
f 15/15/15 20/20/20 13/13/13
f 15/15/15 21/21/21 20/20/20
f 17/17/17 22/22/22 16/16/16
f 17/17/17 23/23/23 22/22/22
f 18/18/18 23/23/23 17/17/17
f 18/18/18 24/24/24 23/23/23
f 19/19/19 24/24/24 18/18/18
f 19/19/19 25/25/25 24/24/24
f 20/20/20 25/25/25 19/19/19
f 20/20/20 26/26/26 25/25/25
f 21/21/21 26/26/26 20/20/20
f 21/21/21 27/27/27 26/26/26
f 23/23/23 28/28/28 22/22/22
f 23/23/23 29/29/29 28/28/28
f 24/24/24 29/29/29 23/23/23
f 24/24/24 30/30/30 29/29/29
f 25/25/25 30/30/30 24/24/24
f 25/25/25 31/31/31 30/30/30
f 26/26/26 31/31/31 25/25/25
f 26/26/26 32/32/32 31/31/31
f 27/27/27 32/32/32 26/26/26
f 27/27/27 33/33/33 32/32/32
f 29/29/29 34/34/34 28/28/28
f 29/29/29 35/35/35 34/34/34
f 30/30/30 35/35/35 29/29/29
f 30/30/30 36/36/36 35/35/35
f 31/31/31 36/36/36 30/30/30
f 31/31/31 37/37/37 36/36/36
f 32/32/32 37/37/37 31/31/31
f 32/32/32 38/38/38 37/37/37
f 33/33/33 38/38/38 32/32/32
f 33/33/33 39/39/39 38/38/38
f 35/35/35 6/6/6 34/34/34
f 35/35/35 4/4/4 6/6/6
f 36/36/36 4/4/4 35/35/35
f 36/36/36 8/8/8 4/4/4
f 37/37/37 8/8/8 36/36/36
f 37/37/37 10/10/10 8/8/8
f 38/38/38 10/10/10 37/37/37
f 38/38/38 12/12/12 10/10/10
f 39/39/39 12/12/12 38/38/38
f 39/39/39 14/14/14 12/12/12
f 1/1/1 40/40/40 2/2/2
f 1/1/1 41/41/41 40/40/40
f 1/1/1 42/42/42 41/41/41
f 1/1/1 43/43/43 42/42/42
f 1/1/1 3/3/3 43/43/43
