# Exported using wow.export v0.1.64
o borean_geysersteam
mtllib borean_geysersteam.mtl
v -1.5137678384780884 0.732451319694519 1.4492708444595337
v -1.1620954275131226 0.732451319694519 1.599352478981018
v -1.1620954275131226 1.094780445098877 1.4492708444595337
v -0.9134254455566406 1.094780445098877 1.3431471586227417
v -0.8104230165481567 0.732451319694519 1.4492708444595337
v -0.8104230761528015 1.094780445098877 1.0869417190551758
v -0.664755642414093 0.732451319694519 1.0869418382644653
v -0.9134254455566406 1.094780445098877 0.8307363986968994
v -0.8104230165481567 0.732451319694519 0.7246126532554626
v -1.1620954275131226 1.094780445098877 0.7246127128601074
v -1.1620954275131226 0.732451319694519 0.5745310187339783
v -1.410765290260315 1.094780445098877 0.8307363986968994
v -1.1620954275131226 1.2448620796203613 1.0869417190551758
v -1.5137678384780884 1.094780445098877 1.0869417190551758
v -1.410765290260315 1.094780445098877 1.3431471586227417
v -1.5137678384780884 0.732451319694519 0.7246126532554626
v -1.6594352722167969 0.732451319694519 1.0869418382644653
v 0.4351562559604645 0.732451319694519 -0.5856520533561707
v 0.08348391205072403 0.732451319694519 -0.7357338070869446
v 0.08348391205072403 1.094780445098877 -0.5856520533561707
v 0.5808237791061401 0.732451319694519 -0.22332297265529633
v 0.3321538269519806 1.094780445098877 -0.4795283377170563
v 0.4351562559604645 1.094780445098877 -0.22332297265529633
v 0.4351562559604645 0.732451319694519 0.139006108045578
v 0.3321538269519806 1.094780445098877 0.03288239985704422
v 0.08348391205072403 0.732451319694519 0.28908777236938477
v 0.08348391205072403 1.094780445098877 0.139006108045578
v -0.2681884467601776 0.732451319694519 0.139006108045578
v -0.16518601775169373 1.094780445098877 0.03288239985704422
v -0.4138559401035309 0.732451319694519 -0.22332297265529633
v -0.2681884467601776 1.094780445098877 -0.22332297265529633
v 0.08348391205072403 1.2448620796203613 -0.22332297265529633
v -0.16518601775169373 1.094780445098877 -0.4795283377170563
v -0.2681884467601776 0.732451319694519 -0.5856520533561707
v 0.2398892194032669 0.732451319694519 -0.811119019985199
v 0.464899480342865 0.732451319694519 -0.8194134831428528
v 0.43066805601119995 0.9458195567131042 -0.8994939923286438
v 0.6214469075202942 0.732451319694519 -0.9878688454627991
v 0.5413638353347778 0.9458195567131042 -1.018609881401062
v 0.3480261266231537 1.034199595451355 -1.0928252935409546
v 0.27156177163124084 0.9458195567131042 -0.8936288952827454
v 0.15724731981754303 0.9458195567131042 -1.0044504404067993
v 0.5388049483299255 0.9458195567131042 -1.1812001466751099
v 0.6178281903266907 0.732451319694519 -1.217806339263916
v 0.4244905412197113 0.9458195567131042 -1.2920217514038086
v 0.45616307854652405 0.732451319694519 -1.3745315074920654
v 0.2653842568397522 0.9458195567131042 -1.2861565351486206
v 0.15468847751617432 0.9458195567131042 -1.1670405864715576
v 0.23115283250808716 0.732451319694519 -1.3662370443344116
v 0.07460541278123856 0.732451319694519 -1.1977816820144653
v 0.07822412997484207 0.732451319694519 -0.9678444266319275
v 0.4710504710674286 0.732451319694519 0.8410311341285706
v 0.6163023710250854 0.732451319694519 1.1985442638397217
v 0.7252052426338196 1.0981303453445435 1.0964746475219727
v 0.9793599247932434 0.732451319694519 1.35191810131073
v 0.9819256663322449 1.0981303453445435 1.2049263715744019
v 0.9881200790405273 1.2495996952056885 0.8500565886497498
v 0.6224966645240784 1.0981303453445435 0.8436746597290039
v 0.7339652180671692 1.0981303453445435 0.5946130752563477
v 1.2422747611999512 1.0981303453445435 1.1055001020431519
v 1.3475490808486938 0.732451319694519 1.2113083600997925
v 1.353743314743042 1.0981303453445435 0.8564386367797852
v 1.5051895380020142 0.732451319694519 0.8590821027755737
v 1.2510347366333008 1.0981303453445435 0.6036385297775269
v 0.9943143129348755 1.0981303453445435 0.49518686532974243
v 1.3599376678466797 0.732451319694519 0.5015689134597778
v 0.9968799948692322 0.732451319694519 0.34819504618644714
v 0.6286909580230713 0.732451319694519 0.48880481719970703
v -0.029209746047854424 0.732451319694519 1.0721685886383057
v 0.05920422077178955 0.732451319694519 1.034436583518982
v 0.033308371901512146 0.8235445022583008 1.007755994796753
v 0.09582648426294327 0.732451319694519 0.943343460559845
v 0.05920422077178955 0.8235445022583008 0.9433434009552002
v -0.029209746047854424 0.8612764477729797 0.9433434009552002
v -0.029209746047854424 0.8235445022583008 1.034436583518982
v -0.0917278602719307 0.8235445022583008 1.007755994796753
v 0.033308371901512146 0.8235445022583008 0.8789308071136475
v 0.05920422077178955 0.732451319694519 0.8522502183914185
v -0.029209746047854424 0.8235445022583008 0.8522501587867737
v -0.029209746047854424 0.732451319694519 0.8145182132720947
v -0.0917278602719307 0.8235445022583008 0.8789308071136475
v -0.1176237165927887 0.8235445022583008 0.9433434009552002
v -0.1176237240433693 0.732451319694519 0.8522502183914185
v -0.154245987534523 0.732451319694519 0.943343460559845
v -0.1176237240433693 0.732451319694519 1.034436583518982
v -0.9862203598022461 0.732451319694519 -0.005415784195065498
v -0.81830233335495 0.732451319694519 -0.011605673469603062
v -0.8438481688499451 0.8916813731193542 -0.07136721163988113
v -0.7014759182929993 0.732451319694519 -0.13731864094734192
v -0.7612393498420715 0.8916813731193542 -0.1602596938610077
v -0.9055210947990417 0.9576366543769836 -0.21564431488513947
v -0.9625841975212097 0.8916813731193542 -0.06699031591415405
v -1.0478934049606323 0.8916813731193542 -0.14969290792942047
v -0.7631489634513855 0.8916813731193542 -0.28159576654434204
v -0.7041763663291931 0.732451319694519 -0.3089137077331543
v -0.8484582901000977 0.8916813731193542 -0.36429834365844727
v -0.8248220682144165 0.732451319694519 -0.42587289214134216
v -0.9671943783760071 0.8916813731193542 -0.3599214255809784
v -1.0498030185699463 0.8916813731193542 -0.27102896571159363
v -0.9927400946617126 0.732451319694519 -0.41968297958374023
v -1.109566569328308 0.732451319694519 -0.2939700484275818
v -1.1068660020828247 0.732451319694519 -0.12237494438886642
vn -0.6602308750152588 0.3778117001056671 0.6491174697875977
vn 0 0.3826834261417389 0.9238795638084412
vn -3.467385312205806e-8 0.6619265079498291 0.7495687007904053
vn 0.5377877950668335 0.6593009829521179 0.5254583954811096
vn 0.6602308750152588 0.3778117001056671 0.6491174697875977
vn 0.7541788220405579 0.6566690802574158 0
vn 0.9278255105018616 0.3730144500732422 -5.000572045332774e-8
vn 0.5377877950668335 0.6593009233474731 -0.5254584550857544
vn 0.6602308750152588 0.3778117001056671 -0.6491174697875977
vn 3.467385312205806e-8 0.6619265079498291 -0.7495687007904053
vn 0 0.3826834261417389 -0.9238795638084412
vn -0.5377877950668335 0.6593009829521179 -0.5254583954811096
vn 4.257422858700011e-9 1 0
vn -0.7541788220405579 0.6566690802574158 0
vn -0.5377877950668335 0.6593009233474731 0.5254584550857544
vn -0.6602308750152588 0.3778117001056671 -0.6491174697875977
vn -0.9278255105018616 0.3730144500732422 5.000572045332774e-8
vn 0.6602308750152588 0.3778117001056671 -0.6491174697875977
vn 0 0.3826834261417389 -0.9238795638084412
vn 3.467385312205806e-8 0.6619265079498291 -0.7495687007904053
vn 0.9278255105018616 0.3730144500732422 -5.000572045332774e-8
vn 0.5377877950668335 0.6593009233474731 -0.5254584550857544
vn 0.7541788220405579 0.6566690802574158 0
vn 0.6602308750152588 0.3778117001056671 0.6491174697875977
vn 0.5377877950668335 0.6593009829521179 0.5254583954811096
vn 0 0.3826834261417389 0.9238795638084412
vn -3.467385312205806e-8 0.6619265079498291 0.7495687007904053
vn -0.6602308750152588 0.3778117001056671 0.6491174697875977
vn -0.5377877950668335 0.6593009233474731 0.5254584550857544
vn -0.9278255105018616 0.3730144500732422 5.000572045332774e-8
vn -0.7541788220405579 0.6566690802574158 0
vn 4.257422858700011e-9 1 0
vn -0.5377877950668335 0.6593009829521179 -0.5254583954811096
vn -0.6602308750152588 0.3778117001056671 -0.6491174697875977
vn -0.3310889005661011 0.38268351554870605 0.8625157475471497
vn 0.383755624294281 0.3778117895126343 0.8426089882850647
vn 0.3137606084346771 0.6593010425567627 0.6832835078239441
vn 0.8661996722221375 0.37301453948020935 0.33250299096107483
vn 0.7040864825248718 0.6566691994667053 0.2702735662460327
vn 3.974645945703514e-9 1 1.5257241026134238e-9
vn -0.2686214745044708 0.6619266271591187 0.6997826099395752
vn -0.690375566482544 0.6593009829521179 0.2978317141532898
vn 0.690375566482544 0.6593009829521179 -0.2978317141532898
vn 0.8490015268325806 0.3778117597103119 -0.36939769983291626
vn 0.2686214745044708 0.6619266271591187 -0.6997826099395752
vn 0.3310889005661011 0.38268351554870605 -0.8625157475471497
vn -0.3137606084346771 0.6593010425567627 -0.6832835078239441
vn -0.7040864825248718 0.6566691994667053 -0.2702735662460327
vn -0.383755624294281 0.3778117895126343 -0.8426089882850647
vn -0.8661996722221375 0.37301453948020935 -0.33250299096107483
vn -0.8490015268325806 0.3778117597103119 0.36939769983291626
vn -0.9237388372421265 0.3826834261417389 -0.01612398773431778
vn -0.6605412364006042 0.3778117001056671 0.6488016247749329
vn -0.5347640514373779 0.6593009829521179 0.5285353064537048
vn -0.016192805022001266 0.3730144500732422 0.9276842474937439
vn -0.013162289746105671 0.6566690802574158 0.7540639638900757
vn -7.430257797924611e-11 1 4.25677448845363e-9
vn -0.7494545578956604 0.6619265079498291 -0.013081866316497326
vn -0.5159927010536194 0.6593009233474731 -0.5468764305114746
vn 0.5159927010536194 0.6593009233474731 0.5468764305114746
vn 0.6374959349632263 0.3778117001056671 0.6714590191841125
vn 0.7494545578956604 0.6619265079498291 0.013081866316497326
vn 0.9237388372421265 0.3826834261417389 0.01612398773431778
vn 0.5347640514373779 0.6593009829521179 -0.5285353064537048
vn 0.013162289746105671 0.6566690802574158 -0.7540639638900757
vn 0.6605412364006042 0.3778117001056671 -0.6488016247749329
vn 0.016192805022001266 0.3730144500732422 -0.9276842474937439
vn -0.6374959349632263 0.3778117001056671 -0.6714590191841125
vn 0 0.3826834261417389 0.9238795042037964
vn 0.6602308750152588 0.3778117001056671 0.6491174697875977
vn 0.5377877950668335 0.6593009829521179 0.5254583954811096
vn 0.9278255105018616 0.3730144500732422 -5.000572045332774e-8
vn 0.7541788220405579 0.6566690802574158 0
vn 4.257422858700011e-9 1 0
vn -3.467385312205806e-8 0.6619265079498291 0.7495687007904053
vn -0.5377877950668335 0.6593009233474731 0.5254584550857544
vn 0.5377877950668335 0.6593009233474731 -0.5254584550857544
vn 0.6602308750152588 0.3778117001056671 -0.6491174697875977
vn 3.467385312205806e-8 0.6619265079498291 -0.7495687007904053
vn 0 0.3826834261417389 -0.9238795042037964
vn -0.5377877950668335 0.6593009829521179 -0.5254583954811096
vn -0.7541788220405579 0.6566690802574158 0
vn -0.6602308750152588 0.3778117001056671 -0.6491174697875977
vn -0.9278255105018616 0.3730144500732422 5.000572045332774e-8
vn -0.6602308750152588 0.3778117001056671 0.6491174697875977
vn -0.3310889005661011 0.3826834559440613 0.8625158071517944
vn 0.383755624294281 0.3778117597103119 0.8426089882850647
vn 0.3137606084346771 0.6593010425567627 0.6832835674285889
vn 0.8661997318267822 0.3730144798755646 0.33250299096107483
vn 0.7040865421295166 0.6566691398620605 0.2702735960483551
vn 3.974645945703514e-9 1 1.5257241026134238e-9
vn -0.2686214745044708 0.6619265675544739 0.6997826099395752
vn -0.6903756260871887 0.6593009829521179 0.2978317439556122
vn 0.6903756260871887 0.6593009829521179 -0.2978317439556122
vn 0.8490015268325806 0.3778117597103119 -0.36939767003059387
vn 0.2686214745044708 0.6619265675544739 -0.6997826099395752
vn 0.3310889005661011 0.3826834559440613 -0.8625158071517944
vn -0.3137606084346771 0.6593010425567627 -0.6832835674285889
vn -0.7040865421295166 0.6566691398620605 -0.2702735960483551
vn -0.383755624294281 0.3778117597103119 -0.8426089882850647
vn -0.8661997318267822 0.3730144798755646 -0.33250299096107483
vn -0.8490015268325806 0.3778117597103119 0.36939767003059387
vt 0.31212761998176575 0.8454394340515137
vt 0.23430824279785156 0.8454394340515137
vt 0.31212759017944336 1.221184253692627
vt 0.3671540915966034 1.221184253692627
vt 0.3121275305747986 0.8454394340515137
vt 0.4999999701976776 1.221184253692627
vt 0.4999999403953552 0.8454394340515137
vt 0.6328458786010742 1.221184253692627
vt 0.6878724098205566 0.8454394340515137
vt 0.6878724098205566 1.221184253692627
vt 0.7656917572021484 0.8454394340515137
vt 0.6328458786010742 1.221184253692627
vt 0.5 1.3768229484558105
vt 0.5000000596046448 1.221184253692627
vt 0.36715415120124817 1.221184253692627
vt 0.6878724694252014 0.8454394340515137
vt 0.5000000596046448 0.8454394340515137
vt 0.6878724098205566 0.8454394340515137
vt 0.7656917572021484 0.8454394340515137
vt 0.6878724098205566 1.221184253692627
vt 0.4999999403953552 0.8454394340515137
vt 0.6328458786010742 1.221184253692627
vt 0.4999999701976776 1.221184253692627
vt 0.3121275305747986 0.8454394340515137
vt 0.3671540915966034 1.221184253692627
vt 0.23430824279785156 0.8454394340515137
vt 0.31212759017944336 1.221184253692627
vt 0.31212761998176575 0.8454394340515137
vt 0.36715415120124817 1.221184253692627
vt 0.5000000596046448 0.8454394340515137
vt 0.5000000596046448 1.221184253692627
vt 0.5 1.3768229484558105
vt 0.6328458786010742 1.221184253692627
vt 0.6878724694252014 0.8454394340515137
vt 0.23430824279785156 0.8454394340515137
vt 0.3121275305747986 0.8454394340515137
vt 0.3671540915966034 1.221184253692627
vt 0.4999999403953552 0.8454394340515137
vt 0.4999999701976776 1.221184253692627
vt 0.5 1.3768229484558105
vt 0.31212759017944336 1.221184253692627
vt 0.36715415120124817 1.221184253692627
vt 0.6328458786010742 1.221184253692627
vt 0.6878724098205566 0.8454394340515137
vt 0.6878724098205566 1.221184253692627
vt 0.7656917572021484 0.8454394340515137
vt 0.6328458786010742 1.221184253692627
vt 0.5000000596046448 1.221184253692627
vt 0.6878724694252014 0.8454394340515137
vt 0.5000000596046448 0.8454394340515137
vt 0.31212761998176575 0.8454394340515137
vt 0.23430824279785156 0.8454394340515137
vt 0.3121275305747986 0.8454394340515137
vt 0.3671540915966034 1.221184253692627
vt 0.4999999403953552 0.8454394340515137
vt 0.4999999701976776 1.221184253692627
vt 0.5 1.3768229484558105
vt 0.31212759017944336 1.221184253692627
vt 0.36715415120124817 1.221184253692627
vt 0.6328458786010742 1.221184253692627
vt 0.6878724098205566 0.8454394340515137
vt 0.6878724098205566 1.221184253692627
vt 0.7656917572021484 0.8454394340515137
vt 0.6328458786010742 1.221184253692627
vt 0.5000000596046448 1.221184253692627
vt 0.6878724694252014 0.8454394340515137
vt 0.5000000596046448 0.8454394340515137
vt 0.31212761998176575 0.8454394340515137
vt 0.23430824279785156 0.8454394340515137
vt 0.3121275305747986 0.8454394340515137
vt 0.3671540915966034 1.221184253692627
vt 0.4999999403953552 0.8454394340515137
vt 0.4999999701976776 1.221184253692627
vt 0.5 1.3768229484558105
vt 0.31212759017944336 1.221184253692627
vt 0.36715415120124817 1.221184253692627
vt 0.6328458786010742 1.221184253692627
vt 0.6878724098205566 0.8454394340515137
vt 0.6878724098205566 1.221184253692627
vt 0.7656917572021484 0.8454394340515137
vt 0.6328458786010742 1.221184253692627
vt 0.5000000596046448 1.221184253692627
vt 0.6878724694252014 0.8454394340515137
vt 0.5000000596046448 0.8454394340515137
vt 0.31212761998176575 0.8454394340515137
vt 0.23430824279785156 0.8454394340515137
vt 0.3121275305747986 0.8454394340515137
vt 0.3671540915966034 1.221184253692627
vt 0.4999999403953552 0.8454394340515137
vt 0.4999999701976776 1.221184253692627
vt 0.5 1.3768229484558105
vt 0.31212759017944336 1.221184253692627
vt 0.36715415120124817 1.221184253692627
vt 0.6328458786010742 1.221184253692627
vt 0.6878724098205566 0.8454394340515137
vt 0.6878724098205566 1.221184253692627
vt 0.7656917572021484 0.8454394340515137
vt 0.6328458786010742 1.221184253692627
vt 0.5000000596046448 1.221184253692627
vt 0.6878724694252014 0.8454394340515137
vt 0.5000000596046448 0.8454394340515137
vt 0.31212761998176575 0.8454394340515137
g Geoset0
s 1
usemtl mat_borean_bubbles_02
f 1/1/1 2/2/2 3/3/3
f 2/2/2 4/4/4 3/3/3
f 2/2/2 5/5/5 4/4/4
f 5/5/5 6/6/6 4/4/4
f 5/5/5 7/7/7 6/6/6
f 7/7/7 8/8/8 6/6/6
f 7/7/7 9/9/9 8/8/8
f 9/9/9 10/10/10 8/8/8
f 9/9/9 11/11/11 10/10/10
f 11/11/11 12/12/12 10/10/10
f 13/13/13 6/6/6 8/8/8
f 13/13/13 8/8/8 10/10/10
f 13/13/13 10/10/10 12/12/12
f 13/13/13 14/14/14 15/15/15
f 13/13/13 12/12/12 14/14/14
f 11/11/11 16/16/16 12/12/12
f 16/16/16 14/14/14 12/12/12
f 16/16/16 17/17/17 14/14/14
f 17/17/17 15/15/15 14/14/14
f 17/17/17 1/1/1 15/15/15
f 1/1/1 3/3/3 15/15/15
f 13/13/13 15/15/15 3/3/3
f 13/13/13 3/3/3 4/4/4
f 13/13/13 4/4/4 6/6/6
f 18/18/18 19/19/19 20/20/20
f 21/21/21 18/18/18 22/22/22
f 21/21/21 22/22/22 23/23/23
f 24/24/24 21/21/21 23/23/23
f 24/24/24 23/23/23 25/25/25
f 26/26/26 24/24/24 25/25/25
f 26/26/26 25/25/25 27/27/27
f 28/28/28 26/26/26 27/27/27
f 28/28/28 27/27/27 29/29/29
f 30/30/30 28/28/28 29/29/29
f 30/30/30 29/29/29 31/31/31
f 32/32/32 29/29/29 27/27/27
f 32/32/32 27/27/27 25/25/25
f 32/32/32 20/20/20 33/33/33
f 32/32/32 33/33/33 31/31/31
f 32/32/32 31/31/31 29/29/29
f 34/34/34 30/30/30 31/31/31
f 34/34/34 31/31/31 33/33/33
f 19/19/19 34/34/34 33/33/33
f 19/19/19 33/33/33 20/20/20
f 32/32/32 25/25/25 23/23/23
f 32/32/32 23/23/23 22/22/22
f 32/32/32 22/22/22 20/20/20
f 18/18/18 20/20/20 22/22/22
g Geoset1
s 1
usemtl mat_borean_bubbles_02
f 35/35/35 36/36/36 37/37/37
f 36/36/36 38/38/38 39/39/39
f 36/36/36 39/39/39 37/37/37
f 40/40/40 37/37/37 39/39/39
f 40/40/40 41/41/41 37/37/37
f 40/40/40 42/42/42 41/41/41
f 38/38/38 43/43/43 39/39/39
f 38/38/38 44/44/44 43/43/43
f 44/44/44 45/45/45 43/43/43
f 44/44/44 46/46/46 45/45/45
f 40/40/40 45/45/45 47/47/47
f 40/40/40 43/43/43 45/45/45
f 40/40/40 39/39/39 43/43/43
f 40/40/40 48/48/48 42/42/42
f 40/40/40 47/47/47 48/48/48
f 46/46/46 47/47/47 45/45/45
f 46/46/46 49/49/49 47/47/47
f 49/49/49 48/48/48 47/47/47
f 49/49/49 50/50/50 48/48/48
f 50/50/50 42/42/42 48/48/48
f 50/50/50 51/51/51 42/42/42
f 51/51/51 41/41/41 42/42/42
f 51/51/51 35/35/35 41/41/41
f 35/35/35 37/37/37 41/41/41
g Geoset2
s 1
usemtl mat_borean_bubbles_02
f 52/52/52 53/53/53 54/54/54
f 53/53/53 55/55/55 56/56/56
f 53/53/53 56/56/56 54/54/54
f 57/57/57 54/54/54 56/56/56
f 57/57/57 58/58/58 54/54/54
f 57/57/57 59/59/59 58/58/58
f 55/55/55 60/60/60 56/56/56
f 55/55/55 61/61/61 60/60/60
f 61/61/61 62/62/62 60/60/60
f 61/61/61 63/63/63 62/62/62
f 57/57/57 62/62/62 64/64/64
f 57/57/57 60/60/60 62/62/62
f 57/57/57 56/56/56 60/60/60
f 57/57/57 65/65/65 59/59/59
f 57/57/57 64/64/64 65/65/65
f 63/63/63 64/64/64 62/62/62
f 63/63/63 66/66/66 64/64/64
f 66/66/66 65/65/65 64/64/64
f 66/66/66 67/67/67 65/65/65
f 67/67/67 59/59/59 65/65/65
f 67/67/67 68/68/68 59/59/59
f 68/68/68 58/58/58 59/59/59
f 68/68/68 52/52/52 58/58/58
f 52/52/52 54/54/54 58/58/58
g Geoset3
s 1
usemtl mat_borean_bubbles_02
f 69/69/69 70/70/70 71/71/71
f 70/70/70 72/72/72 73/73/73
f 70/70/70 73/73/73 71/71/71
f 74/74/74 71/71/71 73/73/73
f 74/74/74 75/75/75 71/71/71
f 74/74/74 76/76/76 75/75/75
f 72/72/72 77/77/77 73/73/73
f 72/72/72 78/78/78 77/77/77
f 78/78/78 79/79/79 77/77/77
f 78/78/78 80/80/80 79/79/79
f 74/74/74 79/79/79 81/81/81
f 74/74/74 77/77/77 79/79/79
f 74/74/74 73/73/73 77/77/77
f 74/74/74 82/82/82 76/76/76
f 74/74/74 81/81/81 82/82/82
f 80/80/80 81/81/81 79/79/79
f 80/80/80 83/83/83 81/81/81
f 83/83/83 82/82/82 81/81/81
f 83/83/83 84/84/84 82/82/82
f 84/84/84 76/76/76 82/82/82
f 84/84/84 85/85/85 76/76/76
f 85/85/85 75/75/75 76/76/76
f 85/85/85 69/69/69 75/75/75
f 69/69/69 71/71/71 75/75/75
g Geoset4
s 1
usemtl mat_borean_bubbles_02
f 86/86/86 87/87/87 88/88/88
f 87/87/87 89/89/89 90/90/90
f 87/87/87 90/90/90 88/88/88
f 91/91/91 88/88/88 90/90/90
f 91/91/91 92/92/92 88/88/88
f 91/91/91 93/93/93 92/92/92
f 89/89/89 94/94/94 90/90/90
f 89/89/89 95/95/95 94/94/94
f 95/95/95 96/96/96 94/94/94
f 95/95/95 97/97/97 96/96/96
f 91/91/91 96/96/96 98/98/98
f 91/91/91 94/94/94 96/96/96
f 91/91/91 90/90/90 94/94/94
f 91/91/91 99/99/99 93/93/93
f 91/91/91 98/98/98 99/99/99
f 97/97/97 98/98/98 96/96/96
f 97/97/97 100/100/100 98/98/98
f 100/100/100 99/99/99 98/98/98
f 100/100/100 101/101/101 99/99/99
f 101/101/101 93/93/93 99/99/99
f 101/101/101 102/102/102 93/93/93
f 102/102/102 92/92/92 93/93/93
f 102/102/102 86/86/86 92/92/92
f 86/86/86 88/88/88 92/92/92
