# Exported using wow.export v0.1.64
o elwynnflower01
mtllib elwynnflower01.mtl
v 0.20874939858913422 0.18235017359256744 0.20976264774799347
v 0.06037605553865433 0.1507321447134018 0.08234462887048721
v -0.0424710251390934 0.209499791264534 0.3671960234642029
v 0.029867615550756454 0.09680789709091187 -0.3564671576023102
v -0.07282412052154541 0.3089996576309204 -0.249415323138237
v 0.22594158351421356 0.1422480046749115 -0.37362128496170044
v 0.1480579823255539 0.29571422934532166 -0.14778444170951843
v -0.1411655694246292 -0.007225832436233759 -0.058716077357530594
v 0.03227498382329941 -0.004475567955523729 0.04141995310783386
v -0.6853987574577332 0.2580935060977936 0.14493180811405182
v -0.3252898156642914 0.3371050953865051 0.1449318528175354
v -0.6979811191558838 0.3294515013694763 -0.16892188787460327
v -0.3568286597728729 0.31003227829933167 -0.24112863838672638
v -0.0498335100710392 0.0026352067943662405 0.14768178761005402
v -0.05009424313902855 0.0041139088571071625 -0.17167185246944427
v -0.14448030292987823 0.5756407380104065 -0.1871592104434967
v -0.03988241031765938 0.335103303194046 -0.005990255624055862
v -0.15458746254444122 0.559561550617218 -0.20466533303260803
v -0.05241350457072258 0.32885462045669556 -0.027694756165146828
v -0.03969059884548187 -0.006703671999275684 -0.005658016074448824
v -0.052605316042900085 -0.006703673396259546 -0.028026968240737915
v -0.16768020391464233 0.6061269044876099 0.17228001356124878
v -0.14472123980522156 0.32251662015914917 -0.02639506198465824
v -0.1537558138370514 0.6190422773361206 0.15477387607097626
v -0.1584426313638687 0.3197241425514221 -0.0046905712224543095
v -0.039690595120191574 -0.0067036449909210205 -0.026727309450507164
v -0.052605316042900085 -0.006703646387904882 -0.004358356352895498
v -0.11916906386613846 -0.017176268622279167 0.024502016603946686
v -0.08883890509605408 0.11374711990356445 0.18178001046180725
v 0.011237399652600288 0.0059728161431849 -0.04724134877324104
v -0.13988950848579407 0.530659556388855 -0.16939334571361542
v -0.15700535476207733 0.6947651505470276 -0.11615819483995438
v -0.053913313895463943 0.6264799237251282 -0.32234230637550354
v -0.1616659313440323 0.5951774716377258 0.15514381229877472
v -0.16028866171836853 0.8697160482406616 -0.06678460538387299
v -0.41720691323280334 0.7999880313873291 0.11704158782958984
v -0.41720691323280334 0.7999880313873291 0.11704158782958984
v -0.360390305519104 0.8191510438919067 0.41495954990386963
v -0.360390305519104 0.8191510438919067 0.41495954990386963
v -0.0015045085456222296 0.7848563194274902 0.4144786596298218
v -0.0015045085456222296 0.7848563194274902 0.4144786596298218
v 0.0966295674443245 0.8811953663825989 0.11704161763191223
v 0.0966295674443245 0.8811953663825989 0.11704161763191223
v -0.16028866171836853 0.8697160482406616 -0.06678460538387299
v -0.2600974142551422 0.6264799237251282 -0.32234230637550354
v -0.15700535476207733 0.6947651505470276 -0.11615819483995438
v -0.053913313895463943 0.6264799237251282 -0.32234230637550354
v -0.2600974142551422 0.6264799237251282 -0.32234230637550354
vn -0.02679404243826866 0.977064311504364 -0.21125201880931854
vn -0.33986908197402954 0.8624207973480225 -0.37512585520744324
vn -0.23279163241386414 0.9324170351028442 -0.2764173746109009
vn -0.16732940077781677 0.3783318102359772 -0.9104207158088684
vn -0.11926949769258499 0.9379040002822876 -0.3257465958595276
vn 0.05525694414973259 0.6582304835319519 -0.750785768032074
vn -0.20618382096290588 0.8737220168113708 0.4405656158924103
vn -0.3679610788822174 0.5677971243858337 0.7363498210906982
vn -0.40918979048728943 0.5942420363426208 0.6924161314964294
vn -0.20882850885391235 0.951772153377533 0.2247675359249115
vn 0.22660961747169495 0.9738407731056213 0.016798436641693115
vn -0.08545897156000137 0.9933419227600098 0.07725639641284943
vn 0.5429653525352478 0.8373403549194336 -0.06363796442747116
vn 0.7389010190963745 0.671781063079834 -0.05230186879634857
vn 0.7058546543121338 0.7083514928817749 0.00270358519628644
vn 0.8660255074501038 -1.563933160753095e-8 -0.4999998211860657
vn 0.8660255074501038 -1.7981047761850277e-8 -0.49999988079071045
vn 0.8660255074501038 -2.782024566272412e-8 -0.49999988079071045
vn 0.8660255074501038 -1.3774993590232043e-8 -0.49999988079071045
vn 0.8660255074501038 -6.61909138610639e-10 -0.49999988079071045
vn 0.866025447845459 -3.021168648587036e-9 -0.49999991059303284
vn 0.834301769733429 -0.26941028237342834 0.48099759221076965
vn 0.8504248857498169 -0.09757085889577866 0.5169695019721985
vn 0.840245246887207 -0.26381534337997437 0.47369757294654846
vn 0.8495094776153564 0.08658977597951889 0.5204189419746399
vn 0.8183435201644897 0.26321637630462646 0.5109120011329651
vn 0.8336694836616516 0.27078959345817566 0.4813191890716553
vn -0.42230361700057983 0.7350472807884216 -0.5304386615753174
vn -0.4615611433982849 0.7523810863494873 -0.46998295187950134
vn -0.4735560417175293 0.6989924907684326 -0.5358676910400391
vn -0.04396556317806244 0.9364690780639648 -0.34798380732536316
vn -0.05368607118725777 0.30305054783821106 -0.9514610767364502
vn -0.6982613801956177 0.7137539386749268 0.05464774742722511
vn -0.053499557077884674 0.9837996959686279 0.1711021512746811
vn -0.07950057089328766 0.6269068121910095 0.7750274538993835
vn 0.5640318989753723 0.7626414895057678 0.3166164457798004
vn 0.5640318989753723 0.7626414895057678 0.3166164457798004
vn 0.3778626322746277 0.8243113160133362 -0.4215812087059021
vn 0.3778626322746277 0.8243113160133362 -0.4215812087059021
vn -0.3885836899280548 0.8414483666419983 -0.37545621395111084
vn -0.3885836899280548 0.8414483666419983 -0.37545621395111084
vn -0.6729658842086792 0.6538166999816895 0.34589099884033203
vn -0.6729658842086792 0.6538166999816895 0.34589099884033203
vn -0.07950057089328766 0.6269068121910095 0.7750274538993835
vn 0.6041925549507141 0.7964730858802795 0.024123363196849823
vn -0.05368607118725777 0.30305054783821106 -0.9514610767364502
vn -0.6982613801956177 0.7137539386749268 0.05464774742722511
vn 0.6041925549507141 0.7964730858802795 0.024123363196849823
vt 0.0004999637603759766 0.9995005130767822
vt 0.0004997551441192627 0.5000000596046448
vt 0.9995005130767822 0.9995003938674927
vt 0.0004999637603759766 0.9995005130767822
vt 0.0004997551441192627 0.5000000596046448
vt 0.9995005130767822 0.9995003938674927
vt 0.9995002746582031 0.49999988079071045
vt 0.0004995167255401611 0.0004996061325073242
vt 0.999500036239624 0.0004994869232177734
vt 0.0004999637603759766 0.9995005130767822
vt 0.0004997551441192627 0.5000000596046448
vt 0.9995005130767822 0.9995003938674927
vt 0.9995002746582031 0.49999988079071045
vt 0.0004995167255401611 0.0004996061325073242
vt 0.999500036239624 0.0004994869232177734
vt 0.8050493001937866 0.4946695566177368
vt 0.4126669466495514 0.3489800691604614
vt 0.9323996305465698 0.38747638463974
vt 0.6439820528030396 0.2314813733100891
vt 0.16233095526695251 0.1768280267715454
vt 0.44434696435928345 0.09228694438934326
vt 0.9323996305465698 0.38747638463974
vt 0.4126669466495514 0.3489800691604614
vt 0.8050493001937866 0.4946695566177368
vt 0.6439820528030396 0.2314813733100891
vt 0.16233095526695251 0.1768280267715454
vt 0.44434696435928345 0.09228694438934326
vt 0.999500036239624 0.0004994869232177734
vt 0.9995002746582031 0.49999988079071045
vt 0.0004995167255401611 0.0004996061325073242
vt 0.5170712471008301 0.01207733154296875
vt 1 1
vt -0.01578843593597412 0.9975845217704773
vt 0.5131241679191589 0
vt 1 1
vt 0 1
vt 1 1
vt 0 1
vt 1 1
vt 0 1
vt 1 1
vt 0 1
vt 1 1
vt 0 1
vt 1 1
vt -0.01578843593597412 0.9975845217704773
vt 1 1
vt -0.01578843593597412 0.9975845217704773
g Geoset0
s 1
usemtl mat_elwynnflowerleaf01
f 1/1/1 2/2/2 3/3/3
f 4/4/4 5/5/5 6/6/6
f 7/7/7 6/6/6 5/5/5
f 5/5/5 8/8/8 7/7/7
f 9/9/9 7/7/7 8/8/8
f 10/10/10 11/11/11 12/12/12
f 13/13/13 12/12/12 11/11/11
f 11/11/11 14/14/14 13/13/13
f 15/15/15 13/13/13 14/14/14
f 16/16/16 17/17/17 18/18/18
f 19/19/19 18/18/18 17/17/17
f 17/17/17 20/20/20 19/19/19
f 21/21/21 19/19/19 20/20/20
f 22/22/22 23/23/23 24/24/24
f 23/23/23 22/22/22 25/25/25
f 25/25/25 26/26/26 23/23/23
f 26/26/26 25/25/25 27/27/27
f 28/28/28 29/29/29 30/30/30
f 2/2/2 30/30/30 29/29/29
f 29/29/29 3/3/3 2/2/2
g Geoset1
s 1
usemtl mat_elwynnflowertop01a
f 31/31/31 32/32/32 33/33/33
f 34/34/34 35/35/35 36/36/36
f 34/34/34 37/37/37 38/38/38
f 34/34/34 39/39/39 40/40/40
f 34/34/34 41/41/41 42/42/42
f 34/34/34 43/43/43 44/44/44
f 31/31/31 45/45/45 46/46/46
f 31/31/31 47/47/47 48/48/48
