# Exported using wow.export v0.1.64
o karazahnbarrel01
mtllib karazahnbarrel01.mtl
v 0.010931889526546001 1.0276371240615845 -0.39040493965148926
v -0.3162592649459839 1.0276371240615845 -0.2015010565519333
v -0.3162592053413391 1.0276371240615845 0.17630670964717865
v 0.01093186717480421 0.00025407367502339184 -0.39040496945381165
v -0.3162592649459839 0.0002540246641729027 0.17630670964717865
v -0.3162592947483063 0.0002540246641729027 -0.2015010565519333
v 0.33812299370765686 0.00025407367502339184 -0.20150111615657806
v 0.010931899771094322 0.00025407367502339184 0.3652105927467346
v 0.33812302350997925 0.00025407367502339184 0.17630666494369507
v 0.010931889526546001 1.0276371240615845 -0.39040493965148926
v 0.33812299370765686 1.0276371240615845 -0.20150110125541687
v 0.455911785364151 0.6850913763046265 -0.2695065438747406
v 0.010931889526546001 0.6850913763046265 -0.5264157056808472
v 0.455911785364151 0.3425457179546356 -0.2695065438747406
v 0.010931889526546001 0.3425457179546356 -0.5264157056808472
v 0.33812299370765686 0.00025407367502339184 -0.20150111615657806
v 0.01093186717480421 0.00025407367502339184 -0.39040496945381165
v 0.33812299370765686 1.0276371240615845 -0.20150110125541687
v 0.33812302350997925 1.0276371240615845 0.17630666494369507
v 0.4559118449687958 0.6850913763046265 0.24431204795837402
v 0.455911785364151 0.6850913763046265 -0.2695065438747406
v 0.4559118449687958 0.3425457179546356 0.24431204795837402
v 0.455911785364151 0.3425457179546356 -0.2695065438747406
v 0.33812302350997925 0.00025407367502339184 0.17630666494369507
v 0.33812299370765686 0.00025407367502339184 -0.20150111615657806
v 0.33812302350997925 1.0276371240615845 0.17630666494369507
v 0.010931922122836113 1.0276371240615845 0.3652105927467346
v 0.010931935161352158 0.6850913763046265 0.5012214183807373
v 0.4559118449687958 0.6850913763046265 0.24431204795837402
v 0.010931935161352158 0.3425457179546356 0.5012214183807373
v 0.4559118449687958 0.3425457179546356 0.24431204795837402
v 0.010931899771094322 0.00025407367502339184 0.3652105927467346
v 0.33812302350997925 0.00025407367502339184 0.17630666494369507
v 0.010931922122836113 1.0276371240615845 0.3652105927467346
v -0.3162592053413391 1.0276371240615845 0.17630670964717865
v -0.434048056602478 0.6850913763046265 0.2443121075630188
v 0.010931935161352158 0.6850913763046265 0.5012214183807373
v -0.434048056602478 0.3425457179546356 0.2443121075630188
v 0.010931935161352158 0.3425457179546356 0.5012214183807373
v -0.3162592649459839 0.0002540246641729027 0.17630670964717865
v 0.010931899771094322 0.00025407367502339184 0.3652105927467346
v -0.3162592053413391 1.0276371240615845 0.17630670964717865
v -0.3162592649459839 1.0276371240615845 -0.2015010565519333
v -0.4340480864048004 0.6850913763046265 -0.26950642466545105
v -0.434048056602478 0.6850913763046265 0.2443121075630188
v -0.4340480864048004 0.3425457179546356 -0.26950642466545105
v -0.434048056602478 0.3425457179546356 0.2443121075630188
v -0.3162592947483063 0.0002540246641729027 -0.2015010565519333
v -0.3162592649459839 0.0002540246641729027 0.17630670964717865
v -0.3162592649459839 1.0276371240615845 -0.2015010565519333
v 0.010931889526546001 1.0276371240615845 -0.39040493965148926
v 0.010931889526546001 0.6850913763046265 -0.5264157056808472
v -0.4340480864048004 0.6850913763046265 -0.26950642466545105
v 0.010931889526546001 0.3425457179546356 -0.5264157056808472
v -0.4340480864048004 0.3425457179546356 -0.26950642466545105
v 0.01093186717480421 0.00025407367502339184 -0.39040496945381165
v -0.3162592947483063 0.0002540246641729027 -0.2015010565519333
v 0.010931922122836113 1.0276371240615845 0.3652105927467346
v 0.33812302350997925 1.0276371240615845 0.17630666494369507
v 0.33812299370765686 1.0276371240615845 -0.20150110125541687
vn -3.338910303796183e-8 0.7474349141120911 -0.6643350720405579
vn -0.5753310918807983 0.7474348545074463 -0.33216747641563416
vn -0.5753309726715088 0.7474349141120911 0.3321675956249237
vn -1.3006167698392801e-8 -0.7475233674049377 -0.6642354726791382
vn -0.5752447843551636 -0.7475233674049377 0.3321177661418915
vn -0.5752448439598083 -0.7475233674049377 -0.3321177065372467
vn 0.5752447247505188 -0.7475234270095825 -0.33211779594421387
vn 5.203416719723464e-8 -0.747523307800293 0.664235532283783
vn 0.5752447843551636 -0.7475234270095825 0.33211764693260193
vn -3.338910303796183e-8 0.7474349141120911 -0.6643350720405579
vn 0.5753310322761536 0.7474349141120911 -0.3321675956249237
vn 0.8522456288337708 0.17767897248268127 -0.4920443296432495
vn -6.550659037429796e-8 0.17767897248268127 -0.9840884804725647
vn 0.852228045463562 -0.17779116332530975 -0.4920342266559601
vn -6.72804176815589e-8 -0.17779113352298737 -0.9840682744979858
vn 0.5752447247505188 -0.7475234270095825 -0.33211779594421387
vn -1.3006167698392801e-8 -0.7475233674049377 -0.6642354726791382
vn 0.5753310322761536 0.7474349141120911 -0.3321675956249237
vn 0.5753310918807983 0.7474349141120911 0.33216744661331177
vn 0.8522456884384155 0.17767895758152008 0.4920441508293152
vn 0.8522456288337708 0.17767897248268127 -0.4920443296432495
vn 0.8522281646728516 -0.17779113352298737 0.49203401803970337
vn 0.852228045463562 -0.17779116332530975 -0.4920342266559601
vn 0.5752447843551636 -0.7475234270095825 0.33211764693260193
vn 0.5752447247505188 -0.7475234270095825 -0.33211779594421387
vn 0.5753310918807983 0.7474349141120911 0.33216744661331177
vn 6.45205986415931e-8 0.7474348545074463 0.6643350720405579
vn 9.600872630244339e-8 0.17767897248268127 0.9840884804725647
vn 0.8522456884384155 0.17767895758152008 0.4920441508293152
vn 1.1473269978523604e-7 -0.17779111862182617 0.9840682744979858
vn 0.8522281646728516 -0.17779113352298737 0.49203401803970337
vn 5.203416719723464e-8 -0.747523307800293 0.664235532283783
vn 0.5752447843551636 -0.7475234270095825 0.33211764693260193
vn 6.45205986415931e-8 0.7474348545074463 0.6643350720405579
vn -0.5753309726715088 0.7474349141120911 0.3321675956249237
vn -0.852245569229126 0.17767897248268127 0.4920443594455719
vn 9.600872630244339e-8 0.17767897248268127 0.9840884804725647
vn -0.852228045463562 -0.17779111862182617 0.4920341968536377
vn 1.1473269978523604e-7 -0.17779111862182617 0.9840682744979858
vn -0.5752447843551636 -0.7475233674049377 0.3321177661418915
vn 5.203416719723464e-8 -0.747523307800293 0.664235532283783
vn -0.5753309726715088 0.7474349141120911 0.3321675956249237
vn -0.5753310918807983 0.7474348545074463 -0.33216747641563416
vn -0.8522456884384155 0.17767897248268127 -0.4920441806316376
vn -0.852245569229126 0.17767897248268127 0.4920443594455719
vn -0.8522281050682068 -0.17779108881950378 -0.49203410744667053
vn -0.852228045463562 -0.17779111862182617 0.4920341968536377
vn -0.5752448439598083 -0.7475233674049377 -0.3321177065372467
vn -0.5752447843551636 -0.7475233674049377 0.3321177661418915
vn -0.5753310918807983 0.7474348545074463 -0.33216747641563416
vn -3.338910303796183e-8 0.7474349141120911 -0.6643350720405579
vn -6.550659037429796e-8 0.17767897248268127 -0.9840884804725647
vn -0.8522456884384155 0.17767897248268127 -0.4920441806316376
vn -6.72804176815589e-8 -0.17779113352298737 -0.9840682744979858
vn -0.8522281050682068 -0.17779108881950378 -0.49203410744667053
vn -1.3006167698392801e-8 -0.7475233674049377 -0.6642354726791382
vn -0.5752448439598083 -0.7475233674049377 -0.3321177065372467
vn 6.45205986415931e-8 0.7474348545074463 0.6643350720405579
vn 0.5753310918807983 0.7474349141120911 0.33216744661331177
vn 0.5753310322761536 0.7474349141120911 -0.3321675956249237
vt 0.9156641960144043 0.8242782354354858
vt 0.9145691990852356 0.9366028904914856
vt 0.5058074593544006 0.9939321875572205
vt 0.9156641960144043 0.8242782354354858
vt 0.5058074593544006 0.9939321875572205
vt 0.9145691990852356 0.9366028904914856
vt 0.5064982175827026 0.764568567276001
vt 0.08043641597032547 0.928061306476593
vt 0.08134357631206512 0.8267403841018677
vt 0.9898572564125061 0.7470841407775879
vt 0.0007312782108783722 0.7470841407775879
vt 0.0007312782108783722 0.5018460750579834
vt 0.9898572564125061 0.5018460750579834
vt 0.0007312782108783722 0.25660794973373413
vt 0.9898572564125061 0.25660794973373413
vt 0.0007312782108783722 0.011369884014129639
vt 0.9898572564125061 0.011369884014129639
vt 0.9867803454399109 0.7486670017242432
vt 0.0020330864936113358 0.7486670017242432
vt 0.0020330864936113358 0.5023736953735352
vt 0.9867803454399109 0.5023736953735352
vt 0.0020330864936113358 0.25608038902282715
vt 0.9867803454399109 0.25608038902282715
vt 0.0020330864936113358 0.00978708267211914
vt 0.9867803454399109 0.00978708267211914
vt 0.9881734848022461 0.7470841407775879
vt -0.0011367090046405792 0.7470841407775879
vt -0.0011367090046405792 0.5018460750579834
vt 0.9881734848022461 0.5018460750579834
vt -0.0011367090046405792 0.2566080093383789
vt 0.9881734848022461 0.2566080093383789
vt -0.0011367090046405792 0.011369943618774414
vt 0.9881734848022461 0.011369943618774414
vt 0.9852844476699829 0.7462515234947205
vt -0.000023717060685157776 0.7462515234947205
vt -0.000023717060685157776 0.4999582767486572
vt 0.9852844476699829 0.4999582767486572
vt -0.000023717060685157776 0.2536649703979492
vt 0.9852844476699829 0.2536649703979492
vt -0.000023717060685157776 0.007371664047241211
vt 0.9852844476699829 0.007371664047241211
vt 0.9850156307220459 0.746354877948761
vt 0.2667544186115265 0.7463549375534058
vt -0.0019428618252277374 0.5012568831443787
vt 0.9850156307220459 0.5012568831443787
vt -0.0019428618252277374 0.25615882873535156
vt 0.9850155711174011 0.25615882873535156
vt -0.0019428618252277374 0.011060833930969238
vt 0.7117167711257935 0.011060833930969238
vt 0.988928496837616 0.747560441493988
vt 0.003436816856265068 0.747560441493988
vt 0.003436816856265068 0.5020048022270203
vt 0.988928496837616 0.5020048022270203
vt 0.003436816856265068 0.25644922256469727
vt 0.988928496837616 0.25644922256469727
vt 0.003436816856265068 0.010893702507019043
vt 0.988928496837616 0.010893702507019043
vt 0.08043641597032547 0.928061306476593
vt 0.08134357631206512 0.8267403841018677
vt 0.5064982175827026 0.764568567276001
g Geoset0
s 1
usemtl mat_karazahnbarrel01
f 1/1/1 2/2/2 3/3/3
f 4/4/4 5/5/5 6/6/6
f 4/4/4 7/7/7 5/5/5
f 7/7/7 8/8/8 5/5/5
f 7/7/7 9/9/9 8/8/8
f 10/10/10 11/11/11 12/12/12
f 12/12/12 13/13/13 10/10/10
f 13/13/13 12/12/12 14/14/14
f 14/14/14 15/15/15 13/13/13
f 15/15/15 14/14/14 16/16/16
f 16/16/16 17/17/17 15/15/15
f 18/18/18 19/19/19 20/20/20
f 20/20/20 21/21/21 18/18/18
f 21/21/21 20/20/20 22/22/22
f 22/22/22 23/23/23 21/21/21
f 23/23/23 22/22/22 24/24/24
f 24/24/24 25/25/25 23/23/23
f 26/26/26 27/27/27 28/28/28
f 28/28/28 29/29/29 26/26/26
f 29/29/29 28/28/28 30/30/30
f 30/30/30 31/31/31 29/29/29
f 31/31/31 30/30/30 32/32/32
f 32/32/32 33/33/33 31/31/31
f 34/34/34 35/35/35 36/36/36
f 36/36/36 37/37/37 34/34/34
f 37/37/37 36/36/36 38/38/38
f 38/38/38 39/39/39 37/37/37
f 39/39/39 38/38/38 40/40/40
f 40/40/40 41/41/41 39/39/39
f 42/42/42 43/43/43 44/44/44
f 44/44/44 45/45/45 42/42/42
f 45/45/45 44/44/44 46/46/46
f 46/46/46 47/47/47 45/45/45
f 47/47/47 46/46/46 48/48/48
f 48/48/48 49/49/49 47/47/47
f 50/50/50 51/51/51 52/52/52
f 52/52/52 53/53/53 50/50/50
f 53/53/53 52/52/52 54/54/54
f 54/54/54 55/55/55 53/53/53
f 55/55/55 54/54/54 56/56/56
f 56/56/56 57/57/57 55/55/55
f 58/58/58 59/59/59 60/60/60
f 3/3/3 58/58/58 60/60/60
f 1/1/1 3/3/3 60/60/60
