# Exported using wow.export v0.1.64
o fishingpole01
mtllib fishingpole01.mtl
v -0.6033154726028442 -0.001606293604709208 -0.021275494247674942
v -0.603315532207489 0.022640664130449295 -0.002720799297094345
v 1.0695656538009644 -0.0012691995361819863 -0.0027416718658059835
v -0.6033154726028442 -0.001606469857506454 0.01573142409324646
v -0.603315532207489 -0.026587003841996193 -0.0027209201361984015
v 1.0695656538009644 -0.0012691995361819863 -0.0027416718658059835
v -0.6033154726028442 -0.001606293604709208 -0.021275494247674942
v -0.5442493557929993 -0.006619045976549387 -0.03316173702478409
v -0.5442493557929993 -0.13560587167739868 -0.03316172957420349
v -0.6001023054122925 -0.1033591628074646 -0.03316173702478409
v -0.6001023054122925 -0.038865748792886734 -0.03316174075007439
v -0.48839643597602844 -0.10335918515920639 -0.03316172584891319
v -0.48839643597602844 -0.03886575251817703 -0.03316172957420349
v -1.0592308044433594 -0.0015860345447435975 -0.002720290096476674
v -1.0463612079620361 -0.001690600998699665 0.014494846574962139
v -1.046360969543457 0.01819021627306938 -0.0027199091855436563
v -1.046360731124878 -0.001690434291958809 -0.0200195275247097
v -1.0463610887527466 -0.022397000342607498 -0.0027200202457606792
v -0.5442493557929993 -0.07111246138811111 0.06965074688196182
v -0.5442493557929993 -0.13560587167739868 0.05433826148509979
v -0.48839643597602844 -0.1033591628074646 0.05433826521039009
v -0.6001023054122925 -0.1033591628074646 0.054338254034519196
v -0.6001023054122925 -0.03886575251817703 0.054338254034519196
v -0.5442493557929993 -0.006619047373533249 0.054338257759809494
v -0.48839643597602844 -0.03886575624346733 0.05433826148509979
v -1.0463610887527466 -0.022397000342607498 -0.0027200202457606792
v -1.046360731124878 -0.001690434291958809 -0.0200195275247097
v -0.633310079574585 -0.001639126450754702 -0.03124495968222618
v -0.6333102583885193 -0.03551739826798439 -0.0027117265854030848
v -0.6333103179931641 0.03088810108602047 -0.002711546840146184
v -1.046360969543457 0.01819021627306938 -0.0027199091855436563
v -0.6333105564117432 -0.0016393786063417792 0.025681886821985245
v -1.0463612079620361 -0.001690600998699665 0.014494846574962139
v -0.5442493557929993 -0.006619045976549387 -0.03316173702478409
v -0.6001023054122925 -0.03886575251817703 0.054338254034519196
v -0.5442493557929993 -0.006619047373533249 0.054338257759809494
v -0.48839643597602844 -0.03886575251817703 -0.03316172957420349
v -0.6001023054122925 -0.038865748792886734 -0.03316174075007439
v -0.6001023054122925 -0.1033591628074646 0.054338254034519196
v -0.6001023054122925 -0.1033591628074646 -0.03316173702478409
v -0.5442493557929993 -0.13560587167739868 0.05433826148509979
v -0.5442493557929993 -0.13560587167739868 -0.03316172957420349
v -0.48839643597602844 -0.1033591628074646 0.05433826521039009
v -0.48839643597602844 -0.10335918515920639 -0.03316172584891319
v -0.48839643597602844 -0.03886575624346733 0.05433826148509979
v 0.6355860233306885 -0.017865337431430817 0.01625961996614933
v 0.6400216817855835 -0.005489443428814411 -0.002518730005249381
v 0.6355860233306885 0.000912994786631316 -0.002518730703741312
v 0.6311501860618591 -0.01786530762910843 0.009857150726020336
v 0.6311501860618591 -0.030241191387176514 -0.0025187297724187374
v 0.6400217413902283 -0.03024120442569256 -0.00251872930675745
v 0.6400217413902283 -0.017865274101495743 -0.014894613064825535
v 0.6355860233306885 -0.017865337431430817 -0.02129708230495453
v 0.6355859637260437 -0.036643724888563156 -0.00251872930675745
v 0.6400217413902283 -0.017865274101495743 0.00985715165734291
v 0.6311501860618591 -0.01786530576646328 -0.014894616790115833
v 0.6311502456665039 -0.005489468574523926 -0.002518730703741312
v -0.003245819825679064 -0.03867657855153084 0.029896408319473267
v 0.004411189816892147 -0.017313318327069283 -0.0025187747087329626
v -0.0032458289060741663 -0.006261375267058611 -0.002518775872886181
v -0.010902835056185722 -0.038676559925079346 0.018844475969672203
v -0.010902834124863148 -0.060039810836315155 -0.0025187742430716753
v 0.004411173518747091 -0.06003980711102486 -0.0025187733117491007
v 0.004411191213876009 -0.03867657482624054 -0.023882023990154266
v -0.0032458112109452486 -0.03867657482624054 -0.034933965653181076
v -0.003245808882638812 -0.07109177112579346 -0.002518770284950733
v 0.004411185625940561 -0.03867657482624054 0.018844474107027054
v -0.010902829468250275 -0.03867655247449875 -0.023882025852799416
v -0.010902824811637402 -0.017313310876488686 -0.0025187761057168245
v -0.633310079574585 -0.001639126450754702 -0.03124495968222618
v -0.6333103179931641 0.03088810108602047 -0.002711546840146184
v -0.6033154726028442 -0.001606293604709208 -0.021275494247674942
v -0.6333102583885193 -0.03551739826798439 -0.0027117265854030848
v -0.603315532207489 -0.026587003841996193 -0.0027209201361984015
v -0.6333105564117432 -0.0016393786063417792 0.025681886821985245
v -0.6033154726028442 -0.001606469857506454 0.01573142409324646
v -0.6033154726028442 -0.001606469857506454 0.01573142409324646
v 1.0695656538009644 -0.0012691995361819863 -0.0027416718658059835
vn 0.17326320707798004 -0.15286734700202942 -0.9729396104812622
vn 0.1926092654466629 0.9548994302749634 -0.22598394751548767
vn 0.8370587825775146 0.5418645143508911 0.07560074329376221
vn 0.17019492387771606 0.1678379327058792 0.9710118770599365
vn 0.20359820127487183 -0.9501733183860779 0.23604752123355865
vn 0.8370587825775146 0.5418645143508911 0.07560074329376221
vn 0.17326320707798004 -0.15286734700202942 -0.9729396104812622
vn -0.10425706207752228 0.541736364364624 -0.834057629108429
vn 0.15075573325157166 -0.7833494544029236 -0.6030226349830627
vn -0.6030226349830627 -0.5222330093383789 -0.6030227541923523
vn -0.8838834166526794 0.3061862587928772 -0.3535534739494324
vn 0.7537783980369568 -0.26111653447151184 -0.603022575378418
vn 0.70710688829422 0.6123723983764648 -0.35355329513549805
vn -0.9999280571937561 0.011925400234758854 0.0012959394371137023
vn -0.3999451994895935 -0.1637609899044037 0.9017905592918396
vn -0.4437686800956726 0.8669577240943909 0.22683405876159668
vn -0.40090522170066833 0.1859344094991684 -0.8970525860786438
vn -0.4575638771057129 -0.8583158850669861 -0.23222653567790985
vn -1.1380639364233502e-7 6.092917281819155e-9 1
vn -0.13705214858055115 -0.8376715779304504 0.5286993980407715
vn 0.6569187641143799 -0.5375264286994934 0.5286993980407715
vn -0.7939710021018982 -0.3001451790332794 0.5286992788314819
vn -0.6569187641143799 0.5375264286994934 0.5286993384361267
vn 0.13705214858055115 0.8376715183258057 0.5286994576454163
vn 0.7939708828926086 0.30014508962631226 0.5286994576454163
vn -0.4575638771057129 -0.8583158850669861 -0.23222653567790985
vn -0.40090522170066833 0.1859344094991684 -0.8970525860786438
vn 0.13512472808361053 -0.0029294295236468315 -0.990824282169342
vn 0.14398962259292603 -0.9895766377449036 -0.002239382825791836
vn 0.13449878990650177 0.9908952116966248 0.0060646021738648415
vn -0.4437686800956726 0.8669577240943909 0.22683405876159668
vn 0.1368492990732193 0.022481344640254974 0.9903367161750793
vn -0.3999451994895935 -0.1637609899044037 0.9017905592918396
vn -0.10425706207752228 0.541736364364624 -0.834057629108429
vn -0.6569187641143799 0.5375264286994934 0.5286993384361267
vn 0.13705214858055115 0.8376715183258057 0.5286994576454163
vn 0.70710688829422 0.6123723983764648 -0.35355329513549805
vn -0.8838834166526794 0.3061862587928772 -0.3535534739494324
vn -0.7939710021018982 -0.3001451790332794 0.5286992788314819
vn -0.6030226349830627 -0.5222330093383789 -0.6030227541923523
vn -0.13705214858055115 -0.8376715779304504 0.5286993980407715
vn 0.15075573325157166 -0.7833494544029236 -0.6030226349830627
vn 0.6569187641143799 -0.5375264286994934 0.5286993980407715
vn 0.7537783980369568 -0.26111653447151184 -0.603022575378418
vn 0.7939708828926086 0.30014508962631226 0.5286994576454163
vn 0.0000018729638213699218 0.000004418500338942977 1
vn 0.8442745804786682 -0.2508569657802582 0.4735727906227112
vn -8.320386655213952e-7 1 3.449433165769733e-7
vn -0.8442738652229309 0.4735729992389679 -0.2508590519428253
vn -0.8442733883857727 0.2508590817451477 0.47357383370399475
vn 0.8442750573158264 0.25085851550102234 -0.47357115149497986
vn 0.8442732691764832 0.47357359528541565 0.25085997581481934
vn 0.0000019841372704831883 0.000004197266207484063 -1
vn 1.6284300841107324e-7 -1 -7.363900635937171e-7
vn 0.844274640083313 -0.47357192635536194 -0.250858336687088
vn -0.8442749381065369 -0.47357240319252014 0.2508566379547119
vn -0.8442724943161011 -0.2508586645126343 -0.4735756516456604
vn 2.839518060682167e-7 3.2548342687732656e-7 1
vn 0.8442738652229309 -0.25085845589637756 0.4735732972621918
vn -2.1845480091542413e-7 1 1.4420261607028806e-7
vn -0.8442740440368652 0.47357305884361267 -0.2508583068847656
vn -0.8442741632461548 0.2508583962917328 0.47357285022735596
vn 0.8442742824554443 0.2508591115474701 -0.4735722243785858
vn 0.8442739248275757 0.47357311844825745 0.2508586049079895
vn 9.325261771664373e-7 4.782610290021694e-7 -1
vn 0.0000016600845356151694 -1 -3.85092022270328e-7
vn 0.8442744612693787 -0.4735720455646515 -0.25085893273353577
vn -0.84427410364151 -0.4735729694366455 0.25085824728012085
vn -0.8442739248275757 -0.25085821747779846 -0.4735732972621918
vn 0.13512472808361053 -0.0029294295236468315 -0.990824282169342
vn 0.13449878990650177 0.9908952116966248 0.0060646021738648415
vn 0.17326320707798004 -0.15286734700202942 -0.9729396104812622
vn 0.14398962259292603 -0.9895766377449036 -0.002239382825791836
vn 0.20359820127487183 -0.9501733183860779 0.23604752123355865
vn 0.1368492990732193 0.022481344640254974 0.9903367161750793
vn 0.17019492387771606 0.1678379327058792 0.9710118770599365
vn 0.17019492387771606 0.1678379327058792 0.9710118770599365
vn 0.8370587825775146 0.5418645143508911 0.07560074329376221
vt 0.0078125 0.734375
vt 0.0078125 0.984375
vt 0.4921875 0.984375
vt 0.0078125 0.75
vt 0.0078125 0.515625
vt 0.4921875 0.515625
vt 0.4921875 0.75
vt 0.5078125 0.984375
vt 0.5078125 0.015625
vt 0.7421875 0.25
vt 0.7421875 0.765625
vt 0.7421875 0.25
vt 0.7421875 0.765625
vt 0.0078125 0.75
vt 0.0625 0.75
vt 0.0625 0.984375
vt 0.0625 0.75
vt 0.0625 0.515625
vt 0.5078125 0.5
vt 0.5078125 0.015625
vt 0.7421875 0.25
vt 0.7421875 0.25
vt 0.7421875 0.765625
vt 0.5078125 0.984375
vt 0.7421875 0.765625
vt 0.0078125 0.53125
vt 0.0078125 0.78125
vt 0.4921875 0.78125
vt 0.4921875 0.53125
vt 0.4921875 0.984375
vt 0.0078125 0.984375
vt 0.4921875 0.78125
vt 0.0078125 0.78125
vt 0.9921875 0.984375
vt 0.75 0.734375
vt 0.75 0.984375
vt 0.9921875 0.734375
vt 0.9921875 0.734375
vt 0.75 0.265625
vt 0.9921875 0.265625
vt 0.75 0.015625
vt 0.9921875 0.015625
vt 0.75 0.265625
vt 0.9921875 0.265625
vt 0.75 0.734375
vt 0.109375 0.34375
vt 0.3125 0.203125
vt 0.109375 0.203125
vt 0.21875 0.34375
vt 0.21875 0.46875
vt 0.3125 0.46875
vt 0.3125 0.34375
vt 0.109375 0.34375
vt 0.109375 0.46875
vt 0.3125 0.34375
vt 0.21875 0.34375
vt 0.21875 0.203125
vt 0.109375 0.34375
vt 0.3125 0.203125
vt 0.109375 0.203125
vt 0.21875 0.34375
vt 0.21875 0.46875
vt 0.3125 0.46875
vt 0.3125 0.34375
vt 0.109375 0.34375
vt 0.109375 0.46875
vt 0.3125 0.34375
vt 0.21875 0.34375
vt 0.21875 0.203125
vt 0.0625 0.78125
vt 0.0625 0.984375
vt 0.0078125 0.78125
vt 0.0625 0.53125
vt 0.0078125 0.53125
vt 0.0625 0.78125
vt 0.0078125 0.78125
vt 0.0078125 0.734375
vt 0.4921875 0.734375
g Geoset0
s 1
usemtl mat_misc_2h_fishingpole_a_01gold
f 1/1/1 2/2/2 3/3/3
f 4/4/4 5/5/5 6/6/6
f 7/7/7 6/6/6 5/5/5
f 8/8/8 9/9/9 10/10/10
f 8/8/8 10/10/10 11/11/11
f 12/12/12 8/8/8 13/13/13
f 12/12/12 9/9/9 8/8/8
f 14/14/14 15/15/15 16/16/16
f 14/14/14 16/16/16 17/17/17
f 18/18/18 14/14/14 17/17/17
f 18/18/18 15/15/15 14/14/14
f 19/19/19 20/20/20 21/21/21
f 19/19/19 22/22/22 20/20/20
f 19/19/19 23/23/23 22/22/22
f 19/19/19 24/24/24 23/23/23
f 19/19/19 25/25/25 24/24/24
f 19/19/19 21/21/21 25/25/25
f 26/26/26 27/27/27 28/28/28
f 28/28/28 29/29/29 26/26/26
f 30/30/30 28/28/28 27/27/27
f 27/27/27 31/31/31 30/30/30
f 32/32/32 30/30/30 31/31/31
f 31/31/31 33/33/33 32/32/32
f 29/29/29 32/32/32 33/33/33
f 33/33/33 26/26/26 29/29/29
f 34/34/34 35/35/35 36/36/36
f 37/37/37 34/34/34 36/36/36
f 34/34/34 38/38/38 35/35/35
f 38/38/38 39/39/39 35/35/35
f 38/38/38 40/40/40 39/39/39
f 40/40/40 41/41/41 39/39/39
f 40/40/40 42/42/42 41/41/41
f 42/42/42 43/43/43 41/41/41
f 42/42/42 44/44/44 43/43/43
f 44/44/44 45/45/45 43/43/43
f 44/44/44 37/37/37 45/45/45
f 37/37/37 36/36/36 45/45/45
f 46/46/46 47/47/47 48/48/48
f 49/49/49 46/46/46 48/48/48
f 50/50/50 46/46/46 49/49/49
f 51/51/51 50/50/50 49/49/49
f 52/52/52 50/50/50 51/51/51
f 53/53/53 52/52/52 51/51/51
f 54/54/54 55/55/55 46/46/46
f 50/50/50 54/54/54 46/46/46
f 56/56/56 54/54/54 50/50/50
f 52/52/52 56/56/56 50/50/50
f 47/47/47 56/56/56 52/52/52
f 48/48/48 47/47/47 52/52/52
f 46/46/46 55/55/55 47/47/47
f 55/55/55 57/57/57 47/47/47
f 47/47/47 57/57/57 56/56/56
f 57/57/57 53/53/53 56/56/56
f 56/56/56 53/53/53 54/54/54
f 53/53/53 51/51/51 54/54/54
f 54/54/54 51/51/51 55/55/55
f 51/51/51 49/49/49 55/55/55
f 55/55/55 49/49/49 57/57/57
f 49/49/49 48/48/48 57/57/57
f 57/57/57 48/48/48 53/53/53
f 48/48/48 52/52/52 53/53/53
f 58/58/58 59/59/59 60/60/60
f 61/61/61 58/58/58 60/60/60
f 62/62/62 58/58/58 61/61/61
f 63/63/63 62/62/62 61/61/61
f 64/64/64 62/62/62 63/63/63
f 65/65/65 64/64/64 63/63/63
f 66/66/66 67/67/67 58/58/58
f 62/62/62 66/66/66 58/58/58
f 68/68/68 66/66/66 62/62/62
f 64/64/64 68/68/68 62/62/62
f 59/59/59 68/68/68 64/64/64
f 60/60/60 59/59/59 64/64/64
f 58/58/58 67/67/67 59/59/59
f 67/67/67 69/69/69 59/59/59
f 59/59/59 69/69/69 68/68/68
f 69/69/69 65/65/65 68/68/68
f 68/68/68 65/65/65 66/66/66
f 65/65/65 63/63/63 66/66/66
f 66/66/66 63/63/63 67/67/67
f 63/63/63 61/61/61 67/67/67
f 67/67/67 61/61/61 69/69/69
f 61/61/61 60/60/60 69/69/69
f 69/69/69 60/60/60 65/65/65
f 60/60/60 64/64/64 65/65/65
f 70/70/70 71/71/71 2/2/2
f 2/2/2 72/72/72 70/70/70
f 73/73/73 70/70/70 72/72/72
f 72/72/72 74/74/74 73/73/73
f 75/75/75 73/73/73 74/74/74
f 74/74/74 76/76/76 75/75/75
f 71/71/71 75/75/75 76/76/76
f 76/76/76 2/2/2 71/71/71
f 2/2/2 77/77/77 78/78/78
