# Exported using wow.export v0.1.64
o burntstonetreesmoke_vfx
mtllib burntstonetreesmoke_vfx.mtl
v 0.040278900414705276 40.17202377319336 8.349159240722656
v -0.3833851218223572 31.835832595825195 8.323481559753418
v 0.02134561724960804 31.825469970703125 5.00932502746582
v 1.6402686834335327 31.784027099609375 -8.24730396270752
v 2.0639328956604004 40.12022018432617 -8.221627235412598
v 1.6592020988464355 40.130577087402344 -4.907469272613525
v 1.2355380058288574 31.794382095336914 -4.933147430419922
v 1.1772135496139526 24.007871627807617 -7.716362953186035
v 0.7995889186859131 24.017539978027344 -4.6241655349731445
v 0.7504464983940125 19.425233840942383 -6.145066738128662
v 0.45026785135269165 19.43291664123535 -3.687040090560913
v 0.4362255930900574 13.2424898147583 -6.164111137390137
v 0.13604700565338135 13.250175476074219 -3.706084728240967
v 0.12200471013784409 7.059748649597168 -6.183155059814453
v -0.17817389965057373 7.0674333572387695 -3.725128650665283
v -0.1922161877155304 0.8770067691802979 -6.202199935913086
v -0.4923947751522064 0.8846911787986755 -3.744173288345337
v -0.33328503370285034 24.046541213989258 4.6524271965026855
v -0.7109097242355347 24.05620765686035 7.744624614715576
v -0.45026785135269165 19.45597267150879 3.687040090560913
v -0.7504464983940125 19.463655471801758 6.145066738128662
v -0.7644888162612915 13.273228645324707 3.6679954528808594
v -1.0646673440933228 13.280913352966309 6.1260223388671875
v -1.0787098407745361 7.090487003326416 3.648951292037964
v -1.3788881301879883 7.098171234130859 6.106977939605713
v -1.392930507659912 0.9077445268630981 3.6299068927764893
v -1.693109154701233 0.9154289364814758 6.087933540344238
v 0.04433960095047951 24.036874771118164 1.560229778289795
v 0.42607638239860535 31.815107345581055 1.6951674222946167
v -0.15008927881717682 19.448284149169922 1.2290133237838745
v -0.4643101692199707 13.265544891357422 1.2099690437316895
v -0.778531014919281 7.0828022956848145 1.1909246444702148
v -1.0927519798278809 0.9000599980354309 1.1718803644180298
v 0.4219643175601959 24.027206420898438 -1.5319678783416748
v 0.8308072090148926 31.804744720458984 -1.6189900636672974
v 0.15008927881717682 19.44060516357422 -1.2290133237838745
v -0.16413159668445587 13.25786018371582 -1.2480578422546387
v -0.47835248708724976 7.075117588043213 -1.2671020030975342
v -0.7925733327865601 0.892375648021698 -1.2861464023590088
v 1.2544713020324707 40.14094161987305 -1.5933125019073486
v 0.8497405052185059 40.15129852294922 1.7208449840545654
v 0.44500961899757385 40.16166305541992 5.0350022315979
vn 0.9913270473480225 -0.05075472965836525 0.12122136354446411
vn 0.9913270473480225 -0.05075472965836525 0.12122136354446411
vn 0.9913270473480225 -0.05075472965836525 0.12122136354446411
vn 0.9913270473480225 -0.05075472965836525 0.12122136354446411
vn 0.9913270473480225 -0.05075472965836525 0.12122137099504471
vn 0.9913270473480225 -0.05075472965836525 0.12122137099504471
vn 0.9913270473480225 -0.05075472965836525 0.12122136354446411
vn 0.9913270473480225 -0.05075473710894585 0.12122136354446411
vn 0.9913270473480225 -0.05075473710894585 0.12122136354446411
vn 0.9913270473480225 -0.05075472965836525 0.12122136354446411
vn 0.9913270473480225 -0.05075473710894585 0.12122136354446411
vn 0.9913270473480225 -0.05075472965836525 0.12122136354446411
vn 0.9913270473480225 -0.05075472965836525 0.12122136354446411
vn 0.9913270473480225 -0.05075472965836525 0.12122136354446411
vn 0.9913270473480225 -0.05075472965836525 0.12122136354446411
vn 0.9913270473480225 -0.05075472965836525 0.12122136354446411
vn 0.9913270473480225 -0.05075472965836525 0.12122136354446411
vn 0.9913270473480225 -0.05075472965836525 0.12122136354446411
vn 0.9913270473480225 -0.05075472965836525 0.12122136354446411
vn 0.9913270473480225 -0.05075472965836525 0.12122136354446411
vn 0.9913270473480225 -0.05075472965836525 0.12122136354446411
vn 0.9913270473480225 -0.05075472965836525 0.12122136354446411
vn 0.9913270473480225 -0.05075472965836525 0.12122136354446411
vn 0.9913270473480225 -0.05075472965836525 0.12122136354446411
vn 0.9913270473480225 -0.05075472965836525 0.12122136354446411
vn 0.9913270473480225 -0.05075472965836525 0.12122136354446411
vn 0.9913270473480225 -0.05075472965836525 0.12122136354446411
vn 0.9913270473480225 -0.05075473710894585 0.12122136354446411
vn 0.9913270473480225 -0.05075472965836525 0.12122136354446411
vn 0.9913270473480225 -0.05075472965836525 0.12122136354446411
vn 0.9913270473480225 -0.05075472965836525 0.12122136354446411
vn 0.9913270473480225 -0.05075472965836525 0.12122136354446411
vn 0.9913270473480225 -0.05075472965836525 0.12122136354446411
vn 0.9913270473480225 -0.05075473710894585 0.12122136354446411
vn 0.9913270473480225 -0.05075472965836525 0.12122136354446411
vn 0.9913270473480225 -0.05075472965836525 0.12122136354446411
vn 0.9913270473480225 -0.05075472965836525 0.12122136354446411
vn 0.9913270473480225 -0.05075472965836525 0.12122136354446411
vn 0.9913270473480225 -0.05075472965836525 0.12122136354446411
vn 0.9913270473480225 -0.05075472593307495 0.12122136354446411
vn 0.9913270473480225 -0.05075472965836525 0.12122136354446411
vn 0.9913270473480225 -0.05075472965836525 0.12122136354446411
vt -0.00712962169200182 0.014971911907196045
vt 0.1480056345462799 0.02089172601699829
vt 0.18585152924060822 0.27367591857910156
vt 0.1313387006521225 0.9898698925971985
vt -0.010662619955837727 0.9843071699142456
vt 0.017715316265821457 0.7650342583656311
vt 0.20752400159835815 0.8000693321228027
vt 0.30173707008361816 0.9981922507286072
vt 0.365044504404068 0.7803846001625061
vt 0.46235471963882446 0.9532275199890137
vt 0.5340330600738525 0.6996177434921265
vt 0.592544674873352 0.9718589186668396
vt 0.620908796787262 0.7998712062835693
vt 0.7935248613357544 1.0117218494415283
vt 0.7692333459854126 0.8651183843612671
vt 1 1
vt 0.9934878349304199 0.8042786121368408
vt 0.34753116965293884 0.23498547077178955
vt 0.2649570107460022 0.043651282787323
vt 0.4590184688568115 0.1370134949684143
vt 0.41894441843032837 -0.0016771554946899414
vt 0.6550220251083374 0.14232319593429565
vt 0.6373412013053894 -0.02234649658203125
vt 0.8333333730697632 0.19999998807907104
vt 0.8333333730697632 0
vt 1 0.19999998807907104
vt 1 0
vt 0.3892585039138794 0.37675940990448
vt 0.15506085753440857 0.44754111766815186
vt 0.5551446676254272 0.3368711471557617
vt 0.7157435417175293 0.37848156690597534
vt 0.8652934432029724 0.4237367510795593
vt 1.005382776260376 0.405633807182312
vt 0.35145288705825806 0.5483492612838745
vt 0.24571534991264343 0.5924186110496521
vt 0.538881242275238 0.5549349784851074
vt 0.7158730030059814 0.6187000870704651
vt 0.8223896622657776 0.6602060198783875
vt 0.9938896298408508 0.6278765201568604
vt 0.03103667125105858 0.628481924533844
vt 0.009090933948755264 0.41592419147491455
vt 0.0020414243917912245 0.22120100259780884
g Geoset0
s 1
usemtl mat_t_vfx_smoke_cigarete
f 1/1/1 2/2/2 3/3/3
f 4/4/4 5/5/5 6/6/6
f 6/6/6 7/7/7 4/4/4
f 8/8/8 4/4/4 7/7/7
f 7/7/7 9/9/9 8/8/8
f 10/10/10 8/8/8 9/9/9
f 9/9/9 11/11/11 10/10/10
f 12/12/12 10/10/10 11/11/11
f 11/11/11 13/13/13 12/12/12
f 14/14/14 12/12/12 13/13/13
f 13/13/13 15/15/15 14/14/14
f 16/16/16 14/14/14 15/15/15
f 15/15/15 17/17/17 16/16/16
f 18/18/18 3/3/3 2/2/2
f 2/2/2 19/19/19 18/18/18
f 20/20/20 18/18/18 19/19/19
f 19/19/19 21/21/21 20/20/20
f 22/22/22 20/20/20 21/21/21
f 21/21/21 23/23/23 22/22/22
f 24/24/24 22/22/22 23/23/23
f 23/23/23 25/25/25 24/24/24
f 26/26/26 24/24/24 25/25/25
f 25/25/25 27/27/27 26/26/26
f 28/28/28 29/29/29 3/3/3
f 3/3/3 18/18/18 28/28/28
f 30/30/30 28/28/28 18/18/18
f 18/18/18 20/20/20 30/30/30
f 31/31/31 30/30/30 20/20/20
f 20/20/20 22/22/22 31/31/31
f 32/32/32 31/31/31 22/22/22
f 22/22/22 24/24/24 32/32/32
f 33/33/33 32/32/32 24/24/24
f 24/24/24 26/26/26 33/33/33
f 34/34/34 35/35/35 29/29/29
f 29/29/29 28/28/28 34/34/34
f 36/36/36 34/34/34 28/28/28
f 28/28/28 30/30/30 36/36/36
f 37/37/37 36/36/36 30/30/30
f 30/30/30 31/31/31 37/37/37
f 38/38/38 37/37/37 31/31/31
f 31/31/31 32/32/32 38/38/38
f 39/39/39 38/38/38 32/32/32
f 32/32/32 33/33/33 39/39/39
f 38/38/38 39/39/39 17/17/17
f 17/17/17 15/15/15 38/38/38
f 37/37/37 38/38/38 15/15/15
f 15/15/15 13/13/13 37/37/37
f 36/36/36 37/37/37 13/13/13
f 13/13/13 11/11/11 36/36/36
f 34/34/34 36/36/36 11/11/11
f 11/11/11 9/9/9 34/34/34
f 35/35/35 34/34/34 9/9/9
f 9/9/9 7/7/7 35/35/35
f 40/40/40 35/35/35 7/7/7
f 7/7/7 6/6/6 40/40/40
f 35/35/35 40/40/40 41/41/41
f 41/41/41 29/29/29 35/35/35
f 29/29/29 41/41/41 42/42/42
f 42/42/42 3/3/3 29/29/29
f 3/3/3 42/42/42 1/1/1
