# Exported using wow.export v0.1.64
o orcsword03
mtllib orcsword03.mtl
v -0.0425897017121315 1.6506500244140625 -0.036166898906230927
v 0 1.5497599840164185 0.19429700076580048
v 0 1.5591800212860107 0.3528420031070709
v 0 1.6519900560379028 -0.10470200330018997
v -0.0425897017121315 1.6506500244140625 -0.036166898906230927
v 0 1.9667600393295288 -0.010550799779593945
v 0.0425897017121315 1.6506500244140625 -0.036166898906230927
v 0 1.676609992980957 0.014401099644601345
v 0.0425897017121315 1.3355200290679932 -0.05449860170483589
v 0 1.5497599840164185 0.19429700076580048
v 0 1.3355200290679932 0.17518800497055054
v 0.0425897017121315 1.6506500244140625 -0.036166898906230927
v 0 1.6519900560379028 -0.10470200330018997
v 0.035789698362350464 0.7428280115127563 -0.034233901649713516
v 0 0.7428280115127563 -0.07559780031442642
v 0 1.3355200290679932 -0.13062700629234314
v -0.0425897017121315 1.6506500244140625 -0.036166898906230927
v 0 0.7428280115127563 0.007054999936372042
v 0 1.2549699544906616 0.13875600695610046
v -0.0425897017121315 1.3355200290679932 -0.05449860170483589
v 0 0.7948859930038452 0.08771420270204544
v 0 0.7637249827384949 0.20785999298095703
v -0.03578940033912659 0.7428280115127563 -0.034233901649713516
v 0 0.09196169674396515 0.05396610125899315
v 0.05905330181121826 0.11132799834012985 0.1193469986319542
v 0 0.03242560103535652 0.14271900057792664
v -0.03578940033912659 0.7428280115127563 -0.034233901649713516
v 0 0.7428280115127563 -0.07559780031442642
v 0 0.5540580153465271 -0.047155000269412994
v 0.028631899505853653 0.5584440231323242 -0.013839700259268284
v 0 0.13069500029087067 0.1847279965877533
v -0.05905330181121826 0.11132799834012985 0.1193469986319542
v -0.028631899505853653 0.5584440231323242 -0.013839700259268284
v 0 0.5626919865608215 0.01840139925479889
v 0 0.7428280115127563 0.007054999936372042
v 0.035789698362350464 0.7428280115127563 -0.034233901649713516
v 0 1.676609992980957 0.014401099644601345
v 0.0425897017121315 1.6506500244140625 -0.036166898906230927
vn -0.9918339848518372 0.10026499629020691 -0.07881160080432892
vn 5.5805500664973806e-8 -0.7019799947738647 0.7121970057487488
vn -2.1327799970549677e-7 0.7908070087432861 0.6120650172233582
vn 0.31644898653030396 0.1539590060710907 -0.9360319972038269
vn -0.9918339848518372 0.10026499629020691 -0.07881160080432892
vn -3.7995999946360826e-7 0.8891329765319824 0.45765000581741333
vn 0.9939579963684082 0.10972700268030167 0.002830199897289276
vn -1.31565997207872e-7 0.647828996181488 0.7617859840393066
vn 0.9953140020370483 -0.01869790069758892 -0.09486909955739975
vn 5.5805500664973806e-8 -0.7019799947738647 0.7121970057487488
vn 0 -0.26109299063682556 0.9653139710426331
vn 0.9939579963684082 0.10972700268030167 0.002830199897289276
vn 0.31644898653030396 0.1539590060710907 -0.9360319972038269
vn 0.9847689867019653 -0.00872563011944294 0.1736460030078888
vn 0.17619700729846954 -0.10388299822807312 -0.9788579940795898
vn -0.3241960108280182 0.007991299964487553 -0.9459559917449951
vn -0.9918339848518372 0.10026499629020691 -0.07881160080432892
vn -0.20018599927425385 0.01416650041937828 0.9796559810638428
vn 0 -0.3314509987831116 0.9434720277786255
vn -0.9990879893302917 -0.026862699538469315 -0.03318269923329353
vn 0 0.8944270014762878 -0.4472140073776245
vn 0 1 0
vn -0.9851080179214478 -0.04502810165286064 -0.1659349948167801
vn -0.23032400012016296 -0.5030239820480347 -0.8330169916152954
vn 0.9610289931297302 -0.2558499872684479 -0.10470599681138992
vn 0 -0.9588199853897095 0.2840149998664856
vn -0.9851080179214478 -0.04502810165286064 -0.1659349948167801
vn 0.17619700729846954 -0.10388299822807312 -0.9788579940795898
vn 0.0006666340050287545 -0.18206800520420074 -0.9832860231399536
vn 0.9991559982299805 0.040597300976514816 -0.006246330216526985
vn 0.22382399439811707 0.03719789907336235 0.9739189743995667
vn -0.959896981716156 -0.15571999549865723 0.23313100636005402
vn -0.999904990196228 -0.0125620998442173 0.005686679854989052
vn -0.00007479800115106627 0.21387499570846558 0.9768610000610352
vn -0.20018599927425385 0.01416650041937828 0.9796559810638428
vn 0.9847689867019653 -0.00872563011944294 0.1736460030078888
vn -1.31565997207872e-7 0.647828996181488 0.7617859840393066
vn 0.9939579963684082 0.10972700268030167 0.002830199897289276
vt 0.7155020236968994 0.8273900002241135
vt 0.29121899604797363 0.8026529997587204
vt 0.04972980171442032 0.8467710018157959
vt 0.7151839733123779 0.9742437992244959
vt 0.7118269801139832 0.915734201669693
vt 0.05472699925303459 0.8872679993510246
vt 0.7118269801139832 0.915734201669693
vt 0.7194690108299255 0.8645869940519333
vt 0.5990769863128662 0.5236139893531799
vt 0.2055159956216812 0.7087750136852264
vt 0.23574399948120117 0.5236139893531799
vt 0.5961229801177979 0.8057429939508438
vt 0.6854220032691956 0.8042709976434708
vt 0.5670210123062134 0.01137000322341919
vt 0.6324520111083984 0.01137000322341919
vt 0.7195000052452087 0.5236139893531799
vt 0.5961229801177979 0.8057429939508438
vt 0.5017060041427612 0.01137000322341919
vt 0.29337599873542786 0.4540039896965027
vt 0.5990769863128662 0.5236139893531799
vt 0.3741160035133362 0.05636101961135864
vt 0.18406300246715546 0.02943199872970581
vt 0.5670210123062134 0.01137000322341919
vt 1 0.11116999387741089
vt 0.8758450150489807 0.11145597696304321
vt 0.8758450150489807 0.0004990100860595703
vt 0.8758450150489807 0.999500393983908
vt 1 0.999500393983908
vt 1 0.7393119931221008
vt 0.8758450150489807 0.7401689887046814
vt 0.75 0.11174100637435913
vt 0.8758450150489807 0.11145597696304321
vt 0.8758450150489807 0.7401689887046814
vt 0.75 0.7409979999065399
vt 0.75 0.999500393983908
vt 0.8758450150489807 0.999500393983908
vt 0.6599599719047546 0.8586059957742691
vt 0.7155020236968994 0.8273900002241135
g Geoset0
s 1
usemtl mat_orcsword03
f 1/1/1 2/2/2 3/3/3
f 4/4/4 5/5/5 6/6/6
f 7/7/7 4/4/4 6/6/6
f 8/8/8 7/7/7 6/6/6
f 5/5/5 8/8/8 6/6/6
f 9/9/9 10/10/10 11/11/11
f 10/10/10 9/9/9 12/12/12
f 13/13/13 12/12/12 9/9/9
f 14/14/14 15/15/15 9/9/9
f 9/9/9 15/15/15 16/16/16
f 9/9/9 16/16/16 13/13/13
f 17/17/17 13/13/13 16/16/16
f 18/18/18 14/14/14 9/9/9
f 19/19/19 18/18/18 9/9/9
f 9/9/9 11/11/11 19/19/19
f 11/11/11 20/20/20 19/19/19
f 20/20/20 11/11/11 10/10/10
f 10/10/10 17/17/17 20/20/20
f 16/16/16 20/20/20 17/17/17
f 20/20/20 16/16/16 15/15/15
f 18/18/18 21/21/21 22/22/22
f 21/21/21 18/18/18 22/22/22
f 21/21/21 18/18/18 19/19/19
f 15/15/15 23/23/23 20/20/20
f 23/23/23 18/18/18 20/20/20
f 19/19/19 20/20/20 18/18/18
f 18/18/18 21/21/21 19/19/19
f 24/24/24 25/25/25 26/26/26
f 27/27/27 28/28/28 29/29/29
f 30/30/30 29/29/29 28/28/28
f 29/29/29 30/30/30 25/25/25
f 31/31/31 25/25/25 30/30/30
f 25/25/25 31/31/31 26/26/26
f 31/31/31 32/32/32 26/26/26
f 32/32/32 24/24/24 26/26/26
f 25/25/25 24/24/24 29/29/29
f 33/33/33 29/29/29 24/24/24
f 24/24/24 32/32/32 33/33/33
f 34/34/34 33/33/33 32/32/32
f 32/32/32 31/31/31 34/34/34
f 30/30/30 34/34/34 31/31/31
f 29/29/29 33/33/33 27/27/27
f 35/35/35 27/27/27 33/33/33
f 33/33/33 34/34/34 35/35/35
f 36/36/36 35/35/35 34/34/34
f 34/34/34 30/30/30 36/36/36
f 28/28/28 36/36/36 30/30/30
f 37/37/37 1/1/1 3/3/3
f 38/38/38 37/37/37 3/3/3
f 2/2/2 38/38/38 3/3/3
