# Exported using wow.export v0.1.64
o orcspear02
mtllib orcspear02.mtl
v 0 2.9699199199676514 0.2545489966869354
v 0 3.198770046234131 -0.1435060054063797
v -0.04078029841184616 1.8700900077819824 -0.10229600220918655
v 0 0.11740600317716599 -0.1754709929227829
v 0.06357250362634659 0.11740600317716599 -0.10229600220918655
v 0 0 -0.10229600220918655
v 0 0.11740600317716599 -0.029121899977326393
v -0.06357250362634659 0.11740600317716599 -0.10229600220918655
v -0.04078029841184616 1.8700900077819824 -0.10229600220918655
v 0 1.8701000213623047 -0.14927400648593903
v 0 1.824970006942749 -0.05531829968094826
v 0.04078029841184616 1.8700900077819824 -0.10229600220918655
v 0 1.8701000213623047 -0.14927400648593903
v 0.04078029841184616 1.8700900077819824 -0.10229600220918655
v 0 1.8701200485229492 0.09090030193328857
v 0 1.824970006942749 -0.05531829968094826
vn -1.3281299970913096e-7 0.0022799500729888678 0.9999970197677612
vn 4.667629838195353e-8 0.0533686988055706 -0.99857497215271
vn -0.9936079978942871 -0.08951179683208466 0.068783700466156
vn -4.530679831304951e-8 -0.2801569998264313 -0.959954023361206
vn 0.9660729765892029 -0.1918489933013916 -0.17291000485420227
vn -1.1814699973911047e-7 -1 -1.1814699973911047e-7
vn -1.5228300398462125e-8 -0.18314099311828613 0.9830870032310486
vn -0.9660729765892029 -0.1918489933013916 -0.17291000485420227
vn -0.9936079978942871 -0.08951179683208466 0.068783700466156
vn -1.5151300658544642e-8 0.011422599665820599 -0.99993497133255
vn 5.985560136423373e-8 -0.5483319759368896 0.836260974407196
vn 0.9936079978942871 -0.08951179683208466 0.068783700466156
vn -1.5151300658544642e-8 0.011422599665820599 -0.99993497133255
vn 0.9936079978942871 -0.08951179683208466 0.068783700466156
vn 0 -0.8406149744987488 0.5416340231895447
vn 5.985560136423373e-8 -0.5483319759368896 0.836260974407196
vt 0.016254300251603127 0.8262750059366226
vt 0.5500900149345398 0.9859378999099135
vt 0.4910930097103119 0.03674197196960449
vt 0.956911027431488 0.060028016567230225
vt 0.7705299854278564 0.060028016567230225
vt 0.7705299854278564 -0.002689957618713379
vt 0.5841490030288696 0.060028016567230225
vt 0.7705299854278564 0.060028016567230225
vt 0.7705309987068176 0.9963068999350071
vt 0.8901870250701904 0.9963111900724471
vt 0.6508740186691284 0.9722054991871119
vt 0.7705309987068176 0.9963068999350071
vt 0.5665079951286316 0.036742985248565674
vt 0.4910930097103119 0.03674197196960449
vt 0.24065899848937988 0.036743998527526855
vt 0.4260059893131256 0.006824016571044922
g Geoset0
s 1
usemtl mat_orcspear02
f 1/1/1 2/2/2 3/3/3
f 4/4/4 5/5/5 6/6/6
f 5/5/5 7/7/7 6/6/6
f 8/8/8 6/6/6 7/7/7
f 7/7/7 9/9/9 8/8/8
f 10/10/10 8/8/8 9/9/9
f 9/9/9 7/7/7 11/11/11
f 12/12/12 11/11/11 7/7/7
f 7/7/7 5/5/5 12/12/12
f 10/10/10 12/12/12 5/5/5
f 5/5/5 4/4/4 10/10/10
f 8/8/8 10/10/10 4/4/4
f 4/4/4 6/6/6 8/8/8
f 3/3/3 2/2/2 13/13/13
f 14/14/14 13/13/13 2/2/2
f 1/1/1 14/14/14 2/2/2
f 15/15/15 14/14/14 1/1/1
f 14/14/14 15/15/15 16/16/16
f 3/3/3 16/16/16 15/15/15
f 15/15/15 1/1/1 3/3/3
