# Exported using wow.export v0.1.64
o ti_roadcurbshort02
mtllib ti_roadcurbshort02.mtl
v 7.158577919006348 6.283681392669678 18.364368438720703
v 5.440235614776611 9.148880004882812 18.364368438720703
v -8.245952606201172 8.895033836364746 18.364355087280273
v -9.17581844329834 6.506068229675293 1.5646436214447021
v -9.175819396972656 6.506067752838135 18.364356994628906
v -8.245952606201172 8.895033836364746 18.364355087280273
v -8.245952606201172 8.895034790039062 1.4681861400604248
v -9.175817489624023 -0.01073947362601757 -16.86369514465332
v 12.012557029724121 -0.010739346034824848 -16.86369514465332
v 12.012555122375488 -0.010739491321146488 16.9260311126709
v -9.175817489624023 -0.010739260353147984 16.9260196685791
v 7.208517551422119 9.148879051208496 -0.08444126695394516
v -6.400061130523682 8.895033836364746 1.3711727857589722
v -7.314696311950684 6.506067752838135 1.5645577907562256
v 8.970022201538086 6.283681392669678 -0.06581678241491318
v -6.400061130523682 8.895033836364746 1.3711727857589722
v -8.170578956604004 8.895034790039062 -15.429336547851562
v -9.095322608947754 6.506068229675293 -15.331880569458008
v -7.314696311950684 6.506067752838135 1.5645577907562256
v 7.208517551422119 9.148879051208496 -0.08444126695394516
v 8.970022201538086 6.283681392669678 -0.06581678241491318
v 7.1997809410095215 6.283680438995361 -16.863712310791016
v 5.440240383148193 9.148879051208496 -16.863706588745117
v 5.440240383148193 9.148879051208496 -16.863706588745117
v -8.170578956604004 8.895034790039062 -15.429336547851562
v -6.400061130523682 8.895033836364746 1.3711727857589722
v 7.1997809410095215 6.283680438995361 -16.863712310791016
v -9.095322608947754 6.506068229675293 -15.331880569458008
v -8.170578956604004 8.895034790039062 -15.429336547851562
v 5.440240383148193 9.148879051208496 -16.863706588745117
v 2.623528003692627 9.14887809753418 -2.9824326038360596
v 2.623528003692627 9.14887809753418 1.4468228816986084
v -7.160550594329834 8.895031929016113 1.4199516773223877
v -7.16055154800415 8.895033836364746 -2.982438564300537
v 7.158578872680664 6.2836809158325195 1.465556025505066
v 7.158577919006348 6.283681392669678 18.364368438720703
v -9.175819396972656 6.506067752838135 18.364356994628906
v -9.17581844329834 6.506068229675293 1.5646436214447021
v -5.826596736907959 11.808134078979492 15.417585372924805
v 0.7457227110862732 11.808135032653809 15.417585372924805
v 0.745722770690918 11.808133125305176 -2.9824326038360596
v -5.826596260070801 11.808133125305176 -2.9824326038360596
v 7.158578872680664 6.2836809158325195 1.465556025505066
v 5.440237045288086 9.148879051208496 1.4468228816986084
v 5.440235614776611 9.148880004882812 18.364368438720703
v 7.158577919006348 6.283681392669678 18.364368438720703
v -9.175817489624023 -0.010739260353147984 16.9260196685791
v 1.3450262546539307 6.2836785316467285 16.9260311126709
v -9.17581844329834 6.506063938140869 16.9260196685791
v 12.012555122375488 -0.010739491321146488 16.9260311126709
v 11.297228813171387 6.2836785316467285 16.9260311126709
v -9.175817489624023 6.50606632232666 -16.86369514465332
v 1.3450275659561157 6.2836785316467285 -16.86369514465332
v -9.175817489624023 -0.01073947362601757 -16.86369514465332
v 12.012557029724121 -0.010739346034824848 -16.86369514465332
v 11.297228813171387 6.2836785316467285 -16.86369514465332
v -7.160552024841309 8.895027160644531 15.417573928833008
v -5.826596260070801 11.808133125305176 -2.9824326038360596
v -7.160550594329834 8.895031929016113 1.4199516773223877
v -5.826596736907959 11.808134078979492 15.417585372924805
v 0.745722770690918 11.808133125305176 -2.9824326038360596
v 2.623528003692627 9.14887809753418 -2.9824326038360596
v -7.16055154800415 8.895033836364746 -2.982438564300537
v 11.297228813171387 6.2836785316467285 16.9260311126709
v 12.012555122375488 -0.010739491321146488 16.9260311126709
v 12.012557029724121 -0.010739346034824848 -16.86369514465332
v 11.297228813171387 6.2836785316467285 -16.86369514465332
v 1.3450262546539307 6.2836785316467285 16.9260311126709
v 1.3450275659561157 6.2836785316467285 -16.86369514465332
v -9.17581844329834 6.506063938140869 16.9260196685791
v 1.3450262546539307 6.2836785316467285 16.9260311126709
v 1.3450275659561157 6.2836785316467285 -16.86369514465332
v -9.175817489624023 6.50606632232666 -16.86369514465332
v -9.175817489624023 -0.010739260353147984 16.9260196685791
v -9.175817489624023 -0.01073947362601757 -16.86369514465332
v 7.158578872680664 6.2836809158325195 1.465556025505066
v 2.623528003692627 9.14887809753418 1.4468228816986084
v 5.440237045288086 9.148879051208496 1.4468228816986084
v -7.160550594329834 8.895031929016113 1.4199516773223877
v -9.17581844329834 6.506068229675293 1.5646436214447021
v -8.245952606201172 8.895034790039062 1.4681861400604248
v 5.440237045288086 9.148879051208496 1.4468228816986084
v 2.623528003692627 9.14887809753418 1.4468228816986084
v 2.6235268115997314 9.148879051208496 15.417587280273438
v 5.440235614776611 9.148880004882812 18.364368438720703
v -8.245952606201172 8.895033836364746 18.364355087280273
v -7.160552024841309 8.895027160644531 15.417573928833008
v -8.245952606201172 8.895034790039062 1.4681861400604248
v -7.160550594329834 8.895031929016113 1.4199516773223877
v 0.745722770690918 11.808133125305176 -2.9824326038360596
v 2.623528003692627 9.14887809753418 1.4468228816986084
v 2.623528003692627 9.14887809753418 -2.9824326038360596
v 0.7457227110862732 11.808135032653809 15.417585372924805
v 2.6235268115997314 9.148879051208496 15.417587280273438
v -5.826596736907959 11.808134078979492 15.417585372924805
v -7.160552024841309 8.895027160644531 15.417573928833008
v -9.175819396972656 6.506067752838135 18.364356994628906
vn 0.7217880487442017 -0.4152786135673523 0.5536836981773376
vn 0.3866370618343353 0.6903661489486694 0.6114788055419922
vn -0.45790010690689087 0.6562175154685974 0.599755048751831
vn -0.6930269598960876 -0.47190552949905396 -0.5449943542480469
vn -0.6865723133087158 -0.4626834988594055 0.5608408451080322
vn -0.45790010690689087 0.6562175154685974 0.599755048751831
vn -0.4656899571418762 0.6536652445793152 -0.5965355634689331
vn -0.5773502588272095 -0.5773502588272095 -0.5773503184318542
vn 0.612069308757782 -0.5464503765106201 -0.5716320276260376
vn 0.6120690107345581 -0.5464506149291992 0.5716320872306824
vn -0.5773504376411438 -0.577350378036499 0.5773500204086304
vn 0.438281774520874 0.7162907719612122 0.5429885387420654
vn -0.3932376503944397 0.6682918071746826 0.6314667463302612
vn -0.6565236449241638 0.30959799885749817 0.6878413558006287
vn 0.750360906124115 0.4643747806549072 0.4704408049583435
vn -0.3932376503944397 0.6682918071746826 0.6314667463302612
vn -0.5151917934417725 0.6541606187820435 -0.5537610054016113
vn -0.7953521013259888 0.28607267141342163 -0.5343944430351257
vn -0.6565236449241638 0.30959799885749817 0.6878413558006287
vn 0.438281774520874 0.7162907719612122 0.5429885387420654
vn 0.750360906124115 0.4643747806549072 0.4704408049583435
vn 0.6752475500106812 0.4190039336681366 -0.6070225834846497
vn 0.31433501839637756 0.6728705167770386 -0.6696557402610779
vn 0.31433501839637756 0.6728705167770386 -0.6696557402610779
vn -0.5151917934417725 0.6541606187820435 -0.5537610054016113
vn -0.3932376503944397 0.6682918071746826 0.6314667463302612
vn 0.6752475500106812 0.4190039336681366 -0.6070225834846497
vn -0.7953521013259888 0.28607267141342163 -0.5343944430351257
vn -0.5151917934417725 0.6541606187820435 -0.5537610054016113
vn 0.31433501839637756 0.6728705167770386 -0.6696557402610779
vn 0.7449820041656494 -0.37376168370246887 -0.5525432229042053
vn 0.5874190330505371 0.4059126377105713 -0.7001241445541382
vn -0.6496164798736572 0.2551702857017517 -0.7161609530448914
vn -0.6929610967636108 -0.45763838291168213 -0.5571104288101196
vn 0.7223861217498779 -0.4163156747817993 -0.5521227717399597
vn 0.7217880487442017 -0.4152786135673523 0.5536836981773376
vn -0.6865723133087158 -0.4626834988594055 0.5608408451080322
vn -0.6930269598960876 -0.47190552949905396 -0.5449943542480469
vn -0.4308050870895386 0.6710946559906006 0.6033564209938049
vn 0.36208203434944153 0.698936402797699 0.6167532205581665
vn 0.36208197474479675 0.698936402797699 -0.6167532205581665
vn -0.4308043420314789 0.6710963845252991 -0.6033549904823303
vn 0.7223861217498779 -0.4163156747817993 -0.5521227717399597
vn 0.3901469111442566 0.686531662940979 -0.6135631203651428
vn 0.3866370618343353 0.6903661489486694 0.6114788055419922
vn 0.7217880487442017 -0.4152786135673523 0.5536836981773376
vn -0.5773504376411438 -0.577350378036499 0.5773500204086304
vn 0.007446294650435448 0.7046728730201721 0.7094932794570923
vn -0.5717625021934509 0.5839754939079285 0.5762466788291931
vn 0.6120690107345581 -0.5464506149291992 0.5716320872306824
vn 0.5408414006233215 0.6057863235473633 0.583535373210907
vn -0.5717620253562927 0.583975613117218 -0.5762470364570618
vn 0.007446795701980591 0.704673171043396 -0.7094929814338684
vn -0.5773502588272095 -0.5773502588272095 -0.5773503184318542
vn 0.612069308757782 -0.5464503765106201 -0.5716320276260376
vn 0.540841281414032 0.6057865023612976 -0.5835352540016174
vn -0.2605665922164917 0.945886492729187 0.19340066611766815
vn -0.4308043420314789 0.6710963845252991 -0.6033549904823303
vn -0.6496164798736572 0.2551702857017517 -0.7161609530448914
vn -0.4308050870895386 0.6710946559906006 0.6033564209938049
vn 0.36208197474479675 0.698936402797699 -0.6167532205581665
vn 0.7449820041656494 -0.37376168370246887 -0.5525432229042053
vn -0.6929610967636108 -0.45763838291168213 -0.5571104288101196
vn 0.5408414006233215 0.6057863235473633 0.583535373210907
vn 0.6120690107345581 -0.5464506149291992 0.5716320872306824
vn 0.612069308757782 -0.5464503765106201 -0.5716320276260376
vn 0.540841281414032 0.6057865023612976 -0.5835352540016174
vn 0.007446294650435448 0.7046728730201721 0.7094932794570923
vn 0.007446795701980591 0.704673171043396 -0.7094929814338684
vn -0.5717625021934509 0.5839754939079285 0.5762466788291931
vn 0.007446294650435448 0.7046728730201721 0.7094932794570923
vn 0.007446795701980591 0.704673171043396 -0.7094929814338684
vn -0.5717620253562927 0.583975613117218 -0.5762470364570618
vn -0.5773504376411438 -0.577350378036499 0.5773500204086304
vn -0.5773502588272095 -0.5773502588272095 -0.5773503184318542
vn 0.7223861217498779 -0.4163156747817993 -0.5521227717399597
vn 0.5874190330505371 0.4059126377105713 -0.7001241445541382
vn 0.3901469111442566 0.686531662940979 -0.6135631203651428
vn -0.6496164798736572 0.2551702857017517 -0.7161609530448914
vn -0.6930269598960876 -0.47190552949905396 -0.5449943542480469
vn -0.4656899571418762 0.6536652445793152 -0.5965355634689331
vn 0.3901469111442566 0.686531662940979 -0.6135631203651428
vn 0.5874190330505371 0.4059126377105713 -0.7001241445541382
vn 0.21192370355129242 0.9616824984550476 0.17393991351127625
vn 0.3866370618343353 0.6903661489486694 0.6114788055419922
vn -0.45790010690689087 0.6562175154685974 0.599755048751831
vn -0.2605665922164917 0.945886492729187 0.19340066611766815
vn -0.4656899571418762 0.6536652445793152 -0.5965355634689331
vn -0.6496164798736572 0.2551702857017517 -0.7161609530448914
vn 0.36208197474479675 0.698936402797699 -0.6167532205581665
vn 0.5874190330505371 0.4059126377105713 -0.7001241445541382
vn 0.7449820041656494 -0.37376168370246887 -0.5525432229042053
vn 0.36208203434944153 0.698936402797699 0.6167532205581665
vn 0.21192370355129242 0.9616824984550476 0.17393991351127625
vn -0.4308050870895386 0.6710946559906006 0.6033564209938049
vn -0.2605665922164917 0.945886492729187 0.19340066611766815
vn -0.6865723133087158 -0.4626834988594055 0.5608408451080322
vt 0.9019912481307983 0.03926968574523926
vt 0.9019912481307983 0.11860501766204834
vt 0.047897983342409134 0.11860501766204834
vt 0.00765626085922122 1.0526975393295288
vt 0.49363675713539124 1.0525676012039185
vt 0.49363675713539124 1.1189134120941162
vt 0.007723494898527861 1.1189134120941162
vt 1.0088245868682861 0.9977683424949646
vt 1.0088245868682861 0.8347930312156677
vt 1.9950385093688965 0.834793210029602
vt 1.9950385093688965 0.9964291453361511
vt 0.9900884628295898 1.1221095323562622
vt 0.5090991854667664 1.12217116355896
vt 0.5102846622467041 1.0524510145187378
vt 0.9900884628295898 1.052436351776123
vt 0.4919147789478302 1.1216851472854614
vt 0.009856849908828735 1.1216851472854614
vt 0.009856849908828735 1.0549973249435425
vt 0.4921465218067169 1.0549973249435425
vt 0.4918633997440338 1.121753454208374
vt 0.491908460855484 1.054998517036438
vt 0.009856849908828735 1.054998517036438
vt 0.009856849908828735 1.1217533349990845
vt 0.011099457740783691 1.1223737001419067
vt 0.0110970139503479 1.1550050973892212
vt 0.4915086328983307 1.1548923254013062
vt 0.3204759955406189 1.0517867803573608
vt -0.16134090721607208 1.051801085472107
vt -0.08894771337509155 1.119423508644104
vt 0.17557452619075775 1.119438648223877
vt 0.49127310514450073 0.7466567158699036
vt 0.4926359951496124 0.825520396232605
vt 0.009813062846660614 0.8256704211235046
vt 0.009707247838377953 0.7465357184410095
vt 0.5100939869880676 0.8337189555168152
vt 0.9894314408302307 0.8337081074714661
vt 0.9889988899230957 0.9974290728569031
vt 0.5093824863433838 0.9973812699317932
vt 0.6152402758598328 1.466243863105774
vt 0.721791684627533 1.466244101524353
vt 0.7217929363250732 1.2611998319625854
vt 0.615241527557373 1.261199712753296
vt 0.007716699969023466 1.052568793296814
vt 0.0076684202067554 1.1189812421798706
vt 0.49363675713539124 1.1189813613891602
vt 0.49363675713539124 1.052568793296814
vt 0.5109592080116272 1.052977204322815
vt 0.8452411890029907 1.1234736442565918
vt 0.5109592080116272 1.1234911680221558
vt 0.9908258318901062 1.0529768466949463
vt 0.9907891750335693 1.1234736442565918
vt 0.5109592080116272 1.1234911680221558
vt 0.8452411890029907 1.1234736442565918
vt 0.5109592080116272 1.0529769659042358
vt 0.9908258318901062 1.0529766082763672
vt 0.9907891750335693 1.1234736442565918
vt 0.9906092286109924 1.1201521158218384
vt 0.5915009379386902 1.157821774482727
vt 0.6881588697433472 1.1201521158218384
vt 0.9906092286109924 1.157821774482727
vt 0.9906092286109924 1.157821774482727
vt 0.9906092286109924 1.1201521158218384
vt 0.5915009379386902 1.1201521158218384
vt -0.9904025197029114 1.1182126998901367
vt -0.9904025197029114 1.0562776327133179
vt -0.008975616656243801 1.0562775135040283
vt -0.008975616656243801 1.1182126998901367
vt -0.9904025197029114 1.16600501537323
vt -0.008975616656243801 1.16600501537323
vt 1.994008183479309 1.1178808212280273
vt 1.9940084218978882 1.1640077829360962
vt 1.0079681873321533 1.1640077829360962
vt 1.0079681873321533 1.1178808212280273
vt 1.9950385093688965 1.0546526908874512
vt 1.0088245868682861 1.054652452468872
vt 0.9019912481307983 0.03926968574523926
vt 0.9019912481307983 0.11860501766204834
vt 0.9019912481307983 0.11860501766204834
vt 0.047897983342409134 0.11860501766204834
vt 0.047897983342409134 0.03926968574523926
vt 0.047897983342409134 0.11860501766204834
vt 1.7551428079605103 1.1201173067092896
vt 1.7568049430847168 1.1648893356323242
vt 1.3517751693725586 1.1648893356323242
vt 1.273594617843628 1.1201173067092896
vt 0.9907057881355286 1.1201173067092896
vt 0.9120348691940308 1.1648893356323242
vt 0.5096164345741272 1.1201173067092896
vt 0.5064753293991089 1.1648893356323242
vt 0.5915009379386902 1.157821774482727
vt 0.6887427568435669 1.1201521158218384
vt 0.5915009379386902 1.1201521158218384
vt 0.9906092286109924 1.157821774482727
vt 0.9906092286109924 1.1201521158218384
vt 0.5915009379386902 1.157821774482727
vt 0.5915009379386902 1.1201521158218384
vt 0.047897983342409134 0.03926968574523926
g Geoset0
s 1
usemtl mat_wr_wall_ionic
f 1/1/1 2/2/2 3/3/3
f 4/4/4 5/5/5 6/6/6
f 6/6/6 7/7/7 4/4/4
f 8/8/8 9/9/9 10/10/10
f 10/10/10 11/11/11 8/8/8
f 12/12/12 13/13/13 14/14/14
f 14/14/14 15/15/15 12/12/12
f 16/16/16 17/17/17 18/18/18
f 18/18/18 19/19/19 16/16/16
f 20/20/20 21/21/21 22/22/22
f 22/22/22 23/23/23 20/20/20
f 24/24/24 25/25/25 26/26/26
f 24/24/24 26/26/26 20/20/20
f 27/27/27 28/28/28 29/29/29
f 29/29/29 30/30/30 27/27/27
f 31/31/31 32/32/32 33/33/33
f 33/33/33 34/34/34 31/31/31
f 35/35/35 36/36/36 37/37/37
f 37/37/37 38/38/38 35/35/35
f 39/39/39 40/40/40 41/41/41
f 41/41/41 42/42/42 39/39/39
f 43/43/43 44/44/44 45/45/45
f 45/45/45 46/46/46 43/43/43
f 47/47/47 48/48/48 49/49/49
f 50/50/50 48/48/48 47/47/47
f 48/48/48 50/50/50 51/51/51
f 52/52/52 53/53/53 54/54/54
f 53/53/53 55/55/55 54/54/54
f 53/53/53 56/56/56 55/55/55
f 57/57/57 58/58/58 59/59/59
f 57/57/57 60/60/60 58/58/58
f 58/58/58 61/61/61 62/62/62
f 62/62/62 63/63/63 58/58/58
f 58/58/58 63/63/63 59/59/59
f 64/64/64 65/65/65 66/66/66
f 66/66/66 67/67/67 64/64/64
f 68/68/68 64/64/64 67/67/67
f 67/67/67 69/69/69 68/68/68
f 70/70/70 71/71/71 72/72/72
f 72/72/72 73/73/73 70/70/70
f 74/74/74 70/70/70 73/73/73
f 73/73/73 75/75/75 74/74/74
f 76/76/76 77/77/77 78/78/78
f 79/79/79 77/77/77 76/76/76
f 76/76/76 80/80/80 79/79/79
f 80/80/80 81/81/81 79/79/79
f 82/82/82 83/83/83 84/84/84
f 84/84/84 85/85/85 82/82/82
f 85/85/85 84/84/84 86/86/86
f 84/84/84 87/87/87 86/86/86
f 88/88/88 86/86/86 87/87/87
f 87/87/87 89/89/89 88/88/88
f 90/90/90 91/91/91 92/92/92
f 90/90/90 93/93/93 91/91/91
f 93/93/93 94/94/94 91/91/91
f 94/94/94 93/93/93 95/95/95
f 95/95/95 96/96/96 94/94/94
f 1/1/1 3/3/3 97/97/97
