# Exported using wow.export v0.1.64
o ti_roadcurbnub01
mtllib ti_roadcurbnub01.mtl
v 12.337316513061523 -0.020356202498078346 8.221551895141602
v -12.34643268585205 -0.020767221227288246 7.8994903564453125
v -12.526650428771973 -0.05483474209904671 -8.196452140808105
v 10.723311424255371 12.01840591430664 -6.125575065612793
v 10.935959815979004 11.933196067810059 6.384984493255615
v 10.783284187316895 7.337087154388428 6.257299900054932
v 10.559454917907715 7.422426223754883 -5.927846431732178
v -11.139178276062012 12.023050308227539 -6.468585014343262
v -10.959576606750488 7.4278740882873535 -6.254434108734131
v -10.900652885437012 11.92778205871582 6.041306972503662
v -10.760078430175781 7.330897808074951 5.931334018707275
v 12.970919609069824 13.553751945495605 -8.359001159667969
v -13.36522102355957 13.553194999694824 -8.720495223999023
v -13.451915740966797 18.85381317138672 -8.782959938049316
v -13.250772476196289 18.769184112548828 8.382845878601074
v -13.160560607910156 13.469522476196289 8.272427558898926
v 13.262582778930664 18.769641876220703 8.742304801940918
v 13.175607681274414 13.469868659973145 8.633946418762207
v 13.061439514160156 18.854270935058594 -8.423535346984863
v 10.935959815979004 11.933196067810059 6.384984493255615
v 10.723311424255371 12.01840591430664 -6.125575065612793
v -11.139178276062012 12.023050308227539 -6.468585014343262
v -10.900652885437012 11.92778205871582 6.041306972503662
v -12.526650428771973 -0.05483474209904671 -8.196452140808105
v -12.34643268585205 -0.020767221227288246 7.8994903564453125
v -12.4366455078125 6.402262210845947 7.619150161743164
v -12.6133451461792 6.4790449142456055 -7.933913230895996
v 12.157095909118652 -0.05442078784108162 -7.874412536621094
v 12.24761962890625 6.47935676574707 -7.6139397621154785
v 12.337316513061523 -0.020356202498078346 8.221551895141602
v 12.424291610717773 6.40278434753418 7.9391350746154785
v 10.783284187316895 7.337087154388428 6.257299900054932
v -10.760078430175781 7.330897808074951 5.931334018707275
v -10.959576606750488 7.4278740882873535 -6.254434108734131
v 10.559454917907715 7.422426223754883 -5.927846431732178
v 12.157095909118652 -0.05442078784108162 -7.874412536621094
vn 0.5653996467590332 -0.5780084729194641 0.5884127020835876
vn -0.5652062296867371 -0.5808067321777344 0.5858373641967773
vn -0.5653876066207886 -0.5803261995315552 -0.5861384868621826
vn 0.7018511295318604 -0.05827278271317482 -0.7099360823631287
vn 0.709927499294281 -0.045393314212560654 0.7028104066848755
vn 0.7042746543884277 -0.04626178368926048 0.7084187269210815
vn 0.7080046534538269 -0.05905681475996971 -0.7037340998649597
vn -0.7034515142440796 -0.06384748965501785 -0.7078696489334106
vn -0.7103273272514343 -0.06283093243837357 -0.7010616064071655
vn -0.7091860771179199 -0.04201563820242882 0.703768253326416
vn -0.7031753659248352 -0.041052259504795074 0.7098303437232971
vn 0.6240071654319763 -0.4679119884967804 -0.6258382201194763
vn -0.6233689188957214 -0.4667271673679352 -0.6273571252822876
vn -0.7061619162559509 -0.021155942231416702 -0.7077342867851257
vn -0.7076079845428467 -0.028205949813127518 0.7060420513153076
vn -0.6250884532928467 -0.4717034101486206 0.6219005584716797
vn 0.706362783908844 -0.02768733724951744 0.707308292388916
vn 0.6243868470191956 -0.47025036811828613 0.6237031817436218
vn 0.7075091004371643 -0.021770359948277473 -0.7063688039779663
vn 0.294403076171875 -0.9099221229553223 0.2921789288520813
vn 0.29007089138031006 -0.9093340635299683 -0.29827913641929626
vn -0.29269030690193176 -0.9100024104118347 -0.29364609718322754
vn -0.29364073276519775 -0.9090454578399658 0.29565438628196716
vn -0.5653876066207886 -0.5803261995315552 -0.5861384868621826
vn -0.5652062296867371 -0.5808067321777344 0.5858373641967773
vn -0.6248095631599426 0.4921533763408661 0.606133759021759
vn -0.6259046792984009 0.4881623387336731 -0.6082276105880737
vn 0.5652056932449341 -0.5831303000450134 -0.5835251212120056
vn 0.6256210803985596 0.4908950924873352 -0.6063169836997986
vn 0.5653996467590332 -0.5780084729194641 0.5884127020835876
vn 0.625080943107605 0.4889988899230957 0.6084027290344238
vn 0.25086209177970886 0.9363137483596802 0.2457331418991089
vn -0.24546471238136292 0.938032329082489 0.24462708830833435
vn -0.2572123408317566 0.9348434209823608 -0.2447642832994461
vn 0.24977825582027435 0.936832845211029 -0.24485725164413452
vn 0.5652056932449341 -0.5831303000450134 -0.5835251212120056
vt 0.014001518487930298 0.8398313522338867
vt 0.48960280418395996 0.8375474810600281
vt 0.4886469841003418 0.9939815402030945
vt 0.9909229278564453 0.995297372341156
vt 0.5093401074409485 0.995297372341156
vt 0.5093401074409485 0.8966023325920105
vt 0.9909229278564453 0.8966023325920105
vt 0.5093052983283997 0.995297372341156
vt 0.5093052983283997 0.8966023325920105
vt 0.9909229278564453 0.995297372341156
vt 0.9909229278564453 0.8966023325920105
vt 0.47715824842453003 1.1274373531341553
vt 1.1799805164337158 1.1274373531341553
vt 1.1799806356430054 1.1608926057815552
vt 0.4771582782268524 1.1608926057815552
vt 0.47715824842453003 1.1274373531341553
vt -0.225663959980011 1.1608927249908447
vt -0.22566400468349457 1.1274373531341553
vt 0.4771582782268524 1.1608926057815552
vt -0.22566403448581696 1.0521116256713867
vt 0.47715824842453003 1.0521116256713867
vt 1.1799805164337158 1.0521116256713867
vt 0.47715824842453003 1.0521116256713867
vt -0.17157834768295288 0.05734133720397949
vt 0.6857513785362244 0.05734127759933472
vt 0.6857513785362244 0.1216161847114563
vt -0.1715782880783081 0.12161630392074585
vt -1.179481029510498 0.05734139680862427
vt -1.1794809103012085 0.12161630392074585
vt -0.17157834768295288 0.05734133720397949
vt -0.1715782880783081 0.12161630392074585
vt -0.17157816886901855 0.1552971601486206
vt 0.5603804588317871 0.15529710054397583
vt -0.17157816886901855 0.1552971601486206
vt -1.1698966026306152 0.1552971601486206
vt 0.014365822076797485 0.9940265417098999
g Geoset0
s 1
usemtl mat_wr_wall_ionic
f 1/1/1 2/2/2 3/3/3
f 4/4/4 5/5/5 6/6/6
f 6/6/6 7/7/7 4/4/4
f 8/8/8 4/4/4 7/7/7
f 7/7/7 9/9/9 8/8/8
f 10/10/10 8/8/8 9/9/9
f 9/9/9 11/11/11 10/10/10
f 5/5/5 10/10/10 11/11/11
f 11/11/11 6/6/6 5/5/5
f 12/12/12 13/13/13 14/14/14
f 15/15/15 14/14/14 13/13/13
f 13/13/13 16/16/16 15/15/15
f 17/17/17 15/15/15 16/16/16
f 16/16/16 18/18/18 17/17/17
f 19/19/19 17/17/17 18/18/18
f 14/14/14 19/19/19 12/12/12
f 18/18/18 12/12/12 19/19/19
f 12/12/12 18/18/18 20/20/20
f 20/20/20 21/21/21 12/12/12
f 13/13/13 12/12/12 21/21/21
f 21/21/21 22/22/22 13/13/13
f 16/16/16 13/13/13 22/22/22
f 22/22/22 23/23/23 16/16/16
f 18/18/18 16/16/16 23/23/23
f 23/23/23 20/20/20 18/18/18
f 24/24/24 25/25/25 26/26/26
f 26/26/26 27/27/27 24/24/24
f 28/28/28 24/24/24 27/27/27
f 27/27/27 29/29/29 28/28/28
f 30/30/30 28/28/28 29/29/29
f 29/29/29 31/31/31 30/30/30
f 25/25/25 30/30/30 31/31/31
f 31/31/31 26/26/26 25/25/25
f 26/26/26 31/31/31 32/32/32
f 32/32/32 33/33/33 26/26/26
f 27/27/27 26/26/26 33/33/33
f 33/33/33 34/34/34 27/27/27
f 29/29/29 27/27/27 34/34/34
f 34/34/34 35/35/35 29/29/29
f 31/31/31 29/29/29 35/35/35
f 35/35/35 32/32/32 31/31/31
f 36/36/36 1/1/1 3/3/3
