# Exported using wow.export v0.1.64
o ti_roadcolumn03
mtllib ti_roadcolumn03.mtl
v 0.11104054003953934 23.443517684936523 5.409867286682129
v -4.546317100524902 23.443517684936523 2.7651045322418213
v -4.625962734222412 22.076683044433594 2.8121848106384277
v 4.831308841705322 21.057954788208008 -2.737150192260742
v 0.0340287983417511 21.057952880859375 -5.461862564086914
v 0.03437047079205513 22.63419532775879 -5.356017589569092
v 0.03454587608575821 23.443513870239258 -5.301675319671631
v 0.047793854027986526 9.227346420288086 -4.541036605834961
v 4.051860809326172 9.227347373962402 -2.261122465133667
v 4.870275020599365 21.057950973510742 2.779783248901367
v 4.07943058013916 9.227347373962402 2.346453905105591
v 4.7414469718933105 22.59568977355957 -2.6854331493377686
v 4.691901683807373 23.44351577758789 -2.656924247741699
v 4.776549816131592 22.653583526611328 2.7256503105163574
v 0.11195806413888931 21.057952880859375 5.571991920471191
v 0.10293252766132355 9.22734546661377 4.67412805557251
v 0.0340287983417511 21.057952880859375 -5.461862564086914
v 0.047793854027986526 9.227346420288086 -4.541036605834961
v -3.9286999702453613 9.22734546661377 -2.213362693786621
v -4.724285125732422 21.05794906616211 -2.6696524620056152
v -3.9011361598968506 9.22734546661377 2.394213914871216
v -4.685324192047119 21.05794906616211 2.8472745418548584
v 0.10293252766132355 9.22734546661377 4.67412805557251
v 4.7301506996154785 23.44351577758789 2.69884991645813
v -4.6611199378967285 22.136402130126953 -2.6339447498321533
v -4.63514518737793 22.579875946044922 -2.619260787963867
v 0.03437047079205513 22.63419532775879 -5.356017589569092
v -3.928699493408203 9.22734546661377 -2.2133684158325195
v 0.04779451712965965 9.22734546661377 -4.541036605834961
v -5.249687194824219 7.3634161949157715 -5.042738437652588
v 4.079431533813477 9.227346420288086 2.3464481830596924
v 0.10293314605951309 9.227344512939453 4.674122333526611
v 5.378546237945557 7.362824440002441 5.170890808105469
v 4.051861763000488 9.227346420288086 -2.2611284255981445
v 5.463863849639893 7.363461971282959 -5.299605369567871
v 0.06027567386627197 7.363438129425049 -5.239960670471191
v 0.059743013232946396 6.516605854034424 -7.273575782775879
v -7.263001441955566 6.516464710235596 -7.323818683624268
v 0.09257558733224869 0.013538665138185024 -7.842844009399414
v -7.826629638671875 0.013331609778106213 -7.900364398956299
v 8.0737943649292 0.013748529367148876 -7.575431823730469
v 7.528281211853027 6.516752243041992 -7.026827335357666
v 8.255632400512695 -0.06275957077741623 7.94287109375
v 7.6922607421875 6.445681571960449 7.408915996551514
v 0.11271779984235764 -0.06297263503074646 7.880021095275879
v 0.180625319480896 6.445433139801025 7.354703426361084
v 0.11188466101884842 7.362801551818848 5.3675150871276855
v -7.6447930335998535 -0.06317351013422012 7.61791467666626
v -7.09899377822876 6.445194244384766 7.111914157867432
v -5.335015773773193 7.362782001495361 5.4277753829956055
v -3.9011354446411133 9.22734546661377 2.3942081928253174
v -7.826630592346191 0.013331610709428787 -7.900362491607666
v 0.11271779984235764 -0.06297263503074646 7.88002347946167
v -7.64479398727417 -0.06317351013422012 7.617918491363525
v 0.2522839903831482 23.051422119140625 -0.05127246677875519
v 0.03454582393169403 23.44351577758789 -5.301684379577637
v 0.03437041491270065 22.634199142456055 -5.356027126312256
v 4.691901683807373 23.443519592285156 -2.656933546066284
v 4.7414469718933105 22.595693588256836 -2.6854424476623535
v 4.7301506996154785 23.443519592285156 2.698840856552124
v 0.11104048788547516 23.44352149963379 5.409858226776123
v 4.77655029296875 22.653587341308594 2.7256414890289307
v -4.63514518737793 22.579885482788086 -2.6192641258239746
v -4.6611199378967285 22.13640785217285 -2.6339542865753174
v -4.5463175773620605 23.44352149963379 2.7650957107543945
v -4.62596321105957 22.07668685913086 2.812175989151001
v 0.09257559478282928 0.013538665138185024 -7.842841148376465
v 8.0737943649292 0.013748528435826302 -7.575430393218994
v 8.255632400512695 -0.06275957077741623 7.942873477935791
vn 0.007127308752387762 0.0718030259013176 0.9973933696746826
vn -0.4928494691848755 0.06210975721478462 0.8678950071334839
vn -0.7540619373321533 0.07038729637861252 0.6530208587646484
vn 0.8624240159988403 -0.004920666571706533 -0.5061626434326172
vn -0.007066048681735992 -0.005401660222560167 -0.9999604225158691
vn 0.17773978412151337 0.06980437785387039 -0.9815986752510071
vn 0.49291476607322693 0.06159104034304619 -0.8678948879241943
vn -0.005887340754270554 -0.08242382109165192 -0.9965800046920776
vn 0.8602963089942932 -0.08173728734254837 -0.5031989812850952
vn 0.8695535659790039 -0.004215489607304335 0.4938206672668457
vn 0.8660363554954529 -0.08071780204772949 0.49342235922813416
vn 0.7539646625518799 0.06995265930891037 -0.6531798243522644
vn 0.49286818504333496 0.061446890234947205 -0.867931604385376
vn 0.761171817779541 0.07055524736642838 0.6447010040283203
vn 0.007034962065517902 -0.003978880122303963 0.9999673366546631
vn 0.00601948332041502 -0.08038492500782013 0.9967457056045532
vn -0.007066048681735992 -0.005401660222560167 -0.9999604225158691
vn -0.005887340754270554 -0.08242382109165192 -0.9965800046920776
vn -0.8661876916885376 -0.08209072798490524 -0.49293002486228943
vn -0.8694813847541809 -0.005173046141862869 -0.493938684463501
vn -0.8600229024887085 -0.08107130974531174 0.5037738680839539
vn -0.8625125288963318 -0.004455890040844679 0.5060160756111145
vn 0.00601948332041502 -0.08038492500782013 0.9967457056045532
vn 0.5051366090774536 0.06233872100710869 0.8607850074768066
vn -0.761089026927948 0.06986337155103683 -0.644874095916748
vn -0.5051525831222534 0.06152414157986641 -0.8608342409133911
vn 0.17773978412151337 0.06980437785387039 -0.9815986752510071
vn -0.6374414563179016 0.7515912055969238 -0.1696438491344452
vn -0.017184752970933914 0.6019719839096069 -0.7983322739601135
vn -0.27046945691108704 0.9312156438827515 -0.244302436709404
vn 0.6423542499542236 0.7472955584526062 0.1700894683599472
vn 0.0175608042627573 0.6002264022827148 0.7996373176574707
vn 0.25999972224235535 0.929661214351654 0.2610175311565399
vn 0.618568480014801 0.7690954804420471 -0.16082657873630524
vn 0.2539442479610443 0.9284435510635376 -0.27111777663230896
vn -0.01685698889195919 0.7131836414337158 -0.7007745504379272
vn 0.00880732387304306 0.6047489643096924 -0.7963674664497375
vn -0.5842614769935608 0.5630719661712646 -0.5844557285308838
vn 0.020205646753311157 0.09256012737751007 -0.9955020546913147
vn -0.7033724188804626 0.1300896555185318 -0.6988160610198975
vn 0.7097851037979126 0.12523691356182098 -0.6931961178779602
vn 0.5970311164855957 0.5557144284248352 -0.5785631537437439
vn 0.7024469375610352 0.12518095970153809 0.7006411552429199
vn 0.5862051844596863 0.5593593716621399 0.5860722064971924
vn -0.020608240738511086 0.08556066453456879 0.9961197972297668
vn -0.012425833381712437 0.5892714262008667 0.807839572429657
vn 0.013146559707820415 0.6970555782318115 0.7168965935707092
vn -0.7092722058296204 0.12041362375020981 0.6945742964744568
vn -0.6000543832778931 0.5390289425849915 0.5910859107971191
vn -0.27977660298347473 0.9132179021835327 0.2962398827075958
vn -0.6139601469039917 0.7727329134941101 0.16104884445667267
vn 0.00018170414841733873 -0.9999891519546509 -0.004654505755752325
vn 0.00018170414841733873 -0.9999891519546509 -0.004654505755752325
vn 0.00018170414841733873 -0.9999891519546509 -0.004654505755752325
vn -0.0525846965610981 0.9978212714195251 -0.03984355181455612
vn -0.8384342193603516 0.5401141047477722 0.07283437252044678
vn -0.8012992143630981 0.5981536507606506 -0.011479886248707771
vn 0.3860761225223541 0.5552316308021545 0.736656665802002
vn 0.4489087760448456 0.5933308005332947 0.6681612730026245
vn 0.3958785831928253 0.5686001777648926 -0.7210922241210938
vn 0.0000028351007586024934 0.9977124333381653 -0.06760060042142868
vn 0.46229395270347595 0.5744075179100037 -0.6755296587944031
vn -0.43301281332969666 0.524218738079071 0.7332766056060791
vn -0.4518432915210724 0.6020411252975464 0.6583191752433777
vn -0.38906675577163696 0.5543642044067383 -0.7357359528541565
vn -0.48703911900520325 0.5962345600128174 -0.6381984353065491
vn 0.00005803459862363525 -0.9999894499778748 -0.004592287819832563
vn 0.0001786889770301059 -0.9999894499778748 -0.004592441953718662
vn 0.000060612372180912644 -0.9999891519546509 -0.004653262440115213
vt 0.0005491543561220169 0.9995005130767822
vt -0.3341161608695984 0.9995005130767822
vt -0.33426710963249207 0.903450071811676
vt 0.674444854259491 0.8318616151809692
vt 0.9995006322860718 0.8318616151809692
vt 0.9992170929908752 0.9426276087760925
vt 0.9990715384483337 0.9995000958442688
vt 0.9995569586753845 0.0004996061325073242
vt 0.6737812757492065 0.0004996061325073242
vt 0.3299613893032074 0.8318616151809692
vt 0.3285417854785919 0.0004996061325073242
vt 0.6742790341377258 0.9399214386940002
vt 0.6741876006126404 0.9995002746582031
vt 0.33339065313339233 0.9439898729324341
vt 0.0004996955394744873 0.8318616151809692
vt -0.0016389628872275352 0.0004994869232177734
vt -0.9987940192222595 0.8318616151809692
vt -0.998850405216217 0.0004996061325073242
vt -0.6651588678359985 0.0004996061325073242
vt -0.665174663066864 0.8318616151809692
vt -0.33363744616508484 0.0004996061325073242
vt -0.3343796133995056 0.8318616151809692
vt 0.0023455191403627396 0.0004994869232177734
vt 0.32973429560661316 0.9995002746582031
vt -0.6650426387786865 0.9076467156410217
vt -0.6649883389472961 0.9388105273246765
vt -0.9985105395317078 0.9426276087760925
vt 0.8907103538513184 0.25433194637298584
vt 1.0723371505737305 0.25433194637298584
vt 1.0038273334503174 0.16501730680465698
vt 0.661151647567749 0.2543320059776306
vt 0.4789600074291229 0.2543318271636963
vt 0.5485237836837769 0.16495805978775024
vt 0.8897385597229004 0.2543320059776306
vt 1.0038940906524658 0.16502165794372559
vt 1.1128332614898682 0.1650194525718689
vt 1.259947657585144 0.12144994735717773
vt 1.0355949401855469 0.12144768238067627
vt 1.260298252105713 0.001420736312866211
vt 1.035624623298645 0.0014190077781677246
vt 1.035601258277893 0.0014224052429199219
vt 1.0355733633041382 0.12145233154296875
vt 0.519582986831665 0.0008001923561096191
vt 0.5195841789245605 0.12031471729278564
vt 0.29570209980010986 0.0007985234260559082
vt 0.29604730010032654 0.12031066417694092
vt 0.438838928937912 0.16495591402053833
vt 0.519584059715271 0.0007968544960021973
vt 0.519585132598877 0.12030684947967529
vt 0.5479851961135864 0.16495388746261597
vt 0.662123441696167 0.25433194637298584
vt 0.8009339570999146 0.8018323183059692
vt 0.20408140122890472 0.5072716474533081
vt 0.21641859412193298 0.7999125719070435
vt 0.5096832513809204 0.4805901050567627
vt 0.999500036239624 0.49925196170806885
vt 0.9355599880218506 0.6274203062057495
vt 0.7491894960403442 0.0004994869232177734
vt 0.686374843120575 0.0007648468017578125
vt 0.24968880414962769 0.0012472867965698242
vt 0.0004991590976715088 0.500747799873352
vt 0.3130927085876465 0.001152336597442627
vt 0.7503114938735962 0.998752236366272
vt 0.6871309876441956 0.9988468885421753
vt 0.25081074237823486 0.9995005130767822
vt 0.3265015482902527 0.9993871450424194
vt 0.7962505221366882 0.5030248761177063
vt 0.7836424112319946 0.2019442319869995
vt 0.19912616908550262 0.20002442598342896
g Geoset0
s 1
usemtl mat_wr_column_flat_middle
f 1/1/1 2/2/2 3/3/3
f 4/4/4 5/5/5 6/6/6
f 4/4/4 6/6/6 7/7/7
f 8/8/8 5/5/5 4/4/4
f 4/4/4 9/9/9 8/8/8
f 10/10/10 11/11/11 9/9/9
f 9/9/9 4/4/4 10/10/10
f 4/4/4 12/12/12 10/10/10
f 7/7/7 12/12/12 4/4/4
f 7/7/7 13/13/13 12/12/12
f 12/12/12 14/14/14 10/10/10
f 15/15/15 10/10/10 14/14/14
f 11/11/11 10/10/10 15/15/15
f 15/15/15 16/16/16 11/11/11
f 17/17/17 18/18/18 19/19/19
f 19/19/19 20/20/20 17/17/17
f 20/20/20 19/19/19 21/21/21
f 21/21/21 22/22/22 20/20/20
f 22/22/22 21/21/21 23/23/23
f 23/23/23 15/15/15 22/22/22
f 15/15/15 14/14/14 24/24/24
f 24/24/24 1/1/1 15/15/15
f 22/22/22 15/15/15 1/1/1
f 1/1/1 3/3/3 22/22/22
f 20/20/20 22/22/22 3/3/3
f 3/3/3 25/25/25 20/20/20
f 17/17/17 20/20/20 25/25/25
f 17/17/17 25/25/25 26/26/26
f 26/26/26 27/27/27 17/17/17
g Geoset1
s 1
usemtl mat_wr_wall_ionic
f 28/28/28 29/29/29 30/30/30
f 31/31/31 32/32/32 33/33/33
f 34/34/34 31/31/31 33/33/33
f 33/33/33 35/35/35 34/34/34
f 29/29/29 34/34/34 35/35/35
f 29/29/29 35/35/35 36/36/36
f 29/29/29 36/36/36 30/30/30
f 36/36/36 37/37/37 30/30/30
f 37/37/37 38/38/38 30/30/30
f 37/37/37 39/39/39 38/38/38
f 39/39/39 40/40/40 38/38/38
f 39/39/39 37/37/37 41/41/41
f 35/35/35 37/37/37 36/36/36
f 37/37/37 35/35/35 42/42/42
f 37/37/37 42/42/42 41/41/41
f 43/43/43 41/41/41 42/42/42
f 42/42/42 44/44/44 43/43/43
f 44/44/44 42/42/42 35/35/35
f 35/35/35 33/33/33 44/44/44
f 45/45/45 43/43/43 44/44/44
f 46/46/46 45/45/45 44/44/44
f 46/46/46 44/44/44 33/33/33
f 47/47/47 46/46/46 33/33/33
f 32/32/32 47/47/47 33/33/33
f 45/45/45 46/46/46 48/48/48
f 46/46/46 49/49/49 48/48/48
f 46/46/46 47/47/47 49/49/49
f 47/47/47 50/50/50 49/49/49
f 32/32/32 50/50/50 47/47/47
f 32/32/32 51/51/51 50/50/50
f 51/51/51 28/28/28 30/30/30
f 30/30/30 50/50/50 51/51/51
f 50/50/50 30/30/30 38/38/38
f 38/38/38 49/49/49 50/50/50
f 49/49/49 38/38/38 40/40/40
f 40/40/40 48/48/48 49/49/49
g Geoset2
s 1
usemtl mat_wr_wall_plain
f 52/52/52 53/53/53 54/54/54
f 55/55/55 56/56/56 57/57/57
f 58/58/58 56/56/56 55/55/55
f 58/58/58 55/55/55 59/59/59
f 60/60/60 55/55/55 61/61/61
f 62/62/62 55/55/55 60/60/60
f 59/59/59 55/55/55 62/62/62
f 55/55/55 57/57/57 63/63/63
f 55/55/55 63/63/63 64/64/64
f 55/55/55 65/65/65 61/61/61
f 55/55/55 66/66/66 65/65/65
f 55/55/55 64/64/64 66/66/66
f 52/52/52 67/67/67 53/53/53
f 68/68/68 53/53/53 67/67/67
f 68/68/68 69/69/69 53/53/53
