# Exported using wow.export v0.1.64
o largebasket01
mtllib largebasket01.mtl
v -0.5933671593666077 -0.07879704236984253 0.5662105679512024
v -0.8287224769592285 -0.07879704236984253 -0.0019873459823429585
v -0.026546940207481384 -0.22169257700443268 -0.00198738113977015
v -0.025169217959046364 2.5112924575805664 -0.001987377181649208
v 0.9792724251747131 2.0952389240264893 -0.0019875087309628725
v 0.6850781440734863 2.0952389240264893 -0.7122349143028259
v 0.6850783228874207 2.0952389240264893 0.7082600593566895
v -0.02516913041472435 2.0952389240264893 1.0024542808532715
v 0.7783840894699097 0.7247561812400818 0.8015658259391785
v -0.025169143453240395 0.7247561812400818 1.1344085931777954
v 0.5430287718772888 -0.07879704236984253 0.5662105083465576
v -0.025169173255562782 -0.07879704236984253 0.8015658259391785
v -0.8287224769592285 0.7247561812400818 0.801565945148468
v -0.5933671593666077 -0.07879704236984253 0.5662105679512024
v -1.1615651845932007 0.7247561812400818 -0.001987331546843052
v -0.8287224769592285 -0.07879704236984253 -0.0019873459823429585
v -0.7354166507720947 2.0952389240264893 0.708260178565979
v -1.0296108722686768 2.0952389240264893 -0.001987333409488201
v -0.735416829586029 2.0952389240264893 -0.7122347354888916
v -0.02516939491033554 2.0952389240264893 -1.0064289569854736
v -0.8287227153778076 0.7247561812400818 -0.8055405020713806
v -0.02516944147646427 0.7247561812400818 -1.138383388519287
v 0.7783839106559753 0.7247561812400818 -0.8055407404899597
v 1.1112266778945923 0.7247561812400818 -0.0019875301513820887
v -0.5933672785758972 -0.07879704236984253 -0.5701851844787598
v -0.025169383734464645 -0.07879704236984253 -0.8055406212806702
v 0.5430286526679993 -0.07879704236984253 -0.5701854228973389
v 0.7783839702606201 -0.07879704236984253 -0.0019874863792210817
v -0.025169383734464645 -0.07879704236984253 -0.8055406212806702
v 0.5430286526679993 -0.07879704236984253 -0.5701854228973389
v -0.024438653141260147 -0.22169257700443268 -0.0031459869351238012
v -0.5933672785758972 -0.07879704236984253 -0.5701851844787598
v 0.7783839702606201 -0.07879704236984253 -0.0019874863792210817
v -0.02456400729715824 -0.22169256210327148 -0.0005261431797407568
v 0.5430287718772888 -0.07879704236984253 0.5662105083465576
v -0.025169173255562782 -0.07879704236984253 0.8015658259391785
vn -0.5496079325675964 -0.7160344123840332 0.43037867546081543
vn -0.6929811239242554 -0.7160115242004395 -0.08428951352834702
vn -0.12889832258224487 -0.9909235239028931 0.038154590874910355
vn -8.165136478055501e-8 1 2.0412841195138753e-8
vn 0.8558512926101685 0.508834719657898 -0.09276749938726425
vn 0.5395816564559937 0.5088347792625427 -0.6707747578620911
vn 0.6707746982574463 0.5088347792625427 0.5395817756652832
vn 0.09276740252971649 0.5088346600532532 0.8558512926101685
vn 0.6960926055908203 -0.1490643471479416 0.7023068070411682
vn -0.004394110292196274 -0.1490643173456192 0.9888177514076233
vn 0.43040621280670166 -0.7160059809684753 0.549623429775238
vn -0.09516032040119171 -0.786592423915863 0.6100957989692688
vn -0.7023068070411682 -0.14906428754329681 0.6960926651954651
vn -0.5496079325675964 -0.7160344123840332 0.43037867546081543
vn -0.9888177514076233 -0.14906427264213562 -0.004394065588712692
vn -0.6929811239242554 -0.7160115242004395 -0.08428951352834702
vn -0.5395817756652832 0.508834719657898 0.6707746982574463
vn -0.8558512926101685 0.508834719657898 0.09276744723320007
vn -0.6707748174667358 0.5088347792625427 -0.5395816564559937
vn -0.09276755154132843 0.5088347792625427 -0.8558512330055237
vn -0.6960926651954651 -0.1490643173456192 -0.7023068070411682
vn 0.004394032992422581 -0.149064302444458 -0.9888177514076233
vn 0.7023068070411682 -0.149064302444458 -0.6960926651954651
vn 0.9888177514076233 -0.1490643173456192 0.004394021816551685
vn -0.3750211298465729 -0.7880395650863647 -0.4882139265537262
vn 0.08430280536413193 -0.7160237431526184 -0.692966878414154
vn 0.5496081709861755 -0.7160143256187439 -0.43041184544563293
vn 0.6107003092765808 -0.7886047959327698 0.07174722850322723
vn 0.08430280536413193 -0.7160237431526184 -0.692966878414154
vn 0.5496081709861755 -0.7160143256187439 -0.43041184544563293
vn 0.05296461656689644 -0.9918628931045532 -0.1157701313495636
vn -0.3750211298465729 -0.7880395650863647 -0.4882139265537262
vn 0.6107003092765808 -0.7886047959327698 0.07174722850322723
vn 0.07437606155872345 -0.9913076758384705 0.10852309316396713
vn 0.43040621280670166 -0.7160059809684753 0.549623429775238
vn -0.09516032040119171 -0.786592423915863 0.6100957989692688
vt 0.9772320985794067 0.011588096618652344
vt 0.02485114336013794 0.01158815622329712
vt 0.49583327770233154 0.2700157165527344
vt 0.4947916567325592 0.9922588467597961
vt 0.018601179122924805 0.8347311019897461
vt 0.9709821343421936 0.8347311019897461
vt 0.9709821343421936 0.8347311019897461
vt 0.018601179122924805 0.8347311019897461
vt 0.9709821343421936 0.3158329725265503
vt 0.018601179122924805 0.3158329725265503
vt 0.9709821343421936 0.01158815622329712
vt 0.018601179122924805 0.01158815622329712
vt 0.9709821343421936 0.3158329129219055
vt 0.9709821343421936 0.01158815622329712
vt 0.018601179122924805 0.31583285331726074
vt 0.018601179122924805 0.011588096618652344
vt 0.9709821343421936 0.8347309827804565
vt 0.018601179122924805 0.8347309827804565
vt 0.9709821343421936 0.8347309827804565
vt 0.018601179122924805 0.8347311019897461
vt 0.9709821343421936 0.31583285331726074
vt 0.018601179122924805 0.31583285331726074
vt 0.9709821343421936 0.3158329129219055
vt 0.018601179122924805 0.3158329725265503
vt 0.9709821343421936 0.011588096618652344
vt 0.018601179122924805 0.011588096618652344
vt 0.9709821343421936 0.01158815622329712
vt 0.018601179122924805 0.01158815622329712
vt 0.02485114336013794 0.01158815622329712
vt 0.9772320985794067 0.011588096618652344
vt 0.49583327770233154 0.2700157165527344
vt 0.9772320985794067 0.011588096618652344
vt 0.02485114336013794 0.01158815622329712
vt 0.49583327770233154 0.2700157165527344
vt 0.9772320985794067 0.011588096618652344
vt 0.02485114336013794 0.01158815622329712
g Geoset0
s 1
usemtl mat_wovenbasket01
f 1/1/1 2/2/2 3/3/3
f 4/4/4 5/5/5 6/6/6
f 4/4/4 7/7/7 5/5/5
f 4/4/4 8/8/8 7/7/7
f 8/8/8 9/9/9 7/7/7
f 8/8/8 10/10/10 9/9/9
f 10/10/10 11/11/11 9/9/9
f 10/10/10 12/12/12 11/11/11
f 13/13/13 12/12/12 10/10/10
f 13/13/13 14/14/14 12/12/12
f 15/15/15 14/14/14 13/13/13
f 15/15/15 16/16/16 14/14/14
f 17/17/17 10/10/10 8/8/8
f 17/17/17 13/13/13 10/10/10
f 18/18/18 13/13/13 17/17/17
f 18/18/18 15/15/15 13/13/13
f 4/4/4 17/17/17 8/8/8
f 4/4/4 18/18/18 17/17/17
f 4/4/4 19/19/19 18/18/18
f 4/4/4 20/20/20 19/19/19
f 4/4/4 6/6/6 20/20/20
f 19/19/19 15/15/15 18/18/18
f 19/19/19 21/21/21 15/15/15
f 20/20/20 21/21/21 19/19/19
f 20/20/20 22/22/22 21/21/21
f 6/6/6 22/22/22 20/20/20
f 6/6/6 23/23/23 22/22/22
f 5/5/5 23/23/23 6/6/6
f 5/5/5 24/24/24 23/23/23
f 7/7/7 24/24/24 5/5/5
f 7/7/7 9/9/9 24/24/24
f 21/21/21 16/16/16 15/15/15
f 21/21/21 25/25/25 16/16/16
f 22/22/22 25/25/25 21/21/21
f 22/22/22 26/26/26 25/25/25
f 23/23/23 26/26/26 22/22/22
f 23/23/23 27/27/27 26/26/26
f 24/24/24 27/27/27 23/23/23
f 24/24/24 28/28/28 27/27/27
f 9/9/9 28/28/28 24/24/24
f 9/9/9 11/11/11 28/28/28
f 29/29/29 30/30/30 31/31/31
f 32/32/32 29/29/29 31/31/31
f 30/30/30 33/33/33 31/31/31
f 34/34/34 31/31/31 33/33/33
f 2/2/2 32/32/32 3/3/3
f 31/31/31 3/3/3 32/32/32
f 33/33/33 35/35/35 34/34/34
f 35/35/35 36/36/36 34/34/34
f 3/3/3 34/34/34 36/36/36
f 36/36/36 1/1/1 3/3/3
