# Exported using wow.export v0.1.64
o largebasket03
mtllib largebasket03.mtl
v -0.006486392114311457 2.0762522220611572 -0.01084455568343401
v 0.4993138909339905 1.869984745979309 -0.5166449546813965
v -0.006486398633569479 1.8699849843978882 -0.7261542081832886
v -0.006486418657004833 -0.08494091033935547 -0.010844549164175987
v -0.6249263882637024 0.07010968774557114 -0.6292844414710999
v -0.006486409809440374 0.07010968774557114 -0.8854506611824036
v 0.6119534373283386 0.07010968774557114 -0.6292845606803894
v 0.8681197166442871 0.07010968774557114 -0.010844667442142963
v -0.8810925483703613 0.07010968774557114 -0.010844514705240726
v 0.6119535565376282 0.07010968774557114 0.6075952649116516
v -0.6249263286590576 0.07010968774557114 0.6075954437255859
v -0.006486332975327969 0.07010968774557114 0.8637616038322449
v -0.5505406260490417 1.2340654134750366 -0.5548986196517944
v -0.7217961549758911 1.869984745979309 -0.010844524018466473
v -0.5122867822647095 1.869984745979309 -0.5166448354721069
v -0.7758951783180237 1.2340654134750366 -0.010844522155821323
v -0.7176923155784607 0.5435954332351685 -0.7220504283905029
v -1.0122833251953125 0.5435953736305237 -0.01084450539201498
v -0.6249263882637024 0.07010968774557114 -0.6292844414710999
v -0.8810925483703613 0.07010968774557114 -0.010844514705240726
v -0.00648641400039196 1.2340654134750366 -0.7802532315254211
v -0.006486398633569479 1.8699849843978882 -0.7261542081832886
v 0.5375677347183228 1.2340654134750366 -0.554898738861084
v 0.4993138909339905 1.869984745979309 -0.5166449546813965
v -0.0064864130690693855 0.5435953736305237 -1.0166414976119995
v 0.7047193646430969 0.5435953736305237 -0.7220505475997925
v -0.006486409809440374 0.07010968774557114 -0.8854506611824036
v 0.6119534373283386 0.07010968774557114 -0.6292845606803894
v 0.8681197166442871 0.07010968774557114 -0.010844667442142963
v 0.9993106126785278 0.5435953736305237 -0.010844681411981583
v 0.6119535565376282 0.07010968774557114 0.6075952649116516
v 0.7047195434570312 0.5435953736305237 0.7003612518310547
v -0.006486332975327969 0.07010968774557114 0.8637616038322449
v -0.006486325059086084 0.5435953736305237 0.9949524402618408
v -0.6249263286590576 0.07010968774557114 0.6075954437255859
v -0.7176922559738159 0.5435954332351685 0.700361430644989
v 0.7629224061965942 1.2340654134750366 -0.010844656266272068
v 0.5375677943229675 1.2340654134750366 0.5332095623016357
v -0.006486346945166588 1.2340654134750366 0.7585642337799072
v -0.5505405068397522 1.2340654134750366 0.5332096219062805
v 0.7088233232498169 1.869984745979309 -0.010844648815691471
v 0.49931398034095764 1.869984745979309 0.49495574831962585
v -0.00648633623495698 1.869984745979309 0.7044652104377747
v -0.5122867226600647 1.869984745979309 0.4949558675289154
v -0.7217961549758911 1.869984745979309 -0.010844524018466473
v -0.5122867226600647 1.869984745979309 0.4949558675289154
v -0.5122867822647095 1.869984745979309 -0.5166448354721069
v -0.00648633623495698 1.869984745979309 0.7044652104377747
v 0.49931398034095764 1.869984745979309 0.49495574831962585
v 0.7088233232498169 1.869984745979309 -0.010844648815691471
v 0.4993138909339905 1.869984745979309 -0.5166449546813965
v 0.49931398034095764 1.869984745979309 0.49495574831962585
v -0.5122867822647095 1.869984745979309 -0.5166448354721069
vn 1.9512653715025863e-9 1 5.853796025689917e-8
vn 0.19591927528381348 0.9608492851257324 -0.19591903686523438
vn -1.874871990992233e-8 0.9608493447303772 -0.2770712673664093
vn 2.8449407274422356e-9 -1 1.8966272996578937e-9
vn -0.12343162298202515 -0.9846467971801758 -0.12343160808086395
vn -7.470030816136841e-9 -0.9846467971801758 -0.17455865442752838
vn 0.12343160808086395 -0.9846467971801758 -0.12343162298202515
vn 0.17455866932868958 -0.9846467971801758 -1.1205046668294472e-8
vn -0.17455866932868958 -0.9846467971801758 7.470030816136841e-9
vn 0.12343163788318634 -0.9846467971801758 0.12343160808086395
vn -0.12343159317970276 -0.9846467971801758 0.12343162298202515
vn 3.3615140893061835e-8 -0.9846467971801758 0.17455866932868958
vn -0.6940209865570068 0.20631031692028046 -0.6897614598274231
vn -0.9871034026145935 0.08397501707077026 -0.1362905204296112
vn -0.6016155481338501 0.08397501707077026 -0.7943594455718994
vn -0.9784820079803467 0.20631027221679688 0.0030120350420475006
vn -0.7060069441795349 0.030159784480929375 -0.7075623869895935
vn -0.9995445013046265 0.03015979565680027 -0.001099877175875008
vn -0.7687445878982544 -0.26468196511268616 -0.5822157859802246
vn -0.9552732706069946 -0.26468196511268616 0.1318957358598709
vn -0.0030120457522571087 0.20631031692028046 -0.9784819483757019
vn 0.13629044592380524 0.08397498726844788 -0.9871034026145935
vn 0.6897614002227783 0.20631028711795807 -0.6940211057662964
vn 0.7943593859672546 0.08397504687309265 -0.6016156077384949
vn 0.001099877175875008 0.030159790068864822 -0.9995445013046265
vn 0.7075623273849487 0.03015975095331669 -0.7060070037841797
vn -0.1318957358598709 -0.26468193531036377 -0.9552732706069946
vn 0.5822157263755798 -0.26468202471733093 -0.7687445878982544
vn 0.9552732110023499 -0.26468196511268616 -0.1318957805633545
vn 0.9995445013046265 0.03015972301363945 0.0010998268844559789
vn 0.7687445878982544 -0.2646820843219757 0.5822157263755798
vn 0.7060070037841797 0.030159706249833107 0.7075623869895935
vn 0.13189584016799927 -0.26468202471733093 0.9552732110023499
vn -0.0010997988283634186 0.03015977330505848 0.9995445013046265
vn -0.5822157263755798 -0.26468196511268616 0.7687446475028992
vn -0.7075623869895935 0.030159801244735718 0.7060070037841797
vn 0.9784820079803467 0.20631028711795807 -0.003012072527781129
vn 0.6940210461616516 0.20631028711795807 0.6897614002227783
vn 0.0030120941810309887 0.20631028711795807 0.9784820079803467
vn -0.6897614598274231 0.20631033182144165 0.6940210461616516
vn 0.9871034026145935 0.08397504687309265 0.13629044592380524
vn 0.6016156673431396 0.08397498726844788 0.7943593859672546
vn -0.13629043102264404 0.08397499471902847 0.9871034026145935
vn -0.7943593859672546 0.08397498726844788 0.6016156673431396
vn -0.2770715057849884 0.9608492851257324 7.499487253426196e-9
vn -0.19591912627220154 0.9608492851257324 0.19591915607452393
vn -0.19591929018497467 0.9608492851257324 -0.19591902196407318
vn 2.999794901370478e-8 0.9608492851257324 0.2770715057849884
vn 0.19591917097568512 0.9608492851257324 0.19591912627220154
vn 0.2770715057849884 0.9608492851257324 -3.374769264041788e-8
vn 0.19591927528381348 0.9608492851257324 -0.19591903686523438
vn 0.19591917097568512 0.9608492851257324 0.19591912627220154
vn -0.19591929018497467 0.9608492851257324 -0.19591902196407318
vt 0.5 0.999500572681427
vt 0.9995005130767822 0.8399999737739563
vt 0.5 0.8399999737739563
vt 0.5 0.2799999713897705
vt 0.5 0
vt 0.0004994869232177734 0
vt 0.5 0
vt 0.999500572681427 0
vt 0.9995004534721375 0
vt 0.5 0
vt 0.4999999403953552 0
vt 0.0004996359348297119 0
vt 0.501265823841095 0.6000000238418579
vt 1 0.8500000238418579
vt 0.5012658834457397 0.8500000238418579
vt 1 0.6000000238418579
vt 0.5054450631141663 0.30000001192092896
vt 1 0.30000001192092896
vt 0.5030201077461243 0
vt 1 0
vt 0 0.6000000238418579
vt 0 0.8500000238418579
vt 0.5 0.6000000238418579
vt 0.5 0.8500000238418579
vt 0 0.30000001192092896
vt 0.5 0.30000001192092896
vt 0 0
vt 0.5 0
vt 1 0
vt 1 0.30000001192092896
vt 0.5 0
vt 0.5 0.30000001192092896
vt 0 0
vt 0 0.30000001192092896
vt 0.5 0
vt 0.5 0.30000001192092896
vt 1 0.6000000238418579
vt 0.5 0.6000000238418579
vt 0 0.6000000238418579
vt 0.5 0.6000000238418579
vt 1 0.8500000238418579
vt 0.5 0.8500000238418579
vt 0 0.8500000238418579
vt 0.5 0.8500000238418579
vt 0.5 0.8399999737739563
vt 0.9995005130767822 0.8399999737739563
vt 0.0004995167255401611 0.8399999737739563
vt 0.5 0.8399999737739563
vt 0.0004994869232177734 0.8399999737739563
vt 0.5 0.8396618366241455
vt 0.9995001554489136 0.8396618366241455
vt 0.0004998445510864258 0.8396618366241455
vt 0.0004994869232177734 0.8399999737739563
g Geoset0
s 1
usemtl mat_wovenbasket01
f 1/1/1 2/2/2 3/3/3
f 4/4/4 5/5/5 6/6/6
f 4/4/4 6/6/6 7/7/7
f 4/4/4 7/7/7 8/8/8
f 4/4/4 9/9/9 5/5/5
f 4/4/4 8/8/8 10/10/10
f 4/4/4 11/11/11 9/9/9
f 4/4/4 12/12/12 11/11/11
f 4/4/4 10/10/10 12/12/12
f 13/13/13 14/14/14 15/15/15
f 13/13/13 16/16/16 14/14/14
f 17/17/17 16/16/16 13/13/13
f 17/17/17 18/18/18 16/16/16
f 19/19/19 18/18/18 17/17/17
f 19/19/19 20/20/20 18/18/18
f 21/21/21 13/13/13 15/15/15
f 21/21/21 15/15/15 22/22/22
f 23/23/23 21/21/21 22/22/22
f 23/23/23 22/22/22 24/24/24
f 25/25/25 17/17/17 13/13/13
f 25/25/25 13/13/13 21/21/21
f 26/26/26 25/25/25 21/21/21
f 26/26/26 21/21/21 23/23/23
f 27/27/27 19/19/19 17/17/17
f 27/27/27 17/17/17 25/25/25
f 28/28/28 27/27/27 25/25/25
f 28/28/28 25/25/25 26/26/26
f 29/29/29 28/28/28 26/26/26
f 29/29/29 26/26/26 30/30/30
f 31/31/31 29/29/29 30/30/30
f 31/31/31 30/30/30 32/32/32
f 33/33/33 31/31/31 32/32/32
f 33/33/33 32/32/32 34/34/34
f 35/35/35 33/33/33 34/34/34
f 35/35/35 34/34/34 36/36/36
f 20/20/20 35/35/35 36/36/36
f 20/20/20 36/36/36 18/18/18
f 30/30/30 26/26/26 23/23/23
f 30/30/30 23/23/23 37/37/37
f 32/32/32 30/30/30 37/37/37
f 32/32/32 37/37/37 38/38/38
f 34/34/34 32/32/32 38/38/38
f 34/34/34 38/38/38 39/39/39
f 36/36/36 34/34/34 39/39/39
f 36/36/36 39/39/39 40/40/40
f 18/18/18 36/36/36 40/40/40
f 18/18/18 40/40/40 16/16/16
f 37/37/37 23/23/23 24/24/24
f 37/37/37 24/24/24 41/41/41
f 38/38/38 37/37/37 41/41/41
f 38/38/38 41/41/41 42/42/42
f 39/39/39 38/38/38 42/42/42
f 39/39/39 42/42/42 43/43/43
f 40/40/40 39/39/39 43/43/43
f 40/40/40 43/43/43 44/44/44
f 16/16/16 40/40/40 44/44/44
f 16/16/16 44/44/44 14/14/14
f 1/1/1 45/45/45 46/46/46
f 1/1/1 47/47/47 45/45/45
f 1/1/1 48/48/48 49/49/49
f 1/1/1 46/46/46 48/48/48
f 1/1/1 50/50/50 51/51/51
f 1/1/1 52/52/52 50/50/50
f 1/1/1 3/3/3 53/53/53
