# Exported using wow.export v0.1.64
o smallbasket03
mtllib smallbasket03.mtl
v 0.3536294400691986 0.03662906959652901 0.4561682939529419
v -0.025169217959046364 0.03662906959652901 0.613071858882904
v -0.02516927383840084 -0.024037251248955727 0.07736969739198685
v -0.3962550759315491 0.8730486631393433 0.07748983800411224
v -0.2859098017215729 0.8730486631393433 -0.1889072060585022
v -0.01951264776289463 0.8726876378059387 0.07748983800411224
v -0.019512711092829704 0.8730486035346985 -0.2992525100708008
v -0.01951264590024948 0.9274967908859253 0.07748983800411224
v 0.24688442051410675 0.8730486035346985 -0.18890731036663055
v 0.35722973942756653 0.8730486035346985 0.07748973369598389
v 0.24688448011875153 0.8730486035346985 0.34388694167137146
v -0.2859097421169281 0.8730486631393433 0.34388700127601624
v -0.019512612372636795 0.8730486631393433 0.45423227548599243
v -0.2637920379638672 0.8712003231048584 0.315992534160614
v -0.025169217959046364 0.3516325056552887 0.5892598032951355
v -0.025169219821691513 0.8712003231048584 0.41483333706855774
v 0.3367917537689209 0.3516325056552887 0.4393306374549866
v 0.3536294400691986 0.03662906959652901 0.4561682939529419
v 0.5105329155921936 0.03662906959652901 0.07736961543560028
v -0.3871302306652069 0.3516325056552887 0.43933069705963135
v -0.3626329004764557 0.8712003231048584 0.07736971229314804
v -0.5370593667030334 0.3516325056552887 0.07736971229314804
v -0.26379212737083435 0.8712003231048584 -0.16125306487083435
v -0.025169217959046364 0.03662906959652901 0.613071858882904
v -0.40396788716316223 0.03662906959652901 0.4561683237552643
v -0.560871422290802 0.03662906959652901 0.07736971974372864
v -0.3871302902698517 0.3516325056552887 -0.2845912277698517
v -0.4039679765701294 0.03662906959652901 -0.301428884267807
v -0.02516935206949711 0.3516325056552887 -0.4345203936100006
v -0.025169357657432556 0.03662906959652901 -0.45833247900009155
v 0.33679166436195374 0.3516325056552887 -0.28459134697914124
v 0.35362932085990906 0.03662906959652901 -0.30142897367477417
v 0.48672088980674744 0.3516325056552887 0.07736962288618088
v -0.025169309228658676 0.8712003827095032 -0.2600938677787781
v 0.2134535163640976 0.8712003231048584 -0.16125310957431793
v 0.3122943937778473 0.8712003827095032 0.07736965268850327
v 0.21345356106758118 0.8712003231048584 0.3159925043582916
v -0.40396788716316223 0.03662906959652901 0.4561683237552643
v -0.560871422290802 0.03662906959652901 0.07736971974372864
v -0.4039679765701294 0.03662906959652901 -0.301428884267807
v -0.025169357657432556 0.03662906959652901 -0.45833247900009155
v 0.35362932085990906 0.03662906959652901 -0.30142897367477417
v 0.5105329155921936 0.03662906959652901 0.07736961543560028
vn 0.6014208197593689 -0.24219666421413422 0.7613368630409241
vn -0.11307772994041443 -0.24219664931297302 0.9636151790618896
vn -1.7306975408359904e-8 -1 6.490116000179569e-9
vn -0.9967943429946899 -0.08000648021697998 8.20003123180868e-8
vn -0.7048400640487671 -0.08000648766756058 -0.7048400044441223
vn -4.461812963540979e-8 -1 4.170365386357844e-8
vn -2.1643249681346788e-7 -0.08000651001930237 -0.9967943429946899
vn 1.6742367492383892e-8 1 -6.531208640581099e-8
vn 0.704839825630188 -0.08000648021697998 -0.7048402428627014
vn 0.9967943429946899 -0.08000651001930237 -1.7353865189306816e-7
vn 0.7048401236534119 -0.08000652492046356 0.7048399448394775
vn -0.7048399448394775 -0.08000648021697998 0.7048401832580566
vn 9.807699541397596e-8 -0.08000651001930237 0.9967943429946899
vn -0.6024262309074402 0.0661335289478302 0.795430064201355
vn 0.0006215611356310546 0.04083561524748802 0.9991657137870789
vn 0.13647429645061493 0.0661335214972496 0.9884336590766907
vn 0.7069563269615173 0.040835607796907425 0.7060773372650146
vn 0.6014208197593689 -0.24219666421413422 0.7613368630409241
vn 0.9636151790618896 -0.2421967089176178 0.11307770758867264
vn -0.7060773372650146 0.04083561897277832 0.7069563269615173
vn -0.9884336590766907 0.0661335289478302 0.13647425174713135
vn -0.9991657137870789 0.04083561524748802 0.0006215233006514609
vn -0.795430064201355 0.0661335289478302 -0.6024262309074402
vn -0.11307772994041443 -0.24219664931297302 0.9636151790618896
vn -0.7613369226455688 -0.24219664931297302 0.6014207601547241
vn -0.9636151790618896 -0.24219666421413422 -0.11307770758867264
vn -0.7069563865661621 0.04083562642335892 -0.7060772776603699
vn -0.6014208197593689 -0.24219666421413422 -0.7613368630409241
vn -0.0006216150941327214 0.04083562269806862 -0.9991657137870789
vn 0.11307764053344727 -0.24219666421413422 -0.9636151790618896
vn 0.7060771584510803 0.04083562642335892 -0.7069565057754517
vn 0.7613368630409241 -0.2421966791152954 -0.6014208197593689
vn 0.9991657137870789 0.04083561152219772 -0.0006215611356310546
vn -0.13647432625293732 0.0661335363984108 -0.9884336590766907
vn 0.6024261116981506 0.0661335363984108 -0.7954301238059998
vn 0.9884336590766907 0.0661335363984108 -0.1364744007587433
vn 0.7954300045967102 0.0661335289478302 0.6024263501167297
vn -0.7613369226455688 -0.24219664931297302 0.6014207601547241
vn -0.9636151790618896 -0.24219666421413422 -0.11307770758867264
vn -0.6014208197593689 -0.24219666421413422 -0.7613368630409241
vn 0.11307764053344727 -0.24219666421413422 -0.9636151790618896
vn 0.7613368630409241 -0.2421966791152954 -0.6014208197593689
vn 0.9636151790618896 -0.2421967089176178 0.11307770758867264
vt 0.9649045467376709 0.1282416582107544
vt 0.030325114727020264 0.1282416582107544
vt 0.49045947194099426 0.3315594792366028
vt 0.018601179122924805 0.8347309827804565
vt 0.9709821343421936 0.8347309827804565
vt 0.4947916567325592 0.9922588467597961
vt 0.018601179122924805 0.8347311019897461
vt 0.4947916567325592 0.9922588467597961
vt 0.9709821343421936 0.8347311019897461
vt 0.018601179122924805 0.8347311019897461
vt 0.9709821343421936 0.8347311019897461
vt 0.9709821343421936 0.8347309827804565
vt 0.018601179122924805 0.8347311019897461
vt 0.9601343274116516 0.8394737839698792
vt 0.025554895401000977 0.39112281799316406
vt 0.025554895401000977 0.8394737839698792
vt 0.9601343274116516 0.39112281799316406
vt 0.9601343274116516 0.12824177742004395
vt 0.025554895401000977 0.12824177742004395
vt 0.9601343274116516 0.39112281799316406
vt 0.025554895401000977 0.8394737839698792
vt 0.025554895401000977 0.3911227583885193
vt 0.9601343274116516 0.8394737839698792
vt 0.025554895401000977 0.12824177742004395
vt 0.9601343274116516 0.1282416582107544
vt 0.025554895401000977 0.1282416582107544
vt 0.9601343274116516 0.3911227583885193
vt 0.9601343274116516 0.1282416582107544
vt 0.025554895401000977 0.3911227583885193
vt 0.025554895401000977 0.1282416582107544
vt 0.9601343274116516 0.39112281799316406
vt 0.9601343274116516 0.1282416582107544
vt 0.025554895401000977 0.39112281799316406
vt 0.025554895401000977 0.8394737839698792
vt 0.9601343274116516 0.8394737839698792
vt 0.025554895401000977 0.8394739627838135
vt 0.9601343274116516 0.8394739627838135
vt 0.9649045467376709 0.1282416582107544
vt 0.030325114727020264 0.1282416582107544
vt 0.9649045467376709 0.1282416582107544
vt 0.030325114727020264 0.1282416582107544
vt 0.9649045467376709 0.1282416582107544
vt 0.030325114727020264 0.1282416582107544
g Geoset0
s 1
usemtl mat_wovenbasket01
f 1/1/1 2/2/2 3/3/3
f 4/4/4 5/5/5 6/6/6
f 5/5/5 7/7/7 6/6/6
f 5/5/5 4/4/4 8/8/8
f 7/7/7 5/5/5 8/8/8
f 9/9/9 7/7/7 8/8/8
f 7/7/7 9/9/9 6/6/6
f 9/9/9 10/10/10 6/6/6
f 10/10/10 11/11/11 6/6/6
f 12/12/12 13/13/13 8/8/8
f 4/4/4 12/12/12 8/8/8
f 12/12/12 4/4/4 6/6/6
f 13/13/13 12/12/12 6/6/6
f 11/11/11 13/13/13 6/6/6
f 13/13/13 11/11/11 8/8/8
f 11/11/11 10/10/10 8/8/8
f 10/10/10 9/9/9 8/8/8
f 14/14/14 15/15/15 16/16/16
f 16/16/16 15/15/15 17/17/17
f 15/15/15 18/18/18 17/17/17
f 17/17/17 18/18/18 19/19/19
f 14/14/14 20/20/20 15/15/15
f 21/21/21 20/20/20 14/14/14
f 21/21/21 22/22/22 20/20/20
f 23/23/23 22/22/22 21/21/21
f 15/15/15 24/24/24 18/18/18
f 20/20/20 24/24/24 15/15/15
f 20/20/20 25/25/25 24/24/24
f 22/22/22 25/25/25 20/20/20
f 22/22/22 26/26/26 25/25/25
f 27/27/27 26/26/26 22/22/22
f 27/27/27 28/28/28 26/26/26
f 29/29/29 28/28/28 27/27/27
f 29/29/29 30/30/30 28/28/28
f 31/31/31 30/30/30 29/29/29
f 31/31/31 32/32/32 30/30/30
f 33/33/33 32/32/32 31/31/31
f 33/33/33 19/19/19 32/32/32
f 17/17/17 19/19/19 33/33/33
f 23/23/23 27/27/27 22/22/22
f 34/34/34 27/27/27 23/23/23
f 34/34/34 29/29/29 27/27/27
f 35/35/35 29/29/29 34/34/34
f 35/35/35 31/31/31 29/29/29
f 36/36/36 31/31/31 35/35/35
f 36/36/36 33/33/33 31/31/31
f 37/37/37 33/33/33 36/36/36
f 37/37/37 17/17/17 33/33/33
f 16/16/16 17/17/17 37/37/37
f 38/38/38 39/39/39 3/3/3
f 39/39/39 40/40/40 3/3/3
f 40/40/40 41/41/41 3/3/3
f 2/2/2 38/38/38 3/3/3
f 41/41/41 42/42/42 3/3/3
f 42/42/42 43/43/43 3/3/3
f 43/43/43 1/1/1 3/3/3
