# Exported using wow.export v0.1.64
o zangarmushroomshelf02
mtllib zangarmushroomshelf02.mtl
v 1.9453855752944946 -0.04930739849805832 0.024859746918082237
v 0.5616477131843567 -0.1138710081577301 -0.4755609333515167
v 1.5739505290985107 0.1174497902393341 -0.8317459225654602
v -0.04134610295295715 0.2865511476993561 0.7093933820724487
v -0.2818945050239563 -0.1138710305094719 0.024859987199306488
v -0.22075915336608887 0.046357639133930206 0.9762221574783325
v 0.33011341094970703 0.046357639133930206 1.564196228981018
v 0.3397403061389923 0.2865511476993561 1.1324583292007446
v 1.141801357269287 -0.10379115492105484 1.7481633424758911
v 0.9375337958335876 0.13640232384204865 1.3164253234863281
v 1.7097207307815552 0.04635763540863991 0.976222038269043
v 1.3324087858200073 0.2865511476993561 0.7093932628631592
v -0.04134618118405342 0.2865511476993561 0.01687992550432682
v 0.3972305357456207 0.38989296555519104 0.02485995925962925
v -0.04134618118405342 0.2865511476993561 -0.6596732139587402
v -0.22075915336608887 0.046357639133930206 -0.9265019297599792
v 0.3397400379180908 0.2865511476993561 -1.0827382802963257
v 0.8884738087654114 0.2865511476993561 -1.0827383995056152
v 1.3324087858200073 0.2865511476993561 -0.6596735715866089
v 1.5019768476486206 0.19088609516620636 0.024859804660081863
v 1.9453855752944946 -0.04930739849805832 0.024859746918082237
v 1.5739505290985107 0.1174497902393341 -0.8317459225654602
v 1.0292106866836548 0.046357639133930206 -1.4340301752090454
v 0.33011308312416077 0.04635763540863991 -1.5144762992858887
v -0.2818945050239563 -0.1138710305094719 0.024859987199306488
v -0.07653763890266418 -0.1138710081577301 0.6176246404647827
v -0.22075915336608887 0.046357639133930206 0.9762221574783325
v 0.5616477727890015 -0.23910699784755707 0.525280773639679
v 0.33011341094970703 0.046357639133930206 1.564196228981018
v -0.1961558759212494 -0.5510154366493225 0.02485995925962925
v -0.07653763890266418 -0.1138710081577301 -0.5679046511650085
v -0.22075915336608887 0.046357639133930206 -0.9265019297599792
v 0.33011308312416077 0.04635763540863991 -1.5144762992858887
v 1.141801357269287 -0.10379115492105484 1.7481633424758911
v 1.7097207307815552 0.04635763540863991 0.976222038269043
v 0.9065961837768555 -0.23910699784755707 0.02485986240208149
v 1.0292106866836548 0.046357639133930206 -1.4340301752090454
vn 0.973025918006897 -0.11767761409282684 -0.1984250247478485
vn 0.24079300463199615 -0.1595097929239273 -0.9573794007301331
vn 0.7240680456161499 0.0027369712479412556 -0.6897230744361877
vn -0.8474702835083008 0.17425121366977692 0.5014285445213318
vn -0.9998089671134949 -0.019545428454875946 -2.3477511490455072e-8
vn -0.796644926071167 -0.01705286279320717 0.6042069792747498
vn -0.30186012387275696 -0.011565846391022205 0.9532820582389832
vn -0.049580659717321396 0.20463821291923523 0.9775812029838562
vn 0.3012385666370392 -0.11745601147413254 0.9462871551513672
vn 0.23268532752990723 0.11945255845785141 0.9651883840560913
vn 0.7690911293029785 -0.0017064427956938744 0.6391368508338928
vn 0.6955885291099548 0.30402103066444397 0.6509437561035156
vn -0.9878045320510864 0.15569908916950226 8.965776032709982e-8
vn -0.3029829263687134 0.9237152934074402 0.23441720008850098
vn -0.8491597771644592 0.17507115006446838 -0.4982748031616211
vn -0.8114065527915955 -0.007801211439073086 -0.5844300985336304
vn -0.26922914385795593 0.17802727222442627 -0.9464787244796753
vn 0.24663014709949493 0.18796414136886597 -0.9507066011428833
vn 0.8572983741760254 0.2644099295139313 -0.441731721162796
vn 0.9800755977630615 0.1931338608264923 -0.0463804230093956
vn 0.973025918006897 -0.11767761409282684 -0.1984250247478485
vn 0.7240680456161499 0.0027369712479412556 -0.6897230744361877
vn 0.3639490604400635 -0.07973042130470276 -0.9280000925064087
vn -0.18652379512786865 -0.049415212124586105 -0.9812068939208984
vn -0.9998089671134949 -0.019545428454875946 -2.3477511490455072e-8
vn -0.514467179775238 -0.09189596027135849 0.8525717854499817
vn -0.796644926071167 -0.01705286279320717 0.6042069792747498
vn 0.2149282842874527 -0.18515360355377197 0.9589181542396545
vn -0.30186012387275696 -0.011565846391022205 0.9532820582389832
vn -0.7714568972587585 -0.6309995055198669 -0.08181590586900711
vn -0.47678056359291077 -0.11800757050514221 -0.8710651397705078
vn -0.8114065527915955 -0.007801211439073086 -0.5844300985336304
vn -0.18652379512786865 -0.049415212124586105 -0.9812068939208984
vn 0.3012385666370392 -0.11745601147413254 0.9462871551513672
vn 0.7690911293029785 -0.0017064427956938744 0.6391368508338928
vn 0.8501816987991333 -0.2944866716861725 -0.43642711639404297
vn 0.3639490604400635 -0.07973042130470276 -0.9280000925064087
vt 0.4992709755897522 0.49504631757736206
vt 0.4233071506023407 0.22586286067962646
vt 0.35040196776390076 0.45313382148742676
vt 0.118243508040905 0.08718383312225342
vt 0.010000000707805157 0.04456859827041626
vt 0.15685419738292694 0.06395184993743896
vt 0.24823425710201263 0.16604560613632202
vt 0.18633270263671875 0.159204363822937
vt 0.24817198514938354 0.3227987289428711
vt 0.18633268773555756 0.27737975120544434
vt 0.15844811499118805 0.4493788480758667
vt 0.11824352294206619 0.3729856014251709
vt 0.010000000707805157 0.08568614721298218
vt 0.010000000707805157 0.1700878143310547
vt 0.118243508040905 0.08718383312225342
vt 0.15685419738292694 0.06395184993743896
vt 0.18633270263671875 0.159204363822937
vt 0.18633268773555756 0.27737975120544434
vt 0.11824352294206619 0.3729856014251709
vt 0.010000000707805157 0.40800607204437256
vt 0.010000000707805157 0.4998279809951782
vt 0.15844811499118805 0.4493788480758667
vt 0.24817198514938354 0.3227987289428711
vt 0.24823425710201263 0.16604560613632202
vt 0.496065616607666 0.04481786489486694
vt 0.40982839465141296 0.08727109432220459
vt 0.3523385524749756 0.06121861934661865
vt 0.4246903955936432 0.22471082210540771
vt 0.25866174697875977 0.1644114851951599
vt 0.496065616607666 0.15013080835342407
vt 0.4084450900554657 0.08842319250106812
vt 0.3523385524749756 0.06121861934661865
vt 0.25866174697875977 0.1644114851951599
vt 0.25902193784713745 0.3212130069732666
vt 0.35040196776390076 0.45313382148742676
vt 0.496065616607666 0.29899895191192627
vt 0.25902193784713745 0.3212130069732666
g Geoset0
s 1
usemtl mat_zangarmushrooms_small01
f 1/1/1 2/2/2 3/3/3
f 4/4/4 5/5/5 6/6/6
f 4/4/4 6/6/6 7/7/7
f 4/4/4 7/7/7 8/8/8
f 8/8/8 7/7/7 9/9/9
f 8/8/8 9/9/9 10/10/10
f 10/10/10 9/9/9 11/11/11
f 10/10/10 11/11/11 12/12/12
f 13/13/13 5/5/5 4/4/4
f 14/14/14 4/4/4 8/8/8
f 14/14/14 13/13/13 4/4/4
f 14/14/14 15/15/15 13/13/13
f 15/15/15 5/5/5 13/13/13
f 15/15/15 16/16/16 5/5/5
f 14/14/14 17/17/17 15/15/15
f 14/14/14 18/18/18 17/17/17
f 14/14/14 19/19/19 18/18/18
f 14/14/14 12/12/12 20/20/20
f 14/14/14 10/10/10 12/12/12
f 14/14/14 8/8/8 10/10/10
f 14/14/14 20/20/20 19/19/19
f 12/12/12 11/11/11 21/21/21
f 12/12/12 21/21/21 20/20/20
f 20/20/20 21/21/21 22/22/22
f 20/20/20 22/22/22 19/19/19
f 19/19/19 22/22/22 23/23/23
f 19/19/19 23/23/23 18/18/18
f 18/18/18 23/23/23 24/24/24
f 18/18/18 24/24/24 17/17/17
f 17/17/17 24/24/24 16/16/16
f 17/17/17 16/16/16 15/15/15
f 25/25/25 26/26/26 27/27/27
f 27/27/27 28/28/28 29/29/29
f 27/27/27 26/26/26 28/28/28
f 30/30/30 28/28/28 26/26/26
f 30/30/30 26/26/26 25/25/25
f 30/30/30 25/25/25 31/31/31
f 32/32/32 31/31/31 25/25/25
f 33/33/33 31/31/31 32/32/32
f 29/29/29 28/28/28 34/34/34
f 34/34/34 28/28/28 35/35/35
f 35/35/35 28/28/28 36/36/36
f 30/30/30 36/36/36 28/28/28
f 30/30/30 2/2/2 36/36/36
f 30/30/30 31/31/31 2/2/2
f 33/33/33 2/2/2 31/31/31
f 1/1/1 36/36/36 2/2/2
f 35/35/35 36/36/36 1/1/1
f 37/37/37 2/2/2 33/33/33
f 3/3/3 2/2/2 37/37/37
