# Exported using wow.export v0.1.64
o zangarmushroomshelf01
mtllib zangarmushroomshelf01.mtl
v 1.5526034832000732 -0.05215511471033096 0.006521283183246851
v 0.3543544113636017 -0.19090524315834045 -0.323849618434906
v 1.3485291004180908 -0.05215511471033096 -0.6215550899505615
v -0.1678086519241333 0.1558406502008438 0.4584410488605499
v -0.3761117458343506 -0.19090525805950165 0.0065214429050683975
v -0.32317155599594116 -0.05215511471033096 0.6345978379249573
v 0.1538570523262024 -0.05215511471033096 1.0227704048156738
v 0.16219346225261688 0.1558406502008438 0.7377427816390991
v 0.8142555356025696 -0.05215511471033096 1.0227702856063843
v 0.6373699307441711 0.1558406502008438 0.7377427220344543
v 1.34852933883667 -0.05215511471033096 0.6345977187156677
v 1.0217957496643066 0.1558406502008438 0.45844098925590515
v -0.16780872642993927 0.1558406502008438 0.0012531146639958024
v 0.21197719871997833 0.2453295886516571 0.006521423812955618
v -0.16780872642993927 0.1558406502008438 -0.4453980624675751
v -0.32317155599594116 -0.05215511471033096 -0.6215547323226929
v 0.16219325363636017 0.1558406502008438 -0.7246999144554138
v 0.637369692325592 0.1558406502008438 -0.7246999144554138
v 1.021795630455017 0.1558406502008438 -0.44539833068847656
v 1.168633222579956 0.1558406502008438 0.006521323230117559
v 1.5526034832000732 -0.05215511471033096 0.006521283183246851
v 1.3485291004180908 -0.05215511471033096 -0.6215550899505615
v 0.8142552971839905 -0.05215511471033096 -1.0097274780273438
v 0.15385675430297852 -0.05215511471033096 -1.0097273588180542
v -0.3761117458343506 -0.19090525805950165 0.0065214429050683975
v -0.19828279316425323 -0.19090524315834045 0.39785662293434143
v -0.32317155599594116 -0.05215511471033096 0.6345978379249573
v 0.35435447096824646 -0.19090524315834045 0.3368924856185913
v 0.1538570523262024 -0.05215511471033096 1.0227704048156738
v -0.3018663227558136 -0.5694507956504822 0.006521423812955618
v -0.19828279316425323 -0.19090522825717926 -0.38481369614601135
v -0.32317155599594116 -0.05215511471033096 -0.6215547323226929
v 0.15385675430297852 -0.05215511471033096 -1.0097273588180542
v 0.8142555356025696 -0.05215511471033096 1.0227702856063843
v 1.34852933883667 -0.05215511471033096 0.6345977187156677
v 0.6530627608299255 -0.19090522825717926 0.006521366070955992
v 0.8142552971839905 -0.05215511471033096 -1.0097274780273438
vn 0.9968754053115845 -0.07795727998018265 -0.012732768431305885
vn 0.444873571395874 -0.2582012712955475 -0.8575661182403564
vn 0.8190845847129822 -0.08172878623008728 -0.5678211450576782
vn -0.8959501385688782 0.18421931564807892 0.40414920449256897
vn -0.9998089671134949 -0.019545426592230797 -1.7898859283604907e-8
vn -0.8455012440681458 -0.035599783062934875 0.5327854156494141
vn -0.32009512186050415 -0.07685288041830063 0.9442630410194397
vn -0.34398597478866577 0.22405722737312317 0.9118508696556091
vn 0.3310388922691345 -0.07624810934066772 0.9405314922332764
vn 0.2903919816017151 0.2522278130054474 0.9230675101280212
vn 0.8120172619819641 -0.07608223706483841 0.5786531567573547
vn 0.77494215965271 0.27133575081825256 0.5708253383636475
vn -0.9878045320510864 0.15569908916950226 6.835357879708681e-8
vn -0.49586474895477295 0.8683997392654419 -5.264716662622959e-8
vn -0.8970745801925659 0.18494975566864014 -0.40131130814552307
vn -0.8765102624893188 -0.008427145890891552 -0.4813094437122345
vn -0.3405904173851013 0.22521479427814484 -0.9128397703170776
vn 0.2903917133808136 0.2522278130054474 -0.923067569732666
vn 0.7749419808387756 0.27133575081825256 -0.5708255767822266
vn 0.960425615310669 0.2785365879535675 -7.33431662069961e-8
vn 0.9968754053115845 -0.07795727998018265 -0.012732768431305885
vn 0.8190845847129822 -0.08172878623008728 -0.5678211450576782
vn 0.3310386836528778 -0.07624810934066772 -0.9405315518379211
vn -0.27176737785339355 -0.06333205848932266 -0.9602767825126648
vn -0.9998089671134949 -0.019545426592230797 -1.7898859283604907e-8
vn -0.4684915840625763 -0.10891161113977432 0.8767290711402893
vn -0.8455012440681458 -0.035599783062934875 0.5327854156494141
vn 0.3572438657283783 -0.2490868717432022 0.9001847505569458
vn -0.32009512186050415 -0.07685288041830063 0.9442630410194397
vn -0.6872365474700928 -0.7264336943626404 -4.275928233710147e-7
vn -0.5772250890731812 -0.1428685039281845 -0.8039899468421936
vn -0.8765102624893188 -0.008427145890891552 -0.4813094437122345
vn -0.27176737785339355 -0.06333205848932266 -0.9602767825126648
vn 0.3310388922691345 -0.07624810934066772 0.9405314922332764
vn 0.8120172619819641 -0.07608223706483841 0.5786531567573547
vn 0.9278217554092407 -0.36458802223205566 -0.07888226956129074
vn 0.3310386836528778 -0.07624810934066772 -0.9405315518379211
vt 0.4982657730579376 0.4920620322227478
vt 0.4224579930305481 0.22466182708740234
vt 0.34855934977531433 0.45042717456817627
vt 0.11802111566066742 0.08690148591995239
vt 0.010000000707805157 0.04456859827041626
vt 0.1565524786710739 0.06382346153259277
vt 0.24774479866027832 0.16524088382720947
vt 0.18597042560577393 0.15844494104385376
vt 0.2475781887769699 0.3219238519668579
vt 0.18597041070461273 0.27583742141723633
vt 0.15608075261116028 0.4492682218551636
vt 0.11802113056182861 0.3708099126815796
vt 0.010000000707805157 0.08541375398635864
vt 0.010000000707805157 0.1692562699317932
vt 0.11802111566066742 0.08690148591995239
vt 0.1565524786710739 0.06382346153259277
vt 0.18597042560577393 0.15844494104385376
vt 0.18597041070461273 0.27583742141723633
vt 0.11802113056182861 0.3708099126815796
vt 0.010000000707805157 0.40559840202331543
vt 0.010000000707805157 0.49681198596954346
vt 0.15608075261116028 0.4492682218551636
vt 0.2475781887769699 0.3219238519668579
vt 0.24774479866027832 0.16524088382720947
vt 0.4950670003890991 0.04481619596481323
vt 0.4090069532394409 0.08698821067810059
vt 0.351635217666626 0.06110835075378418
vt 0.42383840680122375 0.22351741790771484
vt 0.2581508755683899 0.1636175513267517
vt 0.4950670003890991 0.14943146705627441
vt 0.4076264798641205 0.08813267946243286
vt 0.351635217666626 0.06110835075378418
vt 0.2581508755683899 0.1636175513267517
vt 0.2573670744895935 0.3205183744430542
vt 0.34855934977531433 0.45042717456817627
vt 0.4950670003890991 0.2973134517669678
vt 0.2573670744895935 0.3205183744430542
g Geoset0
s 1
usemtl mat_zangarmushrooms_small01
f 1/1/1 2/2/2 3/3/3
f 4/4/4 5/5/5 6/6/6
f 4/4/4 6/6/6 7/7/7
f 4/4/4 7/7/7 8/8/8
f 8/8/8 7/7/7 9/9/9
f 8/8/8 9/9/9 10/10/10
f 10/10/10 9/9/9 11/11/11
f 10/10/10 11/11/11 12/12/12
f 13/13/13 5/5/5 4/4/4
f 14/14/14 4/4/4 8/8/8
f 14/14/14 13/13/13 4/4/4
f 14/14/14 15/15/15 13/13/13
f 15/15/15 5/5/5 13/13/13
f 15/15/15 16/16/16 5/5/5
f 14/14/14 17/17/17 15/15/15
f 14/14/14 18/18/18 17/17/17
f 14/14/14 19/19/19 18/18/18
f 14/14/14 12/12/12 20/20/20
f 14/14/14 10/10/10 12/12/12
f 14/14/14 8/8/8 10/10/10
f 14/14/14 20/20/20 19/19/19
f 12/12/12 11/11/11 21/21/21
f 12/12/12 21/21/21 20/20/20
f 20/20/20 21/21/21 22/22/22
f 20/20/20 22/22/22 19/19/19
f 19/19/19 22/22/22 23/23/23
f 19/19/19 23/23/23 18/18/18
f 18/18/18 23/23/23 24/24/24
f 18/18/18 24/24/24 17/17/17
f 17/17/17 24/24/24 16/16/16
f 17/17/17 16/16/16 15/15/15
f 25/25/25 26/26/26 27/27/27
f 27/27/27 28/28/28 29/29/29
f 27/27/27 26/26/26 28/28/28
f 30/30/30 28/28/28 26/26/26
f 30/30/30 26/26/26 25/25/25
f 30/30/30 25/25/25 31/31/31
f 32/32/32 31/31/31 25/25/25
f 33/33/33 31/31/31 32/32/32
f 29/29/29 28/28/28 34/34/34
f 34/34/34 28/28/28 35/35/35
f 35/35/35 28/28/28 36/36/36
f 30/30/30 36/36/36 28/28/28
f 30/30/30 2/2/2 36/36/36
f 30/30/30 31/31/31 2/2/2
f 33/33/33 2/2/2 31/31/31
f 1/1/1 36/36/36 2/2/2
f 35/35/35 36/36/36 1/1/1
f 37/37/37 2/2/2 33/33/33
f 3/3/3 2/2/2 37/37/37
