# Exported using wow.export v0.1.64
o orcsleepmat01
mtllib orcsleepmat01.mtl
v 1.2304999828338623 0.006924999877810478 1.0411900281906128
v 1.2304999828338623 0.006924999877810478 -1.4198100566864014
v -1.0411900281906128 0.006924999877810478 -1.4198100566864014
v -1.0411900281906128 0.006924999877810478 1.0411900281906128
vn 0 1 0
vn 0 1 0
vn 0 1 0
vn 0 1 0
vt 0.0004995170165784657 0.000500023365020752
vt 0.9994999766349792 0.000500023365020752
vt 0.9994999766349792 0.9995001549832523
vt 0.0004997249925509095 0.9995004530064762
g Geoset0
s 1
usemtl mat_firmatt06
f 1/1/1 2/2/2 3/3/3
f 1/1/1 3/3/3 4/4/4
