# Exported using wow.export v0.1.64
o coilfang_steam_off_on
mtllib coilfang_steam_off_on.mtl
v 0.01292476523667574 5.6617913246154785 -0.0023190921638160944
v -0.49231407046318054 5.3658294677734375 -0.50755774974823
v -0.7015907764434814 5.3658294677734375 -0.002319060731679201
v 0.010818012058734894 -1.4967973232269287 0.012477767653763294
v 0.5127426385879517 -1.4967973232269287 0.302264004945755
v 0.010818062350153923 -1.4967973232269287 0.5920503735542297
v -0.4911065697669983 -1.4967973232269287 0.30226409435272217
v -0.4911065697669983 -1.4967973232269287 -0.27730849385261536
v 0.5127425193786621 -1.4967973232269287 -0.2773086130619049
v 0.010818012058734894 -1.4967973232269287 -0.5670948028564453
v -0.4911065697669983 -1.4967973232269287 -0.27730849385261536
v 0.5127425193786621 -1.4967973232269287 -0.2773086130619049
v 0.010818012058734894 -1.4967973232269287 -0.5670948028564453
v 0.010818012058734894 -1.200697898864746 -0.4511803090572357
v 0.4123576879501343 -1.200697898864746 -0.21935133635997772
v 0.5127426385879517 -1.4967973232269287 0.302264004945755
v 0.41235771775245667 -1.200697898864746 0.2443067580461502
v 0.010818062350153923 -1.4967973232269287 0.5920503735542297
v 0.010818052105605602 -1.200697898864746 0.47613584995269775
v -0.4911065697669983 -1.4967973232269287 0.30226409435272217
v -0.3907216489315033 -1.200697898864746 0.2443068027496338
v -0.4911065697669983 -1.4967973232269287 -0.27730849385261536
v -0.3907216787338257 -1.200697898864746 -0.21935124695301056
v 0.010818012058734894 -0.9045983552932739 -0.33526578545570374
v 0.3119727373123169 -0.9045983552932739 -0.16139402985572815
v 0.3119727671146393 -0.9045983552932739 0.18634948134422302
v 0.01081804372370243 -0.9045983552932739 0.3602212965488434
v -0.2903367280960083 -0.9045983552932739 0.186349555850029
v -0.2903367578983307 -0.9045983552932739 -0.16139400005340576
v -0.4911065697669983 -1.4967973232269287 -0.27730849385261536
v -0.3907216787338257 -1.200697898864746 -0.21935124695301056
v -0.2903367578983307 -0.9045983552932739 -0.16139400005340576
v -0.1899518072605133 -0.6084988713264465 -0.10343674570322037
v 0.010818012058734894 -0.6084988713264465 -0.21935124695301056
v 0.2115878462791443 -0.6084988713264465 -0.10343678295612335
v 0.21158786118030548 -0.6084988713264465 0.1283922642469406
v 0.01081803161650896 -0.6084988713264465 0.2443068027496338
v -0.1899518072605133 -0.6084988713264465 0.1283923089504242
v -0.1899518072605133 -0.6084988713264465 -0.10343674570322037
v -0.0895669013261795 -0.31239932775497437 0.07043503224849701
v -0.0895669087767601 -0.31239932775497437 -0.04547949135303497
v 0.010818012058734894 -0.016299882903695107 0.012477767653763294
v 0.11120294034481049 -0.31239932775497437 0.07043501734733582
v 0.11120293289422989 -0.31239932775497437 -0.04547950252890587
v 0.010818022303283215 -0.31239932775497437 0.128392294049263
v 0.010818012058734894 -0.31239932775497437 -0.10343674570322037
v -0.0895669087767601 -0.31239932775497437 -0.04547949135303497
v 0.01292476523667574 3.640835762023926 -0.0023190921638160944
v -0.4923139214515686 3.936798095703125 0.5029196739196777
v -0.7015906572341919 3.936798095703125 -0.002319060731679201
v -0.997552752494812 4.651313304901123 -0.0023190479259938
v -0.7015907764434814 5.3658294677734375 -0.002319060731679201
v -0.7015906572341919 4.651313304901123 0.712196409702301
v 0.012924828566610813 3.936798095703125 0.7121963500976562
v 0.01292476523667574 3.640835762023926 -0.0023190921638160944
v 0.01292476523667574 3.640835762023926 -0.0023190921638160944
v 0.5181635022163391 3.936798095703125 0.5029195547103882
v 0.012924855574965477 4.651313304901123 1.0081583261489868
v -0.4923139810562134 5.3658294677734375 0.5029197335243225
v 0.01292476523667574 5.6617913246154785 -0.0023190921638160944
v 0.01292476523667574 3.640835762023926 -0.0023190921638160944
v 0.7274401783943176 3.936798095703125 -0.0023191857617348433
v 0.727440357208252 4.651313304901123 0.7121963500976562
v 0.012924828566610813 5.3658294677734375 0.7121964693069458
v 0.01292476523667574 5.6617913246154785 -0.0023190921638160944
v 0.01292476523667574 3.640835762023926 -0.0023190921638160944
v 0.5181634426116943 3.936798095703125 -0.5075578689575195
v 1.023402214050293 4.651313304901123 -0.00231922441162169
v 0.5181636214256287 5.3658294677734375 0.5029196739196777
v 0.01292476523667574 5.6617913246154785 -0.0023190921638160944
v 0.01292476523667574 3.640835762023926 -0.0023190921638160944
v 0.01292464230209589 3.936798095703125 -0.7168344855308533
v 0.7274401783943176 4.651313304901123 -0.7168346643447876
v 0.7274402976036072 5.3658294677734375 -0.0023191857617348433
v 0.01292476523667574 5.6617913246154785 -0.0023190921638160944
v 0.01292476523667574 3.640835762023926 -0.0023190921638160944
v -0.49231401085853577 3.936798095703125 -0.5075576901435852
v 0.012924591079354286 4.651313304901123 -1.0127966403961182
v 0.5181635022163391 5.3658294677734375 -0.5075579285621643
v 0.01292476523667574 5.6617913246154785 -0.0023190921638160944
v 0.01292476523667574 3.640835762023926 -0.0023190921638160944
v -0.7015906572341919 3.936798095703125 -0.002319060731679201
v -0.7015908360481262 4.651313304901123 -0.7168344259262085
v 0.01292464230209589 5.3658294677734375 -0.7168346047401428
v 0.01292476523667574 5.6617913246154785 -0.0023190921638160944
v -0.997552752494812 4.651313304901123 -0.0023190479259938
v 0.01292476523667574 5.6617913246154785 -0.0023190921638160944
vn -1.136678418056647e-9 1 -4.258172481286238e-9
vn -0.5293513536453247 0.6630041003227234 -0.5293511748313904
vn -0.7486158013343811 0.6630040407180786 6.702663313262747e-8
vn 0 -1 0
vn 0 -1 0
vn 0 -1 0
vn 0 -1 0
vn 0 -1 0
vn 0 -1 0
vn 0 -1 0
vn 0 -1 0
vn 0.8064340949058533 0.36453428864479065 -0.4655951261520386
vn -3.649028812446886e-8 0.36453428864479065 -0.9311899542808533
vn -3.695210182286246e-8 0.36453425884246826 -0.9311899542808533
vn 0.8064340949058533 0.3645343482494354 -0.4655950367450714
vn 0.8064342141151428 0.36453431844711304 0.4655948877334595
vn 0.8064342141151428 0.3645343482494354 0.4655948877334595
vn 8.244847293781277e-8 0.36453428864479065 0.9311899542808533
vn 8.267382867188644e-8 0.36453431844711304 0.9311899542808533
vn -0.806434154510498 0.36453431844711304 0.46559494733810425
vn -0.806434154510498 0.36453431844711304 0.465595006942749
vn -0.806434154510498 0.36453425884246826 -0.465595006942749
vn -0.806434154510498 0.36453428864479065 -0.46559497714042664
vn -5.102095101960913e-8 0.36453428864479065 -0.9311899542808533
vn 0.8064340949058533 0.3645343482494354 -0.4655950367450714
vn 0.8064342141151428 0.36453431844711304 0.46559491753578186
vn 7.931028989105471e-8 0.3645344078540802 0.9311898946762085
vn -0.8064340949058533 0.3645343482494354 0.4655950367450714
vn -0.806434154510498 0.3645343780517578 -0.46559494733810425
vn -0.806434154510498 0.36453425884246826 -0.465595006942749
vn -0.806434154510498 0.36453428864479065 -0.46559497714042664
vn -0.806434154510498 0.3645343780517578 -0.46559494733810425
vn -0.806434154510498 0.36453431844711304 -0.46559494733810425
vn -4.7130718883181544e-8 0.36453428864479065 -0.9311899542808533
vn 0.806434154510498 0.36453431844711304 -0.465595006942749
vn 0.8064342141151428 0.36453428864479065 0.4655948877334595
vn 9.362206299101672e-8 0.36453431844711304 0.9311899542808533
vn -0.8064340949058533 0.36453431844711304 0.4655950367450714
vn -0.806434154510498 0.36453431844711304 -0.46559494733810425
vn -0.8064340949058533 0.3645343482494354 0.4655950367450714
vn -0.806434154510498 0.36453431844711304 -0.46559497714042664
vn 0.4735269248485565 0.32107436656951904 -0.8201728463172913
vn 0.8064342141151428 0.36453431844711304 0.4655948579311371
vn 0.8064340949058533 0.3645343482494354 -0.4655950367450714
vn 8.200393608603918e-8 0.3645343482494354 0.9311899542808533
vn -3.824884586833832e-8 0.36453431844711304 -0.9311899542808533
vn -0.806434154510498 0.36453431844711304 -0.46559497714042664
vn 1.047644104801293e-8 -1 3.0780111792694242e-9
vn -0.5293512344360352 -0.6630041003227234 0.5293512940406799
vn -0.7486157417297363 -0.6630041599273682 6.942538277598942e-8
vn -1 -7.981427785352935e-8 1.0191958210725716e-7
vn -0.7486158013343811 0.6630040407180786 6.702663313262747e-8
vn -0.7071067094802856 -6.278231268197487e-8 0.7071068286895752
vn 7.598483620085972e-8 -0.6630041599273682 0.7486157417297363
vn 1.047644104801293e-8 -1 3.0780111792694242e-9
vn 1.047644104801293e-8 -1 3.0780111792694242e-9
vn 0.5293513536453247 -0.6630041003227234 0.5293511748313904
vn 7.445648009252182e-8 -7.966521309299424e-8 1
vn -0.5293512344360352 0.6630041003227234 0.5293512940406799
vn -1.136678418056647e-9 1 -4.258172481286238e-9
vn 1.047644104801293e-8 -1 3.0780111792694242e-9
vn 0.7486156821250916 -0.6630041599273682 -8.61054516576587e-8
vn 0.7071068286895752 -7.799887669079908e-8 0.7071067094802856
vn 4.64837981439814e-8 0.6630041003227234 0.7486158013343811
vn -1.136678418056647e-9 1 -4.258172481286238e-9
vn 1.047644104801293e-8 -1 3.0780111792694242e-9
vn 0.5293511748313904 -0.6630041003227234 -0.5293513536453247
vn 1 -6.781633032915124e-8 -1.614254472315224e-7
vn 0.5293514132499695 0.6630041003227234 0.5293511748313904
vn -1.136678418056647e-9 1 -4.258172481286238e-9
vn 1.047644104801293e-8 -1 3.0780111792694242e-9
vn -1.3157728062651586e-7 -0.6630041003227234 -0.7486157417297363
vn 0.7071067094802856 -3.4387195313456687e-8 -0.70710688829422
vn 0.7486157417297363 0.6630041003227234 -1.3043110413946124e-7
vn -1.136678418056647e-9 1 -4.258172481286238e-9
vn 1.047644104801293e-8 -1 3.0780111792694242e-9
vn -0.5293513536453247 -0.6630041599273682 -0.5293511748313904
vn -1.3561412970375386e-7 -5.0710887933291815e-8 -1
vn 0.5293512344360352 0.6630041003227234 -0.5293513536453247
vn -1.136678418056647e-9 1 -4.258172481286238e-9
vn 1.047644104801293e-8 -1 3.0780111792694242e-9
vn -0.7486157417297363 -0.6630041599273682 6.942538277598942e-8
vn -0.7071068286895752 -6.173279842869306e-8 -0.7071067094802856
vn -1.2002708160707698e-7 0.6630041003227234 -0.7486158013343811
vn -1.136678418056647e-9 1 -4.258172481286238e-9
vn -1 -7.981427785352935e-8 1.0191958210725716e-7
vn -1.136678418056647e-9 1 -4.258172481286238e-9
vt 0.875 1
vt 0.875 0.75
vt 1 0.75
vt 0.5 0
vt 0.4166666865348816 0
vt 0.2500000298023224 0
vt 0.08333335816860199 0
vt -0.08333337306976318 0
vt 0.5833333730697632 0
vt 0.75 0
vt 0.9166666269302368 0
vt 0.5833333730697632 0
vt 0.75 0
vt 0.75 0.20000004768371582
vt 0.5833333730697632 0.20000004768371582
vt 0.4166666865348816 0
vt 0.4166666865348816 0.20000004768371582
vt 0.2500000298023224 0
vt 0.2500000298023224 0.20000004768371582
vt 0.08333335816860199 0
vt 0.08333336561918259 0.20000004768371582
vt -0.08333337306976318 0
vt -0.08333337306976318 0.20000004768371582
vt 0.75 0.3999999761581421
vt 0.5833333730697632 0.3999999761581421
vt 0.4166666865348816 0.3999999761581421
vt 0.2500000298023224 0.3999999761581421
vt 0.08333336561918259 0.3999999761581421
vt -0.08333337306976318 0.3999999761581421
vt 0.9166666269302368 0
vt 0.9166666269302368 0.20000004768371582
vt 0.9166666269302368 0.3999999761581421
vt 0.9166666269302368 0.5999999642372131
vt 0.75 0.5999999642372131
vt 0.5833333730697632 0.5999999642372131
vt 0.4166666865348816 0.5999999642372131
vt 0.2500000298023224 0.5999999642372131
vt 0.08333336561918259 0.5999999642372131
vt -0.08333337306976318 0.5999999642372131
vt 0.08333336561918259 0.800000011920929
vt -0.08333337306976318 0.800000011920929
vt 0.5 1
vt 0.4166666865348816 0.800000011920929
vt 0.5833333730697632 0.800000011920929
vt 0.2500000298023224 0.800000011920929
vt 0.75 0.800000011920929
vt 0.9166666269302368 0.800000011920929
vt 0 0
vt 0.125 0.25
vt 0 0.25
vt 0 0.5
vt 0 0.75
vt 0.125 0.5
vt 0.25 0.25
vt 0.125 0
vt 0.25 0
vt 0.375 0.25
vt 0.25 0.5
vt 0.125 0.75
vt 0 1
vt 0.375 0
vt 0.5 0.25
vt 0.375 0.5
vt 0.25 0.75
vt 0.125 1
vt 0.5 0
vt 0.625 0.25
vt 0.5 0.5
vt 0.375 0.75
vt 0.25 1
vt 0.625 0
vt 0.75 0.25
vt 0.625 0.5
vt 0.5 0.75
vt 0.375 1
vt 0.75 0
vt 0.875 0.25
vt 0.75 0.5
vt 0.625 0.75
vt 0.5 1
vt 0.875 0
vt 1 0.25
vt 0.875 0.5
vt 0.75 0.75
vt 0.625 1
vt 1 0.5
vt 0.75 1
g Geoset0
s 1
usemtl mat_blue32
f 1/1/1 2/2/2 3/3/3
f 4/4/4 5/5/5 6/6/6
f 4/4/4 6/6/6 7/7/7
f 4/4/4 7/7/7 8/8/8
f 4/4/4 9/9/9 5/5/5
f 4/4/4 10/10/10 9/9/9
f 4/4/4 11/11/11 10/10/10
f 12/12/12 13/13/13 14/14/14
f 12/12/12 14/14/14 15/15/15
f 16/16/16 12/12/12 15/15/15
f 16/16/16 15/15/15 17/17/17
f 18/18/18 16/16/16 17/17/17
f 18/18/18 17/17/17 19/19/19
f 20/20/20 18/18/18 19/19/19
f 20/20/20 19/19/19 21/21/21
f 22/22/22 20/20/20 21/21/21
f 22/22/22 21/21/21 23/23/23
f 15/15/15 14/14/14 24/24/24
f 15/15/15 24/24/24 25/25/25
f 17/17/17 15/15/15 25/25/25
f 17/17/17 25/25/25 26/26/26
f 19/19/19 17/17/17 26/26/26
f 19/19/19 26/26/26 27/27/27
f 21/21/21 19/19/19 27/27/27
f 21/21/21 27/27/27 28/28/28
f 23/23/23 21/21/21 28/28/28
f 23/23/23 28/28/28 29/29/29
f 13/13/13 30/30/30 31/31/31
f 13/13/13 31/31/31 14/14/14
f 14/14/14 31/31/31 32/32/32
f 14/14/14 32/32/32 24/24/24
f 24/24/24 32/32/32 33/33/33
f 24/24/24 33/33/33 34/34/34
f 25/25/25 24/24/24 34/34/34
f 25/25/25 34/34/34 35/35/35
f 26/26/26 25/25/25 35/35/35
f 26/26/26 35/35/35 36/36/36
f 27/27/27 26/26/26 36/36/36
f 27/27/27 36/36/36 37/37/37
f 28/28/28 27/27/27 37/37/37
f 28/28/28 37/37/37 38/38/38
f 29/29/29 28/28/28 38/38/38
f 29/29/29 38/38/38 39/39/39
f 39/39/39 40/40/40 41/41/41
f 39/39/39 38/38/38 40/40/40
f 41/41/41 40/40/40 42/42/42
f 43/43/43 44/44/44 42/42/42
f 45/45/45 43/43/43 42/42/42
f 40/40/40 45/45/45 42/42/42
f 44/44/44 46/46/46 42/42/42
f 46/46/46 47/47/47 42/42/42
f 38/38/38 45/45/45 40/40/40
f 38/38/38 37/37/37 45/45/45
f 37/37/37 43/43/43 45/45/45
f 37/37/37 36/36/36 43/43/43
f 36/36/36 44/44/44 43/43/43
f 36/36/36 35/35/35 44/44/44
f 35/35/35 46/46/46 44/44/44
f 35/35/35 34/34/34 46/46/46
f 34/34/34 47/47/47 46/46/46
f 34/34/34 33/33/33 47/47/47
f 48/48/48 49/49/49 50/50/50
f 51/51/51 50/50/50 49/49/49
f 52/52/52 51/51/51 53/53/53
f 51/51/51 49/49/49 53/53/53
f 53/53/53 49/49/49 54/54/54
f 55/55/55 54/54/54 49/49/49
f 56/56/56 57/57/57 54/54/54
f 58/58/58 54/54/54 57/57/57
f 53/53/53 54/54/54 58/58/58
f 59/59/59 53/53/53 58/58/58
f 52/52/52 53/53/53 59/59/59
f 60/60/60 52/52/52 59/59/59
f 61/61/61 62/62/62 57/57/57
f 63/63/63 57/57/57 62/62/62
f 58/58/58 57/57/57 63/63/63
f 64/64/64 58/58/58 63/63/63
f 59/59/59 58/58/58 64/64/64
f 65/65/65 59/59/59 64/64/64
f 66/66/66 67/67/67 62/62/62
f 68/68/68 62/62/62 67/67/67
f 63/63/63 62/62/62 68/68/68
f 69/69/69 63/63/63 68/68/68
f 64/64/64 63/63/63 69/69/69
f 70/70/70 64/64/64 69/69/69
f 71/71/71 72/72/72 67/67/67
f 73/73/73 67/67/67 72/72/72
f 68/68/68 67/67/67 73/73/73
f 74/74/74 68/68/68 73/73/73
f 69/69/69 68/68/68 74/74/74
f 75/75/75 69/69/69 74/74/74
f 76/76/76 77/77/77 72/72/72
f 78/78/78 72/72/72 77/77/77
f 73/73/73 72/72/72 78/78/78
f 79/79/79 73/73/73 78/78/78
f 74/74/74 73/73/73 79/79/79
f 80/80/80 74/74/74 79/79/79
f 81/81/81 82/82/82 77/77/77
f 83/83/83 77/77/77 82/82/82
f 78/78/78 77/77/77 83/83/83
f 84/84/84 78/78/78 83/83/83
f 79/79/79 78/78/78 84/84/84
f 85/85/85 79/79/79 84/84/84
f 83/83/83 82/82/82 86/86/86
f 2/2/2 83/83/83 86/86/86
f 84/84/84 83/83/83 2/2/2
f 87/87/87 84/84/84 2/2/2
f 2/2/2 86/86/86 3/3/3
