# Exported using wow.export v0.1.64
o candleblack01
mtllib candleblack01.mtl
v 0.014181560836732388 0.5823763608932495 -0.0010776519775390625
v 0.008612102828919888 0.5661595463752747 -0.011568175628781319
v -0.0016674465732648969 0.5711129307746887 -0.011984613724052906
v 0.0017200045986101031 0.5040644407272339 -0.0079481340944767
v 0.007042566780000925 0.5614220499992371 -0.0016046100063249469
v -0.0030411614570766687 0.5661595463752747 -0.0017900466918945312
v 0.008612102828919888 0.5661595463752747 -0.011568175628781319
v 0.0017200045986101031 0.5040644407272339 -0.0079481340944767
v -0.0030411614570766687 0.5661595463752747 -0.0017900466918945312
v -0.0016674465732648969 0.5711129307746887 -0.011984613724052906
v 0.008612102828919888 0.5661595463752747 -0.011568175628781319
v -0.07930777221918106 -0.0058242822997272015 -0.09679942578077316
v -0.1228654682636261 -0.005825141444802284 0.022868474945425987
v -0.0905710831284523 0.22624513506889343 0.017173979431390762
v -0.058230508118867874 0.22624778747558594 -0.07168155163526535
v -0.048163097351789474 0.5180066227912903 -0.06004047393798828
v 0.028321584686636925 0.5076092481613159 -0.07404730468988419
v -0.0378502756357193 0.55703204870224 -0.047750260680913925
v 0.020622465759515762 0.5451114773750305 -0.05895974859595299
v 0.07772890478372574 0.4868173599243164 -0.015166176483035088
v 0.03489028289914131 0.22624513506889343 -0.08809980005025864
v 0.04610506817698479 -0.005825141444802284 -0.11891470849514008
v 0.12796401977539062 -0.00582685973495245 -0.021359020844101906
v 0.09567133337259293 0.2262469381093979 -0.015664206817746162
v 0.08440865576267242 -0.005825141444802284 0.09831015020608902
v -0.04100630059838295 -0.00582685973495245 0.12042416632175446
v 0.0633307546377182 0.22624608874320984 0.0731896311044693
v -0.029789818450808525 0.2262469381093979 0.08961020410060883
v -0.025831647217273712 0.4868173599243164 0.0717308297753334
v 0.050651974976062775 0.4764200747013092 0.057722728699445724
v 0.03670777380466461 0.509349524974823 0.04110463336110115
v 0.05790180712938309 0.521270751953125 -0.014531665481626987
v 0.00193383963778615 0.5065277218818665 -0.00033696493483148515
v -0.07523812353610992 0.5076092481613159 0.012849596329033375
v -0.021763907745480537 0.521270751953125 0.0523156076669693
v -0.05904367193579674 0.5451114773750305 0.0078879464417696
v -0.0030411614570766687 0.5661595463752747 -0.0017900466918945312
v 0.007042566780000925 0.5614220499992371 -0.0016046100063249469
v 0.0099631417542696 0.5718408823013306 0.0057281916961073875
v -0.0016674465732648969 0.5711129307746887 -0.011984613724052906
v -0.0030411614570766687 0.5661595463752747 -0.0017900466918945312
v 0.0025282965507358313 0.5823763608932495 0.008700264617800713
v 0.007042566780000925 0.5614220499992371 -0.0016046100063249469
v 0.008612102828919888 0.5661595463752747 -0.011568175628781319
v 0.006675932090729475 0.5933939814567566 0.0018106036586686969
v -0.0016674465732648969 0.5711129307746887 -0.011984613724052906
v -0.0030411614570766687 0.5661595463752747 -0.0017900466918945312
v 0.008612102828919888 0.5661595463752747 -0.011568175628781319
v -0.0016674465732648969 0.5711129307746887 -0.011984613724052906
vn 0.5613990426063538 0.4875740706920624 0.6686573624610901
vn 0.18307098746299744 0.7742986679077148 -0.6057611703872681
vn 0.18307098746299744 0.7742986679077148 -0.6057611703872681
vn 0.6086127758026123 -0.3217189311981201 0.7253188490867615
vn 0.6085679531097412 -0.3217189610004425 0.7253564596176147
vn -0.06532591581344604 -0.23797756433486938 0.9690713286399841
vn 0.9656782746315002 -0.23798926174640656 0.10405085235834122
vn -0.6320662498474121 -0.18188689649105072 -0.7532658576965332
vn -0.9772343039512634 -0.13891878724098206 -0.16035811603069305
vn -0.6320956349372864 -0.1818869262933731 -0.7532411813735962
vn 0.011668447405099869 -0.1389205902814865 -0.9902347922325134
vn -0.6099483370780945 0.315555602312088 -0.7269027829170227
vn -0.9344848394393921 0.3155762851238251 0.16477151215076447
vn -0.95814049243927 0.23022939264774323 0.1701800376176834
vn -0.6262768507003784 0.22623226046562195 -0.7460538148880005
vn -0.5767996907234192 0.44536834955215454 -0.6847985982894897
vn 0.33631885051727295 0.45976313948631287 -0.8218926191329956
vn -0.1825258582830429 0.9599361419677734 -0.21261923015117645
vn 0.17799068987369537 0.9486072659492493 -0.2616554796695709
vn 0.8553414344787598 0.506673276424408 -0.1080426499247551
vn 0.334587424993515 0.23047135770320892 -0.9137473702430725
vn 0.32454532384872437 0.31556370854377747 -0.8916780948638916
vn 0.9344889521598816 0.3155596852302551 -0.16477999091148376
vn 0.9553715586662292 0.24482686817646027 -0.16530266404151917
vn 0.6099424362182617 0.31556668877601624 0.726902961730957
vn -0.3245440721511841 0.3155709505081177 0.8916760087013245
vn 0.6224639415740967 0.2529194951057434 0.7406553626060486
vn -0.3291628360748291 0.2424899786710739 0.912606418132782
vn -0.2509308159351349 0.5236910581588745 0.8141139149665833
vn 0.5404749512672424 0.5387744307518005 0.646226704120636
vn 0.21037282049655914 0.94081711769104 0.2657187283039093
vn 0.34254512190818787 0.9386807084083557 0.039260707795619965
vn 0.09289788454771042 0.9895013570785522 0.11071144044399261
vn -0.859692394733429 0.4733772873878479 0.19194525480270386
vn -0.0345546156167984 0.9362101554870605 0.34973782300949097
vn -0.29236212372779846 0.9466086030006409 0.1358550786972046
vn -0.1722486913204193 -0.8114420175552368 0.5584731698036194
vn -0.1722486913204193 -0.8114420175552368 0.5584731698036194
vn 0.5609819889068604 0.48757404088974 0.6690073013305664
vn -0.7917737364768982 0.6105079054832458 0.019351061433553696
vn -0.7917737364768982 0.6105079054832458 0.019351061433553696
vn 0.5609819889068604 0.48757404088974 0.6690073013305664
vn 0.8230348229408264 -0.5677940845489502 0.014951994642615318
vn 0.8230348229408264 -0.5677940845489502 0.014951994642615318
vn 0.5609819889068604 0.48757404088974 0.6690073013305664
vn -0.7493479251861572 0.6621754169464111 -0.0012081796303391457
vn -0.21310190856456757 -0.7608799338340759 0.6129023432731628
vn 0.7520212531089783 -0.6583057045936584 0.03313116356730461
vn 0.215689554810524 0.7393592000007629 -0.6378291249275208
vt 0.8800873756408691 0.9672888517379761
vt 0.5053497552871704 0.9671725034713745
vt 0.5053493976593018 0.9504928588867188
vt 0.018921632319688797 0.9672895669937134
vt 0.5053499341011047 0.9830615520477295
vt 0.5053497552871704 0.9671725034713745
vt 0.5053497552871704 0.9671725034713745
vt 0.018921632319688797 0.9672895669937134
vt 0.5053497552871704 0.9671725034713745
vt 0.5053493976593018 0.9504928588867188
vt 0.5053497552871704 0.9671725034713745
vt 0.6725816130638123 0.014504730701446533
vt 0.32587572932243347 0.014503419399261475
vt 0.32587572932243347 0.23917579650878906
vt 0.6725816130638123 0.23917579650878906
vt 0.6725816130638123 0.6680214405059814
vt 0.9873371124267578 0.6680214405059814
vt 0.6725816130638123 0.7475636601448059
vt 0.9873371124267578 0.7475636601448059
vt 0.6667340397834778 0.6680214405059814
vt 0.9873371124267578 0.23917579650878906
vt 0.9873371124267578 0.014503419399261475
vt 0.6667340397834778 0.014500916004180908
vt 0.6667340397834778 0.23917579650878906
vt 0.3265640139579773 0.014503419399261475
vt 0.016533317044377327 0.014500916004180908
vt 0.3265640139579773 0.23917579650878906
vt 0.016533317044377327 0.23917579650878906
vt 0.016533317044377327 0.6680214405059814
vt 0.3265640139579773 0.6680214405059814
vt 0.3265640139579773 0.7475636601448059
vt 0.6667340397834778 0.7475636601448059
vt 0.5000753402709961 0.9334734082221985
vt 0.32587572932243347 0.6680214405059814
vt 0.016533317044377327 0.7475636601448059
vt 0.32587572932243347 0.7475636601448059
vt 0.5053497552871704 0.9671725034713745
vt 0.5053499341011047 0.9830615520477295
vt 0.991491436958313 0.9925522804260254
vt 0.5053493976593018 0.9504928588867188
vt 0.5053497552871704 0.9671725034713745
vt 0.8800873756408691 0.9672888517379761
vt 0.5053499341011047 0.9830615520477295
vt 0.5053497552871704 0.9671725034713745
vt 0.9914906620979309 0.9407680034637451
vt 0.5053493976593018 0.9504928588867188
vt 0.5053497552871704 0.9671725034713745
vt 0.5053497552871704 0.9671725034713745
vt 0.5053493976593018 0.9504928588867188
g Geoset0
s 1
usemtl mat_6_candleblack
f 1/1/1 2/2/2 3/3/3
f 4/4/4 5/5/5 6/6/6
f 7/7/7 5/5/5 4/4/4
f 8/8/8 9/9/9 10/10/10
f 10/10/10 11/11/11 8/8/8
f 12/12/12 13/13/13 14/14/14
f 14/14/14 15/15/15 12/12/12
f 16/16/16 15/15/15 14/14/14
f 15/15/15 16/16/16 17/17/17
f 17/17/17 16/16/16 18/18/18
f 18/18/18 19/19/19 17/17/17
f 20/20/20 17/17/17 19/19/19
f 21/21/21 17/17/17 20/20/20
f 17/17/17 21/21/21 15/15/15
f 15/15/15 21/21/21 22/22/22
f 22/22/22 12/12/12 15/15/15
f 23/23/23 22/22/22 21/21/21
f 21/21/21 24/24/24 23/23/23
f 20/20/20 24/24/24 21/21/21
f 25/25/25 23/23/23 24/24/24
f 26/26/26 25/25/25 27/27/27
f 27/27/27 28/28/28 26/26/26
f 29/29/29 28/28/28 27/27/27
f 27/27/27 30/30/30 29/29/29
f 29/29/29 30/30/30 31/31/31
f 32/32/32 31/31/31 30/30/30
f 32/32/32 33/33/33 31/31/31
f 13/13/13 26/26/26 28/28/28
f 28/28/28 14/14/14 13/13/13
f 34/34/34 14/14/14 28/28/28
f 14/14/14 34/34/34 16/16/16
f 31/31/31 33/33/33 35/35/35
f 31/31/31 35/35/35 29/29/29
f 34/34/34 29/29/29 35/35/35
f 28/28/28 29/29/29 34/34/34
f 35/35/35 33/33/33 36/36/36
f 35/35/35 36/36/36 34/34/34
f 16/16/16 34/34/34 36/36/36
f 36/36/36 18/18/18 16/16/16
f 36/36/36 33/33/33 18/18/18
f 18/18/18 33/33/33 19/19/19
f 19/19/19 33/33/33 32/32/32
f 19/19/19 32/32/32 20/20/20
f 30/30/30 20/20/20 32/32/32
f 24/24/24 20/20/20 30/30/30
f 30/30/30 27/27/27 24/24/24
f 24/24/24 27/27/27 25/25/25
f 37/37/37 38/38/38 39/39/39
f 40/40/40 41/41/41 42/42/42
f 39/39/39 43/43/43 44/44/44
f 42/42/42 45/45/45 46/46/46
f 42/42/42 39/39/39 45/45/45
f 39/39/39 42/42/42 47/47/47
f 48/48/48 1/1/1 39/39/39
f 1/1/1 45/45/45 39/39/39
f 49/49/49 45/45/45 1/1/1
