# Exported using wow.export v0.1.64
o generaltorch01
mtllib generaltorch01.mtl
v 0.005365237593650818 -0.04691695049405098 -0.03873616084456444
v -0.04179378226399422 -0.04691695049405098 -0.007868565618991852
v -0.06537322700023651 2.1026737689971924 -0.014770767651498318
v 0.004559914115816355 2.1625754833221436 0.006966697052121162
v 0.06254411488771439 2.1625754833221436 0.08677508682012558
v 0.09838031232357025 2.1625754833221436 -0.023517409339547157
v -0.05342427268624306 2.1625754833221436 0.08677510172128677
v -0.08926048874855042 2.1625754833221436 -0.023517394438385963
v 0.004559914115816355 2.1625754833221436 -0.09168190509080887
v 0.004559914115816355 1.8697925806045532 0.006966697052121162
v 0.004559914115816355 1.8697925806045532 -0.07807520031929016
v 0.08543956279754639 1.8697925806045532 -0.019312703981995583
v -0.07631973177194595 1.8697925806045532 -0.019312690943479538
v -0.04542645439505577 1.8697925806045532 0.07576704025268555
v 0.0545462928712368 1.8697925806045532 0.07576702535152435
v -0.05342427268624306 2.1625754833221436 0.08677510172128677
v -0.08926048874855042 2.1625754833221436 -0.023517394438385963
v 0.06254411488771439 2.1625754833221436 0.08677508682012558
v 0.09838031232357025 2.1625754833221436 -0.023517409339547157
v 0.004559914115816355 2.1625754833221436 -0.09168190509080887
v 0.004559914115816355 1.8697925806045532 -0.07807520031929016
v -0.08926048874855042 2.1625754833221436 -0.023517394438385963
v -0.07631973177194595 1.8697925806045532 -0.019312690943479538
v -0.04179378226399422 -0.04691695049405098 -0.007868565618991852
v -0.038353513926267624 2.1026737689971924 0.06014646589756012
v -0.06537322700023651 2.1026737689971924 -0.014770767651498318
v -0.02378063276410103 -0.04691695049405098 0.04207625612616539
v 0.04908411204814911 2.1026737689971924 0.06014645844697952
v 0.03451111912727356 -0.04691695049405098 0.04207625240087509
v 0.0761038139462471 2.1026737689971924 -0.014770779758691788
v 0.052524253726005554 -0.04691695049405098 -0.007868574932217598
v 0.005365292076021433 2.1026737689971924 -0.06107216328382492
vn 2.2653298969999014e-7 -0.025085043162107468 -0.9996853470802307
vn -0.9594780206680298 -0.022806387394666672 -0.2808590829372406
vn -0.9594781994819641 -0.022806385532021523 -0.28085848689079285
vn 0 1 0
vn 0.49955838918685913 0.5269450545310974 0.6875829696655273
vn 0.8083022832870483 0.5269450545310974 -0.26263338327407837
vn -0.4995582401752472 0.5269450545310974 0.6875830292701721
vn -0.8083022832870483 0.5269451141357422 -0.2626333236694336
vn -3.162220352237455e-8 0.5269450545310974 -0.8498993515968323
vn 0 -1 0
vn -5.9084520387386874e-8 -0.5570658445358276 -0.8304682970046997
vn 0.7898222804069519 -0.5570658445358276 -0.2566289007663727
vn -0.7898223400115967 -0.5570657849311829 -0.2566288113594055
vn -0.48813700675964355 -0.5570658445358276 0.6718630194664001
vn 0.4881370961666107 -0.5570658445358276 0.6718629598617554
vn -0.4995582401752472 0.5269450545310974 0.6875830292701721
vn -0.8083022832870483 0.5269451141357422 -0.2626333236694336
vn 0.49955838918685913 0.5269450545310974 0.6875829696655273
vn 0.8083022832870483 0.5269450545310974 -0.26263338327407837
vn -3.162220352237455e-8 0.5269450545310974 -0.8498993515968323
vn -5.9084520387386874e-8 -0.5570658445358276 -0.8304682970046997
vn -0.8083022832870483 0.5269451141357422 -0.2626333236694336
vn -0.7898223400115967 -0.5570657849311829 -0.2566288113594055
vn -0.9594780206680298 -0.022806387394666672 -0.2808590829372406
vn -0.6275741457939148 -0.024136528372764587 0.7781825661659241
vn -0.9594781994819641 -0.022806385532021523 -0.28085848689079285
vn -0.6275746822357178 -0.024136530235409737 0.7781821489334106
vn 0.6275749206542969 -0.024136587977409363 0.7781819105148315
vn 0.6275744438171387 -0.024136589840054512 0.778182327747345
vn 0.959477961063385 -0.022806482389569283 -0.2808593213558197
vn 0.9594780802726746 -0.02280648797750473 -0.2808587849140167
vn -4.4903779894411855e-7 -0.025085048750042915 -0.9996853470802307
vt 0.7492488026618958 0.0004994869232177734
vt 0.9725976586341858 0.0004994869232177734
vt 0.9652801156044006 0.9125439524650574
vt 0.5007780194282532 0.8931624889373779
vt 0.32610201835632324 0.8537186980247498
vt 0.5674983263015747 0.8293409943580627
vt 0.326102077960968 0.9326063394546509
vt 0.5674984455108643 0.9569839835166931
vt 0.7166895270347595 0.8931624889373779
vt 0.29382553696632385 0.7855237126350403
vt -0.7121701836585999 0.7855237126350403
vt 0.867544412612915 0.7855237126350403
vt -0.27989301085472107 0.7855237126350403
vt 0.10929593443870544 0.7855237126350403
vt 0.4783555567264557 0.7855237126350403
vt 0.10929593443870544 0.9705150127410889
vt -0.27989301085472107 0.9705150127410889
vt 0.4783555567264557 0.9705150127410889
vt 0.867544412612915 0.9705150127410889
vt 1.2998214960098267 0.9705150127410889
vt 1.2998214960098267 0.7855237126350403
vt 1.7320984601974487 0.9705150127410889
vt 1.7320984601974487 0.7855237126350403
vt -0.02515007182955742 0.0004994869232177734
vt 0.15518949925899506 0.9125439524650574
vt -0.0324675478041172 0.9125439524650574
vt 0.1589575558900833 0.0004994869232177734
vt 0.3455601930618286 0.9125439524650574
vt 0.3417918384075165 0.0004994869232177734
vt 0.533217191696167 0.9125439524650574
vt 0.5258998274803162 0.0004994869232177734
vt 0.7492485642433167 0.9125439524650574
g Geoset0
s 1
usemtl mat_club_1h_torch_a_01
f 1/1/1 2/2/2 3/3/3
f 4/4/4 5/5/5 6/6/6
f 4/4/4 7/7/7 5/5/5
f 4/4/4 8/8/8 7/7/7
f 4/4/4 9/9/9 8/8/8
f 4/4/4 6/6/6 9/9/9
f 10/10/10 11/11/11 12/12/12
f 10/10/10 13/13/13 11/11/11
f 10/10/10 14/14/14 13/13/13
f 10/10/10 12/12/12 15/15/15
f 10/10/10 15/15/15 14/14/14
f 13/13/13 16/16/16 17/17/17
f 13/13/13 14/14/14 16/16/16
f 14/14/14 18/18/18 16/16/16
f 14/14/14 15/15/15 18/18/18
f 15/15/15 19/19/19 18/18/18
f 15/15/15 12/12/12 19/19/19
f 12/12/12 20/20/20 19/19/19
f 12/12/12 21/21/21 20/20/20
f 21/21/21 22/22/22 20/20/20
f 21/21/21 23/23/23 22/22/22
f 24/24/24 25/25/25 26/26/26
f 24/24/24 27/27/27 25/25/25
f 27/27/27 28/28/28 25/25/25
f 27/27/27 29/29/29 28/28/28
f 29/29/29 30/30/30 28/28/28
f 29/29/29 31/31/31 30/30/30
f 31/31/31 32/32/32 30/30/30
f 31/31/31 1/1/1 32/32/32
f 1/1/1 3/3/3 32/32/32
