# Exported using wow.export v0.1.64
o karazahncrate01
mtllib karazahncrate01.mtl
v -0.514898955821991 0.9496200680732727 -0.5977909564971924
v -0.514898955821991 0.9496200680732727 0.5684090256690979
v 0.543010950088501 0.9496200680732727 0.5684090256690979
v -0.514898955821991 0 -0.5977909564971924
v -0.514898955821991 0 0.5684090256690979
v -0.514898955821991 0.9496200680732727 0.5684090256690979
v -0.514898955821991 0.9496200680732727 -0.5977909564971924
v 0.543010950088501 0 0.5684090256690979
v 0.543010950088501 0 -0.5977909564971924
v 0.543010950088501 0.9496200680732727 -0.5977909564971924
v 0.543010950088501 0.9496200680732727 0.5684090256690979
v -0.514898955821991 0 0.5684090256690979
v 0.543010950088501 0 0.5684090256690979
v 0.543010950088501 0.9496200680732727 0.5684090256690979
v -0.514898955821991 0 0.5684090256690979
v -0.514898955821991 0 -0.5977909564971924
v 0.543010950088501 0 -0.5977909564971924
v -0.514898955821991 0 -0.5977909564971924
v 0.543010950088501 0.9496200680732727 -0.5977909564971924
v 0.543010950088501 0.9496200680732727 -0.5977909564971924
vn -0.3317917585372925 0.5956577062606812 -0.7315095067024231
vn -0.8150743842124939 0.36582085490226746 0.449253648519516
vn 0.3317917585372925 0.5956577062606812 0.7315095067024231
vn -0.6885011196136475 -0.6180246472358704 -0.37948882579803467
vn -0.3873012959957123 -0.34765633940696716 0.8538927435874939
vn -0.8150743842124939 0.36582085490226746 0.449253648519516
vn -0.3317917585372925 0.5956577062606812 -0.7315095067024231
vn 0.6885011196136475 -0.6180246472358704 0.37948882579803467
vn 0.3873012959957123 -0.34765633940696716 -0.8538927435874939
vn 0.8150743842124939 0.36582085490226746 -0.449253648519516
vn 0.3317917585372925 0.5956577062606812 0.7315095067024231
vn -0.3873012959957123 -0.34765633940696716 0.8538927435874939
vn 0.6885011196136475 -0.6180246472358704 0.37948882579803467
vn 0.3317917585372925 0.5956577062606812 0.7315095067024231
vn -0.3873012959957123 -0.34765633940696716 0.8538927435874939
vn -0.6885011196136475 -0.6180246472358704 -0.37948882579803467
vn 0.3873012959957123 -0.34765633940696716 -0.8538927435874939
vn -0.6885011196136475 -0.6180246472358704 -0.37948882579803467
vn 0.8150743842124939 0.36582085490226746 -0.449253648519516
vn 0.8150743842124939 0.36582085490226746 -0.449253648519516
vt 1 1
vt 0 1
vt 0 0
vt 0 0
vt 1 0
vt 1 1
vt 0 1
vt 0 0
vt 1 0
vt 1 1
vt 0 1
vt 0 0
vt 1 0
vt 1 1
vt 1 1
vt 0 1
vt 0 0
vt 1 0
vt 0 1
vt 1 0
g Geoset0
s 1
usemtl mat_karazahncrate01
f 1/1/1 2/2/2 3/3/3
f 4/4/4 5/5/5 6/6/6
f 6/6/6 7/7/7 4/4/4
f 8/8/8 9/9/9 10/10/10
f 10/10/10 11/11/11 8/8/8
f 12/12/12 13/13/13 14/14/14
f 14/14/14 2/2/2 12/12/12
f 13/13/13 15/15/15 16/16/16
f 16/16/16 17/17/17 13/13/13
f 17/17/17 18/18/18 1/1/1
f 1/1/1 19/19/19 17/17/17
f 3/3/3 20/20/20 1/1/1
