# Exported using wow.export v0.1.64
o karazahncrate02
mtllib karazahncrate02.mtl
v -0.5364808440208435 0.0041290405206382275 -0.6274025440216064
v 0.5797079205513 0.0041290405206382275 -0.6274025440216064
v 0.5797079205513 0.004128946922719479 0.4911835491657257
v -0.530921995639801 0.048033300787210464 0.2885473668575287
v -0.5927456021308899 0.048033297061920166 0.2885473668575287
v -0.5927456021308899 0.6130908727645874 -0.5690942406654358
v -0.530921995639801 0.6130908727645874 -0.5690942406654358
v -0.5364808440208435 0.0041290405206382275 -0.6274025440216064
v -0.5364808440208435 0.004128946922719479 0.4911835491657257
v -0.5364808440208435 0.8830178380012512 0.4911837577819824
v -0.5364808440208435 0.8830179572105408 -0.6274023056030273
v 0.5797079205513 0.004128946922719479 0.4911835491657257
v 0.5797079205513 0.0041290405206382275 -0.6274025440216064
v 0.5797079205513 0.8830179572105408 -0.6274023056030273
v 0.5797079205513 0.8830178380012512 0.4911837577819824
v 0.5662911534309387 0.6685407161712646 0.462188184261322
v 0.6281148195266724 0.6685407161712646 0.462188184261322
v 0.6281148195266724 0.8606138229370117 0.3336561918258667
v 0.5662911534309387 0.8606138825416565 0.3336561918258667
v 0.6281148195266724 0.024400515481829643 -0.4691809117794037
v 0.5662911534309387 0.024400517344474792 -0.4691809117794037
v 0.5662911534309387 0.2463308721780777 -0.5977128744125366
v 0.6281148195266724 0.2463308721780777 -0.5977128744125366
v 0.6281148195266724 0.6685407161712646 0.462188184261322
v 0.6281148195266724 0.024400515481829643 -0.4691809117794037
v 0.6281148195266724 0.2463308721780777 -0.5977128744125366
v 0.6281148195266724 0.8606138229370117 0.3336561918258667
v 0.6281148195266724 0.8606138229370117 0.3336561918258667
v 0.6281148195266724 0.2463308721780777 -0.5977128744125366
v 0.5662911534309387 0.2463308721780777 -0.5977128744125366
v 0.5662911534309387 0.8606138825416565 0.3336561918258667
v 0.6281148195266724 0.6685407161712646 0.462188184261322
v 0.5662911534309387 0.6685407161712646 0.462188184261322
v 0.5662911534309387 0.024400517344474792 -0.4691809117794037
v 0.6281148195266724 0.024400515481829643 -0.4691809117794037
v -0.3927258253097534 0.0918416976928711 0.49153852462768555
v -0.39293721318244934 0.09392793476581573 0.5477076172828674
v -0.4976084530353546 0.3402813971042633 0.5399152040481567
v -0.4973970651626587 0.33819517493247986 0.4837460517883301
v 0.5505518317222595 0.5477350354194641 0.5318400263786316
v 0.5507632493972778 0.5456488132476807 0.4756709337234497
v 0.44609203934669495 0.792002260684967 0.4678784906864166
v 0.44588062167167664 0.7940884828567505 0.5240476131439209
v -0.39293721318244934 0.09392793476581573 0.5477076172828674
v 0.5505518317222595 0.5477350354194641 0.5318400263786316
v 0.44588062167167664 0.7940884828567505 0.5240476131439209
v -0.4976084530353546 0.3402813971042633 0.5399152040481567
v -0.4976084530353546 0.3402813971042633 0.5399152040481567
v 0.44588062167167664 0.7940884828567505 0.5240476131439209
v 0.44609203934669495 0.792002260684967 0.4678784906864166
v -0.4973970651626587 0.33819517493247986 0.4837460517883301
v -0.39293721318244934 0.09392793476581573 0.5477076172828674
v -0.3927258253097534 0.0918416976928711 0.49153852462768555
v 0.5507632493972778 0.5456488132476807 0.4756709337234497
v 0.5505518317222595 0.5477350354194641 0.5318400263786316
v 0.515064537525177 0.13037709891796112 -0.6102044582366943
v 0.5156341791152954 0.12908414006233215 -0.6663926243782043
v 0.5779356956481934 0.37939921021461487 -0.6704375147819519
v 0.5773659348487854 0.38069215416908264 -0.6142493486404419
v -0.50632244348526 0.502011775970459 -0.6841927766799927
v -0.506892204284668 0.5033047795295715 -0.6280045509338379
v -0.4445907175540924 0.7536197900772095 -0.6320495009422302
v -0.44402092695236206 0.7523267865180969 -0.6882376670837402
v 0.5156341791152954 0.12908414006233215 -0.6663926243782043
v -0.50632244348526 0.502011775970459 -0.6841927766799927
v -0.44402092695236206 0.7523267865180969 -0.6882376670837402
v 0.5779356956481934 0.37939921021461487 -0.6704375147819519
v 0.5779356956481934 0.37939921021461487 -0.6704375147819519
v -0.44402092695236206 0.7523267865180969 -0.6882376670837402
v -0.4445907175540924 0.7536197900772095 -0.6320495009422302
v 0.5773659348487854 0.38069215416908264 -0.6142493486404419
v 0.5156341791152954 0.12908414006233215 -0.6663926243782043
v 0.515064537525177 0.13037709891796112 -0.6102044582366943
v -0.506892204284668 0.5033047795295715 -0.6280045509338379
v -0.50632244348526 0.502011775970459 -0.6841927766799927
v -0.5927456021308899 0.048033297061920166 0.2885473668575287
v -0.530921995639801 0.048033300787210464 0.2885473668575287
v -0.530921995639801 0.23771736025810242 0.4053947329521179
v -0.5927456021308899 0.23771736025810242 0.4053947329521179
v -0.5927456021308899 0.6130908727645874 -0.5690942406654358
v -0.5927456021308899 0.048033297061920166 0.2885473668575287
v -0.5927456021308899 0.23771736025810242 0.4053947329521179
v -0.5927456021308899 0.802774965763092 -0.45224687457084656
v -0.530921995639801 0.6130908727645874 -0.5690942406654358
v -0.5927456021308899 0.6130908727645874 -0.5690942406654358
v -0.5927456021308899 0.802774965763092 -0.45224687457084656
v -0.530921995639801 0.802774965763092 -0.45224687457084656
v -0.530921995639801 0.23771736025810242 0.4053947329521179
v -0.530921995639801 0.802774965763092 -0.45224687457084656
v -0.5927456021308899 0.802774965763092 -0.45224687457084656
v -0.5927456021308899 0.23771736025810242 0.4053947329521179
v -0.5364808440208435 0.004128946922719479 0.4911835491657257
v 0.5797079205513 0.8830178380012512 0.4911837577819824
v -0.5364808440208435 0.8830178380012512 0.4911837577819824
v -0.5364808440208435 0.8830179572105408 -0.6274023056030273
v 0.5797079205513 0.8830178380012512 0.4911837577819824
v 0.5797079205513 0.8830179572105408 -0.6274023056030273
v -0.5364808440208435 0.0041290405206382275 -0.6274025440216064
v 0.5797079205513 0.8830179572105408 -0.6274023056030273
v -0.5364808440208435 0.004128946922719479 0.4911835491657257
vn -0.059847574681043625 -0.26278916001319885 -0.9629954099655151
vn 0.059847522526979446 -0.2627890408039093 -0.9629954099655151
vn 0.06628493219614029 -0.16937756538391113 0.9833196401596069
vn 0 -0.7161099314689636 0.6979874968528748
vn -0.14223051071166992 -0.7088295221328735 0.6908916234970093
vn -0.0434168316423893 -0.04572433605790138 -0.9980101585388184
vn 0 -0.045767489820718765 -0.9989520907402039
vn -0.059847574681043625 -0.26278916001319885 -0.9629954099655151
vn -0.06628493219614029 -0.16937756538391113 0.9833196401596069
vn -0.059847574681043625 0.26278916001319885 0.9629954099655151
vn -0.06628493219614029 0.16937756538391113 -0.9833196401596069
vn 0.06628493219614029 -0.16937756538391113 0.9833196401596069
vn 0.059847522526979446 -0.2627890408039093 -0.9629954099655151
vn 0.06628493219614029 0.16937756538391113 -0.9833196401596069
vn 0.059847526252269745 0.2627890110015869 0.9629954099655151
vn 0 -0.08847619593143463 0.9960783123970032
vn 0.055263012647628784 -0.08834099024534225 0.9945561289787292
vn 0.08974280208349228 0.46298202872276306 0.8818128108978271
vn 0 0.46485790610313416 0.885385274887085
vn 0.08481357991695404 -0.4332427680492401 -0.8972777724266052
vn 0 -0.4348095953464508 -0.9005224108695984
vn 0 0.09760596603155136 -0.9952251315116882
vn 0.05692167580127716 0.0974477156996727 -0.9936115145683289
vn 0.055263012647628784 -0.08834099024534225 0.9945561289787292
vn 0.08481357991695404 -0.4332427680492401 -0.8972777724266052
vn 0.05692167580127716 0.0974477156996727 -0.9936115145683289
vn 0.08974280208349228 0.46298202872276306 0.8818128108978271
vn 0.08974280208349228 0.46298202872276306 0.8818128108978271
vn 0.05692167580127716 0.0974477156996727 -0.9936115145683289
vn 0 0.09760596603155136 -0.9952251315116882
vn 0 0.46485790610313416 0.885385274887085
vn 0.055263012647628784 -0.08834099024534225 0.9945561289787292
vn 0 -0.08847619593143463 0.9960783123970032
vn 0 -0.4348095953464508 -0.9005224108695984
vn 0.08481357991695404 -0.4332427680492401 -0.8972777724266052
vn -0.006498910486698151 -0.2535782754421234 0.9672930240631104
vn -0.0049860212020576 -0.1784074753522873 0.9839440584182739
vn -0.10760967433452606 0.2102290391921997 0.9717118144035339
vn -0.10254815965890884 -0.2635291516780853 0.9591851830482483
vn 0.1293657422065735 0.11317148804664612 0.9851176142692566
vn 0.052412450313568115 -0.24630147218704224 0.9677750468254089
vn 0.009797588922083378 0.25395944714546204 -0.9671652317047119
vn 0.01583022251725197 0.2861352562904358 0.9580584764480591
vn -0.0049860212020576 -0.1784074753522873 0.9839440584182739
vn 0.1293657422065735 0.11317148804664612 0.9851176142692566
vn 0.01583022251725197 0.2861352562904358 0.9580584764480591
vn -0.10760967433452606 0.2102290391921997 0.9717118144035339
vn -0.10760967433452606 0.2102290391921997 0.9717118144035339
vn 0.01583022251725197 0.2861352562904358 0.9580584764480591
vn 0.009797588922083378 0.25395944714546204 -0.9671652317047119
vn -0.10254815965890884 -0.2635291516780853 0.9591851830482483
vn -0.0049860212020576 -0.1784074753522873 0.9839440584182739
vn -0.006498910486698151 -0.2535782754421234 0.9672930240631104
vn 0.052412450313568115 -0.24630147218704224 0.9677750468254089
vn 0.1293657422065735 0.11317148804664612 0.9851176142692566
vn 0.01747709885239601 -0.2511833608150482 0.9677817225456238
vn 0.028355151414871216 -0.2843751907348633 -0.9582936763763428
vn 0.14627617597579956 -0.048443980515003204 -0.9880568981170654
vn 0.04867050051689148 0.27239975333213806 -0.9609524011611938
vn -0.08972149342298508 -0.22578410804271698 -0.9700369238853455
vn -0.11726468056440353 0.21680057048797607 -0.9691473245620728
vn -0.011495956219732761 0.2531525194644928 -0.9673580527305603
vn -0.009448234923183918 0.18245063722133636 -0.9831696152687073
vn 0.028355151414871216 -0.2843751907348633 -0.9582936763763428
vn -0.08972149342298508 -0.22578410804271698 -0.9700369238853455
vn -0.009448234923183918 0.18245063722133636 -0.9831696152687073
vn 0.14627617597579956 -0.048443980515003204 -0.9880568981170654
vn 0.14627617597579956 -0.048443980515003204 -0.9880568981170654
vn -0.009448234923183918 0.18245063722133636 -0.9831696152687073
vn -0.011495956219732761 0.2531525194644928 -0.9673580527305603
vn 0.04867050051689148 0.27239975333213806 -0.9609524011611938
vn 0.028355151414871216 -0.2843751907348633 -0.9582936763763428
vn 0.01747709885239601 -0.2511833608150482 0.9677817225456238
vn -0.11726468056440353 0.21680057048797607 -0.9691473245620728
vn -0.08972149342298508 -0.22578410804271698 -0.9700369238853455
vn -0.14223051071166992 -0.7088295221328735 0.6908916234970093
vn 0 -0.7161099314689636 0.6979874968528748
vn 0 0.04576749727129936 0.9989520907402039
vn -0.0434168316423893 0.04572433605790138 0.9980101585388184
vn -0.0434168316423893 -0.04572433605790138 -0.9980101585388184
vn -0.14223051071166992 -0.7088295221328735 0.6908916234970093
vn -0.0434168316423893 0.04572433605790138 0.9980101585388184
vn -0.14223051071166992 0.7088295221328735 -0.6908916234970093
vn 0 -0.045767489820718765 -0.9989520907402039
vn -0.0434168316423893 -0.04572433605790138 -0.9980101585388184
vn -0.14223051071166992 0.7088295221328735 -0.6908916234970093
vn 0 0.7161097526550293 -0.6979876756668091
vn 0 0.04576749727129936 0.9989520907402039
vn 0 0.7161097526550293 -0.6979876756668091
vn -0.14223051071166992 0.7088295221328735 -0.6908916234970093
vn -0.0434168316423893 0.04572433605790138 0.9980101585388184
vn -0.06628493219614029 -0.16937756538391113 0.9833196401596069
vn 0.059847526252269745 0.2627890110015869 0.9629954099655151
vn -0.059847574681043625 0.26278916001319885 0.9629954099655151
vn -0.06628493219614029 0.16937756538391113 -0.9833196401596069
vn 0.059847526252269745 0.2627890110015869 0.9629954099655151
vn 0.06628493219614029 0.16937756538391113 -0.9833196401596069
vn -0.059847574681043625 -0.26278916001319885 -0.9629954099655151
vn 0.06628493219614029 0.16937756538391113 -0.9833196401596069
vn -0.06628493219614029 -0.16937756538391113 0.9833196401596069
vt 0 1
vt 0 0
vt 1 0
vt 0.001996278762817383 0.8140096664428711
vt 0.001996278762817383 0.8429951071739197
vt 1.0068272352218628 0.8091787099838257
vt 1.002834677696228 0.7847247123718262
vt 0 0
vt 1 0
vt 1 1
vt 0 1
vt 0 0
vt 1 0
vt 1 1
vt 0 1
vt 0.013137303292751312 0.8166087865829468
vt 0.04178888723254204 0.8140096664428711
vt 0.04178888723254204 0.9989936947822571
vt 0.009144745767116547 0.9970613718032837
vt 0.9832045435905457 0.7847247123718262
vt 0.9649032950401306 0.7850241661071777
vt 0.9649032950401306 1.000541090965271
vt 0.9871971011161804 0.9957102537155151
vt 0.003992494195699692 0.8161256909370422
vt 1 0.7801932692527771
vt 1 1
vt 0 1
vt 0.003992557525634766 0.9835011959075928
vt 0.9980744123458862 0.9869993329048157
vt 0.9980744123458862 1.0048308372497559
vt 0 0.9980405569076538
vt 0.001996278762817383 0.8140096664428711
vt 0.001996278762817383 0.8429951071739197
vt 1.0068272352218628 0.8091787099838257
vt 1.002834677696228 0.7847247123718262
vt 0.013137303292751312 0.8166087865829468
vt 0.04178888723254204 0.8140096664428711
vt 0.04178888723254204 0.9989936947822571
vt 0.009144745767116547 0.9970613718032837
vt 0.9832045435905457 0.7847247123718262
vt 0.9649032950401306 0.7850241661071777
vt 0.9649032950401306 1.000541090965271
vt 0.9871971011161804 0.9957102537155151
vt 0.003992494195699692 0.8161256909370422
vt 1 0.7801932692527771
vt 1 1
vt 0 1
vt 0.003992557525634766 0.9835011959075928
vt 0.9980744123458862 0.9869993329048157
vt 0.9980744123458862 1.0048308372497559
vt 0 0.9980405569076538
vt 0.001996278762817383 0.8140096664428711
vt 0.001996278762817383 0.8429951071739197
vt 1.0068272352218628 0.8091787099838257
vt 1.002834677696228 0.7847247123718262
vt 0.013137303292751312 0.8166087865829468
vt 0.04178888723254204 0.8140096664428711
vt 0.04178888723254204 0.9989936947822571
vt 0.009144745767116547 0.9970613718032837
vt 0.9832045435905457 0.7847247123718262
vt 0.9649032950401306 0.7850241661071777
vt 0.9649032950401306 1.000541090965271
vt 0.9871971011161804 0.9957102537155151
vt 0.003992494195699692 0.8161256909370422
vt 1 0.7801932692527771
vt 1 1
vt 0 1
vt 0.003992557525634766 0.9835011959075928
vt 0.9980744123458862 0.9869993329048157
vt 0.9980744123458862 1.0048308372497559
vt 0 0.9980405569076538
vt 0.001996278762817383 0.8140096664428711
vt 0.001996278762817383 0.8429951071739197
vt 1.0068272352218628 0.8091787099838257
vt 1.002834677696228 0.7847247123718262
vt 0.9832045435905457 0.7847247123718262
vt 0.9649032950401306 0.7850241661071777
vt 0.9649032950401306 1.000541090965271
vt 0.9871971011161804 0.9957102537155151
vt 0.003992494195699692 0.8161256909370422
vt 1 0.7801932692527771
vt 1 1
vt 0 1
vt 0.013137303292751312 0.8166087865829468
vt 0.04178888723254204 0.8140096664428711
vt 0.04178888723254204 0.9989936947822571
vt 0.009144745767116547 0.9970613718032837
vt 0.003992557525634766 0.9835011959075928
vt 0.9980744123458862 0.9869993329048157
vt 0.9980744123458862 1.0048308372497559
vt 0 0.9980405569076538
vt 0 0
vt 1 1
vt 0 1
vt 1 1
vt 0 0
vt 1 0
vt 1 0
vt 0 1
vt 1 1
g Geoset0
s 1
usemtl mat_karazahncrate01
f 1/1/1 2/2/2 3/3/3
f 4/4/4 5/5/5 6/6/6
f 6/6/6 7/7/7 4/4/4
f 8/8/8 9/9/9 10/10/10
f 10/10/10 11/11/11 8/8/8
f 12/12/12 13/13/13 14/14/14
f 14/14/14 15/15/15 12/12/12
f 16/16/16 17/17/17 18/18/18
f 18/18/18 19/19/19 16/16/16
f 20/20/20 21/21/21 22/22/22
f 22/22/22 23/23/23 20/20/20
f 24/24/24 25/25/25 26/26/26
f 26/26/26 27/27/27 24/24/24
f 28/28/28 29/29/29 30/30/30
f 30/30/30 31/31/31 28/28/28
f 32/32/32 33/33/33 34/34/34
f 34/34/34 35/35/35 32/32/32
f 36/36/36 37/37/37 38/38/38
f 38/38/38 39/39/39 36/36/36
f 40/40/40 41/41/41 42/42/42
f 42/42/42 43/43/43 40/40/40
f 44/44/44 45/45/45 46/46/46
f 46/46/46 47/47/47 44/44/44
f 48/48/48 49/49/49 50/50/50
f 50/50/50 51/51/51 48/48/48
f 52/52/52 53/53/53 54/54/54
f 54/54/54 55/55/55 52/52/52
f 56/56/56 57/57/57 58/58/58
f 58/58/58 59/59/59 56/56/56
f 60/60/60 61/61/61 62/62/62
f 62/62/62 63/63/63 60/60/60
f 64/64/64 65/65/65 66/66/66
f 66/66/66 67/67/67 64/64/64
f 68/68/68 69/69/69 70/70/70
f 70/70/70 71/71/71 68/68/68
f 72/72/72 73/73/73 74/74/74
f 74/74/74 75/75/75 72/72/72
f 76/76/76 77/77/77 78/78/78
f 78/78/78 79/79/79 76/76/76
f 80/80/80 81/81/81 82/82/82
f 82/82/82 83/83/83 80/80/80
f 84/84/84 85/85/85 86/86/86
f 86/86/86 87/87/87 84/84/84
f 88/88/88 89/89/89 90/90/90
f 90/90/90 91/91/91 88/88/88
f 92/92/92 3/3/3 93/93/93
f 93/93/93 94/94/94 92/92/92
f 95/95/95 94/94/94 96/96/96
f 96/96/96 97/97/97 95/95/95
f 2/2/2 98/98/98 95/95/95
f 95/95/95 99/99/99 2/2/2
f 3/3/3 100/100/100 1/1/1
