# Exported using wow.export v0.1.64
o altar02
mtllib altar02.mtl
v 0.9965416789054871 0.701627790927887 2.027086019515991
v -1.1584666967391968 0.701627790927887 2.027086019515991
v -0.9502833485603333 0.7092778086662292 1.6335638761520386
v 0.9900083541870117 0.7069694399833679 -2.039311170578003
v -1.1594749689102173 1.1678972244262695 -2.039311170578003
v 0.9900083541870117 1.1678972244262695 -2.039311170578003
v -1.1594749689102173 0.7069694399833679 -2.039311170578003
v 0.7823611497879028 0.713586151599884 -1.6457916498184204
v -0.9510944485664368 0.713586151599884 -1.6457916498184204
v 0.6148999929428101 -0.16078639030456543 -1.3284333944320679
v -0.783050000667572 -0.16078639030456543 -1.3284333944320679
v -1.1584666967391968 1.1675167083740234 2.027086019515991
v -1.1584666967391968 0.701627790927887 2.027086019515991
v -0.9502833485603333 0.7092778086662292 1.6335638761520386
v -0.7823889255523682 -0.16425999999046326 1.316205620765686
v 0.9965416789054871 1.1675167083740234 2.027086019515991
v -1.1584666967391968 0.701627790927887 2.027086019515991
v -1.1584666967391968 1.1675167083740234 2.027086019515991
v 0.787630558013916 0.7092778086662292 1.6335638761520386
v -0.9502833485603333 0.7092778086662292 1.6335638761520386
v -0.7823889255523682 -0.16425999999046326 1.316205620765686
v 0.6191499829292297 -0.16425999999046326 1.316205620765686
v 0.9900083541870117 1.1678972244262695 -2.039311170578003
v 0.9900083541870117 0.7069694399833679 -2.039311170578003
v 0.7823611497879028 0.713586151599884 -1.6457916498184204
v 0.6148999929428101 -0.16078639030456543 -1.3284333944320679
v -0.9502833485603333 0.7092778086662292 1.6335638761520386
v -1.1594749689102173 1.1678972244262695 -2.039311170578003
v 0.9965416789054871 1.1675167083740234 2.027086019515991
v 0.9900083541870117 1.1678972244262695 -2.039311170578003
v -1.1584666967391968 1.1675167083740234 2.027086019515991
vn 0.5816745162010193 -0.7630061507225037 0.2819156348705292
vn -0.2730838358402252 -0.7629160284996033 0.5859900116920471
vn -0.5130318403244019 -0.8238739371299744 0.24089427292346954
vn 0.27258458733558655 -0.7615388035774231 -0.5880104899406433
vn -0.44725796580314636 -1.0402869321524122e-7 -0.8944050073623657
vn 0.8938517570495605 0 -0.44836267828941345
vn -0.5810810327529907 -0.7622597813606262 -0.28513994812965393
vn 0.5126185417175293 -0.8231821656227112 -0.2441176027059555
vn -0.23594267666339874 -0.837688148021698 -0.4925542175769806
vn 0.4391351044178009 -0.28882667422294617 -0.8507288098335266
vn -0.8746275305747986 -0.236498162150383 -0.42319655418395996
vn -0.8943383097648621 0 0.4473913311958313
vn -0.2730838358402252 -0.7629160284996033 0.5859900116920471
vn -0.5130318403244019 -0.8238739371299744 0.24089427292346954
vn -0.4394432008266449 -0.2892265021800995 0.8504338264465332
vn 0.44750073552131653 0 0.8942835927009583
vn -0.2730838358402252 -0.7629160284996033 0.5859900116920471
vn -0.8943383097648621 0 0.4473913311958313
vn 0.23625685274600983 -0.8389061689376831 0.4903255105018616
vn -0.5130318403244019 -0.8238739371299744 0.24089427292346954
vn -0.4394432008266449 -0.2892265021800995 0.8504338264465332
vn 0.8752226829528809 -0.23675775527954102 0.42181870341300964
vn 0.8938517570495605 0 -0.44836267828941345
vn 0.27258458733558655 -0.7615388035774231 -0.5880104899406433
vn 0.5126185417175293 -0.8231821656227112 -0.2441176027059555
vn 0.4391351044178009 -0.28882667422294617 -0.8507288098335266
vn -0.5130318403244019 -0.8238739371299744 0.24089427292346954
vn 0 1 0.00012757020886056125
vn 0 1 0.00012757020886056125
vn 0 1 0.00012757020886056125
vn 0 1 0.00012757020886056125
vt 0.010927379131317139 0.4852942228317261
vt 0.38919371366500854 0.48464328050613403
vt 0.3891989588737488 0.37335824966430664
vt 0.38755038380622864 0.48479795455932617
vt 0.011000186204910278 0.9789528846740723
vt 0.38755038380622864 0.9790639281272888
vt 0.011664152145385742 0.48479795455932617
vt 0.38757026195526123 0.37413638830184937
vt 0.011666804552078247 0.37413638830184937
vt 0.38759496808052063 0.022165894508361816
vt 0.011670082807540894 0.022165894508361816
vt 0.98735111951828 0.9790506362915039
vt 0.9865309596061707 0.48472464084625244
vt 0.9865275621414185 0.37335824966430664
vt 0.9873436093330383 0.02195793390274048
vt 0.010996758937835693 0.9790506362915039
vt 0.3891831636428833 0.48464328050613403
vt 0.38911962509155273 0.9790506362915039
vt 0.010989785194396973 0.3738657236099243
vt 0.38919371366500854 0.37335824966430664
vt 0.38914066553115845 0.02195793390274048
vt 0.0109480619430542 0.02212613821029663
vt 0.98735111951828 0.9790506362915039
vt 0.9865309596061707 0.48472464084625244
vt 0.9865275621414185 0.37335824966430664
vt 0.9878009557723999 0.022165894508361816
vt 0.3892042636871338 0.37285083532333374
vt 0.014106974005699158 0.03257650136947632
vt 0.9811508059501648 0.9843553304672241
vt 0.014274151995778084 0.985935628414154
vt 0.9794297218322754 0.03703588247299194
g Geoset0
s 1
usemtl mat_gatestone01
f 1/1/1 2/2/2 3/3/3
f 4/4/4 5/5/5 6/6/6
f 5/5/5 4/4/4 7/7/7
f 7/7/7 4/4/4 8/8/8
f 8/8/8 9/9/9 7/7/7
f 9/9/9 8/8/8 10/10/10
f 10/10/10 11/11/11 9/9/9
f 7/7/7 12/12/12 5/5/5
f 12/12/12 7/7/7 13/13/13
f 13/13/13 7/7/7 9/9/9
f 9/9/9 14/14/14 13/13/13
f 14/14/14 9/9/9 11/11/11
f 11/11/11 15/15/15 14/14/14
f 16/16/16 17/17/17 1/1/1
f 17/17/17 16/16/16 18/18/18
f 19/19/19 20/20/20 21/21/21
f 21/21/21 22/22/22 19/19/19
f 1/1/1 23/23/23 16/16/16
f 23/23/23 1/1/1 24/24/24
f 24/24/24 1/1/1 19/19/19
f 19/19/19 25/25/25 24/24/24
f 25/25/25 19/19/19 22/22/22
f 22/22/22 26/26/26 25/25/25
f 27/27/27 19/19/19 1/1/1
g Geoset1
s 1
usemtl mat_basestone
f 28/28/28 29/29/29 30/30/30
f 29/29/29 28/28/28 31/31/31
